<?xml version="1.0" encoding="utf-8"?>
<!-- Generator: Adobe Illustrator 23.0.1, SVG Export Plug-In . SVG Version: 6.00 Build 0)  -->
<svg version="1.1" id="Layer_1" xmlns="http://www.w3.org/2000/svg" xmlns:xlink="http://www.w3.org/1999/xlink" x="0px" y="0px"
	 viewBox="0 0 40 40" style="enable-background:new 0 0 40 40;" xml:space="preserve">
<style type="text/css">
	.st0{clip-path:url(#SVGID_2_);}
	.st1{clip-path:url(#SVGID_4_);fill:#FFFFFF;}
</style>
<g>
	<defs>
		<path id="SVGID_1_" d="M19.5,38.1c-3.5,0-6.9-1-9.9-3C1.2,29.7-1.1,18.6,4.4,10.4c3.4-5,9-8,15.1-8c0.5,0,0.9,0.4,0.9,0.9
			c0,0.5-0.4,0.9-0.9,0.9C14,4.2,9,6.9,5.9,11.4C1,18.8,3.1,28.7,10.5,33.6c3.6,2.4,8,3.2,12.2,2.3c4.3-0.9,7.9-3.3,10.3-6.9
			c4.9-7.4,2.9-17.4-4.6-22.3C28,6.6,27.9,6,28.2,5.6c0.3-0.4,0.8-0.5,1.3-0.3c4,2.6,6.8,6.7,7.7,11.3c1,4.7,0,9.4-2.6,13.4
			c-2.7,4-6.7,6.7-11.5,7.7C21.9,38,20.7,38.1,19.5,38.1 M15.1,28.4c-0.5,0-0.9-0.4-0.9-0.9V12.7c0-0.3,0.2-0.6,0.5-0.8
			c0.3-0.2,0.6-0.2,0.9,0l12.7,7.6c0.3,0.2,0.4,0.4,0.4,0.8c0,0.3-0.2,0.6-0.4,0.8l-8.5,5.5c-0.4,0.3-1,0.2-1.3-0.3
			c-0.3-0.4-0.2-1,0.3-1.2l7.3-4.7l-10.1-6v13.3C16,28,15.6,28.4,15.1,28.4"/>
	</defs>
	<clipPath id="SVGID_2_">
		<use xlink:href="#SVGID_1_"  style="overflow:visible;"/>
	</clipPath>
	<g class="st0">
		<defs>
			<rect id="SVGID_3_" x="1.4" y="2.4" width="36.1" height="36.1"/>
		</defs>
		<clipPath id="SVGID_4_">
			<use xlink:href="#SVGID_3_"  style="overflow:visible;"/>
		</clipPath>
		<rect x="-2.3" y="-1.3" class="st1" width="43.5" height="43.1"/>
	</g>
</g>
</svg>
