<?xml version="1.0" standalone="no"?>
<!DOCTYPE svg PUBLIC "-//W3C//DTD SVG 1.1//EN" "http://www.w3.org/Graphics/SVG/1.1/DTD/svg11.dtd" >
<svg xmlns="http://www.w3.org/2000/svg" xmlns:xlink="http://www.w3.org/1999/xlink" version="1.1">
<metadata>
Created by FontForge 20170731 at Wed Jan 11 14:54:26 2017
 By Aleksey,,,
Copyright (c) 2016 by Alex Sheyn. All rights reserved.
</metadata>
<defs>
<font id="ATCArquette-Bold" horiz-adv-x="0" >
  <font-face 
    font-family="ATC Arquette Bold"
    font-weight="700"
    font-stretch="normal"
    units-per-em="1000"
    panose-1="0 0 8 0 0 0 0 0 0 0"
    ascent="800"
    descent="-200"
    x-height="500"
    cap-height="680"
    bbox="-655 -288 1340 928"
    underline-thickness="50"
    underline-position="-200"
    unicode-range="U+0020-FB02"
  />
<missing-glyph horiz-adv-x="460" 
d="M377 700v-920h-291v920h291zM306 638h-151v-30h59v-34h-60v-30h152v30h-60v34h60v30zM246 520h-92v-96h152v31h-60v65zM214 488v-33h-30v33h30zM306 399h-152v-30h60v-34h-60v-31h92v65h60v30zM306 344h-30v-61h-122v-31h152v92zM306 232h-92v-52h32v21h30v-43h-92v74
h-30v-104h152v104zM306 73h-152v-104h152v104zM276 42v-43h-92v43h92zM306 -53h-152v-30h64l-64 -43v-31h152v31h-93l64 43h29v30z" />
    <glyph glyph-name="fi" unicode="fi" horiz-adv-x="703" 
d="M545 555q-37 0 -63 23.5t-26 59.5t26 59t63 23q36 0 61.5 -23.5t25.5 -58.5q0 -36 -25.5 -59.5t-61.5 -23.5zM619 500v-500h-150v370h-203v-370h-145v370h-90v130h90v40q0 160 160 160h110v-125h-77q-26 0 -37 -11.5t-11 -38.5v-25h353z" />
    <glyph glyph-name="fl" unicode="fl" horiz-adv-x="695" 
d="M470 700h150v-700h-150v370h-204v-370h-145v370h-90v130h90v40q0 160 160 160h100v-125h-67q-26 0 -37 -11.5t-11 -38.5v-25h204v200z" />
    <glyph glyph-name="f_f" unicode="ff" horiz-adv-x="743" 
d="M662 575q-26 0 -37 -11.5t-11 -38.5v-25h115v-130h-115v-370h-145v370h-203v-370h-145v370h-90v130h90v40q0 160 160 160h100v-125h-67q-26 0 -37 -11.5t-11 -38.5v-25h203v40q0 160 160 160h100v-125h-67z" />
    <glyph glyph-name="f_f_i" unicode="ffi" horiz-adv-x="1051" 
d="M893 555q-37 0 -63 23.5t-26 59.5t26 59t63 23q36 0 61.5 -23.5t25.5 -58.5q0 -36 -25.5 -59.5t-61.5 -23.5zM967 500v-500h-150v370h-203v-370h-145v370h-203v-370h-145v370h-90v130h90v40q0 160 160 160h100v-125h-67q-26 0 -37 -11.5t-11 -38.5v-25h203v40
q0 160 160 160h110v-125h-77q-26 0 -37 -11.5t-11 -38.5v-25h353z" />
    <glyph glyph-name="f_f_l" unicode="ffl" horiz-adv-x="1042" 
d="M817 700h150v-700h-150v370h-203v-370h-145v370h-203v-370h-145v370h-90v130h90v40q0 160 160 160h100v-125h-67q-26 0 -37 -11.5t-11 -38.5v-25h203v40q0 160 160 160h100v-125h-67q-26 0 -37 -11.5t-11 -38.5v-25h203v200z" />
    <glyph glyph-name=".notdef" horiz-adv-x="460" 
d="M377 700v-920h-291v920h291zM306 638h-151v-30h59v-34h-60v-30h152v30h-60v34h60v30zM246 520h-92v-96h152v31h-60v65zM214 488v-33h-30v33h30zM306 399h-152v-30h60v-34h-60v-31h92v65h60v30zM306 344h-30v-61h-122v-31h152v92zM306 232h-92v-52h32v21h30v-43h-92v74
h-30v-104h152v104zM306 73h-152v-104h152v104zM276 42v-43h-92v43h92zM306 -53h-152v-30h64l-64 -43v-31h152v31h-93l64 43h29v30z" />
    <glyph glyph-name=".null" 
 />
    <glyph glyph-name="nonmarkingreturn" horiz-adv-x="333" 
 />
    <glyph glyph-name="space" unicode=" " horiz-adv-x="270" 
 />
    <glyph glyph-name="exclam" unicode="!" horiz-adv-x="326" 
d="M105 215l-35 465h186l-35 -465h-116zM164 160q35 0 61 -25.5t26 -61.5q0 -37 -25.5 -62.5t-61.5 -25.5q-37 0 -63 25.5t-26 62.5q0 36 26 61.5t63 25.5z" />
    <glyph glyph-name="quotedbl" unicode="&#x22;" horiz-adv-x="420" 
d="M40 700h145l-28 -297h-89zM235 700h145l-28 -297h-89z" />
    <glyph glyph-name="numbersign" unicode="#" horiz-adv-x="722" 
d="M670 410h-99l-27 -140h80v-124h-103l-28 -146h-136l28 146h-123l-28 -146h-136l28 146h-74v124h98l27 140h-78v124h102l28 146h135l-28 -146h124l28 146h134l-28 -146h76v-124zM409 270l27 140h-124l-26 -140h123z" />
    <glyph glyph-name="dollar" unicode="$" horiz-adv-x="617" 
d="M367 395q108 -32 154 -76t46 -114q0 -95 -71 -153t-189 -58h-4l-18 -116l-98 16l18 113q-66 18 -111 58t-58 93l127 45q17 -44 62 -67l25 157q-98 27 -142 71.5t-44 116.5q0 93 65.5 149t174.5 56h8l18 116l99 -16l-19 -117q57 -20 96 -58t52 -89l-120 -45q-13 38 -48 62
zM193 494q0 -47 77 -72l23 143q-45 -2 -72.5 -21t-27.5 -50zM323 117q53 2 84.5 22t31.5 54q0 50 -92 76z" />
    <glyph glyph-name="percent" unicode="%" horiz-adv-x="922" 
d="M632 700l89 -58l-434 -662l-89 58zM221 696q73 0 126 -52.5t53 -126.5q0 -76 -53 -128.5t-126 -52.5t-127 53t-54 128q0 74 54 126.5t127 52.5zM221 607q-37 0 -64.5 -26.5t-27.5 -63.5q0 -38 27.5 -65t64.5 -27t63.5 26.5t26.5 65.5q0 37 -27 63.5t-63 26.5zM703 344
q73 0 126 -52.5t53 -126.5q0 -76 -53 -128.5t-126 -52.5t-127 53t-54 128q0 74 54 126.5t127 52.5zM703 255q-37 0 -64.5 -26.5t-27.5 -63.5q0 -38 27.5 -65t64.5 -27t63.5 26.5t26.5 65.5q0 37 -27 63.5t-63 26.5z" />
    <glyph glyph-name="ampersand" unicode="&#x26;" horiz-adv-x="743" 
d="M709 67l-97 -90l-89 88q-102 -81 -216 -81q-102 0 -172.5 61.5t-70.5 150.5q0 114 140 186q-63 75 -63 140q0 73 60.5 123.5t148.5 50.5q85 0 141.5 -49t56.5 -126q0 -58 -32.5 -98.5t-92.5 -75.5l95 -93q36 55 54 125l126 -33q-25 -101 -85 -185zM345 575
q-29 0 -48.5 -16.5t-19.5 -38.5q0 -26 55 -82q81 39 81 80q0 23 -19.5 40t-48.5 17zM313 116q58 0 115 41l-131 128q-48 -23 -70 -42.5t-22 -46.5q0 -35 32 -57.5t76 -22.5z" />
    <glyph glyph-name="quotesingle" unicode="'" horiz-adv-x="267" 
d="M98 700h150l-136 -297h-93z" />
    <glyph glyph-name="parenleft" unicode="(" horiz-adv-x="440" 
d="M390 -70l-96 -95q-112 91 -173 204.5t-61 228.5q0 114 61.5 227t173.5 205l95 -95q-85 -65 -131 -153.5t-46 -183.5t46 -183.5t131 -154.5z" />
    <glyph glyph-name="parenright" unicode=")" horiz-adv-x="440" 
d="M50 -70q85 66 131 154.5t46 183.5t-46 183.5t-131 153.5l95 95q112 -92 173.5 -205t61.5 -227q0 -115 -61 -228.5t-173 -204.5z" />
    <glyph glyph-name="asterisk" unicode="*" horiz-adv-x="440" 
d="M380 564l-93 -44l93 -44l-42 -72l-84 58l8 -102h-84l8 102l-84 -58l-42 72l93 44l-93 44l42 72l84 -58l-8 102h84l-8 -102l84 58z" />
    <glyph glyph-name="plus" unicode="+" horiz-adv-x="600" 
d="M540 400v-120h-180v-180h-120v180h-180v120h180v180h120v-180h180z" />
    <glyph glyph-name="comma" unicode="," horiz-adv-x="290" 
d="M98 155h150l-136 -297h-93z" />
    <glyph glyph-name="hyphen" unicode="-" horiz-adv-x="450" 
d="M65 215v140h320v-140h-320z" />
    <glyph glyph-name="period" unicode="." horiz-adv-x="288" 
d="M145 178q39 0 67.5 -28t28.5 -68t-28.5 -68.5t-67.5 -28.5q-41 0 -69.5 28.5t-28.5 68.5t28.5 68t69.5 28z" />
    <glyph glyph-name="slash" unicode="/" horiz-adv-x="603" 
d="M134 -150l475 980h-155l-475 -980h155z" />
    <glyph glyph-name="zero" unicode="0" horiz-adv-x="663" 
d="M331 -16q-124 0 -200.5 98.5t-76.5 257.5t76.5 257.5t200.5 98.5t201 -98.5t77 -257.5t-77 -257.5t-201 -98.5zM331 127q60 0 94.5 56.5t34.5 156.5t-34.5 156.5t-94.5 56.5t-94.5 -57t-34.5 -156t34.5 -156t94.5 -57z" />
    <glyph glyph-name="one" unicode="1" horiz-adv-x="453" 
d="M210 680h151v-680h-151v475q-63 -58 -186 -58v137q104 7 145 35t41 91z" />
    <glyph glyph-name="two" unicode="2" horiz-adv-x="587" 
d="M281 142h250v-142h-472v112l275 291q36 39 36 77q0 30 -25 51.5t-60 21.5q-40 0 -68 -30.5t-29 -74.5l-139 24q4 95 72.5 159.5t163.5 64.5t164 -62t69 -149q0 -99 -87 -189z" />
    <glyph glyph-name="three" unicode="3" horiz-adv-x="598" 
d="M452 346q102 -51 102 -155q0 -91 -73.5 -149.5t-179.5 -58.5q-99 0 -169.5 53.5t-94.5 141.5l143 42q8 -44 40 -69t79 -25q46 0 76.5 22.5t30.5 56.5q0 35 -34 57t-95 22h-73v122h73q55 0 84.5 20.5t29.5 53.5q0 32 -26.5 52.5t-67.5 20.5q-45 0 -73 -25t-37 -68l-143 39
q23 91 92.5 144t163.5 53q100 0 170 -57.5t70 -146.5q0 -97 -88 -146z" />
    <glyph glyph-name="four" unicode="4" horiz-adv-x="638" 
d="M588 274v-128h-98v-146h-142v146h-317v108l217 426h157l-210 -406h153v187h142v-187h98z" />
    <glyph glyph-name="five" unicode="5" horiz-adv-x="618" 
d="M323 456q97 0 166.5 -65t69.5 -162q0 -102 -77.5 -172.5t-182.5 -70.5q-89 0 -159 54.5t-97 144.5l133 44q12 -42 46 -71.5t79 -29.5t77.5 28.5t32.5 72.5q0 43 -32 72.5t-79 29.5q-62 0 -113 -56l-116 59l57 346h395v-142h-285l-16 -101q47 19 101 19z" />
    <glyph glyph-name="six" unicode="6" horiz-adv-x="628" 
d="M334 458q99 0 168.5 -68.5t69.5 -165.5q0 -99 -73.5 -169.5t-179.5 -70.5q-122 0 -193.5 94.5t-71.5 248.5q0 164 84 266.5t213 102.5q64 0 121 -26.5t94 -74.5l-103 -87q-45 50 -111 50q-53 0 -93 -40.5t-55 -107.5q51 48 130 48zM319 125q43 0 73.5 30t30.5 73
q0 44 -30.5 74.5t-73.5 30.5t-73.5 -30.5t-30.5 -74.5q0 -43 30 -73t74 -30z" />
    <glyph glyph-name="seven" unicode="7" horiz-adv-x="601" 
d="M68 680h486v-114l-291 -566h-167l279 538h-307v142z" />
    <glyph glyph-name="eight" unicode="8" horiz-adv-x="615" 
d="M479 351q91 -55 91 -153q0 -91 -75 -152.5t-187 -61.5t-187.5 61.5t-75.5 152.5q0 97 92 153q-77 50 -77 137q0 89 71 148.5t177 59.5t177 -59.5t71 -148.5q0 -87 -77 -137zM308 553q-43 0 -71.5 -21.5t-28.5 -53.5t28.5 -53.5t71.5 -21.5q42 0 70.5 21.5t28.5 53.5
t-28.5 53.5t-70.5 21.5zM308 127q49 0 81.5 23t32.5 57q0 35 -32.5 58t-81.5 23t-82 -23t-33 -58q0 -34 32.5 -57t82.5 -23z" />
    <glyph glyph-name="nine" unicode="9" horiz-adv-x="628" 
d="M309 696q122 0 193.5 -94t71.5 -248q0 -164 -84 -266.5t-213 -102.5q-64 0 -121 26.5t-94 73.5l103 88q44 -50 111 -50q53 0 92.5 40.5t54.5 107.5q-51 -48 -130 -48q-98 0 -167.5 68.5t-69.5 165.5q0 98 73.5 168.5t179.5 70.5zM309 348q43 0 73 30.5t30 73.5
q0 44 -29.5 74t-73.5 30t-74.5 -30.5t-30.5 -73.5t31 -73.5t74 -30.5z" />
    <glyph glyph-name="colon" unicode=":" horiz-adv-x="276" 
d="M139 515q39 0 67.5 -28t28.5 -68t-28.5 -68.5t-67.5 -28.5q-41 0 -69.5 28.5t-28.5 68.5t28.5 68t69.5 28zM139 178q39 0 67.5 -28t28.5 -68t-28.5 -68.5t-67.5 -28.5q-41 0 -69.5 28.5t-28.5 68.5t28.5 68t69.5 28z" />
    <glyph glyph-name="semicolon" unicode=";" horiz-adv-x="287" 
d="M139 515q39 0 67.5 -28t28.5 -68t-28.5 -68.5t-67.5 -28.5q-41 0 -69.5 28.5t-28.5 68.5t28.5 68t69.5 28zM98 155h150l-136 -297h-93z" />
    <glyph glyph-name="less" unicode="&#x3c;" horiz-adv-x="600" 
d="M540 595v-131l-290 -124l290 -124v-131l-480 210v90z" />
    <glyph glyph-name="equal" unicode="=" horiz-adv-x="600" 
d="M60 510h480v-120h-480v120zM60 290h480v-120h-480v120z" />
    <glyph glyph-name="greater" unicode="&#x3e;" horiz-adv-x="600" 
d="M60 595l480 -210v-90l-480 -210v131l290 124l-290 124v131z" />
    <glyph glyph-name="question" unicode="?" horiz-adv-x="595" 
d="M350 215h-160v33q0 55 28.5 90t81.5 63q7 3 23 11.5t23 12t18 11t16 13.5t9 15.5t4 19.5q0 30 -26 49.5t-68 19.5q-45 0 -73 -25t-37 -68l-143 39q23 91 92.5 144t163.5 53q103 0 172 -57t69 -150q0 -119 -131 -188q-39 -20 -50.5 -32.5t-11.5 -40.5v-13zM271 -15
q-36 0 -62.5 26t-26.5 62t26 61.5t63 25.5q36 0 61.5 -25.5t25.5 -61.5q0 -37 -26 -62.5t-61 -25.5z" />
    <glyph glyph-name="at" unicode="@" horiz-adv-x="914" 
d="M534 433h105v-209q0 -90 64 -90q37 0 58 31.5t21 90.5q0 132 -97 227.5t-230 95.5t-228 -96.5t-95 -232.5t95.5 -232.5t230.5 -96.5q123 0 217 86l54 -56q-116 -106 -272 -106q-167 0 -286 119t-119 286t118.5 286t285.5 119q166 0 286 -118.5t120 -276.5q0 -98 -49 -158
t-122 -60q-44 0 -82 22.5t-58 64.5q-14 -36 -47 -58.5t-78 -22.5q-72 0 -120.5 56.5t-47.5 140.5t50 140.5t120 56.5q64 0 106 -54v45zM449 152q34 -1 59.5 25t25.5 69q0 42 -24.5 67t-58.5 25q-35 0 -59 -26.5t-24 -67.5t24.5 -66.5t56.5 -25.5z" />
    <glyph glyph-name="A" unicode="A" horiz-adv-x="765" 
d="M581 0l-57 139h-284l-56 -139h-160l283 680h147l287 -680h-160zM292 266h179l-90 219z" />
    <glyph glyph-name="B" unicode="B" horiz-adv-x="665" 
d="M538 343q84 -47 84 -145q0 -88 -64 -143t-162 -55h-312v680h301q98 0 162.5 -55t64.5 -142q0 -91 -74 -140zM390 539h-159v-135h159q34 0 54.5 19.5t20.5 48.5q0 28 -20 47.5t-55 19.5zM400 140q34 0 55 20t21 49t-20.5 48t-55.5 19h-169v-136h169z" />
    <glyph glyph-name="C" unicode="C" horiz-adv-x="760" 
d="M592 435q-26 54 -74.5 84t-107.5 30q-87 0 -146 -60t-59 -149t59 -149t146 -60q59 0 107.5 30t74.5 84l129 -76q-46 -85 -130 -135t-181 -50q-149 0 -253 104t-104 252t104 252t253 104q98 0 181.5 -49.5t129.5 -135.5z" />
    <glyph glyph-name="D" unicode="D" horiz-adv-x="751" 
d="M335 680q155 0 259 -97t104 -243t-104 -243t-259 -97h-251v680h251zM334 142q96 0 155.5 55t59.5 143t-59.5 143t-155.5 55h-102v-396h102z" />
    <glyph glyph-name="E" unicode="E" horiz-adv-x="605" 
d="M552 538h-321v-131h218v-134h-218v-131h321v-142h-468v680h468v-142z" />
    <glyph glyph-name="F" unicode="F" horiz-adv-x="591" 
d="M552 539h-321v-143h218v-133h-218v-263h-147v680h468v-141z" />
    <glyph glyph-name="G" unicode="G" horiz-adv-x="808" 
d="M386 375h363v-51q0 -150 -93.5 -245t-235.5 -95q-150 0 -253.5 103t-103.5 252t103.5 253t252.5 104q94 0 174.5 -45t127.5 -124l-125 -75q-58 100 -177 100q-89 0 -147.5 -61t-58.5 -153q0 -91 58.5 -150.5t150.5 -59.5q70 0 114.5 34.5t51.5 84.5h-202v128z" />
    <glyph glyph-name="H" unicode="H" horiz-adv-x="752" 
d="M520 680h148v-680h-148v269h-288v-269h-148v680h148v-269h288v269z" />
    <glyph glyph-name="I" unicode="I" horiz-adv-x="332" 
d="M91 680h150v-680h-150v680z" />
    <glyph glyph-name="J" unicode="J" horiz-adv-x="593" 
d="M371 680h149v-432q0 -116 -75 -190t-191 -74q-140 0 -240 114l105 100q65 -71 138 -71q54 0 84 32.5t30 90.5v430z" />
    <glyph glyph-name="K" unicode="K" horiz-adv-x="698" 
d="M512 0l-217 280l-63 -63v-217h-148v680h148v-274l264 274h191l-288 -293l290 -387h-177z" />
    <glyph glyph-name="L" unicode="L" horiz-adv-x="584" 
d="M234 142h318v-142h-468v680h150v-538z" />
    <glyph glyph-name="M" unicode="M" horiz-adv-x="951" 
d="M867 680v-680h-147v451l-173 -451h-147l-169 445v-445h-147v680h209l181 -478l183 478h210z" />
    <glyph glyph-name="N" unicode="N" horiz-adv-x="760" 
d="M529 680h147v-680h-122l-323 422v-422h-147v680h121l324 -423v423z" />
    <glyph glyph-name="O" unicode="O" horiz-adv-x="817" 
d="M410 -16q-149 0 -253 103.5t-104 252.5t104 252.5t253 103.5q147 0 250.5 -104t103.5 -252t-103.5 -252t-250.5 -104zM410 131q86 0 144 60.5t58 148.5t-58 148.5t-144 60.5q-87 0 -146 -60t-59 -149t59 -149t146 -60z" />
    <glyph glyph-name="P" unicode="P" horiz-adv-x="648" 
d="M384 680q99 0 166.5 -62.5t67.5 -154.5t-67 -155t-167 -63h-152v-245h-148v680h300zM384 386q37 0 62 22t25 54q0 34 -24.5 55.5t-62.5 21.5h-152v-153h152z" />
    <glyph glyph-name="Q" unicode="Q" horiz-adv-x="822" 
d="M779 59l-92 -92l-78 78q-89 -61 -199 -61q-149 0 -253 103.5t-104 252.5t104 252.5t253 103.5q147 0 250.5 -104t103.5 -252q0 -113 -63 -203zM410 131q49 0 91 22l-122 122l91 93l122 -122q20 43 20 94q0 88 -58 148.5t-144 60.5q-87 0 -146 -60t-59 -149t59 -149
t146 -60z" />
    <glyph glyph-name="R" unicode="R" horiz-adv-x="679" 
d="M476 0l-145 252h-100v-252h-147v680h298q100 0 167 -61t67 -152q0 -64 -34.5 -115.5t-93.5 -77.5l157 -274h-169zM231 539v-153h151q37 0 62 22t25 54q0 34 -24.5 55.5t-62.5 21.5h-151z" />
    <glyph glyph-name="S" unicode="S" horiz-adv-x="638" 
d="M588 205q0 -101 -74.5 -161t-195.5 -60q-112 0 -189.5 50.5t-92.5 129.5l144 52q11 -38 48 -63.5t99 -25.5q51 0 82 18t31 48q0 22 -20 37.5t-45.5 23.5t-65.5 17q-3 0 -5 0.5t-5 1t-5 1.5q-116 27 -172.5 74.5t-56.5 132.5q0 101 71 158t179 57q102 0 175.5 -50
t90.5 -130l-138 -52q-11 40 -46.5 65.5t-87.5 25.5q-43 0 -69 -17t-26 -44q0 -16 9 -28.5t31 -22t33.5 -13t41.5 -11.5q3 -1 4 -1.5t3 -1t4 -0.5q132 -34 190 -82t58 -129z" />
    <glyph glyph-name="T" unicode="T" horiz-adv-x="590" 
d="M556 680v-142h-186v-538h-150v538h-186v142h522z" />
    <glyph glyph-name="U" unicode="U" horiz-adv-x="734" 
d="M511 680h150v-380q0 -142 -81.5 -229t-212.5 -87t-212.5 87t-81.5 229v380h150v-378q0 -79 39.5 -126.5t104.5 -47.5t104.5 47.5t39.5 126.5v378z" />
    <glyph glyph-name="V" unicode="V" horiz-adv-x="734" 
d="M551 680h159l-266 -680h-157l-263 680h159l183 -484z" />
    <glyph glyph-name="W" unicode="W" horiz-adv-x="1088" 
d="M902 680h156l-201 -680h-174l-139 463l-139 -463h-174l-201 680h157l132 -476l144 476h162l144 -477z" />
    <glyph glyph-name="X" unicode="X" horiz-adv-x="725" 
d="M694 680l-229 -340l229 -340h-179l-152 232l-153 -232h-179l229 340l-226 340h179l150 -232l152 232h179z" />
    <glyph glyph-name="Y" unicode="Y" horiz-adv-x="712" 
d="M700 680l-270 -404v-276h-148v275l-270 405h175l169 -261l169 261h175z" />
    <glyph glyph-name="Z" unicode="Z" horiz-adv-x="678" 
d="M273 142h343v-142h-553v111l324 427h-324v142h534v-111z" />
    <glyph glyph-name="bracketleft" unicode="[" horiz-adv-x="455" 
d="M225 564v-615h170v-127h-315v878h315v-136h-170z" />
    <glyph glyph-name="backslash" unicode="\" horiz-adv-x="603" 
d="M469 -150h155l-475 980h-155z" />
    <glyph glyph-name="bracketright" unicode="]" horiz-adv-x="455" 
d="M230 564h-170v136h315v-878h-315v127h170v615z" />
    <glyph glyph-name="asciicircum" unicode="^" horiz-adv-x="600" 
d="M571 337h-131l-124 207l-124 -207h-131l210 343h90z" />
    <glyph glyph-name="underscore" unicode="_" horiz-adv-x="676" 
d="M-2 -200v110h680v-110h-680z" />
    <glyph glyph-name="a" unicode="a" horiz-adv-x="554" 
d="M272 515q92 0 155.5 -60t63.5 -154v-301h-140v51q-68 -65 -159 -66q-65 -1 -110.5 41t-45.5 111q0 132 171 166l140 27q-8 28 -30.5 44.5t-52.5 16.5q-66 0 -116 -66l-101 76q37 51 98 82.5t127 31.5zM233 102q46 0 82 33t36 76v13l-118 -24q-57 -12 -57 -53
q0 -19 15 -32t42 -13z" />
    <glyph glyph-name="b" unicode="b" horiz-adv-x="629" 
d="M585 250q1 -113 -64.5 -189t-162.5 -76q-92 0 -145 68v-53h-145v700h145v-250q55 65 143 65q96 0 162 -76t67 -189zM328 125q46 1 77.5 35.5t31.5 88.5q0 55 -32.5 90.5t-79.5 35.5q-46 0 -79 -34t-33 -91q0 -56 34 -91t81 -34z" />
    <glyph glyph-name="c" unicode="c" horiz-adv-x="573" 
d="M404 199l138 -50q-30 -74 -96 -119t-148 -45q-111 0 -188.5 77.5t-77.5 187.5t77.5 187.5t188.5 77.5q81 0 147 -44.5t96 -117.5l-137 -51q-14 33 -42 52.5t-64 19.5q-51 0 -84.5 -35.5t-33.5 -88.5t33.5 -88.5t84.5 -35.5q35 0 63.5 20t42.5 53z" />
    <glyph glyph-name="d" unicode="d" horiz-adv-x="619" 
d="M406 700h145v-700h-145v53q-53 -68 -145 -68q-97 0 -162.5 76t-64.5 189t67 189t162 76q88 0 143 -65v250zM291 125q47 -1 81 34t34 91q0 57 -33 91t-79 34q-47 0 -79.5 -35.5t-32.5 -90.5q0 -54 31.5 -88.5t77.5 -35.5z" />
    <glyph glyph-name="e" unicode="e" horiz-adv-x="576" 
d="M529 292q5 -45 -2 -95h-341q24 -84 108 -84q39 0 69.5 18.5t46.5 48.5l109 -62q-31 -60 -94.5 -96.5t-135.5 -36.5q-107 0 -177 75.5t-70 189.5q0 115 70 190t180 75q96 0 161 -60t76 -163zM287 387q-81 0 -101 -86h200q-5 39 -32 62.5t-67 23.5z" />
    <glyph glyph-name="f" unicode="f" horiz-adv-x="395" 
d="M314 575q-26 0 -37 -11.5t-11 -38.5v-25h115v-130h-115v-370h-145v370h-90v130h90v40q0 160 160 160h100v-125h-67z" />
    <glyph glyph-name="g" unicode="g" horiz-adv-x="629" 
d="M416 500h145v-462q0 -111 -77 -182t-187 -71q-138 0 -230 108l98 87q57 -67 131 -67q54 0 87 33.5t33 93.5v20q-55 -65 -145 -65q-94 0 -160 71.5t-67 183.5q-1 113 64.5 189t162.5 76q92 0 145 -68v53zM305 135q46 0 78.5 31.5t32.5 88.5q0 55 -34 88t-81 32
q-46 -1 -77.5 -33t-31.5 -86q0 -55 32.5 -88t80.5 -33z" />
    <glyph glyph-name="h" unicode="h" horiz-adv-x="612" 
d="M359 516q84 0 136.5 -65t52.5 -160v-291h-145v261q0 51 -25 83t-66 32q-42 0 -71 -32.5t-29 -82.5v-261h-144v700h144v-254q57 70 147 70z" />
    <glyph glyph-name="i" unicode="i" horiz-adv-x="318" 
d="M160 555q-37 0 -63 23.5t-26 59.5t26 59t63 23q36 0 61.5 -23.5t25.5 -58.5q0 -36 -25.5 -59.5t-61.5 -23.5zM84 500h150v-500h-150v500z" />
    <glyph glyph-name="j" unicode="j" horiz-adv-x="338" 
d="M180 555q-37 0 -63 23.5t-26 59.5t26 59t63 23q36 0 61.5 -23.5t25.5 -58.5q0 -36 -25.5 -59.5t-61.5 -23.5zM104 -5v505h150v-530q0 -88 -41 -129t-129 -41h-95v135h60q29 0 42 14t13 46z" />
    <glyph glyph-name="k" unicode="k" horiz-adv-x="582" 
d="M406 0l-133 198l-60 -60v-138h-145v700h145v-381l173 181h186l-193 -195l198 -305h-171z" />
    <glyph glyph-name="l" unicode="l" horiz-adv-x="300" 
d="M75 700h150v-700h-150v700z" />
    <glyph glyph-name="m" unicode="m" horiz-adv-x="905" 
d="M656 516q84 0 134.5 -65t50.5 -160v-291h-145v271q0 50 -21.5 77.5t-58.5 27.5q-38 0 -63.5 -28t-25.5 -77v-271h-145v271q0 49 -22 77t-59 28t-62.5 -28t-25.5 -77v-271h-145v500h145v-64q53 80 139 80q91 0 141 -88q24 39 67.5 63.5t95.5 24.5z" />
    <glyph glyph-name="n" unicode="n" horiz-adv-x="612" 
d="M359 516q84 0 136.5 -65t52.5 -160v-291h-145v261q0 51 -25 83t-66 32q-42 0 -71 -32.5t-29 -82.5v-261h-144v500h144v-54q57 70 147 70z" />
    <glyph glyph-name="o" unicode="o" horiz-adv-x="614" 
d="M308 -15q-111 0 -188.5 77.5t-77.5 187.5t77.5 187.5t188.5 77.5q110 0 187 -77.5t77 -187.5t-77 -187.5t-187 -77.5zM308 126q49 0 82.5 36t33.5 88q0 53 -33 88.5t-83 35.5q-51 0 -84.5 -35.5t-33.5 -88.5t33.5 -88.5t84.5 -35.5z" />
    <glyph glyph-name="p" unicode="p" horiz-adv-x="649" 
d="M358 515q97 0 162.5 -76t64.5 -189t-67 -189t-162 -76q-88 0 -143 65v-250h-145v700h145v-53q53 68 145 68zM325 125q47 0 79.5 35.5t32.5 90.5q0 54 -31.5 88.5t-77.5 35.5q-47 1 -81 -34t-34 -91q0 -57 33 -91t79 -34z" />
    <glyph glyph-name="q" unicode="q" horiz-adv-x="629" 
d="M416 500h145v-700h-145v250q-55 -65 -143 -65q-96 0 -162 76t-67 189t64.5 189t162.5 76q92 0 145 -68v53zM304 125q46 0 79 34t33 91q0 56 -34 91t-81 34q-46 -1 -77.5 -35.5t-31.5 -88.5q0 -55 32.5 -90.5t79.5 -35.5z" />
    <glyph glyph-name="r" unicode="r" horiz-adv-x="387" 
d="M212 444q56 67 148 67v-140q-72 0 -110 -29.5t-38 -80.5v-261h-144v500h144v-56z" />
    <glyph glyph-name="s" unicode="s" horiz-adv-x="493" 
d="M452 153q0 -78 -62.5 -123t-149.5 -45q-81 0 -139.5 41t-74.5 108l119 36q8 -29 35 -47t67 -18q30 0 49.5 10t19.5 24q0 29 -94 51q-34 8 -56.5 16t-54 25t-48.5 47t-17 71q0 77 58 121.5t140 44.5q77 0 132 -41t70 -108l-115 -37q-8 28 -31.5 47t-58.5 19q-25 0 -42 -10
t-17 -25q0 -27 79 -45q94 -22 134 -50q57 -41 57 -112z" />
    <glyph glyph-name="t" unicode="t" horiz-adv-x="423" 
d="M379 370h-115v-175q0 -32 13 -46t42 -14h60v-135h-90q-89 0 -129.5 41t-40.5 129v200h-90v130h90v120l145 45v-165h115v-130z" />
    <glyph glyph-name="u" unicode="u" horiz-adv-x="612" 
d="M400 500h144v-500h-144v54q-57 -70 -147 -70q-84 0 -136.5 65t-52.5 160v291h145v-261q0 -51 25 -83t66 -32q42 0 71 32.5t29 82.5v261z" />
    <glyph glyph-name="v" unicode="v" horiz-adv-x="554" 
d="M385 500h149l-180 -500h-154l-180 500h149l108 -315z" />
    <glyph glyph-name="w" unicode="w" horiz-adv-x="878" 
d="M710 500h144l-150 -500h-166l-99 330l-99 -330h-166l-150 500h144l91 -328l99 328h162l99 -328z" />
    <glyph glyph-name="x" unicode="x" horiz-adv-x="578" 
d="M555 500l-170 -250l170 -250h-170l-96 148l-96 -148h-170l170 250l-170 250h170l96 -148l96 148h170z" />
    <glyph glyph-name="y" unicode="y" horiz-adv-x="600" 
d="M427 500h151l-289 -700h-154l95 228l-210 472h157l129 -291z" />
    <glyph glyph-name="z" unicode="z" horiz-adv-x="494" 
d="M246 139h201v-139h-397v111l196 250h-196v139h392v-111z" />
    <glyph glyph-name="braceleft" unicode="{" horiz-adv-x="491" 
d="M313 424q0 -124 -101 -163q101 -39 101 -162v-72q0 -39 14 -56t48 -17h66v-132h-77q-95 0 -147 52.5t-52 148.5v73q0 95 -78 95h-37v140h37q78 0 78 96v73q0 96 52 148t147 52h77v-131h-66q-33 0 -47.5 -17t-14.5 -56v-72z" />
    <glyph glyph-name="bar" unicode="|" horiz-adv-x="240" 
d="M180 -131h-120v831h120v-831z" />
    <glyph glyph-name="braceright" unicode="}" horiz-adv-x="491" 
d="M404 331h37v-140h-37q-78 0 -78 -95v-73q0 -96 -52 -148.5t-147 -52.5h-77v132h66q34 0 48 17t14 56v72q0 123 101 162q-101 39 -101 163v72q0 39 -14.5 56t-47.5 17h-66v131h77q95 0 147 -52t52 -148v-73q0 -96 78 -96z" />
    <glyph glyph-name="asciitilde" unicode="~" horiz-adv-x="629" 
d="M535 348l49 -48q-65 -104 -154 -104q-33 0 -59 9.5t-70 33.5q-62 34 -99 34q-34 0 -59 -19t-54 -56l-48 48q26 45 71.5 74.5t94.5 29.5t114 -36l6 -3q3 -1 7 -4q24 -14 35 -19.5t26.5 -10t32.5 -4.5q55 0 107 75z" />
    <glyph glyph-name="exclamdown" unicode="&#xa1;" horiz-adv-x="326" 
d="M164 515q36 0 61.5 -25.5t25.5 -62.5q0 -36 -26 -61.5t-61 -25.5q-37 0 -63 25.5t-26 61.5q0 37 26 62.5t63 25.5zM105 285h116l35 -465h-186z" />
    <glyph glyph-name="cent" unicode="&#xa2;" horiz-adv-x="573" 
d="M404 284l138 -50q-30 -74 -96 -119t-148 -45h-9l-22 -119l-83 15l22 120q-78 28 -126 96t-48 153q0 110 77.5 187.5t188.5 77.5h3l22 122l84 -15l-22 -121q53 -19 93.5 -57.5t62.5 -90.5l-137 -51q-15 37 -46 55l-43 -230q63 11 89 72zM180 335q0 -70 53 -104l41 226
q-42 -8 -68 -42t-26 -80z" />
    <glyph glyph-name="sterling" unicode="&#xa3;" horiz-adv-x="629" 
d="M470 200l129 -59q-22 -64 -76 -102.5t-121 -38.5h-352v135h33q37 0 53.5 18.5t16.5 59.5v62h-103v130h103v65q0 97 60 161.5t150 64.5q69 0 123 -38.5t75 -102.5l-127 -57q-4 28 -23.5 45.5t-45.5 17.5q-31 0 -49.5 -25t-18.5 -66v-65h173v-130h-173v-52q0 -56 -26 -88
h131q24 0 42.5 17.5t25.5 47.5z" />
    <glyph glyph-name="currency" unicode="&#xa4;" horiz-adv-x="572" 
d="M471 326q0 -58 -32 -104l73 -74l-49 -49l-73 73q-48 -32 -103 -32q-57 0 -104 33l-74 -74l-49 49l74 74q-33 46 -33 104q0 56 32 102l-73 74l49 49l74 -73q48 32 104 32q55 0 103 -32l73 73l49 -49l-73 -73q32 -48 32 -103zM172 326q0 -48 34 -81t81 -33q45 0 78.5 33
t33.5 81q0 47 -33.5 80t-78.5 33q-47 0 -81 -33t-34 -80z" />
    <glyph glyph-name="yen" unicode="&#xa5;" horiz-adv-x="749" 
d="M679 680l-195 -292h101v-110h-136v-50h136v-110h-136v-118h-148v118h-136v110h136v50h-136v110h100l-195 292h175l130 -201l129 201h175z" />
    <glyph glyph-name="brokenbar" unicode="&#xa6;" horiz-adv-x="329" 
d="M113 724h101v-375h-101v375zM113 187h101v-374h-101v374z" />
    <glyph glyph-name="section" unicode="&#xa7;" horiz-adv-x="531" 
d="M396 201q60 -43 60 -115q0 -75 -57 -119.5t-139 -44.5q-77 0 -132.5 41t-72.5 108l115 37q8 -28 32 -47t59 -19q24 0 41 9.5t17 24.5q0 29 -80 46q-213 43 -213 167q0 89 94 128q-59 43 -59 114q0 76 56.5 120.5t138.5 44.5q77 0 132.5 -41t72.5 -108l-115 -37
q-8 28 -32 47t-59 19q-24 0 -41 -9.5t-17 -24.5q0 -29 80 -46q213 -43 213 -167q0 -89 -94 -128zM261 262q42 0 69 12.5t27 34.5t-28 34.5t-71 12.5t-70 -12.5t-27 -34.5t28.5 -34.5t71.5 -12.5z" />
    <glyph glyph-name="copyright" unicode="&#xa9;" horiz-adv-x="853" 
d="M428 -34q-157 0 -266 109t-109 265t109 265t266 109q155 0 263.5 -109t108.5 -265t-108.5 -265t-263.5 -109zM428 46q122 0 206.5 86t84.5 209t-84.5 208.5t-206.5 85.5q-124 0 -209 -85t-85 -209t85 -209.5t209 -85.5zM516 281l68 -42q-26 -39 -67.5 -61.5t-88.5 -22.5
q-77 0 -128 53.5t-51 131.5t51 131.5t128 53.5q47 0 88.5 -22.5t67.5 -61.5l-68 -42q-31 46 -84 46q-41 0 -68.5 -30.5t-27.5 -74.5t27.5 -74.5t68.5 -30.5q53 0 84 46z" />
    <glyph glyph-name="guillemotleft" unicode="&#xab;" horiz-adv-x="723" 
d="M387 465l-166 -185l166 -185h-161l-166 185l166 185h161zM648 465l-166 -185l166 -185h-161l-166 185l166 185h161z" />
    <glyph glyph-name="logicalnot" unicode="&#xac;" horiz-adv-x="629" 
d="M574 103h-83v235h-437v78h520v-313z" />
    <glyph glyph-name="registered" unicode="&#xae;" horiz-adv-x="540" 
d="M271 716q85 0 147 -62t62 -147q0 -87 -61.5 -149t-147.5 -62q-87 0 -149 62t-62 149q0 86 62 147.5t149 61.5zM271 346q65 0 112 47.5t47 113.5q0 65 -47 112t-112 47q-66 0 -113.5 -47t-47.5 -112q0 -66 47.5 -113.5t113.5 -47.5zM356 542q0 -39 -36 -55l44 -77h-47
l-41 71h-38v-71h-41v192h93q28 0 47 -17t19 -43zM238 562v-43h52q11 0 18 6t7 15q0 10 -7 16t-18 6h-52z" />
    <glyph glyph-name="degree" unicode="&#xb0;" horiz-adv-x="403" 
d="M197 702h1q67 0 111.5 -45t44.5 -112q0 -72 -45 -114t-112 -42q-66 0 -111 42t-45 114q0 69 45.5 113t110.5 44zM197 649h-1q-39 0 -63 -28.5t-24 -75.5q0 -45 25 -74.5t64 -29.5q40 0 64 28.5t24 73.5t-23 75.5t-66 30.5z" />
    <glyph glyph-name="plusminus" unicode="&#xb1;" horiz-adv-x="600" 
d="M360 478h140v-120h-140v-88h-120v88h-140v120h140v102h120v-102zM100 100v120h400v-120h-400z" />
    <glyph glyph-name="paragraph" unicode="&#xb6;" horiz-adv-x="625" 
d="M366 -50h-92v324h-17q-85 0 -150 52.5t-65 151.5q2 236 345 236q105 0 154 -11v-753h-92v680h-83v-680z" />
    <glyph glyph-name="periodcentered" unicode="&#xb7;" horiz-adv-x="306" 
d="M154 184q-41 0 -69.5 28.5t-28.5 68.5t28.5 68t69.5 28q39 0 67.5 -28t28.5 -68t-28.5 -68.5t-67.5 -28.5z" />
    <glyph glyph-name="guillemotright" unicode="&#xbb;" horiz-adv-x="723" 
d="M236 465l166 -185l-166 -185h-161l166 185l-166 185h161zM497 465l166 -185l-166 -185h-161l166 185l-166 185h161z" />
    <glyph glyph-name="onequarter" unicode="&#xbc;" horiz-adv-x="982" 
d="M661 700l69 -45l-442 -675l-69 45zM272 240h-107v302q-43 -34 -120 -33v99q70 4 96 21.5t24 59.5h107v-449zM937 187v-93h-64v-94h-101v94h-205v76l142 279h113l-135 -262h85v120h101v-120h64z" />
    <glyph glyph-name="onehalf" unicode="&#xbd;" horiz-adv-x="1004" 
d="M661 700l69 -45l-442 -675l-69 45zM272 240h-107v302q-43 -34 -120 -33v99q70 4 96 21.5t24 59.5h107v-449zM805 102h154v-102h-315v79l179 190q22 23 22 46q0 17 -14.5 29.5t-35.5 12.5q-26 0 -42.5 -20.5t-14.5 -48.5l-101 17q1 64 47 109t111 45q64 0 109.5 -41.5
t45.5 -99.5q0 -64 -57 -126z" />
    <glyph glyph-name="threequarters" unicode="&#xbe;" horiz-adv-x="1029" 
d="M389 369q0 -59 -48 -99t-120 -40q-66 0 -114 36.5t-62 98.5l101 29q4 -29 24 -45.5t50 -16.5q28 0 46 13t18 33q0 21 -21 33.5t-58 12.5h-52v89h52q69 0 69 43q0 18 -15.5 30t-40.5 12q-57 0 -67 -62l-101 28q14 62 60 99t110 37q68 0 114.5 -39t46.5 -97q0 -60 -52 -95
q60 -35 60 -100zM708 700l69 -45l-442 -675l-69 45zM984 187v-93h-64v-94h-101v94h-205v76l142 279h113l-135 -262h85v120h101v-120h64z" />
    <glyph glyph-name="questiondown" unicode="&#xbf;" horiz-adv-x="595" 
d="M324 515q36 0 62.5 -26t26.5 -62t-26 -61.5t-63 -25.5q-36 0 -61.5 25.5t-25.5 61.5q0 37 25.5 62.5t61.5 25.5zM245 285h160v-33q0 -55 -28.5 -90t-81.5 -63q-7 -3 -23 -11.5t-23 -12t-18 -11t-16 -13.5t-9 -15.5t-4 -19.5q0 -30 26 -49.5t68 -19.5q45 0 73 25t37 68
l143 -39q-23 -91 -92.5 -144t-163.5 -53q-103 0 -172 57t-69 150q0 119 131 188q39 20 50.5 32.5t11.5 40.5v13z" />
    <glyph glyph-name="Agrave" unicode="&#xc0;" horiz-adv-x="765" 
d="M452 741h-103l-95 103l131 64zM581 0l-57 139h-284l-56 -139h-160l283 680h147l287 -680h-160zM292 266h179l-90 219z" />
    <glyph glyph-name="Aacute" unicode="&#xc1;" horiz-adv-x="765" 
d="M528 844l-95 -103h-103l67 167zM581 0l-57 139h-284l-56 -139h-160l283 680h147l287 -680h-160zM292 266h179l-90 219z" />
    <glyph glyph-name="Acircumflex" unicode="&#xc2;" horiz-adv-x="765" 
d="M383 789l-105 -75l-56 55l104 111h113l104 -111l-56 -55zM581 0l-57 139h-284l-56 -139h-160l283 680h147l287 -680h-160zM292 266h179l-90 219z" />
    <glyph glyph-name="Atilde" unicode="&#xc3;" horiz-adv-x="765" 
d="M283 746h-82q-7 61 31.5 101.5t92.5 40.5q38 0 90 -34q25 -16 39 -16q13 0 21 11t8 29h82q7 -61 -32 -101.5t-94 -40.5q-14 0 -28 4t-19.5 6.5t-21.5 12.5t-17 11q-28 16 -42 16q-28 0 -28 -40zM581 0l-57 139h-284l-56 -139h-160l283 680h147l287 -680h-160zM292 266
h179l-90 219z" />
    <glyph glyph-name="Adieresis" unicode="&#xc4;" horiz-adv-x="765" 
d="M271 730q-37 0 -63 25.5t-26 62.5q0 36 26 61.5t63 25.5q35 0 61 -25.5t26 -61.5t-26 -62t-61 -26zM497 730q-37 0 -63 25.5t-26 62.5q0 36 26 61.5t63 25.5q35 0 61 -25.5t26 -61.5t-26 -62t-61 -26zM581 0l-57 139h-284l-56 -139h-160l283 680h147l287 -680h-160z
M292 266h179l-90 219z" />
    <glyph glyph-name="Aring" unicode="&#xc5;" horiz-adv-x="765" 
d="M581 0l-57 139h-284l-56 -139h-160l283 680q-29 29 -29 71t30.5 72t73.5 30q42 0 72.5 -30t30.5 -72q0 -41 -30 -73l286 -678h-160zM382 794q-18 0 -31.5 -13t-13.5 -30q0 -18 13.5 -31t31.5 -13t31 13t13 31q0 17 -13 30t-31 13zM292 266h179l-90 219z" />
    <glyph glyph-name="AE" unicode="&#xc6;" horiz-adv-x="978" 
d="M925 538h-311v-131h195v-134h-195v-131h311v-142h-459v137h-225l-56 -138h-161l283 680h49v1h569v-142zM466 264v274h-63l-111 -274h174z" />
    <glyph glyph-name="Ccedilla" unicode="&#xc7;" horiz-adv-x="760" 
d="M410 131q59 0 107.5 30t74.5 84l129 -76q-39 -72 -105.5 -119t-146.5 -61l-59 -147l-131 64l76 82q-130 20 -216 119.5t-86 232.5q0 148 104 252t253 104q98 0 181.5 -49.5t129.5 -135.5l-129 -76q-26 54 -74.5 84t-107.5 30q-87 0 -146 -60t-59 -149t59 -149t146 -60z
" />
    <glyph glyph-name="Egrave" unicode="&#xc8;" horiz-adv-x="605" 
d="M397 741h-103l-95 103l131 64zM552 538h-321v-131h218v-134h-218v-131h321v-142h-468v680h468v-142z" />
    <glyph glyph-name="Eacute" unicode="&#xc9;" horiz-adv-x="605" 
d="M473 844l-95 -103h-103l67 167zM552 538h-321v-131h218v-134h-218v-131h321v-142h-468v680h468v-142z" />
    <glyph glyph-name="Ecircumflex" unicode="&#xca;" horiz-adv-x="605" 
d="M328 789l-105 -75l-56 55l104 111h113l104 -111l-56 -55zM552 538h-321v-131h218v-134h-218v-131h321v-142h-468v680h468v-142z" />
    <glyph glyph-name="Edieresis" unicode="&#xcb;" horiz-adv-x="605" 
d="M216 730q-37 0 -63 25.5t-26 62.5q0 36 26 61.5t63 25.5q35 0 61 -25.5t26 -61.5t-25.5 -62t-61.5 -26zM442 730q-37 0 -63 25.5t-26 62.5q0 36 26 61.5t63 25.5q35 0 61 -25.5t26 -61.5t-25.5 -62t-61.5 -26zM552 538h-321v-131h218v-134h-218v-131h321v-142h-468v680
h468v-142z" />
    <glyph glyph-name="Igrave" unicode="&#xcc;" horiz-adv-x="332" 
d="M168 908l67 -167h-103l-95 103zM91 680h150v-680h-150v680z" />
    <glyph glyph-name="Iacute" unicode="&#xcd;" horiz-adv-x="332" 
d="M180 908l131 -64l-95 -103h-103zM91 680h150v-680h-150v680z" />
    <glyph glyph-name="Icircumflex" unicode="&#xce;" horiz-adv-x="332" 
d="M222 880l104 -111l-56 -55l-104 75l-105 -75l-56 55l104 111h113zM91 0v680h150v-680h-150z" />
    <glyph glyph-name="Idieresis" unicode="&#xcf;" horiz-adv-x="332" 
d="M54 730q-37 0 -63 25.5t-26 62.5q0 36 26 61.5t63 25.5q35 0 61 -25.5t26 -61.5t-25.5 -62t-61.5 -26zM280 730q-37 0 -63 25.5t-26 62.5q0 36 26 61.5t63 25.5q35 0 61 -25.5t26 -61.5t-25.5 -62t-61.5 -26zM91 680h150v-680h-150v680z" />
    <glyph glyph-name="Eth" unicode="&#xd0;" horiz-adv-x="751" 
d="M335 680q155 0 259 -97t104 -243t-104 -243t-259 -97h-251v280h-77v120h77v280h251zM334 142q96 0 155.5 55t59.5 143t-59.5 143t-155.5 55h-102v-138h175v-120h-175v-138h102z" />
    <glyph glyph-name="Ntilde" unicode="&#xd1;" horiz-adv-x="760" 
d="M280 746h-82q-7 61 31.5 101.5t92.5 40.5q38 0 90 -34q25 -16 39 -16q13 0 21 11t8 29h82q7 -61 -32 -101.5t-94 -40.5q-14 0 -28 4t-19.5 6.5t-21.5 12.5t-17 11q-28 16 -42 16q-28 0 -28 -40zM529 680h147v-680h-122l-323 422v-422h-147v680h121l324 -423v423z" />
    <glyph glyph-name="Ograve" unicode="&#xd2;" horiz-adv-x="817" 
d="M411 909l67 -167h-103l-95 103zM410 -16q-149 0 -253 103.5t-104 252.5t104 252.5t253 103.5q147 0 250.5 -104t103.5 -252t-103.5 -252t-250.5 -104zM410 131q86 0 144 60.5t58 148.5t-58 148.5t-144 60.5q-87 0 -146 -60t-59 -149t59 -149t146 -60z" />
    <glyph glyph-name="Oacute" unicode="&#xd3;" horiz-adv-x="817" 
d="M423 909l131 -64l-95 -103h-103zM410 -16q-149 0 -253 103.5t-104 252.5t104 252.5t253 103.5q147 0 250.5 -104t103.5 -252t-103.5 -252t-250.5 -104zM410 131q86 0 144 60.5t58 148.5t-58 148.5t-144 60.5q-87 0 -146 -60t-59 -149t59 -149t146 -60z" />
    <glyph glyph-name="Ocircumflex" unicode="&#xd4;" horiz-adv-x="817" 
d="M409 790l-105 -75l-56 55l104 111h113l104 -111l-56 -55zM410 696q147 0 250.5 -104t103.5 -252t-103.5 -252t-250.5 -104q-149 0 -253 103.5t-104 252.5t104 252.5t253 103.5zM410 131q86 0 144 60.5t58 148.5t-58 148.5t-144 60.5q-87 0 -146 -60t-59 -149t59 -149
t146 -60z" />
    <glyph glyph-name="Otilde" unicode="&#xd5;" horiz-adv-x="817" 
d="M509 879h82q7 -61 -32 -101.5t-94 -40.5q-14 0 -28 4t-19.5 6.5t-21.5 12.5t-17 11q-28 16 -42 16q-28 0 -28 -40h-82q-7 61 31.5 101.5t92.5 40.5q38 0 90 -34q25 -16 39 -16q13 0 21 11t8 29zM410 -16q-149 0 -253 103.5t-104 252.5t104 252.5t253 103.5
q147 0 250.5 -104t103.5 -252t-103.5 -252t-250.5 -104zM410 131q86 0 144 60.5t58 148.5t-58 148.5t-144 60.5q-87 0 -146 -60t-59 -149t59 -149t146 -60z" />
    <glyph glyph-name="Odieresis" unicode="&#xd6;" horiz-adv-x="817" 
d="M297 731q-37 0 -63 25.5t-26 62.5q0 36 26 61.5t63 25.5q35 0 61 -25.5t26 -61.5q0 -37 -26 -62.5t-61 -25.5zM523 731q-37 0 -63 25.5t-26 62.5q0 36 26 61.5t63 25.5q35 0 61 -25.5t26 -61.5q0 -37 -26 -62.5t-61 -25.5zM410 -16q-149 0 -253 103.5t-104 252.5
t104 252.5t253 103.5q147 0 250.5 -104t103.5 -252t-103.5 -252t-250.5 -104zM410 131q86 0 144 60.5t58 148.5t-58 148.5t-144 60.5q-87 0 -146 -60t-59 -149t59 -149t146 -60z" />
    <glyph glyph-name="multiply" unicode="&#xd7;" horiz-adv-x="544" 
d="M484 467l-127 -127l127 -127l-85 -85l-127 127l-127 -127l-85 85l127 127l-127 127l85 85l127 -127l127 127z" />
    <glyph glyph-name="Oslash" unicode="&#xd8;" horiz-adv-x="817" 
d="M773 614l-71 -71q62 -92 62 -203q0 -148 -103.5 -252t-250.5 -104q-113 0 -204 63l-65 -65l-85 84l64 64q-67 94 -67 210q0 149 104 252.5t253 103.5q116 0 209 -68l70 70zM205 340q0 -53 24 -101l283 283q-48 27 -102 27q-87 0 -146 -60t-59 -149zM612 340q0 50 -20 93
l-279 -279q44 -23 97 -23q86 0 144 60.5t58 148.5z" />
    <glyph glyph-name="Ugrave" unicode="&#xd9;" horiz-adv-x="734" 
d="M369 908l67 -167h-103l-95 103zM511 680h150v-380q0 -142 -81.5 -229t-212.5 -87t-212.5 87t-81.5 229v380h150v-378q0 -79 39.5 -126.5t104.5 -47.5t104.5 47.5t39.5 126.5v378z" />
    <glyph glyph-name="Uacute" unicode="&#xda;" horiz-adv-x="734" 
d="M381 908l131 -64l-95 -103h-103zM511 680h150v-380q0 -142 -81.5 -229t-212.5 -87t-212.5 87t-81.5 229v380h150v-378q0 -79 39.5 -126.5t104.5 -47.5t104.5 47.5t39.5 126.5v378z" />
    <glyph glyph-name="Ucircumflex" unicode="&#xdb;" horiz-adv-x="734" 
d="M367 789l-105 -75l-56 55l104 111h113l104 -111l-56 -55zM511 680h150v-380q0 -142 -81.5 -229t-212.5 -87t-212.5 87t-81.5 229v380h150v-378q0 -79 39.5 -126.5t104.5 -47.5t104.5 47.5t39.5 126.5v378z" />
    <glyph glyph-name="Udieresis" unicode="&#xdc;" horiz-adv-x="734" 
d="M255 730q-37 0 -63 25.5t-26 62.5q0 36 26 61.5t63 25.5q35 0 61 -25.5t26 -61.5t-26 -62t-61 -26zM481 730q-37 0 -63 25.5t-26 62.5q0 36 26 61.5t63 25.5q35 0 61 -25.5t26 -61.5t-26 -62t-61 -26zM511 680h150v-380q0 -142 -81.5 -229t-212.5 -87t-212.5 87
t-81.5 229v380h150v-378q0 -79 39.5 -126.5t104.5 -47.5t104.5 47.5t39.5 126.5v378z" />
    <glyph glyph-name="Yacute" unicode="&#xdd;" horiz-adv-x="712" 
d="M506 844l-95 -103h-103l67 167zM700 680l-270 -404v-276h-148v275l-270 405h175l169 -261l169 261h175z" />
    <glyph glyph-name="Thorn" unicode="&#xde;" horiz-adv-x="671" 
d="M384 558q99 0 166.5 -62.5t67.5 -154.5t-67 -155t-167 -63h-152v-123h-148v680h148v-122h152zM384 264q37 0 62 22t25 54q0 34 -24.5 55.5t-62.5 21.5h-152v-153h152z" />
    <glyph glyph-name="germandbls" unicode="&#xdf;" horiz-adv-x="598" 
d="M467 353q94 -53 94 -155q0 -89 -72.5 -151t-175.5 -62q-30 0 -58 7v153q25 -17 59 -17q42 0 70.5 22.5t28.5 55.5t-29.5 58t-71.5 25h-57v124h57q37 0 62 23.5t25 54.5q0 30 -25 51t-62 21q-43 0 -68.5 -29.5t-25.5 -79.5v-455h-143v455q0 109 67.5 180t171.5 71
q96 0 164.5 -60t68.5 -147q0 -94 -80 -145z" />
    <glyph glyph-name="agrave" unicode="&#xe0;" horiz-adv-x="554" 
d="M341 561h-103l-95 103l131 64zM272 515q92 0 155.5 -60t63.5 -154v-301h-140v51q-68 -65 -159 -66q-65 -1 -110.5 41t-45.5 111q0 132 171 166l140 27q-8 28 -30.5 44.5t-52.5 16.5q-66 0 -116 -66l-101 76q37 51 98 82.5t127 31.5zM233 102q46 0 82 33t36 76v13
l-118 -24q-57 -12 -57 -53q0 -19 15 -32t42 -13z" />
    <glyph glyph-name="aacute" unicode="&#xe1;" horiz-adv-x="554" 
d="M417 664l-95 -103h-103l67 167zM272 515q92 0 155.5 -60t63.5 -154v-301h-140v51q-68 -65 -159 -66q-65 -1 -110.5 41t-45.5 111q0 132 171 166l140 27q-8 28 -30.5 44.5t-52.5 16.5q-66 0 -116 -66l-101 76q37 51 98 82.5t127 31.5zM233 102q46 0 82 33t36 76v13
l-118 -24q-57 -12 -57 -53q0 -19 15 -32t42 -13z" />
    <glyph glyph-name="acircumflex" unicode="&#xe2;" horiz-adv-x="554" 
d="M272 609l-105 -75l-56 55l104 111h113l104 -111l-56 -55zM272 515q92 0 155.5 -60t63.5 -154v-301h-140v51q-68 -65 -159 -66q-65 -1 -110.5 41t-45.5 111q0 132 171 166l140 27q-8 28 -30.5 44.5t-52.5 16.5q-66 0 -116 -66l-101 76q37 51 98 82.5t127 31.5zM233 102
q46 0 82 33t36 76v13l-118 -24q-57 -12 -57 -53q0 -19 15 -32t42 -13z" />
    <glyph glyph-name="atilde" unicode="&#xe3;" horiz-adv-x="554" 
d="M172 566h-82q-7 61 31.5 101.5t92.5 40.5q38 0 90 -34q25 -16 39 -16q13 0 21 11t8 29h82q7 -61 -32 -101.5t-94 -40.5q-14 0 -28 4t-19.5 6.5t-21.5 12.5t-17 11q-28 16 -42 16q-28 0 -28 -40zM272 515q92 0 155.5 -60t63.5 -154v-301h-140v51q-68 -65 -159 -66
q-65 -1 -110.5 41t-45.5 111q0 132 171 166l140 27q-8 28 -30.5 44.5t-52.5 16.5q-66 0 -116 -66l-101 76q37 51 98 82.5t127 31.5zM233 102q46 0 82 33t36 76v13l-118 -24q-57 -12 -57 -53q0 -19 15 -32t42 -13z" />
    <glyph glyph-name="adieresis" unicode="&#xe4;" horiz-adv-x="554" 
d="M160 550q-37 0 -63 25.5t-26 62.5q0 36 26 61.5t63 25.5q35 0 61 -25.5t26 -61.5t-25.5 -62t-61.5 -26zM386 550q-37 0 -63 25.5t-26 62.5q0 36 26 61.5t63 25.5q35 0 61 -25.5t26 -61.5t-25.5 -62t-61.5 -26zM272 515q92 0 155.5 -60t63.5 -154v-301h-140v51
q-68 -65 -159 -66q-65 -1 -110.5 41t-45.5 111q0 132 171 166l140 27q-8 28 -30.5 44.5t-52.5 16.5q-66 0 -116 -66l-101 76q37 51 98 82.5t127 31.5zM233 102q46 0 82 33t36 76v13l-118 -24q-57 -12 -57 -53q0 -19 15 -32t42 -13z" />
    <glyph glyph-name="aring" unicode="&#xe5;" horiz-adv-x="554" 
d="M273 542q-43 0 -73.5 30t-30.5 73q0 42 30.5 72t73.5 30q42 0 72.5 -30t30.5 -72q0 -43 -30.5 -73t-72.5 -30zM273 688q-18 0 -31.5 -13t-13.5 -30q0 -18 13.5 -31t31.5 -13t31 13t13 31q0 17 -13 30t-31 13zM272 515q92 0 155.5 -60t63.5 -154v-301h-140v51
q-68 -65 -159 -66q-65 -1 -110.5 41t-45.5 111q0 132 171 166l140 27q-8 28 -30.5 44.5t-52.5 16.5q-66 0 -116 -66l-101 76q37 51 98 82.5t127 31.5zM233 102q46 0 82 33t36 76v13l-118 -24q-57 -12 -57 -53q0 -19 15 -32t42 -13z" />
    <glyph glyph-name="ae" unicode="&#xe6;" horiz-adv-x="887" 
d="M840 292q5 -45 -2 -95h-341q24 -84 108 -84q39 0 69.5 18.5t46.5 48.5l109 -62q-31 -60 -94.5 -96.5t-135.5 -36.5q-121 0 -192 93q-31 -42 -84.5 -67.5t-113.5 -25.5q-76 0 -125 41.5t-49 111.5q0 65 44.5 107t126.5 58l140 27q-8 28 -30.5 44.5t-52.5 16.5
q-66 0 -116 -66l-101 76q37 51 98 82.5t127 31.5q98 0 161 -65q68 65 170 65q96 0 161 -60t76 -163zM598 387q-81 0 -101 -86h200q-5 39 -32 62.5t-67 23.5zM233 102q47 0 84 36t37 86l-121 -24q-57 -12 -57 -53q0 -19 15 -32t42 -13z" />
    <glyph glyph-name="ccedilla" unicode="&#xe7;" horiz-adv-x="573" 
d="M542 149q-25 -62 -76.5 -104.5t-117.5 -54.5l-59 -148l-131 64l79 86q-89 20 -147 92t-58 166q0 110 77.5 187.5t188.5 77.5q81 0 147 -44.5t96 -117.5l-137 -51q-14 33 -42 52.5t-64 19.5q-51 0 -84.5 -35.5t-33.5 -88.5t33.5 -88.5t84.5 -35.5q35 0 63.5 20t42.5 53z
" />
    <glyph glyph-name="egrave" unicode="&#xe8;" horiz-adv-x="576" 
d="M361 561h-103l-95 103l131 64zM529 292q5 -45 -2 -95h-341q24 -84 108 -84q39 0 69.5 18.5t46.5 48.5l109 -62q-31 -60 -94.5 -96.5t-135.5 -36.5q-107 0 -177 75.5t-70 189.5q0 115 70 190t180 75q96 0 161 -60t76 -163zM287 387q-81 0 -101 -86h200q-5 39 -32 62.5
t-67 23.5z" />
    <glyph glyph-name="eacute" unicode="&#xe9;" horiz-adv-x="576" 
d="M437 664l-95 -103h-103l67 167zM529 292q5 -45 -2 -95h-341q24 -84 108 -84q39 0 69.5 18.5t46.5 48.5l109 -62q-31 -60 -94.5 -96.5t-135.5 -36.5q-107 0 -177 75.5t-70 189.5q0 115 70 190t180 75q96 0 161 -60t76 -163zM287 387q-81 0 -101 -86h200q-5 39 -32 62.5
t-67 23.5z" />
    <glyph glyph-name="ecircumflex" unicode="&#xea;" horiz-adv-x="576" 
d="M292 609l-105 -75l-56 55l104 111h113l104 -111l-56 -55zM529 292q5 -45 -2 -95h-341q24 -84 108 -84q39 0 69.5 18.5t46.5 48.5l109 -62q-31 -60 -94.5 -96.5t-135.5 -36.5q-107 0 -177 75.5t-70 189.5q0 115 70 190t180 75q96 0 161 -60t76 -163zM287 387
q-81 0 -101 -86h200q-5 39 -32 62.5t-67 23.5z" />
    <glyph glyph-name="edieresis" unicode="&#xeb;" horiz-adv-x="576" 
d="M180 550q-37 0 -63 25.5t-26 62.5q0 36 26 61.5t63 25.5q35 0 61 -25.5t26 -61.5t-25.5 -62t-61.5 -26zM406 550q-37 0 -63 25.5t-26 62.5q0 36 26 61.5t63 25.5q35 0 61 -25.5t26 -61.5t-25.5 -62t-61.5 -26zM529 292q5 -45 -2 -95h-341q24 -84 108 -84q39 0 69.5 18.5
t46.5 48.5l109 -62q-31 -60 -94.5 -96.5t-135.5 -36.5q-107 0 -177 75.5t-70 189.5q0 115 70 190t180 75q96 0 161 -60t76 -163zM287 387q-81 0 -101 -86h200q-5 39 -32 62.5t-67 23.5z" />
    <glyph glyph-name="igrave" unicode="&#xec;" horiz-adv-x="292" 
d="M148 728l67 -167h-103l-95 103zM71 500h150v-500h-150v500z" />
    <glyph glyph-name="iacute" unicode="&#xed;" horiz-adv-x="292" 
d="M160 728l131 -64l-95 -103h-103zM71 500h150v-500h-150v500z" />
    <glyph glyph-name="icircumflex" unicode="&#xee;" horiz-adv-x="292" 
d="M202 700l104 -111l-56 -55l-104 75l-105 -75l-56 55l104 111h113zM71 0v500h150v-500h-150z" />
    <glyph glyph-name="idieresis" unicode="&#xef;" horiz-adv-x="292" 
d="M34 550q-37 0 -63 25.5t-26 62.5q0 36 26 61.5t63 25.5q35 0 61 -25.5t26 -61.5t-25.5 -62t-61.5 -26zM260 550q-37 0 -63 25.5t-26 62.5q0 36 26 61.5t63 25.5q35 0 61 -25.5t26 -61.5t-25.5 -62t-61.5 -26zM71 500h150v-500h-150v500z" />
    <glyph glyph-name="eth" unicode="&#xf0;" horiz-adv-x="552" 
d="M402 551q114 -169 114 -308q0 -110 -68.5 -183.5t-172.5 -73.5q-100 0 -169 67.5t-69 164.5q0 94 64 158.5t157 64.5q29 0 59 -8q-22 37 -45 71l-117 -43l-31 86l90 33q-30 36 -64 70l103 81q52 -53 92 -104l116 42l31 -85zM277 123q41 -1 69 27t28 71t-29.5 71.5
t-70.5 28.5q-42 0 -68.5 -29t-26.5 -70q0 -42 28 -70t70 -29z" />
    <glyph glyph-name="ntilde" unicode="&#xf1;" horiz-adv-x="612" 
d="M204 566h-82q-7 61 31.5 101.5t92.5 40.5q38 0 90 -34q25 -16 39 -16q13 0 21 11t8 29h82q7 -61 -32 -101.5t-94 -40.5q-14 0 -28 4t-19.5 6.5t-21.5 12.5t-17 11q-28 16 -42 16q-28 0 -28 -40zM359 516q84 0 136.5 -65t52.5 -160v-291h-145v261q0 51 -25 83t-66 32
q-42 0 -71 -32.5t-29 -82.5v-261h-144v500h144v-54q57 70 147 70z" />
    <glyph glyph-name="ograve" unicode="&#xf2;" horiz-adv-x="614" 
d="M312 728l67 -167h-103l-95 103zM308 -15q-111 0 -188.5 77.5t-77.5 187.5t77.5 187.5t188.5 77.5q110 0 187 -77.5t77 -187.5t-77 -187.5t-187 -77.5zM308 126q49 0 82.5 36t33.5 88q0 53 -33 88.5t-83 35.5q-51 0 -84.5 -35.5t-33.5 -88.5t33.5 -88.5t84.5 -35.5z" />
    <glyph glyph-name="oacute" unicode="&#xf3;" horiz-adv-x="614" 
d="M324 728l131 -64l-95 -103h-103zM308 -15q-111 0 -188.5 77.5t-77.5 187.5t77.5 187.5t188.5 77.5q110 0 187 -77.5t77 -187.5t-77 -187.5t-187 -77.5zM308 126q49 0 82.5 36t33.5 88q0 53 -33 88.5t-83 35.5q-51 0 -84.5 -35.5t-33.5 -88.5t33.5 -88.5t84.5 -35.5z" />
    <glyph glyph-name="ocircumflex" unicode="&#xf4;" horiz-adv-x="614" 
d="M310 609l-105 -75l-56 55l104 111h113l104 -111l-56 -55zM308 515q110 0 187 -77.5t77 -187.5t-77 -187.5t-187 -77.5q-111 0 -188.5 77.5t-77.5 187.5t77.5 187.5t188.5 77.5zM308 126q49 0 82.5 36t33.5 88q0 53 -33 88.5t-83 35.5q-51 0 -84.5 -35.5t-33.5 -88.5
t33.5 -88.5t84.5 -35.5z" />
    <glyph glyph-name="otilde" unicode="&#xf5;" horiz-adv-x="614" 
d="M410 698h82q7 -61 -32 -101.5t-94 -40.5q-14 0 -28 4t-19.5 6.5t-21.5 12.5t-17 11q-28 16 -42 16q-28 0 -28 -40h-82q-7 61 31.5 101.5t92.5 40.5q38 0 90 -34q25 -16 39 -16q13 0 21 11t8 29zM308 -15q-111 0 -188.5 77.5t-77.5 187.5t77.5 187.5t188.5 77.5
q110 0 187 -77.5t77 -187.5t-77 -187.5t-187 -77.5zM308 126q49 0 82.5 36t33.5 88q0 53 -33 88.5t-83 35.5q-51 0 -84.5 -35.5t-33.5 -88.5t33.5 -88.5t84.5 -35.5z" />
    <glyph glyph-name="odieresis" unicode="&#xf6;" horiz-adv-x="614" 
d="M198 550q-37 0 -63 25.5t-26 62.5q0 36 26 61.5t63 25.5q35 0 61 -25.5t26 -61.5t-25.5 -62t-61.5 -26zM424 550q-37 0 -63 25.5t-26 62.5q0 36 26 61.5t63 25.5q35 0 61 -25.5t26 -61.5t-25.5 -62t-61.5 -26zM308 -15q-111 0 -188.5 77.5t-77.5 187.5t77.5 187.5
t188.5 77.5q110 0 187 -77.5t77 -187.5t-77 -187.5t-187 -77.5zM308 126q49 0 82.5 36t33.5 88q0 53 -33 88.5t-83 35.5q-51 0 -84.5 -35.5t-33.5 -88.5t33.5 -88.5t84.5 -35.5z" />
    <glyph glyph-name="divide" unicode="&#xf7;" horiz-adv-x="600" 
d="M301 612q33 0 58 -24.5t25 -58.5t-25 -58.5t-58 -24.5q-35 0 -60 24.5t-25 58.5t25 58.5t60 24.5zM60 280v120h480v-120h-480zM301 234q33 0 58 -24.5t25 -58.5t-25 -58.5t-58 -24.5q-35 0 -60 24.5t-25 58.5t25 58.5t60 24.5z" />
    <glyph glyph-name="oslash" unicode="&#xf8;" horiz-adv-x="614" 
d="M591 476l-70 -70q51 -69 51 -156q0 -110 -77 -187.5t-187 -77.5q-87 0 -157 51l-80 -80l-69 69l82 82q-42 64 -42 143q0 110 77.5 187.5t188.5 77.5q78 0 142 -42l72 72zM190 250q0 -20 4 -33l151 151q-18 6 -37 6q-51 0 -84.5 -35.5t-33.5 -88.5zM424 250q0 28 -9 50
l-161 -161q26 -13 54 -13q49 0 82.5 36t33.5 88z" />
    <glyph glyph-name="ugrave" unicode="&#xf9;" horiz-adv-x="612" 
d="M373 561h-103l-95 103l131 64zM400 500h144v-500h-144v54q-57 -70 -147 -70q-84 0 -136.5 65t-52.5 160v291h145v-261q0 -51 25 -83t66 -32q42 0 71 32.5t29 82.5v261z" />
    <glyph glyph-name="uacute" unicode="&#xfa;" horiz-adv-x="612" 
d="M449 664l-95 -103h-103l67 167zM400 500h144v-500h-144v54q-57 -70 -147 -70q-84 0 -136.5 65t-52.5 160v291h145v-261q0 -51 25 -83t66 -32q42 0 71 32.5t29 82.5v261z" />
    <glyph glyph-name="ucircumflex" unicode="&#xfb;" horiz-adv-x="612" 
d="M304 609l-105 -75l-56 55l104 111h113l104 -111l-56 -55zM400 500h144v-500h-144v54q-57 -70 -147 -70q-84 0 -136.5 65t-52.5 160v291h145v-261q0 -51 25 -83t66 -32q42 0 71 32.5t29 82.5v261z" />
    <glyph glyph-name="udieresis" unicode="&#xfc;" horiz-adv-x="612" 
d="M192 550q-37 0 -63 25.5t-26 62.5q0 36 26 61.5t63 25.5q35 0 61 -25.5t26 -61.5t-25.5 -62t-61.5 -26zM418 550q-37 0 -63 25.5t-26 62.5q0 36 26 61.5t63 25.5q35 0 61 -25.5t26 -61.5t-25.5 -62t-61.5 -26zM400 500h144v-500h-144v54q-57 -70 -147 -70
q-84 0 -136.5 65t-52.5 160v291h145v-261q0 -51 25 -83t66 -32q42 0 71 32.5t29 82.5v261z" />
    <glyph glyph-name="yacute" unicode="&#xfd;" horiz-adv-x="600" 
d="M445 664l-95 -103h-103l67 167zM427 500h151l-289 -700h-154l95 228l-210 472h157l129 -291z" />
    <glyph glyph-name="thorn" unicode="&#xfe;" horiz-adv-x="649" 
d="M358 515q97 0 162.5 -76t64.5 -189t-67 -189t-162 -76q-88 0 -143 65v-250h-145v900h145v-253q53 68 145 68zM325 125q47 0 79.5 35.5t32.5 90.5q0 54 -31.5 88.5t-77.5 35.5q-47 1 -81 -34t-34 -91q0 -57 33 -91t79 -34z" />
    <glyph glyph-name="ydieresis" unicode="&#xff;" horiz-adv-x="600" 
d="M188 550q-37 0 -63 25.5t-26 62.5q0 36 26 61.5t63 25.5q35 0 61 -25.5t26 -61.5t-25.5 -62t-61.5 -26zM414 550q-37 0 -63 25.5t-26 62.5q0 36 26 61.5t63 25.5q35 0 61 -25.5t26 -61.5t-25.5 -62t-61.5 -26zM427 500h151l-289 -700h-154l95 228l-210 472h157l129 -291z
" />
    <glyph glyph-name="Amacron" unicode="&#x100;" horiz-adv-x="765" 
d="M558 850v-100h-350v100h350zM581 0l-57 139h-284l-56 -139h-160l283 680h147l287 -680h-160zM292 266h179l-90 219z" />
    <glyph glyph-name="amacron" unicode="&#x101;" horiz-adv-x="554" 
d="M447 670v-100h-350v100h350zM272 515q92 0 155.5 -60t63.5 -154v-301h-140v51q-68 -65 -159 -66q-65 -1 -110.5 41t-45.5 111q0 132 171 166l140 27q-8 28 -30.5 44.5t-52.5 16.5q-66 0 -116 -66l-101 76q37 51 98 82.5t127 31.5zM233 102q46 0 82 33t36 76v13l-118 -24
q-57 -12 -57 -53q0 -19 15 -32t42 -13z" />
    <glyph glyph-name="Abreve" unicode="&#x102;" horiz-adv-x="765" 
d="M385 736q-69 0 -114 40.5t-45 103.5h93q0 -24 17 -37.5t49 -13.5t49 13.5t17 37.5h93q0 -63 -45 -103.5t-114 -40.5zM581 0l-57 139h-284l-56 -139h-160l283 680h147l287 -680h-160zM292 266h179l-90 219z" />
    <glyph glyph-name="abreve" unicode="&#x103;" horiz-adv-x="554" 
d="M274 556q-69 0 -114 40.5t-45 103.5h93q0 -24 17 -37.5t49 -13.5t49 13.5t17 37.5h93q0 -63 -45 -103.5t-114 -40.5zM272 515q92 0 155.5 -60t63.5 -154v-301h-140v51q-68 -65 -159 -66q-65 -1 -110.5 41t-45.5 111q0 132 171 166l140 27q-8 28 -30.5 44.5t-52.5 16.5
q-66 0 -116 -66l-101 76q37 51 98 82.5t127 31.5zM233 102q46 0 82 33t36 76v13l-118 -24q-57 -12 -57 -53q0 -19 15 -32t42 -13z" />
    <glyph glyph-name="Aogonek" unicode="&#x104;" horiz-adv-x="765" 
d="M678 -88q0 -14 9 -20t25 -1t35 20v-95q-65 -30 -117 -0.5t-52 92.5q0 49 40 92h-37l-57 139h-284l-56 -139h-160l283 680h147l287 -680q-28 -19 -45.5 -43.5t-17.5 -44.5zM292 266h179l-90 219z" />
    <glyph glyph-name="aogonek" unicode="&#x105;" horiz-adv-x="554" 
d="M428 -88q0 -14 9 -20t25 -1t35 20v-95q-65 -30 -117 -0.5t-52 92.5q0 49 40 92h-17v51q-68 -65 -159 -66q-65 -1 -110.5 41t-45.5 111q0 132 171 166l140 27q-8 28 -30.5 44.5t-52.5 16.5q-66 0 -116 -66l-101 76q37 51 98 82.5t127 31.5q92 0 155.5 -60t63.5 -154v-301
q-28 -19 -45.5 -43.5t-17.5 -44.5zM233 102q46 0 82 33t36 76v13l-118 -24q-57 -12 -57 -53q0 -19 15 -32t42 -13z" />
    <glyph glyph-name="Cacute" unicode="&#x106;" horiz-adv-x="760" 
d="M422 909l131 -64l-95 -103h-103zM592 435q-26 54 -74.5 84t-107.5 30q-87 0 -146 -60t-59 -149t59 -149t146 -60q59 0 107.5 30t74.5 84l129 -76q-46 -85 -130 -135t-181 -50q-149 0 -253 104t-104 252t104 252t253 104q98 0 181.5 -49.5t129.5 -135.5z" />
    <glyph glyph-name="cacute" unicode="&#x107;" horiz-adv-x="573" 
d="M312 728l131 -64l-95 -103h-103zM404 199l138 -50q-30 -74 -96 -119t-148 -45q-111 0 -188.5 77.5t-77.5 187.5t77.5 187.5t188.5 77.5q81 0 147 -44.5t96 -117.5l-137 -51q-14 33 -42 52.5t-64 19.5q-51 0 -84.5 -35.5t-33.5 -88.5t33.5 -88.5t84.5 -35.5q35 0 63.5 20
t42.5 53z" />
    <glyph glyph-name="Cdotaccent" unicode="&#x10a;" horiz-adv-x="760" 
d="M409 731q-37 0 -63 25.5t-26 62.5q0 36 26 61.5t63 25.5q35 0 61 -25.5t26 -61.5q0 -37 -26 -62.5t-61 -25.5zM592 435q-26 54 -74.5 84t-107.5 30q-87 0 -146 -60t-59 -149t59 -149t146 -60q59 0 107.5 30t74.5 84l129 -76q-46 -85 -130 -135t-181 -50q-149 0 -253 104
t-104 252t104 252t253 104q98 0 181.5 -49.5t129.5 -135.5z" />
    <glyph glyph-name="cdotaccent" unicode="&#x10b;" horiz-adv-x="573" 
d="M299 550q-37 0 -63 25.5t-26 62.5q0 36 26 61.5t63 25.5q35 0 61 -25.5t26 -61.5t-26 -62t-61 -26zM404 199l138 -50q-30 -74 -96 -119t-148 -45q-111 0 -188.5 77.5t-77.5 187.5t77.5 187.5t188.5 77.5q81 0 147 -44.5t96 -117.5l-137 -51q-14 33 -42 52.5t-64 19.5
q-51 0 -84.5 -35.5t-33.5 -88.5t33.5 -88.5t84.5 -35.5q35 0 63.5 20t42.5 53z" />
    <glyph glyph-name="Ccaron" unicode="&#x10c;" horiz-adv-x="760" 
d="M464 741h-113l-104 111l56 55l105 -75l104 75l56 -55zM410 131q59 0 107.5 30t74.5 84l129 -76q-46 -85 -130 -135t-181 -50q-149 0 -253 104t-104 252t104 252t253 104q98 0 181.5 -49.5t129.5 -135.5l-129 -76q-26 54 -74.5 84t-107.5 30q-87 0 -146 -60t-59 -149
t59 -149t146 -60z" />
    <glyph glyph-name="ccaron" unicode="&#x10d;" horiz-adv-x="573" 
d="M354 560h-113l-104 111l56 55l105 -75l104 75l56 -55zM404 199l138 -50q-30 -74 -96 -119t-148 -45q-111 0 -188.5 77.5t-77.5 187.5t77.5 187.5t188.5 77.5q81 0 147 -44.5t96 -117.5l-137 -51q-14 33 -42 52.5t-64 19.5q-51 0 -84.5 -35.5t-33.5 -88.5t33.5 -88.5
t84.5 -35.5q35 0 63.5 20t42.5 53z" />
    <glyph glyph-name="Dcaron" unicode="&#x10e;" horiz-adv-x="751" 
d="M391 740h-113l-104 111l56 55l105 -75l104 75l56 -55zM335 680q155 0 259 -97t104 -243t-104 -243t-259 -97h-251v680h251zM334 142q96 0 155.5 55t59.5 143t-59.5 143t-155.5 55h-102v-396h102z" />
    <glyph glyph-name="dcaron" unicode="&#x10f;" horiz-adv-x="768" 
d="M406 450v250h145v-700h-145v53q-53 -68 -145 -68q-97 0 -162.5 76t-64.5 189t67 189t162 76q88 0 143 -65zM613 700h136l-76 -297h-85zM291 125q47 -1 81 34t34 91q0 57 -33 91t-79 34q-47 0 -79.5 -35.5t-32.5 -90.5q0 -54 31.5 -88.5t77.5 -35.5z" />
    <glyph glyph-name="Dcroat" unicode="&#x110;" horiz-adv-x="751" 
d="M335 680q155 0 259 -97t104 -243t-104 -243t-259 -97h-251v280h-77v120h77v280h251zM334 142q96 0 155.5 55t59.5 143t-59.5 143t-155.5 55h-102v-138h175v-120h-175v-138h102z" />
    <glyph glyph-name="dcroat" unicode="&#x111;" horiz-adv-x="619" 
d="M614 646v-102h-63v-544h-145v53q-53 -68 -145 -68q-97 0 -162.5 76t-64.5 189t67 189t162 76q88 0 143 -65v94h-192v102h192v54h145v-54h63zM291 125q47 -1 81 34t34 91q0 57 -33 91t-79 34q-47 0 -79.5 -35.5t-32.5 -90.5q0 -54 31.5 -88.5t77.5 -35.5z" />
    <glyph glyph-name="Emacron" unicode="&#x112;" horiz-adv-x="605" 
d="M503 850v-100h-350v100h350zM552 538h-321v-131h218v-134h-218v-131h321v-142h-468v680h468v-142z" />
    <glyph glyph-name="emacron" unicode="&#x113;" horiz-adv-x="576" 
d="M467 670v-100h-350v100h350zM529 292q5 -45 -2 -95h-341q24 -84 108 -84q39 0 69.5 18.5t46.5 48.5l109 -62q-31 -60 -94.5 -96.5t-135.5 -36.5q-107 0 -177 75.5t-70 189.5q0 115 70 190t180 75q96 0 161 -60t76 -163zM287 387q-81 0 -101 -86h200q-5 39 -32 62.5
t-67 23.5z" />
    <glyph glyph-name="Edotaccent" unicode="&#x116;" horiz-adv-x="605" 
d="M329 730q-37 0 -63 25.5t-26 62.5q0 36 26 61.5t63 25.5q35 0 61 -25.5t26 -61.5t-26 -62t-61 -26zM552 538h-321v-131h218v-134h-218v-131h321v-142h-468v680h468v-142z" />
    <glyph glyph-name="edotaccent" unicode="&#x117;" horiz-adv-x="576" 
d="M293 550q-37 0 -63 25.5t-26 62.5q0 36 26 61.5t63 25.5q35 0 61 -25.5t26 -61.5t-26 -62t-61 -26zM529 292q5 -45 -2 -95h-341q24 -84 108 -84q39 0 69.5 18.5t46.5 48.5l109 -62q-31 -60 -94.5 -96.5t-135.5 -36.5q-107 0 -177 75.5t-70 189.5q0 115 70 190t180 75
q96 0 161 -60t76 -163zM287 387q-81 0 -101 -86h200q-5 39 -32 62.5t-67 23.5z" />
    <glyph glyph-name="Eogonek" unicode="&#x118;" horiz-adv-x="605" 
d="M489 -88q0 -14 9 -20t25 -1t35 20v-95q-65 -30 -117 -0.5t-52 92.5q0 49 40 92h-345v680h468v-142h-321v-131h218v-134h-218v-131h321v-142q-28 -19 -45.5 -43.5t-17.5 -44.5z" />
    <glyph glyph-name="eogonek" unicode="&#x119;" horiz-adv-x="576" 
d="M529 292q5 -45 -2 -95h-341q24 -84 108 -84q39 0 69.5 18.5t46.5 48.5l109 -62q-28 -54 -82 -89q-43 -38 -43 -73q0 -14 9 -20t25 -1t35 20v-95q-65 -30 -117 -0.5t-52 92.5q0 19 5 33h-10q-107 0 -177 75.5t-70 189.5q0 115 70 190t180 75q96 0 161 -60t76 -163z
M287 387q-81 0 -101 -86h200q-5 39 -32 62.5t-67 23.5z" />
    <glyph glyph-name="Ecaron" unicode="&#x11a;" horiz-adv-x="605" 
d="M384 740h-113l-104 111l56 55l105 -75l104 75l56 -55zM552 538h-321v-131h218v-134h-218v-131h321v-142h-468v680h468v-142z" />
    <glyph glyph-name="ecaron" unicode="&#x11b;" horiz-adv-x="576" 
d="M348 560h-113l-104 111l56 55l105 -75l104 75l56 -55zM529 292q5 -45 -2 -95h-341q24 -84 108 -84q39 0 69.5 18.5t46.5 48.5l109 -62q-31 -60 -94.5 -96.5t-135.5 -36.5q-107 0 -177 75.5t-70 189.5q0 115 70 190t180 75q96 0 161 -60t76 -163zM287 387q-81 0 -101 -86
h200q-5 39 -32 62.5t-67 23.5z" />
    <glyph glyph-name="Gbreve" unicode="&#x11e;" horiz-adv-x="808" 
d="M419 737q-69 0 -114 40.5t-45 103.5h93q0 -24 17 -37.5t49 -13.5t49 13.5t17 37.5h93q0 -63 -45 -103.5t-114 -40.5zM386 375h363v-51q0 -150 -93.5 -245t-235.5 -95q-150 0 -253.5 103t-103.5 252t103.5 253t252.5 104q94 0 174.5 -45t127.5 -124l-125 -75
q-58 100 -177 100q-89 0 -147.5 -61t-58.5 -153q0 -91 58.5 -150.5t150.5 -59.5q70 0 114.5 34.5t51.5 84.5h-202v128z" />
    <glyph glyph-name="gbreve" unicode="&#x11f;" horiz-adv-x="629" 
d="M299 556q-69 0 -114 40.5t-45 103.5h93q0 -24 17 -37.5t49 -13.5t49 13.5t17 37.5h93q0 -63 -45 -103.5t-114 -40.5zM416 500h145v-462q0 -111 -77 -182t-187 -71q-138 0 -230 108l98 87q57 -67 131 -67q54 0 87 33.5t33 93.5v20q-55 -65 -145 -65q-94 0 -160 71.5
t-67 183.5q-1 113 64.5 189t162.5 76q92 0 145 -68v53zM305 135q46 0 78.5 31.5t32.5 88.5q0 55 -34 88t-81 32q-46 -1 -77.5 -33t-31.5 -86q0 -55 32.5 -88t80.5 -33z" />
    <glyph glyph-name="Gdotaccent" unicode="&#x120;" horiz-adv-x="808" 
d="M418 731q-37 0 -63 25.5t-26 62.5q0 36 26 61.5t63 25.5q35 0 61 -25.5t26 -61.5q0 -37 -25.5 -62.5t-61.5 -25.5zM386 375h363v-51q0 -150 -93.5 -245t-235.5 -95q-150 0 -253.5 103t-103.5 252t103.5 253t252.5 104q94 0 174.5 -45t127.5 -124l-125 -75
q-58 100 -177 100q-89 0 -147.5 -61t-58.5 -153q0 -91 58.5 -150.5t150.5 -59.5q70 0 114.5 34.5t51.5 84.5h-202v128z" />
    <glyph glyph-name="gdotaccent" unicode="&#x121;" horiz-adv-x="629" 
d="M298 550q-37 0 -63 25.5t-26 62.5q0 36 26 61.5t63 25.5q35 0 61 -25.5t26 -61.5t-25.5 -62t-61.5 -26zM416 500h145v-462q0 -111 -77 -182t-187 -71q-138 0 -230 108l98 87q57 -67 131 -67q54 0 87 33.5t33 93.5v20q-55 -65 -145 -65q-94 0 -160 71.5t-67 183.5
q-1 113 64.5 189t162.5 76q92 0 145 -68v53zM305 135q46 0 78.5 31.5t32.5 88.5q0 55 -34 88t-81 32q-46 -1 -77.5 -33t-31.5 -86q0 -55 32.5 -88t80.5 -33z" />
    <glyph glyph-name="Gcommaaccent" unicode="&#x122;" horiz-adv-x="808" 
d="M386 375h363v-51q0 -150 -93.5 -245t-235.5 -95q-150 0 -253.5 103t-103.5 252t103.5 253t252.5 104q94 0 174.5 -45t127.5 -124l-125 -75q-58 100 -177 100q-89 0 -147.5 -61t-58.5 -153q0 -91 58.5 -150.5t150.5 -59.5q70 0 114.5 34.5t51.5 84.5h-202v128zM306 -279
l40 219h140l-93 -219h-87z" />
    <glyph glyph-name="gcommaaccent" unicode="&#x123;" horiz-adv-x="629" 
d="M401 764l-40 -219h-140l93 219h87zM416 500h145v-462q0 -111 -77 -182t-187 -71q-138 0 -230 108l98 87q57 -67 131 -67q54 0 87 33.5t33 93.5v20q-55 -65 -145 -65q-94 0 -160 71.5t-67 183.5q-1 113 64.5 189t162.5 76q92 0 145 -68v53zM305 135q46 0 78.5 31.5
t32.5 88.5q0 55 -34 88t-81 32q-46 -1 -77.5 -33t-31.5 -86q0 -55 32.5 -88t80.5 -33z" />
    <glyph glyph-name="Hbar" unicode="&#x126;" horiz-adv-x="752" 
d="M731 595v-100h-63v-495h-148v269h-288v-269h-148v495h-63v100h63v85h148v-85h288v85h148v-85h63zM520 411v84h-288v-84h288z" />
    <glyph glyph-name="hbar" unicode="&#x127;" horiz-adv-x="612" 
d="M359 516q84 0 136.5 -65t52.5 -160v-291h-145v261q0 51 -25 83t-66 32q-42 0 -71 -32.5t-29 -82.5v-261h-144v548h-105v101h105v51h144v-51h171v-101h-171v-102q57 70 147 70z" />
    <glyph glyph-name="Imacron" unicode="&#x12a;" horiz-adv-x="332" 
d="M-9 850h350v-100h-350v100zM91 680h150v-680h-150v680z" />
    <glyph glyph-name="imacron" unicode="&#x12b;" horiz-adv-x="292" 
d="M-29 670h350v-100h-350v100zM71 500h150v-500h-150v500z" />
    <glyph glyph-name="Iogonek" unicode="&#x12e;" horiz-adv-x="332" 
d="M178 -88q0 -14 9 -20t25 -1t35 20v-95q-65 -30 -117 -0.5t-52 92.5q0 49 40 92h-27v680h150v-680q-28 -19 -45.5 -43.5t-17.5 -44.5z" />
    <glyph glyph-name="iogonek" unicode="&#x12f;" horiz-adv-x="292" 
d="M147 550q-37 0 -63 25.5t-26 62.5q0 36 26 61.5t63 25.5q35 0 61 -25.5t26 -61.5t-26 -62t-61 -26zM158 -88q0 -14 9 -20t25 -1t35 20v-95q-65 -30 -117 -0.5t-52 92.5q0 49 40 92h-27v500h150v-500q-28 -19 -45.5 -43.5t-17.5 -44.5z" />
    <glyph glyph-name="Idotaccent" unicode="&#x130;" horiz-adv-x="332" 
d="M167 730q-37 0 -63 25.5t-26 62.5q0 36 26 61.5t63 25.5q35 0 61 -25.5t26 -61.5t-26 -62t-61 -26zM91 680h150v-680h-150v680z" />
    <glyph glyph-name="dotlessi" unicode="&#x131;" horiz-adv-x="292" 
d="M71 500h150v-500h-150v500z" />
    <glyph glyph-name="Kcommaaccent" unicode="&#x136;" horiz-adv-x="698" 
d="M399 387l290 -387h-177l-217 280l-63 -63v-217h-148v680h148v-274l264 274h191zM263 -279l40 219h140l-93 -219h-87z" />
    <glyph glyph-name="kcommaaccent" unicode="&#x137;" horiz-adv-x="582" 
d="M379 305l198 -305h-171l-133 198l-60 -60v-138h-145v700h145v-381l173 181h186zM190 -279l40 219h140l-93 -219h-87z" />
    <glyph glyph-name="Lacute" unicode="&#x139;" horiz-adv-x="584" 
d="M307 844l-95 -103h-103l67 167zM234 142h318v-142h-468v680h150v-538z" />
    <glyph glyph-name="lacute" unicode="&#x13a;" horiz-adv-x="300" 
d="M164 928l131 -64l-95 -103h-103zM75 700h150v-700h-150v700z" />
    <glyph glyph-name="Lcommaaccent" unicode="&#x13b;" horiz-adv-x="584" 
d="M234 142h318v-142h-468v680h150v-538zM211 -279l40 219h140l-93 -219h-87z" />
    <glyph glyph-name="lcommaaccent" unicode="&#x13c;" horiz-adv-x="300" 
d="M75 700h150v-700h-150v700zM90 -60h140l-93 -219h-87z" />
    <glyph glyph-name="Lcaron" unicode="&#x13d;" horiz-adv-x="584" 
d="M562 700l-99 -297h-85l48 297h136zM234 680v-538h318v-142h-468v680h150z" />
    <glyph glyph-name="lcaron" unicode="&#x13e;" horiz-adv-x="440" 
d="M75 700h150v-700h-150v700zM292 700h129l-85 -297h-80z" />
    <glyph glyph-name="Lslash" unicode="&#x141;" horiz-adv-x="584" 
d="M234 142h318v-142h-468v228l-62 -36l-60 104l122 70v314h150v-227l75 43l60 -104l-135 -78v-172z" />
    <glyph glyph-name="lslash" unicode="&#x142;" horiz-adv-x="300" 
d="M326 404l-101 -58v-346h-150v259l-48 -28l-52 90l100 58v321h150v-234l49 28z" />
    <glyph glyph-name="Nacute" unicode="&#x143;" horiz-adv-x="760" 
d="M525 844l-95 -103h-103l67 167zM529 680h147v-680h-122l-323 422v-422h-147v680h121l324 -423v423z" />
    <glyph glyph-name="nacute" unicode="&#x144;" horiz-adv-x="612" 
d="M449 664l-95 -103h-103l67 167zM359 516q84 0 136.5 -65t52.5 -160v-291h-145v261q0 51 -25 83t-66 32q-42 0 -71 -32.5t-29 -82.5v-261h-144v500h144v-54q57 70 147 70z" />
    <glyph glyph-name="Ncommaaccent" unicode="&#x145;" horiz-adv-x="760" 
d="M529 680h147v-680h-122l-323 422v-422h-147v680h121l324 -423v423zM280 -279l40 219h140l-93 -219h-87z" />
    <glyph glyph-name="ncommaaccent" unicode="&#x146;" horiz-adv-x="612" 
d="M359 516q84 0 136.5 -65t52.5 -160v-291h-145v261q0 51 -25 83t-66 32q-42 0 -71 -32.5t-29 -82.5v-261h-144v500h144v-54q57 70 147 70zM204 -279l40 219h140l-93 -219h-87z" />
    <glyph glyph-name="Ncaron" unicode="&#x147;" horiz-adv-x="760" 
d="M436 740h-113l-104 111l56 55l105 -75l104 75l56 -55zM529 680h147v-680h-122l-323 422v-422h-147v680h121l324 -423v423z" />
    <glyph glyph-name="ncaron" unicode="&#x148;" horiz-adv-x="612" 
d="M360 560h-113l-104 111l56 55l105 -75l104 75l56 -55zM359 516q84 0 136.5 -65t52.5 -160v-291h-145v261q0 51 -25 83t-66 32q-42 0 -71 -32.5t-29 -82.5v-261h-144v500h144v-54q57 70 147 70z" />
    <glyph glyph-name="Eng" unicode="&#x14a;" horiz-adv-x="760" 
d="M529 680h147v-710q0 -88 -41 -129t-129 -41h-95v135h64q29 0 42 14t13 46v36l-299 391v-422h-147v680h121l324 -423v423z" />
    <glyph glyph-name="eng" unicode="&#x14b;" horiz-adv-x="612" 
d="M359 516q84 0 136.5 -65t52.5 -160v-321q0 -88 -41 -129t-129 -41h-95v135h65q29 0 42 14t13 46v266q0 51 -25 83t-66 32q-42 0 -71 -32.5t-29 -82.5v-261h-144v500h144v-54q57 70 147 70z" />
    <glyph glyph-name="Omacron" unicode="&#x14c;" horiz-adv-x="817" 
d="M234 851h350v-100h-350v100zM410 -16q-149 0 -253 103.5t-104 252.5t104 252.5t253 103.5q147 0 250.5 -104t103.5 -252t-103.5 -252t-250.5 -104zM410 131q86 0 144 60.5t58 148.5t-58 148.5t-144 60.5q-87 0 -146 -60t-59 -149t59 -149t146 -60z" />
    <glyph glyph-name="omacron" unicode="&#x14d;" horiz-adv-x="614" 
d="M135 670h350v-100h-350v100zM308 -15q-111 0 -188.5 77.5t-77.5 187.5t77.5 187.5t188.5 77.5q110 0 187 -77.5t77 -187.5t-77 -187.5t-187 -77.5zM308 126q49 0 82.5 36t33.5 88q0 53 -33 88.5t-83 35.5q-51 0 -84.5 -35.5t-33.5 -88.5t33.5 -88.5t84.5 -35.5z" />
    <glyph glyph-name="Ohungarumlaut" unicode="&#x150;" horiz-adv-x="817" 
d="M347 909l119 -64l-87 -103h-93zM506 909l119 -64l-87 -103h-93zM410 -16q-149 0 -253 103.5t-104 252.5t104 252.5t253 103.5q147 0 250.5 -104t103.5 -252t-103.5 -252t-250.5 -104zM410 131q86 0 144 60.5t58 148.5t-58 148.5t-144 60.5q-87 0 -146 -60t-59 -149
t59 -149t146 -60z" />
    <glyph glyph-name="ohungarumlaut" unicode="&#x151;" horiz-adv-x="614" 
d="M248 728l119 -64l-87 -103h-93zM407 728l119 -64l-87 -103h-93zM308 -15q-111 0 -188.5 77.5t-77.5 187.5t77.5 187.5t188.5 77.5q110 0 187 -77.5t77 -187.5t-77 -187.5t-187 -77.5zM308 126q49 0 82.5 36t33.5 88q0 53 -33 88.5t-83 35.5q-51 0 -84.5 -35.5
t-33.5 -88.5t33.5 -88.5t84.5 -35.5z" />
    <glyph glyph-name="OE" unicode="&#x152;" horiz-adv-x="1143" 
d="M1090 538h-321v-131h218v-134h-218v-131h321v-142h-468v54q-94 -70 -212 -70q-149 0 -253 103.5t-104 252.5t104 252.5t253 103.5q118 0 212 -70v54h468v-142zM410 131q86 0 144 60.5t58 148.5t-58 148.5t-144 60.5q-87 0 -146 -60t-59 -149t59 -149t146 -60z" />
    <glyph glyph-name="oe" unicode="&#x153;" horiz-adv-x="954" 
d="M905 197h-338q-1 -2 -1 -5q24 -79 106 -79q39 0 69.5 18.5t46.5 48.5l109 -62q-31 -60 -94.5 -96.5t-135.5 -36.5q-105 0 -176 74q-76 -74 -183 -74q-111 0 -188.5 77.5t-77.5 187.5t77.5 187.5t188.5 77.5q107 0 183 -74q71 74 179 74q96 0 161 -60t76 -163
q5 -45 -2 -95zM665 387q-76 0 -99 -79l1 -7h197q-5 39 -32 62.5t-67 23.5zM308 126q42 0 73.5 27t39.5 69q-1 9 -1 28t1 28q-8 43 -39 69.5t-74 26.5q-51 0 -84.5 -35.5t-33.5 -88.5t33.5 -88.5t84.5 -35.5z" />
    <glyph glyph-name="Racute" unicode="&#x154;" horiz-adv-x="679" 
d="M497 844l-95 -103h-103l67 167zM476 0l-145 252h-100v-252h-147v680h298q100 0 167 -61t67 -152q0 -64 -34.5 -115.5t-93.5 -77.5l157 -274h-169zM231 539v-153h151q37 0 62 22t25 54q0 34 -24.5 55.5t-62.5 21.5h-151z" />
    <glyph glyph-name="racute" unicode="&#x155;" horiz-adv-x="387" 
d="M332 664l-95 -103h-103l67 167zM212 444q56 67 148 67v-140q-72 0 -110 -29.5t-38 -80.5v-261h-144v500h144v-56z" />
    <glyph glyph-name="Rcommaaccent" unicode="&#x156;" horiz-adv-x="679" 
d="M488 274l157 -274h-169l-145 252h-100v-252h-147v680h298q100 0 167 -61t67 -152q0 -64 -34.5 -115.5t-93.5 -77.5zM231 539v-153h151q37 0 62 22t25 54q0 34 -24.5 55.5t-62.5 21.5h-151zM252 -279l40 219h140l-93 -219h-87z" />
    <glyph glyph-name="rcommaaccent" unicode="&#x157;" horiz-adv-x="387" 
d="M212 444q56 67 148 67v-140q-72 0 -110 -29.5t-38 -80.5v-261h-144v500h144v-56zM35 -279l40 219h140l-93 -219h-87z" />
    <glyph glyph-name="Rcaron" unicode="&#x158;" horiz-adv-x="679" 
d="M408 740h-113l-104 111l56 55l105 -75l104 75l56 -55zM476 0l-145 252h-100v-252h-147v680h298q100 0 167 -61t67 -152q0 -64 -34.5 -115.5t-93.5 -77.5l157 -274h-169zM231 539v-153h151q37 0 62 22t25 54q0 34 -24.5 55.5t-62.5 21.5h-151z" />
    <glyph glyph-name="rcaron" unicode="&#x159;" horiz-adv-x="387" 
d="M243 560h-113l-104 111l56 55l105 -75l104 75l56 -55zM212 444q56 67 148 67v-140q-72 0 -110 -29.5t-38 -80.5v-261h-144v500h144v-56z" />
    <glyph glyph-name="Sacute" unicode="&#x15a;" horiz-adv-x="638" 
d="M338 909l131 -64l-95 -103h-103zM588 205q0 -101 -74.5 -161t-195.5 -60q-112 0 -189.5 50.5t-92.5 129.5l144 52q11 -38 48 -63.5t99 -25.5q51 0 82 18t31 48q0 22 -20 37.5t-45.5 23.5t-65.5 17q-3 0 -5 0.5t-5 1t-5 1.5q-116 27 -172.5 74.5t-56.5 132.5q0 101 71 158
t179 57q102 0 175.5 -50t90.5 -130l-138 -52q-11 40 -46.5 65.5t-87.5 25.5q-43 0 -69 -17t-26 -44q0 -16 9 -28.5t31 -22t33.5 -13t41.5 -11.5q3 -1 4 -1.5t3 -1t4 -0.5q132 -34 190 -82t58 -129z" />
    <glyph glyph-name="sacute" unicode="&#x15b;" horiz-adv-x="493" 
d="M257 728l131 -64l-95 -103h-103zM452 153q0 -78 -62.5 -123t-149.5 -45q-81 0 -139.5 41t-74.5 108l119 36q8 -29 35 -47t67 -18q30 0 49.5 10t19.5 24q0 29 -94 51q-34 8 -56.5 16t-54 25t-48.5 47t-17 71q0 77 58 121.5t140 44.5q77 0 132 -41t70 -108l-115 -37
q-8 28 -31.5 47t-58.5 19q-25 0 -42 -10t-17 -25q0 -27 79 -45q94 -22 134 -50q57 -41 57 -112z" />
    <glyph glyph-name="Scedilla" unicode="&#x15e;" horiz-adv-x="638" 
d="M588 205q0 -85 -54.5 -142t-146.5 -73l-59 -148l-131 64l74 81q-94 10 -157.5 58.5t-77.5 118.5l144 52q11 -38 48 -63.5t99 -25.5q51 0 82 18t31 48q0 22 -20 37.5t-45.5 23.5t-65.5 17q-3 0 -5 0.5t-5 1t-5 1.5q-116 27 -172.5 74.5t-56.5 132.5q0 101 71 158t179 57
q102 0 175.5 -50t90.5 -130l-138 -52q-11 40 -46.5 65.5t-87.5 25.5q-43 0 -69 -17t-26 -44q0 -16 9 -28.5t31 -22t33.5 -13t41.5 -11.5q3 -1 4 -1.5t3 -1t4 -0.5q132 -34 190 -82t58 -129z" />
    <glyph glyph-name="scedilla" unicode="&#x15f;" horiz-adv-x="493" 
d="M452 153q0 -61 -39.5 -102.5t-102.5 -57.5l-61 -151l-131 64l76 83q-65 11 -110 49.5t-58 95.5l119 36q8 -29 35 -47t67 -18q30 0 49.5 10t19.5 24q0 29 -94 51q-34 8 -56.5 16t-54 25t-48.5 47t-17 71q0 77 58 121.5t140 44.5q77 0 132 -41t70 -108l-115 -37
q-8 28 -31.5 47t-58.5 19q-25 0 -42 -10t-17 -25q0 -27 79 -45q94 -22 134 -50q57 -41 57 -112z" />
    <glyph glyph-name="Scaron" unicode="&#x160;" horiz-adv-x="638" 
d="M380 741h-113l-104 111l56 55l105 -75l104 75l56 -55zM340 416q132 -34 190 -82t58 -129q0 -101 -74.5 -161t-195.5 -60q-112 0 -189.5 50.5t-92.5 129.5l144 52q11 -38 48 -63.5t99 -25.5q51 0 82 18t31 48q0 22 -20 37.5t-45.5 23.5t-65.5 17q-3 0 -5 0.5t-5 1t-5 1.5
q-116 27 -172.5 74.5t-56.5 132.5q0 101 71 158t179 57q102 0 175.5 -50t90.5 -130l-138 -52q-11 40 -46.5 65.5t-87.5 25.5q-43 0 -69 -17t-26 -44q0 -16 9 -28.5t31 -22t33.5 -13t41.5 -11.5q3 -1 4 -1.5t3 -1t4 -0.5z" />
    <glyph glyph-name="scaron" unicode="&#x161;" horiz-adv-x="493" 
d="M299 560h-113l-104 111l56 55l105 -75l104 75l56 -55zM261 315q94 -22 134 -50q57 -41 57 -112q0 -78 -62.5 -123t-149.5 -45q-81 0 -139.5 41t-74.5 108l119 36q8 -29 35 -47t67 -18q30 0 49.5 10t19.5 24q0 29 -94 51q-34 8 -56.5 16t-54 25t-48.5 47t-17 71
q0 77 58 121.5t140 44.5q77 0 132 -41t70 -108l-115 -37q-8 28 -31.5 47t-58.5 19q-25 0 -42 -10t-17 -25q0 -27 79 -45z" />
    <glyph glyph-name="uni0162" unicode="&#x162;" horiz-adv-x="590" 
d="M556 680v-142h-186v-538h-8l-67 -167l-131 64l95 103h-39v538h-186v142h522z" />
    <glyph glyph-name="uni0163" unicode="&#x163;" horiz-adv-x="423" 
d="M379 370h-115v-175q0 -32 13 -46t42 -14h60v-135h-61l-63 -158l-131 64l94 102q-99 28 -99 162v200h-90v130h90v120l145 45v-165h115v-130z" />
    <glyph glyph-name="Tcaron" unicode="&#x164;" horiz-adv-x="590" 
d="M351 740h-113l-104 111l56 55l105 -75l104 75l56 -55zM556 680v-142h-186v-538h-150v538h-186v142h522z" />
    <glyph glyph-name="tcaron" unicode="&#x165;" horiz-adv-x="423" 
d="M453 780l-89 -239h-75l43 239h121zM264 665v-165h115v-130h-115v-175q0 -32 13 -46t42 -14h60v-135h-90q-89 0 -129.5 41t-40.5 129v200h-90v130h90v120z" />
    <glyph glyph-name="Tbar" unicode="&#x166;" horiz-adv-x="590" 
d="M556 538h-186v-112h129v-120h-129v-306h-150v306h-121v120h121v112h-186v142h522v-142z" />
    <glyph glyph-name="tbar" unicode="&#x167;" horiz-adv-x="423" 
d="M379 370h-115v-68h113v-105h-113v-2q0 -32 13 -46t42 -14h60v-135h-90q-89 0 -129.5 41t-40.5 129v27h-88v105h88v68h-90v130h90v120l145 45v-165h115v-130z" />
    <glyph glyph-name="Umacron" unicode="&#x16a;" horiz-adv-x="734" 
d="M192 850h350v-100h-350v100zM511 680h150v-380q0 -142 -81.5 -229t-212.5 -87t-212.5 87t-81.5 229v380h150v-378q0 -79 39.5 -126.5t104.5 -47.5t104.5 47.5t39.5 126.5v378z" />
    <glyph glyph-name="umacron" unicode="&#x16b;" horiz-adv-x="612" 
d="M479 670v-100h-350v100h350zM400 500h144v-500h-144v54q-57 -70 -147 -70q-84 0 -136.5 65t-52.5 160v291h145v-261q0 -51 25 -83t66 -32q42 0 71 32.5t29 82.5v261z" />
    <glyph glyph-name="Uring" unicode="&#x16e;" horiz-adv-x="734" 
d="M375 672q-43 0 -73.5 30t-30.5 73q0 42 30.5 72t73.5 30q42 0 72.5 -30t30.5 -72q0 -43 -30.5 -73t-72.5 -30zM375 731q18 0 31 13t13 31q0 17 -13 30t-31 13t-31.5 -13t-13.5 -30q0 -18 13.5 -31t31.5 -13zM511 680h150v-380q0 -142 -81.5 -229t-212.5 -87t-212.5 87
t-81.5 229v380h150v-378q0 -79 39.5 -126.5t104.5 -47.5t104.5 47.5t39.5 126.5v378z" />
    <glyph glyph-name="uring" unicode="&#x16f;" horiz-adv-x="612" 
d="M310 522q-43 0 -73.5 30t-30.5 73q0 42 30.5 72t73.5 30q42 0 72.5 -30t30.5 -72q0 -43 -30.5 -73t-72.5 -30zM310 668q-18 0 -31.5 -13t-13.5 -30q0 -18 13.5 -31t31.5 -13t31 13t13 31q0 17 -13 30t-31 13zM400 500h144v-500h-144v54q-57 -70 -147 -70q-84 0 -136.5 65
t-52.5 160v291h145v-261q0 -51 25 -83t66 -32q42 0 71 32.5t29 82.5v261z" />
    <glyph glyph-name="Uhungarumlaut" unicode="&#x170;" horiz-adv-x="734" 
d="M305 908l119 -64l-87 -103h-93zM464 908l119 -64l-87 -103h-93zM511 680h150v-380q0 -142 -81.5 -229t-212.5 -87t-212.5 87t-81.5 229v380h150v-378q0 -79 39.5 -126.5t104.5 -47.5t104.5 47.5t39.5 126.5v378z" />
    <glyph glyph-name="uhungarumlaut" unicode="&#x171;" horiz-adv-x="612" 
d="M361 664l-87 -103h-93l61 167zM433 561h-93l61 167l119 -64zM400 500h144v-500h-144v54q-57 -70 -147 -70q-84 0 -136.5 65t-52.5 160v291h145v-261q0 -51 25 -83t66 -32q42 0 71 32.5t29 82.5v261z" />
    <glyph glyph-name="Uogonek" unicode="&#x172;" horiz-adv-x="734" 
d="M511 680h150v-380q0 -97 -39.5 -170.5t-110.5 -111.5q-28 -19 -45 -43t-17 -44q0 -14 9 -20t25 -1t35 20v-95q-65 -30 -117 -0.5t-52 92.5q0 27 14 57q-130 2 -210 88.5t-80 227.5v380h150v-378q0 -79 39.5 -126.5t104.5 -47.5t104.5 47.5t39.5 126.5v378z" />
    <glyph glyph-name="uogonek" unicode="&#x173;" horiz-adv-x="612" 
d="M481 -88q0 -14 9 -20t25 -1t35 20v-95q-65 -30 -117 -0.5t-52 92.5q0 49 40 92h-21v54q-57 -70 -147 -70q-84 0 -136.5 65t-52.5 160v291h145v-261q0 -51 25 -83t66 -32q42 0 71 32.5t29 82.5v261h144v-500q-28 -19 -45.5 -43.5t-17.5 -44.5z" />
    <glyph glyph-name="Wcircumflex" unicode="&#x174;" horiz-adv-x="1088" 
d="M545 789l-105 -75l-56 55l104 111h113l104 -111l-56 -55zM902 680h156l-201 -680h-174l-139 463l-139 -463h-174l-201 680h157l132 -476l144 476h162l144 -477z" />
    <glyph glyph-name="wcircumflex" unicode="&#x175;" horiz-adv-x="878" 
d="M437 609l-105 -75l-56 55l104 111h113l104 -111l-56 -55zM710 500h144l-150 -500h-166l-99 330l-99 -330h-166l-150 500h144l91 -328l99 328h162l99 -328z" />
    <glyph glyph-name="Ycircumflex" unicode="&#x176;" horiz-adv-x="712" 
d="M361 789l-105 -75l-56 55l104 111h113l104 -111l-56 -55zM700 680l-270 -404v-276h-148v275l-270 405h175l169 -261l169 261h175z" />
    <glyph glyph-name="ycircumflex" unicode="&#x177;" horiz-adv-x="600" 
d="M300 609l-105 -75l-56 55l104 111h113l104 -111l-56 -55zM427 500h151l-289 -700h-154l95 228l-210 472h157l129 -291z" />
    <glyph glyph-name="Ydieresis" unicode="&#x178;" horiz-adv-x="712" 
d="M249 730q-37 0 -63 25.5t-26 62.5q0 36 26 61.5t63 25.5q35 0 61 -25.5t26 -61.5t-26 -62t-61 -26zM475 730q-37 0 -63 25.5t-26 62.5q0 36 26 61.5t63 25.5q35 0 61 -25.5t26 -61.5t-26 -62t-61 -26zM700 680l-270 -404v-276h-148v275l-270 405h175l169 -261l169 261
h175z" />
    <glyph glyph-name="Zacute" unicode="&#x179;" horiz-adv-x="678" 
d="M485 844l-95 -103h-103l67 167zM273 142h343v-142h-553v111l324 427h-324v142h534v-111z" />
    <glyph glyph-name="zacute" unicode="&#x17a;" horiz-adv-x="494" 
d="M394 664l-95 -103h-103l67 167zM246 139h201v-139h-397v111l196 250h-196v139h392v-111z" />
    <glyph glyph-name="Zdotaccent" unicode="&#x17b;" horiz-adv-x="678" 
d="M341 730q-37 0 -63 25.5t-26 62.5q0 36 26 61.5t63 25.5q35 0 61 -25.5t26 -61.5t-26 -62t-61 -26zM273 142h343v-142h-553v111l324 427h-324v142h534v-111z" />
    <glyph glyph-name="zdotaccent" unicode="&#x17c;" horiz-adv-x="494" 
d="M250 550q-37 0 -63 25.5t-26 62.5q0 36 26 61.5t63 25.5q35 0 61 -25.5t26 -61.5t-25.5 -62t-61.5 -26zM246 139h201v-139h-397v111l196 250h-196v139h392v-111z" />
    <glyph glyph-name="Zcaron" unicode="&#x17d;" horiz-adv-x="678" 
d="M396 740h-113l-104 111l56 55l105 -75l104 75l56 -55zM273 142h343v-142h-553v111l324 427h-324v142h534v-111z" />
    <glyph glyph-name="zcaron" unicode="&#x17e;" horiz-adv-x="494" 
d="M305 560h-113l-104 111l56 55l105 -75l104 75l56 -55zM246 139h201v-139h-397v111l196 250h-196v139h392v-111z" />
    <glyph glyph-name="Scommaaccent" unicode="&#x218;" horiz-adv-x="638" 
d="M588 205q0 -101 -74.5 -161t-195.5 -60q-112 0 -189.5 50.5t-92.5 129.5l144 52q11 -38 48 -63.5t99 -25.5q51 0 82 18t31 48q0 22 -20 37.5t-45.5 23.5t-65.5 17q-3 0 -5 0.5t-5 1t-5 1.5q-116 27 -172.5 74.5t-56.5 132.5q0 101 71 158t179 57q102 0 175.5 -50
t90.5 -130l-138 -52q-11 40 -46.5 65.5t-87.5 25.5q-43 0 -69 -17t-26 -44q0 -16 9 -28.5t31 -22t33.5 -13t41.5 -11.5q3 -1 4 -1.5t3 -1t4 -0.5q132 -34 190 -82t58 -129zM262 -60h140l-93 -219h-87z" />
    <glyph glyph-name="scommaaccent" unicode="&#x219;" horiz-adv-x="493" 
d="M452 153q0 -78 -62.5 -123t-149.5 -45q-81 0 -139.5 41t-74.5 108l119 36q8 -29 35 -47t67 -18q30 0 49.5 10t19.5 24q0 29 -94 51q-34 8 -56.5 16t-54 25t-48.5 47t-17 71q0 77 58 121.5t140 44.5q77 0 132 -41t70 -108l-115 -37q-8 28 -31.5 47t-58.5 19q-25 0 -42 -10
t-17 -25q0 -27 79 -45q94 -22 134 -50q57 -41 57 -112zM183 -60h140l-93 -219h-87z" />
    <glyph glyph-name="uni021A" unicode="&#x21a;" horiz-adv-x="590" 
d="M556 680v-142h-186v-538h-150v538h-186v142h522zM189 -288l40 219h140l-93 -219h-87z" />
    <glyph glyph-name="uni021B" unicode="&#x21b;" horiz-adv-x="423" 
d="M379 370h-115v-175q0 -32 13 -46t42 -14h60v-135h-90q-89 0 -129.5 41t-40.5 129v200h-90v130h90v120l145 45v-165h115v-130zM149 -279l40 219h140l-93 -219h-87z" />
    <glyph glyph-name="gravecomb" unicode="&#x300;" 
d="M-297 728l67 -167h-103l-95 103z" />
    <glyph glyph-name="acutecomb" unicode="&#x301;" 
d="M-285 728l131 -64l-95 -103h-103z" />
    <glyph glyph-name="uni0302" unicode="&#x302;" 
d="M-139 589l-56 -55l-104 75l-105 -75l-56 55l104 111h113z" />
    <glyph glyph-name="tildecomb" unicode="&#x303;" 
d="M-173 698h82q7 -61 -32 -101.5t-94 -40.5q-14 0 -28 4t-19.5 6.5t-21.5 12.5t-17 11q-28 16 -42 16q-28 0 -28 -40h-82q-7 61 31.5 101.5t92.5 40.5q38 0 90 -34q25 -16 39 -16q13 0 21 11t8 29z" />
    <glyph glyph-name="uni0304" unicode="&#x304;" 
d="M-480 670h350v-100h-350v100z" />
    <glyph glyph-name="uni0306" unicode="&#x306;" 
d="M-231 700h93q0 -63 -45 -103.5t-114 -40.5t-114 40.5t-45 103.5h93q0 -24 17 -37.5t49 -13.5t49 13.5t17 37.5z" />
    <glyph glyph-name="uni0307" unicode="&#x307;" 
d="M-272 550q-37 0 -63 25.5t-26 62.5q0 36 26 61.5t63 25.5q35 0 61 -25.5t26 -61.5t-25.5 -62t-61.5 -26z" />
    <glyph glyph-name="uni0308" unicode="&#x308;" 
d="M-385 550q-37 0 -63 25.5t-26 62.5q0 36 26 61.5t63 25.5q35 0 61 -25.5t26 -61.5t-26 -62t-61 -26zM-159 550q-37 0 -63 25.5t-26 62.5q0 36 26 61.5t63 25.5q35 0 61 -25.5t26 -61.5t-26 -62t-61 -26z" />
    <glyph glyph-name="uni030A" unicode="&#x30a;" 
d="M-272 522q-43 0 -73.5 30t-30.5 73q0 42 30.5 72t73.5 30q42 0 72.5 -30t30.5 -72q0 -43 -30.5 -73t-72.5 -30zM-272 581q18 0 31 13t13 31q0 17 -13 30t-31 13t-31.5 -13t-13.5 -30q0 -18 13.5 -31t31.5 -13z" />
    <glyph glyph-name="uni030B" unicode="&#x30b;" 
d="M-444 728l119 -64l-87 -103h-93zM-285 728l119 -64l-87 -103h-93z" />
    <glyph glyph-name="uni030C" unicode="&#x30c;" 
d="M-195 726l56 -55l-104 -111h-113l-104 111l56 55l105 -75z" />
    <glyph glyph-name="uni0312" unicode="&#x312;" 
d="M-401 545h-140l93 219h87z" />
    <glyph glyph-name="uni0326" unicode="&#x326;" 
d="M-525 -60h140l-93 -219h-87z" />
    <glyph glyph-name="uni0327" unicode="&#x327;" 
d="M-300 -158l-131 64l95 103h103z" />
    <glyph glyph-name="uni0328" unicode="&#x328;" 
d="M-139 -184q-65 -30 -117 -0.5t-52 92.5q0 49 40 92h123q-28 -19 -45.5 -43.5t-17.5 -44.5q0 -14 9 -20t25 -1t35 20v-95z" />
    <glyph glyph-name="uni0335" unicode="&#x335;" 
d="M-530 385h400v-120h-400v120z" />
    <glyph glyph-name="uni0336" unicode="&#x336;" 
d="M-655 363h710v-100h-710v100z" />
    <glyph glyph-name="uni0337" unicode="&#x337;" 
d="M-530 513h400v-120h-400v120z" />
    <glyph glyph-name="uni0338" unicode="&#x338;" 
d="M-366 720h125v-940h-125v940z" />
    <glyph glyph-name="pi" unicode="&#x3c0;" horiz-adv-x="695" 
d="M667 407h-83v-245q0 -104 15 -162h-137q-19 26 -19 151v256h-166q-4 -98 -25 -223.5t-48 -183.5h-137q27 76 48 198.5t23 208.5q-80 0 -119 -11l-15 84q44 34 187 34h488z" />
    <glyph glyph-name="Wgrave" unicode="&#x1e80;" horiz-adv-x="1088" 
d="M614 741h-103l-95 103l131 64zM902 680h156l-201 -680h-174l-139 463l-139 -463h-174l-201 680h157l132 -476l144 476h162l144 -477z" />
    <glyph glyph-name="wgrave" unicode="&#x1e81;" horiz-adv-x="878" 
d="M506 561h-103l-95 103l131 64zM710 500h144l-150 -500h-166l-99 330l-99 -330h-166l-150 500h144l91 -328l99 328h162l99 -328z" />
    <glyph glyph-name="Wacute" unicode="&#x1e82;" horiz-adv-x="1088" 
d="M690 844l-95 -103h-103l67 167zM902 680h156l-201 -680h-174l-139 463l-139 -463h-174l-201 680h157l132 -476l144 476h162l144 -477z" />
    <glyph glyph-name="wacute" unicode="&#x1e83;" horiz-adv-x="878" 
d="M582 664l-95 -103h-103l67 167zM710 500h144l-150 -500h-166l-99 330l-99 -330h-166l-150 500h144l91 -328l99 328h162l99 -328z" />
    <glyph glyph-name="Wdieresis" unicode="&#x1e84;" horiz-adv-x="1088" 
d="M433 730q-37 0 -63 25.5t-26 62.5q0 36 26 61.5t63 25.5q35 0 61 -25.5t26 -61.5t-26 -62t-61 -26zM659 730q-37 0 -63 25.5t-26 62.5q0 36 26 61.5t63 25.5q35 0 61 -25.5t26 -61.5t-26 -62t-61 -26zM902 680h156l-201 -680h-174l-139 463l-139 -463h-174l-201 680h157
l132 -476l144 476h162l144 -477z" />
    <glyph glyph-name="wdieresis" unicode="&#x1e85;" horiz-adv-x="878" 
d="M325 550q-37 0 -63 25.5t-26 62.5q0 36 26 61.5t63 25.5q35 0 61 -25.5t26 -61.5t-26 -62t-61 -26zM551 550q-37 0 -63 25.5t-26 62.5q0 36 26 61.5t63 25.5q35 0 61 -25.5t26 -61.5t-26 -62t-61 -26zM710 500h144l-150 -500h-166l-99 330l-99 -330h-166l-150 500h144
l91 -328l99 328h162l99 -328z" />
    <glyph glyph-name="Ygrave" unicode="&#x1ef2;" horiz-adv-x="712" 
d="M430 741h-103l-95 103l131 64zM700 680l-270 -404v-276h-148v275l-270 405h175l169 -261l169 261h175z" />
    <glyph glyph-name="ygrave" unicode="&#x1ef3;" horiz-adv-x="600" 
d="M369 561h-103l-95 103l131 64zM427 500h151l-289 -700h-154l95 228l-210 472h157l129 -291z" />
    <glyph glyph-name="endash" unicode="&#x2013;" horiz-adv-x="610" 
d="M65 215v140h480v-140h-480z" />
    <glyph glyph-name="emdash" unicode="&#x2014;" horiz-adv-x="903" 
d="M65 215v140h773v-140h-773z" />
    <glyph glyph-name="quoteleft" unicode="&#x2018;" horiz-adv-x="313" 
d="M168 566q37 0 61 -24.5t24 -60.5q0 -37 -26 -62.5t-62 -25.5q-45 0 -75 36t-30 90q0 81 56 136t133 55v-78q-30 -1 -53 -19t-34 -47h6z" />
    <glyph glyph-name="quoteright" unicode="&#x2019;" horiz-adv-x="313" 
d="M148 710q45 0 75 -36t30 -90q0 -81 -56 -136t-133 -55v78q30 1 53 19t34 47h-6q-37 0 -61 24.5t-24 60.5q0 37 26 62.5t62 25.5z" />
    <glyph glyph-name="quotesinglbase" unicode="&#x201a;" horiz-adv-x="267" 
d="M98 155h150l-136 -297h-93z" />
    <glyph glyph-name="quotedblleft" unicode="&#x201c;" horiz-adv-x="546" 
d="M168 566q37 0 61 -24.5t24 -60.5q0 -37 -26 -62.5t-62 -25.5q-45 0 -75 36t-30 90q0 81 56 136t133 55v-78q-30 -1 -53 -19t-34 -47h6zM401 566q37 0 61 -24.5t24 -60.5q0 -37 -26 -62.5t-62 -25.5q-45 0 -75 36t-30 90q0 81 56 136t133 55v-78q-30 -1 -53 -19t-34 -47h6
z" />
    <glyph glyph-name="quotedblright" unicode="&#x201d;" horiz-adv-x="566" 
d="M148 710q45 0 75 -36t30 -90q0 -81 -56 -136t-133 -55v78q30 1 53 19t34 47h-6q-37 0 -61 24.5t-24 60.5q0 37 26 62.5t62 25.5zM401 710q45 0 75 -36t30 -90q0 -81 -56 -136t-133 -55v78q30 1 53 19t34 47h-6q-37 0 -61 24.5t-24 60.5q0 37 26 62.5t62 25.5z" />
    <glyph glyph-name="quotedblbase" unicode="&#x201e;" horiz-adv-x="468" 
d="M98 155h150l-136 -297h-93zM299 155h150l-136 -297h-93z" />
    <glyph glyph-name="dagger" unicode="&#x2020;" horiz-adv-x="608" 
d="M239 710h130l-14 -216l211 11v-115l-211 11l14 -453h-130l12 453l-210 -11v115l210 -11z" />
    <glyph glyph-name="daggerdbl" unicode="&#x2021;" horiz-adv-x="608" 
d="M240 710h127l-11 -195l210 11v-114l-210 11v-184l210 11v-114l-210 11l11 -199h-127l9 199l-208 -11v114l209 -11v184l-209 -11v114l209 -11z" />
    <glyph glyph-name="bullet" unicode="&#x2022;" horiz-adv-x="512" 
d="M257 501q71 0 123 -51.5t52 -123.5q0 -74 -52 -125.5t-123 -51.5t-124 52t-53 125q0 72 53 123.5t124 51.5z" />
    <glyph glyph-name="ellipsis" unicode="&#x2026;" horiz-adv-x="824" 
d="M139 178q39 0 67.5 -28t28.5 -68t-28.5 -68.5t-67.5 -28.5q-41 0 -69.5 28.5t-28.5 68.5t28.5 68t69.5 28zM413 178q39 0 67.5 -28t28.5 -68t-28.5 -68.5t-67.5 -28.5q-41 0 -69.5 28.5t-28.5 68.5t28.5 68t69.5 28zM687 178q39 0 67.5 -28t28.5 -68t-28.5 -68.5
t-67.5 -28.5q-41 0 -69.5 28.5t-28.5 68.5t28.5 68t69.5 28z" />
    <glyph glyph-name="perthousand" unicode="&#x2030;" horiz-adv-x="1317" 
d="M632 700l89 -58l-434 -662l-89 58zM221 696q73 0 126 -52.5t53 -126.5q0 -76 -53 -128.5t-126 -52.5t-127 53t-54 128q0 74 54 126.5t127 52.5zM221 607q-37 0 -64.5 -26.5t-27.5 -63.5q0 -38 27.5 -65t64.5 -27t63.5 26.5t26.5 65.5q0 37 -27 63.5t-63 26.5zM703 344
q73 0 126 -52.5t53 -126.5q0 -76 -53 -128.5t-126 -52.5t-127 53t-54 128q0 74 54 126.5t127 52.5zM1098 344q73 0 126 -52.5t53 -126.5q0 -76 -53 -128.5t-126 -52.5t-127 53t-54 128q0 74 54 126.5t127 52.5zM703 255q-37 0 -64.5 -26.5t-27.5 -63.5q0 -38 27.5 -65
t64.5 -27t63.5 26.5t26.5 65.5q0 37 -27 63.5t-63 26.5zM1098 255q-37 0 -64.5 -26.5t-27.5 -63.5q0 -38 27.5 -65t64.5 -27q36 0 63 26.5t27 65.5q0 37 -27 63.5t-63 26.5z" />
    <glyph glyph-name="guilsinglleft" unicode="&#x2039;" horiz-adv-x="462" 
d="M387 465l-166 -185l166 -185h-161l-166 185l166 185h161z" />
    <glyph glyph-name="guilsinglright" unicode="&#x203a;" horiz-adv-x="462" 
d="M236 465l166 -185l-166 -185h-161l166 185l-166 185h161z" />
    <glyph glyph-name="fraction" unicode="&#x2044;" horiz-adv-x="175" 
d="M274 700l69 -45l-442 -675l-69 45z" />
    <glyph glyph-name="Euro" unicode="&#x20ac;" horiz-adv-x="607" 
d="M523 549q-151 0 -222 -84h182v-100h-224q-1 -8 -1 -25t1 -25h224v-100h-182q71 -84 222 -84v-147q-147 0 -250 63t-144 168h-103v100h81q-1 8 -1 25t1 25h-81v100h103q41 105 144 168t250 63v-147z" />
    <glyph glyph-name="afii61289" unicode="&#x2113;" horiz-adv-x="604" 
d="M518 192l60 -59q-86 -145 -248 -145q-87 0 -137.5 42.5t-65.5 115.5q0 6 -1 9q-9 -6 -28 -19.5t-30 -20.5l-38 70q10 7 29.5 20.5t35 24.5t28.5 21v233q0 137 55.5 201.5t147.5 64.5q82 0 125 -50.5t43 -125.5q0 -88 -59.5 -171.5t-178.5 -179.5l1 -23q2 -49 32 -77
t74 -28q45 0 86 28t69 69zM256 513v-175q140 137 140 235q0 88 -64 88q-31 0 -53.5 -35.5t-22.5 -112.5z" />
    <glyph glyph-name="trademark" unicode="&#x2122;" horiz-adv-x="591" 
d="M167 700v-73h-78v-229h-76v229h-78v73h232zM571 700v-302h-75v174l-67 -174h-75l-65 171v-171h-76v302h103l76 -199l76 199h103z" />
    <glyph glyph-name="Omega" unicode="&#x2126;" horiz-adv-x="854" 
d="M213 103v3q-64 44 -107 113t-43 160q0 134 103 226t263 92q162 0 261.5 -94t99.5 -222q0 -92 -43 -161t-110 -114v-3h168v-103h-318v79q162 89 162 278q0 96 -60 166.5t-159 70.5t-162 -68.5t-63 -173.5q0 -95 46 -167.5t116 -105.5v-79h-319v103h165z" />
    <glyph glyph-name="estimated" unicode="&#x212e;" horiz-adv-x="858" 
d="M824 330h-640q-5 0 -5 -4v-194q0 -12 8 -22q102 -105 242 -105q153 0 255 118h57q-54 -64 -136.5 -101t-176.5 -37q-164 0 -279.5 104t-115.5 251t116 251.5t279 104.5q164 0 280 -104.5t116 -251.5v-10zM679 355v195q0 14 -10 23q-103 101 -240 101q-139 0 -241 -104
q-9 -9 -9 -24v-191q0 -6 5 -6h491q4 0 4 6z" />
    <glyph glyph-name="uni2150" unicode="&#x2150;" horiz-adv-x="1025" 
d="M661 700l69 -45l-442 -675l-69 45zM272 240h-107v302q-43 -34 -120 -33v99q70 4 96 21.5t24 59.5h107v-449zM657 449h323v-79l-189 -370h-120l180 347h-194v102z" />
    <glyph glyph-name="uni2151" unicode="&#x2151;" horiz-adv-x="996" 
d="M661 700l69 -45l-442 -675l-69 45zM272 240h-107v302q-43 -34 -120 -33v99q70 4 96 21.5t24 59.5h107v-449zM775 460q80 0 128 -61.5t48 -164.5q0 -107 -55 -175.5t-141 -68.5q-45 0 -84 18.5t-62 51.5l74 63q26 -34 71 -34q30 0 53 21t34 57q-32 -23 -76 -23
q-66 0 -112 45.5t-46 110.5q0 67 49 113.5t119 46.5zM775 235q26 0 44 18t18 44q0 27 -17.5 44.5t-44.5 17.5q-26 0 -44.5 -18t-18.5 -44q0 -25 18.5 -43.5t44.5 -18.5z" />
    <glyph glyph-name="uni2152" unicode="&#x2152;" horiz-adv-x="1385" 
d="M661 700l69 -45l-442 -675l-69 45zM272 240h-107v302q-43 -34 -120 -33v99q70 4 96 21.5t24 59.5h107v-449zM1152 465q83 0 135.5 -67t52.5 -173t-52.5 -173t-135.5 -67q-84 0 -136 66.5t-52 173.5t52 173.5t136 66.5zM647 368q70 4 96 21.5t24 59.5h107v-449h-107v302
q-43 -34 -120 -33v99zM1152 89q38 0 59 36t21 100t-21 100t-59 36q-37 0 -58.5 -36.5t-21.5 -99.5t21.5 -99.5t58.5 -36.5z" />
    <glyph glyph-name="uni2153" unicode="&#x2153;" horiz-adv-x="996" 
d="M661 700l69 -45l-442 -675l-69 45zM272 240h-107v302q-43 -34 -120 -33v99q70 4 96 21.5t24 59.5h107v-449zM891 229q60 -35 60 -100q0 -59 -48 -99t-120 -40q-66 0 -114 36.5t-62 98.5l101 29q4 -29 24 -45.5t50 -16.5q28 0 46 13t18 33q0 21 -21 33.5t-58 12.5h-52v89
h52q69 0 69 43q0 18 -15.5 30t-40.5 12q-57 0 -67 -62l-101 28q14 62 60 99t110 37q68 0 114.5 -39t46.5 -97q0 -60 -52 -95z" />
    <glyph glyph-name="uni2154" unicode="&#x2154;" horiz-adv-x="1061" 
d="M726 700l69 -45l-442 -675l-69 45zM52 319l179 190q22 23 22 46q0 17 -14.5 29.5t-35.5 12.5q-26 0 -42.5 -20.5t-14.5 -48.5l-101 17q1 64 47 109t111 45q64 0 109.5 -41.5t45.5 -99.5q0 -64 -57 -126l-88 -90h154v-102h-315v79zM956 229q60 -35 60 -100q0 -59 -48 -99
t-120 -40q-66 0 -114 36.5t-62 98.5l101 29q4 -29 24 -45.5t50 -16.5q28 0 46 13t18 33q0 21 -21 33.5t-58 12.5h-52v89h52q69 0 69 43q0 18 -15.5 30t-40.5 12q-57 0 -67 -62l-101 28q14 62 60 99t110 37q68 0 114.5 -39t46.5 -97q0 -60 -52 -95z" />
    <glyph glyph-name="uni2155" unicode="&#x2155;" horiz-adv-x="996" 
d="M661 700l69 -45l-442 -675l-69 45zM272 240h-107v302q-43 -34 -120 -33v99q70 4 96 21.5t24 59.5h107v-449zM794 303q66 0 111.5 -44t45.5 -108q0 -66 -51 -113.5t-122 -47.5q-60 0 -107 37.5t-64 98.5l95 32q7 -29 28.5 -47.5t48.5 -18.5q28 0 47.5 17t19.5 42
q0 27 -19 44.5t-48 17.5q-40 0 -72 -37l-82 41l38 232h265v-102h-186l-8 -54q26 10 60 10z" />
    <glyph glyph-name="uni2156" unicode="&#x2156;" horiz-adv-x="1061" 
d="M726 700l69 -45l-442 -675l-69 45zM52 319l179 190q22 23 22 46q0 17 -14.5 29.5t-35.5 12.5q-26 0 -42.5 -20.5t-14.5 -48.5l-101 17q1 64 47 109t111 45q64 0 109.5 -41.5t45.5 -99.5q0 -64 -57 -126l-88 -90h154v-102h-315v79zM859 303q66 0 111.5 -44t45.5 -108
q0 -66 -51 -113.5t-122 -47.5q-60 0 -107 37.5t-64 98.5l95 32q7 -29 28.5 -47.5t48.5 -18.5q28 0 47.5 17t19.5 42q0 27 -19 44.5t-48 17.5q-40 0 -72 -37l-82 41l38 232h265v-102h-186l-8 -54q26 10 60 10z" />
    <glyph glyph-name="uni2157" unicode="&#x2157;" horiz-adv-x="1043" 
d="M389 369q0 -59 -48 -99t-120 -40q-66 0 -114 36.5t-62 98.5l101 29q4 -29 24 -45.5t50 -16.5q28 0 46 13t18 33q0 21 -21 33.5t-58 12.5h-52v89h52q69 0 69 43q0 18 -15.5 30t-40.5 12q-57 0 -67 -62l-101 28q14 62 60 99t110 37q68 0 114.5 -39t46.5 -97q0 -60 -52 -95
q60 -35 60 -100zM708 700l69 -45l-442 -675l-69 45zM841 303q66 0 111.5 -44t45.5 -108q0 -66 -51 -113.5t-122 -47.5q-60 0 -107 37.5t-64 98.5l95 32q7 -29 28.5 -47.5t48.5 -18.5q28 0 47.5 17t19.5 42q0 27 -19 44.5t-48 17.5q-40 0 -72 -37l-82 41l38 232h265v-102
h-186l-8 -54q26 10 60 10z" />
    <glyph glyph-name="uni2158" unicode="&#x2158;" horiz-adv-x="1069" 
d="M734 700l69 -45l-442 -675l-69 45zM351 240h-101v94h-205v76l142 279h113l-135 -262h85v120h101v-120h64v-93h-64v-94zM867 303q66 0 111.5 -44t45.5 -108q0 -66 -51 -113.5t-122 -47.5q-60 0 -107 37.5t-64 98.5l95 32q7 -29 28.5 -47.5t48.5 -18.5q28 0 47.5 17
t19.5 42q0 27 -19 44.5t-48 17.5q-40 0 -72 -37l-82 41l38 232h265v-102h-186l-8 -54q26 10 60 10z" />
    <glyph glyph-name="uni2159" unicode="&#x2159;" horiz-adv-x="986" 
d="M661 700l69 -45l-442 -675l-69 45zM272 240h-107v302q-43 -34 -120 -33v99q70 4 96 21.5t24 59.5h107v-449zM783 306q66 0 112 -45.5t46 -110.5q0 -67 -49 -113.5t-119 -46.5q-80 0 -128 61.5t-48 164.5q0 107 55 175.5t141 68.5q45 0 83.5 -18.5t62.5 -52.5l-74 -62
q-26 34 -71 34q-30 0 -52.5 -20.5t-33.5 -56.5q31 22 75 22zM773 91q26 0 44.5 18t18.5 44q0 25 -18.5 43.5t-44.5 18.5t-44.5 -18t-18.5 -44t18.5 -44t44.5 -18z" />
    <glyph glyph-name="uni215A" unicode="&#x215a;" horiz-adv-x="1023" 
d="M698 700l69 -45l-442 -675l-69 45zM389 391q0 -66 -51 -113.5t-122 -47.5q-60 0 -107 37.5t-64 98.5l95 32q7 -29 28.5 -47.5t48.5 -18.5q28 0 47.5 17t19.5 42q0 27 -19 44.5t-48 17.5q-40 0 -72 -37l-82 41l38 232h265v-102h-186l-8 -54q26 10 60 10q66 0 111.5 -44
t45.5 -108zM820 306q66 0 112 -45.5t46 -110.5q0 -67 -49 -113.5t-119 -46.5q-80 0 -128 61.5t-48 164.5q0 107 55 175.5t141 68.5q45 0 83.5 -18.5t62.5 -52.5l-74 -62q-26 34 -71 34q-30 0 -52.5 -20.5t-33.5 -56.5q31 22 75 22zM810 91q26 0 44.5 18t18.5 44
q0 25 -18.5 43.5t-44.5 18.5t-44.5 -18t-18.5 -44t18.5 -44t44.5 -18z" />
    <glyph glyph-name="oneeighth" unicode="&#x215b;" horiz-adv-x="1001" 
d="M661 700l69 -45l-442 -675l-69 45zM272 240h-107v302q-43 -34 -120 -33v99q70 4 96 21.5t24 59.5h107v-449zM900 233q56 -38 56 -100q0 -61 -50 -102t-124 -41t-124.5 41t-50.5 102q0 62 56 100q-46 33 -46 88q0 59 47.5 99t117.5 40t117 -40t47 -99q0 -55 -46 -88z
M782 358q-26 0 -43 -12.5t-17 -31.5t17 -31t43 -12q25 0 42 12.5t17 30.5q0 19 -17 31.5t-42 12.5zM782 92q29 0 49 13.5t20 33.5t-20 34t-49 14q-30 0 -50 -14t-20 -34t20 -33.5t50 -13.5z" />
    <glyph glyph-name="threeeighths" unicode="&#x215c;" horiz-adv-x="1048" 
d="M389 369q0 -59 -48 -99t-120 -40q-66 0 -114 36.5t-62 98.5l101 29q4 -29 24 -45.5t50 -16.5q28 0 46 13t18 33q0 21 -21 33.5t-58 12.5h-52v89h52q69 0 69 43q0 18 -15.5 30t-40.5 12q-57 0 -67 -62l-101 28q14 62 60 99t110 37q68 0 114.5 -39t46.5 -97q0 -60 -52 -95
q60 -35 60 -100zM708 700l69 -45l-442 -675l-69 45zM947 233q56 -38 56 -100q0 -61 -50 -102t-124 -41t-124.5 41t-50.5 102q0 62 56 100q-46 33 -46 88q0 59 47.5 99t117.5 40t117 -40t47 -99q0 -55 -46 -88zM829 358q-26 0 -43 -12.5t-17 -31.5t17 -31t43 -12
q25 0 42 12.5t17 30.5q0 19 -17 31.5t-42 12.5zM829 92q29 0 49 13.5t20 33.5t-20 34t-49 14q-30 0 -50 -14t-20 -34t20 -33.5t50 -13.5z" />
    <glyph glyph-name="fiveeighths" unicode="&#x215d;" horiz-adv-x="1038" 
d="M698 700l69 -45l-442 -675l-69 45zM389 391q0 -66 -51 -113.5t-122 -47.5q-60 0 -107 37.5t-64 98.5l95 32q7 -29 28.5 -47.5t48.5 -18.5q28 0 47.5 17t19.5 42q0 27 -19 44.5t-48 17.5q-40 0 -72 -37l-82 41l38 232h265v-102h-186l-8 -54q26 10 60 10q66 0 111.5 -44
t45.5 -108zM937 233q56 -38 56 -100q0 -61 -50 -102t-124 -41t-124.5 41t-50.5 102q0 62 56 100q-46 33 -46 88q0 59 47.5 99t117.5 40t117 -40t47 -99q0 -55 -46 -88zM819 358q-26 0 -43 -12.5t-17 -31.5t17 -31t43 -12q25 0 42 12.5t17 30.5q0 19 -17 31.5t-42 12.5z
M819 92q29 0 49 13.5t20 33.5t-20 34t-49 14q-30 0 -50 -14t-20 -34t20 -33.5t50 -13.5z" />
    <glyph glyph-name="seveneighths" unicode="&#x215e;" horiz-adv-x="957" 
d="M617 700l69 -45l-442 -675l-69 45zM179 240h-120l180 347h-194v102h323v-79zM856 233q56 -38 56 -100q0 -61 -50 -102t-124 -41t-124.5 41t-50.5 102q0 62 56 100q-46 33 -46 88q0 59 47.5 99t117.5 40t117 -40t47 -99q0 -55 -46 -88zM738 358q-26 0 -43 -12.5t-17 -31.5
t17 -31t43 -12q25 0 42 12.5t17 30.5q0 19 -17 31.5t-42 12.5zM738 92q29 0 49 13.5t20 33.5t-20 34t-49 14q-30 0 -50 -14t-20 -34t20 -33.5t50 -13.5z" />
    <glyph glyph-name="uni215F" unicode="&#x215f;" horiz-adv-x="562" 
d="M661 700l69 -45l-442 -675l-69 45zM272 240h-107v302q-43 -34 -120 -33v99q70 4 96 21.5t24 59.5h107v-449z" />
    <glyph glyph-name="uni2189" unicode="&#x2189;" horiz-adv-x="1065" 
d="M421 465q0 -106 -52.5 -173t-135.5 -67q-84 0 -136 66.5t-52 173.5t52 173.5t136 66.5q83 0 135.5 -67t52.5 -173zM730 700l69 -45l-442 -675l-69 45zM233 329q37 0 58.5 36t21.5 100t-21.5 100t-58.5 36t-58.5 -36.5t-21.5 -99.5t21.5 -99.5t58.5 -36.5zM960 229
q60 -35 60 -100q0 -59 -48 -99t-120 -40q-66 0 -114 36.5t-62 98.5l101 29q4 -29 24 -45.5t50 -16.5q28 0 46 13t18 33q0 21 -21 33.5t-58 12.5h-52v89h52q69 0 69 43q0 18 -15.5 30t-40.5 12q-57 0 -67 -62l-101 28q14 62 60 99t110 37q68 0 114.5 -39t46.5 -97
q0 -60 -52 -95z" />
    <glyph glyph-name="partialdiff" unicode="&#x2202;" horiz-adv-x="659" 
d="M113 617l-42 90q89 60 216 60q138 0 230 -103t92 -276q0 -174 -89.5 -287.5t-238.5 -113.5q-60 0 -108.5 22.5t-76.5 58.5t-43 76t-15 79q0 111 70.5 182.5t178.5 71.5q68 0 116 -32t68 -65h1q1 9 1 33q0 107 -56.5 178.5t-146.5 71.5q-85 0 -157 -46zM295 91h1
q63 0 106.5 56.5t54.5 130.5q-10 33 -48.5 65.5t-90.5 32.5q-60 0 -101 -44.5t-41 -108.5q0 -56 33.5 -94t85.5 -38z" />
    <glyph glyph-name="Delta" unicode="&#x2206;" horiz-adv-x="767" 
d="M28 0v73l273 629h168l268 -628v-74h-709zM177 104h402l-136 317q-7 20 -31.5 81.5t-32.5 84.5h-4q-5 -16 -27 -72t-30 -79z" />
    <glyph glyph-name="product" unicode="&#x220f;" horiz-adv-x="824" 
d="M800 571h-123v-665h-135v665h-261v-665h-135v665h-123v114h777v-114z" />
    <glyph glyph-name="summation" unicode="&#x2211;" horiz-adv-x="650" 
d="M629 -94h-606v76l282 310l-269 305v88h573v-112h-381v-3l234 -262l-255 -284v-4h422v-114z" />
    <glyph glyph-name="minus" unicode="&#x2212;" horiz-adv-x="600" 
d="M60 280v120h480v-120h-480z" />
    <glyph glyph-name="radical" unicode="&#x221a;" horiz-adv-x="674" 
d="M692 816l-263 -962h-111l-179 435l-83 -33l-24 68l187 76l131 -340q10 -28 24 -75h1q5 21 19 79l200 752h98z" />
    <glyph glyph-name="infinity" unicode="&#x221e;" horiz-adv-x="835" 
d="M783 284v-1q0 -82 -51 -132t-121 -50q-97 0 -194 122q-49 -59 -94 -90.5t-104 -31.5q-68 0 -118 50.5t-50 126.5q0 79 51 129.5t127 50.5q99 0 194 -119q2 2 14 15.5t15.5 17t15 16t17 16.5t17.5 14t20 14t20.5 10.5t23.5 9t24.5 4.5t27.5 2q71 0 118 -48t47 -126z
M228 173h2q22 0 42 8t42 28t31 29.5t33 36.5q-51 67 -76 87q-36 27 -78 27q-44 0 -71.5 -31.5t-27.5 -79.5q0 -43 29.5 -74t73.5 -31zM610 389h-1q-16 0 -32 -6t-27.5 -13t-27 -21t-22.5 -21.5t-22 -25t-18 -20.5q50 -61 83 -85t71 -24q42 0 68 33t26 72q0 49 -27 80t-71 31
z" />
    <glyph glyph-name="integral" unicode="&#x222b;" horiz-adv-x="416" 
d="M405 833l-15 -84q-20 9 -42 9q-39 0 -58 -26q-31 -36 -31 -164q0 -77 8.5 -230t8.5 -241q0 -128 -42 -194q-42 -72 -137 -72q-53 0 -87 17l17 88q26 -12 51 -12q34 0 52 21q34 40 34 154q0 89 -8.5 245t-8.5 237q0 85 15.5 136.5t50.5 85.5q45 44 125 44q37 0 67 -14z
" />
    <glyph glyph-name="approxequal" unicode="&#x2248;" horiz-adv-x="629" 
d="M535 456l49 -49q-67 -104 -154 -104q-33 0 -59.5 10t-69.5 34q-62 34 -99 34q-34 0 -59 -19.5t-54 -56.5l-48 48q26 45 71.5 74.5t94.5 29.5q53 0 120 -39q55 -32 77 -36q11 -2 24 -2q56 0 107 76zM535 259l49 -49q-68 -104 -155 -104q-33 0 -59 10t-69 34q-62 34 -98 34
q-35 0 -60 -19t-54 -57l-48 48q26 45 71.5 74.5t94.5 29.5q52 0 119 -38q7 -4 19.5 -11.5t19.5 -11t18 -8t21.5 -6.5t22.5 -2q32 0 56 18t52 58z" />
    <glyph glyph-name="notequal" unicode="&#x2260;" horiz-adv-x="600" 
d="M540 390h-166l-46 -100h212v-120h-269l-42 -90h-122l42 90h-89v120h146l46 100h-192v120h249l42 90h122l-42 -90h109v-120z" />
    <glyph glyph-name="lessequal" unicode="&#x2264;" horiz-adv-x="600" 
d="M540 621v-109l-290 -102l290 -102v-109l-480 174v74zM60 67v100h480v-100h-480z" />
    <glyph glyph-name="greaterequal" unicode="&#x2265;" horiz-adv-x="600" 
d="M60 621l480 -174v-74l-480 -174v109l290 102l-290 102v109zM60 67v100h480v-100h-480z" />
    <glyph glyph-name="lozenge" unicode="&#x25ca;" horiz-adv-x="675" 
d="M620 342l-232 -392h-105l-229 392l231 392h105zM501 339l-144 251q-14 28 -20 46h-3q-6 -20 -20 -46l-141 -246l144 -253q14 -29 19 -44h4q11 31 19 43z" />
    <glyph glyph-name="i.loclTRK" horiz-adv-x="292" 
d="M147 550q-37 0 -63 25.5t-26 62.5q0 36 26 61.5t63 25.5q35 0 61 -25.5t26 -61.5t-26 -62t-61 -26zM71 500h150v-500h-150v500z" />
    <glyph glyph-name="a.ss01" horiz-adv-x="619" 
d="M406 500h145v-500h-145v53q-53 -68 -145 -68q-97 0 -162.5 76t-64.5 189t67 189t162 76q88 0 143 -65v50zM291 125q47 -1 81 34t34 91q0 57 -33 91t-79 34q-47 0 -79.5 -35.5t-32.5 -90.5q0 -54 31.5 -88.5t77.5 -35.5z" />
    <glyph glyph-name="three.ss01" horiz-adv-x="591" 
d="M375 419q74 -9 123 -62t49 -132q0 -100 -76 -170.5t-183 -70.5q-90 0 -158 54.5t-93 145.5l139 45q7 -48 37.5 -75t75.5 -27q47 0 78.5 28.5t31.5 72.5q0 39 -24.5 64t-61.5 25q-39 0 -71 -34l-92 88l157 167h-240v142h452v-113z" />
    <glyph glyph-name="zero.tf" horiz-adv-x="640" 
d="M320 -16q-124 0 -200.5 98.5t-76.5 257.5t76.5 257.5t200.5 98.5t201 -98.5t77 -257.5t-77 -257.5t-201 -98.5zM320 127q60 0 94.5 56.5t34.5 156.5t-34.5 156.5t-94.5 56.5t-94.5 -57t-34.5 -156t34.5 -156t94.5 -57z" />
    <glyph glyph-name="one.tf" horiz-adv-x="640" 
d="M410 142h160v-142h-477v142h166v330q-57 -55 -166 -55v137q95 7 130.5 34.5t35.5 91.5h151v-538z" />
    <glyph glyph-name="two.tf" horiz-adv-x="640" 
d="M311 142h250v-142h-472v112l275 291q36 39 36 77q0 30 -25 51.5t-60 21.5q-40 0 -68 -30.5t-29 -74.5l-139 24q4 95 72.5 159.5t163.5 64.5t164 -62t69 -149q0 -99 -87 -189z" />
    <glyph glyph-name="three.tf" horiz-adv-x="640" 
d="M457 346q102 -51 102 -155q0 -91 -73.5 -149.5t-179.5 -58.5q-99 0 -169.5 53.5t-94.5 141.5l143 42q8 -44 40 -69t79 -25q46 0 76.5 22.5t30.5 56.5q0 35 -34 57t-95 22h-73v122h73q55 0 84.5 20.5t29.5 53.5q0 32 -26.5 52.5t-67.5 20.5q-45 0 -73 -25t-37 -68l-143 39
q23 91 92.5 144t163.5 53q100 0 170 -57.5t70 -146.5q0 -97 -88 -146z" />
    <glyph glyph-name="four.tf" horiz-adv-x="640" 
d="M599 274v-128h-108v-146h-142v146h-317v108l217 426h157l-210 -406h153v187h142v-187h108z" />
    <glyph glyph-name="five.tf" horiz-adv-x="640" 
d="M332 456q97 0 166.5 -65t69.5 -162q0 -102 -77.5 -172.5t-182.5 -70.5q-89 0 -159 54.5t-97 144.5l133 44q12 -42 46 -71.5t79 -29.5t77.5 28.5t32.5 72.5q0 43 -32 72.5t-79 29.5q-62 0 -113 -56l-116 59l57 346h395v-142h-285l-16 -101q47 19 101 19z" />
    <glyph glyph-name="six.tf" horiz-adv-x="640" 
d="M341 458q99 0 168.5 -68.5t69.5 -165.5q0 -99 -73.5 -169.5t-179.5 -70.5q-122 0 -193.5 94.5t-71.5 248.5q0 164 84 266.5t213 102.5q64 0 121 -26.5t94 -74.5l-103 -87q-45 50 -111 50q-53 0 -93 -40.5t-55 -107.5q51 48 130 48zM326 125q43 0 73.5 30t30.5 73
q0 44 -30.5 74.5t-73.5 30.5t-73.5 -30.5t-30.5 -74.5q0 -43 30 -73t74 -30z" />
    <glyph glyph-name="seven.tf" horiz-adv-x="640" 
d="M77 680h486v-114l-291 -566h-167l279 538h-307v142z" />
    <glyph glyph-name="eight.tf" horiz-adv-x="640" 
d="M492 351q91 -55 91 -153q0 -91 -75 -152.5t-187 -61.5t-187.5 61.5t-75.5 152.5q0 97 92 153q-77 50 -77 137q0 89 71 148.5t177 59.5t177 -59.5t71 -148.5q0 -87 -77 -137zM321 553q-43 0 -71.5 -21.5t-28.5 -53.5t28.5 -53.5t71.5 -21.5q42 0 70.5 21.5t28.5 53.5
t-28.5 53.5t-70.5 21.5zM321 127q49 0 81.5 23t32.5 57q0 35 -32.5 58t-81.5 23t-82 -23t-33 -58q0 -34 32.5 -57t82.5 -23z" />
    <glyph glyph-name="nine.tf" horiz-adv-x="640" 
d="M304 696q122 0 193.5 -94t71.5 -248q0 -164 -84 -266.5t-213 -102.5q-64 0 -121 26.5t-94 73.5l103 88q44 -50 111 -50q53 0 92.5 40.5t54.5 107.5q-51 -48 -130 -48q-98 0 -167.5 68.5t-69.5 165.5q0 98 73.5 168.5t179.5 70.5zM304 348q43 0 73 30.5t30 73.5
q0 44 -29.5 74t-73.5 30t-74.5 -30.5t-30.5 -73.5t31 -73.5t74 -30.5z" />
    <glyph glyph-name="zero.dnom" horiz-adv-x="466" 
d="M233 -15q-84 0 -136 66.5t-52 173.5t52 173.5t136 66.5q83 0 135.5 -67t52.5 -173t-52.5 -173t-135.5 -67zM233 89q37 0 58.5 36t21.5 100t-21.5 100t-58.5 36t-58.5 -36.5t-21.5 -99.5t21.5 -99.5t58.5 -36.5z" />
    <glyph glyph-name="one.dnom" horiz-adv-x="317" 
d="M165 449h107v-449h-107v302q-43 -34 -120 -33v99q70 4 96 21.5t24 59.5z" />
    <glyph glyph-name="two.dnom" horiz-adv-x="412" 
d="M213 102h154v-102h-315v79l179 190q22 23 22 46q0 17 -14.5 29.5t-35.5 12.5q-26 0 -42.5 -20.5t-14.5 -48.5l-101 17q1 64 47 109t111 45q64 0 109.5 -41.5t45.5 -99.5q0 -64 -57 -126z" />
    <glyph glyph-name="three.dnom" horiz-adv-x="434" 
d="M329 229q60 -35 60 -100q0 -59 -48 -99t-120 -40q-66 0 -114 36.5t-62 98.5l101 29q4 -29 24 -45.5t50 -16.5q28 0 46 13t18 33q0 21 -21 33.5t-58 12.5h-52v89h52q69 0 69 43q0 18 -15.5 30t-40.5 12q-57 0 -67 -62l-101 28q14 62 60 99t110 37q68 0 114.5 -39t46.5 -97
q0 -60 -52 -95z" />
    <glyph glyph-name="four.dnom" horiz-adv-x="460" 
d="M415 187v-93h-64v-94h-101v94h-205v76l142 279h113l-135 -262h85v120h101v-120h64z" />
    <glyph glyph-name="five.dnom" horiz-adv-x="434" 
d="M232 303q66 0 111.5 -44t45.5 -108q0 -66 -51 -113.5t-122 -47.5q-60 0 -107 37.5t-64 98.5l95 32q7 -29 28.5 -47.5t48.5 -18.5q28 0 47.5 17t19.5 42q0 27 -19 44.5t-48 17.5q-40 0 -72 -37l-82 41l38 232h265v-102h-186l-8 -54q26 10 60 10z" />
    <glyph glyph-name="six.dnom" horiz-adv-x="434" 
d="M231 306q66 0 112 -45.5t46 -110.5q0 -67 -49 -113.5t-119 -46.5q-80 0 -128 61.5t-48 164.5q0 107 55 175.5t141 68.5q45 0 83.5 -18.5t62.5 -52.5l-74 -62q-26 34 -71 34q-30 0 -52.5 -20.5t-33.5 -56.5q31 22 75 22zM221 91q26 0 44.5 18t18.5 44q0 25 -18.5 43.5
t-44.5 18.5t-44.5 -18t-18.5 -44t18.5 -44t44.5 -18z" />
    <glyph glyph-name="seven.dnom" horiz-adv-x="413" 
d="M45 449h323v-79l-189 -370h-120l180 347h-194v102z" />
    <glyph glyph-name="eight.dnom" horiz-adv-x="439" 
d="M338 233q56 -38 56 -100q0 -61 -50 -102t-124 -41t-124.5 41t-50.5 102q0 62 56 100q-46 33 -46 88q0 59 47.5 99t117.5 40t117 -40t47 -99q0 -55 -46 -88zM220 358q-26 0 -43 -12.5t-17 -31.5t17 -31t43 -12q25 0 42 12.5t17 30.5q0 19 -17 31.5t-42 12.5zM220 92
q29 0 49 13.5t20 33.5t-20 34t-49 14q-30 0 -50 -14t-20 -34t20 -33.5t50 -13.5z" />
    <glyph glyph-name="nine.dnom" horiz-adv-x="434" 
d="M213 460q80 0 128 -61.5t48 -164.5q0 -107 -55 -175.5t-141 -68.5q-45 0 -84 18.5t-62 51.5l74 63q26 -34 71 -34q30 0 53 21t34 57q-32 -23 -76 -23q-66 0 -112 45.5t-46 110.5q0 67 49 113.5t119 46.5zM213 235q26 0 44 18t18 44q0 27 -17.5 44.5t-44.5 17.5
q-26 0 -44.5 -18t-18.5 -44q0 -25 18.5 -43.5t44.5 -18.5z" />
    <glyph glyph-name="zero.numr" horiz-adv-x="466" 
d="M233 225q-84 0 -136 66.5t-52 173.5t52 173.5t136 66.5q83 0 135.5 -67t52.5 -173t-52.5 -173t-135.5 -67zM233 329q37 0 58.5 36t21.5 100t-21.5 100t-58.5 36t-58.5 -36.5t-21.5 -99.5t21.5 -99.5t58.5 -36.5z" />
    <glyph glyph-name="one.numr" horiz-adv-x="317" 
d="M165 689h107v-449h-107v302q-43 -34 -120 -33v99q70 4 96 21.5t24 59.5z" />
    <glyph glyph-name="two.numr" horiz-adv-x="412" 
d="M213 342h154v-102h-315v79l179 190q22 23 22 46q0 17 -14.5 29.5t-35.5 12.5q-26 0 -42.5 -20.5t-14.5 -48.5l-101 17q1 64 47 109t111 45q64 0 109.5 -41.5t45.5 -99.5q0 -64 -57 -126z" />
    <glyph glyph-name="three.numr" horiz-adv-x="434" 
d="M329 469q60 -35 60 -100q0 -59 -48 -99t-120 -40q-66 0 -114 36.5t-62 98.5l101 29q4 -29 24 -45.5t50 -16.5q28 0 46 13t18 33q0 21 -21 33.5t-58 12.5h-52v89h52q69 0 69 43q0 18 -15.5 30t-40.5 12q-57 0 -67 -62l-101 28q14 62 60 99t110 37q68 0 114.5 -39t46.5 -97
q0 -60 -52 -95z" />
    <glyph glyph-name="four.numr" horiz-adv-x="460" 
d="M415 427v-93h-64v-94h-101v94h-205v76l142 279h113l-135 -262h85v120h101v-120h64z" />
    <glyph glyph-name="five.numr" horiz-adv-x="434" 
d="M232 543q66 0 111.5 -44t45.5 -108q0 -66 -51 -113.5t-122 -47.5q-60 0 -107 37.5t-64 98.5l95 32q7 -29 28.5 -47.5t48.5 -18.5q28 0 47.5 17t19.5 42q0 27 -19 44.5t-48 17.5q-40 0 -72 -37l-82 41l38 232h265v-102h-186l-8 -54q26 10 60 10z" />
    <glyph glyph-name="six.numr" horiz-adv-x="434" 
d="M231 546q66 0 112 -45.5t46 -110.5q0 -67 -49 -113.5t-119 -46.5q-80 0 -128 61.5t-48 164.5q0 107 55 175.5t141 68.5q45 0 83.5 -18.5t62.5 -52.5l-74 -62q-26 34 -71 34q-30 0 -52.5 -20.5t-33.5 -56.5q31 22 75 22zM221 331q26 0 44.5 18t18.5 44q0 25 -18.5 43.5
t-44.5 18.5t-44.5 -18t-18.5 -44t18.5 -44t44.5 -18z" />
    <glyph glyph-name="seven.numr" horiz-adv-x="413" 
d="M45 689h323v-79l-189 -370h-120l180 347h-194v102z" />
    <glyph glyph-name="eight.numr" horiz-adv-x="439" 
d="M338 473q56 -38 56 -100q0 -61 -50 -102t-124 -41t-124.5 41t-50.5 102q0 62 56 100q-46 33 -46 88q0 59 47.5 99t117.5 40t117 -40t47 -99q0 -55 -46 -88zM220 598q-26 0 -43 -12.5t-17 -31.5t17 -31t43 -12q25 0 42 12.5t17 30.5q0 19 -17 31.5t-42 12.5zM220 332
q29 0 49 13.5t20 33.5t-20 34t-49 14q-30 0 -50 -14t-20 -34t20 -33.5t50 -13.5z" />
    <glyph glyph-name="nine.numr" horiz-adv-x="434" 
d="M213 700q80 0 128 -61.5t48 -164.5q0 -107 -55 -175.5t-141 -68.5q-45 0 -84 18.5t-62 51.5l74 63q26 -34 71 -34q30 0 53 21t34 57q-32 -23 -76 -23q-66 0 -112 45.5t-46 110.5q0 67 49 113.5t119 46.5zM213 475q26 0 44 18t18 44q0 27 -17.5 44.5t-44.5 17.5
q-26 0 -44.5 -18t-18.5 -44q0 -25 18.5 -43.5t44.5 -18.5z" />
    </font>
</defs>
</svg>
