<?xml version="1.0" standalone="no"?>
<!DOCTYPE svg PUBLIC "-//W3C//DTD SVG 1.1//EN" "http://www.w3.org/Graphics/SVG/1.1/DTD/svg11.dtd" >
<svg xmlns="http://www.w3.org/2000/svg" xmlns:xlink="http://www.w3.org/1999/xlink" version="1.1">
<metadata>
Created by FontForge 20170731 at Wed Jan 11 14:54:26 2017
 By Aleksey,,,
Copyright (c) 2016 by Alex Sheyn. All rights reserved.
</metadata>
<defs>
<font id="ATCArquette-Semibold" horiz-adv-x="0" >
  <font-face 
    font-family="ATC Arquette Semibold"
    font-weight="600"
    font-stretch="normal"
    units-per-em="1000"
    panose-1="0 0 7 0 0 0 0 0 0 0"
    ascent="800"
    descent="-200"
    x-height="500"
    cap-height="680"
    bbox="-655 -288 1321 924"
    underline-thickness="50"
    underline-position="-200"
    unicode-range="U+0020-FB02"
  />
<missing-glyph horiz-adv-x="460" 
d="M377 700v-920h-291v920h291zM306 638h-151v-30h59v-34h-60v-30h152v30h-60v34h60v30zM246 520h-92v-96h152v31h-60v65zM214 488v-33h-30v33h30zM306 399h-152v-30h60v-34h-60v-31h92v65h60v30zM306 344h-30v-61h-122v-31h152v92zM306 232h-92v-52h32v21h30v-43h-92v74
h-30v-104h152v104zM306 73h-152v-104h152v104zM276 42v-43h-92v43h92zM306 -53h-152v-30h64l-64 -43v-31h152v31h-93l64 43h29v30z" />
    <glyph glyph-name="fi" unicode="fi" horiz-adv-x="673" 
d="M522 568q-33 0 -56 21.5t-23 53.5t23 53.5t56 21.5q32 0 54.5 -21.5t22.5 -53.5t-22.5 -53.5t-54.5 -21.5zM585 500v-500h-128v388h-209v-388h-125v388h-90v112h90v44q0 156 156 156h101v-112h-81q-51 0 -51 -54v-34h337z" />
    <glyph glyph-name="fl" unicode="fl" horiz-adv-x="663" 
d="M458 700h127v-700h-127v388h-210v-388h-125v388h-90v112h90v44q0 156 156 156h86v-112h-66q-51 0 -51 -54v-34h210v200z" />
    <glyph glyph-name="f_f" unicode="ff" horiz-adv-x="710" 
d="M630 588q-51 0 -51 -54v-34h117v-112h-117v-388h-125v388h-206v-388h-125v388h-90v112h90v44q0 156 156 156h86v-112h-66q-51 0 -51 -54v-34h206v44q0 156 155 156h87v-112h-66z" />
    <glyph glyph-name="f_f_i" unicode="ffi" horiz-adv-x="1004" 
d="M853 568q-33 0 -56 21.5t-23 53.5t23 53.5t56 21.5q31 0 54 -21.5t23 -53.5t-23 -53.5t-54 -21.5zM916 500v-500h-128v388h-207v-388h-125v388h-208v-388h-125v388h-90v112h90v44q0 156 156 156h86v-112h-66q-51 0 -51 -54v-34h208v44q0 156 155 156h101v-112h-80
q-51 0 -51 -54v-34h335z" />
    <glyph glyph-name="f_f_l" unicode="ffl" horiz-adv-x="996" 
d="M790 700h128v-700h-128v388h-208v-388h-125v388h-209v-388h-125v388h-90v112h90v44q0 156 156 156h86v-112h-66q-51 0 -51 -54v-34h209v44q0 156 155 156h87v-112h-66q-51 0 -51 -54v-34h208v200z" />
    <glyph glyph-name=".notdef" horiz-adv-x="460" 
d="M377 700v-920h-291v920h291zM306 638h-151v-30h59v-34h-60v-30h152v30h-60v34h60v30zM246 520h-92v-96h152v31h-60v65zM214 488v-33h-30v33h30zM306 399h-152v-30h60v-34h-60v-31h92v65h60v30zM306 344h-30v-61h-122v-31h152v92zM306 232h-92v-52h32v21h30v-43h-92v74
h-30v-104h152v104zM306 73h-152v-104h152v104zM276 42v-43h-92v43h92zM306 -53h-152v-30h64l-64 -43v-31h152v31h-93l64 43h29v30z" />
    <glyph glyph-name=".null" 
 />
    <glyph glyph-name="nonmarkingreturn" horiz-adv-x="333" 
 />
    <glyph glyph-name="space" unicode=" " horiz-adv-x="279" 
 />
    <glyph glyph-name="exclam" unicode="!" horiz-adv-x="302" 
d="M103 204l-30 476h156l-30 -476h-96zM152 140q31 0 54 -23t23 -54q0 -32 -23 -55t-54 -23q-33 0 -56 23t-23 55t23 54.5t56 22.5z" />
    <glyph glyph-name="quotedbl" unicode="&#x22;" horiz-adv-x="393" 
d="M40 700h127l-23 -284h-80zM226 700h127l-24 -284h-80z" />
    <glyph glyph-name="numbersign" unicode="#" horiz-adv-x="720" 
d="M668 416h-106l-30 -152h89v-113h-110l-29 -151h-121l29 151h-133l-29 -151h-121l29 151h-84v113h106l29 152h-87v113h109l29 151h120l-29 -151h134l29 151h120l-29 -151h85v-113zM412 264l29 152h-133l-30 -152h134z" />
    <glyph glyph-name="dollar" unicode="$" horiz-adv-x="624" 
d="M366 388q103 -28 154.5 -70t51.5 -118q0 -95 -71.5 -152.5t-189.5 -57.5h-11l-19 -111l-90 15l18 109q-66 18 -111.5 58.5t-58.5 94.5l110 40q19 -55 79 -82l30 185q-93 23 -141.5 67.5t-48.5 120.5q0 92 66 147.5t175 55.5h14l19 111l90 -15l-19 -112q58 -19 97.5 -58
t52.5 -92l-105 -40q-17 52 -63 78zM180 498q0 -59 97 -88l29 175h-2q-55 0 -89.5 -24.5t-34.5 -62.5zM320 96q62 0 101 26t39 68q0 35 -28.5 54.5t-83.5 34.5l-31 -183h3z" />
    <glyph glyph-name="percent" unicode="%" horiz-adv-x="924" 
d="M640 700l80 -52l-437 -668l-81 52zM225 696q73 0 126 -52.5t53 -126.5q0 -76 -53 -128.5t-126 -52.5t-127 53t-54 128q0 74 54 126.5t127 52.5zM225 613q-40 0 -69 -28t-29 -68q0 -41 29 -69.5t69 -28.5t68.5 28.5t28.5 69.5q0 40 -29 68t-68 28zM701 344q73 0 126 -52.5
t53 -126.5q0 -76 -53 -128.5t-126 -52.5t-127 53t-54 128q0 74 54 126.5t127 52.5zM701 262q-40 0 -69.5 -28.5t-29.5 -68.5q0 -41 29.5 -70t69.5 -29q39 0 67.5 29t28.5 70q0 40 -28.5 68.5t-67.5 28.5z" />
    <glyph glyph-name="ampersand" unicode="&#x26;" horiz-adv-x="733" 
d="M699 58l-85 -79l-93 91q-102 -86 -220 -86q-99 0 -168 60t-69 148q0 66 40 110t108 78q-69 81 -69 147q0 70 58 119.5t143 49.5q82 0 137 -47t55 -122q0 -104 -132 -177l113 -113q41 63 59 134l111 -29q-27 -105 -87 -186zM340 588q-34 0 -55 -18.5t-21 -44.5
q0 -32 60 -96q49 23 72 44.5t23 47.5q0 28 -22 47.5t-57 19.5zM309 100q68 0 131 51l-145 143l-2 2q-56 -26 -81 -48.5t-25 -54.5q0 -41 35.5 -67t86.5 -26z" />
    <glyph glyph-name="quotesingle" unicode="'" horiz-adv-x="246" 
d="M95 700h132l-124 -284h-84z" />
    <glyph glyph-name="parenleft" unicode="(" horiz-adv-x="418" 
d="M368 -85l-81 -80q-107 91 -167 204.5t-60 228.5q0 114 60 227.5t168 204.5l80 -80q-86 -70 -133 -162.5t-47 -189.5t47 -189t133 -164z" />
    <glyph glyph-name="parenright" unicode=")" horiz-adv-x="418" 
d="M50 -85q87 71 134 163.5t47 189.5t-47 189.5t-134 162.5l80 80q108 -91 168 -204.5t60 -227.5q0 -115 -60 -228.5t-167 -204.5z" />
    <glyph glyph-name="asterisk" unicode="*" horiz-adv-x="435" 
d="M375 568l-100 -48l100 -48l-37 -64l-91 62l7 -110h-73l7 110l-91 -62l-37 64l99 48l-99 48l37 64l91 -62l-7 110h73l-7 -110l91 62z" />
    <glyph glyph-name="plus" unicode="+" horiz-adv-x="587" 
d="M527 393v-106h-180v-180h-107v180h-180v106h180v180h107v-180h180z" />
    <glyph glyph-name="comma" unicode="," horiz-adv-x="259" 
d="M95 144h132l-124 -284h-84z" />
    <glyph glyph-name="hyphen" unicode="-" horiz-adv-x="441" 
d="M65 226v118h311v-118h-311z" />
    <glyph glyph-name="period" unicode="." horiz-adv-x="280" 
d="M141 163q36 0 62 -26t26 -63t-26 -63t-62 -26q-37 0 -63.5 26t-26.5 63t26.5 63t63.5 26z" />
    <glyph glyph-name="slash" unicode="/" horiz-adv-x="581" 
d="M112 -150l475 980h-133l-475 -980h133z" />
    <glyph glyph-name="zero" unicode="0" horiz-adv-x="661" 
d="M330 -16q-123 0 -199 98.5t-76 257.5t76 257.5t199 98.5t199 -98.5t76 -257.5t-76 -257.5t-199 -98.5zM330 110q67 0 105.5 61.5t38.5 168.5t-38.5 168.5t-105.5 61.5q-66 0 -105 -61.5t-39 -168.5t39 -168.5t105 -61.5z" />
    <glyph glyph-name="one" unicode="1" horiz-adv-x="438" 
d="M212 680h133v-680h-133v494q-60 -62 -187 -62v118q98 4 142.5 36.5t44.5 93.5z" />
    <glyph glyph-name="two" unicode="2" horiz-adv-x="578" 
d="M249 126h272v-126h-465v101l280 296q41 43 41 87q0 36 -28.5 61t-67.5 25q-44 0 -74.5 -30.5t-33.5 -75.5l-124 21q8 90 74 150.5t158 60.5q93 0 160 -60.5t67 -146.5q0 -97 -87 -187z" />
    <glyph glyph-name="three" unicode="3" horiz-adv-x="595" 
d="M439 347q109 -51 109 -157q0 -88 -73 -147.5t-179 -59.5q-93 0 -163.5 52.5t-94.5 141.5l125 37q9 -49 46 -76.5t86 -27.5q53 0 87.5 25.5t34.5 64.5t-37 65t-97 26h-80v109h80q54 0 86.5 24.5t32.5 61.5q0 36 -31 60t-77 24q-48 0 -81 -27.5t-43 -76.5l-125 35
q24 91 92 143t159 52q100 0 168.5 -57.5t68.5 -143.5q0 -99 -94 -148z" />
    <glyph glyph-name="four" unicode="4" horiz-adv-x="631" 
d="M580 266v-115h-101v-151h-125v151h-321v98l220 431h138l-214 -414h177v196h125v-196h101z" />
    <glyph glyph-name="five" unicode="5" horiz-adv-x="611" 
d="M319 453q95 0 164 -64t69 -162q0 -102 -76.5 -172t-179.5 -70q-88 0 -157 53t-94 143l119 38q11 -48 48 -78t85 -30q51 0 87.5 32.5t36.5 83.5q0 49 -34.5 80.5t-88.5 31.5q-68 0 -121 -53l-106 53l56 341h388v-126h-289l-21 -127q52 26 114 26z" />
    <glyph glyph-name="six" unicode="6" horiz-adv-x="624" 
d="M333 457q98 0 166 -68.5t68 -166.5q0 -99 -72 -168.5t-174 -69.5q-124 0 -195 93.5t-71 253.5t83.5 262.5t212.5 102.5q60 0 115 -25t90 -69l-93 -78q-19 22 -50 35.5t-61 13.5q-63 0 -108.5 -49.5t-58.5 -129.5q57 63 148 63zM318 109q49 0 83 34t34 83t-34 84t-83 35
t-83.5 -35t-34.5 -84t34.5 -83t83.5 -34z" />
    <glyph glyph-name="seven" unicode="7" horiz-adv-x="595" 
d="M68 680h479v-104l-296 -576h-147l287 554h-323v126z" />
    <glyph glyph-name="eight" unicode="8" horiz-adv-x="607" 
d="M462 351q99 -55 99 -157q0 -88 -73.5 -149t-183.5 -61t-184 61t-74 149q0 101 100 157q-84 50 -84 141q0 86 69.5 145t172.5 59t172.5 -59t69.5 -145q0 -91 -84 -141zM304 570q-47 0 -79 -24.5t-32 -60.5q0 -37 31.5 -61.5t79.5 -24.5t79.5 24.5t31.5 61.5q0 36 -32 60.5
t-79 24.5zM304 110q54 0 90 26t36 66q0 38 -36 64.5t-90 26.5t-90.5 -26.5t-36.5 -64.5q0 -40 36 -66t91 -26z" />
    <glyph glyph-name="nine" unicode="9" horiz-adv-x="624" 
d="M304 696q124 0 194.5 -93t70.5 -253t-83.5 -262.5t-212.5 -102.5q-60 0 -115 25t-89 68l92 79q19 -22 50 -35.5t61 -13.5q63 0 108 49t58 129q-55 -63 -147 -63q-97 0 -165.5 68.5t-68.5 166.5q0 99 72 168.5t175 69.5zM307 336q49 0 83 34.5t34 83.5t-34 83.5t-83 34.5
t-84 -34.5t-35 -83.5t35 -83.5t84 -34.5z" />
    <glyph glyph-name="colon" unicode=":" horiz-adv-x="260" 
d="M131 513q36 0 62 -26t26 -63t-26 -63t-62 -26q-37 0 -63.5 26t-26.5 63t26.5 63t63.5 26zM131 163q36 0 62 -26t26 -63t-26 -63t-62 -26q-37 0 -63.5 26t-26.5 63t26.5 63t63.5 26z" />
    <glyph glyph-name="semicolon" unicode=";" horiz-adv-x="266" 
d="M131 515q36 0 62 -25.5t26 -62.5t-26 -63.5t-62 -26.5q-37 0 -63.5 26.5t-26.5 63.5t26.5 62.5t63.5 25.5zM95 144h132l-124 -284h-84z" />
    <glyph glyph-name="less" unicode="&#x3c;" horiz-adv-x="587" 
d="M527 593v-116l-305 -137l305 -137v-116l-467 215v76z" />
    <glyph glyph-name="equal" unicode="=" horiz-adv-x="587" 
d="M60 499h467v-107h-467v107zM60 288h467v-107h-467v107z" />
    <glyph glyph-name="greater" unicode="&#x3e;" horiz-adv-x="587" 
d="M60 593l467 -215v-76l-467 -215v116l305 137l-305 137v116z" />
    <glyph glyph-name="question" unicode="?" horiz-adv-x="578" 
d="M326 204h-135v24q0 65 26.5 102t81.5 63q52 24 75 43.5t23 49.5q0 38 -29.5 61t-78.5 23q-47 0 -80.5 -27.5t-43.5 -76.5l-125 35q25 91 92.5 143t158.5 52q102 0 170 -57.5t68 -147.5q0 -120 -129 -184q-44 -21 -59 -36.5t-15 -50.5v-16zM259 -15q-32 0 -55 23t-23 55
t23 54.5t55 22.5t55 -22.5t23 -54.5t-23 -55t-55 -23z" />
    <glyph glyph-name="at" unicode="@" horiz-adv-x="915" 
d="M541 435h92v-215q0 -47 19 -72t53 -25q40 0 63 34.5t23 97.5q0 136 -99.5 233.5t-235.5 97.5q-137 0 -234.5 -98.5t-97.5 -237.5t98 -237.5t236 -98.5q127 0 223 88l48 -51q-116 -106 -272 -106q-167 0 -286 119t-119 286t118.5 286t285.5 119q109 0 203.5 -55
t148.5 -146t54 -195q0 -98 -47 -157.5t-120 -59.5q-46 0 -84.5 25t-56.5 71q-12 -38 -45 -63t-82 -25q-72 0 -121 55.5t-48 141.5q1 85 50 141t121 56t112 -59v50zM446 140q40 -1 67.5 29t27.5 79q0 47 -26.5 76.5t-67.5 29.5t-67.5 -30t-26.5 -77q0 -48 26.5 -77.5
t66.5 -29.5z" />
    <glyph glyph-name="A" unicode="A" horiz-adv-x="758" 
d="M592 0l-62 151h-303l-61 -151h-139l283 680h135l287 -680h-140zM274 266h209l-105 256z" />
    <glyph glyph-name="B" unicode="B" horiz-adv-x="663" 
d="M528 343q89 -45 89 -146q0 -86 -63 -141.5t-159 -55.5h-308v680h297q95 0 159 -55t64 -141q0 -93 -79 -141zM386 557h-171v-159h171q42 0 67 22.5t25 57.5q0 34 -24.5 56.5t-67.5 22.5zM397 122q42 0 67 23t25 58t-24.5 57t-67.5 22h-182v-160h182z" />
    <glyph glyph-name="C" unicode="C" horiz-adv-x="757" 
d="M607 455q-29 54 -80.5 84t-113.5 30q-96 0 -161 -66t-65 -163t65 -163.5t161 -66.5q62 0 113.5 30.5t80.5 84.5l111 -66q-47 -80 -129 -127.5t-176 -47.5q-149 0 -253 103.5t-104 252.5t104 252.5t253 103.5q95 0 176.5 -47t128.5 -128z" />
    <glyph glyph-name="D" unicode="D" horiz-adv-x="752" 
d="M333 680q156 0 260 -96.5t104 -243.5t-104 -243.5t-260 -96.5h-246v680h246zM332 123q104 0 169.5 60t65.5 157t-65.5 157t-169.5 60h-116v-434h116z" />
    <glyph glyph-name="E" unicode="E" horiz-adv-x="600" 
d="M546 557h-331v-158h228v-118h-228v-158h331v-123h-459v680h459v-123z" />
    <glyph glyph-name="F" unicode="F" horiz-adv-x="587" 
d="M546 557h-331v-164h228v-118h-228v-275h-128v680h459v-123z" />
    <glyph glyph-name="G" unicode="G" horiz-adv-x="810" 
d="M394 368h352v-49q0 -148 -93.5 -241.5t-234.5 -93.5q-151 0 -254 103.5t-103 251.5q0 149 104 253t253 104q93 0 172.5 -44.5t127.5 -121.5l-109 -65q-30 50 -80.5 78t-111.5 28q-97 0 -161.5 -66.5t-64.5 -166.5q0 -98 64 -163.5t165 -65.5q80 0 131.5 42t56.5 101h-214
v116z" />
    <glyph glyph-name="H" unicode="H" horiz-adv-x="753" 
d="M537 680h130v-680h-130v278h-321v-278h-129v680h129v-278h321v278z" />
    <glyph glyph-name="I" unicode="I" horiz-adv-x="317" 
d="M94 680h130v-680h-130v680z" />
    <glyph glyph-name="J" unicode="J" horiz-adv-x="588" 
d="M383 680h129v-435q0 -115 -74.5 -188t-188.5 -73q-134 0 -232 106l92 87q66 -69 143 -69q61 0 96 37t35 102v433z" />
    <glyph glyph-name="K" unicode="K" horiz-adv-x="684" 
d="M518 0l-227 294l-75 -77v-217h-129v680h129v-298l287 298h167l-288 -294l290 -386h-154z" />
    <glyph glyph-name="L" unicode="L" horiz-adv-x="580" 
d="M217 123h329v-123h-459v680h130v-557z" />
    <glyph glyph-name="M" unicode="M" horiz-adv-x="933" 
d="M846 680v-680h-128v488l-188 -488h-131l-184 483v-483h-128v680h185l193 -508l196 508h185z" />
    <glyph glyph-name="N" unicode="N" horiz-adv-x="758" 
d="M543 680h128v-680h-105l-351 453v-453h-128v680h104l352 -455v455z" />
    <glyph glyph-name="O" unicode="O" horiz-adv-x="822" 
d="M413 -16q-149 0 -253 103.5t-104 252.5t104 252.5t253 103.5q147 0 250.5 -104t103.5 -252t-103.5 -252t-250.5 -104zM413 110q94 0 158.5 66.5t64.5 163.5t-64.5 163t-158.5 66q-96 0 -161 -66t-65 -163t65 -163.5t161 -66.5z" />
    <glyph glyph-name="P" unicode="P" horiz-adv-x="647" 
d="M384 680q98 0 164 -60.5t66 -149.5t-65.5 -150.5t-164.5 -61.5h-168v-258h-129v680h297zM384 381q45 0 73.5 25t28.5 63t-28.5 63t-73.5 25h-168v-176h168z" />
    <glyph glyph-name="Q" unicode="Q" horiz-adv-x="828" 
d="M782 51l-83 -83l-81 81q-92 -65 -205 -65q-149 0 -253 103.5t-104 252.5t104 252.5t253 103.5q147 0 250.5 -104t103.5 -252q0 -117 -66 -208zM413 110q63 0 114 31l-123 123l82 83l122 -122q28 53 28 115q0 97 -64.5 163t-158.5 66q-96 0 -161 -66t-65 -163t65 -163.5
t161 -66.5z" />
    <glyph glyph-name="R" unicode="R" horiz-adv-x="670" 
d="M486 0l-151 262h-120v-262h-128v680h296q98 0 164 -59.5t66 -148.5q0 -66 -38 -118.5t-101 -75.5l160 -278h-148zM215 557v-176h168q45 0 73.5 25t28.5 63t-28.5 63t-73.5 25h-168z" />
    <glyph glyph-name="S" unicode="S" horiz-adv-x="638" 
d="M586 201q0 -98 -74 -157.5t-194 -59.5q-110 0 -186.5 50.5t-92.5 129.5l125 45q13 -45 55 -73t108 -28q59 0 94.5 23t35.5 60q0 21 -9.5 35t-38 25.5t-44 15.5t-62.5 14q-5 1 -8 2q-108 24 -167 69.5t-59 132.5q0 97 69.5 154t178.5 57q102 0 173.5 -49.5t88.5 -130.5
l-121 -45q-12 45 -50.5 73.5t-95.5 28.5q-50 0 -82 -21.5t-32 -55.5q0 -20 11 -35t34.5 -25.5t42.5 -16.5t53 -14q123 -30 185 -74t62 -130z" />
    <glyph glyph-name="T" unicode="T" horiz-adv-x="591" 
d="M555 680v-123h-194v-557h-130v557h-194v123h518z" />
    <glyph glyph-name="U" unicode="U" horiz-adv-x="734" 
d="M528 680h130v-381q0 -142 -80 -228.5t-211 -86.5t-211 86.5t-80 228.5v381h130v-380q0 -87 44 -139.5t117 -52.5t117 52.5t44 139.5v380z" />
    <glyph glyph-name="V" unicode="V" horiz-adv-x="728" 
d="M563 680h139l-267 -680h-145l-263 680h138l198 -522z" />
    <glyph glyph-name="W" unicode="W" horiz-adv-x="1088" 
d="M918 680h137l-202 -680h-156l-153 508l-153 -508h-156l-202 680h137l143 -515l156 515h149l156 -515z" />
    <glyph glyph-name="X" unicode="X" horiz-adv-x="709" 
d="M676 680l-229 -340l229 -340h-157l-164 250l-165 -250h-156l228 340l-225 340h156l162 -250l164 250h157z" />
    <glyph glyph-name="Y" unicode="Y" horiz-adv-x="696" 
d="M682 680l-269 -403v-277h-129v276l-269 404h154l179 -278l180 278h154z" />
    <glyph glyph-name="Z" unicode="Z" horiz-adv-x="674" 
d="M245 123h367v-123h-548v99l348 458h-348v123h528v-99z" />
    <glyph glyph-name="bracketleft" unicode="[" horiz-adv-x="451" 
d="M211 580v-643h173v-115h-302v878h302v-120h-173z" />
    <glyph glyph-name="backslash" unicode="\" horiz-adv-x="581" 
d="M469 -150h133l-475 980h-133z" />
    <glyph glyph-name="bracketright" unicode="]" horiz-adv-x="443" 
d="M233 580h-173v120h303v-878h-303v115h173v643z" />
    <glyph glyph-name="asciicircum" unicode="^" horiz-adv-x="600" 
d="M569 343h-116l-137 220l-137 -220h-116l215 337h76z" />
    <glyph glyph-name="underscore" unicode="_" horiz-adv-x="676" 
d="M-2 -200v97h680v-97h-680z" />
    <glyph glyph-name="a" unicode="a" horiz-adv-x="545" 
d="M264 513q93 0 154 -58.5t61 -151.5v-303h-122v58q-29 -31 -71 -50.5t-88 -20.5q-67 0 -113.5 41.5t-46.5 110.5q0 66 45 106.5t124 56.5l147 28q-8 33 -31.5 53.5t-58.5 20.5t-67 -19t-53 -49l-92 67q35 50 93 80t119 30zM231 93q50 0 88 33.5t38 82.5v23l-128 -25
q-69 -16 -69 -61q0 -23 19.5 -38t51.5 -15z" />
    <glyph glyph-name="b" unicode="b" horiz-adv-x="619" 
d="M573 250q1 -114 -64 -188.5t-162 -74.5q-99 0 -149 76v-63h-125v700h125v-258q52 71 147 71q96 0 161.5 -75t66.5 -188zM323 107q53 1 88 41t35 101q0 63 -35 103.5t-90 40.5q-54 0 -89.5 -39.5t-35.5 -103.5q0 -63 36 -103t91 -40z" />
    <glyph glyph-name="c" unicode="c" horiz-adv-x="560" 
d="M413 181l114 -50q-33 -65 -95.5 -104.5t-137.5 -39.5q-110 0 -185 76.5t-75 186.5q0 111 75 187.5t185 76.5q75 0 137 -39t95 -104l-113 -50q-18 34 -49.5 53t-69.5 19q-57 0 -95 -41t-38 -102q0 -60 38 -101t95 -41q37 0 69 19.5t50 53.5z" />
    <glyph glyph-name="d" unicode="d" horiz-adv-x="608" 
d="M411 700h125v-700h-125v63q-50 -76 -149 -76q-97 0 -162 74.5t-64 188.5q1 113 66.5 188t161.5 75q93 0 147 -71v258zM287 107q55 0 91 40t36 103q0 64 -36 103.5t-90 39.5t-89.5 -40.5t-35.5 -103.5q0 -61 35 -101t89 -41z" />
    <glyph glyph-name="e" unicode="e" horiz-adv-x="571" 
d="M524 292q5 -43 -1 -92h-352q22 -99 120 -99q41 0 74.5 19t50.5 50l98 -56q-31 -58 -93 -92.5t-132 -34.5q-107 0 -176 75.5t-69 187.5t69 187.5t177 75.5q92 0 157 -57.5t77 -163.5zM286 399q-95 0 -115 -101h229q-4 48 -36 74.5t-78 26.5z" />
    <glyph glyph-name="f" unicode="f" horiz-adv-x="379" 
d="M299 588q-51 0 -51 -54v-34h117v-112h-117v-388h-125v388h-90v112h90v44q0 156 156 156h86v-112h-66z" />
    <glyph glyph-name="g" unicode="g" horiz-adv-x="618" 
d="M421 500h125v-465q0 -111 -73.5 -180.5t-185.5 -69.5q-129 0 -220 101l87 78q59 -66 133 -66q62 0 98 37.5t36 101.5v29q-52 -73 -149 -73q-95 0 -160 72t-66 185q0 113 65 188t162 75q96 0 148 -74v61zM299 113q54 0 89.5 38.5t35.5 101.5q0 62 -36 101t-91 39
q-54 -1 -89 -39.5t-35 -100.5t35.5 -101t90.5 -39z" />
    <glyph glyph-name="h" unicode="h" horiz-adv-x="605" 
d="M349 514q84 0 136.5 -63.5t52.5 -160.5v-290h-125v264q0 60 -28.5 95.5t-74.5 35.5q-49 0 -81.5 -39t-32.5 -94v-262h-124v700h124v-263q56 77 153 77z" />
    <glyph glyph-name="i" unicode="i" horiz-adv-x="304" 
d="M153 568q-33 0 -56 21.5t-23 53.5t23 53.5t56 21.5q32 0 54.5 -21.5t22.5 -53.5t-22.5 -53.5t-54.5 -21.5zM88 500h128v-500h-128v500z" />
    <glyph glyph-name="j" unicode="j" horiz-adv-x="324" 
d="M172 568q-33 0 -55.5 21.5t-22.5 53.5t22.5 53.5t55.5 21.5q32 0 55 -21.5t23 -53.5t-23 -53.5t-55 -21.5zM108 -23v523h127v-539q0 -161 -161 -161h-84v117h63q55 0 55 60z" />
    <glyph glyph-name="k" unicode="k" horiz-adv-x="562" 
d="M407 0l-141 211l-69 -69v-142h-125v700h125v-401l193 201h162l-195 -196l197 -304h-147z" />
    <glyph glyph-name="l" unicode="l" horiz-adv-x="284" 
d="M79 700h127v-700h-127v700z" />
    <glyph glyph-name="m" unicode="m" horiz-adv-x="897" 
d="M646 514q82 0 133 -63.5t51 -158.5v-292h-125v271q0 57 -25.5 90.5t-67.5 33.5q-43 0 -71 -34t-28 -90v-271h-125v271q0 57 -26 90.5t-68 33.5q-43 0 -70 -34t-27 -90v-271h-125v500h125v-64q50 78 138 78q95 0 146 -92q26 40 69 66t96 26z" />
    <glyph glyph-name="n" unicode="n" horiz-adv-x="605" 
d="M349 514q84 0 136.5 -63.5t52.5 -160.5v-290h-125v264q0 60 -28.5 95.5t-74.5 35.5q-49 0 -81.5 -39t-32.5 -94v-262h-124v500h124v-63q56 77 153 77z" />
    <glyph glyph-name="o" unicode="o" horiz-adv-x="614" 
d="M308 -13q-110 0 -187 76.5t-77 186.5t77 186.5t187 76.5q109 0 185.5 -77t76.5 -186t-76.5 -186t-185.5 -77zM308 108q57 0 96 41t39 101q0 61 -39 101.5t-96 40.5q-59 0 -98 -40.5t-39 -101.5t39 -101.5t98 -40.5z" />
    <glyph glyph-name="p" unicode="p" horiz-adv-x="629" 
d="M345 513q97 0 162 -75t65 -188q-1 -114 -66.5 -188.5t-161.5 -74.5q-95 0 -147 73v-260h-125v700h125v-60q51 73 148 73zM320 107q54 0 89.5 40.5t35.5 103.5q0 61 -35 101t-89 41q-55 0 -91 -40t-36 -103q0 -64 36 -103.5t90 -39.5z" />
    <glyph glyph-name="q" unicode="q" horiz-adv-x="618" 
d="M421 500h125v-700h-125v260q-52 -73 -148 -73t-161 74.5t-66 188.5q0 113 65 188t162 75q96 0 148 -74v61zM298 107q54 0 90 39.5t36 103.5q0 63 -36 103t-91 40q-54 -1 -89 -41t-35 -101q0 -63 35.5 -103.5t89.5 -40.5z" />
    <glyph glyph-name="r" unicode="r" horiz-adv-x="384" 
d="M196 437q56 74 160 74v-122q-80 0 -120 -35t-40 -92v-262h-124v500h124v-63z" />
    <glyph glyph-name="s" unicode="s" horiz-adv-x="482" 
d="M438 148q0 -74 -59 -118t-145 -44q-80 0 -135.5 39t-69.5 104l106 32q8 -31 35 -49.5t68 -18.5q34 0 57 12.5t23 31.5q0 20 -24.5 33t-74.5 26q-34 9 -57 17.5t-52 26t-44.5 46t-15.5 67.5q0 73 54.5 116.5t135.5 43.5q75 0 126.5 -39t65.5 -104l-102 -32q-8 30 -32 49.5
t-59 19.5q-29 0 -49 -13t-20 -33q0 -19 20.5 -30.5t63.5 -23.5q26 -7 36.5 -10t38 -12.5t42 -20t33 -27t26.5 -39t8 -50.5z" />
    <glyph glyph-name="t" unicode="t" horiz-adv-x="409" 
d="M363 388h-117v-211q0 -60 55 -60h62v-117h-81q-161 0 -161 161v227h-90v112h90v124l125 39v-163h117v-112z" />
    <glyph glyph-name="u" unicode="u" horiz-adv-x="604" 
d="M409 500h124v-500h-124v64q-56 -78 -153 -78q-84 0 -136.5 63.5t-52.5 160.5v290h125v-264q0 -60 28.5 -95.5t74.5 -35.5q49 0 81.5 39t32.5 94v262z" />
    <glyph glyph-name="v" unicode="v" horiz-adv-x="549" 
d="M395 500h131l-180 -500h-143l-180 500h130l121 -353z" />
    <glyph glyph-name="w" unicode="w" horiz-adv-x="868" 
d="M714 500h127l-150 -500h-149l-107 358l-108 -358h-149l-150 500h126l99 -357l108 357h146l108 -357z" />
    <glyph glyph-name="x" unicode="x" horiz-adv-x="557" 
d="M531 500l-170 -250l170 -250h-146l-106 164l-107 -164h-146l170 250l-170 250h146l107 -164l106 164h146z" />
    <glyph glyph-name="y" unicode="y" horiz-adv-x="586" 
d="M432 500h130l-289 -700h-133l94 226l-211 474h136l141 -317z" />
    <glyph glyph-name="z" unicode="z" horiz-adv-x="490" 
d="M216 119h227v-119h-392v99l222 282h-222v119h387v-99z" />
    <glyph glyph-name="braceleft" unicode="{" horiz-adv-x="484" 
d="M301 423q0 -128 -105 -162q105 -34 105 -161v-84q0 -76 67 -76h65v-118h-67q-95 0 -145.5 51t-50.5 146v82q0 97 -80 97h-39v126h39q80 0 80 98v82q0 94 51 145t145 51h67v-117h-65q-67 0 -67 -76v-84z" />
    <glyph glyph-name="bar" unicode="|" horiz-adv-x="227" 
d="M166 -131h-106v833h106v-833z" />
    <glyph glyph-name="braceright" unicode="}" horiz-adv-x="482" 
d="M393 324h39v-126h-39q-80 0 -80 -97v-82q0 -95 -50.5 -146t-145.5 -51h-67v118h65q67 0 67 76v84q0 127 105 161q-105 34 -105 162v84q0 76 -67 76h-65v117h67q95 0 145.5 -51t50.5 -145v-82q0 -98 80 -98z" />
    <glyph glyph-name="asciitilde" unicode="~" horiz-adv-x="635" 
d="M544 342l43 -42q-63 -102 -152 -102q-33 0 -59 9.5t-72 34.5q-62 34 -102 34q-34 0 -59.5 -19.5t-54.5 -57.5l-43 43q27 45 71 73.5t92 28.5q15 0 29 -2t29.5 -8t21.5 -8.5t24 -12t19 -10.5q27 -15 37.5 -20.5t28.5 -11t37 -5.5q33 0 58.5 18t51.5 58z" />
    <glyph glyph-name="exclamdown" unicode="&#xa1;" horiz-adv-x="302" 
d="M152 457q8 0 13.5 -6t5.5 -14q0 -7 -5.5 -13t-13.5 -6q-9 0 -15 5.5t-6 13.5t6 14t15 6zM103 296h96l30 -476h-156z" />
    <glyph glyph-name="cent" unicode="&#xa2;" horiz-adv-x="560" 
d="M413 266l114 -50q-33 -65 -95.5 -104.5t-137.5 -39.5h-12l-23 -123l-82 15l23 125q-75 29 -120.5 95.5t-45.5 150.5q0 111 75 187.5t185 76.5l22 121l82 -14l-22 -120q101 -34 150 -130l-113 -50q-21 39 -59 58l-50 -271q35 3 64 22.5t45 50.5zM161 335q0 -82 62 -121
l48 262q-49 -8 -79.5 -47t-30.5 -94z" />
    <glyph glyph-name="sterling" unicode="&#xa3;" horiz-adv-x="621" 
d="M479 180l112 -51q-23 -59 -74 -94t-115 -35h-352v117h23q45 0 64 23.5t19 68.5v74h-106v114h106v77q0 97 59.5 159.5t147.5 62.5q64 0 115.5 -35t73.5 -94l-110 -49q-7 27 -29 44t-49 17q-37 0 -60 -29.5t-23 -75.5v-77h193v-114h-193v-69q0 -61 -30 -97h151
q27 0 47.5 17.5t29.5 45.5z" />
    <glyph glyph-name="currency" unicode="&#xa4;" horiz-adv-x="569" 
d="M470 326q0 -60 -33 -107l72 -72l-46 -47l-73 73q-47 -33 -104 -33t-106 34l-74 -74l-46 47l73 73q-33 49 -33 106t33 104l-73 73l46 47l74 -74q48 34 106 34t105 -33l72 73l46 -47l-72 -72q33 -47 33 -105zM165 326q0 -50 36 -84.5t85 -34.5q48 0 82.5 34.5t34.5 84.5
q0 49 -34.5 83.5t-82.5 34.5q-49 0 -85 -34.5t-36 -83.5z" />
    <glyph glyph-name="yen" unicode="&#xa5;" horiz-adv-x="729" 
d="M658 680l-198 -296h110v-102h-141v-58h141v-102h-141v-122h-129v122h-141v102h141v58h-141v102h109l-198 296h154l140 -217l140 217h154z" />
    <glyph glyph-name="brokenbar" unicode="&#xa6;" horiz-adv-x="318" 
d="M114 727h89v-377h-89v377zM114 188h89v-375h-89v375z" />
    <glyph glyph-name="section" unicode="&#xa7;" horiz-adv-x="520" 
d="M375 197q66 -42 66 -116q0 -72 -54 -115.5t-134 -43.5q-75 0 -128 39t-67 104l102 32q8 -30 32.5 -49t59.5 -19q29 0 48.5 12.5t19.5 31.5q0 34 -85 55q-101 25 -144 55q-62 43 -62 110q0 49 29.5 81t70.5 47q-64 44 -64 115q0 73 53.5 116.5t133.5 43.5q75 0 127.5 -39
t67.5 -104l-102 -32q-8 30 -32.5 49t-59.5 19q-29 0 -48.5 -12.5t-19.5 -31.5q0 -34 85 -55q101 -25 144 -55q62 -43 62 -110q0 -49 -29.5 -81t-71.5 -47zM255 255q45 0 73.5 15t28.5 39t-30 39t-75 15t-74 -15t-29 -39t30.5 -39t75.5 -15z" />
    <glyph glyph-name="copyright" unicode="&#xa9;" horiz-adv-x="858" 
d="M431 -34q-157 0 -266 109t-109 265t109 265t266 109q155 0 263.5 -109t108.5 -265t-108.5 -265t-263.5 -109zM431 37q126 0 213 88.5t87 215.5t-87 215t-213 88q-128 0 -216 -87.5t-88 -215.5t88 -216t216 -88zM522 278l65 -39q-26 -39 -67.5 -61.5t-88.5 -22.5
q-77 0 -128 53.5t-51 131.5t51 131.5t128 53.5q47 0 88.5 -22.5t67.5 -61.5l-65 -39q-33 49 -89 49q-43 0 -72 -32t-29 -79t29 -79t72 -32q56 0 89 49z" />
    <glyph glyph-name="guillemotleft" unicode="&#xab;" horiz-adv-x="696" 
d="M369 465l-166 -185l166 -185h-143l-166 185l166 185h143zM621 465l-166 -185l166 -185h-143l-166 185l166 185h143z" />
    <glyph glyph-name="logicalnot" unicode="&#xac;" horiz-adv-x="635" 
d="M579 103h-73v242h-451v69h524v-311z" />
    <glyph glyph-name="registered" unicode="&#xae;" horiz-adv-x="540" 
d="M271 716q85 0 147 -62t62 -147q0 -87 -61.5 -149t-147.5 -62q-87 0 -149 62t-62 149q0 86 62 147.5t149 61.5zM271 343q67 0 114.5 48t47.5 116q0 66 -48 114t-114 48q-67 0 -115.5 -48t-48.5 -114q0 -67 48.5 -115.5t115.5 -48.5zM356 542q0 -39 -36 -55l44 -77h-47
l-41 71h-38v-71h-41v192h93q28 0 47 -17t19 -43zM238 562v-43h52q11 0 18 6t7 15q0 10 -7 16t-18 6h-52z" />
    <glyph glyph-name="degree" unicode="&#xb0;" horiz-adv-x="400" 
d="M195 701h1q66 0 109.5 -44.5t43.5 -110.5q0 -71 -44 -112.5t-110 -41.5q-65 0 -109 41.5t-44 112.5q0 69 44.5 112t108.5 43zM194 653h-1q-39 0 -64 -29.5t-25 -77.5q0 -46 25.5 -76.5t66.5 -30.5q42 0 66.5 29t24.5 76t-24 78t-69 31z" />
    <glyph glyph-name="plusminus" unicode="&#xb1;" horiz-adv-x="587" 
d="M347 459h149v-107h-149v-93h-107v93h-149v107h149v114h107v-114zM91 107v106h405v-106h-405z" />
    <glyph glyph-name="paragraph" unicode="&#xb6;" horiz-adv-x="613" 
d="M362 -51h-81v325h-15q-57 0 -105.5 20.5t-82 68.5t-33.5 115q0 235 336 235q98 0 146 -10v-754h-81v690h-84v-690z" />
    <glyph glyph-name="periodcentered" unicode="&#xb7;" horiz-adv-x="290" 
d="M146 262q-8 0 -13.5 5.5t-5.5 13.5q0 7 5.5 12.5t13.5 5.5q7 0 12.5 -5.5t5.5 -12.5q0 -8 -5.5 -13.5t-12.5 -5.5z" />
    <glyph glyph-name="guillemotright" unicode="&#xbb;" horiz-adv-x="696" 
d="M218 465l166 -185l-166 -185h-143l166 185l-166 185h143zM470 465l166 -185l-166 -185h-143l166 185l-166 185h143z" />
    <glyph glyph-name="onequarter" unicode="&#xbc;" horiz-adv-x="970" 
d="M658 700l60 -38l-447 -682l-60 38zM268 240h-102v309q-43 -36 -121 -35v93q70 4 96 22t25 60h102v-449zM925 183v-87h-66v-96h-95v96h-209v73l145 280h106l-139 -266h97v121h95v-121h66z" />
    <glyph glyph-name="onehalf" unicode="&#xbd;" horiz-adv-x="977" 
d="M658 700l60 -38l-447 -682l-60 38zM268 240h-102v309q-43 -36 -121 -35v93q70 4 96 22t25 60h102v-449zM768 95h164v-95h-315v74l182 191q24 25 24 51q0 20 -16 34t-39 14q-27 0 -45.5 -21.5t-16.5 -51.5l-95 16q1 64 47 108t110 44q63 0 109 -41t46 -99q0 -64 -58 -125z
" />
    <glyph glyph-name="threequarters" unicode="&#xbe;" horiz-adv-x="1018" 
d="M386 367q0 -59 -48 -98t-119 -39q-66 0 -113 36t-61 96l95 28q5 -29 26 -47t52 -18q29 0 49 15t20 37t-22.5 36.5t-60.5 14.5h-52v82h52q34 0 53.5 13t19.5 35q0 20 -17.5 33.5t-43.5 13.5q-29 0 -47.5 -17.5t-23.5 -46.5l-95 26q14 61 59 97t109 36q67 0 113 -38t46 -96
q0 -63 -57 -96q66 -35 66 -103zM706 700l60 -38l-447 -682l-60 38zM973 183v-87h-66v-96h-95v96h-209v73l145 280h106l-139 -266h97v121h95v-121h66z" />
    <glyph glyph-name="questiondown" unicode="&#xbf;" horiz-adv-x="578" 
d="M319 513q32 0 55 -23t23 -55t-23 -54.5t-55 -22.5t-55 22.5t-23 54.5t23 55t55 23zM252 294h135v-24q0 -65 -26.5 -102t-81.5 -63q-52 -24 -75 -43.5t-23 -49.5q0 -38 29.5 -61t78.5 -23q47 0 80.5 27.5t43.5 76.5l125 -35q-25 -91 -92.5 -143t-158.5 -52
q-102 0 -170 57.5t-68 147.5q0 120 129 184q44 21 59 36.5t15 50.5v16z" />
    <glyph glyph-name="Agrave" unicode="&#xc0;" horiz-adv-x="758" 
d="M441 741h-95l-93 107l117 56zM592 0l-62 151h-303l-61 -151h-139l283 680h135l287 -680h-140zM274 266h209l-105 256z" />
    <glyph glyph-name="Aacute" unicode="&#xc1;" horiz-adv-x="758" 
d="M518 848l-93 -107h-95l71 163zM592 0l-62 151h-303l-61 -151h-139l283 680h135l287 -680h-140zM274 266h209l-105 256z" />
    <glyph glyph-name="Acircumflex" unicode="&#xc2;" horiz-adv-x="758" 
d="M380 794l-107 -79l-50 50l108 115h97l108 -115l-50 -50zM592 0l-62 151h-303l-61 -151h-139l283 680h135l287 -680h-140zM274 266h209l-105 256z" />
    <glyph glyph-name="Atilde" unicode="&#xc3;" horiz-adv-x="758" 
d="M281 746h-75q-4 59 29 96.5t83 37.5q40 0 89 -35q25 -18 42 -18q30 0 30 43h75q4 -60 -29.5 -97.5t-84.5 -37.5q-17 0 -33.5 6t-23.5 10t-29 19q-26 18 -43 18q-30 0 -30 -42zM592 0l-62 151h-303l-61 -151h-139l283 680h135l287 -680h-140zM274 266h209l-105 256z" />
    <glyph glyph-name="Adieresis" unicode="&#xc4;" horiz-adv-x="758" 
d="M358 730q-32 0 -55.5 23t-23.5 55q0 31 23.5 54t55.5 23q12 0 22 -3q10 3 23 3q32 0 55 -23t23 -54q0 -32 -23 -55t-55 -23q-13 0 -23 3q-11 -3 -22 -3zM592 0l-62 151h-303l-61 -151h-139l283 680h135l287 -680h-140zM274 266h209l-105 256z" />
    <glyph glyph-name="Aring" unicode="&#xc5;" horiz-adv-x="758" 
d="M592 0l-62 151h-303l-61 -151h-139l282 678q-30 30 -30 71q0 40 29.5 69t70.5 29q40 0 69.5 -29t29.5 -69q0 -43 -32 -72l286 -677h-140zM379 796q-20 0 -34.5 -14t-14.5 -33q0 -20 14.5 -34t34.5 -14t34 14t14 34q0 19 -14.5 33t-33.5 14zM274 266h209l-105 256z" />
    <glyph glyph-name="AE" unicode="&#xc6;" horiz-adv-x="974" 
d="M920 557h-323v-158h202v-118h-202v-158h323v-123h-451v152h-240l-62 -153h-140l283 680h45v1h565v-123zM469 267v290h-76l-117 -290h193z" />
    <glyph glyph-name="Ccedilla" unicode="&#xc7;" horiz-adv-x="757" 
d="M413 110q62 0 113.5 30.5t80.5 84.5l111 -66q-42 -72 -113 -118t-154 -55l-56 -143l-112 56l70 90q-128 21 -212.5 119.5t-84.5 231.5q0 149 104 252.5t253 103.5q95 0 176.5 -47t128.5 -128l-111 -66q-29 54 -80.5 84t-113.5 30q-96 0 -161 -66t-65 -163t65 -163.5
t161 -66.5z" />
    <glyph glyph-name="Egrave" unicode="&#xc8;" horiz-adv-x="600" 
d="M379 741h-95l-93 107l117 56zM546 557h-331v-158h228v-118h-228v-158h331v-123h-459v680h459v-123z" />
    <glyph glyph-name="Eacute" unicode="&#xc9;" horiz-adv-x="600" 
d="M456 848l-93 -107h-95l71 163zM546 557h-331v-158h228v-118h-228v-158h331v-123h-459v680h459v-123z" />
    <glyph glyph-name="Ecircumflex" unicode="&#xca;" horiz-adv-x="600" 
d="M318 794l-107 -79l-50 50l108 115h97l108 -115l-50 -50zM546 557h-331v-158h228v-118h-228v-158h331v-123h-459v680h459v-123z" />
    <glyph glyph-name="Edieresis" unicode="&#xcb;" horiz-adv-x="600" 
d="M296 730q-32 0 -55.5 23t-23.5 55q0 31 23.5 54t55.5 23q12 0 22 -3q11 3 23 3q32 0 55 -23t23 -54q0 -32 -23 -55t-55 -23q-13 0 -23 3q-10 -3 -22 -3zM546 557h-331v-158h228v-118h-228v-158h331v-123h-459v680h459v-123z" />
    <glyph glyph-name="Igrave" unicode="&#xcc;" horiz-adv-x="317" 
d="M149 904l71 -163h-95l-93 107zM94 680h130v-680h-130v680z" />
    <glyph glyph-name="Iacute" unicode="&#xcd;" horiz-adv-x="317" 
d="M180 904l117 -56l-93 -107h-95zM94 680h130v-680h-130v680z" />
    <glyph glyph-name="Icircumflex" unicode="&#xce;" horiz-adv-x="317" 
d="M207 880l108 -115l-50 -50l-106 79l-107 -79l-50 50l108 115h97zM94 0v680h130v-680h-130z" />
    <glyph glyph-name="Idieresis" unicode="&#xcf;" horiz-adv-x="317" 
d="M182 885q32 0 55 -23t23 -54q0 -32 -23 -55t-55 -23q-12 0 -23 3q-10 -3 -22 -3q-32 0 -55.5 23t-23.5 55q0 31 23.5 54t55.5 23q11 0 22 -3q11 3 23 3zM94 0v680h130v-680h-130z" />
    <glyph glyph-name="Eth" unicode="&#xd0;" horiz-adv-x="752" 
d="M333 680q156 0 260 -96.5t104 -243.5t-104 -243.5t-260 -96.5h-246v289h-79v102h79v289h246zM332 123q104 0 169.5 60t65.5 157t-65.5 157t-169.5 60h-116v-166h192v-102h-192v-166h116z" />
    <glyph glyph-name="Ntilde" unicode="&#xd1;" horiz-adv-x="758" 
d="M280 746h-75q-4 59 29 96.5t83 37.5q40 0 89 -35q25 -18 42 -18q30 0 30 43h75q4 -60 -29.5 -97.5t-84.5 -37.5q-17 0 -33.5 6t-23.5 10t-29 19q-26 18 -43 18q-30 0 -30 -42zM543 680h128v-680h-105l-351 453v-453h-128v680h104l352 -455v455z" />
    <glyph glyph-name="Ograve" unicode="&#xd2;" horiz-adv-x="822" 
d="M402 909l71 -163h-95l-93 107zM413 -16q-149 0 -253 103.5t-104 252.5t104 252.5t253 103.5q147 0 250.5 -104t103.5 -252t-103.5 -252t-250.5 -104zM413 110q94 0 158.5 66.5t64.5 163.5t-64.5 163t-158.5 66q-96 0 -161 -66t-65 -163t65 -163.5t161 -66.5z" />
    <glyph glyph-name="Oacute" unicode="&#xd3;" horiz-adv-x="822" 
d="M433 909l117 -56l-93 -107h-95zM413 -16q-149 0 -253 103.5t-104 252.5t104 252.5t253 103.5q147 0 250.5 -104t103.5 -252t-103.5 -252t-250.5 -104zM413 110q94 0 158.5 66.5t64.5 163.5t-64.5 163t-158.5 66q-96 0 -161 -66t-65 -163t65 -163.5t161 -66.5z" />
    <glyph glyph-name="Ocircumflex" unicode="&#xd4;" horiz-adv-x="822" 
d="M412 799l-107 -79l-50 50l108 115h97l108 -115l-50 -50zM413 696q147 0 250.5 -104t103.5 -252t-103.5 -252t-250.5 -104q-149 0 -253 103.5t-104 252.5t104 252.5t253 103.5zM413 110q94 0 158.5 66.5t64.5 163.5t-64.5 163t-158.5 66q-96 0 -161 -66t-65 -163
t65 -163.5t161 -66.5z" />
    <glyph glyph-name="Otilde" unicode="&#xd5;" horiz-adv-x="822" 
d="M511 875h75q4 -60 -29.5 -97.5t-84.5 -37.5q-17 0 -33.5 6t-23.5 10t-29 19q-26 18 -43 18q-30 0 -30 -42h-75q-4 59 29 96.5t83 37.5q40 0 89 -35q25 -18 42 -18q30 0 30 43zM413 -16q-149 0 -253 103.5t-104 252.5t104 252.5t253 103.5q147 0 250.5 -104t103.5 -252
t-103.5 -252t-250.5 -104zM413 110q94 0 158.5 66.5t64.5 163.5t-64.5 163t-158.5 66q-96 0 -161 -66t-65 -163t65 -163.5t161 -66.5z" />
    <glyph glyph-name="Odieresis" unicode="&#xd6;" horiz-adv-x="822" 
d="M390 735q-32 0 -55.5 23t-23.5 55q0 31 23.5 54t55.5 23q12 0 22 -3q10 3 23 3q32 0 55 -23t23 -54q0 -32 -23 -55t-55 -23q-13 0 -23 3q-11 -3 -22 -3zM413 696q147 0 250.5 -104t103.5 -252t-103.5 -252t-250.5 -104q-149 0 -253 103.5t-104 252.5t104 252.5t253 103.5
zM413 110q94 0 158.5 66.5t64.5 163.5t-64.5 163t-158.5 66q-96 0 -161 -66t-65 -163t65 -163.5t161 -66.5z" />
    <glyph glyph-name="multiply" unicode="&#xd7;" horiz-adv-x="525" 
d="M465 467l-127 -127l127 -127l-75 -76l-127 127l-127 -127l-76 76l127 127l-127 127l76 76l127 -127l127 127z" />
    <glyph glyph-name="Oslash" unicode="&#xd8;" horiz-adv-x="822" 
d="M767 620l-69 -69q69 -91 69 -211q0 -148 -103.5 -252t-250.5 -104q-119 0 -213 70l-66 -66l-72 72l65 65q-71 95 -71 215q0 149 104 252.5t253 103.5q120 0 214 -72l68 68zM187 340q0 -67 33 -122l316 315q-55 36 -123 36q-96 0 -161 -66t-65 -163zM636 340q0 65 -31 118
l-314 -313q56 -35 122 -35q94 0 158.5 66.5t64.5 163.5z" />
    <glyph glyph-name="Ugrave" unicode="&#xd9;" horiz-adv-x="734" 
d="M357 904l71 -163h-95l-93 107zM528 680h130v-381q0 -142 -80 -228.5t-211 -86.5t-211 86.5t-80 228.5v381h130v-380q0 -87 44 -139.5t117 -52.5t117 52.5t44 139.5v380z" />
    <glyph glyph-name="Uacute" unicode="&#xda;" horiz-adv-x="734" 
d="M388 904l117 -56l-93 -107h-95zM528 680h130v-381q0 -142 -80 -228.5t-211 -86.5t-211 86.5t-80 228.5v381h130v-380q0 -87 44 -139.5t117 -52.5t117 52.5t44 139.5v380z" />
    <glyph glyph-name="Ucircumflex" unicode="&#xdb;" horiz-adv-x="734" 
d="M367 794l-107 -79l-50 50l108 115h97l108 -115l-50 -50zM528 680h130v-381q0 -142 -80 -228.5t-211 -86.5t-211 86.5t-80 228.5v381h130v-380q0 -87 44 -139.5t117 -52.5t117 52.5t44 139.5v380z" />
    <glyph glyph-name="Udieresis" unicode="&#xdc;" horiz-adv-x="734" 
d="M345 730q-32 0 -55.5 23t-23.5 55q0 31 23.5 54t55.5 23q11 0 22 -3q11 3 23 3q32 0 55 -23t23 -54q0 -32 -23 -55t-55 -23q-12 0 -23 3q-10 -3 -22 -3zM528 680h130v-381q0 -142 -80 -228.5t-211 -86.5t-211 86.5t-80 228.5v381h130v-380q0 -87 44 -139.5t117 -52.5
t117 52.5t44 139.5v380z" />
    <glyph glyph-name="Yacute" unicode="&#xdd;" horiz-adv-x="696" 
d="M491 848l-93 -107h-95l71 163zM682 680l-269 -403v-277h-129v276l-269 404h154l179 -278l180 278h154z" />
    <glyph glyph-name="Thorn" unicode="&#xde;" horiz-adv-x="670" 
d="M384 551q98 0 164 -60.5t66 -149.5t-65.5 -150.5t-164.5 -61.5h-168v-129h-129v680h129v-129h168zM384 252q45 0 73.5 25.5t28.5 62.5q0 39 -28.5 64t-73.5 25h-168v-177h168z" />
    <glyph glyph-name="germandbls" unicode="&#xdf;" horiz-adv-x="590" 
d="M449 353q104 -54 104 -160q0 -87 -71 -147.5t-173 -60.5q-29 0 -63 8v133q28 -17 63 -17q49 0 82 26.5t33 65.5q0 40 -33.5 68t-82.5 28h-62v108h62q43 0 72.5 26.5t29.5 64.5q0 36 -29.5 61t-72.5 25q-47 0 -78 -32.5t-31 -91.5v-459h-124v459q0 112 69 179.5t165 67.5
t163 -59t67 -143q0 -98 -90 -150z" />
    <glyph glyph-name="agrave" unicode="&#xe0;" horiz-adv-x="545" 
d="M329 561h-95l-93 107l117 56zM264 513q93 0 154 -58.5t61 -151.5v-303h-122v58q-29 -31 -71 -50.5t-88 -20.5q-67 0 -113.5 41.5t-46.5 110.5q0 66 45 106.5t124 56.5l147 28q-8 33 -31.5 53.5t-58.5 20.5t-67 -19t-53 -49l-92 67q35 50 93 80t119 30zM231 93
q50 0 88 33.5t38 82.5v23l-128 -25q-69 -16 -69 -61q0 -23 19.5 -38t51.5 -15z" />
    <glyph glyph-name="aacute" unicode="&#xe1;" horiz-adv-x="545" 
d="M406 668l-93 -107h-95l71 163zM264 513q93 0 154 -58.5t61 -151.5v-303h-122v58q-29 -31 -71 -50.5t-88 -20.5q-67 0 -113.5 41.5t-46.5 110.5q0 66 45 106.5t124 56.5l147 28q-8 33 -31.5 53.5t-58.5 20.5t-67 -19t-53 -49l-92 67q35 50 93 80t119 30zM231 93
q50 0 88 33.5t38 82.5v23l-128 -25q-69 -16 -69 -61q0 -23 19.5 -38t51.5 -15z" />
    <glyph glyph-name="acircumflex" unicode="&#xe2;" horiz-adv-x="545" 
d="M268 614l-107 -79l-50 50l108 115h97l108 -115l-50 -50zM264 513q93 0 154 -58.5t61 -151.5v-303h-122v58q-29 -31 -71 -50.5t-88 -20.5q-67 0 -113.5 41.5t-46.5 110.5q0 66 45 106.5t124 56.5l147 28q-8 33 -31.5 53.5t-58.5 20.5t-67 -19t-53 -49l-92 67q35 50 93 80
t119 30zM231 93q50 0 88 33.5t38 82.5v23l-128 -25q-69 -16 -69 -61q0 -23 19.5 -38t51.5 -15z" />
    <glyph glyph-name="atilde" unicode="&#xe3;" horiz-adv-x="545" 
d="M169 566h-75q-4 59 29 96.5t83 37.5q40 0 89 -35q25 -18 42 -18q30 0 30 43h75q4 -60 -29.5 -97.5t-84.5 -37.5q-17 0 -33.5 6t-23.5 10t-29 19q-26 18 -43 18q-30 0 -30 -42zM264 513q93 0 154 -58.5t61 -151.5v-303h-122v58q-29 -31 -71 -50.5t-88 -20.5
q-67 0 -113.5 41.5t-46.5 110.5q0 66 45 106.5t124 56.5l147 28q-8 33 -31.5 53.5t-58.5 20.5t-67 -19t-53 -49l-92 67q35 50 93 80t119 30zM231 93q50 0 88 33.5t38 82.5v23l-128 -25q-69 -16 -69 -61q0 -23 19.5 -38t51.5 -15z" />
    <glyph glyph-name="adieresis" unicode="&#xe4;" horiz-adv-x="545" 
d="M246 550q-32 0 -55.5 23t-23.5 55q0 31 23.5 54t55.5 23q12 0 22 -3q10 3 23 3q32 0 55 -23t23 -54q0 -32 -23 -55t-55 -23q-13 0 -23 3q-11 -3 -22 -3zM264 513q93 0 154 -58.5t61 -151.5v-303h-122v58q-29 -31 -71 -50.5t-88 -20.5q-67 0 -113.5 41.5t-46.5 110.5
q0 66 45 106.5t124 56.5l147 28q-8 33 -31.5 53.5t-58.5 20.5t-67 -19t-53 -49l-92 67q35 50 93 80t119 30zM231 93q50 0 88 33.5t38 82.5v23l-128 -25q-69 -16 -69 -61q0 -23 19.5 -38t51.5 -15z" />
    <glyph glyph-name="aring" unicode="&#xe5;" horiz-adv-x="545" 
d="M269 542q-41 0 -70.5 29t-29.5 70q0 40 29.5 69t70.5 29q40 0 69.5 -29t29.5 -69q0 -41 -29 -70t-70 -29zM269 688q-20 0 -34.5 -14t-14.5 -33q0 -20 14.5 -34t34.5 -14t34 14t14 34q0 19 -14.5 33t-33.5 14zM264 513q93 0 154 -58.5t61 -151.5v-303h-122v58
q-29 -31 -71 -50.5t-88 -20.5q-67 0 -113.5 41.5t-46.5 110.5q0 66 45 106.5t124 56.5l147 28q-8 33 -31.5 53.5t-58.5 20.5t-67 -19t-53 -49l-92 67q35 50 93 80t119 30zM231 93q50 0 88 33.5t38 82.5v23l-128 -25q-69 -16 -69 -61q0 -23 19.5 -38t51.5 -15z" />
    <glyph glyph-name="ae" unicode="&#xe6;" horiz-adv-x="886" 
d="M838 292q5 -43 -1 -92h-352q22 -99 120 -99q87 0 126 69l98 -56q-32 -58 -93.5 -92.5t-132.5 -34.5q-125 0 -195 100q-30 -44 -83 -72t-115 -28q-75 0 -123.5 41t-48.5 111q0 66 45 106.5t124 56.5l147 28q-8 33 -31.5 53.5t-58.5 20.5t-67 -19t-53 -49l-92 67
q36 50 93.5 80t121.5 30q102 0 164 -72q69 72 174 72q92 0 156.5 -57.5t76.5 -163.5zM601 399q-96 0 -116 -101h229q-4 48 -36 74.5t-77 26.5zM230 93q50 0 89.5 38t39.5 102l-130 -26q-32 -7 -50.5 -23t-18.5 -38q0 -23 19.5 -38t50.5 -15z" />
    <glyph glyph-name="ccedilla" unicode="&#xe7;" horiz-adv-x="560" 
d="M527 131q-28 -57 -79.5 -94.5t-115.5 -46.5l-57 -147l-112 56l74 94q-89 20 -146 91.5t-57 165.5q0 111 75 187.5t185 76.5q75 0 137 -39t95 -104l-113 -50q-18 34 -49.5 53t-69.5 19q-57 0 -95 -41t-38 -102q0 -60 38 -101t95 -41q37 0 69 19.5t50 53.5z" />
    <glyph glyph-name="egrave" unicode="&#xe8;" horiz-adv-x="571" 
d="M349 561h-95l-93 107l117 56zM524 292q5 -43 -1 -92h-352q22 -99 120 -99q41 0 74.5 19t50.5 50l98 -56q-31 -58 -93 -92.5t-132 -34.5q-107 0 -176 75.5t-69 187.5t69 187.5t177 75.5q92 0 157 -57.5t77 -163.5zM286 399q-95 0 -115 -101h229q-4 48 -36 74.5t-78 26.5z
" />
    <glyph glyph-name="eacute" unicode="&#xe9;" horiz-adv-x="571" 
d="M426 668l-93 -107h-95l71 163zM524 292q5 -43 -1 -92h-352q22 -99 120 -99q41 0 74.5 19t50.5 50l98 -56q-31 -58 -93 -92.5t-132 -34.5q-107 0 -176 75.5t-69 187.5t69 187.5t177 75.5q92 0 157 -57.5t77 -163.5zM286 399q-95 0 -115 -101h229q-4 48 -36 74.5t-78 26.5z
" />
    <glyph glyph-name="ecircumflex" unicode="&#xea;" horiz-adv-x="571" 
d="M288 614l-107 -79l-50 50l108 115h97l108 -115l-50 -50zM524 292q5 -43 -1 -92h-352q22 -99 120 -99q41 0 74.5 19t50.5 50l98 -56q-31 -58 -93 -92.5t-132 -34.5q-107 0 -176 75.5t-69 187.5t69 187.5t177 75.5q92 0 157 -57.5t77 -163.5zM286 399q-95 0 -115 -101h229
q-4 48 -36 74.5t-78 26.5z" />
    <glyph glyph-name="edieresis" unicode="&#xeb;" horiz-adv-x="571" 
d="M266 550q-32 0 -55.5 23t-23.5 55q0 31 23.5 54t55.5 23q12 0 22 -3q10 3 23 3q32 0 55 -23t23 -54q0 -32 -23 -55t-55 -23q-13 0 -23 3q-10 -3 -22 -3zM524 292q5 -43 -1 -92h-352q22 -99 120 -99q41 0 74.5 19t50.5 50l98 -56q-31 -58 -93 -92.5t-132 -34.5
q-107 0 -176 75.5t-69 187.5t69 187.5t177 75.5q92 0 157 -57.5t77 -163.5zM286 399q-95 0 -115 -101h229q-4 48 -36 74.5t-78 26.5z" />
    <glyph glyph-name="igrave" unicode="&#xec;" horiz-adv-x="276" 
d="M128 724l71 -163h-95l-93 107zM74 500h128v-500h-128v500z" />
    <glyph glyph-name="iacute" unicode="&#xed;" horiz-adv-x="276" 
d="M159 724l117 -56l-93 -107h-95zM74 500h128v-500h-128v500z" />
    <glyph glyph-name="icircumflex" unicode="&#xee;" horiz-adv-x="276" 
d="M186 700l108 -115l-50 -50l-106 79l-107 -79l-50 50l108 115h97zM74 0v500h128v-500h-128z" />
    <glyph glyph-name="idieresis" unicode="&#xef;" horiz-adv-x="276" 
d="M161 705q32 0 55 -23t23 -54q0 -32 -23 -55t-55 -23q-13 0 -23 3q-10 -3 -22 -3q-32 0 -55.5 23t-23.5 55q0 31 23.5 54t55.5 23q11 0 22 -3q11 3 23 3zM74 0v500h128v-500h-128z" />
    <glyph glyph-name="eth" unicode="&#xf0;" horiz-adv-x="547" 
d="M395 551q116 -174 116 -308q0 -115 -69.5 -186t-170.5 -71q-98 0 -166 66.5t-68 162.5q0 94 63.5 157t154.5 63q44 0 81 -16q-25 48 -55 90l-126 -46l-30 81l103 37q-35 43 -70 78l91 72q48 -50 94 -108l110 40l29 -80zM274 104q48 -2 81 31.5t32 82.5q0 49 -33.5 82
t-81.5 34q-48 0 -80 -33.5t-32 -81.5t32.5 -81t81.5 -34z" />
    <glyph glyph-name="ntilde" unicode="&#xf1;" horiz-adv-x="605" 
d="M202 566h-75q-4 59 29 96.5t83 37.5q40 0 89 -35q25 -18 42 -18q30 0 30 43h75q4 -60 -29.5 -97.5t-84.5 -37.5q-17 0 -33.5 6t-23.5 10t-29 19q-26 18 -43 18q-30 0 -30 -42zM349 514q84 0 136.5 -63.5t52.5 -160.5v-290h-125v264q0 60 -28.5 95.5t-74.5 35.5
q-49 0 -81.5 -39t-32.5 -94v-262h-124v500h124v-63q56 77 153 77z" />
    <glyph glyph-name="ograve" unicode="&#xf2;" horiz-adv-x="614" 
d="M299 724l71 -163h-95l-93 107zM308 -13q-110 0 -187 76.5t-77 186.5t77 186.5t187 76.5q109 0 185.5 -77t76.5 -186t-76.5 -186t-185.5 -77zM308 108q57 0 96 41t39 101q0 61 -39 101.5t-96 40.5q-59 0 -98 -40.5t-39 -101.5t39 -101.5t98 -40.5z" />
    <glyph glyph-name="oacute" unicode="&#xf3;" horiz-adv-x="614" 
d="M330 724l117 -56l-93 -107h-95zM308 -13q-110 0 -187 76.5t-77 186.5t77 186.5t187 76.5q109 0 185.5 -77t76.5 -186t-76.5 -186t-185.5 -77zM308 108q57 0 96 41t39 101q0 61 -39 101.5t-96 40.5q-59 0 -98 -40.5t-39 -101.5t39 -101.5t98 -40.5z" />
    <glyph glyph-name="ocircumflex" unicode="&#xf4;" horiz-adv-x="614" 
d="M309 614l-107 -79l-50 50l108 115h97l108 -115l-50 -50zM308 513q109 0 185.5 -77t76.5 -186t-76.5 -186t-185.5 -77q-110 0 -187 76.5t-77 186.5t77 186.5t187 76.5zM308 108q57 0 96 41t39 101q0 61 -39 101.5t-96 40.5q-59 0 -98 -40.5t-39 -101.5t39 -101.5t98 -40.5
z" />
    <glyph glyph-name="otilde" unicode="&#xf5;" horiz-adv-x="614" 
d="M408 690h75q4 -60 -29.5 -97.5t-84.5 -37.5q-17 0 -33.5 6t-23.5 10t-29 19q-26 18 -43 18q-30 0 -30 -42h-75q-4 59 29 96.5t83 37.5q40 0 89 -35q25 -18 42 -18q30 0 30 43zM308 -13q-110 0 -187 76.5t-77 186.5t77 186.5t187 76.5q109 0 185.5 -77t76.5 -186
t-76.5 -186t-185.5 -77zM308 108q57 0 96 41t39 101q0 61 -39 101.5t-96 40.5q-59 0 -98 -40.5t-39 -101.5t39 -101.5t98 -40.5z" />
    <glyph glyph-name="odieresis" unicode="&#xf6;" horiz-adv-x="614" 
d="M287 550q-32 0 -55.5 23t-23.5 55q0 31 23.5 54t55.5 23q11 0 22 -3q10 3 23 3q32 0 55 -23t23 -54q0 -32 -23 -55t-55 -23q-12 0 -23 3q-11 -3 -22 -3zM308 513q109 0 185.5 -77t76.5 -186t-76.5 -186t-185.5 -77q-110 0 -187 76.5t-77 186.5t77 186.5t187 76.5z
M308 108q57 0 96 41t39 101q0 61 -39 101.5t-96 40.5q-59 0 -98 -40.5t-39 -101.5t39 -101.5t98 -40.5z" />
    <glyph glyph-name="divide" unicode="&#xf7;" horiz-adv-x="587" 
d="M294 596q30 0 52.5 -22t22.5 -53t-22.5 -53t-52.5 -22q-31 0 -53.5 22t-22.5 53t22.5 53t53.5 22zM60 287v106h467v-106h-467zM294 234q30 0 52.5 -22t22.5 -53t-22.5 -53t-52.5 -22q-31 0 -53.5 22t-22.5 53t22.5 53t53.5 22z" />
    <glyph glyph-name="oslash" unicode="&#xf8;" horiz-adv-x="614" 
d="M586 481l-70 -70q54 -71 54 -161q0 -109 -76.5 -186t-185.5 -77q-91 0 -162 54l-80 -80l-59 59l82 82q-45 68 -45 148q0 110 77 186.5t187 76.5q80 0 147 -45l72 72zM171 250q0 -28 10 -56l185 185q-28 13 -58 13q-59 0 -98 -40.5t-39 -101.5zM443 250q0 39 -17 71
l-192 -192q34 -21 74 -21q57 0 96 41t39 101z" />
    <glyph glyph-name="ugrave" unicode="&#xf9;" horiz-adv-x="604" 
d="M361 561h-95l-93 107l117 56zM409 500h124v-500h-124v64q-56 -78 -153 -78q-84 0 -136.5 63.5t-52.5 160.5v290h125v-264q0 -60 28.5 -95.5t74.5 -35.5q49 0 81.5 39t32.5 94v262z" />
    <glyph glyph-name="uacute" unicode="&#xfa;" horiz-adv-x="604" 
d="M438 668l-93 -107h-95l71 163zM409 500h124v-500h-124v64q-56 -78 -153 -78q-84 0 -136.5 63.5t-52.5 160.5v290h125v-264q0 -60 28.5 -95.5t74.5 -35.5q49 0 81.5 39t32.5 94v262z" />
    <glyph glyph-name="ucircumflex" unicode="&#xfb;" horiz-adv-x="604" 
d="M300 614l-107 -79l-50 50l108 115h97l108 -115l-50 -50zM409 500h124v-500h-124v64q-56 -78 -153 -78q-84 0 -136.5 63.5t-52.5 160.5v290h125v-264q0 -60 28.5 -95.5t74.5 -35.5q49 0 81.5 39t32.5 94v262z" />
    <glyph glyph-name="udieresis" unicode="&#xfc;" horiz-adv-x="604" 
d="M278 550q-32 0 -55.5 23t-23.5 55q0 31 23.5 54t55.5 23q12 0 22 -3q10 3 23 3q32 0 55 -23t23 -54q0 -32 -23 -55t-55 -23q-13 0 -23 3q-10 -3 -22 -3zM409 500h124v-500h-124v64q-56 -78 -153 -78q-84 0 -136.5 63.5t-52.5 160.5v290h125v-264q0 -60 28.5 -95.5
t74.5 -35.5q49 0 81.5 39t32.5 94v262z" />
    <glyph glyph-name="yacute" unicode="&#xfd;" horiz-adv-x="586" 
d="M431 668l-93 -107h-95l71 163zM432 500h130l-289 -700h-133l94 226l-211 474h136l141 -317z" />
    <glyph glyph-name="thorn" unicode="&#xfe;" horiz-adv-x="629" 
d="M346 514q97 0 162 -75t64 -189t-66 -188.5t-161 -74.5q-94 0 -148 70v-257h-125v900h125v-260q51 74 149 74zM324 107q54 0 87.5 40.5t33.5 103.5q0 62 -33.5 102t-85.5 41q-55 2 -93.5 -39.5t-38.5 -104.5t37.5 -103.5t92.5 -39.5z" />
    <glyph glyph-name="ydieresis" unicode="&#xff;" horiz-adv-x="586" 
d="M271 550q-32 0 -55.5 23t-23.5 55q0 31 23.5 54t55.5 23q11 0 22 -3q10 3 23 3q32 0 55 -23t23 -54q0 -32 -23 -55t-55 -23q-12 0 -23 3q-10 -3 -22 -3zM432 500h130l-289 -700h-133l94 226l-211 474h136l141 -317z" />
    <glyph glyph-name="Amacron" unicode="&#x100;" horiz-adv-x="758" 
d="M555 841v-91h-350v91h350zM592 0l-62 151h-303l-61 -151h-139l283 680h135l287 -680h-140zM274 266h209l-105 256z" />
    <glyph glyph-name="amacron" unicode="&#x101;" horiz-adv-x="545" 
d="M443 661v-91h-350v91h350zM264 513q93 0 154 -58.5t61 -151.5v-303h-122v58q-29 -31 -71 -50.5t-88 -20.5q-67 0 -113.5 41.5t-46.5 110.5q0 66 45 106.5t124 56.5l147 28q-8 33 -31.5 53.5t-58.5 20.5t-67 -19t-53 -49l-92 67q35 50 93 80t119 30zM231 93q50 0 88 33.5
t38 82.5v23l-128 -25q-69 -16 -69 -61q0 -23 19.5 -38t51.5 -15z" />
    <glyph glyph-name="Abreve" unicode="&#x102;" horiz-adv-x="758" 
d="M382 736q-69 0 -114 40.5t-45 103.5h83q0 -27 20 -43t56 -16t56 16t20 43h83q0 -63 -45 -103.5t-114 -40.5zM592 0l-62 151h-303l-61 -151h-139l283 680h135l287 -680h-140zM274 266h209l-105 256z" />
    <glyph glyph-name="abreve" unicode="&#x103;" horiz-adv-x="545" 
d="M270 556q-69 0 -114 40.5t-45 103.5h83q0 -27 20 -43t56 -16t56 16t20 43h83q0 -63 -45 -103.5t-114 -40.5zM264 513q93 0 154 -58.5t61 -151.5v-303h-122v58q-29 -31 -71 -50.5t-88 -20.5q-67 0 -113.5 41.5t-46.5 110.5q0 66 45 106.5t124 56.5l147 28
q-8 33 -31.5 53.5t-58.5 20.5t-67 -19t-53 -49l-92 67q35 50 93 80t119 30zM231 93q50 0 88 33.5t38 82.5v23l-128 -25q-69 -16 -69 -61q0 -23 19.5 -38t51.5 -15z" />
    <glyph glyph-name="Aogonek" unicode="&#x104;" horiz-adv-x="758" 
d="M677 -82q0 -25 21.5 -29t53.5 17v-85q-69 -29 -117 -1t-48 88q0 49 38 92h-33l-62 151h-303l-61 -151h-139l283 680h135l287 -680q-24 -17 -39.5 -40t-15.5 -42zM274 266h209l-105 256z" />
    <glyph glyph-name="aogonek" unicode="&#x105;" horiz-adv-x="545" 
d="M424 -82q0 -25 22 -29t53 17v-85q-69 -29 -117 -1t-48 88q0 49 38 92h-15v58q-29 -31 -71 -50.5t-88 -20.5q-67 0 -113.5 41.5t-46.5 110.5q0 66 45 106.5t124 56.5l147 28q-8 33 -31.5 53.5t-58.5 20.5t-67 -19t-53 -49l-92 67q35 50 93 80t119 30q93 0 154 -58.5
t61 -151.5v-303q-24 -17 -39.5 -40t-15.5 -42zM231 93q50 0 88 33.5t38 82.5v23l-128 -25q-69 -16 -69 -61q0 -23 19.5 -38t51.5 -15z" />
    <glyph glyph-name="Cacute" unicode="&#x106;" horiz-adv-x="757" 
d="M433 909l117 -56l-93 -107h-95zM607 455q-29 54 -80.5 84t-113.5 30q-96 0 -161 -66t-65 -163t65 -163.5t161 -66.5q62 0 113.5 30.5t80.5 84.5l111 -66q-47 -80 -129 -127.5t-176 -47.5q-149 0 -253 103.5t-104 252.5t104 252.5t253 103.5q95 0 176.5 -47t128.5 -128z
" />
    <glyph glyph-name="cacute" unicode="&#x107;" horiz-adv-x="560" 
d="M315 724l117 -56l-93 -107h-95zM413 181l114 -50q-33 -65 -95.5 -104.5t-137.5 -39.5q-110 0 -185 76.5t-75 186.5q0 111 75 187.5t185 76.5q75 0 137 -39t95 -104l-113 -50q-18 34 -49.5 53t-69.5 19q-57 0 -95 -41t-38 -102q0 -60 38 -101t95 -41q37 0 69 19.5t50 53.5
z" />
    <glyph glyph-name="Cdotaccent" unicode="&#x10a;" horiz-adv-x="757" 
d="M413 735q-32 0 -55.5 23t-23.5 55q0 31 23.5 54t55.5 23q31 0 54 -23t23 -54q0 -32 -22.5 -55t-54.5 -23zM607 455q-29 54 -80.5 84t-113.5 30q-96 0 -161 -66t-65 -163t65 -163.5t161 -66.5q62 0 113.5 30.5t80.5 84.5l111 -66q-47 -80 -129 -127.5t-176 -47.5
q-149 0 -253 103.5t-104 252.5t104 252.5t253 103.5q95 0 176.5 -47t128.5 -128z" />
    <glyph glyph-name="cdotaccent" unicode="&#x10b;" horiz-adv-x="560" 
d="M295 550q-32 0 -55.5 23t-23.5 55q0 31 23.5 54t55.5 23q31 0 54 -22.5t23 -54.5t-22.5 -55t-54.5 -23zM413 181l114 -50q-33 -65 -95.5 -104.5t-137.5 -39.5q-110 0 -185 76.5t-75 186.5q0 111 75 187.5t185 76.5q75 0 137 -39t95 -104l-113 -50q-18 34 -49.5 53
t-69.5 19q-57 0 -95 -41t-38 -102q0 -60 38 -101t95 -41q37 0 69 19.5t50 53.5z" />
    <glyph glyph-name="Ccaron" unicode="&#x10c;" horiz-adv-x="757" 
d="M460 745h-97l-108 115l50 50l107 -79l106 79l50 -50zM413 110q62 0 113.5 30.5t80.5 84.5l111 -66q-47 -80 -129 -127.5t-176 -47.5q-149 0 -253 103.5t-104 252.5t104 252.5t253 103.5q95 0 176.5 -47t128.5 -128l-111 -66q-29 54 -80.5 84t-113.5 30q-96 0 -161 -66
t-65 -163t65 -163.5t161 -66.5z" />
    <glyph glyph-name="ccaron" unicode="&#x10d;" horiz-adv-x="560" 
d="M342 560h-97l-108 115l50 50l107 -79l106 79l50 -50zM413 181l114 -50q-33 -65 -95.5 -104.5t-137.5 -39.5q-110 0 -185 76.5t-75 186.5q0 111 75 187.5t185 76.5q75 0 137 -39t95 -104l-113 -50q-18 34 -49.5 53t-69.5 19q-57 0 -95 -41t-38 -102q0 -60 38 -101t95 -41
q37 0 69 19.5t50 53.5z" />
    <glyph glyph-name="Dcaron" unicode="&#x10e;" horiz-adv-x="752" 
d="M381 740h-97l-108 115l50 50l107 -79l106 79l50 -50zM333 680q156 0 260 -96.5t104 -243.5t-104 -243.5t-260 -96.5h-246v680h246zM332 123q104 0 169.5 60t65.5 157t-65.5 157t-169.5 60h-116v-434h116z" />
    <glyph glyph-name="dcaron" unicode="&#x10f;" horiz-adv-x="736" 
d="M411 442v258h125v-700h-125v63q-50 -76 -149 -76q-97 0 -162 74.5t-64 188.5q1 113 66.5 188t161.5 75q93 0 147 -71zM597 700h120l-67 -284h-77zM287 107q55 0 91 40t36 103q0 64 -36 103.5t-90 39.5t-89.5 -40.5t-35.5 -103.5q0 -61 35 -101t89 -41z" />
    <glyph glyph-name="Dcroat" unicode="&#x110;" horiz-adv-x="752" 
d="M333 680q156 0 260 -96.5t104 -243.5t-104 -243.5t-260 -96.5h-246v289h-79v102h79v289h246zM332 123q104 0 169.5 60t65.5 157t-65.5 157t-169.5 60h-116v-166h192v-102h-192v-166h116z" />
    <glyph glyph-name="dcroat" unicode="&#x111;" horiz-adv-x="608" 
d="M615 636v-90h-79v-546h-125v63q-50 -76 -149 -76q-97 0 -162 74.5t-64 188.5q1 113 66.5 188t161.5 75q93 0 147 -71v104h-170v90h170v64h125v-64h79zM287 107q55 0 91 40t36 103q0 64 -36 103.5t-90 39.5t-89.5 -40.5t-35.5 -103.5q0 -61 35 -101t89 -41z" />
    <glyph glyph-name="Emacron" unicode="&#x112;" horiz-adv-x="600" 
d="M493 841v-91h-350v91h350zM546 557h-331v-158h228v-118h-228v-158h331v-123h-459v680h459v-123z" />
    <glyph glyph-name="emacron" unicode="&#x113;" horiz-adv-x="571" 
d="M463 661v-91h-350v91h350zM524 292q5 -43 -1 -92h-352q22 -99 120 -99q41 0 74.5 19t50.5 50l98 -56q-31 -58 -93 -92.5t-132 -34.5q-107 0 -176 75.5t-69 187.5t69 187.5t177 75.5q92 0 157 -57.5t77 -163.5zM286 399q-95 0 -115 -101h229q-4 48 -36 74.5t-78 26.5z" />
    <glyph glyph-name="Edotaccent" unicode="&#x116;" horiz-adv-x="600" 
d="M319 730q-32 0 -55.5 23t-23.5 55q0 31 23.5 54t55.5 23q31 0 54 -22.5t23 -54.5t-22.5 -55t-54.5 -23zM546 557h-331v-158h228v-118h-228v-158h331v-123h-459v680h459v-123z" />
    <glyph glyph-name="edotaccent" unicode="&#x117;" horiz-adv-x="571" 
d="M289 550q-32 0 -55.5 23t-23.5 55q0 31 23.5 54t55.5 23q31 0 54 -22.5t23 -54.5t-22.5 -55t-54.5 -23zM524 292q5 -43 -1 -92h-352q22 -99 120 -99q41 0 74.5 19t50.5 50l98 -56q-31 -58 -93 -92.5t-132 -34.5q-107 0 -176 75.5t-69 187.5t69 187.5t177 75.5
q92 0 157 -57.5t77 -163.5zM286 399q-95 0 -115 -101h229q-4 48 -36 74.5t-78 26.5z" />
    <glyph glyph-name="Eogonek" unicode="&#x118;" horiz-adv-x="600" 
d="M491 -82q0 -25 21.5 -29t53.5 17v-85q-69 -29 -117 -1t-48 88q0 49 38 92h-352v680h459v-123h-331v-158h228v-118h-228v-158h331v-123q-24 -17 -39.5 -40t-15.5 -42z" />
    <glyph glyph-name="eogonek" unicode="&#x119;" horiz-adv-x="571" 
d="M524 292q5 -43 -1 -92h-352q22 -99 120 -99q41 0 74.5 19t50.5 50l98 -56q-23 -44 -69 -77q-46 -37 -46 -75q0 -25 21.5 -29t53.5 17v-85q-69 -29 -117 -1t-48 88q0 18 5 36q-8 -1 -25 -1q-107 0 -176 75.5t-69 187.5t69 187.5t177 75.5q92 0 157 -57.5t77 -163.5z
M286 399q-95 0 -115 -101h229q-4 48 -36 74.5t-78 26.5z" />
    <glyph glyph-name="Ecaron" unicode="&#x11a;" horiz-adv-x="600" 
d="M366 740h-97l-108 115l50 50l107 -79l106 79l50 -50zM546 557h-331v-158h228v-118h-228v-158h331v-123h-459v680h459v-123z" />
    <glyph glyph-name="ecaron" unicode="&#x11b;" horiz-adv-x="571" 
d="M336 560h-97l-108 115l50 50l107 -79l106 79l50 -50zM524 292q5 -43 -1 -92h-352q22 -99 120 -99q41 0 74.5 19t50.5 50l98 -56q-31 -58 -93 -92.5t-132 -34.5q-107 0 -176 75.5t-69 187.5t69 187.5t177 75.5q92 0 157 -57.5t77 -163.5zM286 399q-95 0 -115 -101h229
q-4 48 -36 74.5t-78 26.5z" />
    <glyph glyph-name="Gbreve" unicode="&#x11e;" horiz-adv-x="810" 
d="M418 741q-69 0 -114 40.5t-45 103.5h83q0 -27 20 -43t56 -16t56 16t20 43h83q0 -63 -45 -103.5t-114 -40.5zM394 368h352v-49q0 -148 -93.5 -241.5t-234.5 -93.5q-151 0 -254 103.5t-103 251.5q0 149 104 253t253 104q93 0 172.5 -44.5t127.5 -121.5l-109 -65
q-30 50 -80.5 78t-111.5 28q-97 0 -161.5 -66.5t-64.5 -166.5q0 -98 64 -163.5t165 -65.5q80 0 131.5 42t56.5 101h-214v116z" />
    <glyph glyph-name="gbreve" unicode="&#x11f;" horiz-adv-x="618" 
d="M301 556q-69 0 -114 40.5t-45 103.5h83q0 -27 20 -43t56 -16t56 16t20 43h83q0 -63 -45 -103.5t-114 -40.5zM421 500h125v-465q0 -111 -73.5 -180.5t-185.5 -69.5q-129 0 -220 101l87 78q59 -66 133 -66q62 0 98 37.5t36 101.5v29q-52 -73 -149 -73q-95 0 -160 72
t-66 185q0 113 65 188t162 75q96 0 148 -74v61zM299 113q54 0 89.5 38.5t35.5 101.5q0 62 -36 101t-91 39q-54 -1 -89 -39.5t-35 -100.5t35.5 -101t90.5 -39z" />
    <glyph glyph-name="Gdotaccent" unicode="&#x120;" horiz-adv-x="810" 
d="M417 735q-32 0 -55.5 23t-23.5 55q0 31 23.5 54t55.5 23q31 0 54 -23t23 -54q0 -32 -22.5 -55t-54.5 -23zM394 368h352v-49q0 -148 -93.5 -241.5t-234.5 -93.5q-151 0 -254 103.5t-103 251.5q0 149 104 253t253 104q93 0 172.5 -44.5t127.5 -121.5l-109 -65
q-30 50 -80.5 78t-111.5 28q-97 0 -161.5 -66.5t-64.5 -166.5q0 -98 64 -163.5t165 -65.5q80 0 131.5 42t56.5 101h-214v116z" />
    <glyph glyph-name="gdotaccent" unicode="&#x121;" horiz-adv-x="618" 
d="M300 550q-32 0 -55.5 23t-23.5 55q0 31 23.5 54t55.5 23t54.5 -22.5t22.5 -54.5t-22.5 -55t-54.5 -23zM421 500h125v-465q0 -111 -73.5 -180.5t-185.5 -69.5q-129 0 -220 101l87 78q59 -66 133 -66q62 0 98 37.5t36 101.5v29q-52 -73 -149 -73q-95 0 -160 72t-66 185
q0 113 65 188t162 75q96 0 148 -74v61zM299 113q54 0 89.5 38.5t35.5 101.5q0 62 -36 101t-91 39q-54 -1 -89 -39.5t-35 -100.5t35.5 -101t90.5 -39z" />
    <glyph glyph-name="Gcommaaccent" unicode="&#x122;" horiz-adv-x="810" 
d="M394 368h352v-49q0 -148 -93.5 -241.5t-234.5 -93.5q-151 0 -254 103.5t-103 251.5q0 149 104 253t253 104q93 0 172.5 -44.5t127.5 -121.5l-109 -65q-30 50 -80.5 78t-111.5 28q-97 0 -161.5 -66.5t-64.5 -166.5q0 -98 64 -163.5t165 -65.5q80 0 131.5 42t56.5 101h-214
v116zM316 -279l36 219h122l-80 -219h-78z" />
    <glyph glyph-name="gcommaaccent" unicode="&#x123;" horiz-adv-x="618" 
d="M392 764l-36 -219h-122l80 219h78zM421 500h125v-465q0 -111 -73.5 -180.5t-185.5 -69.5q-129 0 -220 101l87 78q59 -66 133 -66q62 0 98 37.5t36 101.5v29q-52 -73 -149 -73q-95 0 -160 72t-66 185q0 113 65 188t162 75q96 0 148 -74v61zM299 113q54 0 89.5 38.5
t35.5 101.5q0 62 -36 101t-91 39q-54 -1 -89 -39.5t-35 -100.5t35.5 -101t90.5 -39z" />
    <glyph glyph-name="Hbar" unicode="&#x126;" horiz-adv-x="753" 
d="M731 586v-92h-64v-494h-130v278h-321v-278h-129v494h-66v92h66v94h129v-94h321v94h130v-94h64zM537 402v92h-321v-92h321z" />
    <glyph glyph-name="hbar" unicode="&#x127;" horiz-adv-x="605" 
d="M349 514q84 0 136.5 -63.5t52.5 -160.5v-290h-125v264q0 60 -28.5 95.5t-74.5 35.5q-49 0 -81.5 -39t-32.5 -94v-262h-124v557h-104v93h104v50h124v-50h184v-93h-184v-120q56 77 153 77z" />
    <glyph glyph-name="Imacron" unicode="&#x12a;" horiz-adv-x="317" 
d="M-16 841h350v-91h-350v91zM94 680h130v-680h-130v680z" />
    <glyph glyph-name="imacron" unicode="&#x12b;" horiz-adv-x="276" 
d="M-37 661h350v-91h-350v91zM74 500h128v-500h-128v500z" />
    <glyph glyph-name="Iogonek" unicode="&#x12e;" horiz-adv-x="317" 
d="M169 -82q0 -25 21.5 -29t53.5 17v-85q-69 -29 -117 -1t-48 88q0 49 38 92h-23v680h130v-680q-24 -17 -39.5 -40t-15.5 -42z" />
    <glyph glyph-name="iogonek" unicode="&#x12f;" horiz-adv-x="276" 
d="M139 550q-32 0 -55.5 23t-23.5 55q0 31 23.5 54t55.5 23q31 0 54 -22.5t23 -54.5t-22.5 -55t-54.5 -23zM147 -82q0 -25 21.5 -29t53.5 17v-85q-69 -29 -117 -1t-48 88q0 49 38 92h-21v500h128v-500q-24 -17 -39.5 -40t-15.5 -42z" />
    <glyph glyph-name="Idotaccent" unicode="&#x130;" horiz-adv-x="317" 
d="M160 730q-32 0 -55.5 23t-23.5 55q0 31 23.5 54t55.5 23t54.5 -22.5t22.5 -54.5t-22.5 -55t-54.5 -23zM94 680h130v-680h-130v680z" />
    <glyph glyph-name="dotlessi" unicode="&#x131;" horiz-adv-x="276" 
d="M74 500h128v-500h-128v500z" />
    <glyph glyph-name="Kcommaaccent" unicode="&#x136;" horiz-adv-x="684" 
d="M382 386l290 -386h-154l-227 294l-75 -77v-217h-129v680h129v-298l287 298h167zM268 -279l36 219h122l-80 -219h-78z" />
    <glyph glyph-name="kcommaaccent" unicode="&#x137;" horiz-adv-x="562" 
d="M357 304l197 -304h-147l-141 211l-69 -69v-142h-125v700h125v-401l193 201h162zM193 -279l36 219h122l-80 -219h-78z" />
    <glyph glyph-name="Lacute" unicode="&#x139;" horiz-adv-x="580" 
d="M291 848l-93 -107h-95l71 163zM217 123h329v-123h-459v680h130v-557z" />
    <glyph glyph-name="lacute" unicode="&#x13a;" horiz-adv-x="284" 
d="M163 924l117 -56l-93 -107h-95zM79 700h127v-700h-127v700z" />
    <glyph glyph-name="Lcommaaccent" unicode="&#x13b;" horiz-adv-x="580" 
d="M217 123h329v-123h-459v680h130v-557zM220 -279l36 219h122l-80 -219h-78z" />
    <glyph glyph-name="lcommaaccent" unicode="&#x13c;" horiz-adv-x="284" 
d="M79 700h127v-700h-127v700zM91 -60h122l-80 -219h-78z" />
    <glyph glyph-name="Lcaron" unicode="&#x13d;" horiz-adv-x="580" 
d="M546 700l-88 -278h-74l45 278h117zM217 680v-557h329v-123h-459v680h130z" />
    <glyph glyph-name="lcaron" unicode="&#x13e;" horiz-adv-x="405" 
d="M79 700h127v-700h-127v700zM270 700h117l-83 -284h-74z" />
    <glyph glyph-name="Lslash" unicode="&#x141;" horiz-adv-x="580" 
d="M217 123h329v-123h-459v243l-59 -34l-51 89l110 63v319h130v-244l87 50l51 -88l-138 -80v-195z" />
    <glyph glyph-name="lslash" unicode="&#x142;" horiz-adv-x="284" 
d="M297 394l-91 -53v-341h-127v268l-43 -25l-45 79l88 51v327h127v-254l45 26z" />
    <glyph glyph-name="Nacute" unicode="&#x143;" horiz-adv-x="758" 
d="M517 848l-93 -107h-95l71 163zM543 680h128v-680h-105l-351 453v-453h-128v680h104l352 -455v455z" />
    <glyph glyph-name="nacute" unicode="&#x144;" horiz-adv-x="605" 
d="M439 668l-93 -107h-95l71 163zM349 514q84 0 136.5 -63.5t52.5 -160.5v-290h-125v264q0 60 -28.5 95.5t-74.5 35.5q-49 0 -81.5 -39t-32.5 -94v-262h-124v500h124v-63q56 77 153 77z" />
    <glyph glyph-name="Ncommaaccent" unicode="&#x145;" horiz-adv-x="758" 
d="M543 680h128v-680h-105l-351 453v-453h-128v680h104l352 -455v455zM292 -279l36 219h122l-80 -219h-78z" />
    <glyph glyph-name="ncommaaccent" unicode="&#x146;" horiz-adv-x="605" 
d="M349 514q84 0 136.5 -63.5t52.5 -160.5v-290h-125v264q0 60 -28.5 95.5t-74.5 35.5q-49 0 -81.5 -39t-32.5 -94v-262h-124v500h124v-63q56 77 153 77zM214 -279l36 219h122l-80 -219h-78z" />
    <glyph glyph-name="Ncaron" unicode="&#x147;" horiz-adv-x="758" 
d="M427 740h-97l-108 115l50 50l107 -79l106 79l50 -50zM543 680h128v-680h-105l-351 453v-453h-128v680h104l352 -455v455z" />
    <glyph glyph-name="ncaron" unicode="&#x148;" horiz-adv-x="605" 
d="M349 560h-97l-108 115l50 50l107 -79l106 79l50 -50zM349 514q84 0 136.5 -63.5t52.5 -160.5v-290h-125v264q0 60 -28.5 95.5t-74.5 35.5q-49 0 -81.5 -39t-32.5 -94v-262h-124v500h124v-63q56 77 153 77z" />
    <glyph glyph-name="Eng" unicode="&#x14a;" horiz-adv-x="758" 
d="M543 680h128v-717q0 -163 -163 -163h-84v117h64q55 0 55 60v53l-328 423v-453h-128v680h104l352 -455v455z" />
    <glyph glyph-name="eng" unicode="&#x14b;" horiz-adv-x="605" 
d="M349 514q84 0 136.5 -63.5t52.5 -160.5v-329q0 -161 -161 -161h-84v117h65q55 0 55 60v287q0 60 -28.5 95.5t-74.5 35.5q-49 0 -81.5 -39t-32.5 -94v-262h-124v500h124v-63q56 77 153 77z" />
    <glyph glyph-name="Omacron" unicode="&#x14c;" horiz-adv-x="822" 
d="M237 846h350v-91h-350v91zM413 -16q-149 0 -253 103.5t-104 252.5t104 252.5t253 103.5q147 0 250.5 -104t103.5 -252t-103.5 -252t-250.5 -104zM413 110q94 0 158.5 66.5t64.5 163.5t-64.5 163t-158.5 66q-96 0 -161 -66t-65 -163t65 -163.5t161 -66.5z" />
    <glyph glyph-name="omacron" unicode="&#x14d;" horiz-adv-x="614" 
d="M134 661h350v-91h-350v91zM308 -13q-110 0 -187 76.5t-77 186.5t77 186.5t187 76.5q109 0 185.5 -77t76.5 -186t-76.5 -186t-185.5 -77zM308 108q57 0 96 41t39 101q0 61 -39 101.5t-96 40.5q-59 0 -98 -40.5t-39 -101.5t39 -101.5t98 -40.5z" />
    <glyph glyph-name="Ohungarumlaut" unicode="&#x150;" horiz-adv-x="822" 
d="M358 909l111 -56l-88 -107h-90zM513 909l111 -56l-88 -107h-90zM413 -16q-149 0 -253 103.5t-104 252.5t104 252.5t253 103.5q147 0 250.5 -104t103.5 -252t-103.5 -252t-250.5 -104zM413 110q94 0 158.5 66.5t64.5 163.5t-64.5 163t-158.5 66q-96 0 -161 -66t-65 -163
t65 -163.5t161 -66.5z" />
    <glyph glyph-name="ohungarumlaut" unicode="&#x151;" horiz-adv-x="614" 
d="M255 724l111 -56l-88 -107h-90zM410 724l111 -56l-88 -107h-90zM308 -13q-110 0 -187 76.5t-77 186.5t77 186.5t187 76.5q109 0 185.5 -77t76.5 -186t-76.5 -186t-185.5 -77zM308 108q57 0 96 41t39 101q0 61 -39 101.5t-96 40.5q-59 0 -98 -40.5t-39 -101.5t39 -101.5
t98 -40.5z" />
    <glyph glyph-name="OE" unicode="&#x152;" horiz-adv-x="1159" 
d="M1105 557h-331v-158h228v-118h-228v-158h331v-123h-459v71q-100 -87 -233 -87q-149 0 -253 103.5t-104 252.5t104 252.5t253 103.5q133 0 233 -87v71h459v-123zM413 110q94 0 158.5 66.5t64.5 163.5t-64.5 163t-158.5 66q-96 0 -161 -66t-65 -163t65 -163.5t161 -66.5z
" />
    <glyph glyph-name="oe" unicode="&#x153;" horiz-adv-x="968" 
d="M921 292q5 -43 -1 -92h-352q22 -99 120 -99q41 0 74.5 19t50.5 50l98 -56q-31 -58 -93 -92.5t-132 -34.5q-113 0 -185 85q-77 -85 -193 -85q-110 0 -187 76.5t-77 186.5t77 186.5t187 76.5q115 0 193 -85q71 85 186 85q92 0 157 -57.5t77 -163.5zM683 399
q-95 0 -115 -101h229q-4 48 -36 74.5t-78 26.5zM308 108q51 0 88.5 34t45.5 87q-1 7 -1 21t1 21q-7 53 -44.5 87t-89.5 34q-59 0 -98 -40.5t-39 -101.5t39 -101.5t98 -40.5z" />
    <glyph glyph-name="Racute" unicode="&#x154;" horiz-adv-x="670" 
d="M477 848l-93 -107h-95l71 163zM486 0l-151 262h-120v-262h-128v680h296q98 0 164 -59.5t66 -148.5q0 -66 -38 -118.5t-101 -75.5l160 -278h-148zM215 557v-176h168q45 0 73.5 25t28.5 63t-28.5 63t-73.5 25h-168z" />
    <glyph glyph-name="racute" unicode="&#x155;" horiz-adv-x="384" 
d="M325 668l-93 -107h-95l71 163zM196 437q56 74 160 74v-122q-80 0 -120 -35t-40 -92v-262h-124v500h124v-63z" />
    <glyph glyph-name="Rcommaaccent" unicode="&#x156;" horiz-adv-x="670" 
d="M474 278l160 -278h-148l-151 262h-120v-262h-128v680h296q98 0 164 -59.5t66 -148.5q0 -66 -38 -118.5t-101 -75.5zM215 557v-176h168q45 0 73.5 25t28.5 63t-28.5 63t-73.5 25h-168zM252 -279l36 219h122l-80 -219h-78z" />
    <glyph glyph-name="rcommaaccent" unicode="&#x157;" horiz-adv-x="384" 
d="M196 437q56 74 160 74v-122q-80 0 -120 -35t-40 -92v-262h-124v500h124v-63zM44 -279l36 219h122l-80 -219h-78z" />
    <glyph glyph-name="Rcaron" unicode="&#x158;" horiz-adv-x="670" 
d="M387 740h-97l-108 115l50 50l107 -79l106 79l50 -50zM486 0l-151 262h-120v-262h-128v680h296q98 0 164 -59.5t66 -148.5q0 -66 -38 -118.5t-101 -75.5l160 -278h-148zM215 557v-176h168q45 0 73.5 25t28.5 63t-28.5 63t-73.5 25h-168z" />
    <glyph glyph-name="rcaron" unicode="&#x159;" horiz-adv-x="384" 
d="M235 560h-97l-108 115l50 50l107 -79l106 79l50 -50zM196 437q56 74 160 74v-122q-80 0 -120 -35t-40 -92v-262h-124v500h124v-63z" />
    <glyph glyph-name="Sacute" unicode="&#x15a;" horiz-adv-x="638" 
d="M345 909l117 -56l-93 -107h-95zM586 201q0 -98 -74 -157.5t-194 -59.5q-110 0 -186.5 50.5t-92.5 129.5l125 45q13 -45 55 -73t108 -28q59 0 94.5 23t35.5 60q0 21 -9.5 35t-38 25.5t-44 15.5t-62.5 14q-5 1 -8 2q-108 24 -167 69.5t-59 132.5q0 97 69.5 154t178.5 57
q102 0 173.5 -49.5t88.5 -130.5l-121 -45q-12 45 -50.5 73.5t-95.5 28.5q-50 0 -82 -21.5t-32 -55.5q0 -20 11 -35t34.5 -25.5t42.5 -16.5t53 -14q123 -30 185 -74t62 -130z" />
    <glyph glyph-name="sacute" unicode="&#x15b;" horiz-adv-x="482" 
d="M260 724l117 -56l-93 -107h-95zM438 148q0 -74 -59 -118t-145 -44q-80 0 -135.5 39t-69.5 104l106 32q8 -31 35 -49.5t68 -18.5q34 0 57 12.5t23 31.5q0 20 -24.5 33t-74.5 26q-34 9 -57 17.5t-52 26t-44.5 46t-15.5 67.5q0 73 54.5 116.5t135.5 43.5q75 0 126.5 -39
t65.5 -104l-102 -32q-8 30 -32 49.5t-59 19.5q-29 0 -49 -13t-20 -33q0 -19 20.5 -30.5t63.5 -23.5q26 -7 36.5 -10t38 -12.5t42 -20t33 -27t26.5 -39t8 -50.5z" />
    <glyph glyph-name="Scedilla" unicode="&#x15e;" horiz-adv-x="638" 
d="M586 201q0 -86 -58 -143t-156 -71l-57 -144l-112 56l68 88q-92 10 -155 58.5t-77 118.5l125 45q13 -45 55 -73t108 -28q59 0 94.5 23t35.5 60q0 21 -9.5 35t-38 25.5t-44 15.5t-62.5 14q-5 1 -8 2q-108 24 -167 69.5t-59 132.5q0 97 69.5 154t178.5 57q102 0 173.5 -49.5
t88.5 -130.5l-121 -45q-12 45 -50.5 73.5t-95.5 28.5q-50 0 -82 -21.5t-32 -55.5q0 -20 11 -35t34.5 -25.5t42.5 -16.5t53 -14q123 -30 185 -74t62 -130z" />
    <glyph glyph-name="scedilla" unicode="&#x15f;" horiz-adv-x="482" 
d="M438 148q0 -59 -39 -100t-102 -55l-59 -150l-112 56l70 90q-65 8 -109.5 45.5t-57.5 94.5l106 32q8 -31 35 -49.5t68 -18.5q34 0 57 12.5t23 31.5q0 20 -24.5 33t-74.5 26q-34 9 -57 17.5t-52 26t-44.5 46t-15.5 67.5q0 73 54.5 116.5t135.5 43.5q75 0 126.5 -39
t65.5 -104l-102 -32q-8 30 -32 49.5t-59 19.5q-29 0 -49 -13t-20 -33q0 -19 20.5 -30.5t63.5 -23.5q26 -7 36.5 -10t38 -12.5t42 -20t33 -27t26.5 -39t8 -50.5z" />
    <glyph glyph-name="Scaron" unicode="&#x160;" horiz-adv-x="638" 
d="M372 745h-97l-108 115l50 50l107 -79l106 79l50 -50zM339 405q123 -30 185 -74t62 -130q0 -98 -74 -157.5t-194 -59.5q-110 0 -186.5 50.5t-92.5 129.5l125 45q13 -45 55 -73t108 -28q59 0 94.5 23t35.5 60q0 21 -9.5 35t-38 25.5t-44 15.5t-62.5 14q-5 1 -8 2
q-108 24 -167 69.5t-59 132.5q0 97 69.5 154t178.5 57q102 0 173.5 -49.5t88.5 -130.5l-121 -45q-12 45 -50.5 73.5t-95.5 28.5q-50 0 -82 -21.5t-32 -55.5q0 -20 11 -35t34.5 -25.5t42.5 -16.5t53 -14z" />
    <glyph glyph-name="scaron" unicode="&#x161;" horiz-adv-x="482" 
d="M287 560h-97l-108 115l50 50l107 -79l106 79l50 -50zM254 307q26 -7 36.5 -10t38 -12.5t42 -20t33 -27t26.5 -39t8 -50.5q0 -74 -59 -118t-145 -44q-80 0 -135.5 39t-69.5 104l106 32q8 -31 35 -49.5t68 -18.5q34 0 57 12.5t23 31.5q0 20 -24.5 33t-74.5 26
q-34 9 -57 17.5t-52 26t-44.5 46t-15.5 67.5q0 73 54.5 116.5t135.5 43.5q75 0 126.5 -39t65.5 -104l-102 -32q-8 30 -32 49.5t-59 19.5q-29 0 -49 -13t-20 -33q0 -19 20.5 -30.5t63.5 -23.5z" />
    <glyph glyph-name="uni0162" unicode="&#x162;" horiz-adv-x="591" 
d="M555 680v-123h-194v-557h-9l-64 -158l-111 53l85 105h-31v557h-194v123h518z" />
    <glyph glyph-name="uni0163" unicode="&#x163;" horiz-adv-x="409" 
d="M363 388h-117v-211q0 -60 55 -60h62v-117h-60l-61 -157l-112 56l86 109q-95 28 -95 153v227h-90v112h90v124l125 39v-163h117v-112z" />
    <glyph glyph-name="Tcaron" unicode="&#x164;" horiz-adv-x="591" 
d="M343 740h-97l-108 115l50 50l107 -79l106 79l50 -50zM555 680v-123h-194v-557h-130v557h-194v123h518z" />
    <glyph glyph-name="tcaron" unicode="&#x165;" horiz-adv-x="409" 
d="M414 771l-80 -229h-68l41 229h107zM246 663v-163h117v-112h-117v-211q0 -60 55 -60h62v-117h-81q-161 0 -161 161v227h-90v112h90v124z" />
    <glyph glyph-name="Tbar" unicode="&#x166;" horiz-adv-x="591" 
d="M555 557h-194v-140h138v-102h-138v-315h-130v315h-132v102h132v140h-194v123h518v-123z" />
    <glyph glyph-name="tbar" unicode="&#x167;" horiz-adv-x="409" 
d="M363 388h-117v-80h116v-90h-116v-41q0 -60 55 -60h62v-117h-81q-161 0 -161 161v57h-88v90h88v80h-90v112h90v124l125 39v-163h117v-112z" />
    <glyph glyph-name="Umacron" unicode="&#x16a;" horiz-adv-x="734" 
d="M192 841h350v-91h-350v91zM528 680h130v-381q0 -142 -80 -228.5t-211 -86.5t-211 86.5t-80 228.5v381h130v-380q0 -87 44 -139.5t117 -52.5t117 52.5t44 139.5v380z" />
    <glyph glyph-name="umacron" unicode="&#x16b;" horiz-adv-x="604" 
d="M475 661v-91h-350v91h350zM409 500h124v-500h-124v64q-56 -78 -153 -78q-84 0 -136.5 63.5t-52.5 160.5v290h125v-264q0 -60 28.5 -95.5t74.5 -35.5q49 0 81.5 39t32.5 94v262z" />
    <glyph glyph-name="Uring" unicode="&#x16e;" horiz-adv-x="734" 
d="M375 672q-41 0 -70.5 29t-29.5 70q0 40 29.5 69t70.5 29q40 0 69.5 -29t29.5 -69q0 -41 -29 -70t-70 -29zM375 723q20 0 34 14t14 34q0 19 -14.5 33t-33.5 14q-20 0 -34.5 -14t-14.5 -33q0 -20 14.5 -34t34.5 -14zM528 680h130v-381q0 -142 -80 -228.5t-211 -86.5
t-211 86.5t-80 228.5v381h130v-380q0 -87 44 -139.5t117 -52.5t117 52.5t44 139.5v380z" />
    <glyph glyph-name="uring" unicode="&#x16f;" horiz-adv-x="604" 
d="M302 522q-41 0 -70.5 29t-29.5 70q0 40 29.5 69t70.5 29q40 0 69.5 -29t29.5 -69q0 -41 -29 -70t-70 -29zM302 668q-20 0 -34.5 -14t-14.5 -33q0 -20 14.5 -34t34.5 -14t34 14t14 34q0 19 -14.5 33t-33.5 14zM409 500h124v-500h-124v64q-56 -78 -153 -78
q-84 0 -136.5 63.5t-52.5 160.5v290h125v-264q0 -60 28.5 -95.5t74.5 -35.5q49 0 81.5 39t32.5 94v262z" />
    <glyph glyph-name="Uhungarumlaut" unicode="&#x170;" horiz-adv-x="734" 
d="M313 904l111 -56l-88 -107h-90zM468 904l111 -56l-88 -107h-90zM528 680h130v-381q0 -142 -80 -228.5t-211 -86.5t-211 86.5t-80 228.5v381h130v-380q0 -87 44 -139.5t117 -52.5t117 52.5t44 139.5v380z" />
    <glyph glyph-name="uhungarumlaut" unicode="&#x171;" horiz-adv-x="604" 
d="M357 668l-88 -107h-90l67 163zM424 561h-90l67 163l111 -56zM409 500h124v-500h-124v64q-56 -78 -153 -78q-84 0 -136.5 63.5t-52.5 160.5v290h125v-264q0 -60 28.5 -95.5t74.5 -35.5q49 0 81.5 39t32.5 94v262z" />
    <glyph glyph-name="Uogonek" unicode="&#x172;" horiz-adv-x="734" 
d="M528 680h130v-381q0 -98 -39.5 -171.5t-110.5 -110.5q-51 -39 -51 -79q0 -25 21.5 -29t53.5 17v-85q-69 -29 -117 -1t-48 88q0 31 13 56h-13q-131 0 -211 86.5t-80 228.5v381h130v-380q0 -87 44 -139.5t117 -52.5t117 52.5t44 139.5v380z" />
    <glyph glyph-name="uogonek" unicode="&#x173;" horiz-adv-x="604" 
d="M479 -82q0 -25 21.5 -29t53.5 17v-85q-69 -29 -117 -1t-48 88q0 49 38 92h-18v64q-56 -78 -153 -78q-84 0 -136.5 63.5t-52.5 160.5v290h125v-264q0 -60 28.5 -95.5t74.5 -35.5q49 0 81.5 39t32.5 94v262h124v-500h1q-24 -17 -39.5 -40t-15.5 -42z" />
    <glyph glyph-name="Wcircumflex" unicode="&#x174;" horiz-adv-x="1088" 
d="M545 794l-107 -79l-50 50l108 115h97l108 -115l-50 -50zM918 680h137l-202 -680h-156l-153 508l-153 -508h-156l-202 680h137l143 -515l156 515h149l156 -515z" />
    <glyph glyph-name="wcircumflex" unicode="&#x175;" horiz-adv-x="868" 
d="M433 614l-107 -79l-50 50l108 115h97l108 -115l-50 -50zM714 500h127l-150 -500h-149l-107 358l-108 -358h-149l-150 500h126l99 -357l108 357h146l108 -357z" />
    <glyph glyph-name="Ycircumflex" unicode="&#x176;" horiz-adv-x="696" 
d="M353 794l-107 -79l-50 50l108 115h97l108 -115l-50 -50zM682 680l-269 -403v-277h-129v276l-269 404h154l179 -278l180 278h154z" />
    <glyph glyph-name="ycircumflex" unicode="&#x177;" horiz-adv-x="586" 
d="M293 614l-107 -79l-50 50l108 115h97l108 -115l-50 -50zM432 500h130l-289 -700h-133l94 226l-211 474h136l141 -317z" />
    <glyph glyph-name="Ydieresis" unicode="&#x178;" horiz-adv-x="696" 
d="M331 730q-32 0 -55.5 23t-23.5 55q0 31 23.5 54t55.5 23q11 0 22 -3q11 3 23 3q32 0 55 -23t23 -54q0 -32 -23 -55t-55 -23q-12 0 -23 3q-10 -3 -22 -3zM682 680l-269 -403v-277h-129v276l-269 404h154l179 -278l180 278h154z" />
    <glyph glyph-name="Zacute" unicode="&#x179;" horiz-adv-x="674" 
d="M477 848l-93 -107h-95l71 163zM245 123h367v-123h-548v99l348 458h-348v123h528v-99z" />
    <glyph glyph-name="zacute" unicode="&#x17a;" horiz-adv-x="490" 
d="M385 668l-93 -107h-95l71 163zM216 119h227v-119h-392v99l222 282h-222v119h387v-99z" />
    <glyph glyph-name="Zdotaccent" unicode="&#x17b;" horiz-adv-x="674" 
d="M340 730q-32 0 -55.5 23t-23.5 55q0 31 23.5 54t55.5 23t54.5 -22.5t22.5 -54.5t-22.5 -55t-54.5 -23zM245 123h367v-123h-548v99l348 458h-348v123h528v-99z" />
    <glyph glyph-name="zdotaccent" unicode="&#x17c;" horiz-adv-x="490" 
d="M248 550q-32 0 -55.5 23t-23.5 55q0 31 23.5 54t55.5 23t54.5 -22.5t22.5 -54.5t-22.5 -55t-54.5 -23zM216 119h227v-119h-392v99l222 282h-222v119h387v-99z" />
    <glyph glyph-name="Zcaron" unicode="&#x17d;" horiz-adv-x="674" 
d="M387 740h-97l-108 115l50 50l107 -79l106 79l50 -50zM245 123h367v-123h-548v99l348 458h-348v123h528v-99z" />
    <glyph glyph-name="zcaron" unicode="&#x17e;" horiz-adv-x="490" 
d="M295 560h-97l-108 115l50 50l107 -79l106 79l50 -50zM216 119h227v-119h-392v99l222 282h-222v119h387v-99z" />
    <glyph glyph-name="Scommaaccent" unicode="&#x218;" horiz-adv-x="638" 
d="M586 201q0 -98 -74 -157.5t-194 -59.5q-110 0 -186.5 50.5t-92.5 129.5l125 45q13 -45 55 -73t108 -28q59 0 94.5 23t35.5 60q0 21 -9.5 35t-38 25.5t-44 15.5t-62.5 14q-5 1 -8 2q-108 24 -167 69.5t-59 132.5q0 97 69.5 154t178.5 57q102 0 173.5 -49.5t88.5 -130.5
l-121 -45q-12 45 -50.5 73.5t-95.5 28.5q-50 0 -82 -21.5t-32 -55.5q0 -20 11 -35t34.5 -25.5t42.5 -16.5t53 -14q123 -30 185 -74t62 -130zM265 -60h122l-80 -219h-78z" />
    <glyph glyph-name="scommaaccent" unicode="&#x219;" horiz-adv-x="482" 
d="M438 148q0 -74 -59 -118t-145 -44q-80 0 -135.5 39t-69.5 104l106 32q8 -31 35 -49.5t68 -18.5q34 0 57 12.5t23 31.5q0 20 -24.5 33t-74.5 26q-34 9 -57 17.5t-52 26t-44.5 46t-15.5 67.5q0 73 54.5 116.5t135.5 43.5q75 0 126.5 -39t65.5 -104l-102 -32q-8 30 -32 49.5
t-59 19.5q-29 0 -49 -13t-20 -33q0 -19 20.5 -30.5t63.5 -23.5q26 -7 36.5 -10t38 -12.5t42 -20t33 -27t26.5 -39t8 -50.5zM188 -60h122l-80 -219h-78z" />
    <glyph glyph-name="uni021A" unicode="&#x21a;" horiz-adv-x="591" 
d="M555 680v-123h-194v-557h-130v557h-194v123h518zM202 -288l36 219h122l-80 -219h-78z" />
    <glyph glyph-name="uni021B" unicode="&#x21b;" horiz-adv-x="409" 
d="M363 388h-117v-211q0 -60 55 -60h62v-117h-81q-161 0 -161 161v227h-90v112h90v124l125 39v-163h117v-112zM156 -279l36 219h122l-80 -219h-78z" />
    <glyph glyph-name="gravecomb" unicode="&#x300;" 
d="M-296 724l71 -163h-95l-93 107z" />
    <glyph glyph-name="acutecomb" unicode="&#x301;" 
d="M-278 724l117 -56l-93 -107h-95z" />
    <glyph glyph-name="uni0302" unicode="&#x302;" 
d="M-143 585l-50 -50l-106 79l-107 -79l-50 50l108 115h97z" />
    <glyph glyph-name="tildecomb" unicode="&#x303;" 
d="M-174 690h75q4 -60 -29.5 -97.5t-84.5 -37.5q-17 0 -33.5 6t-23.5 10t-29 19q-26 18 -43 18q-30 0 -30 -42h-75q-4 59 29 96.5t83 37.5q40 0 89 -35q25 -18 42 -18q30 0 30 43z" />
    <glyph glyph-name="uni0304" unicode="&#x304;" 
d="M-480 661h350v-91h-350v91z" />
    <glyph glyph-name="uni0306" unicode="&#x306;" 
d="M-221 700h83q0 -63 -45 -103.5t-114 -40.5t-114 40.5t-45 103.5h83q0 -27 20 -43t56 -16t56 16t20 43z" />
    <glyph glyph-name="uni0307" unicode="&#x307;" 
d="M-272 550q-32 0 -55.5 23t-23.5 55q0 31 23.5 54t55.5 23t54.5 -22.5t22.5 -54.5t-22.5 -55t-54.5 -23z" />
    <glyph glyph-name="uni0308" unicode="&#x308;" 
d="M-250 705q32 0 55 -23t23 -54q0 -32 -23 -55t-55 -23q-12 0 -23 3q-11 -3 -22 -3q-32 0 -55.5 23t-23.5 55q0 31 23.5 54t55.5 23q11 0 22 -3q11 3 23 3z" />
    <glyph glyph-name="uni030A" unicode="&#x30a;" 
d="M-272 522q-41 0 -70.5 29t-29.5 70q0 40 29.5 69t70.5 29q40 0 69.5 -29t29.5 -69q0 -41 -29 -70t-70 -29zM-272 573q20 0 34 14t14 34q0 19 -14.5 33t-33.5 14q-20 0 -34.5 -14t-14.5 -33q0 -20 14.5 -34t34.5 -14z" />
    <glyph glyph-name="uni030B" unicode="&#x30b;" 
d="M-403 724l111 -56l-88 -107h-90zM-248 724l111 -56l-88 -107h-90z" />
    <glyph glyph-name="uni030C" unicode="&#x30c;" 
d="M-193 725l50 -50l-108 -115h-97l-108 115l50 50l107 -79z" />
    <glyph glyph-name="uni0312" unicode="&#x312;" 
d="M-261 545h-122l80 219h78z" />
    <glyph glyph-name="uni0326" unicode="&#x326;" 
d="M-516 -60h122l-80 -219h-78z" />
    <glyph glyph-name="uni0327" unicode="&#x327;" 
d="M-307 -157l-112 56l86 110h91z" />
    <glyph glyph-name="uni0328" unicode="&#x328;" 
d="M-139 -179q-69 -29 -117 -1t-48 88q0 49 38 92h107q-24 -17 -39.5 -40t-15.5 -42q0 -25 22 -29t53 17v-85z" />
    <glyph glyph-name="uni0335" unicode="&#x335;" 
d="M-530 376h400v-102h-400v102z" />
    <glyph glyph-name="uni0336" unicode="&#x336;" 
d="M-655 359h710v-92h-710v92z" />
    <glyph glyph-name="uni0337" unicode="&#x337;" 
d="M-510 503h377v-102h-377v102z" />
    <glyph glyph-name="uni0338" unicode="&#x338;" 
d="M-357 720h107v-940h-107v940z" />
    <glyph glyph-name="pi" unicode="&#x3c0;" horiz-adv-x="685" 
d="M656 420h-87v-260q0 -104 15 -160h-118q-19 25 -19 149v271h-183q-5 -102 -27.5 -232t-49.5 -188h-119q28 74 50.5 200t25.5 220q-84 0 -124 -12l-15 73q46 31 180 31h482z" />
    <glyph glyph-name="Wgrave" unicode="&#x1e80;" horiz-adv-x="1088" 
d="M606 741h-95l-93 107l117 56zM918 680h137l-202 -680h-156l-153 508l-153 -508h-156l-202 680h137l143 -515l156 515h149l156 -515z" />
    <glyph glyph-name="wgrave" unicode="&#x1e81;" horiz-adv-x="868" 
d="M494 561h-95l-93 107l117 56zM714 500h127l-150 -500h-149l-107 358l-108 -358h-149l-150 500h126l99 -357l108 357h146l108 -357z" />
    <glyph glyph-name="Wacute" unicode="&#x1e82;" horiz-adv-x="1088" 
d="M683 848l-93 -107h-95l71 163zM918 680h137l-202 -680h-156l-153 508l-153 -508h-156l-202 680h137l143 -515l156 515h149l156 -515z" />
    <glyph glyph-name="wacute" unicode="&#x1e83;" horiz-adv-x="868" 
d="M571 668l-93 -107h-95l71 163zM714 500h127l-150 -500h-149l-107 358l-108 -358h-149l-150 500h126l99 -357l108 357h146l108 -357z" />
    <glyph glyph-name="Wdieresis" unicode="&#x1e84;" horiz-adv-x="1088" 
d="M523 730q-32 0 -55.5 23t-23.5 55q0 31 23.5 54t55.5 23q11 0 22 -3q10 3 23 3q32 0 55 -23t23 -54q0 -32 -23 -55t-55 -23q-12 0 -23 3q-11 -3 -22 -3zM918 680h137l-202 -680h-156l-153 508l-153 -508h-156l-202 680h137l143 -515l156 515h149l156 -515z" />
    <glyph glyph-name="wdieresis" unicode="&#x1e85;" horiz-adv-x="868" 
d="M411 550q-32 0 -55.5 23t-23.5 55q0 31 23.5 54t55.5 23q11 0 22 -3q10 3 23 3q32 0 55 -23t23 -54q0 -32 -23 -55t-55 -23q-12 0 -23 3q-10 -3 -22 -3zM714 500h127l-150 -500h-149l-107 358l-108 -358h-149l-150 500h126l99 -357l108 357h146l108 -357z" />
    <glyph glyph-name="Ygrave" unicode="&#x1ef2;" horiz-adv-x="696" 
d="M414 741h-95l-93 107l117 56zM682 680l-269 -403v-277h-129v276l-269 404h154l179 -278l180 278h154z" />
    <glyph glyph-name="ygrave" unicode="&#x1ef3;" horiz-adv-x="586" 
d="M354 561h-95l-93 107l117 56zM432 500h130l-289 -700h-133l94 226l-211 474h136l141 -317z" />
    <glyph glyph-name="endash" unicode="&#x2013;" horiz-adv-x="597" 
d="M65 226v118h467v-118h-467z" />
    <glyph glyph-name="emdash" unicode="&#x2014;" horiz-adv-x="888" 
d="M65 226v118h758v-118h-758z" />
    <glyph glyph-name="quoteleft" unicode="&#x2018;" horiz-adv-x="304" 
d="M164 561q34 0 57 -22.5t23 -57.5q0 -36 -24.5 -59.5t-59.5 -23.5q-43 0 -71.5 35t-28.5 87q0 79 53 134.5t127 55.5v-70q-33 -1 -59 -23.5t-34 -58.5q9 3 17 3z" />
    <glyph glyph-name="quoteright" unicode="&#x2019;" horiz-adv-x="304" 
d="M144 710q43 0 71.5 -35t28.5 -87q0 -79 -53 -134.5t-127 -55.5v70q33 1 59 23.5t34 58.5q-9 -3 -17 -3q-34 0 -57 22.5t-23 57.5q0 36 24.5 59.5t59.5 23.5z" />
    <glyph glyph-name="quotesinglbase" unicode="&#x201a;" horiz-adv-x="246" 
d="M95 144h132l-124 -284h-84z" />
    <glyph glyph-name="quotedblleft" unicode="&#x201c;" horiz-adv-x="533" 
d="M164 561q34 0 57 -22.5t23 -57.5q0 -36 -24.5 -59.5t-59.5 -23.5q-43 0 -71.5 35t-28.5 87q0 79 53 134.5t127 55.5v-70q-33 -1 -59 -23.5t-34 -58.5q9 3 17 3zM393 561q35 0 57.5 -22.5t22.5 -57.5q0 -36 -24.5 -59.5t-59.5 -23.5q-43 0 -71.5 35t-28.5 87
q0 79 53 134.5t127 55.5v-70q-33 -1 -59 -23.5t-34 -58.5q9 3 17 3z" />
    <glyph glyph-name="quotedblright" unicode="&#x201d;" horiz-adv-x="544" 
d="M144 710q43 0 71.5 -35t28.5 -87q0 -79 -53 -134.5t-127 -55.5v70q33 1 59 23.5t34 58.5q-9 -3 -17 -3q-34 0 -57 22.5t-23 57.5q0 36 24.5 59.5t59.5 23.5zM384 710q43 0 71.5 -35t28.5 -87q0 -79 -53 -134.5t-127 -55.5v70q33 1 59 23.5t34 58.5q-9 -3 -17 -3
q-34 0 -57 22.5t-23 57.5q0 36 24.5 59.5t59.5 23.5z" />
    <glyph glyph-name="quotedblbase" unicode="&#x201e;" horiz-adv-x="439" 
d="M95 144h132l-124 -284h-84zM288 144h132l-124 -284h-84z" />
    <glyph glyph-name="dagger" unicode="&#x2020;" horiz-adv-x="602" 
d="M244 710h114l-12 -220l213 10v-101l-213 10l12 -461h-114l12 461l-213 -10v101l213 -10z" />
    <glyph glyph-name="daggerdbl" unicode="&#x2021;" horiz-adv-x="602" 
d="M246 710h110l-10 -201l213 10v-100l-213 10v-197l213 10v-100l-213 10l10 -204h-110l8 204l-211 -10v100l212 -10v197l-212 -10v100l212 -10z" />
    <glyph glyph-name="bullet" unicode="&#x2022;" horiz-adv-x="498" 
d="M250 494q68 0 118 -49.5t50 -118.5q0 -71 -50 -120.5t-118 -49.5q-69 0 -119.5 49.5t-50.5 120.5q0 69 50.5 118.5t119.5 49.5z" />
    <glyph glyph-name="ellipsis" unicode="&#x2026;" horiz-adv-x="817" 
d="M138 163q36 0 62 -26.5t26 -62.5q0 -37 -26 -63t-62 -26q-37 0 -63.5 26t-26.5 63t26.5 63t63.5 26zM409 163q36 0 62.5 -26t26.5 -63t-26.5 -63t-62.5 -26q-37 0 -63.5 26t-26.5 63t26.5 63t63.5 26zM681 163q36 0 62.5 -26t26.5 -63t-26.5 -63t-62.5 -26
q-37 0 -63.5 26t-26.5 63t26.5 63t63.5 26z" />
    <glyph glyph-name="perthousand" unicode="&#x2030;" horiz-adv-x="1321" 
d="M640 700l80 -52l-437 -668l-81 52zM225 696q73 0 126 -52.5t53 -126.5q0 -76 -53 -128.5t-126 -52.5t-127 53t-54 128q0 74 54 126.5t127 52.5zM225 613q-40 0 -69 -28t-29 -68q0 -41 29 -69.5t69 -28.5t68.5 28.5t28.5 69.5q0 40 -29 68t-68 28zM701 344q73 0 126 -52.5
t53 -126.5q0 -76 -53 -128.5t-126 -52.5t-127 53t-54 128q0 74 54 126.5t127 52.5zM1098 344q73 0 126 -52.5t53 -126.5q0 -76 -53 -128.5t-126 -52.5t-127 53t-54 128q0 74 54 126.5t127 52.5zM701 262q-40 0 -69.5 -28.5t-29.5 -68.5q0 -41 29.5 -70t69.5 -29
q39 0 67.5 29t28.5 70q0 40 -28.5 68.5t-67.5 28.5zM1098 262q-40 0 -69.5 -28.5t-29.5 -68.5q0 -41 29.5 -70t69.5 -29t68.5 29t28.5 70q0 40 -29 68.5t-68 28.5z" />
    <glyph glyph-name="guilsinglleft" unicode="&#x2039;" horiz-adv-x="444" 
d="M369 465l-166 -185l166 -185h-143l-166 185l166 185h143z" />
    <glyph glyph-name="guilsinglright" unicode="&#x203a;" horiz-adv-x="444" 
d="M218 465l166 -185l-166 -185h-143l166 185l-166 185h143z" />
    <glyph glyph-name="fraction" unicode="&#x2044;" horiz-adv-x="171" 
d="M279 700l60 -38l-447 -682l-60 38z" />
    <glyph glyph-name="Euro" unicode="&#x20ac;" horiz-adv-x="613" 
d="M527 569q-171 0 -244 -104h196v-96h-231q-2 -18 -2 -29t2 -29h231v-96h-196q72 -105 244 -105v-126q-144 0 -246.5 63t-142.5 168h-112v96h90q-1 10 -1 29t1 29h-90v96h112q40 105 142.5 168t246.5 63v-127z" />
    <glyph glyph-name="afii61289" unicode="&#x2113;" horiz-adv-x="590" 
d="M510 181l53 -51q-83 -142 -239 -142q-87 0 -136 45t-62 119v10q-4 -3 -26.5 -19t-34.5 -24l-34 62q11 9 44 31.5t49 35.5v244q0 134 53.5 196.5t139.5 62.5q79 0 120 -49.5t41 -123.5q0 -89 -60.5 -173.5t-179.5 -182.5l1 -24q1 -56 34 -86.5t79 -30.5q48 0 90 29.5
t68 70.5zM238 516v-193q154 149 154 254q0 95 -71 95q-33 0 -58 -37.5t-25 -118.5z" />
    <glyph glyph-name="trademark" unicode="&#x2122;" horiz-adv-x="579" 
d="M162 700v-65h-79v-237h-68v237h-83v65h230zM557 700v-302h-66v191l-74 -191h-68l-72 189v-189h-67v302h92l81 -212l82 212h92z" />
    <glyph glyph-name="Omega" unicode="&#x2126;" horiz-adv-x="856" 
d="M221 90v3q-65 43 -109.5 115.5t-44.5 165.5q0 137 102.5 230t260.5 93q80 0 148.5 -27t113.5 -71.5t70.5 -102.5t25.5 -120q0 -95 -44.5 -167t-111.5 -116v-3h171v-90h-307v68q170 92 170 289q0 100 -64 175t-171 75q-106 0 -174 -72.5t-68 -181.5q0 -99 48.5 -174
t121.5 -111v-68h-307v90h169z" />
    <glyph glyph-name="estimated" unicode="&#x212e;" horiz-adv-x="858" 
d="M824 330h-640q-5 0 -5 -4v-194q0 -12 8 -22q102 -105 242 -105q153 0 255 118h57q-54 -64 -136.5 -101t-176.5 -37q-164 0 -279.5 104t-115.5 251t116 251.5t279 104.5q164 0 280 -104.5t116 -251.5v-10zM679 355v195q0 14 -10 23q-103 101 -240 101q-139 0 -241 -104
q-9 -9 -9 -24v-191q0 -6 5 -6h491q4 0 4 6z" />
    <glyph glyph-name="uni2150" unicode="&#x2150;" horiz-adv-x="1013" 
d="M658 700l60 -38l-447 -682l-60 38zM268 240h-102v309q-43 -36 -121 -35v93q70 4 96 22t25 60h102v-449zM645 449h323v-75l-192 -374h-113l184 354h-202v95z" />
    <glyph glyph-name="uni2151" unicode="&#x2151;" horiz-adv-x="983" 
d="M658 700l60 -38l-447 -682l-60 38zM268 240h-102v309q-43 -36 -121 -35v93q70 4 96 22t25 60h102v-449zM763 460q80 0 127.5 -62.5t47.5 -163.5q0 -108 -55 -176t-141 -68q-44 0 -83 18.5t-62 50.5l70 59q26 -36 74 -36q35 0 60 26t35 69q-34 -29 -85 -29
q-65 0 -110.5 44.5t-45.5 108.5q0 66 49 112.5t119 46.5zM762 231q28 0 47.5 19.5t19.5 47.5q0 29 -19 48.5t-48 19.5q-28 0 -48 -20t-20 -48q0 -27 20 -47t48 -20z" />
    <glyph glyph-name="uni2152" unicode="&#x2152;" horiz-adv-x="1366" 
d="M658 700l60 -38l-447 -682l-60 38zM268 240h-102v309q-43 -36 -121 -35v93q70 4 96 22t25 60h102v-449zM1134 463q83 0 135 -66t52 -172t-52 -172t-135 -66t-134.5 66t-51.5 172t51.5 172t134.5 66zM635 367q70 4 96 22t25 60h102v-449h-102v309q-43 -36 -121 -35v93z
M1134 85q40 0 63 37.5t23 102.5t-23 103t-63 38q-39 0 -62 -38t-23 -103t23 -102.5t62 -37.5z" />
    <glyph glyph-name="uni2153" unicode="&#x2153;" horiz-adv-x="981" 
d="M658 700l60 -38l-447 -682l-60 38zM268 240h-102v309q-43 -36 -121 -35v93q70 4 96 22t25 60h102v-449zM870 230q66 -35 66 -103q0 -59 -48 -98t-119 -39q-66 0 -113 36t-61 96l95 28q5 -29 26 -47t52 -18q29 0 49 15t20 37t-22.5 36.5t-60.5 14.5h-52v82h52
q34 0 53.5 13t19.5 35q0 20 -17.5 33.5t-43.5 13.5q-29 0 -47.5 -17.5t-23.5 -46.5l-95 26q14 61 59 97t109 36q67 0 113 -38t46 -96q0 -63 -57 -96z" />
    <glyph glyph-name="uni2154" unicode="&#x2154;" horiz-adv-x="1049" 
d="M726 700l60 -38l-447 -682l-60 38zM51 314l182 191q24 25 24 51q0 20 -16 34t-39 14q-27 0 -45.5 -21.5t-16.5 -51.5l-95 16q1 64 47 108t110 44q63 0 109 -41t46 -99q0 -64 -58 -125l-97 -99h164v-95h-315v74zM938 230q66 -35 66 -103q0 -59 -48 -98t-119 -39
q-66 0 -113 36t-61 96l95 28q5 -29 26 -47t52 -18q29 0 49 15t20 37t-22.5 36.5t-60.5 14.5h-52v82h52q34 0 53.5 13t19.5 35q0 20 -17.5 33.5t-43.5 13.5q-29 0 -47.5 -17.5t-23.5 -46.5l-95 26q14 61 59 97t109 36q67 0 113 -38t46 -96q0 -63 -57 -96z" />
    <glyph glyph-name="uni2155" unicode="&#x2155;" horiz-adv-x="982" 
d="M658 700l60 -38l-447 -682l-60 38zM268 240h-102v309q-43 -36 -121 -35v93q70 4 96 22t25 60h102v-449zM781 301q65 0 110.5 -43.5t45.5 -106.5q0 -67 -51 -114t-121 -47q-60 0 -107 37t-63 98l90 29q7 -30 29.5 -49.5t51.5 -19.5q30 0 51 19t21 46q0 28 -20.5 47.5
t-50.5 19.5q-44 0 -76 -39l-79 38l38 233h264v-95h-188l-11 -65q30 12 66 12z" />
    <glyph glyph-name="uni2156" unicode="&#x2156;" horiz-adv-x="1050" 
d="M726 700l60 -38l-447 -682l-60 38zM51 314l182 191q24 25 24 51q0 20 -16 34t-39 14q-27 0 -45.5 -21.5t-16.5 -51.5l-95 16q1 64 47 108t110 44q63 0 109 -41t46 -99q0 -64 -58 -125l-97 -99h164v-95h-315v74zM849 301q65 0 110.5 -43.5t45.5 -106.5q0 -67 -51 -114
t-121 -47q-60 0 -107 37t-63 98l90 29q7 -30 29.5 -49.5t51.5 -19.5q30 0 51 19t21 46q0 28 -20.5 47.5t-50.5 19.5q-44 0 -76 -39l-79 38l38 233h264v-95h-188l-11 -65q30 12 66 12z" />
    <glyph glyph-name="uni2157" unicode="&#x2157;" horiz-adv-x="1030" 
d="M386 367q0 -59 -48 -98t-119 -39q-66 0 -113 36t-61 96l95 28q5 -29 26 -47t52 -18q29 0 49 15t20 37t-22.5 36.5t-60.5 14.5h-52v82h52q34 0 53.5 13t19.5 35q0 20 -17.5 33.5t-43.5 13.5q-29 0 -47.5 -17.5t-23.5 -46.5l-95 26q14 61 59 97t109 36q67 0 113 -38t46 -96
q0 -63 -57 -96q66 -35 66 -103zM706 700l60 -38l-447 -682l-60 38zM829 301q65 0 110.5 -43.5t45.5 -106.5q0 -67 -51 -114t-121 -47q-60 0 -106.5 37t-63.5 98l90 29q7 -30 29.5 -49.5t51.5 -19.5q30 0 51 19t21 46q0 28 -20.5 47.5t-50.5 19.5q-44 0 -76 -39l-79 38
l38 233h264v-95h-188l-11 -65q30 12 66 12z" />
    <glyph glyph-name="uni2158" unicode="&#x2158;" horiz-adv-x="1063" 
d="M739 700l60 -38l-447 -682l-60 38zM349 240h-95v96h-209v73l145 280h106l-139 -266h97v121h95v-121h66v-87h-66v-96zM862 301q65 0 110.5 -43.5t45.5 -106.5q0 -67 -51 -114t-121 -47q-60 0 -106.5 37t-63.5 98l90 29q7 -30 29.5 -49.5t51.5 -19.5q30 0 51 19t21 46
q0 28 -20.5 47.5t-50.5 19.5q-44 0 -76 -39l-79 38l38 233h264v-95h-188l-11 -65q30 12 66 12z" />
    <glyph glyph-name="uni2159" unicode="&#x2159;" horiz-adv-x="968" 
d="M658 700l60 -38l-447 -682l-60 38zM268 240h-102v309q-43 -36 -121 -35v93q70 4 96 22t25 60h102v-449zM766 302q66 0 111.5 -44.5t45.5 -108.5q0 -66 -48.5 -112.5t-118.5 -46.5q-81 0 -128.5 62t-47.5 164q0 108 55 176t141 68q94 0 145 -70l-69 -59q-28 36 -75 36
q-35 0 -60 -25.5t-35 -68.5q34 29 84 29zM756 84q28 0 47.5 19.5t19.5 47.5t-19.5 47.5t-47.5 19.5t-48 -19.5t-20 -47.5t19.5 -47.5t48.5 -19.5z" />
    <glyph glyph-name="uni215A" unicode="&#x215a;" horiz-adv-x="1016" 
d="M705 700l60 -38l-447 -682l-60 38zM387 391q0 -67 -51 -114t-121 -47q-60 0 -106.5 37t-63.5 98l90 29q7 -30 29.5 -49.5t51.5 -19.5q30 0 51 19t21 46q0 28 -20.5 47.5t-50.5 19.5q-44 0 -76 -39l-79 38l38 233h264v-95h-188l-11 -65q30 12 66 12q65 0 110.5 -43.5
t45.5 -106.5zM814 302q66 0 111.5 -44.5t45.5 -108.5q0 -66 -48.5 -112.5t-118.5 -46.5q-81 0 -128.5 62t-47.5 164q0 108 55 176t141 68q94 0 145 -70l-69 -59q-28 36 -75 36q-35 0 -60 -25.5t-35 -68.5q34 29 84 29zM804 84q28 0 47.5 19.5t19.5 47.5t-19.5 47.5
t-47.5 19.5t-48 -19.5t-20 -47.5t19.5 -47.5t48.5 -19.5z" />
    <glyph glyph-name="oneeighth" unicode="&#x215b;" horiz-adv-x="988" 
d="M658 700l60 -38l-447 -682l-60 38zM268 240h-102v309q-43 -36 -121 -35v93q70 4 96 22t25 60h102v-449zM884 233q59 -37 59 -101q0 -60 -50 -101t-123 -41q-74 0 -124.5 41t-50.5 101q0 64 60 101q-50 34 -50 90q0 59 47.5 98t117.5 39t117 -39.5t47 -97.5q0 -56 -50 -90
zM770 365q-28 0 -47 -14t-19 -35t18.5 -34.5t47.5 -13.5q27 0 45.5 14t18.5 34q0 21 -18.5 35t-45.5 14zM770 85q31 0 52.5 15.5t21.5 37.5t-21.5 37.5t-52.5 15.5q-32 0 -53.5 -15.5t-21.5 -37.5q0 -23 21.5 -38t53.5 -15z" />
    <glyph glyph-name="threeeighths" unicode="&#x215c;" horiz-adv-x="1036" 
d="M386 367q0 -59 -48 -98t-119 -39q-66 0 -113 36t-61 96l95 28q5 -29 26 -47t52 -18q29 0 49 15t20 37t-22.5 36.5t-60.5 14.5h-52v82h52q34 0 53.5 13t19.5 35q0 20 -17.5 33.5t-43.5 13.5q-29 0 -47.5 -17.5t-23.5 -46.5l-95 26q14 61 59 97t109 36q67 0 113 -38t46 -96
q0 -63 -57 -96q66 -35 66 -103zM706 700l60 -38l-447 -682l-60 38zM932 233q59 -37 59 -101q0 -60 -50 -101t-123 -41q-74 0 -124.5 41t-50.5 101q0 64 60 101q-50 34 -50 90q0 59 47.5 98t117.5 39t117 -39.5t47 -97.5q0 -56 -50 -90zM818 365q-28 0 -47 -14t-19 -35
t18.5 -34.5t47.5 -13.5q27 0 45.5 14t18.5 34q0 21 -18.5 35t-45.5 14zM818 85q31 0 52.5 15.5t21.5 37.5t-21.5 37.5t-52.5 15.5q-32 0 -53.5 -15.5t-21.5 -37.5q0 -23 21.5 -38t53.5 -15z" />
    <glyph glyph-name="fiveeighths" unicode="&#x215d;" horiz-adv-x="1035" 
d="M705 700l60 -38l-447 -682l-60 38zM387 391q0 -67 -51 -114t-121 -47q-60 0 -106.5 37t-63.5 98l90 29q7 -30 29.5 -49.5t51.5 -19.5q30 0 51 19t21 46q0 28 -20.5 47.5t-50.5 19.5q-44 0 -76 -39l-79 38l38 233h264v-95h-188l-11 -65q30 12 66 12q65 0 110.5 -43.5
t45.5 -106.5zM931 233q59 -37 59 -101q0 -60 -50 -101t-123 -41q-74 0 -124.5 41t-50.5 101q0 64 60 101q-50 34 -50 90q0 59 47.5 98t117.5 39t117 -39.5t47 -97.5q0 -56 -50 -90zM817 365q-28 0 -47 -14t-19 -35t18.5 -34.5t47.5 -13.5q27 0 45.5 14t18.5 34
q0 21 -18.5 35t-45.5 14zM817 85q31 0 52.5 15.5t21.5 37.5t-21.5 37.5t-52.5 15.5q-32 0 -53.5 -15.5t-21.5 -37.5q0 -23 21.5 -38t53.5 -15z" />
    <glyph glyph-name="seveneighths" unicode="&#x215e;" horiz-adv-x="952" 
d="M622 700l60 -38l-447 -682l-60 38zM176 240h-113l184 354h-202v95h323v-75zM848 233q59 -37 59 -101q0 -60 -50 -101t-123 -41q-74 0 -124.5 41t-50.5 101q0 64 60 101q-50 34 -50 90q0 59 47.5 98t117.5 39t117 -39.5t47 -97.5q0 -56 -50 -90zM734 365q-28 0 -47 -14
t-19 -35t18.5 -34.5t47.5 -13.5q27 0 45.5 14t18.5 34q0 21 -18.5 35t-45.5 14zM734 85q31 0 52.5 15.5t21.5 37.5t-21.5 37.5t-52.5 15.5q-32 0 -53.5 -15.5t-21.5 -37.5q0 -23 21.5 -38t53.5 -15z" />
    <glyph glyph-name="uni215F" unicode="&#x215f;" horiz-adv-x="550" 
d="M658 700l60 -38l-447 -682l-60 38zM268 240h-102v309q-43 -36 -121 -35v93q70 4 96 22t25 60h102v-449z" />
    <glyph glyph-name="uni2189" unicode="&#x2189;" horiz-adv-x="1051" 
d="M418 465q0 -106 -52 -172t-135 -66t-134.5 66t-51.5 172t51.5 172t134.5 66t135 -66t52 -172zM728 700l60 -38l-447 -682l-60 38zM231 325q40 0 63 37.5t23 102.5t-23 103t-63 38q-39 0 -62 -38t-23 -103t23 -102.5t62 -37.5zM940 230q66 -35 66 -103q0 -59 -48 -98
t-119 -39q-66 0 -113 36t-61 96l95 28q5 -29 26 -47t52 -18q29 0 49 15t20 37t-22.5 36.5t-60.5 14.5h-52v82h52q34 0 53.5 13t19.5 35q0 20 -17.5 33.5t-43.5 13.5q-29 0 -47.5 -17.5t-23.5 -46.5l-95 26q14 61 59 97t109 36q67 0 113 -38t46 -96q0 -63 -57 -96z" />
    <glyph glyph-name="partialdiff" unicode="&#x2202;" horiz-adv-x="650" 
d="M114 629l-38 77q85 60 209 60q132 0 222 -102.5t90 -275.5q0 -171 -86.5 -286t-232.5 -115q-59 0 -106 22.5t-74.5 58t-42 75.5t-14.5 79q0 109 70.5 180t176.5 71q70 0 119.5 -34t69.5 -68h2q1 10 1 38q0 116 -59.5 191t-149.5 75q-87 0 -157 -46zM289 77h1
q69 0 116.5 60.5t58.5 141.5q-12 36 -54 71t-98 35q-64 0 -108.5 -47.5t-44.5 -115.5q0 -61 36.5 -103t92.5 -42z" />
    <glyph glyph-name="Delta" unicode="&#x2206;" horiz-adv-x="764" 
d="M30 0v67l281 636h144l278 -636v-67h-703zM158 91h439l-149 338q-7 19 -34 84.5t-35 88.5h-4q-6 -16 -29.5 -74t-32.5 -82z" />
    <glyph glyph-name="product" unicode="&#x220f;" horiz-adv-x="819" 
d="M794 586h-126v-680h-116v680h-285v-680h-117v680h-126v99h770v-99z" />
    <glyph glyph-name="summation" unicode="&#x2211;" horiz-adv-x="647" 
d="M625 -94h-602v67l292 320l-278 316v76h569v-97h-402v-4l248 -278l-269 -297v-3h442v-100z" />
    <glyph glyph-name="minus" unicode="&#x2212;" horiz-adv-x="587" 
d="M60 287v106h467v-106h-467z" />
    <glyph glyph-name="radical" unicode="&#x221a;" horiz-adv-x="666" 
d="M680 815l-262 -962h-97l-181 442l-84 -33l-22 61l175 71l138 -356q15 -43 22 -71h2q2 12 8.5 38t8.5 36l206 774h86z" />
    <glyph glyph-name="infinity" unicode="&#x221e;" horiz-adv-x="842" 
d="M787 284v-1q0 -80 -50.5 -129t-119.5 -49q-93 0 -196 125q-52 -61 -97 -93t-105 -32q-68 0 -117 49.5t-49 124.5q0 77 50 127t125 50q57 0 103.5 -32t94.5 -91q57 63 83 82q55 41 115 41q72 0 117.5 -47.5t45.5 -124.5zM228 169h1q9 0 19 2t18 4.5t17.5 8.5t16 9.5
t16.5 12.5t14.5 12.5t15 14.5t13.5 14t13.5 15t12.5 14q-20 26 -28 35.5t-27 30t-32 29t-33.5 16t-41.5 7.5q-46 0 -74.5 -33t-28.5 -83q0 -45 30.5 -77t77.5 -32zM617 394h-1q-19 0 -37.5 -6.5t-38 -23t-29 -25t-30 -32t-22.5 -25.5q54 -63 88.5 -88t72.5 -25q45 0 72.5 34
t27.5 76q0 51 -29 83t-74 32z" />
    <glyph glyph-name="integral" unicode="&#x222b;" horiz-adv-x="407" 
d="M396 829l-15 -73q-20 10 -43 10q-38 0 -57 -25q-34 -38 -34 -168q0 -77 8.5 -235t8.5 -243q0 -128 -44 -195q-40 -66 -127 -66q-50 0 -84 18l17 77q26 -13 52 -13q32 0 52 21q36 43 36 160q0 86 -8.5 247t-8.5 241q0 83 15 133.5t49 82.5q42 42 117 42q40 0 66 -14z" />
    <glyph glyph-name="approxequal" unicode="&#x2248;" horiz-adv-x="635" 
d="M543 450l43 -43q-63 -102 -151 -102q-33 0 -59 9.5t-72 34.5q-66 35 -102 35q-34 0 -59.5 -19.5t-54.5 -57.5l-43 42q27 46 70.5 74t92.5 28q25 0 51 -8t35 -13l36 -20q58 -32 83 -35q10 -2 21 -2q33 0 58 18.5t51 58.5zM543 256l43 -43q-65 -102 -152 -102q-32 0 -58 10
t-72 35q-66 35 -101 35q-36 0 -60.5 -19.5t-54.5 -58.5l-43 42q27 46 71 74.5t92 28.5q15 0 29.5 -2t28.5 -7.5t21.5 -9t23.5 -11.5t19 -10q5 -3 19.5 -11t21 -11t18 -8t22.5 -7t23 -2q32 0 56.5 18.5t52.5 58.5z" />
    <glyph glyph-name="notequal" unicode="&#x2260;" horiz-adv-x="587" 
d="M527 392h-159l-48 -104h207v-107h-258l-42 -90h-112l42 90h-97v107h147l49 104h-196v107h246l42 90h113l-42 -90h108v-107z" />
    <glyph glyph-name="lessequal" unicode="&#x2264;" horiz-adv-x="587" 
d="M527 615v-96l-304 -113l304 -113v-96l-467 178v62zM60 77v88h467v-88h-467z" />
    <glyph glyph-name="greaterequal" unicode="&#x2265;" horiz-adv-x="587" 
d="M60 615l467 -178v-62l-467 -178v96l304 113l-304 113v96zM60 77v88h467v-88h-467z" />
    <glyph glyph-name="lozenge" unicode="&#x25ca;" horiz-adv-x="667" 
d="M609 342l-232 -393h-91l-229 393l231 393h91zM505 339l-152 264q-14 28 -20 46h-3q-5 -14 -21 -46l-149 -259l152 -266q16 -30 20 -44h3q9 26 20 44z" />
    <glyph glyph-name="i.loclTRK" horiz-adv-x="276" 
d="M139 550q-32 0 -55.5 23t-23.5 55q0 31 23.5 54t55.5 23q31 0 54 -22.5t23 -54.5t-22.5 -55t-54.5 -23zM74 500h128v-500h-128v500z" />
    <glyph glyph-name="a.ss01" horiz-adv-x="608" 
d="M411 500h125v-500h-125v63q-50 -76 -149 -76q-97 0 -162 74.5t-64 188.5q1 113 66.5 188t161.5 75q93 0 147 -71v58zM287 107q55 0 91 40t36 103q0 64 -36 103.5t-90 39.5t-89.5 -40.5t-35.5 -103.5q0 -61 35 -101t89 -41z" />
    <glyph glyph-name="three.ss01" horiz-adv-x="588" 
d="M358 420q81 -7 132.5 -61t51.5 -136q0 -101 -75.5 -170t-180.5 -69q-89 0 -156 52.5t-92 143.5l123 39q9 -51 43.5 -80t82.5 -29q52 0 88 31.5t36 82.5q0 46 -29 74.5t-71 28.5q-44 0 -77 -35l-80 76l176 186h-262v126h445v-101z" />
    <glyph glyph-name="zero.tf" horiz-adv-x="631" 
d="M316 -16q-123 0 -199 98.5t-76 257.5t76 257.5t199 98.5t199 -99t76 -257t-76 -257t-199 -99zM316 110q66 0 104.5 61.5t38.5 168.5t-38.5 168.5t-104.5 61.5t-105 -61.5t-39 -168.5t39 -168.5t105 -61.5z" />
    <glyph glyph-name="one.tf" horiz-adv-x="631" 
d="M400 126h165v-126h-468v126h170v366q-57 -60 -166 -60v118q87 4 126.5 36.5t39.5 93.5h133v-554z" />
    <glyph glyph-name="two.tf" horiz-adv-x="631" 
d="M279 126h273v-126h-466v101l281 296q40 43 40 87q0 36 -28 61t-68 25q-43 0 -74 -30.5t-34 -75.5l-124 21q8 90 74.5 150.5t157.5 60.5q93 0 160 -60.5t67 -146.5q0 -97 -87 -187z" />
    <glyph glyph-name="three.tf" horiz-adv-x="631" 
d="M442 347q109 -51 109 -157q0 -88 -73 -147.5t-179 -59.5q-93 0 -163.5 52.5t-94.5 141.5l125 37q9 -49 46 -76.5t86 -27.5q53 0 87.5 25.5t34.5 64.5t-37 65t-97 26h-81v109h81q54 0 86.5 24.5t32.5 61.5q0 36 -31 60t-77 24q-48 0 -81 -27.5t-43 -76.5l-125 35
q24 91 92 143t158 52q101 0 169.5 -57.5t68.5 -143.5q0 -99 -94 -148z" />
    <glyph glyph-name="four.tf" horiz-adv-x="631" 
d="M589 266v-115h-111v-151h-125v151h-321v98l220 431h138l-214 -414h177v196h125v-196h111z" />
    <glyph glyph-name="five.tf" horiz-adv-x="631" 
d="M326 453q95 0 164 -64t69 -162q0 -102 -76.5 -172t-179.5 -70q-88 0 -156.5 53t-94.5 143l120 38q11 -48 47.5 -78t84.5 -30q51 0 87.5 32.5t36.5 83.5q0 49 -34.5 80.5t-88.5 31.5q-66 0 -121 -53l-106 53l56 341h388v-126h-289l-21 -127q52 26 114 26z" />
    <glyph glyph-name="six.tf" horiz-adv-x="631" 
d="M337 457q98 0 166 -68.5t68 -166.5q0 -99 -72 -168.5t-174 -69.5q-124 0 -194.5 93.5t-70.5 253.5t83 262.5t213 102.5q59 0 114.5 -25.5t89.5 -68.5l-92 -78q-44 49 -112 49q-63 0 -108.5 -49.5t-58.5 -130.5q56 64 148 64zM322 109q49 0 83.5 34t34.5 83t-34.5 84
t-83.5 35t-83.5 -35t-34.5 -84t34.5 -83t83.5 -34z" />
    <glyph glyph-name="seven.tf" horiz-adv-x="631" 
d="M76 680h479v-104l-295 -576h-148l287 554h-323v126z" />
    <glyph glyph-name="eight.tf" horiz-adv-x="631" 
d="M474 351q99 -55 99 -157q0 -88 -73.5 -149t-183.5 -61t-184 61t-74 149q0 101 100 157q-84 50 -84 141q0 86 69.5 145t172.5 59t172.5 -59t69.5 -145q0 -91 -84 -141zM316 570q-47 0 -79 -24.5t-32 -60.5q0 -37 31.5 -61.5t79.5 -24.5t79.5 24.5t31.5 61.5q0 36 -32 60.5
t-79 24.5zM316 110q54 0 90 26t36 66q0 38 -36 64.5t-90 26.5t-90 -26t-36 -65q0 -40 35.5 -66t90.5 -26z" />
    <glyph glyph-name="nine.tf" horiz-adv-x="631" 
d="M296 696q124 0 194.5 -93t70.5 -253t-83 -262.5t-213 -102.5q-60 0 -115 25t-89 68l92 79q44 -49 112 -49q63 0 108 49t58 130q-54 -64 -147 -64q-98 0 -166 68.5t-68 166.5q0 99 72 168.5t174 69.5zM299 336q49 0 83 34.5t34 83.5q0 50 -34 84t-83 34t-83.5 -34.5
t-34.5 -83.5t34.5 -83.5t83.5 -34.5z" />
    <glyph glyph-name="zero.dnom" horiz-adv-x="463" 
d="M231 -13q-83 0 -134.5 66t-51.5 172t51.5 172t134.5 66t135 -66t52 -172t-52 -172t-135 -66zM231 85q40 0 63 37.5t23 102.5t-23 103t-63 38q-39 0 -62 -38t-23 -103t23 -102.5t62 -37.5z" />
    <glyph glyph-name="one.dnom" horiz-adv-x="313" 
d="M166 449h102v-449h-102v309q-43 -36 -121 -35v93q70 4 96 22t25 60z" />
    <glyph glyph-name="two.dnom" horiz-adv-x="411" 
d="M202 95h164v-95h-315v74l182 191q24 25 24 51q0 20 -16 34t-39 14q-27 0 -45.5 -21.5t-16.5 -51.5l-95 16q1 64 47 108t110 44q63 0 109 -41t46 -99q0 -64 -58 -125z" />
    <glyph glyph-name="three.dnom" horiz-adv-x="431" 
d="M320 230q66 -35 66 -103q0 -59 -48 -98t-119 -39q-66 0 -113 36t-61 96l95 28q5 -29 26 -47t52 -18q29 0 49 15t20 37t-22.5 36.5t-60.5 14.5h-52v82h52q34 0 53.5 13t19.5 35q0 20 -17.5 33.5t-43.5 13.5q-29 0 -47.5 -17.5t-23.5 -46.5l-95 26q14 61 59 97t109 36
q67 0 113 -38t46 -96q0 -63 -57 -96z" />
    <glyph glyph-name="four.dnom" horiz-adv-x="460" 
d="M415 183v-87h-66v-96h-95v96h-209v73l145 280h106l-139 -266h97v121h95v-121h66z" />
    <glyph glyph-name="five.dnom" horiz-adv-x="432" 
d="M231 301q65 0 110.5 -43.5t45.5 -106.5q0 -67 -51 -114t-121 -47q-60 0 -106.5 37t-63.5 98l90 29q7 -30 29.5 -49.5t51.5 -19.5q30 0 51 19t21 46q0 28 -20.5 47.5t-50.5 19.5q-44 0 -76 -39l-79 38l38 233h264v-95h-188l-11 -65q30 12 66 12z" />
    <glyph glyph-name="six.dnom" horiz-adv-x="433" 
d="M231 302q66 0 111.5 -44.5t45.5 -108.5q0 -66 -48.5 -112.5t-118.5 -46.5q-81 0 -128.5 62t-47.5 164q0 108 55 176t141 68q94 0 145 -70l-69 -59q-28 36 -75 36q-35 0 -60 -25.5t-35 -68.5q34 29 84 29zM221 84q28 0 47.5 19.5t19.5 47.5t-19.5 47.5t-47.5 19.5
t-48 -19.5t-20 -47.5t19.5 -47.5t48.5 -19.5z" />
    <glyph glyph-name="seven.dnom" horiz-adv-x="413" 
d="M45 449h323v-75l-192 -374h-113l184 354h-202v95z" />
    <glyph glyph-name="eight.dnom" horiz-adv-x="438" 
d="M334 233q59 -37 59 -101q0 -60 -50 -101t-123 -41q-74 0 -124.5 41t-50.5 101q0 64 60 101q-50 34 -50 90q0 59 47.5 98t117.5 39t117 -39.5t47 -97.5q0 -56 -50 -90zM220 365q-28 0 -47 -14t-19 -35t18.5 -34.5t47.5 -13.5q27 0 45.5 14t18.5 34q0 21 -18.5 35t-45.5 14
zM220 85q31 0 52.5 15.5t21.5 37.5t-21.5 37.5t-52.5 15.5q-32 0 -53.5 -15.5t-21.5 -37.5q0 -23 21.5 -38t53.5 -15z" />
    <glyph glyph-name="nine.dnom" horiz-adv-x="433" 
d="M213 460q80 0 127.5 -62.5t47.5 -163.5q0 -108 -55 -176t-141 -68q-44 0 -83 18.5t-62 50.5l70 59q26 -36 74 -36q35 0 60 26t35 69q-34 -29 -85 -29q-65 0 -110.5 44.5t-45.5 108.5q0 66 49 112.5t119 46.5zM212 231q28 0 47.5 19.5t19.5 47.5q0 29 -19 48.5t-48 19.5
q-28 0 -48 -20t-20 -48q0 -27 20 -47t48 -20z" />
    <glyph glyph-name="zero.numr" horiz-adv-x="463" 
d="M231 227q-83 0 -134.5 66t-51.5 172t51.5 172t134.5 66t135 -66t52 -172t-52 -172t-135 -66zM231 325q40 0 63 37.5t23 102.5t-23 103t-63 38q-39 0 -62 -38t-23 -103t23 -102.5t62 -37.5z" />
    <glyph glyph-name="one.numr" horiz-adv-x="313" 
d="M166 689h102v-449h-102v309q-43 -36 -121 -35v93q70 4 96 22t25 60z" />
    <glyph glyph-name="two.numr" horiz-adv-x="411" 
d="M202 335h164v-95h-315v74l182 191q24 25 24 51q0 20 -16 34t-39 14q-27 0 -45.5 -21.5t-16.5 -51.5l-95 16q1 64 47 108t110 44q63 0 109 -41t46 -99q0 -64 -58 -125z" />
    <glyph glyph-name="three.numr" horiz-adv-x="431" 
d="M320 470q66 -35 66 -103q0 -59 -48 -98t-119 -39q-66 0 -113 36t-61 96l95 28q5 -29 26 -47t52 -18q29 0 49 15t20 37t-22.5 36.5t-60.5 14.5h-52v82h52q34 0 53.5 13t19.5 35q0 20 -17.5 33.5t-43.5 13.5q-29 0 -47.5 -17.5t-23.5 -46.5l-95 26q14 61 59 97t109 36
q67 0 113 -38t46 -96q0 -63 -57 -96z" />
    <glyph glyph-name="four.numr" horiz-adv-x="460" 
d="M415 423v-87h-66v-96h-95v96h-209v73l145 280h106l-139 -266h97v121h95v-121h66z" />
    <glyph glyph-name="five.numr" horiz-adv-x="432" 
d="M231 541q65 0 110.5 -43.5t45.5 -106.5q0 -67 -51 -114t-121 -47q-60 0 -106.5 37t-63.5 98l90 29q7 -30 29.5 -49.5t51.5 -19.5q30 0 51 19t21 46q0 28 -20.5 47.5t-50.5 19.5q-44 0 -76 -39l-79 38l38 233h264v-95h-188l-11 -65q30 12 66 12z" />
    <glyph glyph-name="six.numr" horiz-adv-x="433" 
d="M231 542q66 0 111.5 -44.5t45.5 -108.5q0 -66 -48.5 -112.5t-118.5 -46.5q-81 0 -128.5 62t-47.5 164q0 108 55 176t141 68q94 0 145 -70l-69 -59q-28 36 -75 36q-35 0 -60 -25.5t-35 -68.5q34 29 84 29zM221 324q28 0 47.5 19.5t19.5 47.5t-19.5 47.5t-47.5 19.5
t-48 -19.5t-20 -47.5t19.5 -47.5t48.5 -19.5z" />
    <glyph glyph-name="seven.numr" horiz-adv-x="413" 
d="M45 689h323v-75l-192 -374h-113l184 354h-202v95z" />
    <glyph glyph-name="eight.numr" horiz-adv-x="438" 
d="M334 473q59 -37 59 -101q0 -60 -50 -101t-123 -41q-74 0 -124.5 41t-50.5 101q0 64 60 101q-50 34 -50 90q0 59 47.5 98t117.5 39t117 -39.5t47 -97.5q0 -56 -50 -90zM220 605q-28 0 -47 -14t-19 -35t18.5 -34.5t47.5 -13.5q27 0 45.5 14t18.5 34q0 21 -18.5 35t-45.5 14
zM220 325q31 0 52.5 15.5t21.5 37.5t-21.5 37.5t-52.5 15.5q-32 0 -53.5 -15.5t-21.5 -37.5q0 -23 21.5 -38t53.5 -15z" />
    <glyph glyph-name="nine.numr" horiz-adv-x="433" 
d="M213 700q80 0 127.5 -62.5t47.5 -163.5q0 -108 -55 -176t-141 -68q-44 0 -83 18.5t-62 50.5l70 59q26 -36 74 -36q35 0 60 26t35 69q-34 -29 -85 -29q-65 0 -110.5 44.5t-45.5 108.5q0 66 49 112.5t119 46.5zM212 471q28 0 47.5 19.5t19.5 47.5q0 29 -19 48.5t-48 19.5
q-28 0 -48 -20t-20 -48q0 -27 20 -47t48 -20z" />
    </font>
</defs>
</svg>
