<?xml version="1.0" standalone="no"?>
<!DOCTYPE svg PUBLIC "-//W3C//DTD SVG 1.1//EN" "http://www.w3.org/Graphics/SVG/1.1/DTD/svg11.dtd" >
<svg xmlns="http://www.w3.org/2000/svg" xmlns:xlink="http://www.w3.org/1999/xlink" version="1.1">
<metadata>
Created by FontForge 20170731 at Wed Jan 11 14:57:54 2017
 By Aleksey,,,
Copyright (c) 2016 by Alex Sheyn. All rights reserved.
</metadata>
<defs>
<font id="ATCArquette-ExtralightItalic" horiz-adv-x="588" >
  <font-face 
    font-family="ATC Arquette Extralight Italic"
    font-weight="255"
    font-style="italic"
    font-stretch="normal"
    units-per-em="1000"
    panose-1="0 0 3 0 0 0 0 0 0 0"
    ascent="800"
    descent="-200"
    x-height="500"
    cap-height="680"
    bbox="-647 -288 1259.94 895"
    underline-thickness="50"
    underline-position="-200"
    slope="-10"
    unicode-range="U+0020-FB02"
  />
<missing-glyph horiz-adv-x="460" 
d="M377 700v-920h-291v920h291zM306 638h-151v-30h59v-34h-60v-30h152v30h-60v34h60v30zM246 520h-92v-96h152v31h-60v65zM214 488v-33h-30v33h30zM306 399h-152v-30h60v-34h-60v-31h92v65h60v30zM306 344h-30v-61h-122v-31h152v92zM306 232h-92v-52h32v21h30v-43h-92v74
h-30v-104h152v104zM306 73h-152v-104h152v104zM276 42v-43h-92v43h92zM306 -53h-152v-30h64l-64 -43v-31h152v31h-93l64 43h29v30z" />
    <glyph glyph-name="fi" unicode="fi" horiz-adv-x="583" 
d="M520 500l-88 -500h-32l82 468h-259l-82 -468h-32l83 468h-105l6 32h104l12 65q23 135 158 135h81l-5 -32h-79q-105 0 -124 -105l-11 -63h291zM535 690q12 0 19.5 -9t5.5 -21q-1 -11 -10 -18.5t-20 -7.5q-13 0 -20 8.5t-5 21.5q2 11 10.5 18.5t19.5 7.5z" />
    <glyph glyph-name="fl" unicode="fl" horiz-adv-x="568" 
d="M516 700h32l-123 -700h-32l82 468h-252l-82 -468h-32l83 468h-105l6 32h104l12 65q23 135 158 135h51l-5 -32h-49q-105 0 -124 -105l-11 -63h252z" />
    <glyph glyph-name="f_f" unicode="ff" horiz-adv-x="656" 
d="M682 668q-105 0 -124 -105l-11 -63h154l-6 -32h-154l-82 -468h-32l83 468h-287l-82 -468h-32l83 468h-105l6 32h104l12 65q23 135 158 135h51l-5 -32h-49q-105 0 -124 -105l-11 -63h286l12 65q23 135 158 135h51l-5 -32h-49z" />
    <glyph glyph-name="f_f_i" unicode="ffi" horiz-adv-x="890" 
d="M827 500l-88 -500h-32l82 468h-267l-82 -468h-32l83 468h-268l-82 -468h-32l83 468h-105l6 32h104l12 65q23 135 158 135h51l-5 -32h-49q-105 0 -124 -105l-11 -63h267l12 65q23 135 158 135h81l-5 -32h-79q-105 0 -124 -105l-11 -63h299zM842 690q12 0 19.5 -9t5.5 -21
q-1 -11 -10 -18.5t-20 -7.5q-13 0 -20 8.5t-5 21.5q2 11 10.5 18.5t19.5 7.5z" />
    <glyph glyph-name="f_f_l" unicode="ffl" horiz-adv-x="866" 
d="M814 700h32l-123 -700h-32l82 468h-259l-82 -468h-32l83 468h-260l-82 -468h-32l83 468h-105l6 32h104l12 65q23 135 158 135h51l-5 -32h-49q-105 0 -124 -105l-11 -63h259l12 65q23 135 158 135h51l-5 -32h-49q-105 0 -124 -105l-11 -63h259z" />
    <glyph glyph-name=".notdef" horiz-adv-x="460" 
d="M377 700v-920h-291v920h291zM306 638h-151v-30h59v-34h-60v-30h152v30h-60v34h60v30zM246 520h-92v-96h152v31h-60v65zM214 488v-33h-30v33h30zM306 399h-152v-30h60v-34h-60v-31h92v65h60v30zM306 344h-30v-61h-122v-31h152v92zM306 232h-92v-52h32v21h30v-43h-92v74
h-30v-104h152v104zM306 73h-152v-104h152v104zM276 42v-43h-92v43h92zM306 -53h-152v-30h64l-64 -43v-31h152v31h-93l64 43h29v30z" />
    <glyph glyph-name=".null" horiz-adv-x="0" 
 />
    <glyph glyph-name="nonmarkingreturn" horiz-adv-x="333" 
 />
    <glyph glyph-name="space" unicode=" " horiz-adv-x="300" 
 />
    <glyph glyph-name="exclam" unicode="!" horiz-adv-x="196" 
d="M70 170l83 510h42l-97 -510h-28zM62 60q15 0 24 -11t7 -26q-2 -13 -13.5 -23t-25.5 -10q-15 0 -24 11t-6 26q2 14 13.5 23.5t24.5 9.5z" />
    <glyph glyph-name="quotedbl" unicode="&#x22;" horiz-adv-x="271" 
d="M119 700h45l-50 -247h-31zM265 700h45l-50 -247h-31z" />
    <glyph glyph-name="numbersign" unicode="#" horiz-adv-x="652" 
d="M646 456h-129l-86 -232h125l-6 -34h-131l-70 -190h-36l70 190h-193l-70 -190h-36l70 190h-123l6 34h130l85 232h-124l6 34h131l70 190h35l-70 -190h194l70 190h35l-70 -190h123zM396 224l85 232h-193l-86 -232h194z" />
    <glyph glyph-name="dollar" unicode="$" horiz-adv-x="606" 
d="M547 524q-1 43 -26 76.5t-70 49.5l-105 -297q42 -12 71.5 -24.5t59.5 -33t42.5 -52.5t5.5 -73q-14 -81 -90 -133.5t-178 -52.5q-14 0 -40 2l-36 -102l-32 6l36 102q-65 16 -104 57.5t-40 98.5l35 7q1 -46 33 -81.5t88 -48.5l107 304q-37 10 -64.5 21.5t-58 32.5
t-43.5 54.5t-5 77.5q13 79 83.5 130t164.5 51q19 0 51 -4l37 104l31 -6l-37 -106q54 -17 86.5 -57.5t33.5 -94.5zM315 361l105 297q-18 3 -40 3q-80 0 -140 -41.5t-72 -107.5q-6 -37 5 -64t39.5 -44.5t48.5 -25t54 -17.5zM489 173q5 27 -2 49t-20.5 36.5t-38 27t-44 19.5
t-49.5 15l-106 -300q20 -2 31 -2q87 0 152.5 44t76.5 111z" />
    <glyph glyph-name="percent" unicode="%" horiz-adv-x="922" 
d="M756 701l24 -18l-582 -704l-25 18zM317 696q75 0 119 -53t31 -128t-74.5 -127t-134.5 -52q-74 0 -119 53.5t-32 129.5q13 73 76 125t134 52zM316 664q-61 0 -114 -44t-63 -105q-11 -61 25.5 -104t95.5 -43q61 0 112.5 44t62.5 107q11 60 -24 102.5t-95 42.5zM697 344
q74 0 118.5 -53t31.5 -128t-74.5 -127t-134.5 -52q-74 0 -119 53.5t-32 129.5q13 73 75.5 125t134.5 52zM696 312q-61 0 -114 -44t-63 -105q-11 -61 25.5 -104t95.5 -43q61 0 112.5 44t62.5 107q11 60 -24 102.5t-95 42.5z" />
    <glyph glyph-name="ampersand" unicode="&#x26;" horiz-adv-x="663" 
d="M637 294q-56 -103 -127 -174l78 -98l-30 -24l-75 96q-124 -110 -251 -110q-92 0 -143.5 53t-37.5 134q12 66 63 109t153 90q-40 53 -57.5 94.5t-9.5 85.5q11 62 66 104t125 42q72 0 111 -43t28 -108q-10 -55 -57.5 -98.5t-144.5 -87.5q-4 -2 -6 -2q2 -3 6.5 -8.5
t6.5 -8.5l155 -194q65 67 116 161zM235 546q-6 -36 10 -71.5t55 -89.5l13 6q88 39 130.5 76t50.5 82q8 50 -20.5 81.5t-83.5 31.5q-58 0 -102 -33t-53 -83zM234 18q114 0 229 102l-156 198l-19 24q-99 -44 -145.5 -81t-56.5 -94q-11 -65 30.5 -107t117.5 -42z" />
    <glyph glyph-name="quotesingle" unicode="'" horiz-adv-x="202" 
d="M215 700h48l-154 -247h-35z" />
    <glyph glyph-name="parenleft" unicode="(" horiz-adv-x="340" 
d="M220 -141l-27 -23q-82 94 -115.5 207.5t-13.5 227.5q20 112 93 224.5t186 205.5l22 -26q-108 -88 -177.5 -195t-88.5 -213q-19 -107 12.5 -213.5t108.5 -194.5z" />
    <glyph glyph-name="parenright" unicode=")" horiz-adv-x="340" 
d="M-19 -139q108 88 177.5 195t89.5 215q18 105 -14 211.5t-109 193.5l28 23q82 -93 116 -206t14 -226t-93 -226.5t-187 -206.5z" />
    <glyph glyph-name="asterisk" unicode="*" horiz-adv-x="418" 
d="M417 583l-130 -63l108 -63l-26 -34l-102 72l-19 -135h-40l29 135l-126 -72l-14 34l130 63l-108 63l25 34l102 -72l19 135h40l-29 -135l126 72z" />
    <glyph glyph-name="plus" unicode="+" horiz-adv-x="532" 
d="M491 356l-6 -32h-190l-33 -190h-32l33 190h-190l6 32h190l33 190h32l-33 -190h190z" />
    <glyph glyph-name="comma" unicode="," horiz-adv-x="202" 
d="M92 118h48l-153 -247h-35z" />
    <glyph glyph-name="hyphen" unicode="-" horiz-adv-x="400" 
d="M68 269l6 32h270l-6 -32h-270z" />
    <glyph glyph-name="period" unicode="." horiz-adv-x="182" 
d="M55 60q15 0 24 -11t7 -26q-2 -13 -13.5 -23t-25.5 -10q-15 0 -24 11t-6 26q2 14 13.5 23.5t24.5 9.5z" />
    <glyph glyph-name="slash" unicode="/" horiz-adv-x="488" 
d="M-42 -150l648 980h-49l-648 -980h49z" />
    <glyph glyph-name="zero" unicode="0" horiz-adv-x="678" 
d="M294 -16q-123 0 -181 99t-30 259q28 158 119.5 256t212.5 98q123 0 181.5 -99t29.5 -259q-28 -159 -119.5 -256.5t-212.5 -97.5zM296 18q107 0 188.5 89t106.5 235q26 145 -22.5 232.5t-154.5 87.5q-107 0 -188.5 -89t-107.5 -235q-25 -145 23.5 -232.5t154.5 -87.5z" />
    <glyph glyph-name="one" unicode="1" horiz-adv-x="370" 
d="M295 681l36 -1l-120 -680h-36l102 580q-73 -70 -199 -70l4 34q91 0 147 39t66 98z" />
    <glyph glyph-name="two" unicode="2" horiz-adv-x="554" 
d="M518 500q-16 -91 -116 -176l-340 -290h397l-6 -34h-454l4 27l376 323q91 77 104 154q11 66 -31 112t-114 46q-70 0 -130.5 -46.5t-83.5 -115.5l-33 10q26 79 95.5 132.5t152.5 53.5q88 0 140.5 -57t38.5 -139z" />
    <glyph glyph-name="three" unicode="3" horiz-adv-x="557" 
d="M534 513q-9 -57 -55 -100t-113 -62q66 -20 100.5 -67.5t24.5 -109.5q-14 -80 -92 -135t-171 -55q-92 0 -150.5 54.5t-56.5 133.5l36 6q-2 -68 47 -114t127 -46q80 0 146.5 47t77.5 113q12 66 -38.5 111t-137.5 45h-109l6 34h107q81 0 143 43t73 106q10 61 -34 103
t-117 42q-77 0 -139 -46t-85 -116l-33 10q26 80 97 133t159 53q90 0 145.5 -53t41.5 -130z" />
    <glyph glyph-name="four" unicode="4" horiz-adv-x="616" 
d="M570 223l-6 -34h-139l-33 -189h-36l33 189h-360l4 26l360 465h42l-354 -457h314l43 241h36l-43 -241h139z" />
    <glyph glyph-name="five" unicode="5" horiz-adv-x="582" 
d="M566 646h-329l-95 -280q79 63 187 63q98 0 151.5 -63t36.5 -155q-17 -96 -98 -161.5t-175 -65.5q-85 0 -141 56.5t-59 142.5l35 8q1 -77 48 -125t120 -48q82 0 151 57.5t84 140.5q13 76 -29.5 127.5t-125.5 51.5q-61 0 -122 -27t-86 -67l-31 16l125 363h359z" />
    <glyph glyph-name="six" unicode="6" horiz-adv-x="599" 
d="M428 696q53 0 99.5 -24t69.5 -63l-29 -19q-19 33 -58 52.5t-83 19.5q-87 0 -159 -57.5t-112.5 -147t-47.5 -190.5q30 73 97 117.5t143 44.5q92 0 145 -65.5t36 -157.5q-16 -92 -92 -156.5t-167 -64.5q-63 0 -107 27.5t-64 75.5t-25 112t10 138q27 154 124.5 256
t219.5 102zM117 206q-14 -82 30.5 -134.5t123.5 -52.5t144 55.5t79 135.5q14 76 -30.5 130.5t-121.5 54.5q-79 0 -145 -56t-80 -133z" />
    <glyph glyph-name="seven" unicode="7" horiz-adv-x="557" 
d="M134 680h461l-4 -26l-458 -654h-40l451 646h-416z" />
    <glyph glyph-name="eight" unicode="8" horiz-adv-x="608" 
d="M575 513q-10 -57 -56 -100.5t-111 -61.5q66 -20 100.5 -67.5t23.5 -109.5q-14 -80 -93.5 -135t-179.5 -55q-101 0 -162 56t-47 138q11 62 62 108.5t124 65.5q-59 20 -89.5 64t-20.5 101q13 76 87.5 127.5t166.5 51.5q95 0 152 -53t43 -130zM323 368q80 0 143 43t74 106
q11 61 -36 103t-125 42q-80 0 -143.5 -43t-74.5 -106q-10 -61 37 -103t125 -42zM496 178q12 66 -39 111t-136 45q-87 0 -155.5 -46.5t-79.5 -113.5q-12 -66 39 -111t136 -45q86 0 154.5 46.5t80.5 113.5z" />
    <glyph glyph-name="nine" unicode="9" horiz-adv-x="597" 
d="M360 696q63 0 107 -27.5t64 -75.5t25 -112.5t-10 -137.5q-27 -154 -124.5 -256t-219.5 -102q-53 0 -99.5 24t-69.5 63l29 19q19 -33 58 -52.5t83 -19.5q87 0 159 57.5t112.5 147t47.5 190.5q-30 -73 -97.5 -117.5t-142.5 -44.5q-93 0 -145.5 65t-35.5 158q16 92 92 156.5
t167 64.5zM513 475q14 82 -30.5 134.5t-123.5 52.5t-144 -55.5t-79 -135.5q-14 -76 30.5 -130.5t121.5 -54.5q79 0 145 56t80 133z" />
    <glyph glyph-name="colon" unicode=":" horiz-adv-x="152" 
d="M120 510q15 0 24 -11t6 -26q-2 -14 -13.5 -23.5t-24.5 -9.5q-15 0 -24 11t-7 26q2 13 13.5 23t25.5 10zM40 60q15 0 24 -11t7 -26q-2 -13 -13.5 -23t-25.5 -10q-15 0 -24 11t-6 26q2 14 13.5 23.5t24.5 9.5z" />
    <glyph glyph-name="semicolon" unicode=";" horiz-adv-x="202" 
d="M140 510q15 0 24 -11t6 -26q-2 -14 -13.5 -23.5t-24.5 -9.5q-15 0 -24 11t-7 26q2 13 13.5 23t25.5 10zM92 118h48l-153 -247h-35z" />
    <glyph glyph-name="less" unicode="&#x3c;" horiz-adv-x="530" 
d="M526 566l-7 -40l-399 -187l333 -186l-7 -40l-373 210l5 33z" />
    <glyph glyph-name="equal" unicode="=" horiz-adv-x="532" 
d="M94 441h412l-6 -32h-412zM64 271h412l-6 -32h-412z" />
    <glyph glyph-name="greater" unicode="&#x3e;" horiz-adv-x="530" 
d="M116 566l372 -210l-5 -33l-447 -210l7 40l398 187l-332 186z" />
    <glyph glyph-name="question" unicode="?" horiz-adv-x="511" 
d="M222 176h-34l6 37q16 89 125 145q40 20 59.5 31.5t44.5 30.5t37.5 41t17.5 52q12 68 -28 108.5t-113 40.5q-78 0 -140 -44.5t-85 -114.5l-33 7q25 78 95.5 132t161.5 54q90 0 140.5 -51.5t35.5 -134.5q-3 -18 -8.5 -33.5t-14.5 -29.5t-16 -24.5t-21.5 -22.5t-21.5 -18
t-25 -16.5t-23.5 -14t-25.5 -13.5t-23 -12q-93 -47 -105 -115zM174 -10q-15 0 -24 11t-6 26q2 14 13.5 23.5t24.5 9.5q15 0 24 -11t7 -26q-2 -13 -13.5 -23t-25.5 -10z" />
    <glyph glyph-name="at" unicode="@" horiz-adv-x="916" 
d="M527 655q110 0 194.5 -55t122.5 -148t19 -202q-16 -92 -66.5 -150t-119.5 -58q-101 0 -104 114q-26 -47 -70 -75t-95 -28q-76 0 -117.5 57t-26.5 142q15 84 75.5 139.5t137.5 55.5q97 0 129 -83l12 69h32l-40 -226q-23 -133 67 -133q58 0 99 49.5t56 130.5
q27 153 -63.5 261t-243.5 108q-154 0 -283.5 -110t-156.5 -265q-27 -153 62 -262t243 -109q145 0 268 99l20 -26q-134 -105 -289 -105q-168 0 -266.5 119.5t-69.5 287.5q30 167 169 285t305 118zM587 257q13 70 -17.5 114.5t-92.5 44.5q-67 0 -116.5 -47t-62.5 -120
q-13 -71 19 -118t92 -47q63 0 114 49t64 124z" />
    <glyph glyph-name="A" unicode="A" horiz-adv-x="690" 
d="M568 0l-51 208h-359l-124 -208h-38l402 680h41l167 -680h-38zM178 242h331l-96 396z" />
    <glyph glyph-name="B" unicode="B" horiz-adv-x="666" 
d="M475 340q54 -13 85 -46.5t31 -82.5q0 -89 -75 -150t-176 -61h-280l120 680h266q84 0 136.5 -42.5t52.5 -111.5t-44 -118t-116 -68zM442 646h-232l-51 -290h230q89 0 149.5 47t60.5 121q0 55 -42.5 88.5t-114.5 33.5zM344 34q86 0 148.5 50t62.5 125q0 52 -41 82.5
t-117 30.5h-244l-51 -288h242z" />
    <glyph glyph-name="C" unicode="C" horiz-adv-x="767" 
d="M745 516q-31 69 -95 107t-145 38q-153 0 -269.5 -115.5t-116.5 -264.5q0 -114 75 -188.5t193 -74.5q82 0 160 39.5t135 108.5l28 -21q-61 -74 -147 -117.5t-178 -43.5q-133 0 -217.5 83.5t-84.5 211.5q0 107 59 203.5t157 155t207 58.5q94 0 165.5 -44t105.5 -120z" />
    <glyph glyph-name="D" unicode="D" horiz-adv-x="752" 
d="M389 680q138 0 224.5 -77.5t86.5 -201.5q0 -110 -59 -202.5t-157.5 -145.5t-212.5 -53h-211l120 680h209zM275 34q159 0 274.5 107t115.5 256q0 110 -77 179.5t-203 69.5h-176l-108 -612h174z" />
    <glyph glyph-name="E" unicode="E" horiz-adv-x="585" 
d="M592 646h-383l-51 -289h280l-6 -34h-280l-51 -289h383l-6 -34h-418l120 680h418z" />
    <glyph glyph-name="F" unicode="F" horiz-adv-x="567" 
d="M592 645h-383l-51 -288h280l-6 -34h-280l-57 -323h-35l120 680h418z" />
    <glyph glyph-name="G" unicode="G" horiz-adv-x="844" 
d="M426 295l6 34h339l-3 -17q-26 -145 -135 -236.5t-249 -91.5q-134 0 -217.5 83t-83.5 209q0 109 59 206.5t157 155.5t207 58q94 0 165.5 -44t105.5 -120l-32 -17q-31 69 -94.5 107t-145.5 38q-153 0 -270 -114.5t-117 -266.5q0 -114 74.5 -186.5t193.5 -72.5q124 0 220 77
t124 198h-304z" />
    <glyph glyph-name="H" unicode="H" horiz-adv-x="773" 
d="M708 680h37l-120 -680h-37l57 323h-492l-57 -323h-36l120 680h36l-57 -323h492z" />
    <glyph glyph-name="I" unicode="I" horiz-adv-x="257" 
d="M187 680h35l-120 -680h-35z" />
    <glyph glyph-name="J" unicode="J" horiz-adv-x="587" 
d="M534 680h35l-80 -450q-19 -110 -100.5 -178t-188.5 -68q-120 0 -197 93l27 22q68 -81 172 -81q96 0 166 59.5t87 154.5z" />
    <glyph glyph-name="K" unicode="K" horiz-adv-x="643" 
d="M674 680l-340 -284l221 -396h-43l-208 371l-168 -141l-41 -230h-35l120 680h35l-71 -402l479 402h51z" />
    <glyph glyph-name="L" unicode="L" horiz-adv-x="560" 
d="M101 34h383l-6 -34h-418l120 680h35z" />
    <glyph glyph-name="M" unicode="M" horiz-adv-x="910" 
d="M882 680l-120 -680h-35l109 620l-405 -620h-40l-186 624l-110 -624h-35l120 680h45l192 -643l419 643h46z" />
    <glyph glyph-name="N" unicode="N" horiz-adv-x="773" 
d="M710 680h35l-120 -680h-32l-389 619l-109 -619h-35l120 680h30l390 -622z" />
    <glyph glyph-name="O" unicode="O" horiz-adv-x="857" 
d="M385 -16q-133 0 -217.5 83.5t-84.5 211.5q0 107 59 203.5t157 155t207 58.5q131 0 215 -83.5t84 -209.5q0 -108 -58.5 -205.5t-156 -155.5t-205.5 -58zM387 18q152 0 267 116t115 268q0 113 -73.5 186t-190.5 73q-101 0 -190.5 -53t-142.5 -141.5t-53 -186.5
q0 -114 74.5 -188t193.5 -74z" />
    <glyph glyph-name="P" unicode="P" horiz-adv-x="643" 
d="M463 680q79 0 127.5 -43t48.5 -111q0 -90 -71.5 -153t-167.5 -63h-251l-55 -310h-35l120 680h284zM404 345q81 0 140 53t59 126q0 55 -39 88.5t-105 33.5h-251l-53 -301h249z" />
    <glyph glyph-name="Q" unicode="Q" horiz-adv-x="865" 
d="M805 403q0 -84 -36.5 -162.5t-99.5 -138.5l85 -102l-29 -25l-84 102q-119 -93 -256 -93q-133 0 -217.5 83.5t-84.5 211.5q0 107 59 203.5t157 155t207 58.5q131 0 215 -83.5t84 -209.5zM387 18q127 0 233 85l-117 142l28 25l117 -142q57 54 89 125.5t32 148.5
q0 113 -73.5 186t-190.5 73q-101 0 -190.5 -53t-142.5 -141.5t-53 -186.5q0 -114 74.5 -188t193.5 -74z" />
    <glyph glyph-name="R" unicode="R" horiz-adv-x="672" 
d="M640 526q0 -86 -67.5 -148.5t-160.5 -67.5l148 -310h-41l-149 310h-220l-55 -310h-35l120 680h284q79 0 127.5 -43t48.5 -111zM405 345q81 0 140 53t59 126q0 55 -39 88.5t-105 33.5h-251l-53 -301h249z" />
    <glyph glyph-name="S" unicode="S" horiz-adv-x="606" 
d="M257 -16q-94 0 -154 45.5t-62 118.5l35 7q1 -59 51.5 -98t132.5 -39q94 0 162.5 51t68.5 126q0 24 -11.5 43.5t-25.5 31.5t-42 23.5t-45 17t-49 14.5q-28 7 -48 13t-48.5 19.5t-46.5 29.5t-31.5 41t-13.5 56q0 91 74.5 151.5t176.5 60.5q89 0 144.5 -45t57.5 -119l-36 -8
q-2 59 -46 98t-121 39q-86 0 -150 -49.5t-64 -122.5q0 -30 14 -53t42 -38t46 -22t50 -16q35 -9 58 -16t54.5 -21t50.5 -29.5t32.5 -40.5t13.5 -55q0 -92 -81 -153t-189 -61z" />
    <glyph glyph-name="T" unicode="T" 
d="M627 680l-6 -34h-239l-114 -646h-35l114 646h-239l6 34h513z" />
    <glyph glyph-name="U" unicode="U" horiz-adv-x="761" 
d="M709 680h35l-68 -383q-25 -142 -118 -227.5t-222 -85.5q-134 0 -197 89t-37 226l67 381h35l-68 -383q-21 -127 32.5 -203t169.5 -76q115 0 198.5 77t105.5 204z" />
    <glyph glyph-name="V" unicode="V" horiz-adv-x="691" 
d="M688 680h39l-407 -680h-40l-164 680h37l153 -638z" />
    <glyph glyph-name="W" unicode="W" horiz-adv-x="1072" 
d="M1064 680h38l-351 -680h-40l-107 632l-330 -632h-40l-112 680h36l104 -631l329 631h40l107 -631z" />
    <glyph glyph-name="X" unicode="X" horiz-adv-x="652" 
d="M685 680l-320 -340l199 -340h-44l-183 313l-293 -313h-46l319 340l-198 340h44l183 -313l293 313h46z" />
    <glyph glyph-name="Y" unicode="Y" horiz-adv-x="623" 
d="M673 680l-340 -404l-48 -276h-35l49 279l-197 401h41l179 -368l308 368h43z" />
    <glyph glyph-name="Z" unicode="Z" horiz-adv-x="645" 
d="M639 680l-5 -27l-556 -619h458l-6 -34h-507l4 28l558 618h-448l6 34h496z" />
    <glyph glyph-name="bracketleft" unicode="[" horiz-adv-x="407" 
d="M189 666l-142 -810h231l-6 -34h-267l154 878h267l-6 -34h-231z" />
    <glyph glyph-name="backslash" unicode="\" horiz-adv-x="488" 
d="M398 -150h41l-302 980h-41z" />
    <glyph glyph-name="bracketright" unicode="]" horiz-adv-x="407" 
d="M364 666h-231l6 34h267l-154 -878h-267l6 34h231z" />
    <glyph glyph-name="asciicircum" unicode="^" horiz-adv-x="600" 
d="M563 366h-39l-137 280l-236 -280h-41l265 314h33z" />
    <glyph glyph-name="underscore" unicode="_" horiz-adv-x="676" 
d="M-81 -200l5 32h680l-5 -32h-680z" />
    <glyph glyph-name="a" unicode="a" horiz-adv-x="534" 
d="M298 511q89 0 132.5 -56.5t30.5 -150.5l-54 -304h-32l18 101q-29 -47 -92.5 -79t-128.5 -32t-104.5 33t-39.5 84q0 61 48 104t132 60l222 45q9 74 -27 118.5t-106 44.5q-52 0 -100.5 -25t-83.5 -67l-25 20q38 46 94 75t116 29zM178 22q79 0 148 47t82 116l17 98l-214 -43
q-70 -15 -111 -49t-41 -83q0 -38 32.5 -62t86.5 -24z" />
    <glyph glyph-name="b" unicode="b" horiz-adv-x="614" 
d="M363 510q88 0 141.5 -57.5t53.5 -149.5q0 -126 -83.5 -220.5t-197.5 -94.5q-67 0 -113.5 35.5t-61.5 96.5l-21 -120h-32l123 700h32l-52 -302q36 53 92.5 82.5t118.5 29.5zM277 20q104 0 176.5 86t72.5 195q0 81 -46 129t-118 48q-93 0 -158.5 -62.5t-83.5 -167.5v1
l-1 -2l1 1q-5 -28 -5 -48q0 -80 47 -130t115 -50z" />
    <glyph glyph-name="c" unicode="c" horiz-adv-x="553" 
d="M458 127l27 -19q-46 -55 -109.5 -86.5t-130.5 -31.5q-95 0 -153 60t-58 152q0 122 88.5 216t210.5 94q68 0 120.5 -32.5t80.5 -87.5l-30 -15q-24 49 -69 76t-103 27q-107 0 -186 -83t-79 -193q0 -80 49.5 -131t130.5 -51q59 0 114.5 28t96.5 77z" />
    <glyph glyph-name="d" unicode="d" horiz-adv-x="604" 
d="M558 700h32l-123 -700h-32l20 117q-36 -59 -93.5 -94t-122.5 -35q-85 0 -139.5 57.5t-54.5 150.5q0 124 83.5 219t200.5 95q63 0 110.5 -30.5t65.5 -84.5zM241 20q80 0 153 65.5t90 164.5q6 31 6 59q0 79 -43.5 124t-120.5 45q-102 0 -175 -85t-73 -195q0 -81 45 -129.5
t118 -48.5z" />
    <glyph glyph-name="e" unicode="e" horiz-adv-x="572" 
d="M515 237h-426q-3 -19 -3 -40q0 -79 45 -127t121 -48q59 0 114 28t93 76l26 -18q-42 -54 -105 -86t-130 -32q-93 0 -145 57.5t-52 148.5q0 124 83.5 219t201.5 95q83 0 135.5 -50.5t52.5 -143.5q0 -46 -11 -79zM336 478q-86 0 -153 -60.5t-89 -150.5h395q5 21 5 49
q0 72 -41.5 117t-116.5 45z" />
    <glyph glyph-name="f" unicode="f" horiz-adv-x="338" 
d="M364 668q-105 0 -124 -105l-11 -63h154l-6 -32h-154l-82 -468h-32l83 468h-105l6 32h104l12 65q23 135 158 135h51l-5 -32h-49z" />
    <glyph glyph-name="g" unicode="g" horiz-adv-x="614" 
d="M533 500h32l-83 -469q-19 -109 -99.5 -177.5t-179.5 -68.5q-58 0 -108.5 25t-82.5 68l26 19q27 -38 71.5 -59t94.5 -21q88 0 159 60t88 156l12 70q-37 -53 -93.5 -83t-118.5 -30q-88 0 -141.5 57.5t-53.5 149.5q0 126 83.5 220.5t197.5 94.5q67 0 113.5 -35.5t61.5 -96.5
zM257 22q86 0 151.5 62t84.5 162l2 9q4 32 4 46q0 80 -47.5 129.5t-118.5 49.5q-99 0 -172 -86.5t-73 -195.5q0 -80 46.5 -128t122.5 -48z" />
    <glyph glyph-name="h" unicode="h" 
d="M347 511q84 0 132.5 -60t34.5 -148l-53 -303h-32l54 305q14 69 -28 121.5t-113 52.5q-72 0 -132.5 -50.5t-74.5 -122.5l-54 -306h-32l123 700h32l-52 -298q32 46 85 77.5t110 31.5z" />
    <glyph glyph-name="i" unicode="i" horiz-adv-x="244" 
d="M192 634q-25 0 -25 25q0 12 9 21.5t21 9.5q11 0 18 -7t7 -18q0 -13 -9 -22t-21 -9zM150 500h32l-88 -500h-32z" />
    <glyph glyph-name="j" unicode="j" horiz-adv-x="284" 
d="M232 634q-25 0 -25 25q0 12 9 21.5t21 9.5q11 0 18 -7t7 -18q0 -13 -9 -22t-21 -9zM91 -63l99 563h32l-100 -565q-23 -135 -158 -135h-51l5 32h49q105 0 124 105z" />
    <glyph glyph-name="k" unicode="k" horiz-adv-x="523" 
d="M532 500l-251 -210l162 -290h-39l-150 268l-148 -123l-25 -145h-32l123 700h32l-90 -512l373 312h45z" />
    <glyph glyph-name="l" unicode="l" horiz-adv-x="230" 
d="M178 700h32l-123 -700h-32z" />
    <glyph glyph-name="m" unicode="m" horiz-adv-x="892" 
d="M666 511q81 0 122.5 -62.5t25.5 -145.5l-53 -303h-32l54 305q11 75 -22 124.5t-99 49.5t-119.5 -50t-67.5 -123q-1 -1 -1 -3l-53 -303h-32l54 305q11 75 -22 124.5t-99 49.5q-64 0 -116.5 -47.5t-69.5 -118.5l-55 -313h-32l88 500h32l-16 -91q30 45 75.5 73.5t97.5 28.5
q59 0 98.5 -35t50.5 -91q27 53 79.5 89.5t111.5 36.5z" />
    <glyph glyph-name="n" unicode="n" 
d="M347 511q84 0 132.5 -60t34.5 -148l-53 -303h-32l54 305q14 69 -28 121.5t-113 52.5q-69 0 -128.5 -47.5t-76.5 -115.5l-56 -316h-32l88 500h32l-17 -98q32 46 85 77.5t110 31.5z" />
    <glyph glyph-name="o" unicode="o" horiz-adv-x="634" 
d="M274 -10q-97 0 -159 61.5t-62 155.5q0 119 94.5 211t214.5 92q96 0 157.5 -61.5t61.5 -155.5q0 -118 -94 -210.5t-213 -92.5zM276 22q108 0 190 83t82 187q0 80 -52.5 133t-135.5 53q-109 0 -191.5 -82.5t-82.5 -188.5q0 -80 53.5 -132.5t136.5 -52.5z" />
    <glyph glyph-name="p" unicode="p" horiz-adv-x="614" 
d="M365 512q85 0 139.5 -57.5t54.5 -150.5q0 -124 -83.5 -219t-200.5 -95q-63 0 -110.5 30.5t-65.5 84.5l-53 -305h-32l123 700h32l-20 -117q36 59 93.5 94t122.5 35zM278 22q102 0 175 85t73 195q0 81 -45 129.5t-118 48.5q-80 0 -153 -65.5t-90 -164.5q-6 -31 -6 -59
q0 -79 43.5 -124t120.5 -45z" />
    <glyph glyph-name="q" unicode="q" horiz-adv-x="614" 
d="M533 500h32l-123 -700h-32l52 302q-36 -53 -92.5 -82.5t-118.5 -29.5q-88 0 -141.5 57.5t-53.5 149.5q0 126 83.5 220.5t197.5 94.5q67 0 114 -36t61 -97zM252 22q93 0 158.5 62.5t83.5 167.5q5 28 5 48q0 80 -47 130t-115 50q-104 0 -176.5 -86t-72.5 -195
q0 -81 46 -129t118 -48z" />
    <glyph glyph-name="r" unicode="r" horiz-adv-x="330" 
d="M152 403q32 47 85.5 77.5t115.5 30.5l-4 -32q-78 0 -138 -48.5t-76 -121.5l-54 -309h-32l88 500h32z" />
    <glyph glyph-name="s" unicode="s" horiz-adv-x="484" 
d="M401 143q0 -69 -63 -112.5t-143 -43.5q-75 0 -122 39t-49 97l32 8q1 -51 40.5 -81.5t99.5 -30.5q66 0 119 34.5t53 86.5q0 14 -5 26t-15.5 21t-20 15.5t-25.5 12.5t-24.5 9t-24.5 7t-19 5q-29 7 -50 14.5t-45.5 21t-38 35t-13.5 48.5q0 69 61.5 112.5t135.5 43.5
q67 0 109.5 -38.5t44.5 -97.5l-32 -7q-1 49 -35 80t-88 31q-63 0 -113.5 -34.5t-50.5 -85.5q0 -31 28 -53.5t94 -39.5q28 -6 47 -12t49.5 -20t47 -37.5t16.5 -53.5z" />
    <glyph glyph-name="t" unicode="t" horiz-adv-x="382" 
d="M217 468l-58 -333q-3 -18 -3 -33q0 -37 21 -53.5t66 -16.5h52l-6 -32h-49q-116 0 -116 101q0 17 3 36l59 331h-105l6 32h104l27 151l33 9l-28 -160h154l-6 -32h-154z" />
    <glyph glyph-name="u" unicode="u" 
d="M507 500h32l-88 -500h-32l17 98q-32 -46 -85 -77.5t-110 -31.5q-84 0 -132.5 60t-34.5 148l53 303h32l-54 -305q-14 -69 28 -121.5t113 -52.5q69 0 129.5 48t76.5 117z" />
    <glyph glyph-name="v" unicode="v" horiz-adv-x="528" 
d="M496 500h35l-291 -500h-41l-114 500h35l105 -467z" />
    <glyph glyph-name="w" unicode="w" horiz-adv-x="836" 
d="M797 500h34l-258 -500h-40l-78 462l-240 -462h-40l-82 500h34l75 -460l240 460h40l78 -460z" />
    <glyph glyph-name="x" unicode="x" horiz-adv-x="499" 
d="M506 500l-235 -250l145 -250h-39l-132 226l-211 -226h-41l235 250l-145 250h39l132 -226l211 226h41z" />
    <glyph glyph-name="y" unicode="y" horiz-adv-x="543" 
d="M511 500h35l-430 -700h-36l142 231l-137 469h36l125 -431z" />
    <glyph glyph-name="z" unicode="z" horiz-adv-x="474" 
d="M469 500l-4 -25l-413 -443h340l-6 -32h-385l4 26l412 442h-334l6 32h380z" />
    <glyph glyph-name="braceleft" unicode="{" horiz-adv-x="503" 
d="M474 700h56l-6 -34h-54q-72 0 -110 -36.5t-53 -120.5l-20 -112q-9 -50 -37 -85.5t-70 -51.5q36 -17 52 -52.5t7 -83.5l-20 -112q-15 -85 9.5 -120.5t96.5 -35.5h57l-6 -34h-54q-91 0 -123 48t-16 144l20 112q10 56 -15.5 87t-72.5 31h-64l5 29l1 5h62q47 0 84.5 32
t47.5 89l20 112q17 95 65 142t138 47z" />
    <glyph glyph-name="bar" unicode="|" horiz-adv-x="152" 
d="M25 -131h-32l146 831h32z" />
    <glyph glyph-name="braceright" unicode="}" horiz-adv-x="503" 
d="M456 278l-5 -29l-1 -5h-62q-47 0 -85 -32t-47 -88l-20 -112q-17 -96 -65 -143t-138 -47h-56l6 34h53q72 0 110.5 36.5t53.5 121.5l20 112q9 49 37 84.5t70 50.5q-36 17 -52 53t-7 85l20 112q15 84 -10 119.5t-97 35.5h-56l6 34h54q91 0 123 -48t16 -143l-20 -112
q-10 -57 15.5 -88t72.5 -31h64z" />
    <glyph glyph-name="asciitilde" unicode="~" horiz-adv-x="697" 
d="M614 312l17 -15q-53 -96 -143 -96q-11 0 -20.5 1t-20.5 4t-18 5t-20.5 8t-19 9t-23.5 12t-25 12q-76 38 -119 38q-39 0 -67.5 -22.5t-57.5 -63.5l-19 16q56 97 153 97q26 0 50 -8.5t52.5 -24t36.5 -18.5q5 -2 22.5 -10.5t24.5 -11.5t21 -8t26.5 -6.5t27.5 -1.5
q40 0 67.5 19t54.5 65z" />
    <glyph glyph-name="exclamdown" unicode="&#xa1;" horiz-adv-x="196" 
d="M134 440q-15 0 -24 11t-7 26q2 13 13.5 23t25.5 10q15 0 24 -11t6 -26q-2 -14 -13.5 -23.5t-24.5 -9.5zM98 330h28l-83 -510h-42z" />
    <glyph glyph-name="cent" unicode="&#xa2;" horiz-adv-x="553" 
d="M519 462q-40 83 -133 100l-162 -452q18 -3 38 -3q59 0 114.5 28t96.5 77l27 -19q-46 -55 -109.5 -86.5t-130.5 -31.5q-17 0 -47 4l-45 -124l-31 6l45 126q-73 26 -108.5 94.5t-19.5 156.5q19 109 103 184t191 75q12 0 18 -1l43 121l31 -6l-43 -119q106 -22 152 -115z
M194 118l160 447h-7q-94 0 -169 -66.5t-92 -164.5q-13 -77 16.5 -135t91.5 -81z" />
    <glyph glyph-name="sterling" unicode="&#xa3;" horiz-adv-x="600" 
d="M447 662q-71 0 -123.5 -50.5t-67.5 -133.5l-21 -121h284l-6 -34h-284l-20 -112q-23 -129 -108 -177h262q48 0 91.5 25t71.5 69l31 -16q-33 -51 -85.5 -81.5t-112.5 -30.5h-353l4 23l1 11q60 0 104 49t58 130l20 110h-130l6 34h130l22 123q17 98 80.5 157t146.5 59
q60 0 98 -30.5t53 -83.5l-34 -12q-26 92 -118 92z" />
    <glyph glyph-name="currency" unicode="&#xa4;" horiz-adv-x="552" 
d="M538 512l-85 -72q33 -52 21 -116q-12 -65 -61 -116l59 -70l-33 -29l-59 72q-57 -41 -120 -41q-64 0 -111 42l-84 -73l-25 29l86 73q-33 52 -21 117q12 64 61 113l-60 71l34 29l58 -72q58 41 123 41t109 -41l84 72zM435 328q10 59 -24.5 100.5t-92.5 41.5q-60 0 -112 -43
t-62 -103t25 -102t93 -42q60 0 111 43t62 105z" />
    <glyph glyph-name="yen" unicode="&#xa5;" horiz-adv-x="626" 
d="M638 680l-280 -332h175l-5 -32h-182l-21 -116h182l-5 -32h-182l-30 -168h-35l30 168h-183l5 32h183l21 116h-183l5 32h176l-162 332h41l149 -308l258 308h43z" />
    <glyph glyph-name="brokenbar" unicode="&#xa6;" horiz-adv-x="352" 
d="M200 741h30v-384h-30v384zM200 192h30v-383h-30v383z" />
    <glyph glyph-name="section" unicode="&#xa7;" horiz-adv-x="522" 
d="M290 452q20 -5 30.5 -7.5t38.5 -11.5t45 -19.5t36 -26.5t26.5 -37.5t2.5 -47.5q-9 -52 -59.5 -84.5t-124.5 -37.5q119 -36 105 -123q-11 -60 -68.5 -97.5t-124.5 -37.5t-110.5 38.5t-46.5 97.5l32 7q1 -47 35.5 -79t91.5 -32q55 0 101.5 29t55.5 77q6 36 -21 62t-100 45
q-23 5 -37.5 8.5t-47.5 16.5t-52 27.5t-32.5 40t-7.5 56.5q9 52 59 84.5t124 37.5q-120 36 -104 123q11 60 67.5 97.5t123.5 37.5q68 0 111.5 -38.5t45.5 -97.5l-31 -7q-2 49 -36.5 80t-89.5 31t-102.5 -29.5t-56.5 -76.5q-6 -36 21 -62t100 -44zM435 303q9 48 -41 78
t-128 30q-73 0 -120.5 -27t-55.5 -69q-8 -48 42 -77.5t128 -29.5q72 0 120 26.5t55 68.5z" />
    <glyph glyph-name="copyright" unicode="&#xa9;" horiz-adv-x="891" 
d="M399 -34q-157 0 -248 109.5t-63 266.5q28 155 155.5 263.5t283.5 108.5q155 0 245 -109.5t62 -266.5q-27 -155 -154 -263.5t-281 -108.5zM401 2q142 0 256.5 99t139.5 242q26 141 -53 238t-219 97q-143 0 -258.5 -98t-140.5 -241q-25 -142 54 -239.5t221 -97.5zM576 259
l26 -21q-32 -38 -77.5 -60.5t-92.5 -22.5q-77 0 -119.5 54t-28.5 133q14 77 73.5 130t135.5 53q48 0 86 -23t57 -62l-30 -17q-32 68 -114 68q-63 0 -113 -44t-62 -109q-11 -64 22.5 -106.5t94.5 -42.5q83 0 142 70z" />
    <glyph glyph-name="guillemotleft" unicode="&#xab;" horiz-adv-x="586" 
d="M308 465l-199 -185l133 -185h-43l-134 185l198 185h45zM549 465l-199 -185l133 -185h-43l-134 185l198 185h45z" />
    <glyph glyph-name="logicalnot" unicode="&#xac;" horiz-adv-x="713" 
d="M650 95h-29v286h-530v28h559v-314z" />
    <glyph glyph-name="registered" unicode="&#xae;" horiz-adv-x="540" 
d="M351 716q86 0 137.5 -62.5t36.5 -148.5t-87 -147.5t-157 -61.5q-88 0 -139.5 62.5t-35.5 150.5q15 85 87 146t158 61zM492 509q11 71 -32 122t-114 51q-74 0 -135 -52t-72 -125t31.5 -124t115.5 -51t133.5 52.5t72.5 126.5zM351 602q28 0 44.5 -18t11.5 -44
q-6 -39 -45 -53l30 -77h-46l-29 71h-38l-13 -71h-41l34 192h92zM367 542q1 9 -4.5 14.5t-16.5 5.5h-53l-2 -9l-6 -34h51q11 0 20 6.5t11 16.5z" />
    <glyph glyph-name="degree" unicode="&#xb0;" horiz-adv-x="476" 
d="M268 698h1q63 0 104.5 -43.5t41.5 -107.5q0 -67 -42 -107t-105 -40q-61 0 -103.5 40t-42.5 107q0 65 43 108t103 43zM267 670h-1q-48 0 -78.5 -32.5t-30.5 -89.5q0 -53 32 -88t82 -35q51 0 80.5 33t29.5 89q0 54 -29.5 88.5t-84.5 34.5z" />
    <glyph glyph-name="plusminus" unicode="&#xb1;" horiz-adv-x="532" 
d="M306 386h190l-6 -32h-190l-22 -128h-32l22 128h-190l6 32h190l28 160h32zM40 134l5 32h412l-5 -32h-412z" />
    <glyph glyph-name="paragraph" unicode="&#xb6;" horiz-adv-x="656" 
d="M437 -54h-32v325h-11q-111 0 -184.5 53t-72.5 154q-2 232 306 232q75 0 115 -7v-757h-32v737h-89v-737z" />
    <glyph glyph-name="periodcentered" unicode="&#xb7;" horiz-adv-x="182" 
d="M100 315q15 0 24 -11t7 -26q-2 -13 -13.5 -23t-25.5 -10q-15 0 -24 11t-6 26q2 14 13.5 23.5t24.5 9.5z" />
    <glyph glyph-name="guillemotright" unicode="&#xbb;" horiz-adv-x="586" 
d="M156 465l134 -185l-198 -185h-45l200 185l-134 185h43zM397 465l134 -185l-198 -185h-45l200 185l-134 185h43z" />
    <glyph glyph-name="onequarter" unicode="&#xbc;" horiz-adv-x="847" 
d="M674 701l24 -18l-582 -704l-25 18zM167 240l65 376q-47 -45 -130 -45l3 28q60 0 97 26t44 65l30 -1l-79 -449h-30zM784 150l-5 -28h-88l-22 -122h-29l22 122h-236l4 22l233 305h34l-229 -299h198l28 156h29l-28 -156h89z" />
    <glyph glyph-name="onehalf" unicode="&#xbd;" horiz-adv-x="844" 
d="M674 701l24 -18l-582 -704l-25 18zM167 240l65 376q-47 -45 -130 -45l3 28q60 0 97 26t44 65l30 -1l-79 -449h-30zM798 329q-10 -59 -76 -117l-215 -183h253l-5 -29h-300l4 23l245 212q56 48 65 97q7 41 -19 70t-72 29q-44 0 -82.5 -29.5t-52.5 -73.5l-28 8
q17 52 63 87.5t101 35.5q59 0 94 -38t25 -92z" />
    <glyph glyph-name="threequarters" unicode="&#xbe;" horiz-adv-x="935" 
d="M762 701l24 -18l-582 -704l-25 18zM375 356q-9 -53 -60.5 -89.5t-113.5 -36.5q-61 0 -99.5 36t-38.5 89l30 6q-1 -44 30 -73t80 -29q51 0 93.5 30t49.5 72q8 41 -24 69t-88 28h-70l5 28h68q52 0 91.5 27.5t46.5 67.5q7 38 -21.5 64.5t-74.5 26.5q-49 0 -88.5 -29.5
t-54.5 -74.5l-28 10q19 53 66 87.5t105 34.5q61 0 98 -35.5t27 -87.5q-7 -37 -35.5 -64.5t-71.5 -40.5q42 -13 63.5 -44t14.5 -72zM872 150l-5 -28h-88l-22 -122h-29l22 122h-236l4 22l233 305h34l-229 -299h198l28 156h29l-28 -156h89z" />
    <glyph glyph-name="questiondown" unicode="&#xbf;" horiz-adv-x="511" 
d="M337 510q15 0 24 -11t6 -26q-2 -14 -13.5 -23.5t-24.5 -9.5q-15 0 -24 11t-7 26q2 13 13.5 23t25.5 10zM289 324h34l-6 -37q-16 -89 -125 -145q-40 -20 -59.5 -31.5t-44.5 -30.5t-37.5 -41t-17.5 -52q-12 -68 28 -108.5t113 -40.5q78 0 140 44.5t85 114.5l33 -7
q-25 -78 -95.5 -132t-161.5 -54q-90 0 -140.5 51.5t-35.5 134.5q3 18 8.5 33.5t14.5 29.5t16 24.5t21.5 22.5t21.5 18t25 16.5t23.5 14t25.5 13.5t23 12q93 47 105 115z" />
    <glyph glyph-name="Agrave" unicode="&#xc0;" horiz-adv-x="690" 
d="M450 740h-31l-68 115l44 20zM568 0l-51 208h-359l-124 -208h-38l402 680h41l167 -680h-38zM178 242h331l-96 396z" />
    <glyph glyph-name="Aacute" unicode="&#xc1;" horiz-adv-x="690" 
d="M557 855l-108 -115h-33l103 135zM568 0l-51 208h-359l-124 -208h-38l402 680h41l167 -680h-38zM178 242h331l-96 396z" />
    <glyph glyph-name="Acircumflex" unicode="&#xc2;" horiz-adv-x="690" 
d="M449 832l-130 -103l-17 20l133 121h40l90 -121l-23 -20zM568 0l-51 208h-359l-124 -208h-38l402 680h41l167 -680h-38zM178 242h331l-96 396z" />
    <glyph glyph-name="Atilde" unicode="&#xc3;" horiz-adv-x="690" 
d="M370 825q-23 0 -42 -19.5t-25 -49.5l-31 2q7 44 35.5 72.5t63.5 28.5q28 0 53 -18.5t47 -37t42 -18.5q23 0 42.5 19.5t24.5 49.5l31 -2q-7 -44 -35.5 -72.5t-63.5 -28.5q-32 0 -74 37t-68 37zM398 680h41l167 -680h-38l-51 208h-359l-124 -208h-38zM178 242h331l-96 396z
" />
    <glyph glyph-name="Adieresis" unicode="&#xc4;" horiz-adv-x="690" 
d="M348 766q-13 0 -19.5 8.5t-4.5 21.5q2 11 10.5 18.5t19.5 7.5q12 0 19.5 -9t5.5 -21q-2 -11 -11 -18.5t-20 -7.5zM530 766q-13 0 -19.5 8.5t-4.5 21.5q2 11 10.5 18.5t19.5 7.5q12 0 19.5 -9t5.5 -21q-2 -11 -11 -18.5t-20 -7.5zM568 0l-51 208h-359l-124 -208h-38
l402 680h41l167 -680h-38zM178 242h331l-96 396z" />
    <glyph glyph-name="Aring" unicode="&#xc5;" horiz-adv-x="690" 
d="M568 0l-51 208h-359l-124 -208h-38l387 655q-26 11 -38.5 35t-7.5 54q7 38 38.5 64.5t69.5 26.5t61.5 -28t16.5 -67q-5 -30 -26.5 -53.5t-51.5 -32.5l161 -654h-38zM368 740q-3 -24 12.5 -41.5t40.5 -17.5t46 18.5t25 44.5q3 24 -12.5 41.5t-39.5 17.5q-26 0 -47.5 -18.5
t-24.5 -44.5zM178 242h331l-96 396z" />
    <glyph glyph-name="AE" unicode="&#xc6;" horiz-adv-x="963" 
d="M970 646h-383l-51 -289h280l-6 -34h-280l-51 -289h383l-6 -34h-418l37 208h-317l-124 -208h-38l402 680h578zM481 242l71 404h-134l-240 -404h303z" />
    <glyph glyph-name="Ccedilla" unicode="&#xc7;" horiz-adv-x="767" 
d="M505 661q-153 0 -269.5 -115.5t-116.5 -264.5q0 -114 75 -188.5t193 -74.5q82 0 160 39.5t135 108.5l28 -21q-59 -72 -143 -115.5t-174 -45.5l-84 -110l-38 20l86 91q-122 10 -198 92t-76 202q0 107 59 203.5t157 155t207 58.5q94 0 165.5 -44t105.5 -120l-32 -16
q-31 69 -95 107t-145 38z" />
    <glyph glyph-name="Egrave" unicode="&#xc8;" horiz-adv-x="585" 
d="M414 740h-31l-68 115l44 20zM592 646h-383l-51 -289h280l-6 -34h-280l-51 -289h383l-6 -34h-418l120 680h418z" />
    <glyph glyph-name="Eacute" unicode="&#xc9;" horiz-adv-x="585" 
d="M521 855l-108 -115h-33l103 135zM592 646h-383l-51 -289h280l-6 -34h-280l-51 -289h383l-6 -34h-418l120 680h418z" />
    <glyph glyph-name="Ecircumflex" unicode="&#xca;" horiz-adv-x="585" 
d="M413 832l-130 -103l-17 20l133 121h40l90 -121l-23 -20zM592 646h-383l-51 -289h280l-6 -34h-280l-51 -289h383l-6 -34h-418l120 680h418z" />
    <glyph glyph-name="Edieresis" unicode="&#xcb;" horiz-adv-x="585" 
d="M312 766q-13 0 -19.5 8.5t-4.5 21.5q2 11 10.5 18.5t19.5 7.5q12 0 19.5 -9t5.5 -21q-2 -11 -11 -18.5t-20 -7.5zM494 766q-13 0 -19.5 8.5t-4.5 21.5q2 11 10.5 18.5t19.5 7.5q12 0 19.5 -9t5.5 -21q-2 -11 -11 -18.5t-20 -7.5zM592 646h-383l-51 -289h280l-6 -34h-280
l-51 -289h383l-6 -34h-418l120 680h418z" />
    <glyph glyph-name="Igrave" unicode="&#xcc;" horiz-adv-x="257" 
d="M177 875l55 -135h-31l-68 115zM187 680h35l-120 -680h-35z" />
    <glyph glyph-name="Iacute" unicode="&#xcd;" horiz-adv-x="257" 
d="M301 875l38 -20l-108 -115h-33zM187 680h35l-120 -680h-35z" />
    <glyph glyph-name="Icircumflex" unicode="&#xce;" horiz-adv-x="257" 
d="M347 749l-23 -20l-93 103l-130 -103l-17 20l133 121h40zM67 0l120 680h35l-120 -680h-35z" />
    <glyph glyph-name="Idieresis" unicode="&#xcf;" horiz-adv-x="257" 
d="M130 766q-13 0 -19.5 8.5t-4.5 21.5q2 11 10.5 18.5t19.5 7.5q12 0 19.5 -9t5.5 -21q-2 -11 -11 -18.5t-20 -7.5zM312 766q-13 0 -19.5 8.5t-4.5 21.5q2 11 10.5 18.5t19.5 7.5q12 0 19.5 -9t5.5 -21q-2 -11 -11 -18.5t-20 -7.5zM187 680h35l-120 -680h-35z" />
    <glyph glyph-name="Eth" unicode="&#xd0;" horiz-adv-x="752" 
d="M389 680q138 0 224.5 -77.5t86.5 -201.5q0 -110 -59 -202.5t-157.5 -145.5t-212.5 -53h-211l57 324h-110l6 32h110l57 324h209zM275 34q159 0 274.5 107t115.5 256q0 110 -77 179.5t-203 69.5h-176l-51 -290h255l-6 -32h-255l-51 -290h174z" />
    <glyph glyph-name="Ntilde" unicode="&#xd1;" horiz-adv-x="773" 
d="M410 825q-23 0 -42 -19.5t-25 -49.5l-31 2q7 44 35.5 72.5t63.5 28.5q28 0 53 -18.5t47 -37t42 -18.5q23 0 42.5 19.5t24.5 49.5l31 -2q-7 -44 -35.5 -72.5t-63.5 -28.5q-32 0 -74 37t-68 37zM710 680h35l-120 -680h-32l-389 619l-109 -619h-35l120 680h30l390 -622z" />
    <glyph glyph-name="Ograve" unicode="&#xd2;" horiz-adv-x="857" 
d="M478 875l55 -135h-31l-68 115zM385 -16q-133 0 -217.5 83.5t-84.5 211.5q0 107 59 203.5t157 155t207 58.5q131 0 215 -83.5t84 -209.5q0 -108 -58.5 -205.5t-156 -155.5t-205.5 -58zM387 18q152 0 267 116t115 268q0 113 -73.5 186t-190.5 73q-101 0 -190.5 -53
t-142.5 -141.5t-53 -186.5q0 -114 74.5 -188t193.5 -74z" />
    <glyph glyph-name="Oacute" unicode="&#xd3;" horiz-adv-x="857" 
d="M602 875l38 -20l-108 -115h-33zM385 -16q-133 0 -217.5 83.5t-84.5 211.5q0 107 59 203.5t157 155t207 58.5q131 0 215 -83.5t84 -209.5q0 -108 -58.5 -205.5t-156 -155.5t-205.5 -58zM387 18q152 0 267 116t115 268q0 113 -73.5 186t-190.5 73q-101 0 -190.5 -53
t-142.5 -141.5t-53 -186.5q0 -114 74.5 -188t193.5 -74z" />
    <glyph glyph-name="Ocircumflex" unicode="&#xd4;" horiz-adv-x="857" 
d="M532 832l-130 -103l-17 20l133 121h40l90 -121l-23 -20zM506 696q131 0 215 -83.5t84 -209.5q0 -108 -58.5 -205.5t-156 -155.5t-205.5 -58q-133 0 -217.5 83.5t-84.5 211.5q0 107 59 203.5t157 155t207 58.5zM387 18q152 0 267 116t115 268q0 113 -73.5 186t-190.5 73
q-101 0 -190.5 -53t-142.5 -141.5t-53 -186.5q0 -114 74.5 -188t193.5 -74z" />
    <glyph glyph-name="Otilde" unicode="&#xd5;" horiz-adv-x="857" 
d="M663 854l31 -2q-7 -44 -35.5 -72.5t-63.5 -28.5q-31 0 -74 37t-68 37q-23 0 -42 -19.5t-25 -49.5l-31 2q7 44 35.5 72.5t63.5 28.5q28 0 53 -18.5t47 -37t42 -18.5q23 0 42.5 19.5t24.5 49.5zM385 -16q-133 0 -217.5 83.5t-84.5 211.5q0 107 59 203.5t157 155t207 58.5
q131 0 215 -83.5t84 -209.5q0 -108 -58.5 -205.5t-156 -155.5t-205.5 -58zM387 18q152 0 267 116t115 268q0 113 -73.5 186t-190.5 73q-101 0 -190.5 -53t-142.5 -141.5t-53 -186.5q0 -114 74.5 -188t193.5 -74z" />
    <glyph glyph-name="Odieresis" unicode="&#xd6;" horiz-adv-x="857" 
d="M431 766q-13 0 -19.5 8.5t-4.5 21.5q2 11 10.5 18.5t19.5 7.5q12 0 19.5 -9t5.5 -21q-2 -11 -11 -18.5t-20 -7.5zM613 766q-13 0 -19.5 8.5t-4.5 21.5q2 11 10.5 18.5t19.5 7.5q12 0 19.5 -9t5.5 -21q-2 -11 -11 -18.5t-20 -7.5zM385 -16q-133 0 -217.5 83.5t-84.5 211.5
q0 107 59 203.5t157 155t207 58.5q131 0 215 -83.5t84 -209.5q0 -108 -58.5 -205.5t-156 -155.5t-205.5 -58zM387 18q152 0 267 116t115 268q0 113 -73.5 186t-190.5 73q-101 0 -190.5 -53t-142.5 -141.5t-53 -186.5q0 -114 74.5 -188t193.5 -74z" />
    <glyph glyph-name="multiply" unicode="&#xd7;" horiz-adv-x="434" 
d="M413 474l-157 -134l110 -134l-26 -23l-111 134l-157 -134l-20 23l158 134l-111 134l27 23l111 -134l157 134z" />
    <glyph glyph-name="Oslash" unicode="&#xd8;" horiz-adv-x="857" 
d="M831 660l-88 -72q62 -77 62 -185t-58.5 -205.5t-156 -155.5t-205.5 -58q-154 0 -240 110l-120 -99l-18 23l121 99q-45 71 -45 162q0 107 59 203.5t157 155t207 58.5q134 0 219 -87l88 73zM119 280q0 -78 37 -140l541 447q-74 74 -192 74q-101 0 -190.5 -53t-142.5 -141.5
t-53 -186.5zM769 402q0 94 -53 163l-544 -449q76 -98 215 -98q152 0 267 116t115 268z" />
    <glyph glyph-name="Ugrave" unicode="&#xd9;" horiz-adv-x="761" 
d="M430 875l55 -135h-31l-68 115zM709 680h35l-68 -383q-25 -142 -118 -227.5t-222 -85.5q-134 0 -197 89t-37 226l67 381h35l-68 -383q-21 -127 32.5 -203t169.5 -76q115 0 198.5 77t105.5 204z" />
    <glyph glyph-name="Uacute" unicode="&#xda;" horiz-adv-x="761" 
d="M554 875l38 -20l-108 -115h-33zM709 680h35l-68 -383q-25 -142 -118 -227.5t-222 -85.5q-134 0 -197 89t-37 226l67 381h35l-68 -383q-21 -127 32.5 -203t169.5 -76q115 0 198.5 77t105.5 204z" />
    <glyph glyph-name="Ucircumflex" unicode="&#xdb;" horiz-adv-x="761" 
d="M484 832l-130 -103l-17 20l133 121h40l90 -121l-23 -20zM709 680h35l-68 -383q-25 -142 -118 -227.5t-222 -85.5q-134 0 -197 89t-37 226l67 381h35l-68 -383q-21 -127 32.5 -203t169.5 -76q115 0 198.5 77t105.5 204z" />
    <glyph glyph-name="Udieresis" unicode="&#xdc;" horiz-adv-x="761" 
d="M383 766q-13 0 -19.5 8.5t-4.5 21.5q2 11 10.5 18.5t19.5 7.5q12 0 19.5 -9t5.5 -21q-2 -11 -11 -18.5t-20 -7.5zM565 766q-13 0 -19.5 8.5t-4.5 21.5q2 11 10.5 18.5t19.5 7.5q12 0 19.5 -9t5.5 -21q-2 -11 -11 -18.5t-20 -7.5zM709 680h35l-68 -383
q-25 -142 -118 -227.5t-222 -85.5q-134 0 -197 89t-37 226l67 381h35l-68 -383q-21 -127 32.5 -203t169.5 -76q115 0 198.5 77t105.5 204z" />
    <glyph glyph-name="Yacute" unicode="&#xdd;" horiz-adv-x="623" 
d="M523 855l-108 -115h-33l103 135zM673 680l-340 -404l-48 -276h-35l49 279l-197 401h41l179 -368l308 368h43z" />
    <glyph glyph-name="Thorn" unicode="&#xde;" horiz-adv-x="667" 
d="M436 525q88 0 138 -53t36 -133q-14 -78 -81 -131t-156 -53h-251l-27 -155h-35l27 155l65 370h1l27 155h35l-27 -155h248zM574 343q12 65 -27.5 106.5t-113.5 41.5h-251l-53 -301h248q74 0 130 43.5t67 109.5z" />
    <glyph glyph-name="germandbls" unicode="&#xdf;" horiz-adv-x="600" 
d="M561 516q-10 -59 -53 -102.5t-105 -62.5q62 -19 92.5 -66t19.5 -110q-15 -82 -88.5 -136t-167.5 -54q-60 0 -104 28l5 38q39 -32 99 -32q83 0 145.5 45t74.5 114q12 67 -32 111.5t-129 44.5h-107l6 34h105q81 0 136.5 42.5t66.5 108.5q12 67 -29.5 109.5t-112.5 42.5
q-83 0 -144 -58.5t-78 -151.5l-81 -461h-36l82 463q21 119 97 180.5t164 61.5q85 0 136.5 -54t37.5 -135z" />
    <glyph glyph-name="agrave" unicode="&#xe0;" horiz-adv-x="534" 
d="M326 560h-31l-68 115l44 20zM298 511q89 0 132.5 -56.5t30.5 -150.5l-54 -304h-32l18 101q-29 -47 -92.5 -79t-128.5 -32t-104.5 33t-39.5 84q0 61 48 104t132 60l222 45q9 74 -27 118.5t-106 44.5q-52 0 -100.5 -25t-83.5 -67l-25 20q38 46 94 75t116 29zM178 22
q79 0 148 47t82 116l17 98l-214 -43q-70 -15 -111 -49t-41 -83q0 -38 32.5 -62t86.5 -24z" />
    <glyph glyph-name="aacute" unicode="&#xe1;" horiz-adv-x="534" 
d="M433 675l-108 -115h-33l103 135zM298 511q89 0 132.5 -56.5t30.5 -150.5l-54 -304h-32l18 101q-29 -47 -92.5 -79t-128.5 -32t-104.5 33t-39.5 84q0 61 48 104t132 60l222 45q9 74 -27 118.5t-106 44.5q-52 0 -100.5 -25t-83.5 -67l-25 20q38 46 94 75t116 29zM178 22
q79 0 148 47t82 116l17 98l-214 -43q-70 -15 -111 -49t-41 -83q0 -38 32.5 -62t86.5 -24z" />
    <glyph glyph-name="acircumflex" unicode="&#xe2;" horiz-adv-x="534" 
d="M325 652l-130 -103l-17 20l133 121h40l90 -121l-23 -20zM298 511q89 0 132.5 -56.5t30.5 -150.5l-54 -304h-32l18 101q-29 -47 -92.5 -79t-128.5 -32t-104.5 33t-39.5 84q0 61 48 104t132 60l222 45q9 74 -27 118.5t-106 44.5q-52 0 -100.5 -25t-83.5 -67l-25 20
q38 46 94 75t116 29zM178 22q79 0 148 47t82 116l17 98l-214 -43q-70 -15 -111 -49t-41 -83q0 -38 32.5 -62t86.5 -24z" />
    <glyph glyph-name="atilde" unicode="&#xe3;" horiz-adv-x="534" 
d="M246 645q-23 0 -42 -19.5t-25 -49.5l-31 2q7 44 35.5 72.5t63.5 28.5q28 0 53 -18.5t47 -37t42 -18.5q23 0 42.5 19.5t24.5 49.5l31 -2q-7 -44 -35.5 -72.5t-63.5 -28.5q-32 0 -74 37t-68 37zM298 511q89 0 132.5 -56.5t30.5 -150.5l-54 -304h-32l18 101
q-29 -47 -92.5 -79t-128.5 -32t-104.5 33t-39.5 84q0 61 48 104t132 60l222 45q9 74 -27 118.5t-106 44.5q-52 0 -100.5 -25t-83.5 -67l-25 20q38 46 94 75t116 29zM178 22q79 0 148 47t82 116l17 98l-214 -43q-70 -15 -111 -49t-41 -83q0 -38 32.5 -62t86.5 -24z" />
    <glyph glyph-name="adieresis" unicode="&#xe4;" horiz-adv-x="534" 
d="M224 586q-13 0 -19.5 8.5t-4.5 21.5q2 11 10.5 18.5t19.5 7.5q12 0 19.5 -9t5.5 -21q-2 -11 -11 -18.5t-20 -7.5zM406 586q-13 0 -19.5 8.5t-4.5 21.5q2 11 10.5 18.5t19.5 7.5q12 0 19.5 -9t5.5 -21q-2 -11 -11 -18.5t-20 -7.5zM298 511q89 0 132.5 -56.5t30.5 -150.5
l-54 -304h-32l18 101q-29 -47 -92.5 -79t-128.5 -32t-104.5 33t-39.5 84q0 61 48 104t132 60l222 45q9 74 -27 118.5t-106 44.5q-52 0 -100.5 -25t-83.5 -67l-25 20q38 46 94 75t116 29zM178 22q79 0 148 47t82 116l17 98l-214 -43q-70 -15 -111 -49t-41 -83q0 -38 32.5 -62
t86.5 -24z" />
    <glyph glyph-name="aring" unicode="&#xe5;" horiz-adv-x="534" 
d="M309 542q-40 0 -63 28t-16 67q7 38 38.5 64.5t69.5 26.5t61.5 -28t16.5 -67q-7 -38 -38.5 -64.5t-68.5 -26.5zM261 633q-3 -24 12.5 -41.5t40.5 -17.5t46 18.5t25 44.5q3 24 -12.5 41.5t-39.5 17.5q-26 0 -47.5 -18.5t-24.5 -44.5zM298 511q89 0 132.5 -56.5t30.5 -150.5
l-54 -304h-32l18 101q-29 -47 -92.5 -79t-128.5 -32t-104.5 33t-39.5 84q0 61 48 104t132 60l222 45q9 74 -27 118.5t-106 44.5q-52 0 -100.5 -25t-83.5 -67l-25 20q38 46 94 75t116 29zM178 22q79 0 148 47t82 116l17 98l-214 -43q-70 -15 -111 -49t-41 -83q0 -38 32.5 -62
t86.5 -24z" />
    <glyph glyph-name="ae" unicode="&#xe6;" horiz-adv-x="928" 
d="M695 510q90 0 141.5 -57.5t44.5 -161.5q-1 -28 -10 -55h-427q-13 -95 32.5 -154.5t132.5 -59.5q58 0 113 28t92 76l27 -18q-42 -54 -105 -86t-130 -32q-73 0 -121.5 36.5t-66.5 99.5q-26 -54 -98 -95t-147 -41q-74 0 -114 40.5t-29 99.5q9 52 55 88.5t123 52.5l222 45
q10 73 -27 118t-107 45q-51 0 -100 -25t-84 -67l-24 20q38 46 94 75t116 29q67 0 111.5 -36.5t53.5 -98.5q39 62 99.5 98t132.5 36zM693 478q-85 0 -152.5 -59t-90.5 -152h395q18 90 -24 150.5t-128 60.5zM178 22q76 0 145 44.5t87 109.5q-3 38 4 75q3 19 7 32l-210 -43
q-64 -13 -103.5 -43t-46.5 -72q-8 -45 24.5 -74t92.5 -29z" />
    <glyph glyph-name="ccedilla" unicode="&#xe7;" horiz-adv-x="553" 
d="M332 480q-107 0 -186 -83t-79 -193q0 -80 49.5 -131t130.5 -51q59 0 114.5 28t96.5 77l27 -19q-46 -55 -109.5 -86.5t-130.5 -31.5h-8l-89 -116l-38 20l93 99q-77 13 -123 70.5t-46 138.5q0 122 88.5 216t210.5 94q68 0 120.5 -32.5t80.5 -87.5l-30 -15q-24 49 -69 76
t-103 27z" />
    <glyph glyph-name="egrave" unicode="&#xe8;" horiz-adv-x="572" 
d="M366 560h-31l-68 115l44 20zM515 237h-426q-3 -19 -3 -40q0 -79 45 -127t121 -48q59 0 114 28t93 76l26 -18q-42 -54 -105 -86t-130 -32q-93 0 -145 57.5t-52 148.5q0 124 83.5 219t201.5 95q83 0 135.5 -50.5t52.5 -143.5q0 -46 -11 -79zM336 478q-86 0 -153 -60.5
t-89 -150.5h395q5 21 5 49q0 72 -41.5 117t-116.5 45z" />
    <glyph glyph-name="eacute" unicode="&#xe9;" horiz-adv-x="572" 
d="M473 675l-108 -115h-33l103 135zM515 237h-426q-3 -19 -3 -40q0 -79 45 -127t121 -48q59 0 114 28t93 76l26 -18q-42 -54 -105 -86t-130 -32q-93 0 -145 57.5t-52 148.5q0 124 83.5 219t201.5 95q83 0 135.5 -50.5t52.5 -143.5q0 -46 -11 -79zM336 478q-86 0 -153 -60.5
t-89 -150.5h395q5 21 5 49q0 72 -41.5 117t-116.5 45z" />
    <glyph glyph-name="ecircumflex" unicode="&#xea;" horiz-adv-x="572" 
d="M365 652l-130 -103l-17 20l133 121h40l90 -121l-23 -20zM515 237h-426q-3 -19 -3 -40q0 -79 45 -127t121 -48q59 0 114 28t93 76l26 -18q-42 -54 -105 -86t-130 -32q-93 0 -145 57.5t-52 148.5q0 124 83.5 219t201.5 95q83 0 135.5 -50.5t52.5 -143.5q0 -46 -11 -79z
M336 478q-86 0 -153 -60.5t-89 -150.5h395q5 21 5 49q0 72 -41.5 117t-116.5 45z" />
    <glyph glyph-name="edieresis" unicode="&#xeb;" horiz-adv-x="572" 
d="M264 586q-13 0 -19.5 8.5t-4.5 21.5q2 11 10.5 18.5t19.5 7.5q12 0 19.5 -9t5.5 -21q-2 -11 -11 -18.5t-20 -7.5zM446 586q-13 0 -19.5 8.5t-4.5 21.5q2 11 10.5 18.5t19.5 7.5q12 0 19.5 -9t5.5 -21q-2 -11 -11 -18.5t-20 -7.5zM515 237h-426q-3 -19 -3 -40
q0 -79 45 -127t121 -48q59 0 114 28t93 76l26 -18q-42 -54 -105 -86t-130 -32q-93 0 -145 57.5t-52 148.5q0 124 83.5 219t201.5 95q83 0 135.5 -50.5t52.5 -143.5q0 -46 -11 -79zM336 478q-86 0 -153 -60.5t-89 -150.5h395q5 21 5 49q0 72 -41.5 117t-116.5 45z" />
    <glyph glyph-name="igrave" unicode="&#xec;" horiz-adv-x="221" 
d="M127 695l55 -135h-31l-68 115zM138 500h32l-88 -500h-32z" />
    <glyph glyph-name="iacute" unicode="&#xed;" horiz-adv-x="221" 
d="M251 695l38 -20l-108 -115h-33zM138 500h32l-88 -500h-32z" />
    <glyph glyph-name="icircumflex" unicode="&#xee;" horiz-adv-x="221" 
d="M297 569l-23 -20l-93 103l-130 -103l-17 20l133 121h40zM50 0l88 500h32l-88 -500h-32z" />
    <glyph glyph-name="idieresis" unicode="&#xef;" horiz-adv-x="221" 
d="M80 586q-13 0 -19.5 8.5t-4.5 21.5q2 11 10.5 18.5t19.5 7.5q12 0 19.5 -9t5.5 -21q-2 -11 -11 -18.5t-20 -7.5zM262 586q-13 0 -19.5 8.5t-4.5 21.5q2 11 10.5 18.5t19.5 7.5q12 0 19.5 -9t5.5 -21q-2 -11 -11 -18.5t-20 -7.5zM138 500h32l-88 -500h-32z" />
    <glyph glyph-name="eth" unicode="&#xf0;" horiz-adv-x="590" 
d="M526 604l-99 -34q98 -197 70 -353q-19 -110 -94.5 -171t-163.5 -61q-93 0 -147.5 65t-38.5 157q16 91 92 154.5t167 63.5q57 0 97.5 -26.5t58.5 -71.5q-12 112 -73 232l-204 -70l-7 32l196 67q-34 61 -80 119l27 22q46 -56 85 -130l108 37zM463 213q11 75 -33.5 127.5
t-119.5 52.5q-78 0 -144 -56t-79 -134q-14 -77 31.5 -131.5t121.5 -54.5q81 0 143 55t80 141z" />
    <glyph glyph-name="ntilde" unicode="&#xf1;" 
d="M291 645q-23 0 -42 -19.5t-25 -49.5l-31 2q7 44 35.5 72.5t63.5 28.5q28 0 53 -18.5t47 -37t42 -18.5q23 0 42.5 19.5t24.5 49.5l31 -2q-7 -44 -35.5 -72.5t-63.5 -28.5q-31 0 -74 37t-68 37zM347 511q84 0 132.5 -60t34.5 -148l-53 -303h-32l54 305q14 69 -28 121.5
t-113 52.5q-69 0 -128.5 -47.5t-76.5 -115.5l-56 -316h-32l88 500h32l-17 -98q32 46 85 77.5t110 31.5z" />
    <glyph glyph-name="ograve" unicode="&#xf2;" horiz-adv-x="634" 
d="M334 695l55 -135h-31l-68 115zM274 -10q-97 0 -159 61.5t-62 155.5q0 119 94.5 211t214.5 92q96 0 157.5 -61.5t61.5 -155.5q0 -118 -94 -210.5t-213 -92.5zM276 22q108 0 190 83t82 187q0 80 -52.5 133t-135.5 53q-109 0 -191.5 -82.5t-82.5 -188.5q0 -80 53.5 -132.5
t136.5 -52.5z" />
    <glyph glyph-name="oacute" unicode="&#xf3;" horiz-adv-x="634" 
d="M458 695l38 -20l-108 -115h-33zM274 -10q-97 0 -159 61.5t-62 155.5q0 119 94.5 211t214.5 92q96 0 157.5 -61.5t61.5 -155.5q0 -118 -94 -210.5t-213 -92.5zM276 22q108 0 190 83t82 187q0 80 -52.5 133t-135.5 53q-109 0 -191.5 -82.5t-82.5 -188.5q0 -80 53.5 -132.5
t136.5 -52.5z" />
    <glyph glyph-name="ocircumflex" unicode="&#xf4;" horiz-adv-x="634" 
d="M388 652l-130 -103l-17 20l133 121h40l90 -121l-23 -20zM362 510q96 0 157.5 -61.5t61.5 -155.5q0 -118 -94 -210.5t-213 -92.5q-97 0 -159 61.5t-62 155.5q0 119 94.5 211t214.5 92zM276 22q108 0 190 83t82 187q0 80 -52.5 133t-135.5 53q-109 0 -191.5 -82.5
t-82.5 -188.5q0 -80 53.5 -132.5t136.5 -52.5z" />
    <glyph glyph-name="otilde" unicode="&#xf5;" horiz-adv-x="634" 
d="M519 674l31 -2q-7 -44 -35.5 -72.5t-63.5 -28.5q-26 0 -50 18.5t-47 37t-45 18.5q-23 0 -42 -19.5t-25 -49.5l-31 2q7 44 35.5 72.5t63.5 28.5q28 0 53 -18.5t47 -37t42 -18.5q23 0 42.5 19.5t24.5 49.5zM274 -10q-97 0 -159 61.5t-62 155.5q0 119 94.5 211t214.5 92
q96 0 157.5 -61.5t61.5 -155.5q0 -118 -94 -210.5t-213 -92.5zM276 22q108 0 190 83t82 187q0 80 -52.5 133t-135.5 53q-109 0 -191.5 -82.5t-82.5 -188.5q0 -80 53.5 -132.5t136.5 -52.5z" />
    <glyph glyph-name="odieresis" unicode="&#xf6;" horiz-adv-x="634" 
d="M287 586q-13 0 -19.5 8.5t-4.5 21.5q2 11 10.5 18.5t19.5 7.5q12 0 19.5 -9t5.5 -21q-2 -11 -11 -18.5t-20 -7.5zM469 586q-13 0 -19.5 8.5t-4.5 21.5q2 11 10.5 18.5t19.5 7.5q12 0 19.5 -9t5.5 -21q-2 -11 -11 -18.5t-20 -7.5zM274 -10q-97 0 -159 61.5t-62 155.5
q0 119 94.5 211t214.5 92q96 0 157.5 -61.5t61.5 -155.5q0 -118 -94 -210.5t-213 -92.5zM276 22q108 0 190 83t82 187q0 80 -52.5 133t-135.5 53q-109 0 -191.5 -82.5t-82.5 -188.5q0 -80 53.5 -132.5t136.5 -52.5z" />
    <glyph glyph-name="divide" unicode="&#xf7;" horiz-adv-x="532" 
d="M316 546q15 0 24 -11t7 -26q-3 -14 -14.5 -23.5t-24.5 -9.5q-15 0 -24 11t-7 26q3 14 14.5 23.5t24.5 9.5zM73 324l6 32h412l-6 -32h-412zM256 204q15 0 24 -11t6 -26q-2 -14 -13.5 -23.5t-24.5 -9.5q-15 0 -24 11t-7 26q2 13 13.5 23t25.5 10z" />
    <glyph glyph-name="oslash" unicode="&#xf8;" horiz-adv-x="634" 
d="M626 503l-90 -74q45 -57 45 -136q0 -118 -94 -210.5t-213 -92.5q-111 0 -174 79l-115 -95l-18 23l116 96q-30 51 -30 114q0 119 94.5 211t214.5 92q95 0 155 -60l91 75zM86 207q0 -52 23 -93l382 315q-51 49 -131 49q-109 0 -191.5 -82.5t-82.5 -188.5zM548 292
q0 65 -37 116l-386 -318q55 -68 151 -68q108 0 190 83t82 187z" />
    <glyph glyph-name="ugrave" unicode="&#xf9;" 
d="M355 560h-31l-68 115l44 20zM507 500h32l-88 -500h-32l17 98q-32 -46 -85 -77.5t-110 -31.5q-84 0 -132.5 60t-34.5 148l53 303h32l-54 -305q-14 -69 28 -121.5t113 -52.5q69 0 129.5 48t76.5 117z" />
    <glyph glyph-name="uacute" unicode="&#xfa;" 
d="M462 675l-108 -115h-33l103 135zM507 500h32l-88 -500h-32l17 98q-32 -46 -85 -77.5t-110 -31.5q-84 0 -132.5 60t-34.5 148l53 303h32l-54 -305q-14 -69 28 -121.5t113 -52.5q69 0 129.5 48t76.5 117z" />
    <glyph glyph-name="ucircumflex" unicode="&#xfb;" 
d="M354 652l-130 -103l-17 20l133 121h40l90 -121l-23 -20zM507 500h32l-88 -500h-32l17 98q-32 -46 -85 -77.5t-110 -31.5q-84 0 -132.5 60t-34.5 148l53 303h32l-54 -305q-14 -69 28 -121.5t113 -52.5q69 0 129.5 48t76.5 117z" />
    <glyph glyph-name="udieresis" unicode="&#xfc;" 
d="M253 586q-13 0 -19.5 8.5t-4.5 21.5q2 11 10.5 18.5t19.5 7.5q12 0 19.5 -9t5.5 -21q-2 -11 -11 -18.5t-20 -7.5zM435 586q-13 0 -19.5 8.5t-4.5 21.5q2 11 10.5 18.5t19.5 7.5q12 0 19.5 -9t5.5 -21q-2 -11 -11 -18.5t-20 -7.5zM507 500h32l-88 -500h-32l17 98
q-32 -46 -85 -77.5t-110 -31.5q-84 0 -132.5 60t-34.5 148l53 303h32l-54 -305q-14 -69 28 -121.5t113 -52.5q69 0 129.5 48t76.5 117z" />
    <glyph glyph-name="yacute" unicode="&#xfd;" horiz-adv-x="543" 
d="M456 675l-108 -115h-33l103 135zM511 500h35l-430 -700h-36l142 231l-137 469h36l125 -431z" />
    <glyph glyph-name="thorn" unicode="&#xfe;" horiz-adv-x="614" 
d="M365 512q85 0 139.5 -57.5t54.5 -150.5q0 -124 -83.5 -219t-200.5 -95q-63 0 -110.5 30.5t-65.5 84.5l-53 -305h-32l158 900h32l-55 -317q36 59 93.5 94t122.5 35zM278 22q102 0 175 85t73 195q0 81 -45 129.5t-118 48.5q-80 0 -153 -65.5t-90 -164.5q-6 -31 -6 -59
q0 -79 43.5 -124t120.5 -45z" />
    <glyph glyph-name="ydieresis" unicode="&#xff;" horiz-adv-x="543" 
d="M247 586q-13 0 -19.5 8.5t-4.5 21.5q2 11 10.5 18.5t19.5 7.5q12 0 19.5 -9t5.5 -21q-2 -11 -11 -18.5t-20 -7.5zM429 586q-13 0 -19.5 8.5t-4.5 21.5q2 11 10.5 18.5t19.5 7.5q12 0 19.5 -9t5.5 -21q-2 -11 -11 -18.5t-20 -7.5zM511 500h35l-430 -700h-36l142 231
l-137 469h36l125 -431z" />
    <glyph glyph-name="Amacron" unicode="&#x100;" horiz-adv-x="690" 
d="M269 806h350l-5 -32h-350zM398 680h41l167 -680h-38l-51 208h-359l-124 -208h-38zM178 242h331l-96 396z" />
    <glyph glyph-name="amacron" unicode="&#x101;" horiz-adv-x="534" 
d="M145 626h350l-5 -32h-350zM298 511q89 0 132.5 -56.5t30.5 -150.5l-54 -304h-32l18 101q-29 -47 -92.5 -79t-128.5 -32t-104.5 33t-39.5 84q0 61 48 104t132 60l222 45q9 74 -27 118.5t-106 44.5q-52 0 -100.5 -25t-83.5 -67l-25 20q38 46 94 75t116 29zM178 22
q79 0 148 47t82 116l17 98l-214 -43q-70 -15 -111 -49t-41 -83q0 -38 32.5 -62t86.5 -24z" />
    <glyph glyph-name="Abreve" unicode="&#x102;" horiz-adv-x="690" 
d="M436 736q-64 0 -100 41.5t-25 103.5l31 -2q-8 -47 19 -78t77 -31q51 0 90.5 32t48.5 79l31 -2q-10 -61 -59.5 -102t-112.5 -41zM398 680h41l167 -680h-38l-51 208h-359l-124 -208h-38zM178 242h331l-96 396z" />
    <glyph glyph-name="abreve" unicode="&#x103;" horiz-adv-x="534" 
d="M312 556q-64 0 -100 41.5t-25 103.5l31 -2q-8 -47 19 -78t77 -31q51 0 90.5 32t48.5 79l31 -2q-10 -61 -59.5 -102t-112.5 -41zM298 511q89 0 132.5 -56.5t30.5 -150.5l-54 -304h-32l18 101q-29 -47 -92.5 -79t-128.5 -32t-104.5 33t-39.5 84q0 61 48 104t132 60l222 45
q9 74 -27 118.5t-106 44.5q-52 0 -100.5 -25t-83.5 -67l-25 20q38 46 94 75t116 29zM178 22q79 0 148 47t82 116l17 98l-214 -43q-70 -15 -111 -49t-41 -83q0 -38 32.5 -62t86.5 -24z" />
    <glyph glyph-name="Aogonek" unicode="&#x104;" horiz-adv-x="690" 
d="M537 -95q-6 -34 20 -41.5t78 17.5l-4 -36q-61 -25 -97.5 -6t-27.5 68q8 50 66 93h-4l-51 208h-359l-124 -208h-38l402 680h41l167 -680q-62 -56 -69 -95zM178 242h331l-96 396z" />
    <glyph glyph-name="aogonek" unicode="&#x105;" horiz-adv-x="534" 
d="M407 0q-58 -56 -65 -95q-6 -34 18.5 -41.5t73.5 17.5l-3 -36q-58 -25 -92.5 -6t-25.5 68q7 49 62 93l18 101q-29 -47 -92.5 -79t-128.5 -32t-104.5 33t-39.5 84q0 61 48 104t132 60l222 45q9 74 -27 118.5t-106 44.5q-52 0 -100.5 -25t-83.5 -67l-25 20q38 46 94 75
t116 29q89 0 132.5 -56.5t30.5 -150.5zM178 22q79 0 148 47t82 116l17 98l-214 -43q-70 -15 -111 -49t-41 -83q0 -38 32.5 -62t86.5 -24z" />
    <glyph glyph-name="Cacute" unicode="&#x106;" horiz-adv-x="767" 
d="M603 875l38 -20l-108 -115h-33zM745 516q-31 69 -95 107t-145 38q-153 0 -269.5 -115.5t-116.5 -264.5q0 -114 75 -188.5t193 -74.5q82 0 160 39.5t135 108.5l28 -21q-61 -74 -147 -117.5t-178 -43.5q-133 0 -217.5 83.5t-84.5 211.5q0 107 59 203.5t157 155t207 58.5
q94 0 165.5 -44t105.5 -120z" />
    <glyph glyph-name="cacute" unicode="&#x107;" horiz-adv-x="553" 
d="M430 695l38 -20l-108 -115h-33zM458 127l27 -19q-46 -55 -109.5 -86.5t-130.5 -31.5q-95 0 -153 60t-58 152q0 122 88.5 216t210.5 94q68 0 120.5 -32.5t80.5 -87.5l-30 -15q-24 49 -69 76t-103 27q-107 0 -186 -83t-79 -193q0 -80 49.5 -131t130.5 -51q59 0 114.5 28
t96.5 77z" />
    <glyph glyph-name="Cdotaccent" unicode="&#x10a;" horiz-adv-x="767" 
d="M524 766q-13 0 -19.5 8.5t-4.5 21.5q2 11 10.5 18.5t19.5 7.5q12 0 19.5 -9t5.5 -21q-2 -11 -11 -18.5t-20 -7.5zM745 516q-31 69 -95 107t-145 38q-153 0 -269.5 -115.5t-116.5 -264.5q0 -114 75 -188.5t193 -74.5q82 0 160 39.5t135 108.5l28 -21q-61 -74 -147 -117.5
t-178 -43.5q-133 0 -217.5 83.5t-84.5 211.5q0 107 59 203.5t157 155t207 58.5q94 0 165.5 -44t105.5 -120z" />
    <glyph glyph-name="cdotaccent" unicode="&#x10b;" horiz-adv-x="553" 
d="M351 586q-13 0 -19.5 8.5t-4.5 21.5q2 11 10.5 18.5t19.5 7.5q12 0 19.5 -9t5.5 -21q-2 -11 -11 -18.5t-20 -7.5zM458 127l27 -19q-46 -55 -109.5 -86.5t-130.5 -31.5q-95 0 -153 60t-58 152q0 122 88.5 216t210.5 94q68 0 120.5 -32.5t80.5 -87.5l-30 -15q-24 49 -69 76
t-103 27q-107 0 -186 -83t-79 -193q0 -80 49.5 -131t130.5 -51q59 0 114.5 28t96.5 77z" />
    <glyph glyph-name="Ccaron" unicode="&#x10c;" horiz-adv-x="767" 
d="M537 740h-40l-91 121l23 20l94 -103l129 103l17 -20zM505 661q-153 0 -269.5 -115.5t-116.5 -264.5q0 -114 75 -188.5t193 -74.5q82 0 160 39.5t135 108.5l28 -21q-61 -74 -147 -117.5t-178 -43.5q-133 0 -217.5 83.5t-84.5 211.5q0 107 59 203.5t157 155t207 58.5
q94 0 165.5 -44t105.5 -120l-32 -16q-31 69 -95 107t-145 38z" />
    <glyph glyph-name="ccaron" unicode="&#x10d;" horiz-adv-x="553" 
d="M364 560h-40l-91 121l23 20l94 -103l129 103l17 -20zM332 480q-107 0 -186 -83t-79 -193q0 -80 49.5 -131t130.5 -51q59 0 114.5 28t96.5 77l27 -19q-46 -55 -109.5 -86.5t-130.5 -31.5q-95 0 -153 60t-58 152q0 122 88.5 216t210.5 94q68 0 120.5 -32.5t80.5 -87.5
l-30 -15q-24 49 -69 76t-103 27z" />
    <glyph glyph-name="Dcaron" unicode="&#x10e;" horiz-adv-x="752" 
d="M420 740h-40l-91 121l23 20l94 -103l129 103l17 -20zM389 680q138 0 224.5 -77.5t86.5 -201.5q0 -110 -59 -202.5t-157.5 -145.5t-212.5 -53h-211l120 680h209zM275 34q159 0 274.5 107t115.5 256q0 110 -77 179.5t-203 69.5h-176l-108 -612h174z" />
    <glyph glyph-name="dcaron" unicode="&#x10f;" horiz-adv-x="671" 
d="M505 395l53 305h32l-123 -700h-32l20 117q-36 -59 -93.5 -94t-122.5 -35q-85 0 -139.5 57.5t-54.5 150.5q0 124 83.5 219t200.5 95q63 0 110.5 -30.5t65.5 -84.5zM689 700h44l-101 -247h-32zM241 20q80 0 153 65.5t90 164.5q6 31 6 59q0 79 -43.5 124t-120.5 45
q-102 0 -175 -85t-73 -195q0 -81 45 -129.5t118 -48.5z" />
    <glyph glyph-name="Dcroat" unicode="&#x110;" horiz-adv-x="752" 
d="M389 680q138 0 224.5 -77.5t86.5 -201.5q0 -110 -59 -202.5t-157.5 -145.5t-212.5 -53h-211l57 324h-110l6 32h110l57 324h209zM275 34q159 0 274.5 107t115.5 256q0 110 -77 179.5t-203 69.5h-176l-51 -290h255l-6 -32h-255l-51 -290h174z" />
    <glyph glyph-name="dcroat" unicode="&#x111;" horiz-adv-x="604" 
d="M682 601l-6 -32h-109l-100 -569h-32l20 117q-36 -59 -93.5 -94t-122.5 -35q-85 0 -139.5 57.5t-54.5 150.5q0 124 83.5 219t200.5 95q63 0 110.5 -30.5t65.5 -84.5l30 174h-259l6 32h259l17 99h32l-17 -99h109zM241 20q80 0 153 65.5t90 164.5q6 31 6 59q0 79 -43.5 124
t-120.5 45q-102 0 -175 -85t-73 -195q0 -81 45 -129.5t118 -48.5z" />
    <glyph glyph-name="Emacron" unicode="&#x112;" horiz-adv-x="585" 
d="M583 806l-5 -32h-350l5 32h350zM592 646h-383l-51 -289h280l-6 -34h-280l-51 -289h383l-6 -34h-418l120 680h418z" />
    <glyph glyph-name="emacron" unicode="&#x113;" horiz-adv-x="572" 
d="M185 626h350l-5 -32h-350zM338 510q83 0 135.5 -50.5t52.5 -143.5q0 -46 -11 -79h-426q-3 -19 -3 -40q0 -79 45 -127t121 -48q59 0 114 28t93 76l26 -18q-42 -54 -105 -86t-130 -32q-93 0 -145 57.5t-52 148.5q0 124 83.5 219t201.5 95zM489 267q5 21 5 49
q0 72 -41.5 117t-116.5 45q-86 0 -153 -60.5t-89 -150.5h395z" />
    <glyph glyph-name="Edotaccent" unicode="&#x116;" horiz-adv-x="585" 
d="M404 766q-13 0 -19.5 8.5t-4.5 21.5q2 11 10.5 18.5t19.5 7.5q12 0 19.5 -9t5.5 -21q-2 -11 -11 -18.5t-20 -7.5zM592 646h-383l-51 -289h280l-6 -34h-280l-51 -289h383l-6 -34h-418l120 680h418z" />
    <glyph glyph-name="edotaccent" unicode="&#x117;" horiz-adv-x="572" 
d="M356 586q-13 0 -19.5 8.5t-4.5 21.5q2 11 10.5 18.5t19.5 7.5q12 0 19.5 -9t5.5 -21q-2 -11 -11 -18.5t-20 -7.5zM515 237h-426q-3 -19 -3 -40q0 -79 45 -127t121 -48q59 0 114 28t93 76l26 -18q-42 -54 -105 -86t-130 -32q-93 0 -145 57.5t-52 148.5q0 124 83.5 219
t201.5 95q83 0 135.5 -50.5t52.5 -143.5q0 -46 -11 -79zM336 478q-86 0 -153 -60.5t-89 -150.5h395q5 21 5 49q0 72 -41.5 117t-116.5 45z" />
    <glyph glyph-name="Eogonek" unicode="&#x118;" horiz-adv-x="585" 
d="M592 646h-383l-51 -289h280l-6 -34h-280l-51 -289h383l-6 -34q-62 -56 -69 -95q-6 -34 20 -41.5t78 17.5l-4 -36q-61 -25 -97.5 -6t-27.5 68q8 50 66 93h-384l120 680h418z" />
    <glyph glyph-name="eogonek" unicode="&#x119;" horiz-adv-x="572" 
d="M515 237h-426q-3 -19 -3 -40q0 -79 45 -127t121 -48q59 0 114 28t93 76l26 -18q-37 -48 -92 -79q-47 -46 -53 -80t20 -41.5t78 17.5l-4 -36q-61 -25 -97.5 -6t-27.5 68q4 28 23 51q-40 -12 -82 -12q-93 0 -145 57.5t-52 148.5q0 124 83.5 219t201.5 95q83 0 135.5 -50.5
t52.5 -143.5q0 -46 -11 -79zM336 478q-86 0 -153 -60.5t-89 -150.5h395q5 21 5 49q0 72 -41.5 117t-116.5 45z" />
    <glyph glyph-name="Ecaron" unicode="&#x11a;" horiz-adv-x="585" 
d="M417 740h-40l-91 121l23 20l94 -103l129 103l17 -20zM592 646h-383l-51 -289h280l-6 -34h-280l-51 -289h383l-6 -34h-418l120 680h418z" />
    <glyph glyph-name="ecaron" unicode="&#x11b;" horiz-adv-x="572" 
d="M369 560h-40l-91 121l23 20l94 -103l129 103l17 -20zM515 237h-426q-3 -19 -3 -40q0 -79 45 -127t121 -48q59 0 114 28t93 76l26 -18q-42 -54 -105 -86t-130 -32q-93 0 -145 57.5t-52 148.5q0 124 83.5 219t201.5 95q83 0 135.5 -50.5t52.5 -143.5q0 -46 -11 -79z
M336 478q-86 0 -153 -60.5t-89 -150.5h395q5 21 5 49q0 72 -41.5 117t-116.5 45z" />
    <glyph glyph-name="Gbreve" unicode="&#x11e;" horiz-adv-x="844" 
d="M516 736q-64 0 -100 41.5t-25 103.5l31 -2q-8 -47 19 -78t77 -31q51 0 90.5 32t48.5 79l31 -2q-10 -61 -59.5 -102t-112.5 -41zM426 295l6 34h339l-3 -17q-26 -145 -135 -236.5t-249 -91.5q-134 0 -217.5 83t-83.5 209q0 109 59 206.5t157 155.5t207 58q94 0 165.5 -44
t105.5 -120l-32 -17q-31 69 -94.5 107t-145.5 38q-153 0 -270 -114.5t-117 -266.5q0 -114 74.5 -186.5t193.5 -72.5q124 0 220 77t124 198h-304z" />
    <glyph glyph-name="gbreve" unicode="&#x11f;" horiz-adv-x="614" 
d="M366 556q-64 0 -100 41.5t-25 103.5l31 -2q-8 -47 19 -78t77 -31q51 0 90.5 32t48.5 79l31 -2q-10 -61 -59.5 -102t-112.5 -41zM533 500h32l-83 -469q-19 -109 -99.5 -177.5t-179.5 -68.5q-58 0 -108.5 25t-82.5 68l26 19q27 -38 71.5 -59t94.5 -21q88 0 159 60t88 156
l12 70q-37 -53 -93.5 -83t-118.5 -30q-88 0 -141.5 57.5t-53.5 149.5q0 126 83.5 220.5t197.5 94.5q67 0 113.5 -35.5t61.5 -96.5zM257 22q86 0 151.5 62t84.5 162l2 9q4 32 4 46q0 80 -47.5 129.5t-118.5 49.5q-99 0 -172 -86.5t-73 -195.5q0 -80 46.5 -128t122.5 -48z" />
    <glyph glyph-name="Gdotaccent" unicode="&#x120;" horiz-adv-x="844" 
d="M520 766q-13 0 -19.5 8.5t-4.5 21.5q2 11 10.5 18.5t19.5 7.5q12 0 19.5 -9t5.5 -21q-2 -11 -11 -18.5t-20 -7.5zM426 295l6 34h339l-3 -17q-26 -145 -135 -236.5t-249 -91.5q-134 0 -217.5 83t-83.5 209q0 109 59 206.5t157 155.5t207 58q94 0 165.5 -44t105.5 -120
l-32 -17q-31 69 -94.5 107t-145.5 38q-153 0 -270 -114.5t-117 -266.5q0 -114 74.5 -186.5t193.5 -72.5q124 0 220 77t124 198h-304z" />
    <glyph glyph-name="gdotaccent" unicode="&#x121;" horiz-adv-x="614" 
d="M370 586q-13 0 -19.5 8.5t-4.5 21.5q2 11 10.5 18.5t19.5 7.5q12 0 19.5 -9t5.5 -21q-2 -11 -11 -18.5t-20 -7.5zM533 500h32l-83 -469q-19 -109 -99.5 -177.5t-179.5 -68.5q-58 0 -108.5 25t-82.5 68l26 19q27 -38 71.5 -59t94.5 -21q88 0 159 60t88 156l12 70
q-37 -53 -93.5 -83t-118.5 -30q-88 0 -141.5 57.5t-53.5 149.5q0 126 83.5 220.5t197.5 94.5q67 0 113.5 -35.5t61.5 -96.5zM257 22q86 0 151.5 62t84.5 162l2 9q4 32 4 46q0 80 -47.5 129.5t-118.5 49.5q-99 0 -172 -86.5t-73 -195.5q0 -80 46.5 -128t122.5 -48z" />
    <glyph glyph-name="Gcommaaccent" unicode="&#x122;" horiz-adv-x="844" 
d="M426 295l6 34h339l-3 -17q-26 -145 -135 -236.5t-249 -91.5q-134 0 -217.5 83t-83.5 209q0 109 59 206.5t157 155.5t207 58q94 0 165.5 -44t105.5 -120l-32 -17q-31 69 -94.5 107t-145.5 38q-153 0 -270 -114.5t-117 -266.5q0 -114 74.5 -186.5t193.5 -72.5q124 0 220 77
t124 198h-304zM264 -279l91 219h44l-102 -219h-33z" />
    <glyph glyph-name="gcommaaccent" unicode="&#x123;" horiz-adv-x="614" 
d="M470 764l-91 -219h-43l101 219h33zM533 500h32l-83 -469q-19 -109 -99.5 -177.5t-179.5 -68.5q-58 0 -108.5 25t-82.5 68l26 19q27 -38 71.5 -59t94.5 -21q88 0 159 60t88 156l12 70q-37 -53 -93.5 -83t-118.5 -30q-88 0 -141.5 57.5t-53.5 149.5q0 126 83.5 220.5
t197.5 94.5q67 0 113.5 -35.5t61.5 -96.5zM257 22q86 0 151.5 62t84.5 162l2 9q4 32 4 46q0 80 -47.5 129.5t-118.5 49.5q-99 0 -172 -86.5t-73 -195.5q0 -80 46.5 -128t122.5 -48z" />
    <glyph glyph-name="Hbar" unicode="&#x126;" horiz-adv-x="773" 
d="M796 564l-6 -34h-71l-94 -530h-37l57 323h-492l-57 -323h-36l94 530h-74l6 34h74l20 116h36l-20 -116h492l20 116h37l-20 -116h71zM651 357l31 173h-492l-31 -173h492z" />
    <glyph glyph-name="hbar" unicode="&#x127;" 
d="M347 511q84 0 132.5 -60t34.5 -148l-53 -303h-32l54 305q14 69 -28 121.5t-113 52.5q-72 0 -132.5 -50.5t-74.5 -122.5l-54 -306h-32l105 595h-110l6 32h109l13 73h32l-13 -73h259l-6 -32h-258l-34 -193q32 46 85 77.5t110 31.5z" />
    <glyph glyph-name="Imacron" unicode="&#x12a;" horiz-adv-x="257" 
d="M51 806h350l-5 -32h-350zM187 680h35l-120 -680h-35z" />
    <glyph glyph-name="imacron" unicode="&#x12b;" horiz-adv-x="221" 
d="M1 626h350l-5 -32h-350zM138 500h32l-88 -500h-32z" />
    <glyph glyph-name="Iogonek" unicode="&#x12e;" horiz-adv-x="257" 
d="M33 -95q-6 -34 20 -41.5t78 17.5l-4 -36q-61 -25 -97.5 -6t-27.5 68q8 50 66 93h-1l120 680h35l-120 -680q-62 -56 -69 -95z" />
    <glyph glyph-name="iogonek" unicode="&#x12f;" horiz-adv-x="221" 
d="M178 642q12 0 19.5 -9t5.5 -21q-2 -11 -11 -18.5t-20 -7.5q-13 0 -19.5 8.5t-4.5 21.5q2 11 10.5 18.5t19.5 7.5zM138 500h32l-88 -500h2q-59 -56 -65 -95q-6 -34 18.5 -41.5t73.5 17.5l-4 -36q-57 -25 -91.5 -6t-25.5 68q7 49 62 93h-2z" />
    <glyph glyph-name="Idotaccent" unicode="&#x130;" horiz-adv-x="257" 
d="M222 766q-13 0 -19.5 8.5t-4.5 21.5q2 11 10.5 18.5t19.5 7.5q12 0 19.5 -9t5.5 -21q-2 -11 -11 -18.5t-20 -7.5zM187 680h35l-120 -680h-35z" />
    <glyph glyph-name="dotlessi" unicode="&#x131;" horiz-adv-x="221" 
d="M138 500h32l-88 -500h-32z" />
    <glyph glyph-name="Kcommaaccent" unicode="&#x136;" horiz-adv-x="643" 
d="M674 680l-340 -284l221 -396h-43l-208 371l-168 -141l-41 -230h-35l120 680h35l-71 -402l479 402h51zM141 -279l91 219h44l-102 -219h-33z" />
    <glyph glyph-name="kcommaaccent" unicode="&#x137;" horiz-adv-x="523" 
d="M532 500l-251 -210l162 -290h-39l-150 268l-148 -123l-25 -145h-32l123 700h32l-90 -512l373 312h45zM93 -279l91 219h44l-102 -219h-33z" />
    <glyph glyph-name="Lacute" unicode="&#x139;" horiz-adv-x="560" 
d="M333 855l-108 -115h-33l103 135zM101 34h383l-6 -34h-418l120 680h35z" />
    <glyph glyph-name="lacute" unicode="&#x13a;" horiz-adv-x="230" 
d="M290 895l38 -20l-108 -115h-33zM178 700h32l-123 -700h-32z" />
    <glyph glyph-name="Lcommaaccent" unicode="&#x13b;" horiz-adv-x="560" 
d="M101 34h383l-6 -34h-418l120 680h35zM149 -279l91 219h44l-102 -219h-33z" />
    <glyph glyph-name="lcommaaccent" unicode="&#x13c;" horiz-adv-x="230" 
d="M178 700h32l-123 -700h-32zM53 -60h44l-102 -219h-33z" />
    <glyph glyph-name="Lcaron" unicode="&#x13d;" horiz-adv-x="560" 
d="M580 700l-114 -236h-30l103 236h41zM215 680l-114 -646h383l-6 -34h-418l120 680h35z" />
    <glyph glyph-name="lcaron" unicode="&#x13e;" horiz-adv-x="338" 
d="M178 700h32l-123 -700h-32zM356 700h43l-120 -247h-32z" />
    <glyph glyph-name="Lslash" unicode="&#x141;" horiz-adv-x="560" 
d="M101 34h383l-6 -34h-418l58 329l-124 -64l-10 28l140 72l56 315h35l-52 -295l161 83l10 -28l-177 -91z" />
    <glyph glyph-name="lslash" unicode="&#x142;" horiz-adv-x="230" 
d="M252 393l-105 -54l-60 -339h-32l56 321l-77 -40l-10 28l94 48l60 343h32l-57 -325l89 46z" />
    <glyph glyph-name="Nacute" unicode="&#x143;" horiz-adv-x="773" 
d="M597 855l-108 -115h-33l103 135zM710 680h35l-120 -680h-32l-389 619l-109 -619h-35l120 680h30l390 -622z" />
    <glyph glyph-name="nacute" unicode="&#x144;" 
d="M478 675l-108 -115h-33l103 135zM347 511q84 0 132.5 -60t34.5 -148l-53 -303h-32l54 305q14 69 -28 121.5t-113 52.5q-69 0 -128.5 -47.5t-76.5 -115.5l-56 -316h-32l88 500h32l-17 -98q32 46 85 77.5t110 31.5z" />
    <glyph glyph-name="Ncommaaccent" unicode="&#x145;" horiz-adv-x="773" 
d="M710 680h35l-120 -680h-32l-389 619l-109 -619h-35l120 680h30l390 -622zM234 -279l91 219h44l-102 -219h-33z" />
    <glyph glyph-name="ncommaaccent" unicode="&#x146;" 
d="M347 511q84 0 132.5 -60t34.5 -148l-53 -303h-32l54 305q14 69 -28 121.5t-113 52.5q-69 0 -128.5 -47.5t-76.5 -115.5l-56 -316h-32l88 500h32l-17 -98q32 46 85 77.5t110 31.5zM147 -279l91 219h44l-102 -219h-33z" />
    <glyph glyph-name="Ncaron" unicode="&#x147;" horiz-adv-x="773" 
d="M493 740h-40l-91 121l23 20l94 -103l129 103l17 -20zM710 680h35l-120 -680h-32l-389 619l-109 -619h-35l120 680h30l390 -622z" />
    <glyph glyph-name="ncaron" unicode="&#x148;" 
d="M374 560h-40l-91 121l23 20l94 -103l129 103l17 -20zM347 511q84 0 132.5 -60t34.5 -148l-53 -303h-32l54 305q14 69 -28 121.5t-113 52.5q-69 0 -128.5 -47.5t-76.5 -115.5l-56 -316h-32l88 500h32l-17 -98q32 46 85 77.5t110 31.5z" />
    <glyph glyph-name="Eng" unicode="&#x14a;" horiz-adv-x="773" 
d="M745 680l-120 -680l-12 -65q-23 -135 -158 -135h-51l5 32h49q105 0 124 105l11 63l-389 619l-109 -619h-35l120 680h30l390 -622l110 622h35z" />
    <glyph glyph-name="eng" unicode="&#x14b;" 
d="M347 511q81 0 132 -59.5t35 -148.5l-24 -135h1l-24 -134l-6 -34l-12 -66q-23 -135 -158 -135h-52l6 32h49q105 0 124 105l11 64l54 305q13 73 -29 123.5t-112 50.5t-130 -48t-76 -118l-55 -313h-32l88 500h32l-17 -98q32 46 85 77.5t110 31.5z" />
    <glyph glyph-name="Omacron" unicode="&#x14c;" horiz-adv-x="857" 
d="M352 806h350l-5 -32h-350zM385 -16q-133 0 -217.5 83.5t-84.5 211.5q0 107 59 203.5t157 155t207 58.5q131 0 215 -83.5t84 -209.5q0 -108 -58.5 -205.5t-156 -155.5t-205.5 -58zM387 18q152 0 267 116t115 268q0 113 -73.5 186t-190.5 73q-101 0 -190.5 -53
t-142.5 -141.5t-53 -186.5q0 -114 74.5 -188t193.5 -74z" />
    <glyph glyph-name="omacron" unicode="&#x14d;" horiz-adv-x="634" 
d="M208 626h350l-5 -32h-350zM274 -10q-97 0 -159 61.5t-62 155.5q0 119 94.5 211t214.5 92q96 0 157.5 -61.5t61.5 -155.5q0 -118 -94 -210.5t-213 -92.5zM276 22q108 0 190 83t82 187q0 80 -52.5 133t-135.5 53q-109 0 -191.5 -82.5t-82.5 -188.5q0 -80 53.5 -132.5
t136.5 -52.5z" />
    <glyph glyph-name="Ohungarumlaut" unicode="&#x150;" horiz-adv-x="857" 
d="M501 875l38 -20l-108 -115h-33zM690 875l38 -20l-108 -115h-33zM385 -16q-133 0 -217.5 83.5t-84.5 211.5q0 107 59 203.5t157 155t207 58.5q131 0 215 -83.5t84 -209.5q0 -108 -58.5 -205.5t-156 -155.5t-205.5 -58zM387 18q152 0 267 116t115 268q0 113 -73.5 186
t-190.5 73q-101 0 -190.5 -53t-142.5 -141.5t-53 -186.5q0 -114 74.5 -188t193.5 -74z" />
    <glyph glyph-name="ohungarumlaut" unicode="&#x151;" horiz-adv-x="634" 
d="M357 695l38 -20l-108 -115h-33zM546 695l38 -20l-108 -115h-33zM274 -10q-97 0 -159 61.5t-62 155.5q0 119 94.5 211t214.5 92q96 0 157.5 -61.5t61.5 -155.5q0 -118 -94 -210.5t-213 -92.5zM276 22q108 0 190 83t82 187q0 80 -52.5 133t-135.5 53q-109 0 -191.5 -82.5
t-82.5 -188.5q0 -80 53.5 -132.5t136.5 -52.5z" />
    <glyph glyph-name="OE" unicode="&#x152;" horiz-adv-x="1240" 
d="M1247 646h-383l-51 -289h280l-6 -34h-280l-51 -289h383l-6 -34h-418l36 207q-56 -99 -155 -161t-211 -62q-133 0 -217.5 83.5t-84.5 211.5q0 107 59 203.5t157 155t207 58.5q112 0 191.5 -62.5t100.5 -163.5l37 210h418zM387 18q152 0 267 116t115 268q0 113 -73.5 186
t-190.5 73q-101 0 -190.5 -53t-142.5 -141.5t-53 -186.5q0 -114 74.5 -188t193.5 -74z" />
    <glyph glyph-name="oe" unicode="&#x153;" horiz-adv-x="1054" 
d="M575 237q-4 -16 -7 -24v-16q0 -79 45 -127t121 -48q59 0 114 28t93 76l26 -18q-42 -54 -105 -86t-130 -32q-79 0 -129.5 43.5t-63.5 114.5q-42 -70 -114 -114t-151 -44q-97 0 -159 61.5t-62 155.5q0 119 94.5 211t214.5 92q80 0 137.5 -44t74.5 -115q38 71 103.5 115
t142.5 44q83 0 135.5 -50.5t52.5 -143.5q0 -46 -11 -79h-422zM276 22q87 0 160 56.5t100 138.5q2 36 12 69v6q0 80 -52.5 133t-135.5 53q-109 0 -191.5 -82.5t-82.5 -188.5q0 -80 53.5 -132.5t136.5 -52.5zM818 478q-82 0 -146.5 -55.5t-90.5 -139.5q0 -3 -0.5 -8t-0.5 -8
h391q5 21 5 49q0 72 -41.5 117t-116.5 45z" />
    <glyph glyph-name="Racute" unicode="&#x154;" horiz-adv-x="672" 
d="M515 855l-108 -115h-33l103 135zM640 526q0 -86 -67.5 -148.5t-160.5 -67.5l148 -310h-41l-149 310h-220l-55 -310h-35l120 680h284q79 0 127.5 -43t48.5 -111zM405 345q81 0 140 53t59 126q0 55 -39 88.5t-105 33.5h-251l-53 -301h249z" />
    <glyph glyph-name="racute" unicode="&#x155;" horiz-adv-x="330" 
d="M347 675l-108 -115h-33l103 135zM152 403q32 47 85.5 77.5t115.5 30.5l-4 -32q-78 0 -138 -48.5t-76 -121.5l-54 -309h-32l88 500h32z" />
    <glyph glyph-name="Rcommaaccent" unicode="&#x156;" horiz-adv-x="672" 
d="M640 526q0 -86 -67.5 -148.5t-160.5 -67.5l148 -310h-41l-149 310h-220l-55 -310h-35l120 680h284q79 0 127.5 -43t48.5 -111zM405 345q81 0 140 53t59 126q0 55 -39 88.5t-105 33.5h-251l-53 -301h249zM152 -279l91 219h44l-102 -219h-33z" />
    <glyph glyph-name="rcommaaccent" unicode="&#x157;" horiz-adv-x="330" 
d="M152 403q32 47 85.5 77.5t115.5 30.5l-4 -32q-78 0 -138 -48.5t-76 -121.5l-54 -309h-32l88 500h32zM-44 -279l91 219h44l-102 -219h-33z" />
    <glyph glyph-name="Rcaron" unicode="&#x158;" horiz-adv-x="672" 
d="M411 740h-40l-91 121l23 20l94 -103l129 103l17 -20zM640 526q0 -86 -67.5 -148.5t-160.5 -67.5l148 -310h-41l-149 310h-220l-55 -310h-35l120 680h284q79 0 127.5 -43t48.5 -111zM405 345q81 0 140 53t59 126q0 55 -39 88.5t-105 33.5h-251l-53 -301h249z" />
    <glyph glyph-name="rcaron" unicode="&#x159;" horiz-adv-x="330" 
d="M243 560h-40l-91 121l23 20l94 -103l129 103l17 -20zM152 403q32 47 85.5 77.5t115.5 30.5l-4 -32q-78 0 -138 -48.5t-76 -121.5l-54 -309h-32l88 500h32z" />
    <glyph glyph-name="Sacute" unicode="&#x15a;" horiz-adv-x="606" 
d="M484 885l38 -20l-108 -115h-33zM257 -16q-94 0 -154 45.5t-62 118.5l35 7q1 -59 51.5 -98t132.5 -39q94 0 162.5 51t68.5 126q0 24 -11.5 43.5t-25.5 31.5t-42 23.5t-45 17t-49 14.5q-28 7 -48 13t-48.5 19.5t-46.5 29.5t-31.5 41t-13.5 56q0 91 74.5 151.5t176.5 60.5
q89 0 144.5 -45t57.5 -119l-36 -8q-2 59 -46 98t-121 39q-86 0 -150 -49.5t-64 -122.5q0 -30 14 -53t42 -38t46 -22t50 -16q35 -9 58 -16t54.5 -21t50.5 -29.5t32.5 -40.5t13.5 -55q0 -92 -81 -153t-189 -61z" />
    <glyph glyph-name="sacute" unicode="&#x15b;" horiz-adv-x="484" 
d="M383 695l38 -20l-108 -115h-33zM401 143q0 -69 -63 -112.5t-143 -43.5q-75 0 -122 39t-49 97l32 8q1 -51 40.5 -81.5t99.5 -30.5q66 0 119 34.5t53 86.5q0 14 -5 26t-15.5 21t-20 15.5t-25.5 12.5t-24.5 9t-24.5 7t-19 5q-29 7 -50 14.5t-45.5 21t-38 35t-13.5 48.5
q0 69 61.5 112.5t135.5 43.5q67 0 109.5 -38.5t44.5 -97.5l-32 -7q-1 49 -35 80t-88 31q-63 0 -113.5 -34.5t-50.5 -85.5q0 -31 28 -53.5t94 -39.5q28 -6 47 -12t49.5 -20t47 -37.5t16.5 -53.5z" />
    <glyph glyph-name="Scedilla" unicode="&#x15e;" horiz-adv-x="606" 
d="M380 661q-86 0 -150 -49.5t-64 -122.5q0 -30 14 -53t42 -38t46 -22t50 -16q35 -9 58 -16t54.5 -21t50.5 -29.5t32.5 -40.5t13.5 -55q0 -92 -80.5 -153t-188.5 -61l-84 -110l-38 20l86 92q-81 8 -130.5 52t-50.5 110l35 7q1 -59 51.5 -98t132.5 -39q94 0 162.5 51
t68.5 126q0 24 -11.5 43.5t-25.5 31.5t-42 23.5t-45 17t-49 14.5q-28 7 -48 13t-48.5 19.5t-46.5 29.5t-31.5 41t-13.5 56q0 91 74.5 151.5t176.5 60.5q89 0 144.5 -45t57.5 -119l-36 -8q-2 59 -46 98t-121 39z" />
    <glyph glyph-name="scedilla" unicode="&#x15f;" horiz-adv-x="484" 
d="M283 479q-63 0 -113.5 -34.5t-50.5 -85.5q0 -31 28 -53.5t94 -39.5q28 -6 47 -12t49.5 -20t47 -37.5t16.5 -53.5q0 -66 -58.5 -109t-135.5 -47l-86 -113l-38 20l88 94q-65 7 -105 44.5t-42 90.5l32 8q1 -51 40.5 -81.5t99.5 -30.5q66 0 119 34.5t53 86.5q0 14 -5 26
t-15.5 21t-20 15.5t-25.5 12.5t-24.5 9t-24.5 7t-19 5q-29 7 -50 14.5t-45.5 21t-38 35t-13.5 48.5q0 69 61.5 112.5t135.5 43.5q67 0 109.5 -38.5t44.5 -97.5l-32 -7q-1 49 -35 80t-88 31z" />
    <glyph glyph-name="Scaron" unicode="&#x160;" horiz-adv-x="606" 
d="M418 750h-40l-91 121l23 20l94 -103l129 103l17 -20zM380 661q-86 0 -150 -49.5t-64 -122.5q0 -30 14 -53t42 -38t46 -22t50 -16q35 -9 58 -16t54.5 -21t50.5 -29.5t32.5 -40.5t13.5 -55q0 -92 -81 -153t-189 -61q-94 0 -154 45.5t-62 118.5l35 7q1 -59 51.5 -98
t132.5 -39q94 0 162.5 51t68.5 126q0 24 -11.5 43.5t-25.5 31.5t-42 23.5t-45 17t-49 14.5q-28 7 -48 13t-48.5 19.5t-46.5 29.5t-31.5 41t-13.5 56q0 91 74.5 151.5t176.5 60.5q89 0 144.5 -45t57.5 -119l-36 -8q-2 59 -46 98t-121 39z" />
    <glyph glyph-name="scaron" unicode="&#x161;" horiz-adv-x="484" 
d="M317 560h-40l-91 121l23 20l94 -103l129 103l17 -20zM284 511q67 0 109.5 -38.5t44.5 -97.5l-32 -7q-1 49 -35 80t-88 31q-63 0 -113.5 -34.5t-50.5 -85.5q0 -31 28 -53.5t94 -39.5q28 -6 47 -12t49.5 -20t47 -37.5t16.5 -53.5q0 -69 -63 -112.5t-143 -43.5
q-75 0 -122 39t-49 97l32 8q1 -51 40.5 -81.5t99.5 -30.5q66 0 119 34.5t53 86.5q0 14 -5 26t-15.5 21t-20 15.5t-25.5 12.5t-24.5 9t-24.5 7t-19 5q-29 7 -50 14.5t-45.5 21t-38 35t-13.5 48.5q0 69 61.5 112.5t135.5 43.5z" />
    <glyph glyph-name="uni0162" unicode="&#x162;" 
d="M627 680l-6 -34h-239l-114 -646h-1l-103 -135l-38 20l108 115h-1l114 646h-239l6 34h513z" />
    <glyph glyph-name="uni0163" unicode="&#x163;" horiz-adv-x="382" 
d="M217 468l-58 -333q-3 -18 -3 -33q0 -37 21 -53.5t66 -16.5h52l-6 -32h-49q-16 0 -24 1l-97 -127l-38 20l106 113q-63 22 -63 94q0 17 3 36l59 331h-105l6 32h104l27 151l33 9l-28 -160h154l-6 -32h-154z" />
    <glyph glyph-name="Tcaron" unicode="&#x164;" 
d="M401 740h-40l-91 121l23 20l94 -103l129 103l17 -20zM627 680l-6 -34h-239l-114 -646h-35l114 646h-239l6 34h513z" />
    <glyph glyph-name="tcaron" unicode="&#x165;" horiz-adv-x="382" 
d="M415 760l-107 -199h-28l96 199h39zM251 660l-28 -160h154l-6 -32h-154l-58 -333q-3 -18 -3 -33q0 -37 21 -53.5t66 -16.5h52l-6 -32h-49q-116 0 -116 101q0 17 3 36l59 331h-105l6 32h104l27 151z" />
    <glyph glyph-name="Tbar" unicode="&#x166;" 
d="M621 646h-239l-47 -264h183l-6 -32h-182l-62 -350h-35l62 350h-183l6 32h182l47 264h-239l6 34h513z" />
    <glyph glyph-name="tbar" unicode="&#x167;" horiz-adv-x="382" 
d="M371 468h-154l-30 -172h152l-4 -32h-153l-23 -129q-3 -18 -3 -33q0 -37 21 -53.5t66 -16.5h52l-6 -32h-49q-116 0 -116 101q0 17 3 36l22 127h-100l4 32h102l31 172h-105l6 32h104l27 151l33 9l-28 -160h154z" />
    <glyph glyph-name="Umacron" unicode="&#x16a;" horiz-adv-x="761" 
d="M304 806h350l-5 -32h-350zM709 680h35l-68 -383q-25 -142 -118 -227.5t-222 -85.5q-134 0 -197 89t-37 226l67 381h35l-68 -383q-21 -127 32.5 -203t169.5 -76q115 0 198.5 77t105.5 204z" />
    <glyph glyph-name="umacron" unicode="&#x16b;" 
d="M524 626l-5 -32h-350l5 32h350zM507 500h32l-88 -500h-32l17 98q-32 -46 -85 -77.5t-110 -31.5q-84 0 -132.5 60t-34.5 148l53 303h32l-54 -305q-14 -69 28 -121.5t113 -52.5q69 0 129.5 48t76.5 117z" />
    <glyph glyph-name="Uring" unicode="&#x16e;" horiz-adv-x="761" 
d="M424 678q-40 0 -63 28t-16 67q7 38 38.5 64.5t69.5 26.5t61.5 -28t16.5 -67q-7 -38 -38.5 -64.5t-68.5 -26.5zM429 710q25 0 46 18.5t25 44.5q3 24 -12.5 41.5t-39.5 17.5q-26 0 -47.5 -18.5t-24.5 -44.5q-3 -24 12.5 -41.5t40.5 -17.5zM709 680h35l-68 -383
q-25 -142 -118 -227.5t-222 -85.5q-134 0 -197 89t-37 226l67 381h35l-68 -383q-21 -127 32.5 -203t169.5 -76q115 0 198.5 77t105.5 204z" />
    <glyph glyph-name="uring" unicode="&#x16f;" 
d="M328 522q-40 0 -63 28t-16 67q7 38 38.5 64.5t69.5 26.5t61.5 -28t16.5 -67q-7 -38 -38.5 -64.5t-68.5 -26.5zM280 613q-3 -24 12.5 -41.5t40.5 -17.5t46 18.5t25 44.5q3 24 -12.5 41.5t-39.5 17.5q-26 0 -47.5 -18.5t-24.5 -44.5zM507 500h32l-88 -500h-32l17 98
q-32 -46 -85 -77.5t-110 -31.5q-84 0 -132.5 60t-34.5 148l53 303h32l-54 -305q-14 -69 28 -121.5t113 -52.5q69 0 129.5 48t76.5 117z" />
    <glyph glyph-name="Uhungarumlaut" unicode="&#x170;" horiz-adv-x="761" 
d="M453 875l38 -20l-108 -115h-33zM642 875l38 -20l-108 -115h-33zM709 680h35l-68 -383q-25 -142 -118 -227.5t-222 -85.5q-134 0 -197 89t-37 226l67 381h35l-68 -383q-21 -127 32.5 -203t169.5 -76q115 0 198.5 77t105.5 204z" />
    <glyph glyph-name="uhungarumlaut" unicode="&#x171;" 
d="M361 675l-108 -115h-33l103 135zM550 675l-108 -115h-33l103 135zM452 186l55 314h32l-88 -500h-32l17 98q-32 -46 -85 -77.5t-110 -31.5q-84 0 -132.5 60t-34.5 148l53 303h32l-54 -305q-14 -69 28 -121.5t113 -52.5q69 0 129.5 48t76.5 117z" />
    <glyph glyph-name="Uogonek" unicode="&#x172;" horiz-adv-x="761" 
d="M709 680h35l-68 -383q-18 -102 -73 -176.5t-136 -109.5q-59 -55 -66 -93q-6 -34 20 -41.5t78 17.5l-4 -36q-61 -25 -97.5 -6t-27.5 68q5 36 41 72q-38 -8 -75 -8q-134 0 -197 89t-37 226l67 381h35l-68 -383q-21 -127 32.5 -203t169.5 -76q115 0 198.5 77t105.5 204z" />
    <glyph glyph-name="uogonek" unicode="&#x173;" 
d="M386 -95q-5 -34 19 -41.5t73 17.5l-3 -36q-58 -25 -92 -6t-26 68q8 51 62 93l17 98q-32 -46 -85 -77.5t-110 -31.5q-84 0 -132.5 60t-34.5 148l53 303h32l-54 -305q-14 -69 28 -121.5t113 -52.5q69 0 129.5 48t76.5 117l55 314h32l-88 -500q-58 -56 -65 -95z" />
    <glyph glyph-name="Wcircumflex" unicode="&#x174;" horiz-adv-x="1072" 
d="M639 832l-130 -103l-17 20l133 121h40l90 -121l-23 -20zM1064 680h38l-351 -680h-40l-107 632l-330 -632h-40l-112 680h36l104 -631l329 631h40l107 -631z" />
    <glyph glyph-name="wcircumflex" unicode="&#x175;" horiz-adv-x="836" 
d="M489 652l-130 -103l-17 20l133 121h40l90 -121l-23 -20zM797 500h34l-258 -500h-40l-78 462l-240 -462h-40l-82 500h34l75 -460l240 460h40l78 -460z" />
    <glyph glyph-name="Ycircumflex" unicode="&#x176;" horiz-adv-x="623" 
d="M415 832l-130 -103l-17 20l133 121h40l90 -121l-23 -20zM673 680l-340 -404l-48 -276h-35l49 279l-197 401h41l179 -368l308 368h43z" />
    <glyph glyph-name="ycircumflex" unicode="&#x177;" horiz-adv-x="543" 
d="M348 652l-130 -103l-17 20l133 121h40l90 -121l-23 -20zM511 500h35l-430 -700h-36l142 231l-137 469h36l125 -431z" />
    <glyph glyph-name="Ydieresis" unicode="&#x178;" horiz-adv-x="623" 
d="M314 766q-13 0 -19.5 8.5t-4.5 21.5q2 11 10.5 18.5t19.5 7.5q12 0 19.5 -9t5.5 -21q-2 -11 -11 -18.5t-20 -7.5zM496 766q-13 0 -19.5 8.5t-4.5 21.5q2 11 10.5 18.5t19.5 7.5q12 0 19.5 -9t5.5 -21q-2 -11 -11 -18.5t-20 -7.5zM673 680l-340 -404l-48 -276h-35l49 279
l-197 401h41l179 -368l308 368h43z" />
    <glyph glyph-name="Zacute" unicode="&#x179;" horiz-adv-x="645" 
d="M510 855l-108 -115h-33l103 135zM639 680l-5 -27l-556 -619h458l-6 -34h-507l4 28l558 618h-448l6 34h496z" />
    <glyph glyph-name="zacute" unicode="&#x17a;" horiz-adv-x="474" 
d="M417 675l-108 -115h-33l103 135zM469 500l-4 -25l-413 -443h340l-6 -32h-385l4 26l412 442h-334l6 32h380z" />
    <glyph glyph-name="Zdotaccent" unicode="&#x17b;" horiz-adv-x="645" 
d="M393 766q-13 0 -19.5 8.5t-4.5 21.5q2 11 10.5 18.5t19.5 7.5q12 0 19.5 -9t5.5 -21q-2 -11 -11 -18.5t-20 -7.5zM639 680l-5 -27l-556 -619h458l-6 -34h-507l4 28l558 618h-448l6 34h496z" />
    <glyph glyph-name="zdotaccent" unicode="&#x17c;" horiz-adv-x="474" 
d="M300 586q-13 0 -19.5 8.5t-4.5 21.5q2 11 10.5 18.5t19.5 7.5q12 0 19.5 -9t5.5 -21q-2 -11 -11 -18.5t-20 -7.5zM469 500l-4 -25l-413 -443h340l-6 -32h-385l4 26l412 442h-334l6 32h380z" />
    <glyph glyph-name="Zcaron" unicode="&#x17d;" horiz-adv-x="645" 
d="M406 740h-40l-91 121l23 20l94 -103l129 103l17 -20zM639 680l-5 -27l-556 -619h458l-6 -34h-507l4 28l558 618h-448l6 34h496z" />
    <glyph glyph-name="zcaron" unicode="&#x17e;" horiz-adv-x="474" 
d="M313 560h-40l-91 121l23 20l94 -103l129 103l17 -20zM469 500l-4 -25l-413 -443h340l-6 -32h-385l4 26l412 442h-334l6 32h380z" />
    <glyph glyph-name="Scommaaccent" unicode="&#x218;" horiz-adv-x="606" 
d="M257 -16q-94 0 -154 45.5t-62 118.5l35 7q1 -59 51.5 -98t132.5 -39q94 0 162.5 51t68.5 126q0 24 -11.5 43.5t-25.5 31.5t-42 23.5t-45 17t-49 14.5q-28 7 -48 13t-48.5 19.5t-46.5 29.5t-31.5 41t-13.5 56q0 91 74.5 151.5t176.5 60.5q89 0 144.5 -45t57.5 -119l-36 -8
q-2 59 -46 98t-121 39q-86 0 -150 -49.5t-64 -122.5q0 -30 14 -53t42 -38t46 -22t50 -16q35 -9 58 -16t54.5 -21t50.5 -29.5t32.5 -40.5t13.5 -55q0 -92 -81 -153t-189 -61zM234 -60h44l-102 -219h-33z" />
    <glyph glyph-name="scommaaccent" unicode="&#x219;" horiz-adv-x="484" 
d="M401 143q0 -69 -63 -112.5t-143 -43.5q-75 0 -122 39t-49 97l32 8q1 -51 40.5 -81.5t99.5 -30.5q66 0 119 34.5t53 86.5q0 14 -5 26t-15.5 21t-20 15.5t-25.5 12.5t-24.5 9t-24.5 7t-19 5q-29 7 -50 14.5t-45.5 21t-38 35t-13.5 48.5q0 69 61.5 112.5t135.5 43.5
q67 0 109.5 -38.5t44.5 -97.5l-32 -7q-1 49 -35 80t-88 31q-63 0 -113.5 -34.5t-50.5 -85.5q0 -31 28 -53.5t94 -39.5q28 -6 47 -12t49.5 -20t47 -37.5t16.5 -53.5zM181 -60h44l-102 -219h-33z" />
    <glyph glyph-name="uni021A" unicode="&#x21a;" 
d="M627 680l-6 -34h-239l-114 -646h-35l114 646h-239l6 34h513zM133 -288l91 219h44l-102 -219h-33z" />
    <glyph glyph-name="uni021B" unicode="&#x21b;" horiz-adv-x="382" 
d="M217 468l-58 -333q-3 -18 -3 -33q0 -37 21 -53.5t66 -16.5h52l-6 -32h-49q-116 0 -116 101q0 17 3 36l59 331h-105l6 32h104l27 151l33 9l-28 -160h154l-6 -32h-154zM88 -279l91 219h44l-102 -219h-33z" />
    <glyph glyph-name="gravecomb" unicode="&#x300;" horiz-adv-x="0" 
d="M-253 695l55 -135h-31l-68 115z" />
    <glyph glyph-name="acutecomb" unicode="&#x301;" horiz-adv-x="0" 
d="M-158 695l38 -20l-108 -115h-33z" />
    <glyph glyph-name="uni0302" unicode="&#x302;" horiz-adv-x="0" 
d="M-112 569l-23 -20l-93 103l-130 -103l-17 20l133 121h40z" />
    <glyph glyph-name="tildecomb" unicode="&#x303;" horiz-adv-x="0" 
d="M-71 674l31 -2q-7 -44 -35.5 -72.5t-63.5 -28.5q-31 0 -74 37t-68 37q-23 0 -42 -19.5t-25 -49.5l-31 2q7 44 35.5 72.5t63.5 28.5q28 0 53 -18.5t47 -37t42 -18.5q23 0 42.5 19.5t24.5 49.5z" />
    <glyph glyph-name="uni0304" unicode="&#x304;" horiz-adv-x="0" 
d="M-414 626h350l-5 -32h-350z" />
    <glyph glyph-name="uni0306" unicode="&#x306;" horiz-adv-x="0" 
d="M-100 701l31 -2q-10 -61 -59.5 -102t-112.5 -41q-64 0 -100 41.5t-25 103.5l31 -2q-8 -47 19 -78t77 -31q51 0 90.5 32t48.5 79z" />
    <glyph glyph-name="uni0307" unicode="&#x307;" horiz-adv-x="0" 
d="M-211 586q-13 0 -19.5 8.5t-4.5 21.5q2 11 10.5 18.5t19.5 7.5q12 0 19.5 -9t5.5 -21q-2 -11 -11 -18.5t-20 -7.5z" />
    <glyph glyph-name="uni0308" unicode="&#x308;" horiz-adv-x="0" 
d="M-303 586q-13 0 -19.5 8.5t-4.5 21.5q2 11 10.5 18.5t19.5 7.5q12 0 19.5 -9t5.5 -21q-2 -11 -11 -18.5t-20 -7.5zM-121 586q-13 0 -19.5 8.5t-4.5 21.5q2 11 10.5 18.5t19.5 7.5q12 0 19.5 -9t5.5 -21q-2 -11 -11 -18.5t-20 -7.5z" />
    <glyph glyph-name="uni030A" unicode="&#x30a;" horiz-adv-x="0" 
d="M-222 522q-40 0 -63 28t-16 67q7 38 38.5 64.5t69.5 26.5t61.5 -28t16.5 -67q-7 -38 -38.5 -64.5t-68.5 -26.5zM-217 554q25 0 46 18.5t25 44.5q3 24 -12.5 41.5t-39.5 17.5q-26 0 -47.5 -18.5t-24.5 -44.5q-3 -24 12.5 -41.5t40.5 -17.5z" />
    <glyph glyph-name="uni030B" unicode="&#x30b;" horiz-adv-x="0" 
d="M-342 695l38 -20l-108 -115h-33zM-153 695l38 -20l-108 -115h-33z" />
    <glyph glyph-name="uni030C" unicode="&#x30c;" horiz-adv-x="0" 
d="M-109 701l17 -20l-132 -121h-40l-91 121l23 20l94 -103z" />
    <glyph glyph-name="uni0312" unicode="&#x312;" horiz-adv-x="0" 
d="M-394 545h-43l101 219h33z" />
    <glyph glyph-name="uni0326" unicode="&#x326;" horiz-adv-x="0" 
d="M-526 -60h44l-102 -219h-33z" />
    <glyph glyph-name="uni0327" unicode="&#x327;" horiz-adv-x="0" 
d="M-427 -126l-38 20l108 115h33z" />
    <glyph glyph-name="uni0328" unicode="&#x328;" horiz-adv-x="0" 
d="M-185 -155q-61 -25 -97.5 -6t-27.5 68q8 50 66 93h34q-62 -56 -69 -95q-6 -34 20 -41.5t78 17.5z" />
    <glyph glyph-name="uni0335" unicode="&#x335;" horiz-adv-x="0" 
d="M-514 341h400l-6 -32h-400z" />
    <glyph glyph-name="uni0336" unicode="&#x336;" horiz-adv-x="0" 
d="M-641 330h710l-6 -34h-710z" />
    <glyph glyph-name="uni0337" unicode="&#x337;" horiz-adv-x="0" 
d="M-448 466h350l-6 -32h-350z" />
    <glyph glyph-name="uni0338" unicode="&#x338;" horiz-adv-x="0" 
d="M-236 720h32l-166 -940h-32z" />
    <glyph glyph-name="pi" unicode="&#x3c0;" horiz-adv-x="657" 
d="M667 478h-112l-58 -326q-17 -99 -8 -152h-31q-15 27 6 143l59 335h-273q-28 -115 -84.5 -267t-99.5 -211h-33q47 70 101 213.5t83 264.5q-110 0 -158 -17l-6 22q59 22 155 22h469z" />
    <glyph glyph-name="Wgrave" unicode="&#x1e80;" horiz-adv-x="1072" 
d="M640 740h-31l-68 115l44 20zM1064 680h38l-351 -680h-40l-107 632l-330 -632h-40l-112 680h36l104 -631l329 631h40l107 -631z" />
    <glyph glyph-name="wgrave" unicode="&#x1e81;" horiz-adv-x="836" 
d="M490 560h-31l-68 115l44 20zM797 500h34l-258 -500h-40l-78 462l-240 -462h-40l-82 500h34l75 -460l240 460h40l78 -460z" />
    <glyph glyph-name="Wacute" unicode="&#x1e82;" horiz-adv-x="1072" 
d="M747 855l-108 -115h-33l103 135zM1064 680h38l-351 -680h-40l-107 632l-330 -632h-40l-112 680h36l104 -631l329 631h40l107 -631z" />
    <glyph glyph-name="wacute" unicode="&#x1e83;" horiz-adv-x="836" 
d="M597 675l-108 -115h-33l103 135zM797 500h34l-258 -500h-40l-78 462l-240 -462h-40l-82 500h34l75 -460l240 460h40l78 -460z" />
    <glyph glyph-name="Wdieresis" unicode="&#x1e84;" horiz-adv-x="1072" 
d="M538 766q-13 0 -19.5 8.5t-4.5 21.5q2 11 10.5 18.5t19.5 7.5q12 0 19.5 -9t5.5 -21q-2 -11 -11 -18.5t-20 -7.5zM720 766q-13 0 -19.5 8.5t-4.5 21.5q2 11 10.5 18.5t19.5 7.5q12 0 19.5 -9t5.5 -21q-2 -11 -11 -18.5t-20 -7.5zM1064 680h38l-351 -680h-40l-107 632
l-330 -632h-40l-112 680h36l104 -631l329 631h40l107 -631z" />
    <glyph glyph-name="wdieresis" unicode="&#x1e85;" horiz-adv-x="836" 
d="M388 586q-13 0 -19.5 8.5t-4.5 21.5q2 11 10.5 18.5t19.5 7.5q12 0 19.5 -9t5.5 -21q-2 -11 -11 -18.5t-20 -7.5zM570 586q-13 0 -19.5 8.5t-4.5 21.5q2 11 10.5 18.5t19.5 7.5q12 0 19.5 -9t5.5 -21q-2 -11 -11 -18.5t-20 -7.5zM797 500h34l-258 -500h-40l-78 462
l-240 -462h-40l-82 500h34l75 -460l240 460h40l78 -460z" />
    <glyph glyph-name="Ygrave" unicode="&#x1ef2;" horiz-adv-x="623" 
d="M416 740h-31l-68 115l44 20zM673 680l-340 -404l-48 -276h-35l49 279l-197 401h41l179 -368l308 368h43z" />
    <glyph glyph-name="ygrave" unicode="&#x1ef3;" horiz-adv-x="543" 
d="M349 560h-31l-68 115l44 20zM511 500h35l-430 -700h-36l142 231l-137 469h36l125 -431z" />
    <glyph glyph-name="endash" unicode="&#x2013;" horiz-adv-x="542" 
d="M68 269l6 32h412l-6 -32h-412z" />
    <glyph glyph-name="emdash" unicode="&#x2014;" horiz-adv-x="842" 
d="M68 269l6 32h712l-6 -32h-712z" />
    <glyph glyph-name="quoteleft" unicode="&#x2018;" horiz-adv-x="281" 
d="M298 678q-52 0 -96.5 -41.5t-54.5 -96.5q-9 -57 28 -78q4 14 15.5 23t25.5 9q17 0 26.5 -11t6.5 -27q-3 -15 -15.5 -27t-35.5 -12q-42 0 -69 35t-17 91q12 67 66.5 117t122.5 50z" />
    <glyph glyph-name="quoteright" unicode="&#x2019;" horiz-adv-x="281" 
d="M194 710q42 0 69 -35t17 -91q-12 -67 -66.5 -117t-122.5 -50l3 32q52 0 96.5 41.5t53.5 96.5q11 57 -27 78q-4 -14 -15.5 -23t-25.5 -9q-17 0 -27 11t-7 27q3 15 16 27t36 12z" />
    <glyph glyph-name="quotesinglbase" unicode="&#x201a;" horiz-adv-x="200" 
d="M111 118h48l-153 -247h-35z" />
    <glyph glyph-name="quotedblleft" unicode="&#x201c;" horiz-adv-x="504" 
d="M112 543q12 67 66.5 117t122.5 50l-3 -32q-52 0 -96.5 -41.5t-54.5 -96.5q-9 -57 28 -78q4 14 15.5 23t25.5 9q17 0 26.5 -11t6.5 -27q-3 -15 -15.5 -27t-35.5 -12q-42 0 -69 35t-17 91zM521 678q-52 0 -96.5 -41.5t-54.5 -96.5q-10 -57 28 -78q4 14 15.5 23t25.5 9
q17 0 26.5 -11t6.5 -27q-3 -15 -15.5 -27t-35.5 -12q-42 0 -69 35t-17 91q12 67 66.5 117t122.5 50z" />
    <glyph glyph-name="quotedblright" unicode="&#x201d;" horiz-adv-x="533" 
d="M195 710q42 0 69 -35t17 -91q-12 -67 -66.5 -117t-122.5 -50l3 32q52 0 96.5 41.5t53.5 96.5q11 57 -27 78q-4 -14 -15.5 -23t-25.5 -9q-17 0 -27 11t-7 27q3 15 16 27t36 12zM448 710q42 0 69 -35t17 -91q-12 -67 -66.5 -117t-122.5 -50l3 32q52 0 96.5 41.5t53.5 96.5
q11 57 -27 78q-4 -14 -15.5 -23t-25.5 -9q-17 0 -27 11t-7 27q3 15 16 27t36 12z" />
    <glyph glyph-name="quotedblbase" unicode="&#x201e;" horiz-adv-x="383" 
d="M111 118h48l-153 -247h-35zM294 118h48l-153 -247h-35z" />
    <glyph glyph-name="dagger" unicode="&#x2020;" horiz-adv-x="599" 
d="M363 710h34l-47 -241l233 4l-5 -33l-233 4l-83 -495h-34l92 495l-234 -4l6 33l233 -4z" />
    <glyph glyph-name="daggerdbl" unicode="&#x2021;" horiz-adv-x="599" 
d="M363 710h34l-45 -229l235 4l-6 -34l-233 5l-45 -255l234 4l-6 -34l-233 5l-36 -227h-34l44 227l-233 -5l6 34l232 -4l45 255l-234 -5l6 34l232 -4z" />
    <glyph glyph-name="bullet" unicode="&#x2022;" horiz-adv-x="450" 
d="M263 470q60 0 95 -43t25 -103t-59.5 -102t-107.5 -42q-60 0 -96.5 43t-25.5 105q10 59 60.5 100.5t108.5 41.5z" />
    <glyph glyph-name="ellipsis" unicode="&#x2026;" horiz-adv-x="492" 
d="M40 60q15 0 24 -11t7 -26q-2 -13 -13.5 -23t-25.5 -10q-15 0 -24 11t-6 26q2 14 13.5 23.5t24.5 9.5zM210 60q15 0 24 -11t7 -26q-2 -13 -13.5 -23t-25.5 -10q-15 0 -24 11t-6 26q2 14 13.5 23.5t24.5 9.5zM380 60q15 0 24 -11t7 -26q-2 -13 -13.5 -23t-25.5 -10
q-15 0 -24 11t-6 26q2 14 13.5 23.5t24.5 9.5z" />
    <glyph glyph-name="perthousand" unicode="&#x2030;" horiz-adv-x="1332" 
d="M756 701l24 -18l-582 -704l-25 18zM317 696q75 0 119 -53t31 -128t-74.5 -127t-134.5 -52q-74 0 -119 53.5t-32 129.5q13 73 76 125t134 52zM316 664q-61 0 -114 -44t-63 -105q-11 -61 25.5 -104t95.5 -43q61 0 112.5 44t62.5 107q11 60 -24 102.5t-95 42.5zM697 344
q74 0 118.5 -53t31.5 -128t-74.5 -127t-134.5 -52q-74 0 -119 53.5t-32 129.5q13 73 75.5 125t134.5 52zM1107 344q74 0 118.5 -53t31.5 -128t-74.5 -127t-134.5 -52q-74 0 -119 53.5t-32 129.5q13 73 75.5 125t134.5 52zM696 312q-61 0 -114 -44t-63 -105
q-11 -61 25.5 -104t95.5 -43q61 0 112.5 44t62.5 107q11 60 -24 102.5t-95 42.5zM1106 312q-61 0 -114 -44t-63 -105q-11 -61 25.5 -104t95.5 -43q61 0 112.5 44t62.5 107q11 60 -24 102.5t-95 42.5z" />
    <glyph glyph-name="guilsinglleft" unicode="&#x2039;" horiz-adv-x="345" 
d="M308 465l-199 -185l133 -185h-43l-134 185l198 185h45z" />
    <glyph glyph-name="guilsinglright" unicode="&#x203a;" horiz-adv-x="345" 
d="M156 465l134 -185l-198 -185h-45l200 185l-134 185h43z" />
    <glyph glyph-name="fraction" unicode="&#x2044;" horiz-adv-x="150" 
d="M370 701l24 -18l-582 -704l-25 18z" />
    <glyph glyph-name="Euro" unicode="&#x20ac;" horiz-adv-x="620" 
d="M607 661q-137 0 -244 -64t-156 -167h302l-6 -32h-310q-9 -26 -16 -60q-5 -32 -5 -56h311l-6 -32h-303q12 -104 95 -168t222 -64l-4 -34q-153 0 -245.5 73.5t-103.5 192.5h-111l6 32h103q2 41 6 60q4 27 14 56h-103l6 32h110q52 119 170 192.5t272 73.5z" />
    <glyph glyph-name="afii61289" unicode="&#x2113;" horiz-adv-x="543" 
d="M468 133l21 -13q-96 -130 -226 -130q-88 0 -124.5 58t-22.5 133q0 6 2 12q-17 -10 -86 -57l-11 25q7 5 46 30.5t57 39.5l53 298q11 65 34.5 112t52.5 70.5t56 33.5t53 10q65 0 90.5 -45.5t13.5 -110.5q-16 -92 -99.5 -185.5t-227.5 -200.5l-4 -21q-15 -88 23.5 -133
t101.5 -45q59 0 112.5 36.5t84.5 82.5zM206 533l-50 -285q86 68 138 115.5t97 109.5t55 119q24 136 -83 136q-46 0 -92.5 -47.5t-64.5 -147.5z" />
    <glyph glyph-name="trademark" unicode="&#x2122;" horiz-adv-x="550" 
d="M224 700l-4 -25h-101l-49 -277h-26l49 277h-101l4 25h228zM603 700l-53 -302h-25l44 254l-166 -254h-28l-76 258l-45 -258h-26l53 302h31l82 -275l179 275h30z" />
    <glyph glyph-name="Omega" unicode="&#x2126;" horiz-adv-x="898" 
d="M227 26v2q-70 51 -105 134t-16 190q18 98 82 178t154.5 123.5t187.5 43.5q153 0 237.5 -103.5t60.5 -238.5q-19 -111 -88 -198t-150 -129v-2h198l-5 -26h-266l3 18q96 39 175 126.5t101 210.5q10 54 -2 109t-43.5 102t-89.5 76.5t-134 29.5q-148 0 -257 -95t-132 -225
q-21 -117 27.5 -205t129.5 -129l-4 -18h-265l5 26h196z" />
    <glyph glyph-name="estimated" unicode="&#x212e;" horiz-adv-x="936" 
d="M902 330h-640q-5 0 -5 -4v-194q0 -12 8 -22q102 -105 243 -105q152 0 254 118h57q-53 -64 -135.5 -101t-177.5 -37q-164 0 -279.5 104t-115.5 251t116 251.5t279 104.5q165 0 280.5 -104.5t115.5 -251.5v-10zM757 355v195q0 14 -9 23q-103 101 -240 101q-140 0 -242 -104
q-9 -9 -9 -24v-191q0 -6 5 -6h491q4 0 4 6z" />
    <glyph glyph-name="uni2150" unicode="&#x2150;" horiz-adv-x="899" 
d="M674 701l24 -18l-582 -704l-25 18zM167 240l65 376q-47 -45 -130 -45l3 28q60 0 97 26t44 65l30 -1l-79 -449h-30zM604 449h305l-4 -23l-297 -426h-34l293 420h-268z" />
    <glyph glyph-name="uni2151" unicode="&#x2151;" horiz-adv-x="857" 
d="M674 701l24 -18l-582 -704l-25 18zM167 240l65 376q-47 -45 -130 -45l3 28q60 0 97 26t44 65l30 -1l-79 -449h-30zM682 459q82 0 113 -64.5t13 -168.5q-18 -102 -83 -169t-146 -67q-35 0 -65.5 16t-46.5 42l25 16q12 -21 36 -33t52 -12q80 0 137 72t66 170
q-21 -44 -63 -70.5t-89 -26.5q-61 0 -96.5 43.5t-24.5 105.5q11 61 61.5 103.5t110.5 42.5zM779 313q9 51 -19 84.5t-78 33.5t-92 -36t-51 -86q-8 -48 20 -82.5t77 -34.5q51 0 92.5 35.5t50.5 85.5z" />
    <glyph glyph-name="uni2152" unicode="&#x2152;" horiz-adv-x="1197" 
d="M674 701l24 -18l-582 -704l-25 18zM167 240l65 376q-47 -45 -130 -45l3 28q60 0 97 26t44 65l30 -1l-79 -449h-30zM1008 460q81 0 119.5 -65.5t19.5 -171.5q-18 -104 -78 -168.5t-140 -64.5q-82 0 -120.5 65.5t-19.5 171.5q18 104 78.5 168.5t140.5 64.5zM567 359
q60 0 97 26t44 65l30 -1l-79 -449h-30l65 376q-47 -45 -130 -45zM1118 227q16 93 -14 149t-97 56q-69 0 -120.5 -57t-68.5 -152q-16 -93 14.5 -148.5t97.5 -55.5q68 0 119.5 57t68.5 151z" />
    <glyph glyph-name="uni2153" unicode="&#x2153;" horiz-adv-x="856" 
d="M674 701l24 -18l-582 -704l-25 18zM167 240l65 376q-47 -45 -130 -45l3 28q60 0 97 26t44 65l30 -1l-79 -449h-30zM816 337q-7 -37 -35.5 -64.5t-71.5 -40.5q42 -13 63.5 -44t14.5 -72q-9 -53 -60.5 -89.5t-113.5 -36.5q-61 0 -99.5 36t-38.5 89l30 6q-1 -44 30 -73
t80 -29q51 0 93.5 30t49.5 72q8 41 -24 69t-88 28h-70l5 28h68q52 0 91.5 27.5t46.5 67.5q7 38 -21.5 64.5t-74.5 26.5q-49 0 -88.5 -29.5t-54.5 -74.5l-28 10q19 53 66 87.5t105 34.5q61 0 98 -35.5t27 -87.5z" />
    <glyph glyph-name="uni2154" unicode="&#x2154;" horiz-adv-x="952" 
d="M770 701l24 -18l-582 -704l-25 18zM348 269l-5 -29h-300l4 23l245 212q56 48 65 97q7 41 -19 70t-72 29q-44 0 -82.5 -29.5t-52.5 -73.5l-28 8q17 52 63 87.5t101 35.5q59 0 94 -38t25 -92q-10 -59 -76 -117l-215 -183h253zM912 337q-7 -37 -35.5 -64.5t-71.5 -40.5
q42 -13 63.5 -44t14.5 -72q-9 -53 -60.5 -89.5t-113.5 -36.5q-61 0 -99.5 36t-38.5 89l30 6q-1 -44 30 -73t80 -29q51 0 93.5 30t49.5 72q8 41 -24 69t-88 28h-70l5 28h68q52 0 91.5 27.5t46.5 67.5q7 38 -21.5 64.5t-74.5 26.5q-49 0 -88.5 -29.5t-54.5 -74.5l-28 10
q19 53 66 87.5t105 34.5q61 0 98 -35.5t27 -87.5z" />
    <glyph glyph-name="uni2155" unicode="&#x2155;" horiz-adv-x="855" 
d="M674 701l24 -18l-582 -704l-25 18zM167 240l65 376q-47 -45 -130 -45l3 28q60 0 97 26t44 65l30 -1l-79 -449h-30zM821 420h-215l-58 -173q50 39 118 39q64 0 100 -41.5t25 -103.5q-12 -64 -65.5 -107.5t-115.5 -43.5q-57 0 -94 37.5t-39 94.5l28 6q1 -49 30.5 -79
t75.5 -30q53 0 97 36.5t54 89.5q8 48 -19 80.5t-79 32.5q-39 0 -77 -17t-55 -42l-26 14l81 236h239z" />
    <glyph glyph-name="uni2156" unicode="&#x2156;" horiz-adv-x="951" 
d="M770 701l24 -18l-582 -704l-25 18zM348 269l-5 -29h-300l4 23l245 212q56 48 65 97q7 41 -19 70t-72 29q-44 0 -82.5 -29.5t-52.5 -73.5l-28 8q17 52 63 87.5t101 35.5q59 0 94 -38t25 -92q-10 -59 -76 -117l-215 -183h253zM917 420h-215l-58 -173q50 39 118 39
q64 0 100 -41.5t25 -103.5q-12 -64 -65.5 -107.5t-115.5 -43.5q-57 0 -94 37.5t-39 94.5l28 6q1 -49 30.5 -79t75.5 -30q53 0 97 36.5t54 89.5q8 48 -19 80.5t-79 32.5q-39 0 -77 -17t-55 -42l-26 14l81 236h239z" />
    <glyph glyph-name="uni2157" unicode="&#x2157;" horiz-adv-x="943" 
d="M762 701l24 -18l-582 -704l-25 18zM375 356q-9 -53 -60.5 -89.5t-113.5 -36.5q-61 0 -99.5 36t-38.5 89l30 6q-1 -44 30 -73t80 -29q51 0 93.5 30t49.5 72q8 41 -24 69t-88 28h-70l5 28h68q52 0 91.5 27.5t46.5 67.5q7 38 -21.5 64.5t-74.5 26.5q-49 0 -88.5 -29.5
t-54.5 -74.5l-28 10q19 53 66 87.5t105 34.5q61 0 98 -35.5t27 -87.5q-7 -37 -35.5 -64.5t-71.5 -40.5q42 -13 63.5 -44t14.5 -72zM909 420h-215l-58 -173q50 39 118 39q64 0 100 -41.5t25 -103.5q-12 -64 -65.5 -107.5t-115.5 -43.5q-57 0 -94 37.5t-39 94.5l28 6
q1 -49 30.5 -79t75.5 -30q53 0 97 36.5t54 89.5q8 48 -19 80.5t-79 32.5q-39 0 -77 -17t-55 -42l-26 14l81 236h239z" />
    <glyph glyph-name="uni2158" unicode="&#x2158;" horiz-adv-x="984" 
d="M803 701l24 -18l-582 -704l-25 18zM278 240l22 122h-236l4 22l233 305h34l-229 -299h198l28 156h29l-28 -156h89l-5 -28h-88l-22 -122h-29zM950 420h-215l-58 -173q50 39 118 39q64 0 100 -41.5t25 -103.5q-12 -64 -65.5 -107.5t-115.5 -43.5q-57 0 -94 37.5t-39 94.5
l28 6q1 -49 30.5 -79t75.5 -30q53 0 97 36.5t54 89.5q8 48 -19 80.5t-79 32.5q-39 0 -77 -17t-55 -42l-26 14l81 236h239z" />
    <glyph glyph-name="uni2159" unicode="&#x2159;" horiz-adv-x="857" 
d="M674 701l24 -18l-582 -704l-25 18zM167 240l65 376q-47 -45 -130 -45l3 28q60 0 97 26t44 65l30 -1l-79 -449h-30zM722 459q35 0 66 -15.5t46 -41.5l-23 -16q-13 20 -37.5 32.5t-52.5 12.5q-81 0 -137.5 -73t-65.5 -171q21 44 63.5 71t89.5 27q62 0 97 -43.5t24 -105.5
q-10 -61 -61 -103.5t-112 -42.5q-82 0 -112.5 64.5t-12.5 169.5q18 101 82.5 168t145.5 67zM522 137q-9 -51 19.5 -84.5t77.5 -33.5q51 0 92.5 35.5t50.5 86.5q8 48 -19.5 82.5t-76.5 34.5q-50 0 -92.5 -35.5t-51.5 -85.5z" />
    <glyph glyph-name="uni215A" unicode="&#x215a;" horiz-adv-x="944" 
d="M761 701l24 -18l-582 -704l-25 18zM379 381q-12 -64 -65.5 -107.5t-115.5 -43.5q-57 0 -94 37.5t-39 94.5l28 6q1 -49 30.5 -79t75.5 -30q53 0 97 36.5t54 89.5q8 48 -19 80.5t-79 32.5q-39 0 -77 -17t-55 -42l-26 14l81 236h239l-5 -29h-215l-58 -173q50 39 118 39
q64 0 100 -41.5t25 -103.5zM809 459q35 0 66 -15.5t46 -41.5l-23 -16q-13 20 -37.5 32.5t-52.5 12.5q-81 0 -137.5 -73t-65.5 -171q21 44 63.5 71t89.5 27q62 0 97 -43.5t24 -105.5q-10 -61 -61 -103.5t-112 -42.5q-82 0 -112.5 64.5t-12.5 169.5q18 101 82.5 168t145.5 67z
M609 137q-9 -51 19.5 -84.5t77.5 -33.5q51 0 92.5 35.5t50.5 86.5q8 48 -19.5 82.5t-76.5 34.5q-50 0 -92.5 -35.5t-51.5 -85.5z" />
    <glyph glyph-name="oneeighth" unicode="&#x215b;" horiz-adv-x="864" 
d="M674 701l24 -18l-582 -704l-25 18zM167 240l65 376q-47 -45 -130 -45l3 28q60 0 97 26t44 65l30 -1l-79 -449h-30zM823 337q-6 -36 -34.5 -64t-70.5 -41q42 -14 63 -45t14 -71q-9 -53 -61.5 -89.5t-118.5 -36.5q-68 0 -108.5 37.5t-30.5 92.5q7 40 39 70t78 44
q-37 14 -55.5 42t-11.5 65q9 51 57.5 85t110.5 34q63 0 101 -35.5t28 -87.5zM656 246q51 0 91 27.5t47 67.5q7 38 -22.5 64.5t-78.5 26.5q-50 0 -90 -27.5t-48 -67.5q-7 -39 22.5 -65t78.5 -26zM766 121q7 41 -25 69.5t-85 28.5q-55 0 -99 -29.5t-51 -72.5q-7 -41 25 -69.5
t85 -28.5q55 0 99 29.5t51 72.5z" />
    <glyph glyph-name="threeeighths" unicode="&#x215c;" horiz-adv-x="952" 
d="M762 701l24 -18l-582 -704l-25 18zM375 356q-9 -53 -60.5 -89.5t-113.5 -36.5q-61 0 -99.5 36t-38.5 89l30 6q-1 -44 30 -73t80 -29q51 0 93.5 30t49.5 72q8 41 -24 69t-88 28h-70l5 28h68q52 0 91.5 27.5t46.5 67.5q7 38 -21.5 64.5t-74.5 26.5q-49 0 -88.5 -29.5
t-54.5 -74.5l-28 10q19 53 66 87.5t105 34.5q61 0 98 -35.5t27 -87.5q-7 -37 -35.5 -64.5t-71.5 -40.5q42 -13 63.5 -44t14.5 -72zM911 337q-6 -36 -34.5 -64t-70.5 -41q42 -14 63 -45t14 -71q-9 -53 -61.5 -89.5t-118.5 -36.5q-68 0 -108.5 37.5t-30.5 92.5q7 40 39 70
t78 44q-37 14 -55.5 42t-11.5 65q9 51 57.5 85t110.5 34q63 0 101 -35.5t28 -87.5zM744 246q51 0 91 27.5t47 67.5q7 38 -22.5 64.5t-78.5 26.5q-50 0 -90 -27.5t-48 -67.5q-7 -39 22.5 -65t78.5 -26zM854 121q7 41 -25 69.5t-85 28.5q-55 0 -99 -29.5t-51 -72.5
q-7 -41 25 -69.5t85 -28.5q55 0 99 29.5t51 72.5z" />
    <glyph glyph-name="fiveeighths" unicode="&#x215d;" horiz-adv-x="951" 
d="M761 701l24 -18l-582 -704l-25 18zM379 381q-12 -64 -65.5 -107.5t-115.5 -43.5q-57 0 -94 37.5t-39 94.5l28 6q1 -49 30.5 -79t75.5 -30q53 0 97 36.5t54 89.5q8 48 -19 80.5t-79 32.5q-39 0 -77 -17t-55 -42l-26 14l81 236h239l-5 -29h-215l-58 -173q50 39 118 39
q64 0 100 -41.5t25 -103.5zM910 337q-6 -36 -34.5 -64t-70.5 -41q42 -14 63 -45t14 -71q-9 -53 -61.5 -89.5t-118.5 -36.5q-68 0 -108.5 37.5t-30.5 92.5q7 40 39 70t78 44q-37 14 -55.5 42t-11.5 65q9 51 57.5 85t110.5 34q63 0 101 -35.5t28 -87.5zM743 246q51 0 91 27.5
t47 67.5q7 38 -22.5 64.5t-78.5 26.5q-50 0 -90 -27.5t-48 -67.5q-7 -39 22.5 -65t78.5 -26zM853 121q7 41 -25 69.5t-85 28.5q-55 0 -99 -29.5t-51 -72.5q-7 -41 25 -69.5t85 -28.5q55 0 99 29.5t51 72.5z" />
    <glyph glyph-name="seveneighths" unicode="&#x215e;" horiz-adv-x="905" 
d="M715 701l24 -18l-582 -704l-25 18zM146 240h-34l293 420h-268l5 29h305l-4 -23zM864 337q-6 -36 -34.5 -64t-70.5 -41q42 -14 63 -45t14 -71q-9 -53 -61.5 -89.5t-118.5 -36.5q-68 0 -108.5 37.5t-30.5 92.5q7 40 39 70t78 44q-37 14 -55.5 42t-11.5 65q9 51 57.5 85
t110.5 34q63 0 101 -35.5t28 -87.5zM697 246q51 0 91 27.5t47 67.5q7 38 -22.5 64.5t-78.5 26.5q-50 0 -90 -27.5t-48 -67.5q-7 -39 22.5 -65t78.5 -26zM807 121q7 41 -25 69.5t-85 28.5q-55 0 -99 -29.5t-51 -72.5q-7 -41 25 -69.5t85 -28.5q55 0 99 29.5t51 72.5z" />
    <glyph glyph-name="uni215F" unicode="&#x215f;" horiz-adv-x="454" 
d="M674 701l24 -18l-582 -704l-25 18zM167 240l65 376q-47 -45 -130 -45l3 28q60 0 97 26t44 65l30 -1l-79 -449h-30z" />
    <glyph glyph-name="uni2189" unicode="&#x2189;" horiz-adv-x="991" 
d="M809 701l24 -18l-582 -704l-25 18zM441 463q-18 -104 -78 -168.5t-140 -64.5q-82 0 -120.5 65.5t-19.5 171.5q18 104 78.5 168.5t140.5 64.5q81 0 119.5 -65.5t19.5 -171.5zM224 259q68 0 119.5 57t68.5 151q16 93 -14 149t-97 56q-69 0 -120.5 -57t-68.5 -152
q-16 -93 14.5 -148.5t97.5 -55.5zM951 337q-7 -37 -35.5 -64.5t-71.5 -40.5q42 -13 63.5 -44t14.5 -72q-9 -53 -60.5 -89.5t-113.5 -36.5q-61 0 -99.5 36t-38.5 89l30 6q-1 -44 30 -73t80 -29q51 0 93.5 30t49.5 72q8 41 -24 69t-88 28h-70l5 28h68q52 0 91.5 27.5
t46.5 67.5q7 38 -21.5 64.5t-74.5 26.5q-49 0 -88.5 -29.5t-54.5 -74.5l-28 10q19 53 66 87.5t105 34.5q61 0 98 -35.5t27 -87.5z" />
    <glyph glyph-name="partialdiff" unicode="&#x2202;" horiz-adv-x="627" 
d="M197 684l-16 18q85 57 193 57q53 0 97.5 -24.5t75.5 -71.5t41.5 -116.5t-4.5 -160.5q-13 -70 -41.5 -138t-72.5 -128t-108 -96.5t-138 -36.5q-54 0 -93.5 21.5t-57.5 54.5t-26 73t1 78q19 107 104 173t184 66q45 0 84 -15.5t62.5 -38.5t37.5 -42.5t19 -34.5h1q6 21 13 64
q28 160 -29 254t-155 94q-93 0 -172 -50zM229 12h1q98 0 178 79t116 191q-11 49 -63 97.5t-129 48.5q-86 0 -160.5 -61t-90.5 -149q-15 -85 25.5 -145.5t122.5 -60.5z" />
    <glyph glyph-name="Delta" unicode="&#x2206;" horiz-adv-x="780" 
d="M-3 0l5 36l452 673h35l213 -673l-7 -36h-698zM31 26h635l-138 445q-3 10 -29 95.5t-32 110.5h-5q-7 -13 -29 -46.5t-49.5 -75t-38.5 -59.5z" />
    <glyph glyph-name="product" unicode="&#x220f;" horiz-adv-x="902" 
d="M871 657h-146v-751h-31v751h-410v-751h-31v751h-146v27h764v-27z" />
    <glyph glyph-name="summation" unicode="&#x2211;" horiz-adv-x="735" 
d="M704 -94h-603v22l352 365l-336 370v21h574v-28h-521v-4l324 -356l-343 -357v-3h553v-30z" />
    <glyph glyph-name="minus" unicode="&#x2212;" horiz-adv-x="532" 
d="M73 324l6 32h412l-6 -32h-412z" />
    <glyph glyph-name="radical" unicode="&#x221a;" horiz-adv-x="723" 
d="M723 806l-262 -957h-40l-198 474l-90 -33l-12 25l123 47l179 -434q9 -25 16 -49h1q2 9 7 26t6 23l239 878h31z" />
    <glyph glyph-name="infinity" unicode="&#x221e;" horiz-adv-x="925" 
d="M863 284v-1q0 -73 -49.5 -120t-116.5 -47q-15 0 -29 3.5t-25.5 7t-26.5 13.5t-24 16.5t-26 22.5t-25 23.5t-28.5 28l-29.5 29.5q-70 -75 -100 -97q-61 -47 -123 -47q-66 0 -114 49t-48 115q0 71 48.5 119.5t121.5 48.5q38 0 78 -22.5t64.5 -45.5t63.5 -65q8 -9 12 -13
q47 52 70 75t65.5 47t85.5 24q73 0 114.5 -46t41.5 -118zM266 146h1q23 0 46 8.5t45 25.5t37.5 31t38 37t31.5 32q-1 1 -18 20t-20.5 22.5t-19.5 20t-22.5 21.5t-21.5 17.5t-25 16.5t-24.5 11t-28 9t-28.5 2q-57 0 -91 -42.5t-34 -99.5q1 -55 37.5 -93.5t96.5 -38.5z
M703 420h-1q-30 0 -62 -17t-52.5 -35t-48.5 -47t-37 -37q88 -87 117 -107q44 -31 84 -31q58 0 92.5 40.5t34.5 94.5q0 65 -36 102t-91 37z" />
    <glyph glyph-name="integral" unicode="&#x222b;" horiz-adv-x="451" 
d="M440 810l-13 -23q-16 14 -46 14q-39 0 -59 -19q-48 -45 -48 -186q0 -75 8 -256.5t8 -254.5q0 -137 -55 -199q-31 -34 -83 -34q-40 0 -68 20l11 23q29 -16 59 -16q34 0 54 22q50 52 50 186q0 74 -8 257t-8 255q0 78 12.5 124.5t43.5 72.5q35 32 83 32q34 0 59 -18z" />
    <glyph glyph-name="approxequal" unicode="&#x2248;" horiz-adv-x="717" 
d="M632 423l18 -15q-25 -45 -58 -71t-85 -26q-12 0 -24.5 2t-21.5 4t-23.5 8.5t-22 10t-27 13.5t-28.5 14q-76 38 -119 38q-40 0 -67.5 -22.5t-56.5 -63.5l-19 15q56 98 153 98q26 0 49 -8t54 -25t35 -19q26 -14 57.5 -26t65.5 -12q38 0 66 20t54 65zM632 242l18 -16
q-25 -44 -58 -69.5t-85 -25.5q-11 0 -20.5 1t-20.5 4t-18 5t-20.5 8t-19 9t-23.5 12t-25 12q-76 38 -119 38q-40 0 -67.5 -22.5t-56.5 -64.5l-19 16q56 98 152 98q21 0 42.5 -6t34.5 -12t34.5 -18t27.5 -15q5 -2 17 -8l17 -8.5t15.5 -7t17 -6.5t16.5 -4.5t19.5 -3.5t20.5 -1
q38 0 65.5 20t54.5 65z" />
    <glyph glyph-name="notequal" unicode="&#x2260;" horiz-adv-x="532" 
d="M500 409h-149l-89 -138h214l-6 -32h-228l-80 -124h-37l80 124h-147l6 32h161l89 138h-226l6 32h240l80 124h37l-80 -124h135z" />
    <glyph glyph-name="lessequal" unicode="&#x2264;" horiz-adv-x="532" 
d="M526 567l-6 -33l-393 -154l339 -155l-6 -33l-379 174l4 27zM40 134l4 26h412l-4 -26h-412z" />
    <glyph glyph-name="greaterequal" unicode="&#x2265;" horiz-adv-x="532" 
d="M118 567l379 -174l-4 -27l-441 -174l6 33l393 155l-339 154zM40 134l4 26h412l-4 -26h-412z" />
    <glyph glyph-name="lozenge" unicode="&#x25ca;" horiz-adv-x="725" 
d="M657 342l-242 -398h-26l-242 398l242 398h26zM624 341l-200 328q-11 19 -23 44h-2q-10 -24 -24 -44l-196 -326l200 -329q19 -30 22 -43h3q5 16 22 43z" />
    <glyph glyph-name="i.loclTRK" horiz-adv-x="221" 
d="M172 586q-13 0 -19.5 8.5t-4.5 21.5q2 11 10.5 18.5t19.5 7.5q12 0 19.5 -9t5.5 -21q-2 -11 -11 -18.5t-20 -7.5zM138 500h32l-88 -500h-32z" />
    <glyph glyph-name="a.ss01" horiz-adv-x="604" 
d="M523 500h32l-88 -500h-32l20 117q-36 -59 -93.5 -94t-122.5 -35q-85 0 -139.5 57.5t-54.5 150.5q0 124 83.5 219t200.5 95q63 0 110.5 -30.5t65.5 -84.5zM241 20q80 0 153 65.5t90 164.5q6 31 6 59q0 79 -43.5 124t-120.5 45q-102 0 -175 -85t-73 -195q0 -81 45 -129.5
t118 -48.5z" />
    <glyph glyph-name="three.ss01" horiz-adv-x="584" 
d="M578 680l-5 -30l-269 -235q102 24 170.5 -35t50.5 -162q-18 -101 -103.5 -167.5t-187.5 -66.5q-87 0 -145 51.5t-67 141.5l35 8q8 -77 55.5 -122t123.5 -45q92 0 165.5 59t88.5 145q13 74 -25.5 120.5t-113.5 46.5q-67 0 -124 -41l-24 24l316 274h-383l6 34h436z" />
    <glyph glyph-name="zero.tf" horiz-adv-x="620" 
d="M265 -16q-123 0 -181 99t-30 259q28 158 119.5 256t212.5 98q123 0 181.5 -99t29.5 -259q-28 -159 -119.5 -256.5t-212.5 -97.5zM267 18q107 0 188.5 89t106.5 235q26 145 -22.5 232.5t-154.5 87.5q-107 0 -188.5 -89t-107.5 -235q-25 -145 23.5 -232.5t154.5 -87.5z" />
    <glyph glyph-name="one.tf" horiz-adv-x="620" 
d="M317 34h204l-6 -34h-457l6 34h217l97 554q-76 -78 -229 -78l4 34q99 0 165.5 39.5t76.5 97.5l36 -1z" />
    <glyph glyph-name="two.tf" horiz-adv-x="620" 
d="M558 500q-16 -91 -116 -176l-340 -290h397l-6 -34h-454l4 27l376 323q91 77 104 154q11 66 -31 112t-114 46q-70 0 -130.5 -46.5t-83.5 -115.5l-33 10q26 79 95.5 132.5t152.5 53.5q88 0 140.5 -57t38.5 -139z" />
    <glyph glyph-name="three.tf" horiz-adv-x="620" 
d="M558 513q-9 -57 -55 -100t-113 -62q66 -20 100.5 -67.5t24.5 -109.5q-14 -80 -92 -135t-171 -55q-92 0 -150.5 54.5t-56.5 133.5l36 6q-2 -68 47 -114t127 -46q80 0 146.5 47t77.5 113q12 66 -38.5 111t-137.5 45h-109l6 34h107q81 0 143 43t73 106q10 61 -34 103
t-117 42q-77 0 -139 -46t-85 -116l-33 10q26 80 97 133t159 53q90 0 145.5 -53t41.5 -130z" />
    <glyph glyph-name="four.tf" horiz-adv-x="620" 
d="M571 223l-6 -34h-149l-33 -189h-36l33 189h-360l4 26l360 465h42l-354 -457h314l43 241h36l-43 -241h149z" />
    <glyph glyph-name="five.tf" horiz-adv-x="620" 
d="M573 646h-329l-95 -280q79 63 187 63q98 0 151.5 -63t36.5 -155q-17 -96 -98 -161.5t-175 -65.5q-85 0 -141 56.5t-59 142.5l35 8q1 -77 48 -125t120 -48q82 0 151 57.5t84 140.5q13 76 -29.5 127.5t-125.5 51.5q-61 0 -122 -27t-86 -67l-31 16l125 363h359z" />
    <glyph glyph-name="six.tf" horiz-adv-x="620" 
d="M436 696q53 0 99.5 -24t69.5 -63l-29 -19q-19 33 -58 52.5t-83 19.5q-87 0 -159 -57.5t-112.5 -147t-47.5 -190.5q30 73 97 117.5t143 44.5q92 0 145 -65.5t36 -157.5q-16 -92 -92 -156.5t-167 -64.5q-63 0 -107 27.5t-64 75.5t-25 112t10 138q27 154 124.5 256
t219.5 102zM125 206q-14 -82 30.5 -134.5t123.5 -52.5t144 55.5t79 135.5q14 76 -30.5 130.5t-121.5 54.5q-79 0 -145 -56t-80 -133z" />
    <glyph glyph-name="seven.tf" horiz-adv-x="620" 
d="M156 680h461l-4 -26l-458 -654h-40l451 646h-416z" />
    <glyph glyph-name="eight.tf" horiz-adv-x="620" 
d="M581 513q-10 -57 -56 -100.5t-111 -61.5q66 -20 100.5 -67.5t23.5 -109.5q-14 -80 -93.5 -135t-179.5 -55q-101 0 -162 56t-47 138q11 62 62 108.5t124 65.5q-59 20 -89.5 64t-20.5 101q13 76 87.5 127.5t166.5 51.5q95 0 152 -53t43 -130zM329 368q80 0 143 43t74 106
q11 61 -36 103t-125 42q-80 0 -143.5 -43t-74.5 -106q-10 -61 37 -103t125 -42zM502 178q12 66 -39 111t-136 45q-87 0 -155.5 -46.5t-79.5 -113.5q-12 -66 39 -111t136 -45q86 0 154.5 46.5t80.5 113.5z" />
    <glyph glyph-name="nine.tf" horiz-adv-x="620" 
d="M365 696q63 0 107 -27.5t64 -75.5t25 -112.5t-10 -137.5q-27 -154 -124.5 -256t-219.5 -102q-53 0 -99.5 24t-69.5 63l29 19q19 -33 58 -52.5t83 -19.5q87 0 159 57.5t112.5 147t47.5 190.5q-30 -73 -97.5 -117.5t-142.5 -44.5q-93 0 -145.5 65t-35.5 158q16 92 92 156.5
t167 64.5zM518 475q14 82 -30.5 134.5t-123.5 52.5t-144 -55.5t-79 -135.5q-14 -76 30.5 -130.5t121.5 -54.5q79 0 145 56t80 133z" />
    <glyph glyph-name="zero.dnom" horiz-adv-x="449" 
d="M181 -10q-82 0 -120.5 65.5t-19.5 171.5q18 104 78.5 168.5t140.5 64.5q81 0 119.5 -65.5t19.5 -171.5q-18 -104 -78 -168.5t-140 -64.5zM182 19q68 0 119.5 57t68.5 151q16 93 -14 149t-97 56q-69 0 -120.5 -57t-68.5 -152q-16 -93 14.5 -148.5t97.5 -55.5z" />
    <glyph glyph-name="one.dnom" horiz-adv-x="244" 
d="M204 450l30 -1l-79 -449h-30l65 376q-47 -45 -130 -45l3 28q60 0 97 26t44 65z" />
    <glyph glyph-name="two.dnom" horiz-adv-x="390" 
d="M344 329q-10 -59 -76 -117l-215 -183h253l-5 -29h-300l4 23l245 212q56 48 65 97q7 41 -19 70t-72 29q-44 0 -82.5 -29.5t-52.5 -73.5l-28 8q17 52 63 87.5t101 35.5q59 0 94 -38t25 -92z" />
    <glyph glyph-name="three.dnom" horiz-adv-x="402" 
d="M362 337q-7 -37 -35.5 -64.5t-71.5 -40.5q42 -13 63.5 -44t14.5 -72q-9 -53 -60.5 -89.5t-113.5 -36.5q-61 0 -99.5 36t-38.5 89l30 6q-1 -44 30 -73t80 -29q51 0 93.5 30t49.5 72q8 41 -24 69t-88 28h-70l5 28h68q52 0 91.5 27.5t46.5 67.5q7 38 -21.5 64.5t-74.5 26.5
q-49 0 -88.5 -29.5t-54.5 -74.5l-28 10q19 53 66 87.5t105 34.5q61 0 98 -35.5t27 -87.5z" />
    <glyph glyph-name="four.dnom" horiz-adv-x="443" 
d="M380 150l-5 -28h-88l-22 -122h-29l22 122h-236l4 22l233 305h34l-229 -299h198l28 156h29l-28 -156h89z" />
    <glyph glyph-name="five.dnom" horiz-adv-x="401" 
d="M367 420h-215l-58 -173q50 39 118 39q64 0 100 -41.5t25 -103.5q-12 -64 -65.5 -107.5t-115.5 -43.5q-57 0 -94 37.5t-39 94.5l28 6q1 -49 30.5 -79t75.5 -30q53 0 97 36.5t54 89.5q8 48 -19 80.5t-79 32.5q-39 0 -77 -17t-55 -42l-26 14l81 236h239z" />
    <glyph glyph-name="six.dnom" horiz-adv-x="403" 
d="M268 459q35 0 66 -15.5t46 -41.5l-23 -16q-13 20 -37.5 32.5t-52.5 12.5q-81 0 -137.5 -73t-65.5 -171q21 44 63.5 71t89.5 27q62 0 97 -43.5t24 -105.5q-10 -61 -61 -103.5t-112 -42.5q-82 0 -112.5 64.5t-12.5 169.5q18 101 82.5 168t145.5 67zM68 137
q-9 -51 19.5 -84.5t77.5 -33.5q51 0 92.5 35.5t50.5 86.5q8 48 -19.5 82.5t-76.5 34.5q-50 0 -92.5 -35.5t-51.5 -85.5z" />
    <glyph glyph-name="seven.dnom" horiz-adv-x="395" 
d="M100 449h305l-4 -23l-297 -426h-34l293 420h-268z" />
    <glyph glyph-name="eight.dnom" horiz-adv-x="410" 
d="M369 337q-6 -36 -34.5 -64t-70.5 -41q42 -14 63 -45t14 -71q-9 -53 -61.5 -89.5t-118.5 -36.5q-68 0 -108.5 37.5t-30.5 92.5q7 40 39 70t78 44q-37 14 -55.5 42t-11.5 65q9 51 57.5 85t110.5 34q63 0 101 -35.5t28 -87.5zM202 246q51 0 91 27.5t47 67.5q7 38 -22.5 64.5
t-78.5 26.5q-50 0 -90 -27.5t-48 -67.5q-7 -39 22.5 -65t78.5 -26zM312 121q7 41 -25 69.5t-85 28.5q-55 0 -99 -29.5t-51 -72.5q-7 -41 25 -69.5t85 -28.5q55 0 99 29.5t51 72.5z" />
    <glyph glyph-name="nine.dnom" horiz-adv-x="403" 
d="M228 459q82 0 113 -64.5t13 -168.5q-18 -102 -83 -169t-146 -67q-35 0 -65.5 16t-46.5 42l25 16q12 -21 36 -33t52 -12q80 0 137 72t66 170q-21 -44 -63 -70.5t-89 -26.5q-61 0 -96.5 43.5t-24.5 105.5q11 61 61.5 103.5t110.5 42.5zM325 313q9 51 -19 84.5t-78 33.5
t-92 -36t-51 -86q-8 -48 20 -82.5t77 -34.5q51 0 92.5 35.5t50.5 85.5z" />
    <glyph glyph-name="zero.numr" horiz-adv-x="449" 
d="M223 230q-82 0 -120.5 65.5t-19.5 171.5q18 104 78.5 168.5t140.5 64.5q81 0 119.5 -65.5t19.5 -171.5q-18 -104 -78 -168.5t-140 -64.5zM224 259q68 0 119.5 57t68.5 151q16 93 -14 149t-97 56q-69 0 -120.5 -57t-68.5 -152q-16 -93 14.5 -148.5t97.5 -55.5z" />
    <glyph glyph-name="one.numr" horiz-adv-x="244" 
d="M246 690l30 -1l-79 -449h-30l65 376q-47 -45 -130 -45l3 28q60 0 97 26t44 65z" />
    <glyph glyph-name="two.numr" horiz-adv-x="390" 
d="M386 569q-10 -59 -76 -117l-215 -183h253l-5 -29h-300l4 23l245 212q56 48 65 97q7 41 -19 70t-72 29q-44 0 -82.5 -29.5t-52.5 -73.5l-28 8q17 52 63 87.5t101 35.5q59 0 94 -38t25 -92z" />
    <glyph glyph-name="three.numr" horiz-adv-x="402" 
d="M404 577q-7 -37 -35.5 -64.5t-71.5 -40.5q42 -13 63.5 -44t14.5 -72q-9 -53 -60.5 -89.5t-113.5 -36.5q-61 0 -99.5 36t-38.5 89l30 6q-1 -44 30 -73t80 -29q51 0 93.5 30t49.5 72q8 41 -24 69t-88 28h-70l5 28h68q52 0 91.5 27.5t46.5 67.5q7 38 -21.5 64.5t-74.5 26.5
q-49 0 -88.5 -29.5t-54.5 -74.5l-28 10q19 53 66 87.5t105 34.5q61 0 98 -35.5t27 -87.5z" />
    <glyph glyph-name="four.numr" horiz-adv-x="443" 
d="M422 390l-5 -28h-88l-22 -122h-29l22 122h-236l4 22l233 305h34l-229 -299h198l28 156h29l-28 -156h89z" />
    <glyph glyph-name="five.numr" horiz-adv-x="401" 
d="M409 660h-215l-58 -173q50 39 118 39q64 0 100 -41.5t25 -103.5q-12 -64 -65.5 -107.5t-115.5 -43.5q-57 0 -94 37.5t-39 94.5l28 6q1 -49 30.5 -79t75.5 -30q53 0 97 36.5t54 89.5q8 48 -19 80.5t-79 32.5q-39 0 -77 -17t-55 -42l-26 14l81 236h239z" />
    <glyph glyph-name="six.numr" horiz-adv-x="403" 
d="M310 699q35 0 66 -15.5t46 -41.5l-23 -16q-13 20 -37.5 32.5t-52.5 12.5q-81 0 -137.5 -73t-65.5 -171q21 44 63.5 71t89.5 27q62 0 97 -43.5t24 -105.5q-10 -61 -61 -103.5t-112 -42.5q-82 0 -112.5 64.5t-12.5 169.5q18 101 82.5 168t145.5 67zM110 377
q-9 -51 19.5 -84.5t77.5 -33.5q51 0 92.5 35.5t50.5 86.5q8 48 -19.5 82.5t-76.5 34.5q-50 0 -92.5 -35.5t-51.5 -85.5z" />
    <glyph glyph-name="seven.numr" horiz-adv-x="395" 
d="M142 689h305l-4 -23l-297 -426h-34l293 420h-268z" />
    <glyph glyph-name="eight.numr" horiz-adv-x="410" 
d="M411 577q-6 -36 -34.5 -64t-70.5 -41q42 -14 63 -45t14 -71q-9 -53 -61.5 -89.5t-118.5 -36.5q-68 0 -108.5 37.5t-30.5 92.5q7 40 39 70t78 44q-37 14 -55.5 42t-11.5 65q9 51 57.5 85t110.5 34q63 0 101 -35.5t28 -87.5zM244 486q51 0 91 27.5t47 67.5q7 38 -22.5 64.5
t-78.5 26.5q-50 0 -90 -27.5t-48 -67.5q-7 -39 22.5 -65t78.5 -26zM354 361q7 41 -25 69.5t-85 28.5q-55 0 -99 -29.5t-51 -72.5q-7 -41 25 -69.5t85 -28.5q55 0 99 29.5t51 72.5z" />
    <glyph glyph-name="nine.numr" horiz-adv-x="403" 
d="M270 699q82 0 113 -64.5t13 -168.5q-18 -102 -83 -169t-146 -67q-35 0 -65.5 16t-46.5 42l25 16q12 -21 36 -33t52 -12q80 0 137 72t66 170q-21 -44 -63 -70.5t-89 -26.5q-61 0 -96.5 43.5t-24.5 105.5q11 61 61.5 103.5t110.5 42.5zM367 553q9 51 -19 84.5t-78 33.5
t-92 -36t-51 -86q-8 -48 20 -82.5t77 -34.5q51 0 92.5 35.5t50.5 85.5z" />
    </font>
</defs>
</svg>
