<?xml version="1.0" standalone="no"?>
<!DOCTYPE svg PUBLIC "-//W3C//DTD SVG 1.1//EN" "http://www.w3.org/Graphics/SVG/1.1/DTD/svg11.dtd" >
<svg xmlns="http://www.w3.org/2000/svg" xmlns:xlink="http://www.w3.org/1999/xlink" version="1.1">
<metadata>
Created by FontForge 20170731 at Wed Jan 11 14:57:54 2017
 By Aleksey,,,
Copyright (c) 2016 by Alex Sheyn. All rights reserved.
</metadata>
<defs>
<font id="ATCArquette-BlackItalic" horiz-adv-x="0" >
  <font-face 
    font-family="ATC Arquette Black Italic"
    font-weight="905"
    font-style="italic"
    font-stretch="normal"
    units-per-em="1000"
    panose-1="0 0 10 0 0 0 0 0 0 0"
    ascent="800"
    descent="-200"
    x-height="500"
    cap-height="680"
    bbox="-667 -288 1248.29 945"
    underline-thickness="50"
    underline-position="-200"
    slope="-10"
    unicode-range="U+0020-FB02"
  />
<missing-glyph horiz-adv-x="460" 
d="M377 700v-920h-291v920h291zM306 638h-151v-30h59v-34h-60v-30h152v30h-60v34h60v30zM246 520h-92v-96h152v31h-60v65zM214 488v-33h-30v33h30zM306 399h-152v-30h60v-34h-60v-31h92v65h60v30zM306 344h-30v-61h-122v-31h152v92zM306 232h-92v-52h32v21h30v-43h-92v74
h-30v-104h152v104zM306 73h-152v-104h152v104zM276 42v-43h-92v43h92zM306 -53h-152v-30h64l-64 -43v-31h152v31h-93l64 43h29v30z" />
    <glyph glyph-name="fi" unicode="fi" horiz-adv-x="662" 
d="M595 729q45 0 72 -29t19 -74q-7 -37 -37.5 -58.5t-69.5 -21.5q-47 0 -74 29t-18 75q6 36 36.5 57.5t71.5 21.5zM652 500l-88 -500h-180l62 354h-164l-63 -354h-177l63 354h-75l26 146h75l5 31q16 89 66 129t145 40h94l-24 -136h-45q-29 0 -44 -14t-20 -46l-1 -4h345z" />
    <glyph glyph-name="fl" unicode="fl" horiz-adv-x="652" 
d="M499 700h186l-123 -700h-186l62 354h-156l-63 -354h-177l63 354h-75l26 146h75l5 31q16 89 66 129t145 40h94l-24 -136h-45q-29 0 -44 -14t-20 -46l-1 -4h157z" />
    <glyph glyph-name="f_f" unicode="ff" horiz-adv-x="718" 
d="M716 564q-29 0 -44 -14t-20 -46l-1 -4h99l-26 -146h-98l-63 -354h-177l63 354h-167l-63 -354h-177l63 354h-75l26 146h75l5 31q16 89 66 129t145 40h94l-24 -136h-45q-29 0 -44 -14t-20 -46l-1 -4h168l5 31q16 89 66 129t145 40h94l-24 -136h-45z" />
    <glyph glyph-name="f_f_i" unicode="ffi" horiz-adv-x="1006" 
d="M939 729q45 0 72 -29t19 -74q-7 -37 -37.5 -58.5t-69.5 -21.5q-47 0 -74 29t-18 75q6 36 36.5 57.5t71.5 21.5zM996 500l-88 -500h-180l62 354h-165l-63 -354h-177l63 354h-166l-63 -354h-177l63 354h-75l26 146h75l5 31q16 89 66 129t145 40h94l-24 -136h-45
q-29 0 -44 -14t-20 -46l-1 -4h167l5 31q16 89 66 129t145 40h94l-24 -136h-45q-29 0 -44 -14t-20 -46l-1 -4h346z" />
    <glyph glyph-name="f_f_l" unicode="ffl" horiz-adv-x="996" 
d="M843 700h186l-123 -700h-186l62 354h-161l-63 -354h-177l63 354h-162l-63 -354h-177l63 354h-75l26 146h75l5 31q16 89 66 129t145 40h94l-24 -136h-45q-29 0 -44 -14t-20 -46l-1 -4h163l5 31q16 89 66 129t145 40h94l-24 -136h-45q-29 0 -44 -14t-20 -46l-1 -4h162z" />
    <glyph glyph-name=".notdef" horiz-adv-x="460" 
d="M377 700v-920h-291v920h291zM306 638h-151v-30h59v-34h-60v-30h152v30h-60v34h60v30zM246 520h-92v-96h152v31h-60v65zM214 488v-33h-30v33h30zM306 399h-152v-30h60v-34h-60v-31h92v65h60v30zM306 344h-30v-61h-122v-31h152v92zM306 232h-92v-52h32v21h30v-43h-92v74
h-30v-104h152v104zM306 73h-152v-104h152v104zM276 42v-43h-92v43h92zM306 -53h-152v-30h64l-64 -43v-31h152v31h-93l64 43h29v30z" />
    <glyph glyph-name=".null" 
 />
    <glyph glyph-name="nonmarkingreturn" horiz-adv-x="333" 
 />
    <glyph glyph-name="space" unicode=" " horiz-adv-x="250" 
 />
    <glyph glyph-name="exclam" unicode="!" horiz-adv-x="366" 
d="M99 215l47 465h226l-117 -465h-156zM162 168q45 0 71.5 -29t18.5 -75q-7 -36 -37.5 -57.5t-69.5 -21.5q-47 0 -73.5 28.5t-19.5 74.5q7 37 38 58.5t72 21.5z" />
    <glyph glyph-name="quotedbl" unicode="&#x22;" horiz-adv-x="470" 
d="M110 700h190l-94 -317h-114zM330 700h190l-94 -317h-114z" />
    <glyph glyph-name="numbersign" unicode="#" horiz-adv-x="752" 
d="M725 390h-102l-37 -100h75l-27 -154h-104l-50 -136h-163l50 136h-101l-50 -136h-163l50 136h-71l27 154h101l37 100h-73l27 154h103l50 136h162l-50 -136h102l50 136h161l-50 -136h73zM424 290l37 100h-102l-36 -100h101z" />
    <glyph glyph-name="dollar" unicode="$" horiz-adv-x="593" 
d="M376 407q46 -14 78.5 -29.5t62 -40.5t40.5 -62t3 -84q-17 -95 -102 -151t-211 -56h-5l-34 -107l-97 15l33 105q-73 19 -118.5 62.5t-49.5 98.5l157 46q12 -42 57 -61l42 132q-102 31 -142 83.5t-26 133.5q16 93 97.5 148.5t198.5 55.5h5l34 107l97 -15l-34 -107
q64 -20 102.5 -62.5t43.5 -97.5l-151 -45q-7 37 -42 56zM235 484q-5 -28 48 -48l36 114q-34 -5 -57 -22.5t-27 -43.5zM386 199q3 19 -13 30t-47 20l-37 -117q40 5 66.5 22.5t30.5 44.5z" />
    <glyph glyph-name="percent" unicode="%" horiz-adv-x="902" 
d="M682 701l104 -74l-537 -648l-104 74zM282 696q76 0 121.5 -56t31.5 -135q-13 -71 -72 -120t-129 -49q-76 0 -122.5 56.5t-32.5 136.5q13 70 73 118.5t130 48.5zM278 584q-31 0 -58 -23.5t-33 -55.5q-4 -24 11 -40.5t40 -16.5q30 0 56.5 24t32.5 57q4 23 -10.5 39
t-38.5 16zM702 344q76 0 121.5 -56t31.5 -135q-13 -71 -72 -120t-129 -49q-76 0 -122.5 56.5t-32.5 136.5q13 70 73 118.5t130 48.5zM698 232q-31 0 -58.5 -23.5t-32.5 -55.5q-4 -24 11 -40.5t40 -16.5q30 0 56.5 24t32.5 57q4 23 -10.5 39t-38.5 16z" />
    <glyph glyph-name="ampersand" unicode="&#x26;" horiz-adv-x="762" 
d="M736 342q-40 -98 -106 -177l73 -82l-134 -110l-69 79q-107 -68 -217 -68q-111 0 -181.5 64.5t-52.5 158.5q21 109 168 179q-46 74 -33 141q14 75 82 122t159 47q101 0 156.5 -56.5t40.5 -136.5q-18 -96 -145 -166l47 -53q44 53 64 110zM357 512q-9 -25 20 -63
q43 19 61 35.5t20 34.5q3 32 -37 32q-24 0 -41.5 -12t-22.5 -27zM296 150q47 0 97 26l-77 88q-41 -17 -62.5 -32.5t-23.5 -36.5t16.5 -33t49.5 -12z" />
    <glyph glyph-name="quotesingle" unicode="'" horiz-adv-x="298" 
d="M176 700h193l-222 -317h-116z" />
    <glyph glyph-name="parenleft" unicode="(" horiz-adv-x="458" 
d="M351 -62l-119 -99q-99 90 -143.5 206t-23.5 235q20 110 102 222t210 202l94 -115q-92 -69 -152 -155t-76 -178q-15 -85 13.5 -168t94.5 -150z" />
    <glyph glyph-name="parenright" unicode=")" horiz-adv-x="458" 
d="M-7 -54q91 69 151.5 155t76.5 179q16 85 -12.5 167.5t-95.5 149.5l119 99q99 -92 143.5 -207t23.5 -233q-20 -112 -101.5 -224t-209.5 -201z" />
    <glyph glyph-name="asterisk" unicode="*" horiz-adv-x="450" 
d="M443 555l-90 -35l79 -35l-66 -90l-65 55l-4 -90h-106l30 90l-81 -55l-38 90l91 35l-80 35l66 90l65 -55l4 90h106l-30 -90l81 55z" />
    <glyph glyph-name="plus" unicode="+" horiz-adv-x="632" 
d="M601 415l-26 -150h-181l-32 -181h-150l32 181h-181l26 150h181l32 181h150l-32 -181h181z" />
    <glyph glyph-name="comma" unicode="," horiz-adv-x="330" 
d="M82 167h193l-222 -317h-116z" />
    <glyph glyph-name="hyphen" unicode="-" horiz-adv-x="470" 
d="M86 370h340l-30 -170h-340z" />
    <glyph glyph-name="period" unicode="." horiz-adv-x="288" 
d="M106 -15q-47 0 -75 35t-20 84q7 39 41.5 66t75.5 27q46 0 73.5 -34.5t19.5 -82.5q-7 -40 -41 -67.5t-74 -27.5z" />
    <glyph glyph-name="slash" unicode="/" horiz-adv-x="643" 
d="M112 -150l648 980h-212l-648 -980h212z" />
    <glyph glyph-name="zero" unicode="0" horiz-adv-x="632" 
d="M277 -16q-128 0 -193.5 103t-37.5 265q27 153 123 248.5t218 95.5q129 0 194 -103t37 -265q-27 -153 -122.5 -248.5t-218.5 -95.5zM305 161q49 1 85 53.5t45 137.5q8 76 -12.5 121.5t-63.5 45.5q-49 0 -84.5 -52.5t-44.5 -138.5q-8 -77 12 -122t63 -45z" />
    <glyph glyph-name="one" unicode="1" horiz-adv-x="410" 
d="M255 686l187 -6l-120 -680h-188l77 445q-65 -57 -191 -57l22 167q107 8 154.5 37t58.5 94z" />
    <glyph glyph-name="two" unicode="2" horiz-adv-x="532" 
d="M541 468q-19 -94 -124 -185l-136 -116h218l-29 -167h-494l22 131l321 287q41 36 44 68q1 20 -11.5 31.5t-33.5 11.5q-38 0 -65.5 -35t-26.5 -81l-173 44q16 101 97.5 170t181.5 69q101 0 164 -67.5t45 -160.5z" />
    <glyph glyph-name="three" unicode="3" horiz-adv-x="530" 
d="M547 483q-19 -93 -112 -140q92 -58 72 -164q-18 -90 -100 -142.5t-185 -52.5q-107 0 -170.5 58t-64.5 153l174 39q-10 -36 11.5 -59t62.5 -23t69 20.5t28 51.5q0 21 -22 35.5t-55 14.5h-72l26 145h76q31 0 54.5 20.5t23.5 46.5q0 21 -16.5 32.5t-42.5 11.5
q-40 0 -67.5 -24.5t-29.5 -58.5l-159 55q34 90 109 142.5t171 52.5q106 0 171.5 -60.5t47.5 -153.5z" />
    <glyph glyph-name="four" unicode="4" horiz-adv-x="574" 
d="M574 289l-28 -160h-86l-23 -129h-177l23 129h-308l25 150l272 401h197l-269 -391h111l27 151h177l-27 -151h86z" />
    <glyph glyph-name="five" unicode="5" horiz-adv-x="551" 
d="M543 519h-286l-25 -75q45 18 94 18q97 0 159 -68.5t44 -167.5q-18 -100 -110.5 -169.5t-199.5 -69.5q-97 0 -162 59.5t-70 151.5l187 42q-5 -37 17 -61.5t58 -24.5q38 0 67.5 28t30.5 66q1 31 -18 49.5t-49 18.5q-29 0 -57 -16t-40 -38l-162 64l119 354h432z" />
    <glyph glyph-name="six" unicode="6" horiz-adv-x="610" 
d="M378 452q101 0 157.5 -66.5t38.5 -167.5t-105 -167.5t-195 -66.5q-131 0 -194.5 99t-35.5 256q27 158 130.5 257.5t234.5 99.5q73 0 132.5 -32.5t84.5 -82.5l-139 -102q-7 25 -31.5 39.5t-56.5 14.5q-46 0 -84.5 -31t-60.5 -81q57 31 124 31zM394 244q2 30 -19 50t-54 20
q-39 0 -66.5 -27t-28.5 -67q-1 -29 20 -49t53 -20q39 0 66.5 26.5t28.5 66.5z" />
    <glyph glyph-name="seven" unicode="7" horiz-adv-x="549" 
d="M100 680h514l-24 -144l-368 -536h-212l356 513h-296z" />
    <glyph glyph-name="eight" unicode="8" horiz-adv-x="571" 
d="M587 476q-14 -83 -103 -131q83 -59 66 -158q-15 -86 -103.5 -144.5t-199.5 -58.5q-117 0 -188.5 66t-55.5 161q17 92 121 145q-71 53 -55 144q15 83 99 139.5t189 56.5q110 0 178 -64t52 -156zM336 529q-39 0 -65 -22.5t-26 -49.5q0 -23 19.5 -36t48.5 -13q39 0 64 22.5
t25 49.5q0 22 -18 35.5t-48 13.5zM268 147q42 0 69.5 24.5t27.5 54.5q0 25 -20.5 40t-53.5 15q-42 0 -70 -24t-28 -55q0 -25 21.5 -40t53.5 -15z" />
    <glyph glyph-name="nine" unicode="9" horiz-adv-x="610" 
d="M367 696q131 0 195.5 -99t35.5 -256q-29 -159 -131.5 -258t-232.5 -99q-72 0 -132 31.5t-87 83.5l140 102q7 -25 31.5 -39.5t56.5 -14.5q46 0 84.5 31t60.5 81q-55 -31 -122 -31q-101 0 -159.5 66t-39.5 168t105.5 168t194.5 66zM320 366q40 0 67.5 29t27.5 67
q0 33 -21 50t-51 17q-39 0 -67.5 -28t-28.5 -66q0 -31 20.5 -50t52.5 -19z" />
    <glyph glyph-name="colon" unicode=":" horiz-adv-x="296" 
d="M166 303q-47 0 -75 35t-20 84q7 39 41.5 66t75.5 27q46 0 73.5 -34.5t19.5 -82.5q-7 -40 -41 -67.5t-74 -27.5zM110 -15q-47 0 -75 35t-20 84q7 39 41.5 66t75.5 27q46 0 73.5 -34.5t19.5 -82.5q-7 -40 -41 -67.5t-74 -27.5z" />
    <glyph glyph-name="semicolon" unicode=";" horiz-adv-x="327" 
d="M166 303q-47 0 -75 35t-20 84q7 39 41.5 66t75.5 27q46 0 73.5 -34.5t19.5 -82.5q-7 -40 -41 -67.5t-74 -27.5zM82 167h193l-222 -317h-116z" />
    <glyph glyph-name="less" unicode="&#x3c;" horiz-adv-x="632" 
d="M633 600l-28 -166l-265 -94l231 -94l-28 -166l-477 200l20 120z" />
    <glyph glyph-name="equal" unicode="=" horiz-adv-x="632" 
d="M109 530h512l-26 -150h-512zM69 300h512l-27 -150h-512z" />
    <glyph glyph-name="greater" unicode="&#x3e;" horiz-adv-x="632" 
d="M121 600l477 -200l-20 -120l-547 -200l28 166l265 94l-231 94z" />
    <glyph glyph-name="question" unicode="?" horiz-adv-x="600" 
d="M351 215h-180l7 39q10 56 45 93t92 70q33 14 45 19.5t28 20t19 32.5q4 20 -12 30.5t-44 10.5q-40 0 -70 -25t-32 -58l-159 55q35 92 110.5 143.5t170.5 51.5q109 0 172 -59t45 -162q-10 -58 -49 -101t-116 -85q-35 -14 -50.5 -26.5t-19.5 -36.5zM229 -14q-47 0 -73.5 29
t-18.5 75q7 36 37.5 57.5t71.5 21.5q45 0 71.5 -29t19.5 -74q-6 -37 -37.5 -58.5t-70.5 -21.5z" />
    <glyph glyph-name="at" unicode="@" horiz-adv-x="914" 
d="M519 655q111 0 197.5 -56.5t125.5 -150.5t20 -200q-17 -94 -72.5 -150t-125.5 -56q-46 0 -86.5 25.5t-57.5 67.5q-16 -39 -52.5 -63t-83.5 -24q-75 0 -115.5 60t-24.5 149q15 80 71 132.5t124 52.5q73 0 104 -65l9 56h127l-37 -211q-12 -64 37 -64q31 0 54 28t32 82
q22 120 -52 205.5t-194 85.5q-129 0 -237.5 -94.5t-131.5 -226.5q-22 -123 50 -210t195 -87q118 0 222 85l62 -79q-130 -102 -285 -102q-170 0 -270 122.5t-70 294.5q19 107 88 197.5t169.5 143t207.5 52.5zM427 171q34 0 61 25t33 61q5 27 -10 44.5t-42 17.5q-33 0 -60 -25
t-33 -61q-5 -27 9 -44.5t42 -17.5z" />
    <glyph glyph-name="A" unicode="A" horiz-adv-x="743" 
d="M511 0l-27 117h-269l-68 -117h-193l404 680h173l168 -680h-188zM309 279h136l-39 167z" />
    <glyph glyph-name="B" unicode="B" horiz-adv-x="641" 
d="M553 339q59 -41 59 -117q0 -97 -76 -159.5t-183 -62.5h-347l120 680h328q88 0 143 -47t55 -124q0 -114 -99 -170zM410 518h-132l-13 -78l-6 -33h138q29 0 48.5 20t19.5 47q0 18 -14 31t-41 13zM362 163q29 0 49 20t20 45q0 21 -14.5 33.5t-42.5 12.5h-139l-11 -67l-8 -44
h146z" />
    <glyph glyph-name="C" unicode="C" horiz-adv-x="729" 
d="M583 418q-12 42 -50.5 66t-84.5 24q-75 0 -135 -60t-60 -138q0 -60 38 -99t98 -39q98 0 165 102l147 -107q-60 -86 -151 -134.5t-188 -48.5q-134 0 -220 86t-86 217q0 107 58 201.5t154 151t204 56.5q101 0 177.5 -52.5t108.5 -140.5z" />
    <glyph glyph-name="D" unicode="D" horiz-adv-x="724" 
d="M399 680q138 0 224.5 -81t86.5 -208q0 -107 -58 -197.5t-155 -142t-210 -51.5h-281l120 680h273zM310 177q88 0 148 56t60 140q0 63 -43.5 96.5t-116.5 33.5h-78l-58 -326h88z" />
    <glyph glyph-name="E" unicode="E" horiz-adv-x="570" 
d="M584 514h-303l-18 -101h200l-26 -146h-200l-18 -101h303l-29 -166h-487l120 680h487z" />
    <glyph glyph-name="F" unicode="F" horiz-adv-x="562" 
d="M584 517h-303l-20 -115h200l-27 -154h-200l-44 -248h-184l120 680h487z" />
    <glyph glyph-name="G" unicode="G" horiz-adv-x="759" 
d="M366 387h379l-10 -59q-26 -153 -133.5 -248.5t-249.5 -95.5q-135 0 -220.5 86t-85.5 214q0 164 125 288t289 124q97 0 171 -47t109 -127l-168 -83q-14 38 -53.5 59t-86.5 21q-83 0 -142.5 -62t-59.5 -150q0 -64 40 -104.5t110 -40.5q52 0 90 22.5t56 57.5h-185z" />
    <glyph glyph-name="H" unicode="H" horiz-adv-x="708" 
d="M546 680h188l-120 -680h-188l44 250h-232l-44 -250h-188l120 680h188l-44 -250h232z" />
    <glyph glyph-name="I" unicode="I" horiz-adv-x="301" 
d="M128 680h197l-120 -680h-197z" />
    <glyph glyph-name="J" unicode="J" horiz-adv-x="577" 
d="M417 680h193l-77 -437q-21 -115 -110.5 -187t-208.5 -72q-154 0 -244 121l144 112q35 -60 102 -60q51 0 85.5 33t44.5 89z" />
    <glyph glyph-name="K" unicode="K" horiz-adv-x="696" 
d="M781 680l-342 -297l221 -383h-217l-153 254l-61 -53l-35 -201h-188l120 680h188l-42 -239l272 239h237z" />
    <glyph glyph-name="L" unicode="L" horiz-adv-x="550" 
d="M230 175h286l-31 -175h-479l120 680h193z" />
    <glyph glyph-name="M" unicode="M" horiz-adv-x="909" 
d="M935 680l-120 -680h-171l70 400l-223 -400h-160l-83 406l-71 -406h-171l120 680h236l90 -438l244 438h239z" />
    <glyph glyph-name="N" unicode="N" horiz-adv-x="710" 
d="M555 680h181l-120 -680h-154l-212 361l-63 -361h-181l120 680h152l213 -361z" />
    <glyph glyph-name="O" unicode="O" horiz-adv-x="780" 
d="M352 -16q-135 0 -220.5 86t-85.5 216q0 108 58.5 203.5t154.5 151t203 55.5q133 0 218.5 -86t85.5 -216q0 -108 -58.5 -203t-154 -151t-201.5 -56zM381 172q76 0 131 60t55 140q0 60 -37.5 98t-96.5 38q-77 0 -133 -58.5t-56 -141.5q0 -60 38 -98t99 -38z" />
    <glyph glyph-name="P" unicode="P" horiz-adv-x="638" 
d="M455 680q89 0 145 -55.5t56 -140.5q0 -106 -81 -182.5t-192 -76.5h-152l-40 -225h-185l120 680h329zM385 390q36 0 60.5 22t24.5 55q0 23 -16.5 36.5t-46.5 13.5h-125l-13 -73l-9 -54h125z" />
    <glyph glyph-name="Q" unicode="Q" horiz-adv-x="784" 
d="M766 394q0 -33 -6 -66q-18 -101 -85 -184l55 -66l-128 -111l-57 68q-94 -51 -193 -51q-135 0 -220.5 86t-85.5 216q0 33 6 66q26 144 145 244t265 100q133 0 218.5 -86t85.5 -216zM470 390l90 -108q20 42 20 90q0 63 -40.5 104t-105.5 41q-82 0 -142.5 -61.5
t-60.5 -146.5q0 -64 41.5 -105t107.5 -41q26 0 53 8l-90 108z" />
    <glyph glyph-name="R" unicode="R" horiz-adv-x="648" 
d="M653 488q0 -75 -43 -136.5t-114 -92.5l104 -259h-200l-94 235h-78l-41 -235h-181l120 680h325q89 0 145.5 -54t56.5 -138zM278 517l-22 -127h125q36 0 60.5 22t24.5 55q0 23 -16.5 36.5t-46.5 13.5h-125z" />
    <glyph glyph-name="S" unicode="S" horiz-adv-x="600" 
d="M251 -16q-121 0 -196 55t-77 131l173 51q4 -32 34 -53t86 -21q43 0 75 15.5t32 40.5q0 6 -2.5 11.5t-8.5 9.5t-12 7.5t-16.5 6.5t-18.5 5.5t-22 6t-23 6.5q-103 25 -159 69.5t-56 122.5q0 112 88.5 180t215.5 68q111 0 179.5 -54t70.5 -132l-166 -51q-4 35 -33 55.5
t-74 20.5q-37 0 -63.5 -15.5t-26.5 -39.5q0 -16 16.5 -25.5t57.5 -23.5q8 -2 12 -4q51 -13 85 -26t71.5 -35t57 -55.5t19.5 -77.5q0 -114 -92.5 -181.5t-226.5 -67.5z" />
    <glyph glyph-name="T" unicode="T" horiz-adv-x="586" 
d="M639 680l-32 -180h-173l-88 -500h-194l88 500h-173l32 180h540z" />
    <glyph glyph-name="U" unicode="U" horiz-adv-x="683" 
d="M530 680h185l-68 -386q-25 -141 -119.5 -225.5t-225.5 -84.5q-136 0 -204 90t-44 232l66 374h184l-68 -384q-19 -131 82 -131q54 0 94.5 40t51.5 103z" />
    <glyph glyph-name="V" unicode="V" horiz-adv-x="710" 
d="M589 680h199l-386 -680h-183l-143 680h195l84 -419z" />
    <glyph glyph-name="W" unicode="W" horiz-adv-x="1079" 
d="M958 680h188l-321 -680h-207l-50 403l-192 -403h-208l-81 680h185l43 -432l207 432h186l54 -430z" />
    <glyph glyph-name="X" unicode="X" horiz-adv-x="720" 
d="M796 680l-289 -342l166 -338h-223l-97 203l-169 -203h-229l291 343l-165 337h223l95 -202l168 202h229z" />
    <glyph glyph-name="Y" unicode="Y" horiz-adv-x="712" 
d="M795 680l-339 -402l-49 -278h-189l49 282l-196 398h210l109 -230l189 230h216z" />
    <glyph glyph-name="Z" unicode="Z" horiz-adv-x="609" 
d="M640 680l-23 -135l-347 -373h298l-30 -172h-554l22 136l347 372h-280l31 172h536z" />
    <glyph glyph-name="bracketleft" unicode="[" horiz-adv-x="485" 
d="M313 539l-98 -558h163l-27 -151h-345l153 870h345l-28 -161h-163z" />
    <glyph glyph-name="backslash" unicode="\" horiz-adv-x="643" 
d="M382 -150h187l-302 980h-187z" />
    <glyph glyph-name="bracketright" unicode="]" horiz-adv-x="485" 
d="M274 539h-163l28 161h345l-153 -870h-345l27 151h163z" />
    <glyph glyph-name="asciicircum" unicode="^" horiz-adv-x="632" 
d="M587 322h-163l-63 174l-125 -174h-169l263 358h120z" />
    <glyph glyph-name="underscore" unicode="_" horiz-adv-x="676" 
d="M-81 -200l23 130h680l-23 -130h-680z" />
    <glyph glyph-name="a" unicode="a" horiz-adv-x="553" 
d="M317 515q103 0 160.5 -62t42.5 -164l-51 -289h-170l8 45q-77 -60 -159 -60q-63 0 -104 37t-41 97q0 148 202 186l145 26q-9 42 -60 42q-63 0 -123 -63l-103 96q43 47 112 78t141 31zM336 212l-106 -19q-27 -5 -43.5 -18t-16.5 -32q0 -26 41 -26q44 0 81.5 29.5t43.5 65.5
z" />
    <glyph glyph-name="b" unicode="b" horiz-adv-x="620" 
d="M402 515q86 0 139 -62.5t53 -159.5q0 -124 -78.5 -216t-189.5 -92q-97 0 -140 74l-10 -59h-176l123 700h176l-43 -244q62 59 146 59zM301 150q45 0 77 35t32 84q0 36 -19.5 58.5t-54.5 22.5q-43 0 -75.5 -31t-41.5 -73v-5q-2 -10 -2 -14q0 -35 24 -56t60 -21z" />
    <glyph glyph-name="c" unicode="c" horiz-adv-x="548" 
d="M366 216l154 -73q-43 -73 -116 -115.5t-155 -42.5q-103 0 -168.5 65.5t-65.5 163.5q0 123 94.5 212t217.5 89q84 0 145.5 -47t79.5 -121l-174 -50q-15 53 -71 53q-47 0 -81.5 -36.5t-34.5 -87.5q0 -34 21.5 -55t56.5 -21q30 0 56.5 19.5t40.5 46.5z" />
    <glyph glyph-name="d" unicode="d" horiz-adv-x="610" 
d="M469 700h176l-123 -700h-176l8 47q-59 -62 -148 -62q-86 0 -139 60t-53 154q0 123 81 219.5t191 96.5q92 0 138 -70zM279 150q43 0 74 31t38 75q2 12 2 18q0 34 -22 55t-57 21q-45 0 -79.5 -35t-34.5 -83q0 -36 21.5 -59t57.5 -23z" />
    <glyph glyph-name="e" unicode="e" horiz-adv-x="562" 
d="M539 302q0 -59 -20 -106h-329q7 -67 80 -67q72 0 120 60l111 -76q-40 -57 -109 -92.5t-145 -35.5q-104 0 -163.5 65t-59.5 161q0 122 89.5 213t212.5 91q99 0 156 -59.5t57 -153.5zM305 374q-66 0 -96 -66h165v3q0 29 -18.5 46t-50.5 17z" />
    <glyph glyph-name="f" unicode="f" horiz-adv-x="374" 
d="M372 564q-29 0 -44 -14t-20 -46l-1 -4h99l-26 -146h-98l-63 -354h-177l63 354h-75l26 146h75l5 31q16 89 66 129t145 40h94l-24 -136h-45z" />
    <glyph glyph-name="g" unicode="g" horiz-adv-x="620" 
d="M444 500h176l-82 -468q-20 -110 -111 -178.5t-206 -68.5q-74 0 -138 31t-103 82l122 89q19 -25 53.5 -38.5t69.5 -13.5q53 0 91.5 30.5t47.5 80.5l1 8q-61 -59 -148 -59q-86 0 -139 57.5t-53 150.5q0 123 80.5 217.5t190.5 94.5q92 0 138 -70zM290 150q41 0 71.5 29.5
t38.5 70.5l2 7q0 3 0.5 7.5t0.5 6.5q0 35 -24 57t-59 22q-46 0 -78 -35t-32 -83q0 -36 22 -59t58 -23z" />
    <glyph glyph-name="h" unicode="h" horiz-adv-x="596" 
d="M406 516q87 0 130 -67t26 -164l-50 -285h-176l47 265q8 36 -7.5 63.5t-49.5 27.5q-36 0 -66 -28t-38 -68l-1 -3v-1l-45 -256h-176l123 700h176l-44 -248q66 64 151 64z" />
    <glyph glyph-name="i" unicode="i" horiz-adv-x="288" 
d="M205 546q-41 0 -67.5 22.5t-26.5 60.5q0 46 31.5 73t78.5 27q40 0 66.5 -23t26.5 -61q0 -45 -32.5 -72t-76.5 -27zM98 500h180l-88 -500h-180z" />
    <glyph glyph-name="j" unicode="j" horiz-adv-x="296" 
d="M210 546q-41 0 -67.5 22.5t-26.5 60.5q0 46 31.5 73t78.5 27q40 0 66.5 -23t26.5 -61q0 -45 -32.5 -72t-76.5 -27zM16 6l87 494h180l-94 -531q-16 -89 -66 -129t-145 -40h-97l25 146h45q29 0 44 14t21 46z" />
    <glyph glyph-name="k" unicode="k" horiz-adv-x="583" 
d="M633 500l-239 -204l141 -296h-194l-88 176l-54 -46l-23 -130h-176l123 700h176l-62 -353l173 153h223z" />
    <glyph glyph-name="l" unicode="l" horiz-adv-x="278" 
d="M125 700h186l-123 -700h-186z" />
    <glyph glyph-name="m" unicode="m" horiz-adv-x="888" 
d="M702 516q86 0 127 -66t25 -165l-50 -285h-176l49 276q2 16 2 22q0 58 -51 58q-31 0 -56 -22.5t-34 -58.5l-48 -275h-176l49 277q9 79 -50 79q-31 0 -56 -23t-33 -59l-48 -274h-176l88 500h176l-10 -57q62 73 144 73q92 0 130 -88q29 39 75.5 63.5t98.5 24.5z" />
    <glyph glyph-name="n" unicode="n" horiz-adv-x="596" 
d="M406 516q87 0 130 -67t26 -164l-50 -285h-176l47 265q11 91 -58 91q-36 0 -65.5 -28t-37.5 -68l-46 -260h-176l88 500h176l-8 -48q64 64 150 64z" />
    <glyph glyph-name="o" unicode="o" horiz-adv-x="594" 
d="M259 -15q-103 0 -168.5 65.5t-65.5 163.5q0 123 94.5 212t217.5 89q101 0 166.5 -65t65.5 -163q0 -123 -94 -212.5t-216 -89.5zM283 150q45 0 77 35t32 85q0 35 -22 57.5t-57 22.5q-45 0 -78 -35t-33 -85q0 -35 23 -57.5t58 -22.5z" />
    <glyph glyph-name="p" unicode="p" horiz-adv-x="620" 
d="M404 515q86 0 139 -60t53 -154q0 -123 -81 -219.5t-191 -96.5q-92 0 -138 70l-45 -255h-176l123 700h176l-8 -47q59 62 148 62zM301 150q44 0 76.5 35t32.5 84q0 36 -20 58.5t-55 22.5q-44 0 -76.5 -31.5t-39.5 -74.5q-2 -12 -2 -17q0 -34 24 -55.5t60 -21.5z" />
    <glyph glyph-name="q" unicode="q" horiz-adv-x="620" 
d="M444 500h176l-123 -700h-176l43 244q-62 -59 -146 -59q-86 0 -139 62.5t-53 159.5q0 124 78.5 216t189.5 92q97 0 140 -74zM289 150q42 0 72 29.5t39 71.5l1 7q2 10 2 17q0 34 -22 54.5t-57 20.5q-44 0 -77 -33t-37 -79q-2 -38 20 -63t59 -25z" />
    <glyph glyph-name="r" unicode="r" horiz-adv-x="376" 
d="M260 453q65 63 144 63l-22 -170q-67 0 -107.5 -27t-50.5 -68l-44 -251h-180l88 500h180z" />
    <glyph glyph-name="s" unicode="s" horiz-adv-x="489" 
d="M450 167q0 -83 -75.5 -132.5t-174.5 -49.5q-92 0 -150 44t-63 115l144 26q5 -54 82 -54q34 0 53.5 8t19.5 20q0 9 -15.5 15.5t-47.5 13.5q-3 0 -4 0.5t-3 1t-4 0.5q-171 39 -171 160q0 82 70 131t165 49q88 0 142 -44.5t59 -114.5l-137 -26q-13 54 -73 54
q-27 0 -46.5 -9.5t-19.5 -22.5q0 -19 62 -31q35 -7 58.5 -14t57.5 -24t52.5 -46.5t18.5 -69.5z" />
    <glyph glyph-name="t" unicode="t" horiz-adv-x="399" 
d="M291 350l-26 -145q-3 -15 -3 -24q0 -15 8.5 -19.5t32.5 -4.5h53l-28 -157h-86q-163 0 -163 133q0 20 5 48l30 169h-74l26 150h74l20 114l186 51l-29 -165h99l-26 -150h-99z" />
    <glyph glyph-name="u" unicode="u" horiz-adv-x="596" 
d="M420 500h176l-88 -500h-176l8 48q-64 -64 -150 -64q-87 0 -130 67t-26 164l50 285h176l-47 -265q-5 -43 10 -67t49 -24q35 0 64.5 27.5t37.5 65.5z" />
    <glyph glyph-name="v" unicode="v" horiz-adv-x="564" 
d="M421 500h178l-268 -500h-184l-92 500h174l47 -280z" />
    <glyph glyph-name="w" unicode="w" horiz-adv-x="877" 
d="M740 500h171l-238 -500h-191l-36 288l-137 -288h-191l-62 500h167l29 -285l136 285h187l36 -285z" />
    <glyph glyph-name="x" unicode="x" horiz-adv-x="578" 
d="M621 500l-216 -253l124 -247h-197l-62 133l-110 -133h-203l216 253l-124 247h197l62 -133l110 133h203z" />
    <glyph glyph-name="y" unicode="y" horiz-adv-x="606" 
d="M459 500h181l-412 -700h-185l134 226l-129 474h185l70 -262z" />
    <glyph glyph-name="z" unicode="z" horiz-adv-x="457" 
d="M455 385l-23 -23l-203 -212h188l-26 -150h-410l19 115l34 35l192 200h-183l26 150h405z" />
    <glyph glyph-name="braceleft" unicode="{" horiz-adv-x="527" 
d="M451 700h105l-28 -161h-57q-33 0 -59 -17t-31 -45l-12 -68q-20 -118 -112 -151q79 -39 58 -156l-12 -68q-5 -28 11 -39t51 -11h65l-28 -162h-97q-102 0 -151 59.5t-32 160.5l13 69q6 36 -3.5 48t-47.5 12h-48l19 109h1l12 71h40q37 0 56 17.5t26 55.5l12 69
q18 100 82.5 153.5t166.5 53.5z" />
    <glyph glyph-name="bar" unicode="|" horiz-adv-x="270" 
d="M-7 -132l146 832h150l-146 -832h-150z" />
    <glyph glyph-name="braceright" unicode="}" horiz-adv-x="527" 
d="M495 351l-19 -108l-13 -72h-40q-37 0 -56 -17.5t-26 -54.5l-12 -69q-18 -101 -82.5 -154.5t-166.5 -53.5h-105l28 162h57q33 0 59 17t31 45l12 68q20 117 112 150q-79 41 -58 157l12 68q5 27 -11.5 38.5t-50.5 11.5h-65l28 161h97q102 0 151 -59t32 -160l-12 -69
q-7 -37 2.5 -49t47.5 -12h48z" />
    <glyph glyph-name="asciitilde" unicode="~" horiz-adv-x="611" 
d="M518 359l57 -56q-67 -107 -153 -107q-31 0 -56 9t-64 31q-56 33 -89 33q-22 0 -42 -11.5t-32 -24.5t-30 -36l-57 56q25 45 70.5 75.5t94.5 30.5q51 0 111 -35q21 -13 27.5 -16.5t20 -10t23 -8.5t20.5 -2q48 0 99 72z" />
    <glyph glyph-name="exclamdown" unicode="&#xa1;" horiz-adv-x="326" 
d="M186 332q-47 0 -73.5 29t-18.5 75q7 36 37.5 57.5t71.5 21.5q45 0 71.5 -29t19.5 -74q-6 -37 -37.5 -58.5t-70.5 -21.5zM91 285h156l-47 -465h-226z" />
    <glyph glyph-name="cent" unicode="&#xa2;" horiz-adv-x="548" 
d="M304 230q52 16 81 67l150 -69q-43 -73 -116 -115.5t-155 -42.5q-11 0 -17 1l-44 -122l-87 15l46 127q-72 31 -107.5 100.5t-20.5 155.5q19 106 108.5 179.5t199.5 73.5h3l43 120l88 -15l-44 -121q52 -20 87 -60t48 -92l-163 -46q-6 29 -27 45zM195 323q-9 -49 22 -78
l69 192q-34 -13 -59 -44t-32 -70z" />
    <glyph glyph-name="sterling" unicode="&#xa3;" horiz-adv-x="600" 
d="M373 166q24 0 48.5 19t34.5 45l130 -73q-31 -72 -95 -114.5t-139 -42.5h-366l29 166h33q52 0 62 60l7 41h-84l26 146h84l10 56q17 98 94 162.5t169 64.5q79 0 135.5 -48t61.5 -121l-161 -59q3 28 -11.5 45.5t-35.5 17.5q-25 0 -48.5 -21.5t-29.5 -52.5l-8 -44h171
l-26 -146h-170l-4 -21q-9 -50 -32 -80h115z" />
    <glyph glyph-name="currency" unicode="&#xa4;" horiz-adv-x="580" 
d="M486 314q-9 -51 -43 -93l60 -69l-64 -57l-61 71q-49 -26 -98 -26q-56 0 -99 32l-88 -77l-50 57l91 79q-24 47 -13 107q9 50 43 90l-60 70l64 57l61 -72q49 27 100 27q54 0 98 -31l87 76l50 -57l-90 -78q22 -48 12 -106zM278 223q44 0 82.5 33.5t47.5 81.5q7 38 -16 64
t-62 26q-46 0 -85 -33.5t-47 -80.5q-7 -39 16.5 -65t63.5 -26z" />
    <glyph glyph-name="yen" unicode="&#xa5;" horiz-adv-x="754" 
d="M776 680l-238 -282h83l-22 -125h-123l-7 -40h123l-22 -125h-123l-19 -108h-189l19 108h-128l22 125h128l7 40h-128l22 125h90l-139 282h210l79 -169l139 169h216z" />
    <glyph glyph-name="brokenbar" unicode="&#xa6;" horiz-adv-x="416" 
d="M185 719h125v-373h-125v373zM185 186h125v-372h-125v372z" />
    <glyph glyph-name="section" unicode="&#xa7;" horiz-adv-x="526" 
d="M310 502q26 -4 55.5 -12.5t71.5 -28t65 -56.5t14 -85q-8 -44 -40.5 -74.5t-75.5 -44.5q53 -49 39 -125q-12 -72 -77.5 -113t-152.5 -41t-142 44.5t-61 114.5l136 26q15 -54 76 -54q23 0 42.5 10t22.5 26q1 4 -2.5 7.5t-14.5 7t-19.5 6t-27.5 6.5q-26 4 -55.5 12.5t-71 28
t-64.5 56.5t-14 85q15 84 116 119q-52 49 -38 125q12 72 77.5 113t151.5 41q87 0 142 -44.5t61 -114.5l-136 -26q-15 54 -76 54q-23 0 -42.5 -10t-22.5 -26q-1 -4 2.5 -7.5t14.5 -7t18.5 -5.5t27.5 -7zM359 320q3 16 -18.5 24t-58.5 8q-41 0 -70.5 -15t-33.5 -39
q-4 -32 77 -32q41 0 70.5 15t33.5 39z" />
    <glyph glyph-name="copyright" unicode="&#xa9;" horiz-adv-x="815" 
d="M367 -34q-105 0 -184 51.5t-114.5 140.5t-16.5 194q27 152 152 257t279 105q157 0 248.5 -112.5t63.5 -273.5q-27 -151 -151.5 -256.5t-276.5 -105.5zM383 66q118 0 209.5 83.5t106.5 203.5q13 111 -53.5 186.5t-178.5 75.5q-119 0 -211 -83t-107 -203
q-14 -111 53.5 -187t180.5 -76zM492 293l72 -59q-67 -79 -164 -79q-80 0 -123 57.5t-29 139.5q13 73 70 123t131 50q49 0 88.5 -24.5t58.5 -64.5l-80 -39q-17 36 -65 36q-39 0 -71 -30.5t-40 -74.5q-6 -35 11.5 -58t50.5 -23q55 0 90 46z" />
    <glyph glyph-name="guillemotleft" unicode="&#xab;" horiz-adv-x="793" 
d="M456 465l-200 -186l132 -184h-188l-135 185l197 185h194zM757 465l-200 -186l132 -184h-188l-135 185l197 185h194z" />
    <glyph glyph-name="logicalnot" unicode="&#xac;" horiz-adv-x="620" 
d="M572 110h-97v215h-395v93h492v-308z" />
    <glyph glyph-name="registered" unicode="&#xae;" horiz-adv-x="540" 
d="M345 716q88 0 141 -65.5t37 -155.5q-14 -82 -83.5 -140.5t-152.5 -58.5q-90 0 -143 65.5t-37 157.5q15 81 84.5 139t153.5 58zM474 519q6 58 -33.5 101t-99.5 43q-67 0 -121.5 -50t-62.5 -118q-7 -60 32.5 -103t101.5 -43q67 0 121.5 50.5t61.5 119.5zM348 602
q29 0 45.5 -21t11.5 -51q-6 -35 -45 -46l31 -74h-46l-30 71h-34l-13 -71h-43l34 192h89zM365 544q1 6 -5 12t-16 6h-49l-2 -9l-6 -34h47q28 0 31 25z" />
    <glyph glyph-name="degree" unicode="&#xb0;" horiz-adv-x="477" 
d="M275 705h1q68 0 112.5 -46.5t44.5 -114.5q0 -74 -45.5 -117.5t-112.5 -43.5q-66 0 -111 43.5t-45 117.5q0 72 45.5 116.5t110.5 44.5zM276 645h-1q-35 0 -57.5 -28t-22.5 -73q0 -44 23 -72.5t59 -28.5t57.5 27.5t21.5 70.5q0 45 -20.5 74.5t-59.5 29.5z" />
    <glyph glyph-name="plusminus" unicode="&#xb1;" horiz-adv-x="632" 
d="M435 501h141l-26 -150h-141l-14 -80h-150l14 80h-141l26 150h141l17 95h150zM71 84l26 150h432l-26 -150h-432z" />
    <glyph glyph-name="paragraph" unicode="&#xb6;" horiz-adv-x="695" 
d="M433 -50h-107v324h-16q-74 0 -134.5 52t-60.5 152q1 111 84 173.5t259 62.5q111 0 160 -11v-753h-107v664h-78v-664z" />
    <glyph glyph-name="periodcentered" unicode="&#xb7;" horiz-adv-x="326" 
d="M159 174q-48 0 -76 35t-19 84q7 39 41 66t75 27q46 0 74 -34.5t19 -82.5q-7 -40 -40.5 -67.5t-73.5 -27.5z" />
    <glyph glyph-name="guillemotright" unicode="&#xbb;" horiz-adv-x="793" 
d="M302 465l135 -185l-197 -185h-194l201 186l-133 184h188zM603 465l135 -185l-197 -185h-194l201 186l-133 184h188z" />
    <glyph glyph-name="onequarter" unicode="&#xbc;" horiz-adv-x="971" 
d="M680 700l82 -58l-549 -662l-82 58zM136 240l50 291q-43 -35 -124 -35l12 111q71 6 103 25.5t39 62.5l123 -6l-79 -449h-124zM916 191l-19 -106h-57l-15 -85h-117l15 85h-203l16 99l180 265h131l-178 -258h72l18 100h117l-18 -100h58z" />
    <glyph glyph-name="onehalf" unicode="&#xbd;" horiz-adv-x="943" 
d="M680 700l82 -58l-549 -662l-82 58zM136 240l50 291q-43 -35 -124 -35l12 111q71 6 103 25.5t39 62.5l123 -6l-79 -449h-124zM900 305q-10 -56 -80 -120l-89 -75h142l-19 -110h-326l14 86l211 191q30 26 30 48q0 11 -8 17.5t-21 6.5q-26 0 -45 -24t-17 -55l-114 33
q11 67 64 111.5t119 44.5q68 0 109 -45.5t30 -108.5z" />
    <glyph glyph-name="threequarters" unicode="&#xbe;" horiz-adv-x="1069" 
d="M408 354q-12 -58 -64.5 -91t-119.5 -33q-72 0 -114.5 39t-43.5 102l114 22q-7 -24 6.5 -38t40.5 -14q30 0 48.5 15t18.5 32q0 14 -13 23.5t-36 9.5h-49l17 96h47q23 0 39 13t16 29q0 13 -10.5 22t-28.5 9q-25 0 -44.5 -17.5t-21.5 -39.5l-104 41q22 58 71 92t111 34
q72 0 115.5 -42t30.5 -103t-73 -91q62 -41 47 -110zM778 700l82 -58l-549 -662l-82 58zM1014 191l-19 -106h-57l-15 -85h-117l15 85h-203l16 99l180 265h131l-178 -258h72l18 100h117l-18 -100h58z" />
    <glyph glyph-name="questiondown" unicode="&#xbf;" horiz-adv-x="600" 
d="M371 515q47 0 73.5 -29t18.5 -75q-6 -36 -37 -57.5t-72 -21.5q-45 0 -71.5 29t-18.5 74q7 37 37.5 58.5t69.5 21.5zM249 286h180l-7 -39q-10 -56 -44.5 -93t-91.5 -70q-33 -13 -45.5 -19t-28.5 -20.5t-19 -32.5q-4 -20 12 -30.5t44 -10.5q40 0 70 24.5t33 58.5l159 -55
q-35 -92 -111 -143.5t-171 -51.5q-109 0 -172 59t-45 162q10 58 49 101t116 85q35 13 50.5 26t19.5 37z" />
    <glyph glyph-name="Agrave" unicode="&#xc0;" horiz-adv-x="743" 
d="M526 741h-121l-94 113l166 71zM511 0l-27 117h-269l-68 -117h-193l404 680h173l168 -680h-188zM309 279h136l-39 167z" />
    <glyph glyph-name="Aacute" unicode="&#xc1;" horiz-adv-x="743" 
d="M655 854l-134 -113h-127l113 184zM511 0l-27 117h-269l-68 -117h-193l404 680h173l168 -680h-188zM309 279h136l-39 167z" />
    <glyph glyph-name="Acircumflex" unicode="&#xc2;" horiz-adv-x="743" 
d="M469 797l-139 -83l-58 60l145 123h135l105 -123l-76 -60zM511 0l-27 117h-269l-68 -117h-193l404 680h173l168 -680h-188zM309 279h136l-39 167z" />
    <glyph glyph-name="Atilde" unicode="&#xc3;" horiz-adv-x="743" 
d="M416 778q-12 0 -22.5 -10.5t-13.5 -27.5l-101 12q4 60 47.5 103t93.5 43q25 0 46 -13t36 -26t25 -13q11 0 22 11t14 27l100 -12q-4 -61 -47 -103.5t-94 -42.5q-34 0 -64.5 26t-41.5 26zM511 0l-27 117h-269l-68 -117h-193l404 680h173l168 -680h-188zM309 279h136
l-39 167z" />
    <glyph glyph-name="Adieresis" unicode="&#xc4;" horiz-adv-x="743" 
d="M341 730q-47 0 -74 29t-19 75q7 36 37.5 57.5t71.5 21.5q45 0 72 -29t19 -74q-7 -37 -37.5 -58.5t-69.5 -21.5zM608 913q45 0 72 -29t19 -74q-7 -37 -37.5 -58.5t-69.5 -21.5q-47 0 -74 29t-19 75q7 36 37.5 57.5t71.5 21.5zM358 680h173l168 -680h-188l-27 117h-269
l-68 -117h-193zM309 279h136l-39 167z" />
    <glyph glyph-name="Aring" unicode="&#xc5;" horiz-adv-x="743" 
d="M511 0l-27 117h-269l-68 -117h-193l404 680h8q-30 39 -20 88q10 45 46.5 73.5t78.5 28.5q50 0 81 -38t21 -88q-7 -40 -41 -70l167 -674h-188zM463 789q-17 0 -27.5 -11.5t-8.5 -28.5q1 -11 9 -19t20 -8q16 0 26.5 12t8.5 29q-1 11 -9 18.5t-19 7.5zM309 279h136l-39 167z
" />
    <glyph glyph-name="AE" unicode="&#xc6;" horiz-adv-x="1006" 
d="M1020 514h-303l-18 -101h200l-26 -146h-200l-18 -101h303l-29 -166h-487l21 117h-240l-69 -118h-200l404 681h691zM491 279l42 235h-78l-137 -235h173z" />
    <glyph glyph-name="Ccedilla" unicode="&#xc7;" horiz-adv-x="729" 
d="M389 172q98 0 165 102l147 -107q-51 -73 -126 -120t-158 -59l-100 -163l-147 71l114 97q-103 24 -165.5 104t-62.5 190q0 107 58 201.5t154 151t204 56.5q101 0 177.5 -52.5t108.5 -140.5l-175 -85q-12 42 -50.5 66t-84.5 24q-75 0 -135 -60t-60 -138q0 -60 38 -99
t98 -39z" />
    <glyph glyph-name="Egrave" unicode="&#xc8;" horiz-adv-x="570" 
d="M435 741h-121l-94 113l166 71zM584 514h-303l-18 -101h200l-26 -146h-200l-18 -101h303l-29 -166h-487l120 680h487z" />
    <glyph glyph-name="Eacute" unicode="&#xc9;" horiz-adv-x="570" 
d="M564 854l-134 -113h-127l113 184zM584 514h-303l-18 -101h200l-26 -146h-200l-18 -101h303l-29 -166h-487l120 680h487z" />
    <glyph glyph-name="Ecircumflex" unicode="&#xca;" horiz-adv-x="570" 
d="M378 797l-139 -83l-58 60l145 123h135l105 -123l-76 -60zM584 514h-303l-18 -101h200l-26 -146h-200l-18 -101h303l-29 -166h-487l120 680h487z" />
    <glyph glyph-name="Edieresis" unicode="&#xcb;" horiz-adv-x="570" 
d="M250 730q-47 0 -74 29t-19 75q7 36 37.5 57.5t71.5 21.5q45 0 72 -29t19 -74q-7 -37 -37.5 -58.5t-69.5 -21.5zM501 730q-47 0 -74 29t-19 75q7 36 37.5 57.5t71.5 21.5q45 0 72 -29t19 -74q-7 -37 -37.5 -58.5t-69.5 -21.5zM584 514h-303l-18 -101h200l-26 -146h-200
l-18 -101h303l-29 -166h-487l120 680h487z" />
    <glyph glyph-name="Igrave" unicode="&#xcc;" horiz-adv-x="301" 
d="M255 925l49 -184h-121l-94 113zM128 680h197l-120 -680h-197z" />
    <glyph glyph-name="Iacute" unicode="&#xcd;" horiz-adv-x="301" 
d="M285 925l148 -71l-134 -113h-127zM128 680h197l-120 -680h-197z" />
    <glyph glyph-name="Icircumflex" unicode="&#xce;" horiz-adv-x="301" 
d="M330 897l105 -123l-76 -60l-112 83l-139 -83l-58 60l145 123h135zM8 0l120 680h197l-120 -680h-197z" />
    <glyph glyph-name="Idieresis" unicode="&#xcf;" horiz-adv-x="301" 
d="M119 730q-47 0 -74 29t-19 75q7 36 37.5 57.5t71.5 21.5q45 0 72 -29t19 -74q-7 -37 -37.5 -58.5t-69.5 -21.5zM370 730q-47 0 -74 29t-19 75q7 36 37.5 57.5t71.5 21.5q45 0 72 -29t19 -74q-7 -37 -37.5 -58.5t-69.5 -21.5zM128 680h197l-120 -680h-197z" />
    <glyph glyph-name="Eth" unicode="&#xd0;" horiz-adv-x="724" 
d="M399 680q138 0 224.5 -81t86.5 -208q0 -107 -58 -197.5t-155 -142t-210 -51.5h-281l48 270h-71l25 140h70l48 270h273zM310 177q88 0 148 56t60 140q0 63 -43.5 96.5t-116.5 33.5h-78l-17 -93h145l-25 -140h-144l-17 -93h88z" />
    <glyph glyph-name="Ntilde" unicode="&#xd1;" horiz-adv-x="710" 
d="M387 778q-12 0 -22.5 -10.5t-13.5 -27.5l-101 12q4 60 47.5 103t93.5 43q25 0 46 -13t36 -26t25 -13q11 0 22 11t14 27l100 -12q-4 -61 -47 -103.5t-94 -42.5q-34 0 -64.5 26t-41.5 26zM555 680h181l-120 -680h-154l-212 361l-63 -361h-181l120 680h152l213 -361z" />
    <glyph glyph-name="Ograve" unicode="&#xd2;" horiz-adv-x="780" 
d="M495 926l49 -184h-121l-94 113zM352 -16q-135 0 -220.5 86t-85.5 216q0 108 58.5 203.5t154.5 151t203 55.5q133 0 218.5 -86t85.5 -216q0 -108 -58.5 -203t-154 -151t-201.5 -56zM381 172q76 0 131 60t55 140q0 60 -37.5 98t-96.5 38q-77 0 -133 -58.5t-56 -141.5
q0 -60 38 -98t99 -38z" />
    <glyph glyph-name="Oacute" unicode="&#xd3;" horiz-adv-x="780" 
d="M525 926l148 -71l-134 -113h-127zM352 -16q-135 0 -220.5 86t-85.5 216q0 108 58.5 203.5t154.5 151t203 55.5q133 0 218.5 -86t85.5 -216q0 -108 -58.5 -203t-154 -151t-201.5 -56zM381 172q76 0 131 60t55 140q0 60 -37.5 98t-96.5 38q-77 0 -133 -58.5t-56 -141.5
q0 -60 38 -98t99 -38z" />
    <glyph glyph-name="Ocircumflex" unicode="&#xd4;" horiz-adv-x="780" 
d="M487 798l-139 -83l-58 60l145 123h135l105 -123l-76 -60zM462 696q133 0 218.5 -86t85.5 -216q0 -108 -58.5 -203t-154 -151t-201.5 -56q-135 0 -220.5 86t-85.5 216q0 108 58.5 203.5t154.5 151t203 55.5zM381 172q76 0 131 60t55 140q0 60 -37.5 98t-96.5 38
q-77 0 -133 -58.5t-56 -141.5q0 -60 38 -98t99 -38z" />
    <glyph glyph-name="Otilde" unicode="&#xd5;" horiz-adv-x="780" 
d="M581 885l100 -12q-4 -61 -47 -103.5t-94 -42.5q-34 0 -64.5 26t-41.5 26q-12 0 -22.5 -10.5t-13.5 -27.5l-101 12q4 60 47.5 103t93.5 43q25 0 46 -13t36 -26t25 -13q11 0 22 11t14 27zM352 -16q-135 0 -220.5 86t-85.5 216q0 108 58.5 203.5t154.5 151t203 55.5
q133 0 218.5 -86t85.5 -216q0 -108 -58.5 -203t-154 -151t-201.5 -56zM381 172q76 0 131 60t55 140q0 60 -37.5 98t-96.5 38q-77 0 -133 -58.5t-56 -141.5q0 -60 38 -98t99 -38z" />
    <glyph glyph-name="Odieresis" unicode="&#xd6;" horiz-adv-x="780" 
d="M359 731q-47 0 -74 29t-19 75q7 36 37.5 57.5t71.5 21.5q45 0 72 -29t19 -74q-7 -37 -37.5 -58.5t-69.5 -21.5zM610 731q-47 0 -74 29t-19 75q7 36 37.5 57.5t71.5 21.5q45 0 72 -29t19 -74q-7 -37 -37.5 -58.5t-69.5 -21.5zM352 -16q-135 0 -220.5 86t-85.5 216
q0 108 58.5 203.5t154.5 151t203 55.5q133 0 218.5 -86t85.5 -216q0 -108 -58.5 -203t-154 -151t-201.5 -56zM381 172q76 0 131 60t55 140q0 60 -37.5 98t-96.5 38q-77 0 -133 -58.5t-56 -141.5q0 -60 38 -98t99 -38z" />
    <glyph glyph-name="multiply" unicode="&#xd7;" horiz-adv-x="588" 
d="M566 468l-151 -129l106 -127l-122 -106l-106 128l-150 -128l-90 106l151 129l-106 127l122 106l106 -128l150 128z" />
    <glyph glyph-name="Oslash" unicode="&#xd8;" horiz-adv-x="780" 
d="M838 619l-103 -85q31 -64 31 -140q0 -108 -58.5 -203t-154 -151t-201.5 -56q-119 0 -201 69l-80 -66l-66 84l78 64q-37 68 -37 151q0 108 58.5 203.5t154.5 151t203 55.5q123 0 209 -76l101 83zM244 308q0 -21 4 -37l261 216q-34 21 -76 21q-77 0 -133 -58.5t-56 -141.5z
M567 372q0 8 -2 22l-251 -207q28 -15 67 -15q76 0 131 60t55 140z" />
    <glyph glyph-name="Ugrave" unicode="&#xd9;" horiz-adv-x="683" 
d="M446 925l49 -184h-121l-94 113zM530 680h185l-68 -386q-25 -141 -119.5 -225.5t-225.5 -84.5q-136 0 -204 90t-44 232l66 374h184l-68 -384q-19 -131 82 -131q54 0 94.5 40t51.5 103z" />
    <glyph glyph-name="Uacute" unicode="&#xda;" horiz-adv-x="683" 
d="M476 925l148 -71l-134 -113h-127zM530 680h185l-68 -386q-25 -141 -119.5 -225.5t-225.5 -84.5q-136 0 -204 90t-44 232l66 374h184l-68 -384q-19 -131 82 -131q54 0 94.5 40t51.5 103z" />
    <glyph glyph-name="Ucircumflex" unicode="&#xdb;" horiz-adv-x="683" 
d="M438 797l-139 -83l-58 60l145 123h135l105 -123l-76 -60zM530 680h185l-68 -386q-25 -141 -119.5 -225.5t-225.5 -84.5q-136 0 -204 90t-44 232l66 374h184l-68 -384q-19 -131 82 -131q54 0 94.5 40t51.5 103z" />
    <glyph glyph-name="Udieresis" unicode="&#xdc;" horiz-adv-x="683" 
d="M310 730q-47 0 -74 29t-19 75q7 36 37.5 57.5t71.5 21.5q45 0 72 -29t19 -74q-7 -37 -37.5 -58.5t-69.5 -21.5zM561 730q-47 0 -74 29t-19 75q7 36 37.5 57.5t71.5 21.5q45 0 72 -29t19 -74q-7 -37 -37.5 -58.5t-69.5 -21.5zM530 680h185l-68 -386
q-25 -141 -119.5 -225.5t-225.5 -84.5q-136 0 -204 90t-44 232l66 374h184l-68 -384q-19 -131 82 -131q54 0 94.5 40t51.5 103z" />
    <glyph glyph-name="Yacute" unicode="&#xdd;" horiz-adv-x="712" 
d="M629 854l-134 -113h-127l113 184zM795 680l-339 -402l-49 -278h-189l49 282l-196 398h210l109 -230l189 230h216z" />
    <glyph glyph-name="Thorn" unicode="&#xde;" horiz-adv-x="651" 
d="M435 568q100 0 157.5 -69t39.5 -169q-16 -92 -92.5 -154.5t-176.5 -62.5h-152l-20 -113h-185l36 204l64 364l20 112h185l-20 -112h144zM363 278q36 0 60.5 22t24.5 55q0 23 -16.5 36.5t-46.5 13.5h-123l-22 -127h123z" />
    <glyph glyph-name="germandbls" unicode="&#xdf;" horiz-adv-x="620" 
d="M610 478q-16 -83 -94 -130q74 -59 57 -155q-16 -91 -95.5 -149.5t-171.5 -58.5q-46 0 -64 11l23 172q14 -10 44 -10q34 0 59.5 21.5t26.5 46.5q1 21 -18 34t-51 13h-39l27 155h41q27 0 50 21t24 45q1 18 -14 28.5t-37 10.5q-34 0 -59.5 -26.5t-31.5 -64.5l-78 -444h-178
l80 456q19 110 99.5 180.5t185.5 70.5q103 0 167.5 -66.5t46.5 -160.5z" />
    <glyph glyph-name="agrave" unicode="&#xe0;" horiz-adv-x="553" 
d="M386 561h-121l-94 113l166 71zM317 515q103 0 160.5 -62t42.5 -164l-51 -289h-170l8 45q-77 -60 -159 -60q-63 0 -104 37t-41 97q0 148 202 186l145 26q-9 42 -60 42q-63 0 -123 -63l-103 96q43 47 112 78t141 31zM336 212l-106 -19q-27 -5 -43.5 -18t-16.5 -32
q0 -26 41 -26q44 0 81.5 29.5t43.5 65.5z" />
    <glyph glyph-name="aacute" unicode="&#xe1;" horiz-adv-x="553" 
d="M515 674l-134 -113h-127l113 184zM317 515q103 0 160.5 -62t42.5 -164l-51 -289h-170l8 45q-77 -60 -159 -60q-63 0 -104 37t-41 97q0 148 202 186l145 26q-9 42 -60 42q-63 0 -123 -63l-103 96q43 47 112 78t141 31zM336 212l-106 -19q-27 -5 -43.5 -18t-16.5 -32
q0 -26 41 -26q44 0 81.5 29.5t43.5 65.5z" />
    <glyph glyph-name="acircumflex" unicode="&#xe2;" horiz-adv-x="553" 
d="M329 617l-139 -83l-58 60l145 123h135l105 -123l-76 -60zM317 515q103 0 160.5 -62t42.5 -164l-51 -289h-170l8 45q-77 -60 -159 -60q-63 0 -104 37t-41 97q0 148 202 186l145 26q-9 42 -60 42q-63 0 -123 -63l-103 96q43 47 112 78t141 31zM336 212l-106 -19
q-27 -5 -43.5 -18t-16.5 -32q0 -26 41 -26q44 0 81.5 29.5t43.5 65.5z" />
    <glyph glyph-name="atilde" unicode="&#xe3;" horiz-adv-x="553" 
d="M276 598q-12 0 -22.5 -10.5t-13.5 -27.5l-101 12q4 60 47.5 103t93.5 43q25 0 46 -13t36 -26t25 -13q11 0 22 11t14 27l100 -12q-4 -61 -47 -103.5t-94 -42.5q-34 0 -64.5 26t-41.5 26zM317 515q103 0 160.5 -62t42.5 -164l-51 -289h-170l8 45q-77 -60 -159 -60
q-63 0 -104 37t-41 97q0 148 202 186l145 26q-9 42 -60 42q-63 0 -123 -63l-103 96q43 47 112 78t141 31zM336 212l-106 -19q-27 -5 -43.5 -18t-16.5 -32q0 -26 41 -26q44 0 81.5 29.5t43.5 65.5z" />
    <glyph glyph-name="adieresis" unicode="&#xe4;" horiz-adv-x="553" 
d="M201 550q-47 0 -74 29t-19 75q7 36 37.5 57.5t71.5 21.5q45 0 72 -29t19 -74q-7 -37 -37.5 -58.5t-69.5 -21.5zM468 733q45 0 72 -29t19 -74q-7 -37 -37.5 -58.5t-69.5 -21.5q-47 0 -74 29t-19 75q7 36 37.5 57.5t71.5 21.5zM317 515q103 0 160.5 -62t42.5 -164l-51 -289
h-170l8 45q-77 -60 -159 -60q-63 0 -104 37t-41 97q0 148 202 186l145 26q-9 42 -60 42q-63 0 -123 -63l-103 96q43 47 112 78t141 31zM336 212l-106 -19q-27 -5 -43.5 -18t-16.5 -32q0 -26 41 -26q44 0 81.5 29.5t43.5 65.5z" />
    <glyph glyph-name="aring" unicode="&#xe5;" horiz-adv-x="553" 
d="M324 541q-50 0 -81 38.5t-21 88.5q10 45 46.5 73.5t78.5 28.5q50 0 81 -38t21 -88q-8 -43 -44.5 -73t-80.5 -30zM339 689q-17 0 -27.5 -11.5t-8.5 -28.5q1 -11 9 -19t20 -8q16 0 26.5 12t8.5 29q-1 11 -9 18.5t-19 7.5zM317 515q103 0 160.5 -62t42.5 -164l-51 -289h-170
l8 45q-77 -60 -159 -60q-63 0 -104 37t-41 97q0 148 202 186l145 26q-9 42 -60 42q-63 0 -123 -63l-103 96q43 47 112 78t141 31zM336 212l-106 -19q-27 -5 -43.5 -18t-16.5 -32q0 -26 41 -26q44 0 81.5 29.5t43.5 65.5z" />
    <glyph glyph-name="ae" unicode="&#xe6;" horiz-adv-x="885" 
d="M861 291q0 -43 -19 -91h-332q1 -72 75 -72q77 0 125 60l114 -75q-40 -57 -109 -92.5t-145 -35.5q-124 0 -187 95q-37 -42 -91 -68.5t-117 -26.5q-83 0 -132.5 46t-36.5 120q22 122 199 154l145 26q-9 42 -60 42q-63 0 -123 -63l-103 96q43 47 112 78t141 31q97 0 156 -59
q80 59 179 59q101 0 155 -60.5t54 -163.5zM635 374q-65 0 -100 -66h164q2 31 -14.5 48.5t-49.5 17.5zM207 117q42 0 84.5 31t52.5 66l-111 -21q-52 -10 -63 -42q-5 -15 4.5 -24.5t32.5 -9.5z" />
    <glyph glyph-name="ccedilla" unicode="&#xe7;" horiz-adv-x="548" 
d="M269 150q30 0 56.5 19.5t40.5 46.5l154 -73q-36 -61 -95 -102t-127 -52l-101 -164l-147 71l119 101q-71 23 -112.5 81.5t-41.5 135.5q0 123 94.5 212t217.5 89q84 0 145.5 -47t79.5 -121l-174 -50q-15 53 -71 53q-47 0 -81.5 -36.5t-34.5 -87.5q0 -34 21.5 -55t56.5 -21z
" />
    <glyph glyph-name="egrave" unicode="&#xe8;" horiz-adv-x="562" 
d="M409 561h-121l-94 113l166 71zM539 302q0 -59 -20 -106h-329q7 -67 80 -67q72 0 120 60l111 -76q-40 -57 -109 -92.5t-145 -35.5q-104 0 -163.5 65t-59.5 161q0 122 89.5 213t212.5 91q99 0 156 -59.5t57 -153.5zM305 374q-66 0 -96 -66h165v3q0 29 -18.5 46t-50.5 17z
" />
    <glyph glyph-name="eacute" unicode="&#xe9;" horiz-adv-x="562" 
d="M538 674l-134 -113h-127l113 184zM539 302q0 -59 -20 -106h-329q7 -67 80 -67q72 0 120 60l111 -76q-40 -57 -109 -92.5t-145 -35.5q-104 0 -163.5 65t-59.5 161q0 122 89.5 213t212.5 91q99 0 156 -59.5t57 -153.5zM305 374q-66 0 -96 -66h165v3q0 29 -18.5 46t-50.5 17
z" />
    <glyph glyph-name="ecircumflex" unicode="&#xea;" horiz-adv-x="562" 
d="M352 617l-139 -83l-58 60l145 123h135l105 -123l-76 -60zM326 515q99 0 156 -59.5t57 -153.5q0 -59 -20 -106h-329q7 -67 80 -67q72 0 120 60l111 -76q-40 -57 -109 -92.5t-145 -35.5q-104 0 -163.5 65t-59.5 161q0 122 89.5 213t212.5 91zM305 374q-66 0 -96 -66h165v3
q0 29 -18.5 46t-50.5 17z" />
    <glyph glyph-name="edieresis" unicode="&#xeb;" horiz-adv-x="562" 
d="M224 550q-47 0 -74 29t-19 75q7 36 37.5 57.5t71.5 21.5q45 0 72 -29t19 -74q-7 -37 -37.5 -58.5t-69.5 -21.5zM491 733q45 0 72 -29t19 -74q-7 -37 -37.5 -58.5t-69.5 -21.5q-47 0 -74 29t-19 75q7 36 37.5 57.5t71.5 21.5zM326 515q99 0 156 -59.5t57 -153.5
q0 -59 -20 -106h-329q7 -67 80 -67q72 0 120 60l111 -76q-40 -57 -109 -92.5t-145 -35.5q-104 0 -163.5 65t-59.5 161q0 122 89.5 213t212.5 91zM305 374q-66 0 -96 -66h165v3q0 29 -18.5 46t-50.5 17z" />
    <glyph glyph-name="igrave" unicode="&#xec;" horiz-adv-x="264" 
d="M205 745l49 -184h-121l-94 113zM86 500h180l-88 -500h-180z" />
    <glyph glyph-name="iacute" unicode="&#xed;" horiz-adv-x="264" 
d="M235 745l148 -71l-134 -113h-127zM86 500h180l-88 -500h-180z" />
    <glyph glyph-name="icircumflex" unicode="&#xee;" horiz-adv-x="264" 
d="M280 717l105 -123l-76 -60l-112 83l-139 -83l-58 60l145 123h135zM-2 0l88 500h180l-88 -500h-180z" />
    <glyph glyph-name="idieresis" unicode="&#xef;" horiz-adv-x="264" 
d="M69 550q-47 0 -74 29t-19 75q7 36 37.5 57.5t71.5 21.5q45 0 72 -29t19 -74q-7 -37 -37.5 -58.5t-69.5 -21.5zM320 550q-47 0 -74 29t-19 75q7 36 37.5 57.5t71.5 21.5q45 0 72 -29t19 -74q-7 -37 -37.5 -58.5t-69.5 -21.5zM86 500h180l-88 -500h-180z" />
    <glyph glyph-name="eth" unicode="&#xf0;" horiz-adv-x="576" 
d="M552 563l-71 -24q80 -169 56 -305q-19 -106 -102 -177t-187 -71q-107 0 -169.5 72.5t-43.5 178.5q15 88 83.5 144.5t153.5 56.5q35 0 68 -12q-13 33 -25 55l-120 -41l-24 119l80 27q-16 22 -40 48l148 93q39 -48 61 -82l109 37zM356 237q1 27 -15.5 46t-44.5 20
q-33 1 -57.5 -25.5t-26.5 -64.5q-1 -28 15.5 -46.5t44.5 -19.5q34 -1 58.5 25.5t25.5 64.5z" />
    <glyph glyph-name="ntilde" unicode="&#xf1;" horiz-adv-x="596" 
d="M324 598q-12 0 -22.5 -10.5t-13.5 -27.5l-101 12q4 60 47.5 103t93.5 43q25 0 46 -13t36 -26t25 -13q11 0 22 11t14 27l100 -12q-4 -61 -47 -103.5t-94 -42.5q-34 0 -64.5 26t-41.5 26zM406 516q87 0 130 -67t26 -164l-50 -285h-176l47 265q11 91 -58 91q-36 0 -65.5 -28
t-37.5 -68l-46 -260h-176l88 500h176l-8 -48q64 64 150 64z" />
    <glyph glyph-name="ograve" unicode="&#xf2;" horiz-adv-x="594" 
d="M370 745l49 -184h-121l-94 113zM259 -15q-103 0 -168.5 65.5t-65.5 163.5q0 123 94.5 212t217.5 89q101 0 166.5 -65t65.5 -163q0 -123 -94 -212.5t-216 -89.5zM283 150q45 0 77 35t32 85q0 35 -22 57.5t-57 22.5q-45 0 -78 -35t-33 -85q0 -35 23 -57.5t58 -22.5z" />
    <glyph glyph-name="oacute" unicode="&#xf3;" horiz-adv-x="594" 
d="M400 745l148 -71l-134 -113h-127zM259 -15q-103 0 -168.5 65.5t-65.5 163.5q0 123 94.5 212t217.5 89q101 0 166.5 -65t65.5 -163q0 -123 -94 -212.5t-216 -89.5zM283 150q45 0 77 35t32 85q0 35 -22 57.5t-57 22.5q-45 0 -78 -35t-33 -85q0 -35 23 -57.5t58 -22.5z" />
    <glyph glyph-name="ocircumflex" unicode="&#xf4;" horiz-adv-x="594" 
d="M362 617l-139 -83l-58 60l145 123h135l105 -123l-76 -60zM337 515q101 0 166.5 -65t65.5 -163q0 -123 -94 -212.5t-216 -89.5q-103 0 -168.5 65.5t-65.5 163.5q0 123 94.5 212t217.5 89zM283 150q45 0 77 35t32 85q0 35 -22 57.5t-57 22.5q-45 0 -78 -35t-33 -85
q0 -35 23 -57.5t58 -22.5z" />
    <glyph glyph-name="otilde" unicode="&#xf5;" horiz-adv-x="594" 
d="M456 704l100 -12q-4 -61 -47 -103.5t-94 -42.5q-34 0 -64.5 26t-41.5 26q-12 0 -22.5 -10.5t-13.5 -27.5l-101 12q4 60 47.5 103t93.5 43q25 0 46 -13t36 -26t25 -13q11 0 22 11t14 27zM259 -15q-103 0 -168.5 65.5t-65.5 163.5q0 123 94.5 212t217.5 89q101 0 166.5 -65
t65.5 -163q0 -123 -94 -212.5t-216 -89.5zM283 150q45 0 77 35t32 85q0 35 -22 57.5t-57 22.5q-45 0 -78 -35t-33 -85q0 -35 23 -57.5t58 -22.5z" />
    <glyph glyph-name="odieresis" unicode="&#xf6;" horiz-adv-x="594" 
d="M234 550q-47 0 -74 29t-19 75q7 36 37.5 57.5t71.5 21.5q45 0 72 -29t19 -74q-7 -37 -37.5 -58.5t-69.5 -21.5zM485 550q-47 0 -74 29t-19 75q7 36 37.5 57.5t71.5 21.5q45 0 72 -29t19 -74q-7 -37 -37.5 -58.5t-69.5 -21.5zM259 -15q-103 0 -168.5 65.5t-65.5 163.5
q0 123 94.5 212t217.5 89q101 0 166.5 -65t65.5 -163q0 -123 -94 -212.5t-216 -89.5zM283 150q45 0 77 35t32 85q0 35 -22 57.5t-57 22.5q-45 0 -78 -35t-33 -85q0 -35 23 -57.5t58 -22.5z" />
    <glyph glyph-name="divide" unicode="&#xf7;" horiz-adv-x="632" 
d="M378 639q40 0 64 -30.5t17 -72.5q-6 -33 -35 -56.5t-63 -23.5q-41 0 -65.5 30.5t-17.5 73.5q5 33 34.5 56t65.5 23zM89 415h512l-26 -150h-512zM304 224q40 0 64.5 -31t17.5 -73q-6 -33 -35 -56t-63 -23q-41 0 -66 30.5t-18 72.5q6 34 35.5 57t64.5 23z" />
    <glyph glyph-name="oslash" unicode="&#xf8;" horiz-adv-x="594" 
d="M640 476l-97 -80q26 -49 26 -109q0 -123 -94 -212.5t-216 -89.5q-89 0 -153 51l-97 -80l-54 69l96 79q-26 50 -26 110q0 123 94.5 212t217.5 89q88 0 150 -51l98 81zM202 230v-1l141 116q-15 5 -30 5q-45 0 -78 -35t-33 -85zM392 270v2l-141 -116q15 -6 32 -6q45 0 77 35
t32 85z" />
    <glyph glyph-name="ugrave" unicode="&#xf9;" horiz-adv-x="596" 
d="M408 561h-121l-94 113l166 71zM420 500h176l-88 -500h-176l8 48q-64 -64 -150 -64q-87 0 -130 67t-26 164l50 285h176l-47 -265q-5 -43 10 -67t49 -24q35 0 64.5 27.5t37.5 65.5z" />
    <glyph glyph-name="uacute" unicode="&#xfa;" horiz-adv-x="596" 
d="M537 674l-134 -113h-127l113 184zM420 500h176l-88 -500h-176l8 48q-64 -64 -150 -64q-87 0 -130 67t-26 164l50 285h176l-47 -265q-5 -43 10 -67t49 -24q35 0 64.5 27.5t37.5 65.5z" />
    <glyph glyph-name="ucircumflex" unicode="&#xfb;" horiz-adv-x="596" 
d="M351 617l-139 -83l-58 60l145 123h135l105 -123l-76 -60zM420 500h176l-88 -500h-176l8 48q-64 -64 -150 -64q-87 0 -130 67t-26 164l50 285h176l-47 -265q-5 -43 10 -67t49 -24q35 0 64.5 27.5t37.5 65.5z" />
    <glyph glyph-name="udieresis" unicode="&#xfc;" horiz-adv-x="596" 
d="M223 550q-47 0 -74 29t-19 75q7 36 37.5 57.5t71.5 21.5q45 0 72 -29t19 -74q-7 -37 -37.5 -58.5t-69.5 -21.5zM474 550q-47 0 -74 29t-19 75q7 36 37.5 57.5t71.5 21.5q45 0 72 -29t19 -74q-7 -37 -37.5 -58.5t-69.5 -21.5zM420 500h176l-88 -500h-176l8 48
q-64 -64 -150 -64q-87 0 -130 67t-26 164l50 285h176l-47 -265q-5 -43 10 -67t49 -24q35 0 64.5 27.5t37.5 65.5z" />
    <glyph glyph-name="yacute" unicode="&#xfd;" horiz-adv-x="606" 
d="M555 674l-134 -113h-127l113 184zM459 500h181l-412 -700h-185l134 226l-129 474h185l70 -262z" />
    <glyph glyph-name="thorn" unicode="&#xfe;" horiz-adv-x="620" 
d="M404 515q86 0 139 -60t53 -154q0 -123 -81 -219.5t-191 -96.5q-92 0 -138 70l-45 -255h-176l158 900h176l-43 -247q59 62 148 62zM301 150q44 0 76.5 35t32.5 84q0 36 -20 58.5t-55 22.5q-44 0 -76.5 -31.5t-39.5 -74.5q-2 -12 -2 -17q0 -34 24 -55.5t60 -21.5z" />
    <glyph glyph-name="ydieresis" unicode="&#xff;" horiz-adv-x="606" 
d="M241 550q-47 0 -74 29t-19 75q7 36 37.5 57.5t71.5 21.5q45 0 72 -29t19 -74q-7 -37 -37.5 -58.5t-69.5 -21.5zM492 550q-47 0 -74 29t-19 75q7 36 37.5 57.5t71.5 21.5q45 0 72 -29t19 -74q-7 -37 -37.5 -58.5t-69.5 -21.5zM459 500h181l-412 -700h-185l134 226
l-129 474h185l70 -262z" />
    <glyph glyph-name="Amacron" unicode="&#x100;" horiz-adv-x="743" 
d="M657 870l-23 -130h-350l23 130h350zM511 0l-27 117h-269l-68 -117h-193l404 680h173l168 -680h-188zM309 279h136l-39 167z" />
    <glyph glyph-name="amacron" unicode="&#x101;" horiz-adv-x="553" 
d="M517 690l-23 -130h-350l23 130h350zM317 515q103 0 160.5 -62t42.5 -164l-51 -289h-170l8 45q-77 -60 -159 -60q-63 0 -104 37t-41 97q0 148 202 186l145 26q-9 42 -60 42q-63 0 -123 -63l-103 96q43 47 112 78t141 31zM336 212l-106 -19q-27 -5 -43.5 -18t-16.5 -32
q0 -26 41 -26q44 0 81.5 29.5t43.5 65.5z" />
    <glyph glyph-name="Abreve" unicode="&#x102;" horiz-adv-x="743" 
d="M469 736q-84 0 -128.5 46.5t-32.5 117.5l112 -12q-3 -23 10 -34t41 -11q36 0 57.5 16t24.5 41l115 -12q-13 -70 -67 -111t-132 -41zM511 0l-27 117h-269l-68 -117h-193l404 680h173l168 -680h-188zM309 279h136l-39 167z" />
    <glyph glyph-name="abreve" unicode="&#x103;" horiz-adv-x="553" 
d="M329 556q-84 0 -128.5 46.5t-32.5 117.5l112 -12q-3 -23 10 -34t41 -11q36 0 57.5 16t24.5 41l115 -12q-13 -70 -67 -111t-132 -41zM317 515q103 0 160.5 -62t42.5 -164l-51 -289h-170l8 45q-77 -60 -159 -60q-63 0 -104 37t-41 97q0 148 202 186l145 26q-9 42 -60 42
q-63 0 -123 -63l-103 96q43 47 112 78t141 31zM336 212l-106 -19q-27 -5 -43.5 -18t-16.5 -32q0 -26 41 -26q44 0 81.5 29.5t43.5 65.5z" />
    <glyph glyph-name="Aogonek" unicode="&#x104;" horiz-adv-x="743" 
d="M602 -102q0 -36 58 -5q11 5 23 13l-12 -111q-84 -35 -142.5 4.5t-44.5 111.5q9 49 62 89h-35l-27 117h-269l-68 -117h-193l404 680h173l168 -680q-97 -59 -97 -102zM309 279h136l-39 167z" />
    <glyph glyph-name="aogonek" unicode="&#x105;" horiz-adv-x="553" 
d="M317 515q103 0 160.5 -62t42.5 -164l-51 -289h-1q-97 -59 -97 -102q0 -36 58 -5q11 5 23 13l-12 -111q-84 -35 -142.5 4.5t-44.5 111.5q9 49 62 89h-16l8 45q-77 -60 -159 -60q-63 0 -104 37t-41 97q0 148 202 186l145 26q-9 42 -60 42q-63 0 -123 -63l-103 96
q43 47 112 78t141 31zM336 212l-106 -19q-27 -5 -43.5 -18t-16.5 -32q0 -26 41 -26q44 0 81.5 29.5t43.5 65.5z" />
    <glyph glyph-name="Cacute" unicode="&#x106;" horiz-adv-x="729" 
d="M534 926l148 -71l-134 -113h-127zM583 418q-12 42 -50.5 66t-84.5 24q-75 0 -135 -60t-60 -138q0 -60 38 -99t98 -39q98 0 165 102l147 -107q-60 -86 -151 -134.5t-188 -48.5q-134 0 -220 86t-86 217q0 107 58 201.5t154 151t204 56.5q101 0 177.5 -52.5t108.5 -140.5z
" />
    <glyph glyph-name="cacute" unicode="&#x107;" horiz-adv-x="548" 
d="M386 745l148 -71l-134 -113h-127zM366 216l154 -73q-43 -73 -116 -115.5t-155 -42.5q-103 0 -168.5 65.5t-65.5 163.5q0 123 94.5 212t217.5 89q84 0 145.5 -47t79.5 -121l-174 -50q-15 53 -71 53q-47 0 -81.5 -36.5t-34.5 -87.5q0 -34 21.5 -55t56.5 -21q30 0 56.5 19.5
t40.5 46.5z" />
    <glyph glyph-name="Cdotaccent" unicode="&#x10a;" horiz-adv-x="729" 
d="M493 731q-47 0 -74 29t-19 75q7 36 37.5 57.5t71.5 21.5q45 0 72 -29t19 -74q-7 -37 -37.5 -58.5t-69.5 -21.5zM583 418q-12 42 -50.5 66t-84.5 24q-75 0 -135 -60t-60 -138q0 -60 38 -99t98 -39q98 0 165 102l147 -107q-60 -86 -151 -134.5t-188 -48.5q-134 0 -220 86
t-86 217q0 107 58 201.5t154 151t204 56.5q101 0 177.5 -52.5t108.5 -140.5z" />
    <glyph glyph-name="cdotaccent" unicode="&#x10b;" horiz-adv-x="548" 
d="M345 550q-47 0 -74 29t-19 75q7 36 37.5 57.5t71.5 21.5q45 0 72 -29t19 -74q-7 -37 -37.5 -58.5t-69.5 -21.5zM366 216l154 -73q-43 -73 -116 -115.5t-155 -42.5q-103 0 -168.5 65.5t-65.5 163.5q0 123 94.5 212t217.5 89q84 0 145.5 -47t79.5 -121l-174 -50
q-15 53 -71 53q-47 0 -81.5 -36.5t-34.5 -87.5q0 -34 21.5 -55t56.5 -21q30 0 56.5 19.5t40.5 46.5z" />
    <glyph glyph-name="Ccaron" unicode="&#x10c;" horiz-adv-x="729" 
d="M554 741h-135l-105 123l76 60l112 -83l139 83l58 -60zM389 172q98 0 165 102l147 -107q-60 -86 -151 -134.5t-188 -48.5q-134 0 -220 86t-86 217q0 107 58 201.5t154 151t204 56.5q101 0 177.5 -52.5t108.5 -140.5l-175 -85q-12 42 -50.5 66t-84.5 24q-75 0 -135 -60
t-60 -138q0 -60 38 -99t98 -39z" />
    <glyph glyph-name="ccaron" unicode="&#x10d;" horiz-adv-x="548" 
d="M406 560h-135l-105 123l76 60l112 -83l139 83l58 -60zM269 150q30 0 56.5 19.5t40.5 46.5l154 -73q-43 -73 -116 -115.5t-155 -42.5q-103 0 -168.5 65.5t-65.5 163.5q0 123 94.5 212t217.5 89q84 0 145.5 -47t79.5 -121l-174 -50q-15 53 -71 53q-47 0 -81.5 -36.5
t-34.5 -87.5q0 -34 21.5 -55t56.5 -21z" />
    <glyph glyph-name="Dcaron" unicode="&#x10e;" horiz-adv-x="724" 
d="M482 740h-135l-105 123l76 60l112 -83l139 83l58 -60zM399 680q138 0 224.5 -81t86.5 -208q0 -107 -58 -197.5t-155 -142t-210 -51.5h-281l120 680h273zM310 177q88 0 148 56t60 140q0 63 -43.5 96.5t-116.5 33.5h-78l-58 -326h88z" />
    <glyph glyph-name="dcaron" unicode="&#x10f;" horiz-adv-x="813" 
d="M469 700h176l-123 -700h-176l8 47q-59 -62 -148 -62q-86 0 -139 60t-53 154q0 123 81 219.5t191 96.5q92 0 138 -70zM709 700h175l-151 -317h-106zM279 150q43 0 74 31t38 75q2 12 2 18q0 34 -22 55t-57 21q-45 0 -79.5 -35t-34.5 -83q0 -36 21.5 -59t57.5 -23z" />
    <glyph glyph-name="Dcroat" unicode="&#x110;" horiz-adv-x="724" 
d="M399 680q138 0 224.5 -81t86.5 -208q0 -107 -58 -197.5t-155 -142t-210 -51.5h-281l48 270h-71l25 140h70l48 270h273zM310 177q88 0 148 56t60 140q0 63 -43.5 96.5t-116.5 33.5h-78l-17 -93h145l-25 -140h-144l-17 -93h88z" />
    <glyph glyph-name="dcroat" unicode="&#x111;" horiz-adv-x="610" 
d="M703 654l-25 -119h-62l-94 -535h-176l8 47q-59 -62 -148 -62q-86 0 -139 60t-53 154q0 123 81 219.5t191 96.5q92 0 138 -70l16 90h-162l25 119h158l8 46h176l-8 -46h66zM279 150q43 0 74 31t38 75q2 12 2 18q0 34 -22 55t-57 21q-45 0 -79.5 -35t-34.5 -83
q0 -36 21.5 -59t57.5 -23z" />
    <glyph glyph-name="Emacron" unicode="&#x112;" horiz-adv-x="570" 
d="M566 870l-23 -130h-350l23 130h350zM584 514h-303l-18 -101h200l-26 -146h-200l-18 -101h303l-29 -166h-487l120 680h487z" />
    <glyph glyph-name="emacron" unicode="&#x113;" horiz-adv-x="562" 
d="M540 690l-23 -130h-350l23 130h350zM326 515q99 0 156 -59.5t57 -153.5q0 -59 -20 -106h-329q7 -67 80 -67q72 0 120 60l111 -76q-40 -57 -109 -92.5t-145 -35.5q-104 0 -163.5 65t-59.5 161q0 122 89.5 213t212.5 91zM305 374q-66 0 -96 -66h165v3q0 29 -18.5 46
t-50.5 17z" />
    <glyph glyph-name="Edotaccent" unicode="&#x116;" horiz-adv-x="570" 
d="M375 730q-47 0 -74 29t-19 75q7 36 37.5 57.5t71.5 21.5q45 0 72 -29t19 -74q-7 -37 -37.5 -58.5t-69.5 -21.5zM584 514h-303l-18 -101h200l-26 -146h-200l-18 -101h303l-29 -166h-487l120 680h487z" />
    <glyph glyph-name="edotaccent" unicode="&#x117;" horiz-adv-x="562" 
d="M349 550q-47 0 -74 29t-19 75q7 36 37.5 57.5t71.5 21.5q45 0 72 -29t19 -74q-7 -37 -37.5 -58.5t-69.5 -21.5zM539 302q0 -59 -20 -106h-329q7 -67 80 -67q72 0 120 60l111 -76q-40 -57 -109 -92.5t-145 -35.5q-104 0 -163.5 65t-59.5 161q0 122 89.5 213t212.5 91
q99 0 156 -59.5t57 -153.5zM305 374q-66 0 -96 -66h165v3q0 29 -18.5 46t-50.5 17z" />
    <glyph glyph-name="Eogonek" unicode="&#x118;" horiz-adv-x="570" 
d="M584 514h-303l-18 -101h200l-26 -146h-200l-18 -101h303l-29 -166h-1q-97 -59 -97 -102q0 -36 58 -5q11 5 23 13l-12 -111q-84 -35 -142.5 4.5t-44.5 111.5q9 49 62 89h-333l120 680h487z" />
    <glyph glyph-name="eogonek" unicode="&#x119;" horiz-adv-x="562" 
d="M539 302q0 -59 -20 -106h-329q7 -67 80 -67q72 0 120 60l111 -76q-48 -69 -130 -102q-63 -45 -63 -80q0 -36 58 -5q11 5 23 13l-12 -111q-84 -35 -142.5 4.5t-44.5 111.5q5 24 18 44q-87 12 -135.5 74.5t-48.5 148.5q0 122 89.5 213t212.5 91q99 0 156 -59.5t57 -153.5z
M305 374q-66 0 -96 -66h165v3q0 29 -18.5 46t-50.5 17z" />
    <glyph glyph-name="Ecaron" unicode="&#x11a;" horiz-adv-x="570" 
d="M436 740h-135l-105 123l76 60l112 -83l139 83l58 -60zM584 514h-303l-18 -101h200l-26 -146h-200l-18 -101h303l-29 -166h-487l120 680h487z" />
    <glyph glyph-name="ecaron" unicode="&#x11b;" horiz-adv-x="562" 
d="M410 560h-135l-105 123l76 60l112 -83l139 83l58 -60zM326 515q99 0 156 -59.5t57 -153.5q0 -59 -20 -106h-329q7 -67 80 -67q72 0 120 60l111 -76q-40 -57 -109 -92.5t-145 -35.5q-104 0 -163.5 65t-59.5 161q0 122 89.5 213t212.5 91zM305 374q-66 0 -96 -66h165v3
q0 29 -18.5 46t-50.5 17z" />
    <glyph glyph-name="Gbreve" unicode="&#x11e;" horiz-adv-x="759" 
d="M485 737q-84 0 -128.5 46.5t-32.5 117.5l112 -12q-3 -23 10 -34t41 -11q36 0 57.5 16t24.5 41l115 -12q-13 -70 -67 -111t-132 -41zM366 387h379l-10 -59q-26 -153 -133.5 -248.5t-249.5 -95.5q-135 0 -220.5 86t-85.5 214q0 164 125 288t289 124q97 0 171 -47t109 -127
l-168 -83q-14 38 -53.5 59t-86.5 21q-83 0 -142.5 -62t-59.5 -150q0 -64 40 -104.5t110 -40.5q52 0 90 22.5t56 57.5h-185z" />
    <glyph glyph-name="gbreve" unicode="&#x11f;" horiz-adv-x="620" 
d="M346 556q-84 0 -128.5 46.5t-32.5 117.5l112 -12q-3 -23 10 -34t41 -11q36 0 57.5 16t24.5 41l115 -12q-13 -70 -67 -111t-132 -41zM444 500h176l-82 -468q-20 -110 -111 -178.5t-206 -68.5q-74 0 -138 31t-103 82l122 89q19 -25 53.5 -38.5t69.5 -13.5q53 0 91.5 30.5
t47.5 80.5l1 8q-61 -59 -148 -59q-86 0 -139 57.5t-53 150.5q0 123 80.5 217.5t190.5 94.5q92 0 138 -70zM290 150q41 0 71.5 29.5t38.5 70.5l2 7q0 3 0.5 7.5t0.5 6.5q0 35 -24 57t-59 22q-46 0 -78 -35t-32 -83q0 -36 22 -59t58 -23z" />
    <glyph glyph-name="Gdotaccent" unicode="&#x120;" horiz-adv-x="759" 
d="M482 731q-47 0 -74 29t-19 75q7 36 37.5 57.5t71.5 21.5q45 0 72 -29t19 -74q-7 -37 -37.5 -58.5t-69.5 -21.5zM366 387h379l-10 -59q-26 -153 -133.5 -248.5t-249.5 -95.5q-135 0 -220.5 86t-85.5 214q0 164 125 288t289 124q97 0 171 -47t109 -127l-168 -83
q-14 38 -53.5 59t-86.5 21q-83 0 -142.5 -62t-59.5 -150q0 -64 40 -104.5t110 -40.5q52 0 90 22.5t56 57.5h-185z" />
    <glyph glyph-name="gdotaccent" unicode="&#x121;" horiz-adv-x="620" 
d="M343 550q-47 0 -74 29t-19 75q7 36 37.5 57.5t71.5 21.5q45 0 72 -29t19 -74q-7 -37 -37.5 -58.5t-69.5 -21.5zM444 500h176l-82 -468q-20 -110 -111 -178.5t-206 -68.5q-74 0 -138 31t-103 82l122 89q19 -25 53.5 -38.5t69.5 -13.5q53 0 91.5 30.5t47.5 80.5l1 8
q-61 -59 -148 -59q-86 0 -139 57.5t-53 150.5q0 123 80.5 217.5t190.5 94.5q92 0 138 -70zM290 150q41 0 71.5 29.5t38.5 70.5l2 7q0 3 0.5 7.5t0.5 6.5q0 35 -24 57t-59 22q-46 0 -78 -35t-32 -83q0 -36 22 -59t58 -23z" />
    <glyph glyph-name="Gcommaaccent" unicode="&#x122;" horiz-adv-x="759" 
d="M366 387h379l-10 -59q-26 -153 -133.5 -248.5t-249.5 -95.5q-135 0 -220.5 86t-85.5 214q0 164 125 288t289 124q97 0 171 -47t109 -127l-168 -83q-14 38 -53.5 59t-86.5 21q-83 0 -142.5 -62t-59.5 -150q0 -64 40 -104.5t110 -40.5q52 0 90 22.5t56 57.5h-185zM175 -279
l79 219h172l-152 -219h-99z" />
    <glyph glyph-name="gcommaaccent" unicode="&#x123;" horiz-adv-x="620" 
d="M494 774l-80 -229h-172l153 229h99zM444 500h176l-82 -468q-20 -110 -111 -178.5t-206 -68.5q-74 0 -138 31t-103 82l122 89q19 -25 53.5 -38.5t69.5 -13.5q53 0 91.5 30.5t47.5 80.5l1 8q-61 -59 -148 -59q-86 0 -139 57.5t-53 150.5q0 123 80.5 217.5t190.5 94.5
q92 0 138 -70zM290 150q41 0 71.5 29.5t38.5 70.5l2 7q0 3 0.5 7.5t0.5 6.5q0 35 -24 57t-59 22q-46 0 -78 -35t-32 -83q0 -36 22 -59t58 -23z" />
    <glyph glyph-name="Hbar" unicode="&#x126;" horiz-adv-x="708" 
d="M767 617l-24 -140h-45l-84 -477h-188l44 250h-232l-44 -250h-188l84 477h-57l24 140h58l11 63h188l-11 -63h232l11 63h188l-11 -63h44zM502 430l8 47h-232l-8 -47h232z" />
    <glyph glyph-name="hbar" unicode="&#x127;" horiz-adv-x="596" 
d="M406 516q87 0 130 -67t26 -164l-50 -285h-176l47 265q8 36 -7.5 63.5t-49.5 27.5q-36 0 -66 -28t-38 -68l-1 -3v-1l-45 -256h-176l95 539h-75l26 119h70l7 42h176l-7 -42h175l-27 -119h-169l-16 -87q66 64 151 64z" />
    <glyph glyph-name="Imacron" unicode="&#x12a;" horiz-adv-x="301" 
d="M85 870h350l-23 -130h-350zM128 680h197l-120 -680h-197z" />
    <glyph glyph-name="imacron" unicode="&#x12b;" horiz-adv-x="264" 
d="M35 690h350l-23 -130h-350zM86 500h180l-88 -500h-180z" />
    <glyph glyph-name="Iogonek" unicode="&#x12e;" horiz-adv-x="301" 
d="M128 680h197l-120 -680h-1q-97 -59 -97 -102q0 -36 58 -5l23 13l-12 -111q-84 -35 -142.5 4.5t-44.5 111.5q9 49 62 89h-43z" />
    <glyph glyph-name="iogonek" unicode="&#x12f;" horiz-adv-x="264" 
d="M210 733q45 0 72 -29t19 -74q-7 -37 -37.5 -58.5t-69.5 -21.5q-47 0 -74 29t-19 75q7 36 37.5 57.5t71.5 21.5zM-2 0l88 500h180l-88 -500h-1q-97 -59 -97 -102q0 -36 58 -5l23 13l-12 -111q-84 -35 -142.5 4.5t-44.5 111.5q9 49 62 89h-26z" />
    <glyph glyph-name="Idotaccent" unicode="&#x130;" horiz-adv-x="301" 
d="M244 730q-47 0 -74 29t-19 75q7 36 37.5 57.5t71.5 21.5q45 0 72 -29t19 -74q-7 -37 -37.5 -58.5t-69.5 -21.5zM128 680h197l-120 -680h-197z" />
    <glyph glyph-name="dotlessi" unicode="&#x131;" horiz-adv-x="264" 
d="M86 500h180l-88 -500h-180z" />
    <glyph glyph-name="Kcommaaccent" unicode="&#x136;" horiz-adv-x="696" 
d="M781 680l-342 -297l221 -383h-217l-153 254l-61 -53l-35 -201h-188l120 680h188l-42 -239l272 239h237zM142 -279l79 219h172l-152 -219h-99z" />
    <glyph glyph-name="kcommaaccent" unicode="&#x137;" horiz-adv-x="583" 
d="M633 500l-239 -204l141 -296h-194l-88 176l-54 -46l-23 -130h-176l123 700h176l-62 -353l173 153h223zM70 -279l79 219h172l-152 -219h-99z" />
    <glyph glyph-name="Lacute" unicode="&#x139;" horiz-adv-x="550" 
d="M414 854l-134 -113h-127l113 184zM230 175h286l-31 -175h-479l120 680h193z" />
    <glyph glyph-name="lacute" unicode="&#x13a;" horiz-adv-x="278" 
d="M277 945l148 -71l-134 -113h-127zM125 700h186l-123 -700h-186z" />
    <glyph glyph-name="Lcommaaccent" unicode="&#x13b;" horiz-adv-x="550" 
d="M230 175h286l-31 -175h-479l120 680h193zM77 -279l79 219h172l-152 -219h-99z" />
    <glyph glyph-name="lcommaaccent" unicode="&#x13c;" horiz-adv-x="278" 
d="M125 700h186l-123 -700h-186zM16 -60h172l-152 -219h-99z" />
    <glyph glyph-name="Lcaron" unicode="&#x13d;" horiz-adv-x="550" 
d="M682 700l-176 -317h-105l106 317h175zM319 680l-89 -505h286l-31 -175h-479l120 680h193z" />
    <glyph glyph-name="lcaron" unicode="&#x13e;" horiz-adv-x="484" 
d="M125 700h186l-123 -700h-186zM389 700h167l-158 -317h-100z" />
    <glyph glyph-name="Lslash" unicode="&#x141;" horiz-adv-x="550" 
d="M230 175h286l-31 -175h-479l35 199l-59 -29l-53 139l144 70l53 301h193l-35 -198l77 37l54 -139l-163 -79z" />
    <glyph glyph-name="lslash" unicode="&#x142;" horiz-adv-x="278" 
d="M369 393l-122 -60l-59 -333h-186l41 234l-45 -22l-47 120l120 59l54 309h186l-37 -210l47 23z" />
    <glyph glyph-name="Nacute" unicode="&#x143;" horiz-adv-x="710" 
d="M626 854l-134 -113h-127l113 184zM555 680h181l-120 -680h-154l-212 361l-63 -361h-181l120 680h152l213 -361z" />
    <glyph glyph-name="nacute" unicode="&#x144;" horiz-adv-x="596" 
d="M563 674l-134 -113h-127l113 184zM406 516q87 0 130 -67t26 -164l-50 -285h-176l47 265q11 91 -58 91q-36 0 -65.5 -28t-37.5 -68l-46 -260h-176l88 500h176l-8 -48q64 64 150 64z" />
    <glyph glyph-name="Ncommaaccent" unicode="&#x145;" horiz-adv-x="710" 
d="M555 680h181l-120 -680h-154l-212 361l-63 -361h-181l120 680h152l213 -361zM146 -279l79 219h172l-152 -219h-99z" />
    <glyph glyph-name="ncommaaccent" unicode="&#x146;" horiz-adv-x="596" 
d="M406 516q87 0 130 -67t26 -164l-50 -285h-176l47 265q11 91 -58 91q-36 0 -65.5 -28t-37.5 -68l-46 -260h-176l88 500h176l-8 -48q64 64 150 64zM110 -279l79 219h172l-152 -219h-99z" />
    <glyph glyph-name="Ncaron" unicode="&#x147;" horiz-adv-x="710" 
d="M498 740h-135l-105 123l76 60l112 -83l139 83l58 -60zM555 680h181l-120 -680h-154l-212 361l-63 -361h-181l120 680h152l213 -361z" />
    <glyph glyph-name="ncaron" unicode="&#x148;" horiz-adv-x="596" 
d="M435 560h-135l-105 123l76 60l112 -83l139 83l58 -60zM406 516q87 0 130 -67t26 -164l-50 -285h-176l47 265q11 91 -58 91q-36 0 -65.5 -28t-37.5 -68l-46 -260h-176l88 500h176l-8 -48q64 64 150 64z" />
    <glyph glyph-name="Eng" unicode="&#x14a;" horiz-adv-x="710" 
d="M736 680l-120 -680h-1l-5 -31q-16 -89 -66 -129t-145 -40h-97l25 146h45q29 0 44 14t21 46l5 28l-192 327l-63 -361h-181l120 680h152l213 -361l64 361h181z" />
    <glyph glyph-name="eng" unicode="&#x14b;" horiz-adv-x="596" 
d="M406 516q87 0 130 -68t26 -163l-8 -43h1l-24 -134l-19 -108l-6 -31q-16 -89 -66 -129t-145 -40h-97l25 146h45q58 0 69 60l19 106l27 153q8 42 -6 66.5t-46 24.5q-35 0 -66.5 -27t-42.5 -66l-46 -263h-176l88 500h176l-8 -48q64 64 150 64z" />
    <glyph glyph-name="Omacron" unicode="&#x14c;" horiz-adv-x="780" 
d="M325 871h350l-23 -130h-350zM352 -16q-135 0 -220.5 86t-85.5 216q0 108 58.5 203.5t154.5 151t203 55.5q133 0 218.5 -86t85.5 -216q0 -108 -58.5 -203t-154 -151t-201.5 -56zM381 172q76 0 131 60t55 140q0 60 -37.5 98t-96.5 38q-77 0 -133 -58.5t-56 -141.5
q0 -60 38 -98t99 -38z" />
    <glyph glyph-name="omacron" unicode="&#x14d;" horiz-adv-x="594" 
d="M200 690h350l-23 -130h-350zM259 -15q-103 0 -168.5 65.5t-65.5 163.5q0 123 94.5 212t217.5 89q101 0 166.5 -65t65.5 -163q0 -123 -94 -212.5t-216 -89.5zM283 150q45 0 77 35t32 85q0 35 -22 57.5t-57 22.5q-45 0 -78 -35t-33 -85q0 -35 23 -57.5t58 -22.5z" />
    <glyph glyph-name="Ohungarumlaut" unicode="&#x150;" horiz-adv-x="780" 
d="M443 926l132 -71l-122 -113h-116zM622 926l132 -71l-122 -113h-116zM352 -16q-135 0 -220.5 86t-85.5 216q0 108 58.5 203.5t154.5 151t203 55.5q133 0 218.5 -86t85.5 -216q0 -108 -58.5 -203t-154 -151t-201.5 -56zM381 172q76 0 131 60t55 140q0 60 -37.5 98t-96.5 38
q-77 0 -133 -58.5t-56 -141.5q0 -60 38 -98t99 -38z" />
    <glyph glyph-name="ohungarumlaut" unicode="&#x151;" horiz-adv-x="594" 
d="M318 745l132 -71l-122 -113h-116zM497 745l132 -71l-122 -113h-116zM259 -15q-103 0 -168.5 65.5t-65.5 163.5q0 123 94.5 212t217.5 89q101 0 166.5 -65t65.5 -163q0 -123 -94 -212.5t-216 -89.5zM283 150q45 0 77 35t32 85q0 35 -22 57.5t-57 22.5q-45 0 -78 -35
t-33 -85q0 -35 23 -57.5t58 -22.5z" />
    <glyph glyph-name="OE" unicode="&#x152;" horiz-adv-x="1070" 
d="M781 514l-16 -90v-11h198l-26 -146h-193l-12 -29l-13 -72h303l-29 -166h-487l3 18q-76 -34 -157 -34q-135 0 -220.5 86t-85.5 216q0 108 58.5 203.5t154.5 151t203 55.5q87 0 160 -41l4 25h487l-29 -166h-303zM381 172q76 0 131 60t55 140q0 60 -37.5 98t-96.5 38
q-77 0 -133 -58.5t-56 -141.5q0 -60 38 -98t99 -38z" />
    <glyph glyph-name="oe" unicode="&#x153;" horiz-adv-x="930" 
d="M907 302q0 -59 -20 -106h-329q7 -67 80 -67q72 0 120 60l111 -76q-40 -57 -109 -92.5t-145 -35.5q-104 0 -166 67q-86 -67 -190 -67q-103 0 -168.5 65.5t-65.5 163.5q0 123 94.5 212t217.5 89q104 0 170 -68q83 68 187 68q99 0 156 -59.5t57 -153.5zM673 374
q-66 0 -96 -66h165v3q0 29 -18.5 46t-50.5 17zM283 150q45 0 77 35t32 85q0 35 -22 57.5t-57 22.5q-45 0 -78 -35t-33 -85q0 -35 23 -57.5t58 -22.5z" />
    <glyph glyph-name="Racute" unicode="&#x154;" horiz-adv-x="648" 
d="M635 854l-134 -113h-127l113 184zM653 488q0 -75 -43 -136.5t-114 -92.5l104 -259h-200l-94 235h-78l-41 -235h-181l120 680h325q89 0 145.5 -54t56.5 -138zM278 517l-22 -127h125q36 0 60.5 22t24.5 55q0 23 -16.5 36.5t-46.5 13.5h-125z" />
    <glyph glyph-name="racute" unicode="&#x155;" horiz-adv-x="376" 
d="M418 674l-134 -113h-127l113 184zM268 500l-8 -47q65 63 144 63l-22 -170q-67 0 -107.5 -27t-50.5 -68l-44 -251h-180l88 500h180z" />
    <glyph glyph-name="Rcommaaccent" unicode="&#x156;" horiz-adv-x="648" 
d="M653 488q0 -75 -43 -136.5t-114 -92.5l104 -259h-200l-94 235h-78l-41 -235h-181l120 680h325q89 0 145.5 -54t56.5 -138zM278 517l-22 -127h125q36 0 60.5 22t24.5 55q0 23 -16.5 36.5t-46.5 13.5h-125zM150 -279l79 219h172l-152 -219h-99z" />
    <glyph glyph-name="rcommaaccent" unicode="&#x157;" horiz-adv-x="376" 
d="M260 453q65 63 144 63l-22 -170q-67 0 -107.5 -27t-50.5 -68l-44 -251h-180l88 500h180zM-87 -279l79 219h172l-152 -219h-99z" />
    <glyph glyph-name="Rcaron" unicode="&#x158;" horiz-adv-x="648" 
d="M507 740h-135l-105 123l76 60l112 -83l139 83l58 -60zM653 488q0 -75 -43 -136.5t-114 -92.5l104 -259h-200l-94 235h-78l-41 -235h-181l120 680h325q89 0 145.5 -54t56.5 -138zM278 517l-22 -127h125q36 0 60.5 22t24.5 55q0 23 -16.5 36.5t-46.5 13.5h-125z" />
    <glyph glyph-name="rcaron" unicode="&#x159;" horiz-adv-x="376" 
d="M290 560h-135l-105 123l76 60l112 -83l139 83l58 -60zM268 500l-8 -47q65 63 144 63l-22 -170q-67 0 -107.5 -27t-50.5 -68l-44 -251h-180l88 500h180z" />
    <glyph glyph-name="Sacute" unicode="&#x15a;" horiz-adv-x="600" 
d="M431 926l148 -71l-134 -113h-127zM251 -16q-121 0 -196 55t-77 131l173 51q4 -32 34 -53t86 -21q43 0 75 15.5t32 40.5q0 6 -2.5 11.5t-8.5 9.5t-12 7.5t-16.5 6.5t-18.5 5.5t-22 6t-23 6.5q-103 25 -159 69.5t-56 122.5q0 112 88.5 180t215.5 68q111 0 179.5 -54
t70.5 -132l-166 -51q-4 35 -33 55.5t-74 20.5q-37 0 -63.5 -15.5t-26.5 -39.5q0 -16 16.5 -25.5t57.5 -23.5q8 -2 12 -4q51 -13 85 -26t71.5 -35t57 -55.5t19.5 -77.5q0 -114 -92.5 -181.5t-226.5 -67.5z" />
    <glyph glyph-name="sacute" unicode="&#x15b;" horiz-adv-x="489" 
d="M342 745l148 -71l-134 -113h-127zM450 167q0 -83 -75.5 -132.5t-174.5 -49.5q-92 0 -150 44t-63 115l144 26q5 -54 82 -54q34 0 53.5 8t19.5 20q0 9 -15.5 15.5t-47.5 13.5q-3 0 -4 0.5t-3 1t-4 0.5q-171 39 -171 160q0 82 70 131t165 49q88 0 142 -44.5t59 -114.5
l-137 -26q-13 54 -73 54q-27 0 -46.5 -9.5t-19.5 -22.5q0 -19 62 -31q35 -7 58.5 -14t57.5 -24t52.5 -46.5t18.5 -69.5z" />
    <glyph glyph-name="Scedilla" unicode="&#x15e;" horiz-adv-x="600" 
d="M337 427q51 -13 85 -26t71.5 -35t57 -55.5t19.5 -77.5q0 -97 -68.5 -161t-176.5 -82l-101 -165l-147 71l109 93q-94 14 -150 65t-58 116l173 51q4 -32 34 -53t86 -21q43 0 75 15.5t32 40.5q0 6 -2.5 11.5t-8.5 9.5t-12 7.5t-16.5 6.5t-18.5 5.5t-22 6t-23 6.5
q-103 25 -159 69.5t-56 122.5q0 112 88.5 180t215.5 68q111 0 179.5 -54t70.5 -132l-166 -51q-4 35 -33 55.5t-74 20.5q-37 0 -63.5 -15.5t-26.5 -39.5q0 -16 16.5 -25.5t57.5 -23.5q8 -2 12 -4z" />
    <glyph glyph-name="scedilla" unicode="&#x15f;" horiz-adv-x="489" 
d="M263 321q35 -7 58.5 -14t57.5 -24t52.5 -46.5t18.5 -69.5q0 -67 -51 -113t-128 -62l-103 -167l-147 71l113 96q-65 14 -103.5 54.5t-43.5 97.5l144 26q5 -54 82 -54q34 0 53.5 8t19.5 20q0 9 -15.5 15.5t-47.5 13.5q-3 0 -4 0.5t-3 1t-4 0.5q-171 39 -171 160
q0 82 70 131t165 49q88 0 142 -44.5t59 -114.5l-137 -26q-13 54 -73 54q-27 0 -46.5 -9.5t-19.5 -22.5q0 -19 62 -31z" />
    <glyph glyph-name="Scaron" unicode="&#x160;" horiz-adv-x="600" 
d="M451 741h-135l-105 123l76 60l112 -83l139 83l58 -60zM337 427q51 -13 85 -26t71.5 -35t57 -55.5t19.5 -77.5q0 -114 -92.5 -181.5t-226.5 -67.5q-121 0 -196 55t-77 131l173 51q4 -32 34 -53t86 -21q43 0 75 15.5t32 40.5q0 6 -2.5 11.5t-8.5 9.5t-12 7.5t-16.5 6.5
t-18.5 5.5t-22 6t-23 6.5q-103 25 -159 69.5t-56 122.5q0 112 88.5 180t215.5 68q111 0 179.5 -54t70.5 -132l-166 -51q-4 35 -33 55.5t-74 20.5q-37 0 -63.5 -15.5t-26.5 -39.5q0 -16 16.5 -25.5t57.5 -23.5q8 -2 12 -4z" />
    <glyph glyph-name="scaron" unicode="&#x161;" horiz-adv-x="489" 
d="M362 560h-135l-105 123l76 60l112 -83l139 83l58 -60zM267 384q-27 0 -46.5 -9.5t-19.5 -22.5q0 -19 62 -31q35 -7 58.5 -14t57.5 -24t52.5 -46.5t18.5 -69.5q0 -83 -75.5 -132.5t-174.5 -49.5q-92 0 -150 44t-63 115l144 26q5 -54 82 -54q34 0 53.5 8t19.5 20
q0 9 -15.5 15.5t-47.5 13.5q-3 0 -4 0.5t-3 1t-4 0.5q-171 39 -171 160q0 82 70 131t165 49q88 0 142 -44.5t59 -114.5l-137 -26q-13 54 -73 54z" />
    <glyph glyph-name="uni0162" unicode="&#x162;" horiz-adv-x="586" 
d="M639 680l-32 -180h-173l-88 -500h-11l-113 -184l-147 71l133 113h-56l88 500h-173l32 180h540z" />
    <glyph glyph-name="uni0163" unicode="&#x163;" horiz-adv-x="399" 
d="M291 350l-26 -145q-3 -15 -3 -24q0 -15 8.5 -19.5t32.5 -4.5h53l-28 -157h-50l-107 -175l-147 71l133 113h11q-89 26 -89 124q0 20 5 48l30 169h-74l26 150h74l20 114l186 51l-29 -165h99l-26 -150h-99z" />
    <glyph glyph-name="Tcaron" unicode="&#x164;" horiz-adv-x="586" 
d="M448 740h-135l-105 123l76 60l112 -83l139 83l58 -60zM639 680l-32 -180h-173l-88 -500h-194l88 500h-173l32 180h540z" />
    <glyph glyph-name="tcaron" unicode="&#x165;" horiz-adv-x="399" 
d="M452 796h155l-156 -255h-94zM346 665l-29 -165h99l-26 -150h-99l-26 -145q-3 -15 -3 -24q0 -15 8.5 -19.5t32.5 -4.5h53l-28 -157h-86q-163 0 -163 133q0 20 5 48l30 169h-74l26 150h74l20 114z" />
    <glyph glyph-name="Tbar" unicode="&#x166;" horiz-adv-x="586" 
d="M607 500h-173l-11 -64h105l-25 -140h-105l-52 -296h-194l52 296h-101l25 140h101l11 64h-173l32 180h540z" />
    <glyph glyph-name="tbar" unicode="&#x167;" horiz-adv-x="399" 
d="M390 350h-99l-6 -32h100l-22 -123h-100q-1 -5 -1 -14q0 -15 8.5 -19.5t32.5 -4.5h53l-28 -157h-86q-163 0 -163 133q0 20 5 48l2 14h-74l22 123h74l6 32h-74l26 150h74l20 114l186 51l-29 -165h99z" />
    <glyph glyph-name="Umacron" unicode="&#x16a;" horiz-adv-x="683" 
d="M276 870h350l-23 -130h-350zM530 680h185l-68 -386q-25 -141 -119.5 -225.5t-225.5 -84.5q-136 0 -204 90t-44 232l66 374h184l-68 -384q-19 -131 82 -131q54 0 94.5 40t51.5 103z" />
    <glyph glyph-name="umacron" unicode="&#x16b;" horiz-adv-x="596" 
d="M539 690l-23 -130h-350l23 130h350zM420 500h176l-88 -500h-176l8 48q-64 -64 -150 -64q-87 0 -130 67t-26 164l50 285h176l-47 -265q-5 -43 10 -67t49 -24q35 0 64.5 27.5t37.5 65.5z" />
    <glyph glyph-name="Uring" unicode="&#x16e;" horiz-adv-x="683" 
d="M412 671q-50 0 -81 38.5t-21 88.5q10 45 46.5 73.5t78.5 28.5q50 0 81 -38t21 -88q-8 -43 -44.5 -73t-80.5 -30zM420 752q16 0 26.5 12t8.5 29q-1 11 -9 18.5t-19 7.5q-17 0 -27.5 -11.5t-8.5 -28.5q1 -11 9 -19t20 -8zM530 680h185l-68 -386q-25 -141 -119.5 -225.5
t-225.5 -84.5q-136 0 -204 90t-44 232l66 374h184l-68 -384q-19 -131 82 -131q54 0 94.5 40t51.5 103z" />
    <glyph glyph-name="uring" unicode="&#x16f;" horiz-adv-x="596" 
d="M384 521q-50 0 -81 38.5t-21 88.5q10 45 46.5 73.5t78.5 28.5q50 0 81 -38t21 -88q-8 -43 -44.5 -73t-80.5 -30zM399 669q-17 0 -27.5 -11.5t-8.5 -28.5q1 -11 9 -19t20 -8q16 0 26.5 12t8.5 29q-1 11 -9 18.5t-19 7.5zM420 500h176l-88 -500h-176l8 48q-64 -64 -150 -64
q-87 0 -130 67t-26 164l50 285h176l-47 -265q-5 -43 10 -67t49 -24q35 0 64.5 27.5t37.5 65.5z" />
    <glyph glyph-name="Uhungarumlaut" unicode="&#x170;" horiz-adv-x="683" 
d="M394 925l132 -71l-122 -113h-116zM573 925l132 -71l-122 -113h-116zM530 680h185l-68 -386q-25 -141 -119.5 -225.5t-225.5 -84.5q-136 0 -204 90t-44 232l66 374h184l-68 -384q-19 -131 82 -131q54 0 94.5 40t51.5 103z" />
    <glyph glyph-name="uhungarumlaut" unicode="&#x171;" horiz-adv-x="596" 
d="M439 674l-122 -113h-116l106 184zM496 561h-116l106 184l132 -71zM374 237l46 263h176l-88 -500h-176l8 48q-64 -64 -150 -64q-87 0 -130 67t-26 164l50 285h176l-47 -265q-5 -43 10 -67t49 -24q35 0 64.5 27.5t37.5 65.5z" />
    <glyph glyph-name="Uogonek" unicode="&#x172;" horiz-adv-x="683" 
d="M530 680h185l-68 -386q-20 -113 -86 -191t-161 -105q-87 -56 -87 -96q0 -36 58 -5q11 5 23 13l-12 -111q-84 -35 -142.5 4.5t-44.5 111.5q8 41 45 75q-107 20 -156.5 106t-29.5 210l66 374h184l-68 -384q-19 -131 82 -131q54 0 94.5 40t51.5 103z" />
    <glyph glyph-name="uogonek" unicode="&#x173;" horiz-adv-x="596" 
d="M420 500h176l-88 -500h-1q-97 -59 -97 -102q0 -36 58 -5q11 5 23 13l-12 -111q-84 -35 -142.5 4.5t-44.5 111.5q9 49 62 89h-22l8 48q-64 -64 -150 -64q-87 0 -130 67t-26 164l50 285h176l-47 -265q-5 -43 10 -67t49 -24q35 0 64.5 27.5t37.5 65.5z" />
    <glyph glyph-name="Wcircumflex" unicode="&#x174;" horiz-adv-x="1079" 
d="M637 797l-139 -83l-58 60l145 123h135l105 -123l-76 -60zM958 680h188l-321 -680h-207l-50 403l-192 -403h-208l-81 680h185l43 -432l207 432h186l54 -430z" />
    <glyph glyph-name="wcircumflex" unicode="&#x175;" horiz-adv-x="877" 
d="M504 617l-139 -83l-58 60l145 123h135l105 -123l-76 -60zM740 500h171l-238 -500h-191l-36 288l-137 -288h-191l-62 500h167l29 -285l136 285h187l36 -285z" />
    <glyph glyph-name="Ycircumflex" unicode="&#x176;" horiz-adv-x="712" 
d="M443 797l-139 -83l-58 60l145 123h135l105 -123l-76 -60zM795 680l-339 -402l-49 -278h-189l49 282l-196 398h210l109 -230l189 230h216z" />
    <glyph glyph-name="ycircumflex" unicode="&#x177;" horiz-adv-x="606" 
d="M369 617l-139 -83l-58 60l145 123h135l105 -123l-76 -60zM459 500h181l-412 -700h-185l134 226l-129 474h185l70 -262z" />
    <glyph glyph-name="Ydieresis" unicode="&#x178;" horiz-adv-x="712" 
d="M315 730q-47 0 -74 29t-19 75q7 36 37.5 57.5t71.5 21.5q45 0 72 -29t19 -74q-7 -37 -37.5 -58.5t-69.5 -21.5zM566 730q-47 0 -74 29t-19 75q7 36 37.5 57.5t71.5 21.5q45 0 72 -29t19 -74q-7 -37 -37.5 -58.5t-69.5 -21.5zM795 680l-339 -402l-49 -278h-189l49 282
l-196 398h210l109 -230l189 230h216z" />
    <glyph glyph-name="Zacute" unicode="&#x179;" horiz-adv-x="609" 
d="M588 854l-134 -113h-127l113 184zM640 680l-23 -135l-347 -373h298l-30 -172h-554l22 136l347 372h-280l31 172h536z" />
    <glyph glyph-name="zacute" unicode="&#x17a;" horiz-adv-x="457" 
d="M484 674l-134 -113h-127l113 184zM43 350l26 150h405l-19 -115l-23 -23l-203 -212h188l-26 -150h-410l19 115l34 35l192 200h-183z" />
    <glyph glyph-name="Zdotaccent" unicode="&#x17b;" horiz-adv-x="609" 
d="M399 730q-47 0 -74 29t-19 75q7 36 37.5 57.5t71.5 21.5q45 0 72 -29t19 -74q-7 -37 -37.5 -58.5t-69.5 -21.5zM640 680l-23 -135l-347 -373h298l-30 -172h-554l22 136l347 372h-280l31 172h536z" />
    <glyph glyph-name="zdotaccent" unicode="&#x17c;" horiz-adv-x="457" 
d="M295 550q-47 0 -74 29t-19 75q7 36 37.5 57.5t71.5 21.5q45 0 72 -29t19 -74q-7 -37 -37.5 -58.5t-69.5 -21.5zM455 385l-23 -23l-203 -212h188l-26 -150h-410l19 115l34 35l192 200h-183l26 150h405z" />
    <glyph glyph-name="Zcaron" unicode="&#x17d;" horiz-adv-x="609" 
d="M460 740h-135l-105 123l76 60l112 -83l139 83l58 -60zM640 680l-23 -135l-347 -373h298l-30 -172h-554l22 136l347 372h-280l31 172h536z" />
    <glyph glyph-name="zcaron" unicode="&#x17e;" horiz-adv-x="457" 
d="M356 560h-135l-105 123l76 60l112 -83l139 83l58 -60zM43 350l26 150h405l-19 -115l-23 -23l-203 -212h188l-26 -150h-410l19 115l34 35l192 200h-183z" />
    <glyph glyph-name="Scommaaccent" unicode="&#x218;" horiz-adv-x="600" 
d="M251 -16q-121 0 -196 55t-77 131l173 51q4 -32 34 -53t86 -21q43 0 75 15.5t32 40.5q0 6 -2.5 11.5t-8.5 9.5t-12 7.5t-16.5 6.5t-18.5 5.5t-22 6t-23 6.5q-103 25 -159 69.5t-56 122.5q0 112 88.5 180t215.5 68q111 0 179.5 -54t70.5 -132l-166 -51q-4 35 -33 55.5
t-74 20.5q-37 0 -63.5 -15.5t-26.5 -39.5q0 -16 16.5 -25.5t57.5 -23.5q8 -2 12 -4q51 -13 85 -26t71.5 -35t57 -55.5t19.5 -77.5q0 -114 -92.5 -181.5t-226.5 -67.5zM172 -60h172l-152 -219h-99z" />
    <glyph glyph-name="scommaaccent" unicode="&#x219;" horiz-adv-x="489" 
d="M450 167q0 -83 -75.5 -132.5t-174.5 -49.5q-92 0 -150 44t-63 115l144 26q5 -54 82 -54q34 0 53.5 8t19.5 20q0 9 -15.5 15.5t-47.5 13.5q-3 0 -4 0.5t-3 1t-4 0.5q-171 39 -171 160q0 82 70 131t165 49q88 0 142 -44.5t59 -114.5l-137 -26q-13 54 -73 54
q-27 0 -46.5 -9.5t-19.5 -22.5q0 -19 62 -31q35 -7 58.5 -14t57.5 -24t52.5 -46.5t18.5 -69.5zM116 -60h172l-152 -219h-99z" />
    <glyph glyph-name="uni021A" unicode="&#x21a;" horiz-adv-x="586" 
d="M639 680l-32 -180h-173l-88 -500h-194l88 500h-173l32 180h540zM91 -288l79 219h172l-152 -219h-99z" />
    <glyph glyph-name="uni021B" unicode="&#x21b;" horiz-adv-x="399" 
d="M291 350l-26 -145q-3 -15 -3 -24q0 -15 8.5 -19.5t32.5 -4.5h53l-28 -157h-86q-163 0 -163 133q0 20 5 48l30 169h-74l26 150h74l20 114l186 51l-29 -165h99l-26 -150h-99zM40 -279l79 219h172l-152 -219h-99z" />
    <glyph glyph-name="gravecomb" unicode="&#x300;" 
d="M-226 745l49 -184h-121l-94 113z" />
    <glyph glyph-name="acutecomb" unicode="&#x301;" 
d="M-186 745l148 -71l-134 -113h-127z" />
    <glyph glyph-name="uni0302" unicode="&#x302;" 
d="M-46 594l-76 -60l-112 83l-139 -83l-58 60l145 123h135z" />
    <glyph glyph-name="tildecomb" unicode="&#x303;" 
d="M-114 704l100 -12q-4 -61 -47 -103.5t-94 -42.5q-34 0 -64.5 26t-41.5 26q-12 0 -22.5 -10.5t-13.5 -27.5l-101 12q4 60 47.5 103t93.5 43q25 0 46 -13t36 -26t25 -13q11 0 22 11t14 27z" />
    <glyph glyph-name="uni0304" unicode="&#x304;" 
d="M-402 690h350l-23 -130h-350z" />
    <glyph glyph-name="uni0306" unicode="&#x306;" 
d="M-150 720l115 -12q-13 -70 -67 -111t-132 -41q-84 0 -128.5 46.5t-32.5 117.5l112 -12q-3 -23 10 -34t41 -11q36 0 57.5 16t24.5 41z" />
    <glyph glyph-name="uni0307" unicode="&#x307;" 
d="M-211 550q-47 0 -74 29t-19 75q7 36 37.5 57.5t71.5 21.5q45 0 72 -29t19 -74q-7 -37 -37.5 -58.5t-69.5 -21.5z" />
    <glyph glyph-name="uni0308" unicode="&#x308;" 
d="M-336 550q-47 0 -74 29t-19 75q7 36 37.5 57.5t71.5 21.5q45 0 72 -29t19 -74q-7 -37 -37.5 -58.5t-69.5 -21.5zM-85 550q-47 0 -74 29t-19 75q7 36 37.5 57.5t71.5 21.5q45 0 72 -29t19 -74q-7 -37 -37.5 -58.5t-69.5 -21.5z" />
    <glyph glyph-name="uni030A" unicode="&#x30a;" 
d="M-216 521q-50 0 -81 38.5t-21 88.5q10 45 46.5 73.5t78.5 28.5q50 0 81 -38t21 -88q-8 -43 -44.5 -73t-80.5 -30zM-208 602q16 0 26.5 12t8.5 29q-1 11 -9 18.5t-19 7.5q-17 0 -27.5 -11.5t-8.5 -28.5q1 -11 9 -19t20 -8z" />
    <glyph glyph-name="uni030B" unicode="&#x30b;" 
d="M-361 745l132 -71l-122 -113h-116zM-182 745l132 -71l-122 -113h-116z" />
    <glyph glyph-name="uni030C" unicode="&#x30c;" 
d="M-89 743l58 -60l-145 -123h-135l-105 123l76 60l112 -83z" />
    <glyph glyph-name="uni0312" unicode="&#x312;" 
d="M-332 545h-172l153 229h99z" />
    <glyph glyph-name="uni0326" unicode="&#x326;" 
d="M-588 -60h172l-152 -219h-99z" />
    <glyph glyph-name="uni0327" unicode="&#x327;" 
d="M-377 -175l-147 71l133 113h127z" />
    <glyph glyph-name="uni0328" unicode="&#x328;" 
d="M-198 -205q-84 -35 -142.5 4.5t-44.5 111.5q9 49 62 89h153q-97 -59 -97 -102q0 -36 58 -5l23 13z" />
    <glyph glyph-name="uni0335" unicode="&#x335;" 
d="M-504 395h400l-25 -140h-400z" />
    <glyph glyph-name="uni0336" unicode="&#x336;" 
d="M-632 383h710l-24 -140h-710z" />
    <glyph glyph-name="uni0337" unicode="&#x337;" 
d="M-490 533h420l-28 -160h-420z" />
    <glyph glyph-name="uni0338" unicode="&#x338;" 
d="M-283 720h125l-166 -940h-125z" />
    <glyph glyph-name="pi" unicode="&#x3c0;" horiz-adv-x="684" 
d="M682 385h-72l-39 -225q-18 -98 -16 -160h-165q-14 29 8 150l42 235h-128q-18 -89 -56.5 -206t-74.5 -179h-165q39 81 77.5 195t51.5 190q-69 0 -105 -9l2 104q48 37 198 37h479z" />
    <glyph glyph-name="Wgrave" unicode="&#x1e80;" horiz-adv-x="1079" 
d="M694 741h-121l-94 113l166 71zM958 680h188l-321 -680h-207l-50 403l-192 -403h-208l-81 680h185l43 -432l207 432h186l54 -430z" />
    <glyph glyph-name="wgrave" unicode="&#x1e81;" horiz-adv-x="877" 
d="M561 561h-121l-94 113l166 71zM740 500h171l-238 -500h-191l-36 288l-137 -288h-191l-62 500h167l29 -285l136 285h187l36 -285z" />
    <glyph glyph-name="Wacute" unicode="&#x1e82;" horiz-adv-x="1079" 
d="M823 854l-134 -113h-127l113 184zM958 680h188l-321 -680h-207l-50 403l-192 -403h-208l-81 680h185l43 -432l207 432h186l54 -430z" />
    <glyph glyph-name="wacute" unicode="&#x1e83;" horiz-adv-x="877" 
d="M690 674l-134 -113h-127l113 184zM740 500h171l-238 -500h-191l-36 288l-137 -288h-191l-62 500h167l29 -285l136 285h187l36 -285z" />
    <glyph glyph-name="Wdieresis" unicode="&#x1e84;" horiz-adv-x="1079" 
d="M509 730q-47 0 -74 29t-19 75q7 36 37.5 57.5t71.5 21.5q45 0 72 -29t19 -74q-7 -37 -37.5 -58.5t-69.5 -21.5zM760 730q-47 0 -74 29t-19 75q7 36 37.5 57.5t71.5 21.5q45 0 72 -29t19 -74q-7 -37 -37.5 -58.5t-69.5 -21.5zM958 680h188l-321 -680h-207l-50 403
l-192 -403h-208l-81 680h185l43 -432l207 432h186l54 -430z" />
    <glyph glyph-name="wdieresis" unicode="&#x1e85;" horiz-adv-x="877" 
d="M376 550q-47 0 -74 29t-19 75q7 36 37.5 57.5t71.5 21.5q45 0 72 -29t19 -74q-7 -37 -37.5 -58.5t-69.5 -21.5zM627 550q-47 0 -74 29t-19 75q7 36 37.5 57.5t71.5 21.5q45 0 72 -29t19 -74q-7 -37 -37.5 -58.5t-69.5 -21.5zM740 500h171l-238 -500h-191l-36 288
l-137 -288h-191l-62 500h167l29 -285l136 285h187l36 -285z" />
    <glyph glyph-name="Ygrave" unicode="&#x1ef2;" horiz-adv-x="712" 
d="M500 741h-121l-94 113l166 71zM795 680l-339 -402l-49 -278h-189l49 282l-196 398h210l109 -230l189 230h216z" />
    <glyph glyph-name="ygrave" unicode="&#x1ef3;" horiz-adv-x="606" 
d="M426 561h-121l-94 113l166 71zM459 500h181l-412 -700h-185l134 226l-129 474h185l70 -262z" />
    <glyph glyph-name="endash" unicode="&#x2013;" horiz-adv-x="642" 
d="M86 370h512l-30 -170h-512z" />
    <glyph glyph-name="emdash" unicode="&#x2014;" horiz-adv-x="934" 
d="M86 370h804l-30 -170h-804z" />
    <glyph glyph-name="quoteleft" unicode="&#x2018;" horiz-adv-x="340" 
d="M345 612q-49 0 -84 -45q31 -11 47 -39.5t10 -64.5q-7 -37 -38 -61t-72 -24q-53 0 -81.5 41.5t-18.5 104.5q14 78 86 132t160 54z" />
    <glyph glyph-name="quoteright" unicode="&#x2019;" horiz-adv-x="340" 
d="M236 710q53 0 81.5 -41.5t17.5 -104.5q-13 -78 -85 -132t-160 -54l9 98q49 0 84 45q-31 11 -47 39.5t-10 64.5q7 37 38 61t72 24z" />
    <glyph glyph-name="quotesinglbase" unicode="&#x201a;" horiz-adv-x="298" 
d="M82 167h193l-222 -317h-116z" />
    <glyph glyph-name="quotedblleft" unicode="&#x201c;" horiz-adv-x="593" 
d="M108 524q14 78 86 132t160 54l-9 -98q-49 0 -84 -45q31 -11 47 -39.5t10 -64.5q-7 -37 -38 -61t-72 -24q-53 0 -81.5 41.5t-18.5 104.5zM598 612q-49 0 -84 -45q31 -11 47 -39.5t10 -64.5q-7 -37 -38 -61t-72 -24q-53 0 -81.5 41.5t-18.5 104.5q14 78 86 132t160 54z" />
    <glyph glyph-name="quotedblright" unicode="&#x201d;" horiz-adv-x="593" 
d="M237 710q53 0 81.5 -41.5t17.5 -104.5q-13 -78 -85 -132t-160 -54l9 98q49 0 84 45q-31 11 -47 39.5t-10 64.5q7 37 38 61t72 24zM490 710q53 0 81.5 -41.5t17.5 -104.5q-13 -78 -85 -132t-160 -54l9 98q49 0 84 45q-31 11 -47 39.5t-10 64.5q7 37 38 61t72 24z" />
    <glyph glyph-name="quotedblbase" unicode="&#x201e;" horiz-adv-x="527" 
d="M82 167h193l-222 -317h-116zM311 167h193l-222 -317h-116z" />
    <glyph glyph-name="dagger" unicode="&#x2020;" horiz-adv-x="595" 
d="M299 710h158l-51 -207l198 12l-25 -141l-194 12l-62 -438h-158l92 438l-198 -12l25 141l193 -12z" />
    <glyph glyph-name="daggerdbl" unicode="&#x2021;" horiz-adv-x="595" 
d="M301 710h153l-45 -185l199 12l-24 -139l-195 13l-28 -160l199 13l-25 -139l-194 12l-22 -189h-152l44 189l-196 -12l25 139l191 -13l29 160l-197 -13l25 139l192 -12z" />
    <glyph glyph-name="bullet" unicode="&#x2022;" horiz-adv-x="546" 
d="M313 518q81 0 130 -60t34 -144q-13 -76 -77 -129t-139 -53q-81 0 -131 60.5t-34 145.5q13 75 77.5 127.5t139.5 52.5z" />
    <glyph glyph-name="ellipsis" unicode="&#x2026;" horiz-adv-x="844" 
d="M110 -15q-47 0 -75 35t-20 84q7 39 41.5 66t75.5 27q46 0 73.5 -34.5t19.5 -82.5q-7 -40 -41 -67.5t-74 -27.5zM384 -15q-47 0 -75 35t-20 84q7 39 41.5 66t75.5 27q46 0 73.5 -34.5t19.5 -82.5q-7 -40 -41 -67.5t-74 -27.5zM658 -15q-47 0 -75 35t-20 84q7 39 41.5 66
t75.5 27q46 0 73.5 -34.5t19.5 -82.5q-7 -40 -41 -67.5t-74 -27.5z" />
    <glyph glyph-name="perthousand" unicode="&#x2030;" horiz-adv-x="1292" 
d="M682 701l104 -74l-537 -648l-104 74zM282 696q76 0 121.5 -56t31.5 -135q-13 -71 -72 -120t-129 -49q-76 0 -122.5 56.5t-32.5 136.5q13 70 73 118.5t130 48.5zM278 584q-31 0 -58 -23.5t-33 -55.5q-4 -24 11 -40.5t40 -16.5q30 0 56.5 24t32.5 57q4 23 -10.5 39
t-38.5 16zM702 344q76 0 121.5 -56t31.5 -135q-13 -71 -72 -120t-129 -49q-76 0 -122.5 56.5t-32.5 136.5q13 70 73 118.5t130 48.5zM1092 344q76 0 121.5 -56t31.5 -135q-13 -71 -72 -120t-129 -49q-76 0 -122.5 56.5t-32.5 136.5q13 70 73 118.5t130 48.5zM698 232
q-31 0 -58.5 -23.5t-32.5 -55.5q-4 -24 11 -40.5t40 -16.5q30 0 56.5 24t32.5 57q4 23 -10.5 39t-38.5 16zM1088 232q-31 0 -58.5 -23.5t-32.5 -55.5q-4 -24 11 -40.5t40 -16.5q30 0 56.5 24t32.5 57q4 23 -10.5 39t-38.5 16z" />
    <glyph glyph-name="guilsinglleft" unicode="&#x2039;" horiz-adv-x="492" 
d="M456 465l-200 -186l132 -184h-188l-135 185l197 185h194z" />
    <glyph glyph-name="guilsinglright" unicode="&#x203a;" horiz-adv-x="492" 
d="M302 465l135 -185l-197 -185h-194l201 186l-133 184h188z" />
    <glyph glyph-name="fraction" unicode="&#x2044;" horiz-adv-x="187" 
d="M343 700l82 -58l-549 -662l-82 58z" />
    <glyph glyph-name="Euro" unicode="&#x20ac;" horiz-adv-x="589" 
d="M580 696l-22 -171q-123 0 -201 -65h158l-18 -100h-209q-6 -18 -8 -32q0 -2 -0.5 -4.5t-0.5 -3.5h211l-17 -100h-170q49 -65 181 -65l-22 -171q-146 0 -239 64.5t-117 171.5h-90l17 100h68q2 20 4 32q0 2 2 8h-67l18 100h84q56 107 171 171.5t267 64.5z" />
    <glyph glyph-name="afii61289" unicode="&#x2113;" horiz-adv-x="597" 
d="M499 207l57 -70q-112 -150 -278 -150q-168 0 -178 147q0 2 0.5 5t0.5 4q-2 -1 -24 -14.5t-34 -20.5l-28 83q18 12 53 34t50 32l39 219q24 136 92.5 204.5t165.5 68.5q85 0 119 -52t20 -132q-15 -84 -83.5 -164t-195.5 -172l-5 -31q-4 -36 16 -58t56 -22q76 0 157 89z
M323 502l-23 -132q58 51 96.5 103.5t45.5 95.5q13 71 -37 71q-57 0 -82 -138z" />
    <glyph glyph-name="trademark" unicode="&#x2122;" horiz-adv-x="608" 
d="M265 620h-77l-39 -222h-86l39 222h-77l14 80h240zM667 700l-53 -302h-76l30 176l-98 -176h-71l-37 184l-32 -184h-76l53 302h105l40 -195l108 195h107z" />
    <glyph glyph-name="Omega" unicode="&#x2126;" horiz-adv-x="804" 
d="M164 127l1 4q-49 42 -76 107t-12 149q22 129 135.5 219.5t269.5 90.5q81 0 143 -26.5t96.5 -70.5t48 -98.5t3.5 -111.5q-27 -157 -181 -259l-1 -4h150l-22 -127h-318l16 96q149 81 180 262q16 90 -20.5 150t-116.5 60q-79 0 -140 -59.5t-78 -155.5q-16 -93 9.5 -160
t79.5 -97l-17 -96h-319l22 127h147z" />
    <glyph glyph-name="estimated" unicode="&#x212e;" horiz-adv-x="937" 
d="M903 330h-640q-6 0 -6 -4v-194q0 -13 9 -22q102 -105 242 -105q153 0 255 118h57q-54 -64 -136.5 -101t-176.5 -37q-164 0 -279.5 104t-115.5 251t116 251.5t279 104.5q164 0 280 -104.5t116 -251.5v-10zM758 355v195q0 13 -10 23q-103 101 -240 101q-139 0 -241 -104
q-10 -9 -10 -24v-191q0 -6 6 -6h490q5 0 5 6z" />
    <glyph glyph-name="uni2150" unicode="&#x2150;" horiz-adv-x="953" 
d="M680 700l82 -58l-549 -662l-82 58zM136 240l50 291q-43 -35 -124 -35l12 111q71 6 103 25.5t39 62.5l123 -6l-79 -449h-124zM634 449h339l-15 -95l-243 -354h-141l236 339h-195z" />
    <glyph glyph-name="uni2151" unicode="&#x2151;" horiz-adv-x="978" 
d="M680 700l82 -58l-549 -662l-82 58zM136 240l50 291q-43 -35 -124 -35l12 111q71 6 103 25.5t39 62.5l123 -6l-79 -449h-124zM773 460q87 0 130.5 -65.5t24.5 -172.5q-20 -107 -86.5 -169.5t-150.5 -62.5q-50 0 -89.5 22.5t-56.5 55.5l90 64q11 -34 57 -34q30 0 55.5 19.5
t40.5 51.5q-33 -18 -75 -18q-68 0 -107 45.5t-26 113.5q13 66 68 108t125 42zM699 288q0 -24 14 -35t34 -11q28 0 45.5 20.5t15.5 45.5q-1 20 -15 31t-34 11q-26 0 -43 -18t-17 -44z" />
    <glyph glyph-name="uni2152" unicode="&#x2152;" horiz-adv-x="1294" 
d="M680 700l82 -58l-549 -662l-82 58zM136 240l50 291q-43 -35 -124 -35l12 111q71 6 103 25.5t39 62.5l123 -6l-79 -449h-124zM1058 460q86 0 129.5 -69.5t24.5 -177.5q-17 -99 -79 -161t-142 -62q-85 0 -129 69.5t-25 177.5q17 99 79.5 161t141.5 62zM556 367
q71 6 103 25.5t39 62.5l123 -6l-79 -449h-124l50 291q-43 -35 -124 -35zM1093 237q5 49 -8 77.5t-40 28.5q-33 0 -58 -36t-31 -94q-5 -49 8 -78t40 -28q33 1 58 37t31 93z" />
    <glyph glyph-name="uni2153" unicode="&#x2153;" horiz-adv-x="959" 
d="M680 700l82 -58l-549 -662l-82 58zM136 240l50 291q-43 -35 -124 -35l12 111q71 6 103 25.5t39 62.5l123 -6l-79 -449h-124zM916 315q-13 -61 -73 -91q62 -41 47 -110q-12 -58 -64.5 -91t-119.5 -33q-72 0 -114.5 39t-43.5 102l114 22q-7 -24 6.5 -38t40.5 -14
q30 0 48.5 15t18.5 32q0 14 -13 23.5t-36 9.5h-49l17 96h47q23 0 39 13t16 29q0 13 -10.5 22t-28.5 9q-25 0 -44.5 -17.5t-21.5 -39.5l-104 41q22 58 71 92t111 34q72 0 115.5 -42t30.5 -103z" />
    <glyph glyph-name="uni2154" unicode="&#x2154;" horiz-adv-x="1041" 
d="M762 700l82 -58l-549 -662l-82 58zM391 350l-19 -110h-326l14 86l211 191q30 26 30 48q0 11 -8 17.5t-21 6.5q-26 0 -45 -24t-17 -55l-114 33q11 67 64 111.5t119 44.5q68 0 109 -45.5t30 -108.5q-10 -56 -80 -120l-89 -75h142zM998 315q-13 -61 -73 -91q62 -41 47 -110
q-12 -58 -64.5 -91t-119.5 -33q-72 0 -114.5 39t-43.5 102l114 22q-7 -24 6.5 -38t40.5 -14q30 0 48.5 15t18.5 32q0 14 -13 23.5t-36 9.5h-49l17 96h47q23 0 39 13t16 29q0 13 -10.5 22t-28.5 9q-25 0 -44.5 -17.5t-21.5 -39.5l-104 41q22 58 71 92t111 34q72 0 115.5 -42
t30.5 -103z" />
    <glyph glyph-name="uni2155" unicode="&#x2155;" horiz-adv-x="980" 
d="M680 700l82 -58l-549 -662l-82 58zM136 240l50 291q-43 -35 -124 -35l12 111q71 6 103 25.5t39 62.5l123 -6l-79 -449h-124zM926 342h-189l-16 -48q30 11 58 11q66 0 108 -47t29 -114q-13 -65 -72.5 -109.5t-129.5 -44.5q-65 0 -108 40.5t-47 101.5l122 24q-3 -25 12 -40
t37 -15q27 0 47 20.5t20 45.5q0 20 -13.5 30.5t-31.5 10.5q-20 0 -38.5 -11.5t-25.5 -26.5l-107 45l78 234h286z" />
    <glyph glyph-name="uni2156" unicode="&#x2156;" horiz-adv-x="1062" 
d="M762 700l82 -58l-549 -662l-82 58zM391 350l-19 -110h-326l14 86l211 191q30 26 30 48q0 11 -8 17.5t-21 6.5q-26 0 -45 -24t-17 -55l-114 33q11 67 64 111.5t119 44.5q68 0 109 -45.5t30 -108.5q-10 -56 -80 -120l-89 -75h142zM1008 342h-189l-16 -48q30 11 58 11
q66 0 108 -47t29 -114q-13 -65 -72.5 -109.5t-129.5 -44.5q-65 0 -108 40.5t-47 101.5l122 24q-3 -25 12 -40t37 -15q27 0 47 20.5t20 45.5q0 20 -13.5 30.5t-31.5 10.5q-20 0 -38.5 -11.5t-25.5 -26.5l-107 45l78 234h286z" />
    <glyph glyph-name="uni2157" unicode="&#x2157;" horiz-adv-x="1078" 
d="M408 354q-12 -58 -64.5 -91t-119.5 -33q-72 0 -114.5 39t-43.5 102l114 22q-7 -24 6.5 -38t40.5 -14q30 0 48.5 15t18.5 32q0 14 -13 23.5t-36 9.5h-49l17 96h47q23 0 39 13t16 29q0 13 -10.5 22t-28.5 9q-25 0 -44.5 -17.5t-21.5 -39.5l-104 41q22 58 71 92t111 34
q72 0 115.5 -42t30.5 -103t-73 -91q62 -41 47 -110zM778 700l82 -58l-549 -662l-82 58zM1024 342h-189l-16 -48q30 11 58 11q66 0 108 -47t29 -114q-13 -65 -72.5 -109.5t-129.5 -44.5q-65 0 -108 40.5t-47 101.5l122 24q-3 -25 12 -40t37 -15q27 0 47 20.5t20 45.5
q0 20 -13.5 30.5t-31.5 10.5q-20 0 -38.5 -11.5t-25.5 -26.5l-107 45l78 234h286z" />
    <glyph glyph-name="uni2158" unicode="&#x2158;" horiz-adv-x="1110" 
d="M810 700l82 -58l-549 -662l-82 58zM363 240h-117l15 85h-203l16 99l180 265h131l-178 -258h72l18 100h117l-18 -100h58l-19 -106h-57zM1056 342h-189l-16 -48q30 11 58 11q66 0 108 -47t29 -114q-13 -65 -72.5 -109.5t-129.5 -44.5q-65 0 -108 40.5t-47 101.5l122 24
q-3 -25 12 -40t37 -15q27 0 47 20.5t20 45.5q0 20 -13.5 30.5t-31.5 10.5q-20 0 -38.5 -11.5t-25.5 -26.5l-107 45l78 234h286z" />
    <glyph glyph-name="uni2159" unicode="&#x2159;" horiz-adv-x="978" 
d="M680 700l82 -58l-549 -662l-82 58zM136 240l50 291q-43 -35 -124 -35l12 111q71 6 103 25.5t39 62.5l123 -6l-79 -449h-124zM781 299q68 0 107 -45.5t26 -113.5q-13 -65 -68.5 -107.5t-125.5 -42.5q-88 0 -131 66.5t-24 171.5q20 105 86.5 168.5t150.5 63.5
q50 0 89.5 -22t56.5 -56l-90 -63q-9 33 -56 33q-30 0 -56 -19.5t-41 -51.5q38 18 76 18zM732 100q27 0 45.5 19t18.5 45q0 21 -13.5 32.5t-33.5 11.5q-27 0 -45.5 -19t-18.5 -45q0 -21 13.5 -32.5t33.5 -11.5z" />
    <glyph glyph-name="uni215A" unicode="&#x215a;" horiz-adv-x="1077" 
d="M779 700l82 -58l-549 -662l-82 58zM424 384q-13 -65 -72.5 -109.5t-129.5 -44.5q-65 0 -108 40.5t-47 101.5l122 24q-3 -25 12 -40t37 -15q27 0 47 20.5t20 45.5q0 20 -13.5 30.5t-31.5 10.5q-20 0 -38.5 -11.5t-25.5 -26.5l-107 45l78 234h286l-19 -107h-189l-16 -48
q30 11 58 11q66 0 108 -47t29 -114zM880 299q68 0 107 -45.5t26 -113.5q-13 -65 -68.5 -107.5t-125.5 -42.5q-88 0 -131 66.5t-24 171.5q20 105 86.5 168.5t150.5 63.5q50 0 89.5 -22t56.5 -56l-90 -63q-9 33 -56 33q-30 0 -56 -19.5t-41 -51.5q38 18 76 18zM831 100
q27 0 45.5 19t18.5 45q0 21 -13.5 32.5t-33.5 11.5q-27 0 -45.5 -19t-18.5 -45q0 -21 13.5 -32.5t33.5 -11.5z" />
    <glyph glyph-name="oneeighth" unicode="&#x215b;" horiz-adv-x="978" 
d="M680 700l82 -58l-549 -662l-82 58zM136 240l50 291q-43 -35 -124 -35l12 111q71 6 103 25.5t39 62.5l123 -6l-79 -449h-124zM934 311q-11 -55 -68 -85q57 -39 44 -106q-12 -57 -68.5 -93.5t-126.5 -36.5q-81 0 -129.5 47t-35.5 107q13 62 80 93q-49 38 -36 98
q11 54 64.5 89.5t120.5 35.5q76 0 121.5 -45t33.5 -104zM769 350q-30 0 -45.5 -17.5t-13.5 -35.5q3 -27 43 -27q26 0 42.5 14.5t16.5 33.5q0 32 -43 32zM724 98q30 0 48 18t16 38q-3 32 -49 32q-30 0 -48 -18t-16 -38q1 -15 15 -23.5t34 -8.5z" />
    <glyph glyph-name="threeeighths" unicode="&#x215c;" horiz-adv-x="1076" 
d="M408 354q-12 -58 -64.5 -91t-119.5 -33q-72 0 -114.5 39t-43.5 102l114 22q-7 -24 6.5 -38t40.5 -14q30 0 48.5 15t18.5 32q0 14 -13 23.5t-36 9.5h-49l17 96h47q23 0 39 13t16 29q0 13 -10.5 22t-28.5 9q-25 0 -44.5 -17.5t-21.5 -39.5l-104 41q22 58 71 92t111 34
q72 0 115.5 -42t30.5 -103t-73 -91q62 -41 47 -110zM778 700l82 -58l-549 -662l-82 58zM1032 311q-11 -55 -68 -85q57 -39 44 -106q-12 -57 -68.5 -93.5t-126.5 -36.5q-81 0 -129.5 47t-35.5 107q13 62 80 93q-49 38 -36 98q11 54 64.5 89.5t120.5 35.5q76 0 121.5 -45
t33.5 -104zM867 350q-30 0 -45.5 -17.5t-13.5 -35.5q3 -27 43 -27q26 0 42.5 14.5t16.5 33.5q0 32 -43 32zM822 98q30 0 48 18t16 38q-3 32 -49 32q-30 0 -48 -18t-16 -38q1 -15 15 -23.5t34 -8.5z" />
    <glyph glyph-name="fiveeighths" unicode="&#x215d;" horiz-adv-x="1077" 
d="M779 700l82 -58l-549 -662l-82 58zM424 384q-13 -65 -72.5 -109.5t-129.5 -44.5q-65 0 -108 40.5t-47 101.5l122 24q-3 -25 12 -40t37 -15q27 0 47 20.5t20 45.5q0 20 -13.5 30.5t-31.5 10.5q-20 0 -38.5 -11.5t-25.5 -26.5l-107 45l78 234h286l-19 -107h-189l-16 -48
q30 11 58 11q66 0 108 -47t29 -114zM1033 311q-11 -55 -68 -85q57 -39 44 -106q-12 -57 -68.5 -93.5t-126.5 -36.5q-81 0 -129.5 47t-35.5 107q13 62 80 93q-49 38 -36 98q11 54 64.5 89.5t120.5 35.5q76 0 121.5 -45t33.5 -104zM868 350q-30 0 -45.5 -17.5t-13.5 -35.5
q3 -27 43 -27q26 0 42.5 14.5t16.5 33.5q0 32 -43 32zM823 98q30 0 48 18t16 38q-3 32 -49 32q-30 0 -48 -18t-16 -38q1 -15 15 -23.5t34 -8.5z" />
    <glyph glyph-name="seveneighths" unicode="&#x215e;" horiz-adv-x="1070" 
d="M772 700l82 -58l-549 -662l-82 58zM233 240h-141l236 339h-195l19 110h339l-15 -95zM1026 311q-11 -55 -68 -85q57 -39 44 -106q-12 -57 -68.5 -93.5t-126.5 -36.5q-81 0 -129.5 47t-35.5 107q13 62 80 93q-49 38 -36 98q11 54 64.5 89.5t120.5 35.5q76 0 121.5 -45
t33.5 -104zM861 350q-30 0 -45.5 -17.5t-13.5 -35.5q3 -27 43 -27q26 0 42.5 14.5t16.5 33.5q0 32 -43 32zM816 98q30 0 48 18t16 38q-3 32 -49 32q-30 0 -48 -18t-16 -38q1 -15 15 -23.5t34 -8.5z" />
    <glyph glyph-name="uni215F" unicode="&#x215f;" horiz-adv-x="524" 
d="M680 700l82 -58l-549 -662l-82 58zM136 240l50 291q-43 -35 -124 -35l12 111q71 6 103 25.5t39 62.5l123 -6l-79 -449h-124z" />
    <glyph glyph-name="uni2189" unicode="&#x2189;" horiz-adv-x="1092" 
d="M460 453q-17 -99 -79 -161t-142 -62q-85 0 -129 69.5t-25 177.5q17 99 79.5 161t141.5 62q86 0 129.5 -69.5t24.5 -177.5zM813 700l82 -58l-549 -662l-82 58zM341 477q5 49 -8 77.5t-40 28.5q-33 0 -58 -36t-31 -94q-5 -49 8 -78t40 -28q33 1 58 37t31 93zM1049 315
q-13 -61 -73 -91q62 -41 47 -110q-12 -58 -64.5 -91t-119.5 -33q-72 0 -114.5 39t-43.5 102l114 22q-7 -24 6.5 -38t40.5 -14q30 0 48.5 15t18.5 32q0 14 -13 23.5t-36 9.5h-49l17 96h47q23 0 39 13t16 29q0 13 -10.5 22t-28.5 9q-25 0 -44.5 -17.5t-21.5 -39.5l-104 41
q22 58 71 92t111 34q72 0 115.5 -42t30.5 -103z" />
    <glyph glyph-name="partialdiff" unicode="&#x2202;" horiz-adv-x="648" 
d="M170 596l-27 114q102 61 228 61q140 0 213.5 -103t42.5 -277q-32 -183 -141.5 -293t-256.5 -110q-59 0 -103 23t-66 59t-30 76.5t-1 79.5q20 114 100.5 186.5t186.5 72.5q59 0 96.5 -27t50.5 -55h2q0 3 1.5 12.5t2.5 12.5q15 86 -22.5 150t-120.5 64q-79 0 -156 -46z
M270 117h1q49 0 92.5 51t63.5 113q-3 27 -28 53t-67 26q-49 0 -88 -40.5t-49 -96.5q-8 -45 13.5 -75.5t61.5 -30.5z" />
    <glyph glyph-name="Delta" unicode="&#x2206;" horiz-adv-x="735" 
d="M-19 0l15 86l352 614h203l130 -613l-15 -87h-685zM182 128h318l-59 263q-3 21 -12.5 79.5t-11.5 81.5h-4q-7 -15 -34.5 -68.5t-40.5 -79.5z" />
    <glyph glyph-name="product" unicode="&#x220f;" horiz-adv-x="875" 
d="M854 544h-111v-638h-164v638h-206v-638h-164v638h-111v141h756v-141z" />
    <glyph glyph-name="summation" unicode="&#x2211;" horiz-adv-x="699" 
d="M683 -95h-584v95l251 294l-240 283v108h552v-136h-324v-3l201 -231l-224 -263v-4h368v-143z" />
    <glyph glyph-name="minus" unicode="&#x2212;" horiz-adv-x="632" 
d="M89 415h512l-26 -150h-512z" />
    <glyph glyph-name="radical" unicode="&#x221a;" horiz-adv-x="740" 
d="M762 822l-254 -962h-130l-164 420l-79 -32l-27 82l203 83l108 -302q22 -75 25 -87h2q7 39 19 94l180 704h117z" />
    <glyph glyph-name="infinity" unicode="&#x221e;" horiz-adv-x="842" 
d="M796 284v-1q0 -84 -51 -134.5t-120 -50.5q-103 0 -184 113q-45 -56 -88 -84.5t-101 -28.5q-68 0 -118 50t-50 129q0 81 50.5 132t127.5 51q101 0 184 -110q2 2 12 13.5t13.5 15t13.5 14.5t15.5 15.5l16.5 13.5t19 13l20 10t22.5 8.5t24 4.5t27.5 2q70 -1 118 -49.5
t48 -126.5zM262 181h2q25 0 51 15.5t41.5 31.5t38.5 45q-27 38 -40 54.5t-39 33.5t-56 17q-40 0 -65 -28t-25 -73q0 -39 26.5 -67.5t65.5 -28.5zM622 378h-2q-12 0 -23.5 -3t-23 -10t-19.5 -13t-19 -18t-16 -17t-16.5 -19t-13.5 -17q44 -58 73 -79t64 -21q38 0 61 30.5
t23 64.5q0 44 -24.5 73t-63.5 29z" />
    <glyph glyph-name="integral" unicode="&#x222b;" horiz-adv-x="504" 
d="M490 841l-15 -104q-22 8 -40 8q-36 0 -55 -28q-25 -33 -25 -158q0 -78 8.5 -221t8.5 -237q0 -128 -36 -193q-44 -84 -151 -84q-59 0 -91 16l18 109q24 -10 48 -10q32 0 48 20q28 35 28 143q0 95 -9 242.5t-9 231.5q0 160 68 229q47 48 135 48q43 0 69 -12z" />
    <glyph glyph-name="approxequal" unicode="&#x2248;" horiz-adv-x="629" 
d="M536 464l57 -56q-66 -107 -153 -107q-52 0 -119 40q-56 33 -90 33q-22 0 -42 -11.5t-31.5 -24t-30.5 -35.5l-56 56q26 45 71 75t94 30q52 0 110 -35q3 -2 12.5 -7.5t12 -7t10 -5.5t10 -5.5t9 -4t9.5 -3.5t8.5 -2t10 -1.5t9.5 -0.5q28 0 50.5 18t48.5 54zM536 264l57 -57
q-66 -106 -154 -106q-49 0 -118 40q-1 0 -9 5t-9.5 5.5t-8.5 4.5t-9 4.5t-8 3.5t-9 3.5t-8.5 2.5t-9 2.5t-8.5 1t-10 0.5q-22 0 -43 -12t-31 -23.5t-31 -36.5l-56 56q26 45 71.5 75.5t93.5 30.5q47 0 110 -34q4 -2 21 -12.5t23.5 -14t20 -7.5t25.5 -4q29 0 50.5 17t49.5 55z
" />
    <glyph glyph-name="notequal" unicode="&#x2260;" horiz-adv-x="632" 
d="M595 380h-157l-52 -80h195l-27 -150h-264l-54 -83h-161l54 83h-87l27 150h157l51 80h-194l26 150h265l54 83h160l-54 -83h87z" />
    <glyph glyph-name="lessequal" unicode="&#x2264;" horiz-adv-x="632" 
d="M641 643l-24 -137l-262 -78l234 -78l-23 -137l-483 165l17 100zM28 70l22 124h512l-22 -124h-512z" />
    <glyph glyph-name="greaterequal" unicode="&#x2265;" horiz-adv-x="632" 
d="M129 643l483 -165l-17 -100l-541 -165l23 137l262 78l-234 78zM28 70l22 124h512l-22 -124h-512z" />
    <glyph glyph-name="lozenge" unicode="&#x25ca;" horiz-adv-x="739" 
d="M691 342l-220 -392h-128l-215 392l218 392h129zM547 338l-118 223q-11 24 -19 51h-3q-6 -24 -20 -51l-116 -216l119 -226q14 -38 17 -48h4q11 33 18 47z" />
    <glyph glyph-name="i.loclTRK" horiz-adv-x="264" 
d="M194 550q-47 0 -74 29t-19 75q7 36 37.5 57.5t71.5 21.5q45 0 72 -29t19 -74q-7 -37 -37.5 -58.5t-69.5 -21.5zM86 500h180l-88 -500h-180z" />
    <glyph glyph-name="a.ss01" horiz-adv-x="610" 
d="M434 500h176l-88 -500h-176l8 47q-59 -62 -148 -62q-86 0 -139 60t-53 154q0 123 81 219.5t191 96.5q92 0 138 -70zM279 150q43 0 74 31t38 75q2 12 2 18q0 34 -22 55t-57 21q-45 0 -79.5 -35t-34.5 -83q0 -36 21.5 -59t57.5 -23z" />
    <glyph glyph-name="three.ss01" horiz-adv-x="543" 
d="M572 680l-25 -147l-161 -112q76 -19 115.5 -74.5t24.5 -133.5q-19 -99 -108.5 -164t-196.5 -65q-100 0 -164.5 59.5t-69.5 151.5l187 42q-6 -37 18 -61.5t59 -24.5q39 0 67.5 28.5t28.5 66.5q0 32 -21 49.5t-49 17.5q-27 0 -53 -17t-42 -39l-83 115l203 147h-230l29 161
h471z" />
    <glyph glyph-name="zero.tf" horiz-adv-x="640" 
d="M281 -16q-128 0 -193.5 103t-37.5 265q27 153 123 248.5t218 95.5q129 0 194 -103t37 -265q-27 -153 -122.5 -248.5t-218.5 -95.5zM309 161q49 1 85 53.5t45 137.5q8 76 -12.5 121.5t-63.5 45.5q-49 0 -84.5 -52.5t-44.5 -138.5q-8 -77 12 -122.5t63 -44.5z" />
    <glyph glyph-name="one.tf" horiz-adv-x="640" 
d="M412 167h153l-29 -167h-497l29 167h156l48 276q-60 -55 -161 -55l22 168q87 8 129.5 37.5t53.5 92.5l187 -6z" />
    <glyph glyph-name="two.tf" horiz-adv-x="640" 
d="M597 468q-19 -94 -124 -185l-136 -116h218l-29 -167h-494l22 131l321 287q41 36 44 68q2 20 -10.5 31.5t-34.5 11.5q-38 0 -65.5 -35t-26.5 -81l-173 44q16 101 97.5 170t181.5 69q101 0 164.5 -67.5t44.5 -160.5z" />
    <glyph glyph-name="three.tf" horiz-adv-x="640" 
d="M589 483q-19 -93 -112 -140q94 -59 72 -164q-18 -90 -100 -142.5t-185 -52.5q-107 0 -170.5 58t-64.5 153l174 39q-10 -36 11.5 -59t62.5 -23t69 20.5t28 51.5q0 21 -22 35.5t-55 14.5h-72l26 145h76q31 0 54.5 20.5t23.5 46.5q0 21 -16.5 32.5t-42.5 11.5
q-40 0 -67.5 -24.5t-29.5 -58.5l-159 55q34 90 109 142.5t171 52.5q106 0 171.5 -60.5t47.5 -153.5z" />
    <glyph glyph-name="four.tf" horiz-adv-x="640" 
d="M613 289l-28 -160h-96l-23 -129h-177l23 129h-308l25 150l272 401h197l-269 -391h111l27 151h177l-27 -151h96z" />
    <glyph glyph-name="five.tf" horiz-adv-x="640" 
d="M589 519h-286l-25 -75q45 18 94 18q97 0 159 -68.5t44 -167.5q-18 -100 -110.5 -169.5t-199.5 -69.5q-97 0 -162 59.5t-70 151.5l187 42q-5 -37 17 -61.5t58 -24.5q38 0 67.5 28t30.5 66q1 31 -18 49.5t-49 18.5q-29 0 -57 -16t-40 -38l-162 64l119 354h432z" />
    <glyph glyph-name="six.tf" horiz-adv-x="640" 
d="M394 452q101 0 157.5 -66.5t38.5 -167.5t-105 -167.5t-195 -66.5q-131 0 -194 98.5t-36 256.5t130.5 257.5t234.5 99.5q73 0 132.5 -32.5t84.5 -82.5l-139 -102q-7 25 -31.5 39.5t-56.5 14.5q-46 0 -84.5 -31t-60.5 -81q57 31 124 31zM410 244q2 30 -19 50t-54 20
q-39 0 -66.5 -27t-28.5 -67q-1 -29 20 -49t53 -20q39 0 66 26.5t29 66.5z" />
    <glyph glyph-name="seven.tf" horiz-adv-x="640" 
d="M139 680h514l-24 -144l-368 -536h-212l356 513h-296z" />
    <glyph glyph-name="eight.tf" horiz-adv-x="640" 
d="M622 476q-14 -83 -103 -131q83 -59 66 -158q-15 -86 -103.5 -144.5t-199.5 -58.5q-117 0 -189 66t-55 161q17 92 121 145q-71 53 -55 144q15 83 99 139.5t189 56.5q110 0 178 -64t52 -156zM371 529q-39 0 -65 -22.5t-26 -49.5q0 -23 19.5 -36t48.5 -13q39 0 64 22.5
t25 49.5q0 22 -18 35.5t-48 13.5zM303 147q42 0 69.5 24.5t27.5 54.5q0 25 -21 40t-53 15q-42 0 -70 -24t-28 -55q0 -25 21.5 -40t53.5 -15z" />
    <glyph glyph-name="nine.tf" horiz-adv-x="640" 
d="M371 696q131 0 195.5 -99t35.5 -256q-29 -159 -131.5 -258t-232.5 -99q-72 0 -132 31.5t-87 83.5l140 102q7 -25 31.5 -39.5t56.5 -14.5q46 0 84.5 31t60.5 81q-55 -31 -122 -31q-101 0 -159.5 66t-39.5 168t105.5 168t194.5 66zM324 366q40 0 67.5 29t27.5 67
q0 33 -21 50t-51 17q-39 0 -67.5 -28t-28.5 -66q0 -31 20.5 -50t52.5 -19z" />
    <glyph glyph-name="zero.dnom" horiz-adv-x="470" 
d="M197 -10q-85 0 -129 69.5t-25 177.5q17 99 79.5 161t141.5 62q86 0 129.5 -69.5t24.5 -177.5q-17 -99 -79 -161t-142 -62zM210 107q33 1 58 37t31 93q5 49 -8 77.5t-40 28.5q-33 0 -58 -36t-31 -94q-5 -49 8 -78t40 -28z" />
    <glyph glyph-name="one.dnom" horiz-adv-x="337" 
d="M174 455l123 -6l-79 -449h-124l50 291q-43 -35 -124 -35l12 111q71 6 103 25.5t39 62.5z" />
    <glyph glyph-name="two.dnom" horiz-adv-x="419" 
d="M376 305q-10 -56 -80 -120l-89 -75h142l-19 -110h-326l14 86l211 191q30 26 30 48q0 11 -8 17.5t-21 6.5q-26 0 -45 -24t-17 -55l-114 33q11 67 64 111.5t119 44.5q68 0 109 -45.5t30 -108.5z" />
    <glyph glyph-name="three.dnom" horiz-adv-x="435" 
d="M392 315q-13 -61 -73 -91q62 -41 47 -110q-12 -58 -64.5 -91t-119.5 -33q-72 0 -114.5 39t-43.5 102l114 22q-7 -24 6.5 -38t40.5 -14q30 0 48.5 15t18.5 32q0 14 -13 23.5t-36 9.5h-49l17 96h47q23 0 39 13t16 29q0 13 -10.5 22t-28.5 9q-25 0 -44.5 -17.5t-21.5 -39.5
l-104 41q22 58 71 92t111 34q72 0 115.5 -42t30.5 -103z" />
    <glyph glyph-name="four.dnom" horiz-adv-x="467" 
d="M412 191l-19 -106h-57l-15 -85h-117l15 85h-203l16 99l180 265h131l-178 -258h72l18 100h117l-18 -100h58z" />
    <glyph glyph-name="five.dnom" horiz-adv-x="446" 
d="M392 342h-189l-16 -48q30 11 58 11q66 0 108 -47t29 -114q-13 -65 -72.5 -109.5t-129.5 -44.5q-65 0 -108 40.5t-47 101.5l122 24q-3 -25 12 -40t37 -15q27 0 47 20.5t20 45.5q0 20 -13.5 30.5t-31.5 10.5q-20 0 -38.5 -11.5t-25.5 -26.5l-107 45l78 234h286z" />
    <glyph glyph-name="six.dnom" horiz-adv-x="454" 
d="M257 299q68 0 107 -45.5t26 -113.5q-13 -65 -68.5 -107.5t-125.5 -42.5q-88 0 -131 66.5t-24 171.5q20 105 86.5 168.5t150.5 63.5q50 0 89.5 -22t56.5 -56l-90 -63q-9 33 -56 33q-30 0 -56 -19.5t-41 -51.5q38 18 76 18zM208 100q27 0 45.5 19t18.5 45q0 21 -13.5 32.5
t-33.5 11.5q-27 0 -45.5 -19t-18.5 -45q0 -21 13.5 -32.5t33.5 -11.5z" />
    <glyph glyph-name="seven.dnom" horiz-adv-x="429" 
d="M110 449h339l-15 -95l-243 -354h-141l236 339h-195z" />
    <glyph glyph-name="eight.dnom" horiz-adv-x="454" 
d="M410 311q-11 -55 -68 -85q57 -39 44 -106q-12 -57 -68.5 -93.5t-126.5 -36.5q-81 0 -129.5 47t-35.5 107q13 62 80 93q-49 38 -36 98q11 54 64.5 89.5t120.5 35.5q76 0 121.5 -45t33.5 -104zM245 350q-30 0 -45.5 -17.5t-13.5 -35.5q3 -27 43 -27q26 0 42.5 14.5
t16.5 33.5q0 32 -43 32zM200 98q30 0 48 18t16 38q-3 32 -49 32q-30 0 -48 -18t-16 -38q1 -15 15 -23.5t34 -8.5z" />
    <glyph glyph-name="nine.dnom" horiz-adv-x="454" 
d="M249 460q87 0 130.5 -65.5t24.5 -172.5q-20 -107 -86.5 -169.5t-150.5 -62.5q-50 0 -89.5 22.5t-56.5 55.5l90 64q11 -34 57 -34q30 0 55.5 19.5t40.5 51.5q-33 -18 -75 -18q-68 0 -107 45.5t-26 113.5q13 66 68 108t125 42zM175 288q0 -24 14 -35t34 -11q28 0 45.5 20.5
t15.5 45.5q-1 20 -15 31t-34 11q-26 0 -43 -18t-17 -44z" />
    <glyph glyph-name="zero.numr" horiz-adv-x="470" 
d="M239 230q-85 0 -129 69.5t-25 177.5q17 99 79.5 161t141.5 62q86 0 129.5 -69.5t24.5 -177.5q-17 -99 -79 -161t-142 -62zM252 347q33 1 58 37t31 93q5 49 -8 77.5t-40 28.5q-33 0 -58 -36t-31 -94q-5 -49 8 -78t40 -28z" />
    <glyph glyph-name="one.numr" horiz-adv-x="337" 
d="M216 695l123 -6l-79 -449h-124l50 291q-43 -35 -124 -35l12 111q71 6 103 25.5t39 62.5z" />
    <glyph glyph-name="two.numr" horiz-adv-x="419" 
d="M418 545q-10 -56 -80 -120l-89 -75h142l-19 -110h-326l14 86l211 191q30 26 30 48q0 11 -8 17.5t-21 6.5q-26 0 -45 -24t-17 -55l-114 33q11 67 64 111.5t119 44.5q68 0 109 -45.5t30 -108.5z" />
    <glyph glyph-name="three.numr" horiz-adv-x="435" 
d="M434 555q-13 -61 -73 -91q62 -41 47 -110q-12 -58 -64.5 -91t-119.5 -33q-72 0 -114.5 39t-43.5 102l114 22q-7 -24 6.5 -38t40.5 -14q30 0 48.5 15t18.5 32q0 14 -13 23.5t-36 9.5h-49l17 96h47q23 0 39 13t16 29q0 13 -10.5 22t-28.5 9q-25 0 -44.5 -17.5t-21.5 -39.5
l-104 41q22 58 71 92t111 34q72 0 115.5 -42t30.5 -103z" />
    <glyph glyph-name="four.numr" horiz-adv-x="467" 
d="M454 431l-19 -106h-57l-15 -85h-117l15 85h-203l16 99l180 265h131l-178 -258h72l18 100h117l-18 -100h58z" />
    <glyph glyph-name="five.numr" horiz-adv-x="446" 
d="M434 582h-189l-16 -48q30 11 58 11q66 0 108 -47t29 -114q-13 -65 -72.5 -109.5t-129.5 -44.5q-65 0 -108 40.5t-47 101.5l122 24q-3 -25 12 -40t37 -15q27 0 47 20.5t20 45.5q0 20 -13.5 30.5t-31.5 10.5q-20 0 -38.5 -11.5t-25.5 -26.5l-107 45l78 234h286z" />
    <glyph glyph-name="six.numr" horiz-adv-x="454" 
d="M299 539q68 0 107 -45.5t26 -113.5q-13 -65 -68.5 -107.5t-125.5 -42.5q-88 0 -131 66.5t-24 171.5q20 105 86.5 168.5t150.5 63.5q50 0 89.5 -22t56.5 -56l-90 -63q-9 33 -56 33q-30 0 -56 -19.5t-41 -51.5q38 18 76 18zM250 340q27 0 45.5 19t18.5 45q0 21 -13.5 32.5
t-33.5 11.5q-27 0 -45.5 -19t-18.5 -45q0 -21 13.5 -32.5t33.5 -11.5z" />
    <glyph glyph-name="seven.numr" horiz-adv-x="429" 
d="M152 689h339l-15 -95l-243 -354h-141l236 339h-195z" />
    <glyph glyph-name="eight.numr" horiz-adv-x="454" 
d="M452 551q-11 -55 -68 -85q57 -39 44 -106q-12 -57 -68.5 -93.5t-126.5 -36.5q-81 0 -129.5 47t-35.5 107q13 62 80 93q-49 38 -36 98q11 54 64.5 89.5t120.5 35.5q76 0 121.5 -45t33.5 -104zM287 590q-30 0 -45.5 -17.5t-13.5 -35.5q3 -27 43 -27q26 0 42.5 14.5
t16.5 33.5q0 32 -43 32zM242 338q30 0 48 18t16 38q-3 32 -49 32q-30 0 -48 -18t-16 -38q1 -15 15 -23.5t34 -8.5z" />
    <glyph glyph-name="nine.numr" horiz-adv-x="454" 
d="M291 700q87 0 130.5 -65.5t24.5 -172.5q-20 -107 -86.5 -169.5t-150.5 -62.5q-50 0 -89.5 22.5t-56.5 55.5l90 64q11 -34 57 -34q30 0 55.5 19.5t40.5 51.5q-33 -18 -75 -18q-68 0 -107 45.5t-26 113.5q13 66 68 108t125 42zM217 528q0 -24 14 -35t34 -11q28 0 45.5 20.5
t15.5 45.5q-1 20 -15 31t-34 11q-26 0 -43 -18t-17 -44z" />
    </font>
</defs>
</svg>
