<?xml version="1.0" standalone="no"?>
<!DOCTYPE svg PUBLIC "-//W3C//DTD SVG 1.1//EN" "http://www.w3.org/Graphics/SVG/1.1/DTD/svg11.dtd" >
<svg xmlns="http://www.w3.org/2000/svg" xmlns:xlink="http://www.w3.org/1999/xlink" version="1.1">
<metadata>
Created by FontForge 20170731 at Wed Jan 11 14:54:25 2017
 By Aleksey,,,
Copyright (c) 2016 by Alex Sheyn. All rights reserved.
</metadata>
<defs>
<font id="ATCArquette-Regular" horiz-adv-x="0" >
  <font-face 
    font-family="ATC Arquette"
    font-weight="400"
    font-stretch="normal"
    units-per-em="1000"
    panose-1="0 0 5 0 0 0 0 0 0 0"
    ascent="800"
    descent="-200"
    x-height="500"
    cap-height="680"
    bbox="-655 -287 1275 910"
    underline-thickness="50"
    underline-position="-200"
    unicode-range="U+0020-FB02"
  />
<missing-glyph horiz-adv-x="460" 
d="M377 700v-920h-291v920h291zM306 638h-151v-30h59v-34h-60v-30h152v30h-60v34h60v30zM246 520h-92v-96h152v31h-60v65zM214 488v-33h-30v33h30zM306 399h-152v-30h60v-34h-60v-31h92v65h60v30zM306 344h-30v-61h-122v-31h152v92zM306 232h-92v-52h32v21h30v-43h-92v74
h-30v-104h152v104zM306 73h-152v-104h152v104zM276 42v-43h-92v43h92zM306 -53h-152v-30h64l-64 -43v-31h152v31h-93l64 43h29v30z" />
    <glyph glyph-name="fi" unicode="fi" horiz-adv-x="615" 
d="M480 604q-21 0 -36 14.5t-15 36.5q0 21 15 35.5t36 14.5t36 -14.5t15 -35.5q0 -22 -15 -36.5t-36 -14.5zM517 500v-500h-74v432h-233v-432h-74v432h-95v68h95v55q0 71 37 108t108 37h86v-71h-83q-74 0 -74 -77v-52h307z" />
    <glyph glyph-name="fl" unicode="fl" horiz-adv-x="603" 
d="M440 700h74v-700h-74v432h-230v-432h-74v432h-95v68h95v55q0 71 37 108t108 37h62v-71h-59q-74 0 -74 -77v-52h230v200z" />
    <glyph glyph-name="f_f" unicode="ff" horiz-adv-x="663" 
d="M597 629q-74 0 -74 -77v-52h133v-68h-133v-432h-74v432h-239v-432h-74v432h-95v68h95v55q0 71 37 108t108 37h62v-71h-59q-74 0 -74 -77v-52h239v55q0 71 37 108t107 37h63v-71h-59z" />
    <glyph glyph-name="f_f_i" unicode="ffi" horiz-adv-x="924" 
d="M789 604q-22 0 -37 14.5t-15 36.5q0 21 15 35.5t37 14.5q20 0 35 -14.5t15 -35.5t-14.5 -36t-35.5 -15zM826 500v-500h-74v432h-234v-432h-74v432h-234v-432h-74v432h-95v68h95v55q0 71 37 108t108 37h62v-71h-59q-74 0 -74 -77v-52h234v55q0 71 37 108t108 37h86v-71
h-83q-74 0 -74 -77v-52h308z" />
    <glyph glyph-name="f_f_l" unicode="ffl" horiz-adv-x="910" 
d="M748 700h74v-700h-74v432h-232v-432h-74v432h-232v-432h-74v432h-95v68h95v55q0 71 37 108t108 37h62v-71h-59q-74 0 -74 -77v-52h232v55q0 71 37 108t108 37h62v-71h-59q-74 0 -74 -77v-52h232v200z" />
    <glyph glyph-name=".notdef" horiz-adv-x="460" 
d="M377 700v-920h-291v920h291zM306 638h-151v-30h59v-34h-60v-30h152v30h-60v34h60v30zM246 520h-92v-96h152v31h-60v65zM214 488v-33h-30v33h30zM306 399h-152v-30h60v-34h-60v-31h92v65h60v30zM306 344h-30v-61h-122v-31h152v92zM306 232h-92v-52h32v21h30v-43h-92v74
h-30v-104h152v104zM306 73h-152v-104h152v104zM276 42v-43h-92v43h92zM306 -53h-152v-30h64l-64 -43v-31h152v31h-93l64 43h29v30z" />
    <glyph glyph-name=".null" 
 />
    <glyph glyph-name="nonmarkingreturn" horiz-adv-x="333" 
 />
    <glyph glyph-name="space" unicode=" " horiz-adv-x="294" 
 />
    <glyph glyph-name="exclam" unicode="!" horiz-adv-x="242" 
d="M95 182l-19 498h91l-19 -498h-53zM121 94q22 0 38 -16t16 -38t-16 -37.5t-38 -15.5t-38 15.5t-16 37.5t16 38t38 16z" />
    <glyph glyph-name="quotedbl" unicode="&#x22;" horiz-adv-x="325" 
d="M40 700h82l-14 -259h-54zM203 700h82l-13 -259h-55z" />
    <glyph glyph-name="numbersign" unicode="#" horiz-adv-x="693" 
d="M645 436h-122l-36 -192h109v-74h-123l-33 -170h-77l33 170h-164l-33 -170h-77l33 170h-107v74h121l37 192h-108v74h122l33 170h76l-32 -170h164l33 170h76l-32 -170h107v-74zM410 244l37 192h-165l-36 -192h164z" />
    <glyph glyph-name="dollar" unicode="$" horiz-adv-x="623" 
d="M350 369q46 -11 77.5 -23t66 -32.5t52 -53t17.5 -75.5q0 -89 -70.5 -145t-181.5 -56q-19 0 -29 1l-18 -103l-61 10l18 103q-67 17 -113 58t-59 98l67 24q25 -82 117 -112l45 251q-40 10 -71.5 22t-62.5 33t-48.5 54.5t-17.5 77.5q0 87 65 141t169 54q11 0 33 -2l18 104
l61 -10l-19 -105q60 -19 99 -59t52 -95l-67 -25q-21 78 -96 109zM148 507q0 -51 38 -79t104 -45l43 245q-8 1 -24 1q-71 0 -116 -34t-45 -88zM316 50q77 0 127 36.5t50 93.5q0 51 -39.5 76.5t-115.5 44.5l-44 -250q7 -1 22 -1z" />
    <glyph glyph-name="percent" unicode="%" horiz-adv-x="925" 
d="M660 700l53 -34l-448 -686l-53 34zM235 696q73 0 126 -52.5t53 -126.5q0 -76 -53 -128.5t-126 -52.5t-127 53t-54 128q0 74 54 126.5t127 52.5zM235 637q-49 0 -86 -35t-37 -85q0 -51 36.5 -86.5t86.5 -35.5q49 0 84.5 35.5t35.5 86.5q0 50 -35 85t-85 35zM692 344
q73 0 126 -52.5t53 -126.5q0 -76 -53 -128.5t-126 -52.5t-127 53t-54 128q0 74 54 126.5t127 52.5zM692 286q-49 0 -86 -35.5t-37 -85.5q0 -51 37 -87t86 -36t85 36t36 87q0 50 -36 85.5t-85 35.5z" />
    <glyph glyph-name="ampersand" unicode="&#x26;" horiz-adv-x="699" 
d="M664 37l-53 -49l-95 97q-105 -100 -228 -100q-95 0 -159 55.5t-64 139.5q0 68 43.5 111.5t123.5 82.5q-86 94 -86 165q0 66 52.5 111.5t130.5 45.5q75 0 125.5 -44t50.5 -112q0 -58 -38.5 -102t-116.5 -83l164 -166q46 65 73 151l69 -19q-31 -102 -92 -183zM326 627
q-46 0 -74.5 -25.5t-28.5 -63.5q0 -49 78 -132q69 32 100 61t31 66q0 41 -29 67.5t-77 26.5zM293 56q93 0 173 78l-171 174q-10 10 -14 15q-78 -39 -109 -67.5t-31 -74.5q0 -54 43 -89.5t109 -35.5z" />
    <glyph glyph-name="quotesingle" unicode="'" horiz-adv-x="213" 
d="M108 700h86l-109 -259h-58z" />
    <glyph glyph-name="parenleft" unicode="(" horiz-adv-x="372" 
d="M321 -118l-47 -47q-101 92 -157.5 206t-56.5 227q0 114 56.5 227.5t157.5 204.5l47 -47q-90 -81 -139 -182t-49 -203t48.5 -203t139.5 -183z" />
    <glyph glyph-name="parenright" unicode=")" horiz-adv-x="372" 
d="M50 -118q91 82 139.5 183t48.5 203t-49 203t-139 182l47 47q101 -91 158 -205t57 -227t-56.5 -227t-157.5 -206z" />
    <glyph glyph-name="asterisk" unicode="*" horiz-adv-x="424" 
d="M364 577l-111 -57l111 -57l-26 -46l-105 68l5 -125h-52l6 125l-106 -68l-26 46l112 57l-112 57l26 46l106 -68l-6 125h52l-5 -125l105 68z" />
    <glyph glyph-name="plus" unicode="+" horiz-adv-x="555" 
d="M495 374v-68h-183v-184h-68v184h-184v68h184v184h68v-184h183z" />
    <glyph glyph-name="comma" unicode="," horiz-adv-x="213" 
d="M101 125h85l-109 -259h-58z" />
    <glyph glyph-name="hyphen" unicode="-" horiz-adv-x="419" 
d="M65 251v68h289v-68h-289z" />
    <glyph glyph-name="period" unicode="." horiz-adv-x="237" 
d="M119 112q25 0 43.5 -18.5t18.5 -43.5q0 -26 -18.5 -44.5t-43.5 -18.5q-26 0 -44.5 18.5t-18.5 44.5q0 25 18.5 43.5t44.5 18.5z" />
    <glyph glyph-name="slash" unicode="/" horiz-adv-x="528" 
d="M59 -150l475 980h-80l-475 -980h80z" />
    <glyph glyph-name="zero" unicode="0" horiz-adv-x="666" 
d="M333 -16q-122 0 -197 98.5t-75 257.5t75 257.5t197 98.5t197 -98.5t75 -257.5t-75 -257.5t-197 -98.5zM333 62q87 0 138.5 75t51.5 203t-51.5 203t-138.5 75t-138.5 -75t-51.5 -203t51.5 -203t138.5 -75z" />
    <glyph glyph-name="one" unicode="1" horiz-adv-x="401" 
d="M216 680h82v-680h-82v542q-56 -69 -188 -69v71q91 0 139.5 38.5t48.5 97.5z" />
    <glyph glyph-name="two" unicode="2" horiz-adv-x="562" 
d="M167 78h337v-78h-455v64l299 310q57 60 57 119q0 53 -39 89t-96 36q-56 0 -96 -36.5t-48 -91.5l-79 14q12 82 74.5 137t148.5 55q90 0 153.5 -57.5t63.5 -141.5q0 -94 -87 -181z" />
    <glyph glyph-name="three" unicode="3" horiz-adv-x="578" 
d="M394 349q61 -21 97 -64.5t36 -100.5q0 -83 -71 -141.5t-172 -58.5q-89 0 -158 52t-89 138l77 22q11 -60 59 -97t111 -37q68 0 114.5 36t46.5 89t-47.5 89t-117.5 36h-97v71h97q63 0 106.5 34.5t43.5 84.5q0 49 -42.5 82.5t-103.5 33.5t-105.5 -36.5t-55.5 -97.5l-77 22
q20 86 85 138t152 52q95 0 161.5 -55.5t66.5 -135.5q0 -53 -31.5 -93.5t-85.5 -62.5z" />
    <glyph glyph-name="four" unicode="4" horiz-adv-x="620" 
d="M572 243v-74h-118v-169h-78v169h-338v63l244 448h86l-241 -437h249v221h78v-221h118z" />
    <glyph glyph-name="five" unicode="5" horiz-adv-x="594" 
d="M308 442q94 0 161 -63.5t67 -158.5q0 -100 -73.5 -168t-171.5 -68q-86 0 -152.5 52.5t-88.5 141.5l77 23q13 -64 58.5 -101.5t105.5 -37.5q67 0 115 45t48 114q0 64 -43.5 105t-113.5 41q-47 0 -88.5 -18.5t-64.5 -48.5l-71 35l57 345h372v-78h-308l-34 -207
q60 47 148 47z" />
    <glyph glyph-name="six" unicode="6" horiz-adv-x="612" 
d="M326 446q95 0 160.5 -67.5t65.5 -163.5t-68 -163.5t-164 -67.5q-125 0 -192 94.5t-67 257.5q0 155 82 257.5t209 102.5q53 0 105 -23.5t83 -62.5l-60 -49q-20 25 -55.5 41t-72.5 16q-95 0 -153 -81.5t-59 -201.5q23 49 75 80t111 31zM315 62q65 0 110 45.5t45 110.5
q0 64 -45.5 109.5t-109.5 45.5t-109.5 -45.5t-45.5 -109.5q0 -66 45 -111t110 -45z" />
    <glyph glyph-name="seven" unicode="7" horiz-adv-x="576" 
d="M64 680h467v-67l-317 -613h-92l313 602h-371v78z" />
    <glyph glyph-name="eight" unicode="8" horiz-adv-x="602" 
d="M424 351q57 -24 90.5 -68t33.5 -99q0 -84 -71.5 -142t-175.5 -58t-175.5 58t-71.5 142q0 56 33.5 99.5t90.5 67.5q-51 23 -79.5 63t-28.5 91q0 80 67 135.5t164 55.5t164 -55.5t67 -135.5q0 -51 -28.5 -91t-79.5 -63zM301 618q-63 0 -106.5 -33.5t-43.5 -83.5t43.5 -83.5
t106.5 -33.5t106.5 33.5t43.5 83.5t-43.5 83.5t-106.5 33.5zM301 62q70 0 117.5 36.5t47.5 89.5t-47.5 89t-117.5 36t-118 -36t-48 -89t48 -89.5t118 -36.5z" />
    <glyph glyph-name="nine" unicode="9" horiz-adv-x="611" 
d="M292 696q125 0 191.5 -94.5t66.5 -257.5q0 -155 -81.5 -257.5t-208.5 -102.5q-53 0 -105 23.5t-83 62.5l59 50q21 -26 56.5 -42t72.5 -16q96 0 154 82t58 203q-23 -50 -74.5 -81t-112.5 -31q-95 0 -160 67t-65 163t68 163.5t164 67.5zM296 308q65 0 110.5 45.5
t45.5 109.5q0 66 -45 110.5t-111 44.5q-64 0 -109.5 -45t-45.5 -110q0 -64 45.5 -109.5t109.5 -45.5z" />
    <glyph glyph-name="colon" unicode=":" horiz-adv-x="207" 
d="M104 510q25 0 43.5 -18.5t18.5 -43.5q0 -26 -18.5 -44.5t-43.5 -18.5q-26 0 -44.5 18.5t-18.5 44.5q0 25 18.5 43.5t44.5 18.5zM104 112q25 0 43.5 -18.5t18.5 -43.5q0 -26 -18.5 -44.5t-43.5 -18.5q-26 0 -44.5 18.5t-18.5 44.5q0 25 18.5 43.5t44.5 18.5z" />
    <glyph glyph-name="semicolon" unicode=";" horiz-adv-x="225" 
d="M111 513q26 0 44.5 -18.5t18.5 -43.5q0 -26 -18.5 -44.5t-44.5 -18.5q-25 0 -43.5 18.5t-18.5 44.5q0 25 18.5 43.5t43.5 18.5zM101 125h85l-109 -259h-58z" />
    <glyph glyph-name="less" unicode="&#x3c;" horiz-adv-x="555" 
d="M495 581v-75l-337 -166l337 -167v-74l-435 216v50z" />
    <glyph glyph-name="equal" unicode="=" horiz-adv-x="555" 
d="M60 468h435v-68h-435v68zM60 280h435v-68h-435v68z" />
    <glyph glyph-name="greater" unicode="&#x3e;" horiz-adv-x="555" 
d="M60 581l435 -216v-50l-435 -216v74l337 167l-337 166v75z" />
    <glyph glyph-name="question" unicode="?" horiz-adv-x="539" 
d="M273 185h-78v21q0 66 25 104t79 63q61 29 88 56t27 68q0 55 -39.5 88t-103.5 33q-62 0 -106 -36t-55 -97l-77 21q20 86 84.5 138t153.5 52q96 0 159.5 -55t63.5 -140q0 -117 -135 -182q-46 -22 -66 -43.5t-20 -64.5v-26zM235 -13q-22 0 -38 15.5t-16 37.5t15.5 38
t38.5 16q22 0 37.5 -16t15.5 -38t-15.5 -37.5t-37.5 -15.5z" />
    <glyph glyph-name="at" unicode="@" horiz-adv-x="916" 
d="M564 436h59v-223q0 -56 22 -86.5t63 -30.5q49 0 77.5 42.5t28.5 114.5q0 146 -105.5 249.5t-251.5 103.5t-250.5 -104.5t-104.5 -251.5t104.5 -251.5t252.5 -104.5q136 0 237 93l34 -36q-116 -106 -272 -106q-167 0 -286 119t-119 286t118.5 286t285.5 119t286.5 -118.5
t119.5 -281.5q0 -95 -43 -154t-115 -59q-49 0 -85 28.5t-50 81.5q-13 -43 -49 -71t-87 -28q-74 0 -124 55t-50 142q1 85 51 141t124 56q90 0 129 -74v63zM442 109q54 0 88 40.5t34 102.5q0 61 -33 100t-88 39t-88.5 -39.5t-33.5 -101.5q0 -61 33.5 -101t87.5 -40z" />
    <glyph glyph-name="A" unicode="A" horiz-adv-x="727" 
d="M608 0l-75 181h-340l-74 -181h-85l283 680h90l286 -680h-85zM224 256h278l-140 336z" />
    <glyph glyph-name="B" unicode="B" horiz-adv-x="662" 
d="M496 342q52 -19 81.5 -57.5t29.5 -93.5q0 -82 -62 -136.5t-155 -54.5h-295v680h283q93 0 155.5 -54t62.5 -136q0 -104 -100 -148zM378 605h-204v-228h204q63 0 101 31.5t38 81.5q0 51 -38 83t-101 32zM390 75q62 0 100 32.5t38 83.5q0 50 -37 80.5t-101 30.5h-216v-227
h216z" />
    <glyph glyph-name="C" unicode="C" horiz-adv-x="758" 
d="M653 494q-38 59 -99 92.5t-133 33.5q-118 0 -198 -81t-80 -199t80.5 -199.5t197.5 -81.5q72 0 133 34t99 93l66 -40q-48 -74 -127 -118t-171 -44q-149 0 -253 103.5t-104 252.5t104 252.5t253 103.5q92 0 171 -44t127 -119z" />
    <glyph glyph-name="D" unicode="D" horiz-adv-x="753" 
d="M324 680q156 0 260.5 -96t104.5 -244t-104.5 -244t-260.5 -96h-229v680h229zM324 75q125 0 206 74t81 191q0 116 -81 190.5t-206 74.5h-150v-530h150z" />
    <glyph glyph-name="E" unicode="E" horiz-adv-x="591" 
d="M532 605h-358v-228h255v-74h-255v-228h358v-75h-437v680h437v-75z" />
    <glyph glyph-name="F" unicode="F" horiz-adv-x="577" 
d="M532 605h-358v-228h255v-74h-255v-303h-79v680h437v-75z" />
    <glyph glyph-name="G" unicode="G" horiz-adv-x="825" 
d="M409 348h339v-35q0 -145 -93.5 -237t-234.5 -92q-151 0 -253.5 103.5t-102.5 251.5q0 149 104 253t253 104q92 0 171 -44t127 -119l-66 -39q-37 59 -98.5 92.5t-133.5 33.5q-118 0 -198 -81t-80 -200q0 -118 79 -198.5t200 -80.5q104 0 174 60.5t75 152.5h-262v75z" />
    <glyph glyph-name="H" unicode="H" horiz-adv-x="762" 
d="M587 680h80v-680h-80v303h-413v-303h-79v680h79v-303h413v303z" />
    <glyph glyph-name="I" unicode="I" horiz-adv-x="283" 
d="M102 680h79v-680h-79v680z" />
    <glyph glyph-name="J" unicode="J" horiz-adv-x="583" 
d="M420 680h79v-442q0 -113 -72.5 -183.5t-182.5 -70.5q-124 0 -218 94l55 54q74 -73 165 -73q79 0 126.5 49t47.5 131v441z" />
    <glyph glyph-name="K" unicode="K" horiz-adv-x="657" 
d="M537 0l-252 334l-111 -112v-222h-79v680h79v-357l351 357h105l-289 -290l291 -390h-95z" />
    <glyph glyph-name="L" unicode="L" horiz-adv-x="570" 
d="M174 75h358v-75h-437v680h79v-605z" />
    <glyph glyph-name="M" unicode="M" horiz-adv-x="910" 
d="M815 680v-680h-79v569l-241 -569h-83l-238 568v-568h-79v680h114l245 -582l248 582h113z" />
    <glyph glyph-name="N" unicode="N" horiz-adv-x="762" 
d="M588 680h79v-680h-65l-428 539v-539h-79v680h64l429 -540v540z" />
    <glyph glyph-name="O" unicode="O" horiz-adv-x="840" 
d="M421 -16q-149 0 -253 103.5t-104 252.5t104 252.5t253 103.5q147 0 250.5 -104t103.5 -252t-103.5 -252t-250.5 -104zM421 59q117 0 196.5 81.5t79.5 199.5t-79.5 199t-196.5 81q-118 0 -198 -80.5t-80 -199.5t80 -200t198 -81z" />
    <glyph glyph-name="P" unicode="P" horiz-adv-x="644" 
d="M386 680q93 0 155 -55.5t62 -139.5q0 -83 -61.5 -140t-155.5 -57h-213v-288h-78v680h291zM386 364q62 0 100 34t38 86q0 53 -38.5 87t-99.5 34h-213v-241h213z" />
    <glyph glyph-name="Q" unicode="Q" horiz-adv-x="846" 
d="M790 25l-53 -53l-92 92q-98 -80 -224 -80q-149 0 -253 103.5t-104 252.5t104 252.5t253 103.5q147 0 250.5 -104t103.5 -252q0 -125 -77 -223zM421 59q95 0 171 58l-131 131l53 54l130 -130q53 74 53 168q0 118 -79.5 199t-196.5 81q-118 0 -198 -80.5t-80 -199.5
t80 -200t198 -81z" />
    <glyph glyph-name="R" unicode="R" horiz-adv-x="663" 
d="M523 0l-175 288h-174v-288h-79v680h291q93 0 155 -55.5t62 -139.5q0 -71 -46 -124t-120 -68l177 -293h-91zM174 605v-241h212q62 0 100.5 34t38.5 86q0 53 -39 87t-100 34h-212z" />
    <glyph glyph-name="S" unicode="S" horiz-adv-x="626" 
d="M566 187q0 -89 -71 -146t-182 -57q-103 0 -175.5 48t-88.5 125l75 27q14 -56 66 -90.5t128 -34.5q75 0 122.5 34.5t47.5 88.5q0 29 -14 50t-44.5 34.5t-57 21t-73.5 17.5q-43 10 -75.5 21.5t-69 33t-56.5 57t-20 82.5q0 88 66 142.5t170 54.5q96 0 162.5 -47t83.5 -126
l-75 -27q-12 55 -58 89.5t-116 34.5q-67 0 -110.5 -32t-43.5 -84q0 -23 10 -42t24 -31t38 -22.5t44.5 -16t49.5 -12.5q43 -10 68 -17t63 -23t59 -34t37 -49t16 -70z" />
    <glyph glyph-name="T" unicode="T" horiz-adv-x="591" 
d="M552 680v-75h-217v-605h-78v605h-218v75h513z" />
    <glyph glyph-name="U" unicode="U" horiz-adv-x="744" 
d="M581 680h78v-382q0 -142 -78.5 -228t-208.5 -86t-209 86t-79 228v382h79v-382q0 -109 57 -174t152 -65t152 65t57 174v382z" />
    <glyph glyph-name="V" unicode="V" horiz-adv-x="710" 
d="M591 680h85l-275 -680h-96l-271 680h84l235 -595z" />
    <glyph glyph-name="W" unicode="W" horiz-adv-x="1081" 
d="M958 680h83l-213 -680h-98l-189 592l-188 -592h-99l-214 680h83l180 -588l189 588h97l189 -589z" />
    <glyph glyph-name="X" unicode="X" horiz-adv-x="675" 
d="M636 680l-241 -340l241 -340h-96l-202 288l-202 -288h-97l241 340l-239 340h96l201 -288l202 288h96z" />
    <glyph glyph-name="Y" unicode="Y" horiz-adv-x="656" 
d="M635 680l-268 -402v-278h-78v278l-268 402h95l212 -325l212 325h95z" />
    <glyph glyph-name="Z" unicode="Z" horiz-adv-x="660" 
d="M175 75h419v-75h-528v62l404 543h-404v75h511v-62z" />
    <glyph glyph-name="bracketleft" unicode="[" horiz-adv-x="431" 
d="M164 626v-729h198v-75h-280v878h280v-74h-198z" />
    <glyph glyph-name="backslash" unicode="\" horiz-adv-x="528" 
d="M469 -150h80l-475 980h-80z" />
    <glyph glyph-name="bracketright" unicode="]" horiz-adv-x="419" 
d="M258 626h-198v74h279v-878h-279v75h198v729z" />
    <glyph glyph-name="asciicircum" unicode="^" horiz-adv-x="600" 
d="M557 358h-74l-167 250l-166 -250h-75l216 323h50z" />
    <glyph glyph-name="underscore" unicode="_" horiz-adv-x="676" 
d="M-2 -200v62h680v-62h-680z" />
    <glyph glyph-name="a" unicode="a" horiz-adv-x="533" 
d="M255 511q91 0 147.5 -56.5t56.5 -149.5v-305h-74v81q-24 -40 -72 -65.5t-104 -25.5q-70 0 -117 40.5t-47 105.5q0 61 44 100t117 53l178 36q-6 51 -38.5 84.5t-85.5 33.5q-43 0 -80.5 -22t-59.5 -57l-60 42q31 47 84 76t111 29zM226 59q64 0 111.5 40t47.5 101v59
l-165 -34q-101 -23 -101 -87q0 -35 30 -57t77 -22z" />
    <glyph glyph-name="b" unicode="b" horiz-adv-x="610" 
d="M556 250q1 -115 -65 -188t-163 -73q-59 0 -103 28.5t-67 76.5v-94h-74v700h74v-284q25 43 69 68.5t100 25.5q98 0 163.5 -73.5t65.5 -186.5zM318 60q72 0 118 53.5t46 136.5q0 82 -46.5 135.5t-117.5 53.5q-75 0 -120 -52.5t-45 -136.5q0 -83 47.5 -136.5t117.5 -53.5z
" />
    <glyph glyph-name="c" unicode="c" horiz-adv-x="547" 
d="M446 146l62 -37q-37 -55 -95 -87t-125 -32q-108 0 -179.5 75.5t-71.5 185.5t71.5 185.5t179.5 75.5q67 0 125 -32t95 -87l-62 -37q-57 85 -157 85q-76 0 -126.5 -54.5t-50.5 -135.5t50.5 -135.5t126.5 -54.5q99 0 157 85z" />
    <glyph glyph-name="d" unicode="d" horiz-adv-x="598" 
d="M441 700h74v-700h-74v94q-23 -48 -67 -76.5t-103 -28.5q-96 0 -162 73t-66 188q1 113 66 186.5t164 73.5q56 0 100 -25.5t68 -67.5v283zM282 60q70 0 117 53.5t47 136.5q0 84 -44.5 136.5t-119.5 52.5q-72 0 -118 -53t-46 -136t46 -136.5t118 -53.5z" />
    <glyph glyph-name="e" unicode="e" horiz-adv-x="568" 
d="M517 293q5 -36 0 -77h-389q9 -72 52 -113.5t110 -41.5q50 0 91.5 22.5t64.5 61.5l62 -36q-32 -54 -91 -86.5t-127 -32.5q-107 0 -173 75t-66 185t67 185t172 75q88 0 152 -55.5t75 -161.5zM288 439q-67 0 -109.5 -42t-50.5 -113h315q-1 71 -45.5 113t-109.5 42z" />
    <glyph glyph-name="f" unicode="f" horiz-adv-x="351" 
d="M284 629q-74 0 -74 -77v-52h133v-68h-133v-432h-74v432h-95v68h95v55q0 71 37 108t108 37h62v-71h-59z" />
    <glyph glyph-name="g" unicode="g" horiz-adv-x="608" 
d="M451 500h74v-468q0 -111 -69.5 -179t-177.5 -68q-56 0 -111.5 25t-95.5 67l55 49q65 -70 152 -70q78 0 125.5 48t47.5 129v55q-23 -45 -67 -71.5t-102 -26.5q-98 0 -163.5 73t-65.5 187q1 114 66.5 187.5t162.5 73.5q57 0 101.5 -27t67.5 -73v89zM294 61q73 0 117.5 53
t44.5 136t-47 136.5t-118 53.5t-117 -53.5t-46 -136.5t46.5 -136t119.5 -53z" />
    <glyph glyph-name="h" unicode="h" horiz-adv-x="593" 
d="M323 511q83 0 139 -60.5t56 -155.5v-295h-74v282q0 72 -40 115.5t-99 43.5q-64 0 -106 -48t-42 -114v-279h-74v700h74v-284q24 42 68.5 68.5t97.5 26.5z" />
    <glyph glyph-name="i" unicode="i" horiz-adv-x="271" 
d="M136 604q-22 0 -37 14.5t-15 36.5q0 21 15 35.5t37 14.5q20 0 35 -14.5t15 -35.5t-15 -36t-35 -15zM99 500h74v-500h-74v500z" />
    <glyph glyph-name="j" unicode="j" horiz-adv-x="298" 
d="M163 604q-22 0 -36.5 14.5t-14.5 36.5q0 21 14.5 35.5t36.5 14.5q20 0 35 -14.5t15 -35.5t-14.5 -36t-35.5 -15zM125 -52v552h74v-555q0 -71 -37.5 -108t-107.5 -37h-62v71h59q74 0 74 77z" />
    <glyph glyph-name="k" unicode="k" horiz-adv-x="532" 
d="M511 500l-203 -202l203 -298h-87l-170 243l-97 -96v-147h-74v700h74v-459l256 259h98z" />
    <glyph glyph-name="l" unicode="l" horiz-adv-x="252" 
d="M89 700h74v-700h-74v700z" />
    <glyph glyph-name="m" unicode="m" horiz-adv-x="889" 
d="M629 511q79 0 131 -61t52 -152v-298h-74v283q0 69 -35.5 113.5t-91.5 44.5q-55 0 -91 -44.5t-36 -113.5v-283h-74v283q0 69 -35 113.5t-92 44.5q-55 0 -90.5 -44.5t-35.5 -113.5v-283h-74v500h74v-76q21 39 58.5 63t85.5 24q52 0 94.5 -28.5t65.5 -77.5q25 45 69 75.5
t99 30.5z" />
    <glyph glyph-name="n" unicode="n" horiz-adv-x="593" 
d="M323 511q83 0 139 -60.5t56 -155.5v-295h-74v282q0 72 -40 115.5t-99 43.5q-64 0 -106 -48t-42 -114v-279h-74v500h74v-84q24 42 68.5 68.5t97.5 26.5z" />
    <glyph glyph-name="o" unicode="o" horiz-adv-x="622" 
d="M312 -10q-109 0 -185 76t-76 184t76 184t185 76q107 0 183 -76t76 -184t-76 -184t-183 -76zM312 61q77 0 130.5 55t53.5 134t-53.5 134t-130.5 55q-78 0 -132.5 -54.5t-54.5 -134.5t54.5 -134.5t132.5 -54.5z" />
    <glyph glyph-name="p" unicode="p" horiz-adv-x="608" 
d="M326 511q97 0 162.5 -73.5t66.5 -187.5q0 -114 -65.5 -187t-163.5 -73q-58 0 -102 26.5t-67 71.5v-288h-74v700h74v-87q24 44 68 71t101 27zM316 61q71 0 117.5 53.5t46.5 135.5q0 83 -46 136.5t-118 53.5q-70 0 -117 -53.5t-47 -136.5q0 -84 44.5 -136.5t119.5 -52.5z
" />
    <glyph glyph-name="q" unicode="q" horiz-adv-x="608" 
d="M451 500h74v-700h-74v288q-23 -45 -67 -71.5t-102 -26.5q-98 0 -163.5 73t-65.5 187q1 114 66.5 187.5t162.5 73.5q57 0 101.5 -27t67.5 -73v89zM292 61q75 0 119.5 52.5t44.5 136.5q0 83 -47 136.5t-117 53.5q-72 0 -118 -53.5t-46 -136.5t46 -136t118 -53z" />
    <glyph glyph-name="r" unicode="r" horiz-adv-x="361" 
d="M157 419q24 41 69.5 66.5t108.5 25.5v-74q-87 0 -132.5 -44.5t-45.5 -113.5v-279h-74v500h74v-81z" />
    <glyph glyph-name="s" unicode="s" horiz-adv-x="474" 
d="M420 136q0 -67 -54 -108t-134 -41q-77 0 -129.5 37.5t-64.5 97.5l67 21q9 -40 43 -64t83 -24q47 0 81 21t34 55q0 18 -9.5 31.5t-29 23.5t-34.5 15t-40 12q-8 2 -11 3q-34 9 -56.5 18.5t-50 26t-41.5 42.5t-14 60q0 66 51.5 107t125.5 41q70 0 118.5 -37.5t59.5 -97.5
l-65 -20q-8 39 -38.5 63t-73.5 24q-42 0 -73 -21.5t-31 -54.5q0 -29 27 -47.5t82 -33.5q92 -26 128 -53q49 -38 49 -97z" />
    <glyph glyph-name="t" unicode="t" horiz-adv-x="388" 
d="M340 432h-133v-284q0 -77 74 -77h59v-71h-63q-70 0 -107 37.5t-37 107.5v287h-96v68h96v138l74 22v-160h133v-68z" />
    <glyph glyph-name="u" unicode="u" horiz-adv-x="592" 
d="M436 500h74v-500h-74v84q-24 -42 -68.5 -68.5t-97.5 -26.5q-83 0 -139 60.5t-56 155.5v295h74v-282q0 -72 40 -115.5t99 -43.5q64 0 106 48t42 114v279z" />
    <glyph glyph-name="v" unicode="v" horiz-adv-x="537" 
d="M425 500h80l-189 -500h-96l-188 500h80l156 -425z" />
    <glyph glyph-name="w" unicode="w" horiz-adv-x="848" 
d="M732 500h78l-158 -500h-94l-134 421l-133 -421h-95l-157 500h77l127 -419l135 419h93l134 -419z" />
    <glyph glyph-name="x" unicode="x" horiz-adv-x="518" 
d="M485 500l-178 -250l178 -250h-87l-139 201l-139 -201h-87l178 250l-178 250h87l139 -201l139 201h87z" />
    <glyph glyph-name="y" unicode="y" horiz-adv-x="559" 
d="M449 500h77l-296 -700h-79l96 226l-215 474h81l173 -382z" />
    <glyph glyph-name="z" unicode="z" horiz-adv-x="481" 
d="M145 71h289v-71h-385v61l285 368h-285v71h380v-61z" />
    <glyph glyph-name="braceleft" unicode="{" horiz-adv-x="486" 
d="M277 412q0 -120 -98 -151q98 -31 98 -151v-104q0 -109 97 -109h60v-75h-55q-184 0 -184 191v102q0 50 -25.5 78t-67.5 28h-50v80h50q42 0 67.5 28t25.5 80v101q0 190 184 190h55v-74h-60q-49 0 -73 -26.5t-24 -83.5v-104z" />
    <glyph glyph-name="bar" unicode="|" horiz-adv-x="188" 
d="M128 -131h-68v831h68v-831z" />
    <glyph glyph-name="braceright" unicode="}" horiz-adv-x="483" 
d="M382 301h50v-80h-50q-41 0 -67 -28t-26 -78v-102q0 -191 -183 -191h-55v75h60q49 0 72.5 26t23.5 83v104q0 119 98 151q-98 31 -98 151v104q0 57 -23.5 83.5t-72.5 26.5h-60v74h55q183 0 183 -190v-101q0 -52 26 -80t67 -28z" />
    <glyph glyph-name="asciitilde" unicode="~" horiz-adv-x="659" 
d="M572 326l29 -28q-58 -98 -146 -98q-10 0 -19.5 1t-20 4t-17 4.5t-19.5 7.5t-18.5 8.5t-22 10.5t-22.5 11q-70 37 -110 37q-37 0 -64.5 -21.5t-55.5 -60.5l-30 28q27 47 68 73t89 26q19 0 39.5 -5.5t32 -10.5t33 -16t26.5 -14q3 -2 16 -8.5l17 -8.5t14.5 -6.5t15.5 -6
t14.5 -4t18 -3.5t17.5 -1q36 0 62.5 19t52.5 62z" />
    <glyph glyph-name="exclamdown" unicode="&#xa1;" horiz-adv-x="242" 
d="M121 406q-22 0 -38 16t-16 38t16 37.5t38 15.5t38 -15.5t16 -37.5t-16 -38t-38 -16zM95 318h53l19 -498h-91z" />
    <glyph glyph-name="cent" unicode="&#xa2;" horiz-adv-x="547" 
d="M289 146q99 0 157 85l62 -37q-37 -55 -95 -87t-125 -32q-19 0 -28 1l-23 -126l-61 11l24 130q-74 27 -118.5 93.5t-44.5 151.5q0 110 71.5 185.5t179.5 75.5h5l22 121l61 -11l-22 -119q97 -24 154 -110l-62 -37q-38 57 -105 78l-68 -372q5 -1 16 -1zM112 336
q0 -58 27.5 -104t73.5 -69l67 363q-73 -4 -120.5 -58t-47.5 -132z" />
    <glyph glyph-name="sterling" unicode="&#xa3;" horiz-adv-x="607" 
d="M512 144l69 -31q-24 -51 -71.5 -82t-107.5 -31h-352v72h6q58 0 85 36.5t27 97.5v98h-118v72h118v103q0 97 56.5 157t141.5 60q59 0 105 -30.5t70 -82.5l-67 -30q-34 71 -108 71q-54 0 -88.5 -40t-34.5 -105v-103h245v-72h-245v-98q0 -88 -49 -134h208q36 0 65.5 19.5
t44.5 52.5z" />
    <glyph glyph-name="currency" unicode="&#xa4;" horiz-adv-x="561" 
d="M465 326q0 -62 -37 -112l73 -72l-38 -37l-72 72q-50 -37 -110 -37q-62 0 -111 38l-72 -73l-38 37l73 73q-38 49 -38 111q0 61 38 110l-73 72l38 37l72 -73q49 38 111 38q61 0 111 -37l71 72l38 -37l-73 -72q37 -50 37 -110zM147 326q0 -56 40 -95t94 -39t93 39t39 95
q0 55 -39 93.5t-93 38.5t-94 -39t-40 -93z" />
    <glyph glyph-name="yen" unicode="&#xa5;" horiz-adv-x="674" 
d="M605 680l-208 -313h141v-68h-161v-88h161v-68h-161v-143h-78v143h-161v68h161v88h-161v68h141l-209 313h96l172 -265l172 265h95z" />
    <glyph glyph-name="brokenbar" unicode="&#xa6;" horiz-adv-x="293" 
d="M117 734h57v-380h-57v380zM117 190h57v-379h-57v379z" />
    <glyph glyph-name="section" unicode="&#xa7;" horiz-adv-x="513" 
d="M459 315q0 -51 -37.5 -84.5t-90.5 -41.5q92 -42 92 -120q0 -65 -51 -106t-125 -41q-70 0 -119 37.5t-62 97.5l65 20q8 -39 39.5 -63t75.5 -24q41 0 71.5 21t30.5 54q0 53 -111 82q-91 24 -129 47q-70 43 -70 110q0 51 37.5 84t91.5 42q-92 40 -92 119q0 66 50 106.5
t124 40.5q70 0 119 -37.5t62 -97.5l-65 -20q-8 39 -39.5 63t-74.5 24q-42 0 -72 -21t-30 -54q0 -29 27 -48t83 -34q98 -26 139 -53q61 -41 61 -103zM256 231q56 0 92 21.5t36 53.5q0 35 -41.5 58t-101.5 23q-57 0 -92.5 -21.5t-35.5 -53.5q0 -35 41.5 -58t101.5 -23z" />
    <glyph glyph-name="copyright" unicode="&#xa9;" horiz-adv-x="876" 
d="M439 -34q-157 0 -266 109t-109 265t109 265t266 109q155 0 263.5 -109t108.5 -265t-108.5 -265t-263.5 -109zM439 16q135 0 228 95t93 230q0 136 -93 229.5t-228 93.5q-137 0 -230 -93t-93 -230t93.5 -231t229.5 -94zM548 268l47 -29q-26 -39 -67.5 -61.5t-88.5 -22.5
q-77 0 -128 53.5t-51 131.5t51 131.5t128 53.5q47 0 88.5 -22.5t67.5 -61.5l-47 -29q-40 59 -109 59q-52 0 -87 -37.5t-35 -93.5t35 -93.5t87 -37.5q69 0 109 59z" />
    <glyph glyph-name="guillemotleft" unicode="&#xab;" horiz-adv-x="634" 
d="M318 465l-167 -185l167 -185h-92l-166 185l166 185h92zM559 465l-167 -185l167 -185h-92l-166 185l166 185h92z" />
    <glyph glyph-name="logicalnot" unicode="&#xac;" horiz-adv-x="659" 
d="M599 100h-49v264h-491v46h540v-310z" />
    <glyph glyph-name="registered" unicode="&#xae;" horiz-adv-x="540" 
d="M271 716q85 0 147 -62t62 -147q0 -87 -61.5 -149t-147.5 -62q-87 0 -149 62t-62 149q0 86 62 147.5t149 61.5zM271 336q70 0 119.5 50t49.5 121q0 69 -50 119t-119 50q-70 0 -120.5 -50t-50.5 -119q0 -71 50 -121t121 -50zM356 542q0 -39 -36 -55l44 -77h-47l-41 71h-38
v-71h-41v192h93q28 0 47 -17t19 -43zM238 562v-43h52q11 0 18 6t7 15q0 10 -7 16t-18 6h-52z" />
    <glyph glyph-name="degree" unicode="&#xb0;" horiz-adv-x="397" 
d="M191 699h1q64 0 106 -43.5t42 -108.5q0 -68 -42.5 -108.5t-106.5 -40.5q-62 0 -105 40.5t-43 108.5q0 67 43 109.5t105 42.5zM190 662h-1q-44 0 -71.5 -30.5t-27.5 -83.5q0 -49 29 -82t74 -33q46 0 73.5 31t27.5 82t-27 83.5t-77 32.5z" />
    <glyph glyph-name="plusminus" unicode="&#xb1;" horiz-adv-x="555" 
d="M312 416h171v-68h-171v-110h-68v110h-172v68h172v142h68v-142zM72 122v68h411v-68h-411z" />
    <glyph glyph-name="paragraph" unicode="&#xb6;" horiz-adv-x="591" 
d="M358 -53h-54v326h-13q-100 0 -169.5 53t-69.5 152q0 233 318 233q88 0 128 -8v-756h-54v716h-86v-716z" />
    <glyph glyph-name="periodcentered" unicode="&#xb7;" horiz-adv-x="237" 
d="M119 343q25 0 43.5 -18.5t18.5 -43.5q0 -26 -18.5 -44.5t-43.5 -18.5q-26 0 -44.5 18.5t-18.5 44.5q0 25 18.5 43.5t44.5 18.5z" />
    <glyph glyph-name="guillemotright" unicode="&#xbb;" horiz-adv-x="634" 
d="M167 465l166 -185l-166 -185h-92l167 185l-167 185h92zM408 465l166 -185l-166 -185h-92l167 185l-167 185h92z" />
    <glyph glyph-name="onequarter" unicode="&#xbc;" horiz-adv-x="912" 
d="M630 701l40 -26l-455 -696l-40 26zM238 240h-70v343q-41 -43 -123 -43v63q66 3 94.5 24t28.5 62h70v-449zM867 167v-59h-77v-108h-66v108h-221v50l160 291h74l-157 -282h144v136h66v-136h77z" />
    <glyph glyph-name="onehalf" unicode="&#xbd;" horiz-adv-x="904" 
d="M630 701l40 -26l-455 -696l-40 26zM238 240h-70v343q-41 -43 -123 -43v63q66 3 94.5 24t28.5 62h70v-449zM653 65h206v-65h-309v50l195 201q34 36 34 72q0 30 -23 51t-57 21t-59 -25t-28 -63l-65 13q5 59 48.5 99t103.5 40q61 0 104.5 -39.5t43.5 -94.5q0 -64 -58 -122z
" />
    <glyph glyph-name="threequarters" unicode="&#xbe;" horiz-adv-x="976" 
d="M694 701l40 -26l-455 -696l-40 26zM372 362q0 -57 -47 -94.5t-113 -37.5q-64 0 -110 35.5t-57 91.5l65 19q5 -36 33 -58.5t68 -22.5q39 0 66.5 21.5t27.5 52.5t-29 52t-76 21h-58v57h58q42 0 68.5 19t26.5 49q0 29 -25 49t-60 20q-38 0 -63.5 -22.5t-30.5 -57.5l-66 17
q11 57 55.5 92t105.5 35q63 0 107.5 -36t44.5 -91q0 -70 -74 -102q83 -33 83 -109zM931 167v-59h-77v-108h-66v108h-221v50l160 291h74l-157 -282h144v136h66v-136h77z" />
    <glyph glyph-name="questiondown" unicode="&#xbf;" horiz-adv-x="539" 
d="M304 510q22 0 38 -15.5t16 -37.5q0 -23 -16 -38.5t-38 -15.5t-37.5 16t-15.5 38t15.5 37.5t37.5 15.5zM266 312h78v-21q0 -66 -25 -104t-79 -63q-61 -29 -88 -56.5t-27 -67.5q0 -55 39.5 -88t103.5 -33q62 0 106 36t55 97l77 -21q-20 -86 -84.5 -138t-153.5 -52
q-96 0 -159.5 55t-63.5 140q0 117 135 182q46 22 66 43.5t20 64.5v26z" />
    <glyph glyph-name="Agrave" unicode="&#xc0;" horiz-adv-x="727" 
d="M404 740h-65l-90 113l78 37zM608 0l-75 181h-340l-74 -181h-85l283 680h90l286 -680h-85zM224 256h278l-140 336z" />
    <glyph glyph-name="Aacute" unicode="&#xc1;" horiz-adv-x="727" 
d="M484 853l-89 -113h-65l77 150zM608 0l-75 181h-340l-74 -181h-85l283 680h90l286 -680h-85zM224 256h278l-140 336z" />
    <glyph glyph-name="Acircumflex" unicode="&#xc2;" horiz-adv-x="727" 
d="M365 814l-111 -92l-33 33l112 121h63l112 -121l-33 -33zM608 0l-75 181h-340l-74 -181h-85l283 680h90l286 -680h-85zM224 256h278l-140 336z" />
    <glyph glyph-name="Atilde" unicode="&#xc3;" horiz-adv-x="727" 
d="M294 804q-39 0 -39 -54h-54q0 52 25.5 84t66.5 32q38 0 87 -38q34 -26 55 -26q38 0 38 55h54q0 -53 -25.5 -85t-67.5 -32q-34 0 -86 38q-34 26 -54 26zM608 0l-75 181h-340l-74 -181h-85l283 680h90l286 -680h-85zM224 256h278l-140 336z" />
    <glyph glyph-name="Adieresis" unicode="&#xc4;" horiz-adv-x="727" 
d="M275 744q-22 0 -37 14.5t-15 36.5q0 21 15 35.5t37 14.5q20 0 35 -14.5t15 -35.5t-14.5 -36t-35.5 -15zM456 744q-21 0 -36 14.5t-15 36.5q0 21 15 35.5t36 14.5t36 -14.5t15 -35.5t-15 -36t-36 -15zM608 0l-75 181h-340l-74 -181h-85l283 680h90l286 -680h-85zM224 256
h278l-140 336z" />
    <glyph glyph-name="Aring" unicode="&#xc5;" horiz-adv-x="727" 
d="M608 0l-75 181h-340l-74 -181h-85l277 666q-42 29 -42 78q0 38 27.5 65.5t66.5 27.5q38 0 65.5 -27.5t27.5 -65.5q0 -52 -43 -78l280 -666h-85zM363 800q-23 0 -40 -16.5t-17 -39.5t17 -39.5t40 -16.5t39.5 16.5t16.5 39.5t-16.5 39.5t-39.5 16.5zM224 256h278l-140 336z
" />
    <glyph glyph-name="AE" unicode="&#xc6;" horiz-adv-x="967" 
d="M908 605h-355v-228h238v-74h-238v-228h355v-75h-432v185h-281l-76 -185h-85l283 680h591v-75zM476 260v345h-109l-141 -345h250z" />
    <glyph glyph-name="Ccedilla" unicode="&#xc7;" horiz-adv-x="758" 
d="M421 59q72 0 133 34t99 93l66 -40q-46 -72 -121 -115t-164 -47l-58 -128l-70 36l65 95q-132 18 -219.5 118t-87.5 235q0 149 104 252.5t253 103.5q92 0 171 -44t127 -119l-66 -39q-38 59 -99 92.5t-133 33.5q-118 0 -198 -81t-80 -199t80.5 -199.5t197.5 -81.5z" />
    <glyph glyph-name="Egrave" unicode="&#xc8;" horiz-adv-x="591" 
d="M347 740h-65l-90 113l78 37zM532 605h-358v-228h255v-74h-255v-228h358v-75h-437v680h437v-75z" />
    <glyph glyph-name="Eacute" unicode="&#xc9;" horiz-adv-x="591" 
d="M427 853l-89 -113h-65l77 150zM532 605h-358v-228h255v-74h-255v-228h358v-75h-437v680h437v-75z" />
    <glyph glyph-name="Ecircumflex" unicode="&#xca;" horiz-adv-x="591" 
d="M308 814l-111 -92l-33 33l112 121h63l112 -121l-33 -33zM532 605h-358v-228h255v-74h-255v-228h358v-75h-437v680h437v-75z" />
    <glyph glyph-name="Edieresis" unicode="&#xcb;" horiz-adv-x="591" 
d="M218 744q-22 0 -37 14.5t-15 36.5q0 21 15 35.5t37 14.5q20 0 35 -14.5t15 -35.5t-15 -36t-35 -15zM399 744q-21 0 -36 14.5t-15 36.5q0 21 15 35.5t36 14.5t36 -14.5t15 -35.5t-15 -36t-36 -15zM532 605h-358v-228h255v-74h-255v-228h358v-75h-437v680h437v-75z" />
    <glyph glyph-name="Igrave" unicode="&#xcc;" horiz-adv-x="283" 
d="M104 890l77 -150h-65l-90 113zM102 680h79v-680h-79v680z" />
    <glyph glyph-name="Iacute" unicode="&#xcd;" horiz-adv-x="283" 
d="M184 890l77 -37l-89 -113h-65zM102 680h79v-680h-79v680z" />
    <glyph glyph-name="Icircumflex" unicode="&#xce;" horiz-adv-x="283" 
d="M173 876l112 -121l-33 -33l-110 92l-111 -92l-33 33l112 121h63zM102 0v680h79v-680h-79z" />
    <glyph glyph-name="Idieresis" unicode="&#xcf;" horiz-adv-x="283" 
d="M52 744q-22 0 -37 14.5t-15 36.5q0 21 15 35.5t37 14.5q20 0 35 -14.5t15 -35.5t-15 -36t-35 -15zM233 744q-21 0 -36 14.5t-15 36.5q0 21 15 35.5t36 14.5t36 -14.5t15 -35.5t-15 -36t-36 -15zM102 680h79v-680h-79v680z" />
    <glyph glyph-name="Eth" unicode="&#xd0;" horiz-adv-x="753" 
d="M324 680q156 0 260.5 -96t104.5 -244t-104.5 -244t-260.5 -96h-229v309h-91v62h91v309h229zM324 75q125 0 206 74t81 191q0 116 -81 190.5t-206 74.5h-150v-234h230v-62h-230v-234h150z" />
    <glyph glyph-name="Ntilde" unicode="&#xd1;" horiz-adv-x="762" 
d="M309 804q-39 0 -39 -54h-54q0 52 25.5 84t66.5 32q38 0 87 -38q34 -26 55 -26q38 0 38 55h54q0 -53 -25.5 -85t-67.5 -32q-34 0 -86 38q-34 26 -54 26zM588 680h79v-680h-65l-428 539v-539h-79v680h64l429 -540v540z" />
    <glyph glyph-name="Ograve" unicode="&#xd2;" horiz-adv-x="840" 
d="M382 896l77 -150h-65l-90 113zM421 -16q-149 0 -253 103.5t-104 252.5t104 252.5t253 103.5q147 0 250.5 -104t103.5 -252t-103.5 -252t-250.5 -104zM421 59q117 0 196.5 81.5t79.5 199.5t-79.5 199t-196.5 81q-118 0 -198 -80.5t-80 -199.5t80 -200t198 -81z" />
    <glyph glyph-name="Oacute" unicode="&#xd3;" horiz-adv-x="840" 
d="M462 896l77 -37l-89 -113h-65zM421 -16q-149 0 -253 103.5t-104 252.5t104 252.5t253 103.5q147 0 250.5 -104t103.5 -252t-103.5 -252t-250.5 -104zM421 59q117 0 196.5 81.5t79.5 199.5t-79.5 199t-196.5 81q-118 0 -198 -80.5t-80 -199.5t80 -200t198 -81z" />
    <glyph glyph-name="Ocircumflex" unicode="&#xd4;" horiz-adv-x="840" 
d="M420 820l-111 -92l-33 33l112 121h63l112 -121l-33 -33zM421 696q147 0 250.5 -104t103.5 -252t-103.5 -252t-250.5 -104q-149 0 -253 103.5t-104 252.5t104 252.5t253 103.5zM421 59q117 0 196.5 81.5t79.5 199.5t-79.5 199t-196.5 81q-118 0 -198 -80.5t-80 -199.5
t80 -200t198 -81z" />
    <glyph glyph-name="Otilde" unicode="&#xd5;" horiz-adv-x="840" 
d="M528 863h54q0 -53 -25.5 -85t-67.5 -32q-34 0 -86 38q-34 26 -54 26q-39 0 -39 -54h-54q0 52 25.5 84t66.5 32q38 0 87 -38q34 -26 55 -26q38 0 38 55zM421 -16q-149 0 -253 103.5t-104 252.5t104 252.5t253 103.5q147 0 250.5 -104t103.5 -252t-103.5 -252t-250.5 -104z
M421 59q117 0 196.5 81.5t79.5 199.5t-79.5 199t-196.5 81q-118 0 -198 -80.5t-80 -199.5t80 -200t198 -81z" />
    <glyph glyph-name="Odieresis" unicode="&#xd6;" horiz-adv-x="840" 
d="M330 750q-22 0 -37 14.5t-15 36.5q0 21 15 35.5t37 14.5q20 0 35 -14.5t15 -35.5t-15 -36t-35 -15zM511 750q-21 0 -36 14.5t-15 36.5q0 21 15 35.5t36 14.5t36 -14.5t15 -35.5t-15 -36t-36 -15zM421 -16q-149 0 -253 103.5t-104 252.5t104 252.5t253 103.5
q147 0 250.5 -104t103.5 -252t-103.5 -252t-250.5 -104zM421 59q117 0 196.5 81.5t79.5 199.5t-79.5 199t-196.5 81q-118 0 -198 -80.5t-80 -199.5t80 -200t198 -81z" />
    <glyph glyph-name="multiply" unicode="&#xd7;" horiz-adv-x="476" 
d="M416 470l-130 -130l130 -130l-48 -48l-130 130l-130 -130l-48 48l130 130l-130 130l48 48l130 -130l130 130z" />
    <glyph glyph-name="Oslash" unicode="&#xd8;" horiz-adv-x="840" 
d="M692 570q83 -97 83 -230q0 -148 -103.5 -252t-250.5 -104q-133 0 -231 84l-74 -74l-45 45l74 74q-81 97 -81 227q0 149 104 252.5t253 103.5q129 0 226 -81l69 69l44 -45zM143 340q0 -96 56 -173l394 394q-75 59 -172 59q-118 0 -198 -80.5t-80 -199.5zM421 59
q117 0 196.5 81.5t79.5 199.5q0 100 -60 176l-394 -395q76 -62 178 -62z" />
    <glyph glyph-name="Ugrave" unicode="&#xd9;" horiz-adv-x="744" 
d="M334 890l77 -150h-65l-90 113zM581 680h78v-382q0 -142 -78.5 -228t-208.5 -86t-209 86t-79 228v382h79v-382q0 -109 57 -174t152 -65t152 65t57 174v382z" />
    <glyph glyph-name="Uacute" unicode="&#xda;" horiz-adv-x="744" 
d="M414 890l77 -37l-89 -113h-65zM581 680h78v-382q0 -142 -78.5 -228t-208.5 -86t-209 86t-79 228v382h79v-382q0 -109 57 -174t152 -65t152 65t57 174v382z" />
    <glyph glyph-name="Ucircumflex" unicode="&#xdb;" horiz-adv-x="744" 
d="M372 814l-111 -92l-33 33l112 121h63l112 -121l-33 -33zM581 680h78v-382q0 -142 -78.5 -228t-208.5 -86t-209 86t-79 228v382h79v-382q0 -109 57 -174t152 -65t152 65t57 174v382z" />
    <glyph glyph-name="Udieresis" unicode="&#xdc;" horiz-adv-x="744" 
d="M282 744q-22 0 -37 14.5t-15 36.5q0 21 15 35.5t37 14.5q20 0 35 -14.5t15 -35.5t-15 -36t-35 -15zM463 744q-21 0 -36 14.5t-15 36.5q0 21 15 35.5t36 14.5t36 -14.5t15 -35.5t-15 -36t-36 -15zM581 680h78v-382q0 -142 -78.5 -228t-208.5 -86t-209 86t-79 228v382h79
v-382q0 -109 57 -174t152 -65t152 65t57 174v382z" />
    <glyph glyph-name="Yacute" unicode="&#xdd;" horiz-adv-x="656" 
d="M451 853l-89 -113h-65l77 150zM635 680l-268 -402v-278h-78v278l-268 402h95l212 -325l212 325h95z" />
    <glyph glyph-name="Thorn" unicode="&#xde;" horiz-adv-x="668" 
d="M386 536q93 0 155 -55.5t62 -139.5q0 -83 -61.5 -140t-155.5 -57h-212v-144h-79v680h79v-144h212zM386 220q62 0 100.5 34t38.5 86q0 53 -39 87t-100 34h-212v-241h212z" />
    <glyph glyph-name="germandbls" unicode="&#xdf;" horiz-adv-x="588" 
d="M411 352q58 -22 92 -66.5t34 -102.5q0 -84 -67.5 -141t-166.5 -57q-41 0 -83 16v82q36 -23 83 -23q67 0 111.5 36.5t44.5 91.5t-44 92t-112 37h-83v68h83q62 0 101.5 35t39.5 88t-40 87.5t-99 34.5q-64 0 -106.5 -44.5t-42.5 -123.5v-462h-76v462q0 61 20.5 109
t53.5 76.5t72 43t79 14.5q91 0 154.5 -56t63.5 -137q0 -54 -30 -96t-82 -64z" />
    <glyph glyph-name="agrave" unicode="&#xe0;" horiz-adv-x="533" 
d="M298 560h-65l-90 113l78 37zM255 511q91 0 147.5 -56.5t56.5 -149.5v-305h-74v81q-24 -40 -72 -65.5t-104 -25.5q-70 0 -117 40.5t-47 105.5q0 61 44 100t117 53l178 36q-6 51 -38.5 84.5t-85.5 33.5q-43 0 -80.5 -22t-59.5 -57l-60 42q31 47 84 76t111 29zM226 59
q64 0 111.5 40t47.5 101v59l-165 -34q-101 -23 -101 -87q0 -35 30 -57t77 -22z" />
    <glyph glyph-name="aacute" unicode="&#xe1;" horiz-adv-x="533" 
d="M378 673l-89 -113h-65l77 150zM255 511q91 0 147.5 -56.5t56.5 -149.5v-305h-74v81q-24 -40 -72 -65.5t-104 -25.5q-70 0 -117 40.5t-47 105.5q0 61 44 100t117 53l178 36q-6 51 -38.5 84.5t-85.5 33.5q-43 0 -80.5 -22t-59.5 -57l-60 42q31 47 84 76t111 29zM226 59
q64 0 111.5 40t47.5 101v59l-165 -34q-101 -23 -101 -87q0 -35 30 -57t77 -22z" />
    <glyph glyph-name="acircumflex" unicode="&#xe2;" horiz-adv-x="533" 
d="M259 634l-111 -92l-33 33l112 121h63l112 -121l-33 -33zM255 511q91 0 147.5 -56.5t56.5 -149.5v-305h-74v81q-24 -40 -72 -65.5t-104 -25.5q-70 0 -117 40.5t-47 105.5q0 61 44 100t117 53l178 36q-6 51 -38.5 84.5t-85.5 33.5q-43 0 -80.5 -22t-59.5 -57l-60 42
q31 47 84 76t111 29zM226 59q64 0 111.5 40t47.5 101v59l-165 -34q-101 -23 -101 -87q0 -35 30 -57t77 -22z" />
    <glyph glyph-name="atilde" unicode="&#xe3;" horiz-adv-x="533" 
d="M188 624q-39 0 -39 -54h-54q0 52 25.5 84t66.5 32q38 0 87 -38q34 -26 55 -26q38 0 38 55h54q0 -53 -25.5 -85t-67.5 -32q-34 0 -86 38q-34 26 -54 26zM255 511q91 0 147.5 -56.5t56.5 -149.5v-305h-74v81q-24 -40 -72 -65.5t-104 -25.5q-70 0 -117 40.5t-47 105.5
q0 61 44 100t117 53l178 36q-6 51 -38.5 84.5t-85.5 33.5q-43 0 -80.5 -22t-59.5 -57l-60 42q31 47 84 76t111 29zM226 59q64 0 111.5 40t47.5 101v59l-165 -34q-101 -23 -101 -87q0 -35 30 -57t77 -22z" />
    <glyph glyph-name="adieresis" unicode="&#xe4;" horiz-adv-x="533" 
d="M169 564q-22 0 -37 14.5t-15 36.5q0 21 15 35.5t37 14.5q20 0 35 -14.5t15 -35.5t-14.5 -36t-35.5 -15zM350 564q-21 0 -36 14.5t-15 36.5q0 21 15 35.5t36 14.5t36 -14.5t15 -35.5t-15 -36t-36 -15zM255 511q91 0 147.5 -56.5t56.5 -149.5v-305h-74v81
q-24 -40 -72 -65.5t-104 -25.5q-70 0 -117 40.5t-47 105.5q0 61 44 100t117 53l178 36q-6 51 -38.5 84.5t-85.5 33.5q-43 0 -80.5 -22t-59.5 -57l-60 42q31 47 84 76t111 29zM226 59q64 0 111.5 40t47.5 101v59l-165 -34q-101 -23 -101 -87q0 -35 30 -57t77 -22z" />
    <glyph glyph-name="aring" unicode="&#xe5;" horiz-adv-x="533" 
d="M261 542q-39 0 -66.5 27.5t-27.5 65.5t27.5 65.5t66.5 27.5q38 0 65.5 -27.5t27.5 -65.5t-27.5 -65.5t-65.5 -27.5zM261 691q-23 0 -40 -16.5t-17 -39.5t17 -39.5t40 -16.5t39.5 16.5t16.5 39.5t-16.5 39.5t-39.5 16.5zM255 511q91 0 147.5 -56.5t56.5 -149.5v-305h-74
v81q-24 -40 -72 -65.5t-104 -25.5q-70 0 -117 40.5t-47 105.5q0 61 44 100t117 53l178 36q-6 51 -38.5 84.5t-85.5 33.5q-43 0 -80.5 -22t-59.5 -57l-60 42q31 47 84 76t111 29zM226 59q64 0 111.5 40t47.5 101v59l-165 -34q-101 -23 -101 -87q0 -35 30 -57t77 -22z" />
    <glyph glyph-name="ae" unicode="&#xe6;" horiz-adv-x="901" 
d="M851 293q3 -36 0 -77h-390q9 -72 52 -113.5t110 -41.5q50 0 92 23t64 61l63 -36q-32 -54 -91.5 -86.5t-127.5 -32.5q-67 0 -120 31.5t-84 86.5q-25 -49 -81 -83.5t-125 -34.5q-73 0 -120.5 40t-47.5 105q0 62 44 101t117 53l178 36q-6 51 -38.5 84.5t-85.5 33.5
q-43 0 -80.5 -22t-59.5 -57l-60 42q33 47 85 76t113 29q57 0 103 -26t72 -72q69 97 190 97q88 0 152.5 -55.5t75.5 -161.5zM622 439q-67 0 -110 -42t-51 -113h315q-1 72 -45 113.5t-109 41.5zM224 59q59 0 108 39.5t55 106.5q-3 23 -3 45v8l-164 -33q-45 -10 -73 -32
t-28 -55q0 -35 30.5 -57t74.5 -22z" />
    <glyph glyph-name="ccedilla" unicode="&#xe7;" horiz-adv-x="547" 
d="M289 61q99 0 157 85l62 -37q-35 -52 -89 -83.5t-117 -35.5l-61 -134l-70 36l70 102q-90 16 -147 88t-57 169q0 110 71.5 185.5t179.5 75.5q67 0 125 -32t95 -87l-62 -37q-57 85 -157 85q-76 0 -126.5 -54.5t-50.5 -135.5t50.5 -135.5t126.5 -54.5z" />
    <glyph glyph-name="egrave" unicode="&#xe8;" horiz-adv-x="568" 
d="M326 560h-65l-90 113l78 37zM517 293q5 -36 0 -77h-389q9 -72 52 -113.5t110 -41.5q50 0 91.5 22.5t64.5 61.5l62 -36q-32 -54 -91 -86.5t-127 -32.5q-107 0 -173 75t-66 185t67 185t172 75q88 0 152 -55.5t75 -161.5zM288 439q-67 0 -109.5 -42t-50.5 -113h315
q-1 71 -45.5 113t-109.5 42z" />
    <glyph glyph-name="eacute" unicode="&#xe9;" horiz-adv-x="568" 
d="M406 673l-89 -113h-65l77 150zM517 293q5 -36 0 -77h-389q9 -72 52 -113.5t110 -41.5q50 0 91.5 22.5t64.5 61.5l62 -36q-32 -54 -91 -86.5t-127 -32.5q-107 0 -173 75t-66 185t67 185t172 75q88 0 152 -55.5t75 -161.5zM288 439q-67 0 -109.5 -42t-50.5 -113h315
q-1 71 -45.5 113t-109.5 42z" />
    <glyph glyph-name="ecircumflex" unicode="&#xea;" horiz-adv-x="568" 
d="M287 634l-111 -92l-33 33l112 121h63l112 -121l-33 -33zM517 293q5 -36 0 -77h-389q9 -72 52 -113.5t110 -41.5q50 0 91.5 22.5t64.5 61.5l62 -36q-32 -54 -91 -86.5t-127 -32.5q-107 0 -173 75t-66 185t67 185t172 75q88 0 152 -55.5t75 -161.5zM288 439
q-67 0 -109.5 -42t-50.5 -113h315q-1 71 -45.5 113t-109.5 42z" />
    <glyph glyph-name="edieresis" unicode="&#xeb;" horiz-adv-x="568" 
d="M197 564q-22 0 -37 14.5t-15 36.5q0 21 15 35.5t37 14.5q20 0 35 -14.5t15 -35.5t-14.5 -36t-35.5 -15zM378 564q-21 0 -36 14.5t-15 36.5q0 21 15 35.5t36 14.5t36 -14.5t15 -35.5t-15 -36t-36 -15zM517 293q5 -36 0 -77h-389q9 -72 52 -113.5t110 -41.5q50 0 91.5 22.5
t64.5 61.5l62 -36q-32 -54 -91 -86.5t-127 -32.5q-107 0 -173 75t-66 185t67 185t172 75q88 0 152 -55.5t75 -161.5zM288 439q-67 0 -109.5 -42t-50.5 -113h315q-1 71 -45.5 113t-109.5 42z" />
    <glyph glyph-name="igrave" unicode="&#xec;" horiz-adv-x="242" 
d="M83 710l77 -150h-65l-90 113zM84 500h74v-500h-74v500z" />
    <glyph glyph-name="iacute" unicode="&#xed;" horiz-adv-x="242" 
d="M163 710l77 -37l-89 -113h-65zM84 500h74v-500h-74v500z" />
    <glyph glyph-name="icircumflex" unicode="&#xee;" horiz-adv-x="242" 
d="M152 696l112 -121l-33 -33l-110 92l-111 -92l-33 33l112 121h63zM84 0v500h74v-500h-74z" />
    <glyph glyph-name="idieresis" unicode="&#xef;" horiz-adv-x="242" 
d="M31 564q-22 0 -37 14.5t-15 36.5q0 21 15 35.5t37 14.5q20 0 35 -14.5t15 -35.5t-14.5 -36t-35.5 -15zM212 564q-21 0 -36 14.5t-15 36.5q0 21 15 35.5t36 14.5t36 -14.5t15 -35.5t-15 -36t-36 -15zM84 500h74v-500h-74v500z" />
    <glyph glyph-name="eth" unicode="&#xf0;" horiz-adv-x="559" 
d="M381 558q123 -184 123 -325q0 -117 -68.5 -182.5t-162.5 -65.5q-95 0 -161 65t-66 159q0 92 64 154.5t154 62.5q84 0 133 -54q-30 76 -86 161l-159 -58l-22 58l143 52q-34 47 -85 99l55 46q53 -55 101 -119l102 37l22 -58zM275 56q66 -1 109.5 44t44.5 113
q-2 64 -46 108.5t-108 44.5q-64 1 -109 -44.5t-45 -110.5q0 -64 44.5 -109t109.5 -46z" />
    <glyph glyph-name="ntilde" unicode="&#xf1;" horiz-adv-x="593" 
d="M227 624q-39 0 -39 -54h-54q0 52 25.5 84t66.5 32q38 0 87 -38q34 -26 55 -26q38 0 38 55h54q0 -53 -25.5 -85t-67.5 -32q-34 0 -86 38q-34 26 -54 26zM323 511q83 0 139 -60.5t56 -155.5v-295h-74v282q0 72 -40 115.5t-99 43.5q-64 0 -106 -48t-42 -114v-279h-74v500h74
v-84q24 42 68.5 68.5t97.5 26.5z" />
    <glyph glyph-name="ograve" unicode="&#xf2;" horiz-adv-x="622" 
d="M273 710l77 -150h-65l-90 113zM312 -10q-109 0 -185 76t-76 184t76 184t185 76q107 0 183 -76t76 -184t-76 -184t-183 -76zM312 61q77 0 130.5 55t53.5 134t-53.5 134t-130.5 55q-78 0 -132.5 -54.5t-54.5 -134.5t54.5 -134.5t132.5 -54.5z" />
    <glyph glyph-name="oacute" unicode="&#xf3;" horiz-adv-x="622" 
d="M353 710l77 -37l-89 -113h-65zM312 -10q-109 0 -185 76t-76 184t76 184t185 76q107 0 183 -76t76 -184t-76 -184t-183 -76zM312 61q77 0 130.5 55t53.5 134t-53.5 134t-130.5 55q-78 0 -132.5 -54.5t-54.5 -134.5t54.5 -134.5t132.5 -54.5z" />
    <glyph glyph-name="ocircumflex" unicode="&#xf4;" horiz-adv-x="622" 
d="M311 634l-111 -92l-33 33l112 121h63l112 -121l-33 -33zM312 510q107 0 183 -76t76 -184t-76 -184t-183 -76q-109 0 -185 76t-76 184t76 184t185 76zM312 61q77 0 130.5 55t53.5 134t-53.5 134t-130.5 55q-78 0 -132.5 -54.5t-54.5 -134.5t54.5 -134.5t132.5 -54.5z" />
    <glyph glyph-name="otilde" unicode="&#xf5;" horiz-adv-x="622" 
d="M419 677h54q0 -53 -25.5 -85t-67.5 -32q-34 0 -86 38q-34 26 -54 26q-39 0 -39 -54h-54q0 52 25.5 84t66.5 32q38 0 87 -38q34 -26 55 -26q38 0 38 55zM312 -10q-109 0 -185 76t-76 184t76 184t185 76q107 0 183 -76t76 -184t-76 -184t-183 -76zM312 61q77 0 130.5 55
t53.5 134t-53.5 134t-130.5 55q-78 0 -132.5 -54.5t-54.5 -134.5t54.5 -134.5t132.5 -54.5z" />
    <glyph glyph-name="odieresis" unicode="&#xf6;" horiz-adv-x="622" 
d="M221 564q-22 0 -37 14.5t-15 36.5q0 21 15 35.5t37 14.5q20 0 35 -14.5t15 -35.5t-14.5 -36t-35.5 -15zM402 564q-21 0 -36 14.5t-15 36.5q0 21 15 35.5t36 14.5t36 -14.5t15 -35.5t-15 -36t-36 -15zM312 -10q-109 0 -185 76t-76 184t76 184t185 76q107 0 183 -76
t76 -184t-76 -184t-183 -76zM312 61q77 0 130.5 55t53.5 134t-53.5 134t-130.5 55q-78 0 -132.5 -54.5t-54.5 -134.5t54.5 -134.5t132.5 -54.5z" />
    <glyph glyph-name="divide" unicode="&#xf7;" horiz-adv-x="555" 
d="M278 565q22 0 38 -16t16 -38t-16 -38t-38 -16t-38 16t-16 38t16 38t38 16zM60 306v68h435v-68h-435zM278 223q22 0 38 -16t16 -38t-16 -38t-38 -16t-38 16t-16 38t16 38t38 16z" />
    <glyph glyph-name="oslash" unicode="&#xf8;" horiz-adv-x="622" 
d="M578 491l-70 -70q63 -74 63 -171q0 -108 -76 -184t-183 -76q-99 0 -171 64l-86 -86l-40 40l87 87q-51 69 -51 155q0 108 76 184t185 76q85 0 154 -51l72 72zM125 250q0 -56 29 -103l261 261q-49 31 -103 31q-78 0 -132.5 -54.5t-54.5 -134.5zM496 250q0 68 -40 119
l-265 -265q53 -43 121 -43q77 0 130.5 55t53.5 134z" />
    <glyph glyph-name="ugrave" unicode="&#xf9;" horiz-adv-x="592" 
d="M329 560h-65l-90 113l78 37zM436 500h74v-500h-74v84q-24 -42 -68.5 -68.5t-97.5 -26.5q-83 0 -139 60.5t-56 155.5v295h74v-282q0 -72 40 -115.5t99 -43.5q64 0 106 48t42 114v279z" />
    <glyph glyph-name="uacute" unicode="&#xfa;" horiz-adv-x="592" 
d="M409 673l-89 -113h-65l77 150zM436 500h74v-500h-74v84q-24 -42 -68.5 -68.5t-97.5 -26.5q-83 0 -139 60.5t-56 155.5v295h74v-282q0 -72 40 -115.5t99 -43.5q64 0 106 48t42 114v279z" />
    <glyph glyph-name="ucircumflex" unicode="&#xfb;" horiz-adv-x="592" 
d="M290 634l-111 -92l-33 33l112 121h63l112 -121l-33 -33zM436 500h74v-500h-74v84q-24 -42 -68.5 -68.5t-97.5 -26.5q-83 0 -139 60.5t-56 155.5v295h74v-282q0 -72 40 -115.5t99 -43.5q64 0 106 48t42 114v279z" />
    <glyph glyph-name="udieresis" unicode="&#xfc;" horiz-adv-x="592" 
d="M200 564q-22 0 -37 14.5t-15 36.5q0 21 15 35.5t37 14.5q20 0 35 -14.5t15 -35.5t-15 -36t-35 -15zM381 564q-21 0 -36 14.5t-15 36.5q0 21 15 35.5t36 14.5t36 -14.5t15 -35.5t-15 -36t-36 -15zM436 500h74v-500h-74v84q-24 -42 -68.5 -68.5t-97.5 -26.5
q-83 0 -139 60.5t-56 155.5v295h74v-282q0 -72 40 -115.5t99 -43.5q64 0 106 48t42 114v279z" />
    <glyph glyph-name="yacute" unicode="&#xfd;" horiz-adv-x="559" 
d="M401 673l-89 -113h-65l77 150zM449 500h77l-296 -700h-79l96 226l-215 474h81l173 -382z" />
    <glyph glyph-name="thorn" unicode="&#xfe;" horiz-adv-x="608" 
d="M555 251q1 -114 -64.5 -187.5t-164.5 -73.5q-57 0 -101 24.5t-68 65.5v-280h-74v900h74v-289q23 45 67 73t103 28q98 0 163.5 -73t64.5 -188zM322 60q70 1 114.5 54.5t44.5 136.5q0 84 -44 137t-115 54t-120.5 -54t-49.5 -137q0 -84 47 -138t123 -53z" />
    <glyph glyph-name="ydieresis" unicode="&#xff;" horiz-adv-x="559" 
d="M192 564q-22 0 -37 14.5t-15 36.5q0 21 15 35.5t37 14.5q20 0 35 -14.5t15 -35.5t-15 -36t-35 -15zM373 564q-21 0 -36 14.5t-15 36.5q0 21 15 35.5t36 14.5t36 -14.5t15 -35.5t-15 -36t-36 -15zM449 500h77l-296 -700h-79l96 226l-215 474h81l173 -382z" />
    <glyph glyph-name="Amacron" unicode="&#x100;" horiz-adv-x="727" 
d="M540 821v-62h-350v62h350zM608 0l-75 181h-340l-74 -181h-85l283 680h90l286 -680h-85zM224 256h278l-140 336z" />
    <glyph glyph-name="amacron" unicode="&#x101;" horiz-adv-x="533" 
d="M434 641v-62h-350v62h350zM255 511q91 0 147.5 -56.5t56.5 -149.5v-305h-74v81q-24 -40 -72 -65.5t-104 -25.5q-70 0 -117 40.5t-47 105.5q0 61 44 100t117 53l178 36q-6 51 -38.5 84.5t-85.5 33.5q-43 0 -80.5 -22t-59.5 -57l-60 42q31 47 84 76t111 29zM226 59
q64 0 111.5 40t47.5 101v59l-165 -34q-101 -23 -101 -87q0 -35 30 -57t77 -22z" />
    <glyph glyph-name="Abreve" unicode="&#x102;" horiz-adv-x="727" 
d="M367 736q-67 0 -111 40.5t-44 103.5h55q0 -38 27.5 -61.5t72.5 -23.5t72.5 23.5t27.5 61.5h55q0 -63 -44 -103.5t-111 -40.5zM608 0l-75 181h-340l-74 -181h-85l283 680h90l286 -680h-85zM224 256h278l-140 336z" />
    <glyph glyph-name="abreve" unicode="&#x103;" horiz-adv-x="533" 
d="M261 556q-67 0 -111 40.5t-44 103.5h55q0 -38 27.5 -61.5t72.5 -23.5t72.5 23.5t27.5 61.5h55q0 -63 -44 -103.5t-111 -40.5zM255 511q91 0 147.5 -56.5t56.5 -149.5v-305h-74v81q-24 -40 -72 -65.5t-104 -25.5q-70 0 -117 40.5t-47 105.5q0 61 44 100t117 53l178 36
q-6 51 -38.5 84.5t-85.5 33.5q-43 0 -80.5 -22t-59.5 -57l-60 42q31 47 84 76t111 29zM226 59q64 0 111.5 40t47.5 101v59l-165 -34q-101 -23 -101 -87q0 -35 30 -57t77 -22z" />
    <glyph glyph-name="Aogonek" unicode="&#x104;" horiz-adv-x="727" 
d="M646 -82q0 -30 25 -38t65 12v-58q-67 -25 -109 -2.5t-42 74.5q0 50 42 94h-19l-75 181h-340l-74 -181h-85l283 680h90l286 -680q-47 -45 -47 -82zM224 256h278l-140 336z" />
    <glyph glyph-name="aogonek" unicode="&#x105;" horiz-adv-x="533" 
d="M412 -82q0 -30 25 -38t65 12v-58q-67 -25 -109 -2.5t-42 74.5q0 50 42 94h-8v81q-24 -40 -72 -65.5t-104 -25.5q-70 0 -117 40.5t-47 105.5q0 61 44 100t117 53l178 36q-6 51 -38.5 84.5t-85.5 33.5q-43 0 -80.5 -22t-59.5 -57l-60 42q31 47 84 76t111 29
q91 0 147.5 -56.5t56.5 -149.5v-305q-47 -45 -47 -82zM226 59q64 0 111.5 40t47.5 101v59l-165 -34q-101 -23 -101 -87q0 -35 30 -57t77 -22z" />
    <glyph glyph-name="Cacute" unicode="&#x106;" horiz-adv-x="758" 
d="M464 896l77 -37l-89 -113h-65zM653 494q-38 59 -99 92.5t-133 33.5q-118 0 -198 -81t-80 -199t80.5 -199.5t197.5 -81.5q72 0 133 34t99 93l66 -40q-48 -74 -127 -118t-171 -44q-149 0 -253 103.5t-104 252.5t104 252.5t253 103.5q92 0 171 -44t127 -119z" />
    <glyph glyph-name="cacute" unicode="&#x107;" horiz-adv-x="547" 
d="M330 710l77 -37l-89 -113h-65zM446 146l62 -37q-37 -55 -95 -87t-125 -32q-108 0 -179.5 75.5t-71.5 185.5t71.5 185.5t179.5 75.5q67 0 125 -32t95 -87l-62 -37q-57 85 -157 85q-76 0 -126.5 -54.5t-50.5 -135.5t50.5 -135.5t126.5 -54.5q99 0 157 85z" />
    <glyph glyph-name="Cdotaccent" unicode="&#x10a;" horiz-adv-x="758" 
d="M423 750q-21 0 -36 14.5t-15 36.5q0 21 15 35.5t36 14.5t36 -14.5t15 -35.5t-15 -36t-36 -15zM653 494q-38 59 -99 92.5t-133 33.5q-118 0 -198 -81t-80 -199t80.5 -199.5t197.5 -81.5q72 0 133 34t99 93l66 -40q-48 -74 -127 -118t-171 -44q-149 0 -253 103.5
t-104 252.5t104 252.5t253 103.5q92 0 171 -44t127 -119z" />
    <glyph glyph-name="cdotaccent" unicode="&#x10b;" horiz-adv-x="547" 
d="M289 564q-21 0 -36 14.5t-15 36.5q0 21 15 35.5t36 14.5t36 -14.5t15 -35.5t-15 -36t-36 -15zM446 146l62 -37q-37 -55 -95 -87t-125 -32q-108 0 -179.5 75.5t-71.5 185.5t71.5 185.5t179.5 75.5q67 0 125 -32t95 -87l-62 -37q-57 85 -157 85q-76 0 -126.5 -54.5
t-50.5 -135.5t50.5 -135.5t126.5 -54.5q99 0 157 85z" />
    <glyph glyph-name="Ccaron" unicode="&#x10c;" horiz-adv-x="758" 
d="M453 746h-63l-112 121l33 34l111 -93l110 93l33 -34zM421 59q72 0 133 34t99 93l66 -40q-48 -74 -127 -118t-171 -44q-149 0 -253 103.5t-104 252.5t104 252.5t253 103.5q92 0 171 -44t127 -119l-66 -39q-38 59 -99 92.5t-133 33.5q-118 0 -198 -81t-80 -199t80.5 -199.5
t197.5 -81.5z" />
    <glyph glyph-name="ccaron" unicode="&#x10d;" horiz-adv-x="547" 
d="M319 560h-63l-112 121l33 34l111 -93l110 93l33 -34zM289 61q99 0 157 85l62 -37q-37 -55 -95 -87t-125 -32q-108 0 -179.5 75.5t-71.5 185.5t71.5 185.5t179.5 75.5q67 0 125 -32t95 -87l-62 -37q-57 85 -157 85q-76 0 -126.5 -54.5t-50.5 -135.5t50.5 -135.5
t126.5 -54.5z" />
    <glyph glyph-name="Dcaron" unicode="&#x10e;" horiz-adv-x="753" 
d="M355 740h-63l-112 121l33 34l111 -93l110 93l33 -34zM324 680q156 0 260.5 -96t104.5 -244t-104.5 -244t-260.5 -96h-229v680h229zM324 75q125 0 206 74t81 191q0 116 -81 190.5t-206 74.5h-150v-530h150z" />
    <glyph glyph-name="dcaron" unicode="&#x10f;" horiz-adv-x="689" 
d="M441 417v283h74v-700h-74v94q-23 -48 -67 -76.5t-103 -28.5q-96 0 -162 73t-66 188q1 113 66 186.5t164 73.5q56 0 100 -25.5t68 -67.5zM592 700h78l-58 -259h-52zM282 60q70 0 117 53.5t47 136.5q0 84 -44.5 136.5t-119.5 52.5q-72 0 -118 -53t-46 -136t46 -136.5
t118 -53.5z" />
    <glyph glyph-name="Dcroat" unicode="&#x110;" horiz-adv-x="753" 
d="M324 680q156 0 260.5 -96t104.5 -244t-104.5 -244t-260.5 -96h-229v309h-91v62h91v309h229zM324 75q125 0 206 74t81 191q0 116 -81 190.5t-206 74.5h-150v-234h230v-62h-230v-234h150z" />
    <glyph glyph-name="dcroat" unicode="&#x111;" horiz-adv-x="598" 
d="M617 614v-58h-102v-556h-74v94q-23 -48 -67 -76.5t-103 -28.5q-96 0 -162 73t-66 188q1 113 66 186.5t164 73.5q56 0 100 -25.5t68 -67.5v139h-187v58h187v86h74v-86h102zM282 60q70 0 117 53.5t47 136.5q0 84 -44.5 136.5t-119.5 52.5q-72 0 -118 -53t-46 -136
t46 -136.5t118 -53.5z" />
    <glyph glyph-name="Emacron" unicode="&#x112;" horiz-adv-x="591" 
d="M483 821v-62h-350v62h350zM532 605h-358v-228h255v-74h-255v-228h358v-75h-437v680h437v-75z" />
    <glyph glyph-name="emacron" unicode="&#x113;" horiz-adv-x="568" 
d="M462 641v-62h-350v62h350zM517 293q5 -36 0 -77h-389q9 -72 52 -113.5t110 -41.5q50 0 91.5 22.5t64.5 61.5l62 -36q-32 -54 -91 -86.5t-127 -32.5q-107 0 -173 75t-66 185t67 185t172 75q88 0 152 -55.5t75 -161.5zM288 439q-67 0 -109.5 -42t-50.5 -113h315
q-1 71 -45.5 113t-109.5 42z" />
    <glyph glyph-name="Edotaccent" unicode="&#x116;" horiz-adv-x="591" 
d="M309 744q-21 0 -36 14.5t-15 36.5q0 21 15 35.5t36 14.5t36 -14.5t15 -35.5t-15 -36t-36 -15zM532 605h-358v-228h255v-74h-255v-228h358v-75h-437v680h437v-75z" />
    <glyph glyph-name="edotaccent" unicode="&#x117;" horiz-adv-x="568" 
d="M288 564q-21 0 -36 14.5t-15 36.5q0 21 15 35.5t36 14.5t36 -14.5t15 -35.5t-15 -36t-36 -15zM517 293q5 -36 0 -77h-389q9 -72 52 -113.5t110 -41.5q50 0 91.5 22.5t64.5 61.5l62 -36q-32 -54 -91 -86.5t-127 -32.5q-107 0 -173 75t-66 185t67 185t172 75
q88 0 152 -55.5t75 -161.5zM288 439q-67 0 -109.5 -42t-50.5 -113h315q-1 71 -45.5 113t-109.5 42z" />
    <glyph glyph-name="Eogonek" unicode="&#x118;" horiz-adv-x="591" 
d="M485 -82q0 -30 25 -38t65 12v-58q-67 -25 -109 -2.5t-42 74.5q0 50 42 94h-371v680h437v-75h-358v-228h255v-74h-255v-228h358v-75q-47 -45 -47 -82z" />
    <glyph glyph-name="eogonek" unicode="&#x119;" horiz-adv-x="568" 
d="M517 293q5 -36 0 -77h-389q9 -72 52 -113.5t110 -41.5q50 0 91.5 22.5t64.5 61.5l62 -36q-23 -39 -66 -70q-41 -44 -41 -77q0 -30 25 -38t65 12v-58q-67 -25 -109 -2.5t-42 74.5q0 26 9 47q-27 -7 -59 -7q-107 0 -173 75t-66 185t67 185t172 75q88 0 152 -55.5t75 -161.5
zM288 439q-67 0 -109.5 -42t-50.5 -113h315q-1 71 -45.5 113t-109.5 42z" />
    <glyph glyph-name="Ecaron" unicode="&#x11a;" horiz-adv-x="591" 
d="M339 740h-63l-112 121l33 34l111 -93l110 93l33 -34zM532 605h-358v-228h255v-74h-255v-228h358v-75h-437v680h437v-75z" />
    <glyph glyph-name="ecaron" unicode="&#x11b;" horiz-adv-x="568" 
d="M318 560h-63l-112 121l33 34l111 -93l110 93l33 -34zM517 293q5 -36 0 -77h-389q9 -72 52 -113.5t110 -41.5q50 0 91.5 22.5t64.5 61.5l62 -36q-32 -54 -91 -86.5t-127 -32.5q-107 0 -173 75t-66 185t67 185t172 75q88 0 152 -55.5t75 -161.5zM288 439q-67 0 -109.5 -42
t-50.5 -113h315q-1 71 -45.5 113t-109.5 42z" />
    <glyph glyph-name="Gbreve" unicode="&#x11e;" horiz-adv-x="825" 
d="M421 742q-67 0 -111 40.5t-44 103.5h55q0 -38 27.5 -61.5t72.5 -23.5t72.5 23.5t27.5 61.5h55q0 -63 -44 -103.5t-111 -40.5zM409 348h339v-35q0 -145 -93.5 -237t-234.5 -92q-151 0 -253.5 103.5t-102.5 251.5q0 149 104 253t253 104q92 0 171 -44t127 -119l-66 -39
q-37 59 -98.5 92.5t-133.5 33.5q-118 0 -198 -81t-80 -200q0 -118 79 -198.5t200 -80.5q104 0 174 60.5t75 152.5h-262v75z" />
    <glyph glyph-name="gbreve" unicode="&#x11f;" horiz-adv-x="608" 
d="M306 556q-67 0 -111 40.5t-44 103.5h55q0 -38 27.5 -61.5t72.5 -23.5t72.5 23.5t27.5 61.5h55q0 -63 -44 -103.5t-111 -40.5zM451 500h74v-468q0 -111 -69.5 -179t-177.5 -68q-56 0 -111.5 25t-95.5 67l55 49q65 -70 152 -70q78 0 125.5 48t47.5 129v55
q-23 -45 -67 -71.5t-102 -26.5q-98 0 -163.5 73t-65.5 187q1 114 66.5 187.5t162.5 73.5q57 0 101.5 -27t67.5 -73v89zM294 61q73 0 117.5 53t44.5 136t-47 136.5t-118 53.5t-117 -53.5t-46 -136.5t46.5 -136t119.5 -53z" />
    <glyph glyph-name="Gdotaccent" unicode="&#x120;" horiz-adv-x="825" 
d="M420 750q-21 0 -36 14.5t-15 36.5q0 21 15 35.5t36 14.5t36 -14.5t15 -35.5t-15 -36t-36 -15zM409 348h339v-35q0 -145 -93.5 -237t-234.5 -92q-151 0 -253.5 103.5t-102.5 251.5q0 149 104 253t253 104q92 0 171 -44t127 -119l-66 -39q-37 59 -98.5 92.5t-133.5 33.5
q-118 0 -198 -81t-80 -200q0 -118 79 -198.5t200 -80.5q104 0 174 60.5t75 152.5h-262v75z" />
    <glyph glyph-name="gdotaccent" unicode="&#x121;" horiz-adv-x="608" 
d="M305 564q-21 0 -36 14.5t-15 36.5q0 21 15 35.5t36 14.5t36 -14.5t15 -35.5t-15 -36t-36 -15zM451 500h74v-468q0 -111 -69.5 -179t-177.5 -68q-56 0 -111.5 25t-95.5 67l55 49q65 -70 152 -70q78 0 125.5 48t47.5 129v55q-23 -45 -67 -71.5t-102 -26.5q-98 0 -163.5 73
t-65.5 187q1 114 66.5 187.5t162.5 73.5q57 0 101.5 -27t67.5 -73v89zM294 61q73 0 117.5 53t44.5 136t-47 136.5t-118 53.5t-117 -53.5t-46 -136.5t46.5 -136t119.5 -53z" />
    <glyph glyph-name="Gcommaaccent" unicode="&#x122;" horiz-adv-x="825" 
d="M409 348h339v-35q0 -145 -93.5 -237t-234.5 -92q-151 0 -253.5 103.5t-102.5 251.5q0 149 104 253t253 104q92 0 171 -44t127 -119l-66 -39q-37 59 -98.5 92.5t-133.5 33.5q-118 0 -198 -81t-80 -200q0 -118 79 -198.5t200 -80.5q104 0 174 60.5t75 152.5h-262v75z
M341 -279l38 219h78l-63 -219h-53z" />
    <glyph glyph-name="gcommaaccent" unicode="&#x123;" horiz-adv-x="608" 
d="M380 764l-38 -219h-79l63 219h54zM451 500h74v-468q0 -111 -69.5 -179t-177.5 -68q-56 0 -111.5 25t-95.5 67l55 49q65 -70 152 -70q78 0 125.5 48t47.5 129v55q-23 -45 -67 -71.5t-102 -26.5q-98 0 -163.5 73t-65.5 187q1 114 66.5 187.5t162.5 73.5q57 0 101.5 -27
t67.5 -73v89zM294 61q73 0 117.5 53t44.5 136t-47 136.5t-118 53.5t-117 -53.5t-46 -136.5t46.5 -136t119.5 -53z" />
    <glyph glyph-name="Hbar" unicode="&#x126;" horiz-adv-x="762" 
d="M735 570v-62h-68v-508h-80v303h-413v-303h-79v508h-70v62h70v110h79v-110h413v110h80v-110h68zM587 377v131h-413v-131h413z" />
    <glyph glyph-name="hbar" unicode="&#x127;" horiz-adv-x="593" 
d="M323 511q83 0 139 -60.5t56 -155.5v-295h-74v282q0 72 -40 115.5t-99 43.5q-64 0 -106 -48t-42 -114v-279h-74v580h-104v62h104v58h74v-58h222v-62h-222v-164q24 42 68.5 68.5t97.5 26.5z" />
    <glyph glyph-name="Imacron" unicode="&#x12a;" horiz-adv-x="283" 
d="M-33 821h350v-62h-350v62zM102 680h79v-680h-79v680z" />
    <glyph glyph-name="imacron" unicode="&#x12b;" horiz-adv-x="242" 
d="M-54 641h350v-62h-350v62zM84 500h74v-500h-74v500z" />
    <glyph glyph-name="Iogonek" unicode="&#x12e;" horiz-adv-x="283" 
d="M134 -82q0 -30 25 -38t65 12v-58q-67 -25 -109 -2.5t-42 74.5q0 50 42 94h-13v680h79v-680q-47 -45 -47 -82z" />
    <glyph glyph-name="iogonek" unicode="&#x12f;" horiz-adv-x="242" 
d="M122 564q-21 0 -36 14.5t-15 36.5q0 21 15 35.5t36 14.5t36 -14.5t15 -35.5t-15 -36t-36 -15zM111 -82q0 -30 25 -38t65 12v-58q-67 -25 -109 -2.5t-42 74.5q0 50 42 94h-8v500h74v-500q-47 -45 -47 -82z" />
    <glyph glyph-name="Idotaccent" unicode="&#x130;" horiz-adv-x="283" 
d="M143 744q-21 0 -36 14.5t-15 36.5q0 21 15 35.5t36 14.5t36 -14.5t15 -35.5t-15 -36t-36 -15zM102 680h79v-680h-79v680z" />
    <glyph glyph-name="dotlessi" unicode="&#x131;" horiz-adv-x="242" 
d="M84 500h74v-500h-74v500z" />
    <glyph glyph-name="Kcommaaccent" unicode="&#x136;" horiz-adv-x="657" 
d="M341 390l291 -390h-95l-252 334l-111 -112v-222h-79v680h79v-357l351 357h105zM260 -279l38 219h78l-63 -219h-53z" />
    <glyph glyph-name="kcommaaccent" unicode="&#x137;" horiz-adv-x="532" 
d="M511 500l-203 -202l203 -298h-87l-170 243l-97 -96v-147h-74v700h74v-459l256 259h98zM194 -279l38 219h78l-63 -219h-53z" />
    <glyph glyph-name="Lacute" unicode="&#x139;" horiz-adv-x="570" 
d="M253 853l-89 -113h-65l77 150zM174 75h358v-75h-437v680h79v-605z" />
    <glyph glyph-name="lacute" unicode="&#x13a;" horiz-adv-x="252" 
d="M168 910l77 -37l-89 -113h-65zM89 700h74v-700h-74v700z" />
    <glyph glyph-name="Lcommaaccent" unicode="&#x13b;" horiz-adv-x="570" 
d="M174 75h358v-75h-437v680h79v-605zM237 -279l38 219h78l-63 -219h-53z" />
    <glyph glyph-name="lcommaaccent" unicode="&#x13c;" horiz-adv-x="252" 
d="M89 700h74v-700h-74v700zM99 -60h78l-63 -219h-53z" />
    <glyph glyph-name="Lcaron" unicode="&#x13d;" horiz-adv-x="570" 
d="M521 700l-75 -247h-50l51 247h74zM174 75h358v-75h-437v680h79v-605z" />
    <glyph glyph-name="lcaron" unicode="&#x13e;" horiz-adv-x="356" 
d="M89 700h74v-700h-74v700zM259 700h78l-79 -259h-52z" />
    <glyph glyph-name="Lslash" unicode="&#x141;" horiz-adv-x="570" 
d="M174 75h358v-75h-437v280l-66 -38l-31 54l97 56v328h79v-282l127 73l31 -54l-158 -91v-251z" />
    <glyph glyph-name="lslash" unicode="&#x142;" horiz-adv-x="252" 
d="M247 386l-84 -49v-337h-74v294l-50 -29l-30 51l80 46v338h74v-296l55 32z" />
    <glyph glyph-name="Nacute" unicode="&#x143;" horiz-adv-x="762" 
d="M499 853l-89 -113h-65l77 150zM588 680h79v-680h-65l-428 539v-539h-79v680h64l429 -540v540z" />
    <glyph glyph-name="nacute" unicode="&#x144;" horiz-adv-x="593" 
d="M417 673l-89 -113h-65l77 150zM323 511q83 0 139 -60.5t56 -155.5v-295h-74v282q0 72 -40 115.5t-99 43.5q-64 0 -106 -48t-42 -114v-279h-74v500h74v-84q24 42 68.5 68.5t97.5 26.5z" />
    <glyph glyph-name="Ncommaaccent" unicode="&#x145;" horiz-adv-x="762" 
d="M588 680h79v-680h-65l-428 539v-539h-79v680h64l429 -540v540zM315 -279l38 219h78l-63 -219h-53z" />
    <glyph glyph-name="ncommaaccent" unicode="&#x146;" horiz-adv-x="593" 
d="M323 511q83 0 139 -60.5t56 -155.5v-295h-74v282q0 72 -40 115.5t-99 43.5q-64 0 -106 -48t-42 -114v-279h-74v500h74v-84q24 42 68.5 68.5t97.5 26.5zM233 -279l38 219h78l-63 -219h-53z" />
    <glyph glyph-name="Ncaron" unicode="&#x147;" horiz-adv-x="762" 
d="M411 740h-63l-112 121l33 34l111 -93l110 93l33 -34zM588 680h79v-680h-65l-428 539v-539h-79v680h64l429 -540v540z" />
    <glyph glyph-name="ncaron" unicode="&#x148;" horiz-adv-x="593" 
d="M329 560h-63l-112 121l33 34l111 -93l110 93l33 -34zM323 511q83 0 139 -60.5t56 -155.5v-295h-74v282q0 72 -40 115.5t-99 43.5q-64 0 -106 -48t-42 -114v-279h-74v500h74v-84q24 42 68.5 68.5t97.5 26.5z" />
    <glyph glyph-name="Eng" unicode="&#x14a;" horiz-adv-x="762" 
d="M588 680h79v-732q0 -72 -38.5 -110t-109.5 -38h-63v71h60q73 0 73 77v68l-415 523v-539h-79v680h64l429 -540v540z" />
    <glyph glyph-name="eng" unicode="&#x14b;" horiz-adv-x="593" 
d="M323 511q83 0 139 -60.5t56 -155.5v-351q0 -70 -37 -107t-108 -37h-62v71h59q74 0 74 76v335q0 72 -40 115.5t-99 43.5q-64 0 -106 -48t-42 -114v-279h-74v500h74v-84q24 42 68.5 68.5t97.5 26.5z" />
    <glyph glyph-name="Omacron" unicode="&#x14c;" horiz-adv-x="840" 
d="M245 827h350v-62h-350v62zM421 -16q-149 0 -253 103.5t-104 252.5t104 252.5t253 103.5q147 0 250.5 -104t103.5 -252t-103.5 -252t-250.5 -104zM421 59q117 0 196.5 81.5t79.5 199.5t-79.5 199t-196.5 81q-118 0 -198 -80.5t-80 -199.5t80 -200t198 -81z" />
    <glyph glyph-name="omacron" unicode="&#x14d;" horiz-adv-x="622" 
d="M136 641h350v-62h-350v62zM312 -10q-109 0 -185 76t-76 184t76 184t185 76q107 0 183 -76t76 -184t-76 -184t-183 -76zM312 61q77 0 130.5 55t53.5 134t-53.5 134t-130.5 55q-78 0 -132.5 -54.5t-54.5 -134.5t54.5 -134.5t132.5 -54.5z" />
    <glyph glyph-name="Ohungarumlaut" unicode="&#x150;" horiz-adv-x="840" 
d="M380 896l77 -37l-89 -113h-65zM544 896l77 -37l-89 -113h-65zM421 -16q-149 0 -253 103.5t-104 252.5t104 252.5t253 103.5q147 0 250.5 -104t103.5 -252t-103.5 -252t-250.5 -104zM421 59q117 0 196.5 81.5t79.5 199.5t-79.5 199t-196.5 81q-118 0 -198 -80.5
t-80 -199.5t80 -200t198 -81z" />
    <glyph glyph-name="ohungarumlaut" unicode="&#x151;" horiz-adv-x="622" 
d="M271 710l77 -37l-89 -113h-65zM435 710l77 -37l-89 -113h-65zM312 -10q-109 0 -185 76t-76 184t76 184t185 76q107 0 183 -76t76 -184t-76 -184t-183 -76zM312 61q77 0 130.5 55t53.5 134t-53.5 134t-130.5 55q-78 0 -132.5 -54.5t-54.5 -134.5t54.5 -134.5t132.5 -54.5z
" />
    <glyph glyph-name="OE" unicode="&#x152;" horiz-adv-x="1202" 
d="M1144 605h-358v-228h255v-74h-255v-228h358v-75h-437v129q-49 -67 -124 -106t-162 -39q-149 0 -253 103.5t-104 252.5t104 252.5t253 103.5q87 0 162 -39t124 -106v129h437v-75zM421 59q117 0 196.5 81.5t79.5 199.5t-79.5 199t-196.5 81q-118 0 -198 -80.5t-80 -199.5
t80 -200t198 -81z" />
    <glyph glyph-name="oe" unicode="&#x153;" horiz-adv-x="1011" 
d="M961 293q5 -36 0 -77h-389q9 -72 52 -113.5t110 -41.5q50 0 91.5 22.5t64.5 61.5l62 -36q-32 -54 -91 -86.5t-127 -32.5t-120.5 31.5t-83.5 87.5q-35 -55 -93 -87t-125 -32q-109 0 -185 76t-76 184t76 184t185 76q68 0 125.5 -32.5t92.5 -86.5q31 55 84 87t120 32
q88 0 152 -55.5t75 -161.5zM312 61q73 0 125.5 49.5t57.5 123.5v16v16q-5 74 -57.5 123.5t-125.5 49.5q-78 0 -132.5 -54.5t-54.5 -134.5t54.5 -134.5t132.5 -54.5zM732 439q-67 0 -109.5 -42t-50.5 -113h315q-1 71 -45.5 113t-109.5 42z" />
    <glyph glyph-name="Racute" unicode="&#x154;" horiz-adv-x="663" 
d="M435 853l-89 -113h-65l77 150zM523 0l-175 288h-174v-288h-79v680h291q93 0 155 -55.5t62 -139.5q0 -71 -46 -124t-120 -68l177 -293h-91zM174 605v-241h212q62 0 100.5 34t38.5 86q0 53 -39 87t-100 34h-212z" />
    <glyph glyph-name="racute" unicode="&#x155;" horiz-adv-x="361" 
d="M298 673l-89 -113h-65l77 150zM157 419q24 41 69.5 66.5t108.5 25.5v-74q-87 0 -132.5 -44.5t-45.5 -113.5v-279h-74v500h74v-81z" />
    <glyph glyph-name="Rcommaaccent" unicode="&#x156;" horiz-adv-x="663" 
d="M437 293l177 -293h-91l-175 288h-174v-288h-79v680h291q93 0 155 -55.5t62 -139.5q0 -71 -46 -124t-120 -68zM174 605v-241h212q62 0 100.5 34t38.5 86q0 53 -39 87t-100 34h-212zM251 -279l38 219h78l-63 -219h-53z" />
    <glyph glyph-name="rcommaaccent" unicode="&#x157;" horiz-adv-x="361" 
d="M157 419q24 41 69.5 66.5t108.5 25.5v-74q-87 0 -132.5 -44.5t-45.5 -113.5v-279h-74v500h74v-81zM54 -279l38 219h78l-63 -219h-53z" />
    <glyph glyph-name="Rcaron" unicode="&#x158;" horiz-adv-x="663" 
d="M347 740h-63l-112 121l33 34l111 -93l110 93l33 -34zM523 0l-175 288h-174v-288h-79v680h291q93 0 155 -55.5t62 -139.5q0 -71 -46 -124t-120 -68l177 -293h-91zM174 605v-241h212q62 0 100.5 34t38.5 86q0 53 -39 87t-100 34h-212z" />
    <glyph glyph-name="rcaron" unicode="&#x159;" horiz-adv-x="361" 
d="M210 560h-63l-112 121l33 34l111 -93l110 93l33 -34zM157 419q24 41 69.5 66.5t108.5 25.5v-74q-87 0 -132.5 -44.5t-45.5 -113.5v-279h-74v500h74v-81z" />
    <glyph glyph-name="Sacute" unicode="&#x15a;" horiz-adv-x="626" 
d="M360 900l77 -37l-89 -113h-65zM566 187q0 -89 -71 -146t-182 -57q-103 0 -175.5 48t-88.5 125l75 27q14 -56 66 -90.5t128 -34.5q75 0 122.5 34.5t47.5 88.5q0 29 -14 50t-44.5 34.5t-57 21t-73.5 17.5q-43 10 -75.5 21.5t-69 33t-56.5 57t-20 82.5q0 88 66 142.5
t170 54.5q96 0 162.5 -47t83.5 -126l-75 -27q-12 55 -58 89.5t-116 34.5q-67 0 -110.5 -32t-43.5 -84q0 -23 10 -42t24 -31t38 -22.5t44.5 -16t49.5 -12.5q43 -10 68 -17t63 -23t59 -34t37 -49t16 -70z" />
    <glyph glyph-name="sacute" unicode="&#x15b;" horiz-adv-x="474" 
d="M278 710l77 -37l-89 -113h-65zM420 136q0 -67 -54 -108t-134 -41q-77 0 -129.5 37.5t-64.5 97.5l67 21q9 -40 43 -64t83 -24q47 0 81 21t34 55q0 18 -9.5 31.5t-29 23.5t-34.5 15t-40 12q-8 2 -11 3q-34 9 -56.5 18.5t-50 26t-41.5 42.5t-14 60q0 66 51.5 107t125.5 41
q70 0 118.5 -37.5t59.5 -97.5l-65 -20q-8 39 -38.5 63t-73.5 24q-42 0 -73 -21.5t-31 -54.5q0 -29 27 -47.5t82 -33.5q92 -26 128 -53q49 -38 49 -97z" />
    <glyph glyph-name="Scedilla" unicode="&#x15e;" horiz-adv-x="626" 
d="M566 187q0 -84 -64 -140t-167 -62l-58 -129l-70 36l64 94q-88 10 -148 56.5t-74 114.5l75 27q14 -56 66 -90.5t128 -34.5q75 0 122.5 34.5t47.5 88.5q0 29 -14 50t-44.5 34.5t-57 21t-73.5 17.5q-43 10 -75.5 21.5t-69 33t-56.5 57t-20 82.5q0 88 66 142.5t170 54.5
q96 0 162.5 -47t83.5 -126l-75 -27q-12 55 -58 89.5t-116 34.5q-67 0 -110.5 -32t-43.5 -84q0 -23 10 -42t24 -31t38 -22.5t44.5 -16t49.5 -12.5q43 -10 68 -17t63 -23t59 -34t37 -49t16 -70z" />
    <glyph glyph-name="scedilla" unicode="&#x15f;" horiz-adv-x="474" 
d="M420 136q0 -58 -42.5 -97.5t-108.5 -48.5l-60 -134l-70 36l66 96q-67 7 -111.5 43t-55.5 91l67 21q9 -40 43 -64t83 -24q47 0 81 21t34 55q0 18 -9.5 31.5t-29 23.5t-34.5 15t-40 12q-8 2 -11 3q-34 9 -56.5 18.5t-50 26t-41.5 42.5t-14 60q0 66 51.5 107t125.5 41
q70 0 118.5 -37.5t59.5 -97.5l-65 -20q-8 39 -38.5 63t-73.5 24q-42 0 -73 -21.5t-31 -54.5q0 -29 27 -47.5t82 -33.5q92 -26 128 -53q49 -38 49 -97z" />
    <glyph glyph-name="Scaron" unicode="&#x160;" horiz-adv-x="626" 
d="M349 750h-63l-112 121l33 34l111 -93l110 93l33 -34zM323 380q43 -10 68 -17t63 -23t59 -34t37 -49t16 -70q0 -89 -71 -146t-182 -57q-103 0 -175.5 48t-88.5 125l75 27q14 -56 66 -90.5t128 -34.5q75 0 122.5 34.5t47.5 88.5q0 29 -14 50t-44.5 34.5t-57 21t-73.5 17.5
q-43 10 -75.5 21.5t-69 33t-56.5 57t-20 82.5q0 88 66 142.5t170 54.5q96 0 162.5 -47t83.5 -126l-75 -27q-12 55 -58 89.5t-116 34.5q-67 0 -110.5 -32t-43.5 -84q0 -23 10 -42t24 -31t38 -22.5t44.5 -16t49.5 -12.5z" />
    <glyph glyph-name="scaron" unicode="&#x161;" horiz-adv-x="474" 
d="M267 560h-63l-112 121l33 34l111 -93l110 93l33 -34zM243 286q92 -26 128 -53q49 -38 49 -97q0 -67 -54 -108t-134 -41q-77 0 -129.5 37.5t-64.5 97.5l67 21q9 -40 43 -64t83 -24q47 0 81 21t34 55q0 18 -9.5 31.5t-29 23.5t-34.5 15t-40 12q-8 2 -11 3q-34 9 -56.5 18.5
t-50 26t-41.5 42.5t-14 60q0 66 51.5 107t125.5 41q70 0 118.5 -37.5t59.5 -97.5l-65 -20q-8 39 -38.5 63t-73.5 24q-42 0 -73 -21.5t-31 -54.5q0 -29 27 -47.5t82 -33.5z" />
    <glyph glyph-name="uni0162" unicode="&#x162;" horiz-adv-x="591" 
d="M552 680v-75h-217v-605h-5l-69 -142l-69 33l79 109h-14v605h-218v75h513z" />
    <glyph glyph-name="uni0163" unicode="&#x163;" horiz-adv-x="388" 
d="M340 432h-133v-284q0 -77 74 -77h59v-71h-63h-1l-65 -144l-70 36l79 116q-87 26 -87 137v287h-96v68h96v138l74 22v-160h133v-68z" />
    <glyph glyph-name="Tcaron" unicode="&#x164;" horiz-adv-x="591" 
d="M326 740h-63l-112 121l33 34l111 -93l110 93l33 -34zM552 680v-75h-217v-605h-78v605h-218v75h513z" />
    <glyph glyph-name="tcaron" unicode="&#x165;" horiz-adv-x="388" 
d="M359 760l-70 -209h-46l47 209h69zM207 660v-160h133v-68h-133v-284q0 -77 74 -77h59v-71h-63q-70 0 -107 37.5t-37 107.5v287h-96v68h96v138z" />
    <glyph glyph-name="Tbar" unicode="&#x166;" horiz-adv-x="591" 
d="M552 605h-217v-208h162v-62h-162v-335h-78v335h-160v62h160v208h-218v75h513v-75z" />
    <glyph glyph-name="tbar" unicode="&#x167;" horiz-adv-x="388" 
d="M340 432h-133v-123h133v-58h-133v-103q0 -77 74 -77h59v-71h-63q-70 0 -107 37.5t-37 107.5v106h-92v58h92v123h-96v68h96v138l74 22v-160h133v-68z" />
    <glyph glyph-name="Umacron" unicode="&#x16a;" horiz-adv-x="744" 
d="M197 821h350v-62h-350v62zM581 680h78v-382q0 -142 -78.5 -228t-208.5 -86t-209 86t-79 228v382h79v-382q0 -109 57 -174t152 -65t152 65t57 174v382z" />
    <glyph glyph-name="umacron" unicode="&#x16b;" horiz-adv-x="592" 
d="M465 641v-62h-350v62h350zM436 500h74v-500h-74v84q-24 -42 -68.5 -68.5t-97.5 -26.5q-83 0 -139 60.5t-56 155.5v295h74v-282q0 -72 40 -115.5t99 -43.5q64 0 106 48t42 114v279z" />
    <glyph glyph-name="Uring" unicode="&#x16e;" horiz-adv-x="744" 
d="M374 674q-39 0 -66.5 27.5t-27.5 65.5t27.5 65.5t66.5 27.5q38 0 65.5 -27.5t27.5 -65.5t-27.5 -65.5t-65.5 -27.5zM374 711q23 0 39.5 16.5t16.5 39.5t-16.5 39.5t-39.5 16.5t-40 -16.5t-17 -39.5t17 -39.5t40 -16.5zM581 680h78v-382q0 -142 -78.5 -228t-208.5 -86
t-209 86t-79 228v382h79v-382q0 -109 57 -174t152 -65t152 65t57 174v382z" />
    <glyph glyph-name="uring" unicode="&#x16f;" horiz-adv-x="592" 
d="M286 522q-39 0 -66.5 27.5t-27.5 65.5t27.5 65.5t66.5 27.5q38 0 65.5 -27.5t27.5 -65.5t-27.5 -65.5t-65.5 -27.5zM286 671q-23 0 -40 -16.5t-17 -39.5t17 -39.5t40 -16.5t39.5 16.5t16.5 39.5t-16.5 39.5t-39.5 16.5zM436 500h74v-500h-74v84q-24 -42 -68.5 -68.5
t-97.5 -26.5q-83 0 -139 60.5t-56 155.5v295h74v-282q0 -72 40 -115.5t99 -43.5q64 0 106 48t42 114v279z" />
    <glyph glyph-name="Uhungarumlaut" unicode="&#x170;" horiz-adv-x="744" 
d="M332 890l77 -37l-89 -113h-65zM496 890l77 -37l-89 -113h-65zM581 680h78v-382q0 -142 -78.5 -228t-208.5 -86t-209 86t-79 228v382h79v-382q0 -109 57 -174t152 -65t152 65t57 174v382z" />
    <glyph glyph-name="uhungarumlaut" unicode="&#x171;" horiz-adv-x="592" 
d="M327 673l-89 -113h-65l77 150zM491 673l-89 -113h-65l77 150zM436 500h74v-500h-74v84q-24 -42 -68.5 -68.5t-97.5 -26.5q-83 0 -139 60.5t-56 155.5v295h74v-282q0 -72 40 -115.5t99 -43.5q64 0 106 48t42 114v279z" />
    <glyph glyph-name="Uogonek" unicode="&#x172;" horiz-adv-x="744" 
d="M581 680h78v-382q0 -97 -38.5 -170.5t-108.5 -110.5q-47 -45 -47 -82q0 -30 25 -38t65 12v-58q-67 -25 -109 -2.5t-42 74.5q0 35 19 65q-23 -4 -51 -4q-130 0 -209 86t-79 228v382h79v-382q0 -109 57 -174t152 -65t152 65t57 174v382z" />
    <glyph glyph-name="uogonek" unicode="&#x173;" horiz-adv-x="592" 
d="M464 -82q0 -30 25 -38t65 12v-58q-67 -25 -109 -2.5t-42 74.5q0 50 42 94h-9v84q-24 -42 -68.5 -68.5t-97.5 -26.5q-83 0 -139 60.5t-56 155.5v295h74v-282q0 -72 40 -115.5t99 -43.5q64 0 106 48t42 114v279h74v-500h1q-47 -45 -47 -82z" />
    <glyph glyph-name="Wcircumflex" unicode="&#x174;" horiz-adv-x="1081" 
d="M541 814l-111 -92l-33 33l112 121h63l112 -121l-33 -33zM958 680h83l-213 -680h-98l-189 592l-188 -592h-99l-214 680h83l180 -588l189 588h97l189 -589z" />
    <glyph glyph-name="wcircumflex" unicode="&#x175;" horiz-adv-x="848" 
d="M424 634l-111 -92l-33 33l112 121h63l112 -121l-33 -33zM732 500h78l-158 -500h-94l-134 421l-133 -421h-95l-157 500h77l127 -419l135 419h93l134 -419z" />
    <glyph glyph-name="Ycircumflex" unicode="&#x176;" horiz-adv-x="656" 
d="M332 814l-111 -92l-33 33l112 121h63l112 -121l-33 -33zM635 680l-268 -402v-278h-78v278l-268 402h95l212 -325l212 325h95z" />
    <glyph glyph-name="ycircumflex" unicode="&#x177;" horiz-adv-x="559" 
d="M282 634l-111 -92l-33 33l112 121h63l112 -121l-33 -33zM449 500h77l-296 -700h-79l96 226l-215 474h81l173 -382z" />
    <glyph glyph-name="Ydieresis" unicode="&#x178;" horiz-adv-x="656" 
d="M242 744q-22 0 -37 14.5t-15 36.5q0 21 15 35.5t37 14.5q20 0 35 -14.5t15 -35.5t-15 -36t-35 -15zM423 744q-21 0 -36 14.5t-15 36.5q0 21 15 35.5t36 14.5t36 -14.5t15 -35.5t-15 -36t-36 -15zM635 680l-268 -402v-278h-78v278l-268 402h95l212 -325l212 325h95z" />
    <glyph glyph-name="Zacute" unicode="&#x179;" horiz-adv-x="660" 
d="M441 853l-89 -113h-65l77 150zM175 75h419v-75h-528v62l404 543h-404v75h511v-62z" />
    <glyph glyph-name="zacute" unicode="&#x17a;" horiz-adv-x="481" 
d="M361 673l-89 -113h-65l77 150zM145 71h289v-71h-385v61l285 368h-285v71h380v-61z" />
    <glyph glyph-name="Zdotaccent" unicode="&#x17b;" horiz-adv-x="660" 
d="M323 744q-21 0 -36 14.5t-15 36.5q0 21 15 35.5t36 14.5t36 -14.5t15 -35.5t-15 -36t-36 -15zM175 75h419v-75h-528v62l404 543h-404v75h511v-62z" />
    <glyph glyph-name="zdotaccent" unicode="&#x17c;" horiz-adv-x="481" 
d="M243 564q-21 0 -36 14.5t-15 36.5q0 21 15 35.5t36 14.5t36 -14.5t15 -35.5t-15 -36t-36 -15zM145 71h289v-71h-385v61l285 368h-285v71h380v-61z" />
    <glyph glyph-name="Zcaron" unicode="&#x17d;" horiz-adv-x="660" 
d="M353 740h-63l-112 121l33 34l111 -93l110 93l33 -34zM175 75h419v-75h-528v62l404 543h-404v75h511v-62z" />
    <glyph glyph-name="zcaron" unicode="&#x17e;" horiz-adv-x="481" 
d="M273 560h-63l-112 121l33 34l111 -93l110 93l33 -34zM145 71h289v-71h-385v61l285 368h-285v71h380v-61z" />
    <glyph glyph-name="Scommaaccent" unicode="&#x218;" horiz-adv-x="626" 
d="M566 187q0 -89 -71 -146t-182 -57q-103 0 -175.5 48t-88.5 125l75 27q14 -56 66 -90.5t128 -34.5q75 0 122.5 34.5t47.5 88.5q0 29 -14 50t-44.5 34.5t-57 21t-73.5 17.5q-43 10 -75.5 21.5t-69 33t-56.5 57t-20 82.5q0 88 66 142.5t170 54.5q96 0 162.5 -47t83.5 -126
l-75 -27q-12 55 -58 89.5t-116 34.5q-67 0 -110.5 -32t-43.5 -84q0 -23 10 -42t24 -31t38 -22.5t44.5 -16t49.5 -12.5q43 -10 68 -17t63 -23t59 -34t37 -49t16 -70zM277 -60h78l-63 -219h-53z" />
    <glyph glyph-name="scommaaccent" unicode="&#x219;" horiz-adv-x="474" 
d="M420 136q0 -67 -54 -108t-134 -41q-77 0 -129.5 37.5t-64.5 97.5l67 21q9 -40 43 -64t83 -24q47 0 81 21t34 55q0 18 -9.5 31.5t-29 23.5t-34.5 15t-40 12q-8 2 -11 3q-34 9 -56.5 18.5t-50 26t-41.5 42.5t-14 60q0 66 51.5 107t125.5 41q70 0 118.5 -37.5t59.5 -97.5
l-65 -20q-8 39 -38.5 63t-73.5 24q-42 0 -73 -21.5t-31 -54.5q0 -29 27 -47.5t82 -33.5q92 -26 128 -53q49 -38 49 -97zM209 -60h78l-63 -219h-53z" />
    <glyph glyph-name="uni021A" unicode="&#x21a;" horiz-adv-x="591" 
d="M552 680v-75h-217v-605h-78v605h-218v75h513zM223 -287l38 219h78l-63 -219h-53z" />
    <glyph glyph-name="uni021B" unicode="&#x21b;" horiz-adv-x="388" 
d="M340 432h-133v-284q0 -77 74 -77h59v-71h-63q-70 0 -107 37.5t-37 107.5v287h-96v68h96v138l74 22v-160h133v-68zM173 -279l38 219h78l-63 -219h-53z" />
    <glyph glyph-name="gravecomb" unicode="&#x300;" 
d="M-308 710l77 -150h-65l-90 113z" />
    <glyph glyph-name="acutecomb" unicode="&#x301;" 
d="M-257 710l77 -37l-89 -113h-65z" />
    <glyph glyph-name="uni0302" unicode="&#x302;" 
d="M-156 575l-33 -33l-110 92l-111 -92l-33 33l112 121h63z" />
    <glyph glyph-name="tildecomb" unicode="&#x303;" 
d="M-165 677h54q0 -53 -25.5 -85t-67.5 -32q-34 0 -86 38q-34 26 -54 26q-39 0 -39 -54h-54q0 52 25.5 84t66.5 32q38 0 87 -38q34 -26 55 -26q38 0 38 55z" />
    <glyph glyph-name="uni0304" unicode="&#x304;" 
d="M-480 641h350v-62h-350v62z" />
    <glyph glyph-name="uni0306" unicode="&#x306;" 
d="M-197 700h55q0 -63 -44 -103.5t-111 -40.5t-111 40.5t-44 103.5h55q0 -38 27.5 -61.5t72.5 -23.5t72.5 23.5t27.5 61.5z" />
    <glyph glyph-name="uni0307" unicode="&#x307;" 
d="M-272 564q-21 0 -36 14.5t-15 36.5q0 21 15 35.5t36 14.5t36 -14.5t15 -35.5t-15 -36t-36 -15z" />
    <glyph glyph-name="uni0308" unicode="&#x308;" 
d="M-363 564q-22 0 -37 14.5t-15 36.5q0 21 15 35.5t37 14.5q20 0 35 -14.5t15 -35.5t-14.5 -36t-35.5 -15zM-182 564q-21 0 -36 14.5t-15 36.5q0 21 15 35.5t36 14.5t36 -14.5t15 -35.5t-15 -36t-36 -15z" />
    <glyph glyph-name="uni030A" unicode="&#x30a;" 
d="M-272 522q-39 0 -66.5 27.5t-27.5 65.5t27.5 65.5t66.5 27.5q38 0 65.5 -27.5t27.5 -65.5t-27.5 -65.5t-65.5 -27.5zM-272 559q23 0 39.5 16.5t16.5 39.5t-16.5 39.5t-39.5 16.5t-40 -16.5t-17 -39.5t17 -39.5t40 -16.5z" />
    <glyph glyph-name="uni030B" unicode="&#x30b;" 
d="M-376 710l77 -37l-89 -113h-65zM-212 710l77 -37l-89 -113h-65z" />
    <glyph glyph-name="uni030C" unicode="&#x30c;" 
d="M-189 715l33 -34l-112 -121h-63l-112 121l33 34l111 -93z" />
    <glyph glyph-name="uni0312" unicode="&#x312;" 
d="M-223 545h-79l63 219h54z" />
    <glyph glyph-name="uni0326" unicode="&#x326;" 
d="M-492 -60h78l-63 -219h-53z" />
    <glyph glyph-name="uni0327" unicode="&#x327;" 
d="M-333 -144l-70 36l80 117h59z" />
    <glyph glyph-name="uni0328" unicode="&#x328;" 
d="M-130 -166q-67 -25 -109 -2.5t-42 74.5q0 50 42 94h66q-47 -45 -47 -82q0 -30 25 -38t65 12v-58z" />
    <glyph glyph-name="uni0335" unicode="&#x335;" 
d="M-530 356h400v-62h-400v62z" />
    <glyph glyph-name="uni0336" unicode="&#x336;" 
d="M-655 344h710v-62h-710v62z" />
    <glyph glyph-name="uni0337" unicode="&#x337;" 
d="M-486 481h350v-62h-350v62z" />
    <glyph glyph-name="uni0338" unicode="&#x338;" 
d="M-336 720h65v-940h-65v940z" />
    <glyph glyph-name="pi" unicode="&#x3c0;" horiz-adv-x="666" 
d="M636 452h-100v-297q0 -98 17 -155h-71q-19 28 -19 146v306h-230q-7 -110 -33 -251.5t-55 -200.5h-72q32 72 57 208t31 244q-101 0 -140 -15l-12 45q49 26 164 26h471z" />
    <glyph glyph-name="Wgrave" unicode="&#x1e80;" horiz-adv-x="1081" 
d="M580 740h-65l-90 113l78 37zM958 680h83l-213 -680h-98l-189 592l-188 -592h-99l-214 680h83l180 -588l189 588h97l189 -589z" />
    <glyph glyph-name="wgrave" unicode="&#x1e81;" horiz-adv-x="848" 
d="M463 560h-65l-90 113l78 37zM732 500h78l-158 -500h-94l-134 421l-133 -421h-95l-157 500h77l127 -419l135 419h93l134 -419z" />
    <glyph glyph-name="Wacute" unicode="&#x1e82;" horiz-adv-x="1081" 
d="M660 853l-89 -113h-65l77 150zM958 680h83l-213 -680h-98l-189 592l-188 -592h-99l-214 680h83l180 -588l189 588h97l189 -589z" />
    <glyph glyph-name="wacute" unicode="&#x1e83;" horiz-adv-x="848" 
d="M543 673l-89 -113h-65l77 150zM732 500h78l-158 -500h-94l-134 421l-133 -421h-95l-157 500h77l127 -419l135 419h93l134 -419z" />
    <glyph glyph-name="Wdieresis" unicode="&#x1e84;" horiz-adv-x="1081" 
d="M451 744q-22 0 -37 14.5t-15 36.5q0 21 15 35.5t37 14.5q20 0 35 -14.5t15 -35.5t-14.5 -36t-35.5 -15zM632 744q-21 0 -36 14.5t-15 36.5q0 21 15 35.5t36 14.5t36 -14.5t15 -35.5t-15 -36t-36 -15zM958 680h83l-213 -680h-98l-189 592l-188 -592h-99l-214 680h83
l180 -588l189 588h97l189 -589z" />
    <glyph glyph-name="wdieresis" unicode="&#x1e85;" horiz-adv-x="848" 
d="M334 564q-22 0 -37 14.5t-15 36.5q0 21 15 35.5t37 14.5q20 0 35 -14.5t15 -35.5t-15 -36t-35 -15zM515 564q-21 0 -36 14.5t-15 36.5q0 21 15 35.5t36 14.5t36 -14.5t15 -35.5t-15 -36t-36 -15zM732 500h78l-158 -500h-94l-134 421l-133 -421h-95l-157 500h77l127 -419
l135 419h93l134 -419z" />
    <glyph glyph-name="Ygrave" unicode="&#x1ef2;" horiz-adv-x="656" 
d="M371 740h-65l-90 113l78 37zM635 680l-268 -402v-278h-78v278l-268 402h95l212 -325l212 325h95z" />
    <glyph glyph-name="ygrave" unicode="&#x1ef3;" horiz-adv-x="559" 
d="M321 560h-65l-90 113l78 37zM449 500h77l-296 -700h-79l96 226l-215 474h81l173 -382z" />
    <glyph glyph-name="endash" unicode="&#x2013;" horiz-adv-x="565" 
d="M65 251v68h435v-68h-435z" />
    <glyph glyph-name="emdash" unicode="&#x2014;" horiz-adv-x="859" 
d="M65 251v68h729v-68h-729z" />
    <glyph glyph-name="quoteleft" unicode="&#x2018;" horiz-adv-x="288" 
d="M226 661q-46 0 -77.5 -36.5t-31.5 -87.5q0 -10 4 -26q19 22 44 22q26 0 43 -17t17 -43t-18.5 -44.5t-47.5 -18.5q-41 0 -70 34t-29 86q0 72 48.5 126t117.5 54v-49z" />
    <glyph glyph-name="quoteright" unicode="&#x2019;" horiz-adv-x="288" 
d="M129 710q41 0 70 -34t29 -86q0 -72 -48.5 -126t-117.5 -54v49q46 0 77.5 36.5t31.5 87.5q0 10 -4 26q-19 -22 -44 -22q-26 0 -43 17t-17 43t18.5 44.5t47.5 18.5z" />
    <glyph glyph-name="quotesinglbase" unicode="&#x201a;" horiz-adv-x="213" 
d="M109 125h85l-109 -259h-58z" />
    <glyph glyph-name="quotedblleft" unicode="&#x201c;" horiz-adv-x="511" 
d="M60 530q0 72 48.5 126t117.5 54v-49q-46 0 -77.5 -36.5t-31.5 -87.5q0 -10 4 -26q19 22 44 22q26 0 43 -17t17 -43t-18.5 -44.5t-47.5 -18.5q-41 0 -70 34t-29 86zM449 661q-46 0 -77.5 -36.5t-31.5 -87.5q0 -10 4 -26q19 22 44 22q26 0 43 -17t17 -43t-18.5 -44.5
t-47.5 -18.5q-41 0 -70 34t-29 86q0 72 48.5 126t117.5 54v-49z" />
    <glyph glyph-name="quotedblright" unicode="&#x201d;" horiz-adv-x="523" 
d="M129 710q41 0 70 -34t29 -86q0 -72 -48.5 -126t-117.5 -54v49q46 0 77.5 36.5t31.5 87.5q0 10 -4 26q-19 -22 -44 -22q-26 0 -43 17t-17 43t18.5 44.5t47.5 18.5zM363 710q41 0 70 -34t29 -86q0 -72 -48.5 -126t-117.5 -54v49q46 0 77.5 36.5t31.5 87.5q0 10 -4 26
q-19 -22 -44 -22q-26 0 -43 17t-17 43t18.5 44.5t47.5 18.5z" />
    <glyph glyph-name="quotedblbase" unicode="&#x201e;" horiz-adv-x="396" 
d="M109 125h85l-109 -259h-58zM292 125h85l-109 -259h-58z" />
    <glyph glyph-name="dagger" unicode="&#x2020;" horiz-adv-x="597" 
d="M263 710h70l-8 -231l222 7v-64l-222 7l8 -480h-70l8 480l-223 -7v64l223 -7z" />
    <glyph glyph-name="daggerdbl" unicode="&#x2021;" horiz-adv-x="597" 
d="M264 710h68l-7 -216l223 7v-64l-223 7v-229l223 7v-64l-223 7l7 -216h-68l5 216l-220 -7v64l221 -7v229l-221 -7v64l221 -7z" />
    <glyph glyph-name="bullet" unicode="&#x2022;" horiz-adv-x="469" 
d="M235 479q63 0 108.5 -45t45.5 -108q0 -65 -45.5 -110t-108.5 -45t-109 45t-46 110q0 63 46 108t109 45z" />
    <glyph glyph-name="ellipsis" unicode="&#x2026;" horiz-adv-x="688" 
d="M113 112q25 0 43.5 -18.5t18.5 -43.5q0 -26 -18.5 -44.5t-43.5 -18.5q-26 0 -44.5 18.5t-18.5 44.5q0 25 18.5 43.5t44.5 18.5zM344 112q25 0 43.5 -18.5t18.5 -43.5q0 -26 -18.5 -44.5t-43.5 -18.5q-26 0 -44.5 18.5t-18.5 44.5q0 25 18.5 43.5t44.5 18.5zM575 112
q26 0 44.5 -18.5t18.5 -43.5q0 -26 -18.5 -44.5t-44.5 -18.5q-25 0 -43.5 18.5t-18.5 44.5q0 25 18.5 43.5t43.5 18.5z" />
    <glyph glyph-name="perthousand" unicode="&#x2030;" horiz-adv-x="1329" 
d="M660 700l53 -34l-448 -686l-53 34zM235 696q73 0 126 -52.5t53 -126.5q0 -76 -53 -128.5t-126 -52.5t-127 53t-54 128q0 74 54 126.5t127 52.5zM235 637q-49 0 -86 -35t-37 -85q0 -51 36.5 -86.5t86.5 -35.5q49 0 84.5 35.5t35.5 86.5q0 50 -35 85t-85 35zM692 344
q73 0 126 -52.5t53 -126.5q0 -76 -53 -128.5t-126 -52.5t-127 53t-54 128q0 74 54 126.5t127 52.5zM1096 344q73 0 126 -52.5t53 -126.5q0 -76 -53 -128.5t-126 -52.5t-127 53t-54 128q0 74 54 126.5t127 52.5zM692 286q-49 0 -86 -35.5t-37 -85.5q0 -51 37 -87t86 -36
t85 36t36 87q0 50 -36 85.5t-85 35.5zM1096 286q-49 0 -86 -35.5t-37 -85.5q0 -51 37 -87t86 -36t85 36t36 87q0 50 -36 85.5t-85 35.5z" />
    <glyph glyph-name="guilsinglleft" unicode="&#x2039;" horiz-adv-x="393" 
d="M318 465l-167 -185l167 -185h-92l-166 185l166 185h92z" />
    <glyph glyph-name="guilsinglright" unicode="&#x203a;" horiz-adv-x="393" 
d="M167 465l166 -185l-166 -185h-92l167 185l-167 185h92z" />
    <glyph glyph-name="fraction" unicode="&#x2044;" horiz-adv-x="159" 
d="M287 701l40 -26l-455 -696l-40 26z" />
    <glyph glyph-name="Euro" unicode="&#x20ac;" horiz-adv-x="620" 
d="M533 620q-113 0 -192 -45.5t-113 -122.5h247v-68h-267q-3 -21 -3 -44t3 -44h267v-68h-247q34 -77 113.5 -123t191.5 -46v-75q-146 0 -249 67t-140 177h-118v68h103q-3 21 -3 44t3 44h-103v68h118q37 110 140 177t249 67v-76z" />
    <glyph glyph-name="afii61289" unicode="&#x2113;" horiz-adv-x="561" 
d="M496 154l37 -30q-79 -135 -218 -135q-87 0 -134.5 52t-53.5 127q0 8 -1 11q-4 -2 -68 -50l-23 42q4 3 39 28.5t52 39.5v273q0 128 50.5 184.5t121.5 56.5t107.5 -47t36.5 -116q0 -90 -63.5 -179.5t-185.5 -193.5v-21q1 -74 41 -113t95 -39q54 0 98 33t69 77zM193 526
v-244q94 89 144 160.5t50 142.5q0 118 -90 118q-41 0 -72.5 -43t-31.5 -134z" />
    <glyph glyph-name="trademark" unicode="&#x2122;" horiz-adv-x="559" 
d="M152 700v-43h-89v-259h-45v259h-94v43h228zM534 700v-302h-44v231l-98 -231h-47l-95 228v-228h-46v302h61l104 -247l105 247h60z" />
    <glyph glyph-name="Omega" unicode="&#x2126;" horiz-adv-x="873" 
d="M245 54v3q-72 48 -119.5 126.5t-47.5 178.5q0 144 104 239.5t257 95.5q155 0 255.5 -99.5t100.5 -232.5q0 -104 -49 -184t-120 -124v-3h185v-54h-283v41q82 40 138 120t56 195q0 109 -77 198t-205 89t-208.5 -84.5t-80.5 -205.5q0 -109 56.5 -191.5t137.5 -120.5v-41
h-283v54h183z" />
    <glyph glyph-name="estimated" unicode="&#x212e;" horiz-adv-x="858" 
d="M824 330h-640q-5 0 -5 -4v-194q0 -12 8 -22q102 -105 242 -105q153 0 255 118h57q-54 -64 -136.5 -101t-176.5 -37q-164 0 -279.5 104t-115.5 251t116 251.5t279 104.5q164 0 280 -104.5t116 -251.5v-10zM679 355v195q0 14 -10 23q-103 101 -240 101q-139 0 -241 -104
q-9 -9 -9 -24v-191q0 -6 5 -6h491q4 0 4 6z" />
    <glyph glyph-name="uni2150" unicode="&#x2150;" horiz-adv-x="958" 
d="M630 701l40 -26l-455 -696l-40 26zM238 240h-70v343q-41 -43 -123 -43v63q66 3 94.5 24t28.5 62h70v-449zM605 449h316v-52l-206 -397h-77l200 384h-233v65z" />
    <glyph glyph-name="uni2151" unicode="&#x2151;" horiz-adv-x="922" 
d="M630 701l40 -26l-455 -696l-40 26zM238 240h-70v343q-41 -43 -123 -43v63q66 3 94.5 24t28.5 62h70v-449zM707 459q81 0 125.5 -63.5t44.5 -163.5q0 -106 -54.5 -174t-138.5 -68q-40 0 -76.5 17t-58.5 46l49 41q31 -41 85 -41q56 0 90 46t37 115q-37 -57 -112 -57
q-63 0 -107 43.5t-44 105.5q0 64 46.5 108.5t113.5 44.5zM707 214q37 0 63.5 26t26.5 64q0 40 -26 66t-64 26t-65 -27t-27 -65q0 -37 27 -63.5t65 -26.5z" />
    <glyph glyph-name="uni2152" unicode="&#x2152;" horiz-adv-x="1284" 
d="M630 701l40 -26l-455 -696l-40 26zM238 240h-70v343q-41 -43 -123 -43v63q66 3 94.5 24t28.5 62h70v-449zM1056 460q82 0 132.5 -65t50.5 -170q0 -104 -50.5 -169.5t-132.5 -65.5q-81 0 -131.5 65.5t-50.5 169.5q0 105 50.5 170t131.5 65zM591 363q66 3 94.5 24t28.5 62
h70v-449h-70v343q-41 -43 -123 -43v63zM1056 56q52 0 83.5 46t31.5 123t-31.5 123.5t-83.5 46.5t-83 -46.5t-31 -123.5t31 -123t83 -46z" />
    <glyph glyph-name="uni2153" unicode="&#x2153;" horiz-adv-x="919" 
d="M630 701l40 -26l-455 -696l-40 26zM238 240h-70v343q-41 -43 -123 -43v63q66 3 94.5 24t28.5 62h70v-449zM791 231q83 -33 83 -109q0 -57 -47 -94.5t-113 -37.5q-64 0 -110 35.5t-57 91.5l65 19q5 -36 33 -58.5t68 -22.5q39 0 66.5 21.5t27.5 52.5t-29 52t-76 21h-58v57
h58q42 0 68.5 19t26.5 49q0 29 -25 49t-60 20q-38 0 -63.5 -22.5t-30.5 -57.5l-66 17q11 57 55.5 92t105.5 35q63 0 107.5 -36t44.5 -91q0 -70 -74 -102z" />
    <glyph glyph-name="uni2154" unicode="&#x2154;" horiz-adv-x="1000" 
d="M711 701l40 -26l-455 -696l-40 26zM48 290l195 201q34 36 34 72q0 30 -23 51t-57 21t-59 -25t-28 -63l-65 13q5 59 48.5 99t103.5 40q61 0 104.5 -39.5t43.5 -94.5q0 -64 -58 -122l-136 -138h206v-65h-309v50zM872 231q83 -33 83 -109q0 -57 -47 -94.5t-113 -37.5
q-64 0 -110 35.5t-57 91.5l65 19q5 -36 33 -58.5t68 -22.5q39 0 66.5 21.5t27.5 52.5t-29 52t-76 21h-58v57h58q42 0 68.5 19t26.5 49q0 29 -25 49t-60 20q-38 0 -63.5 -22.5t-30.5 -57.5l-66 17q11 57 55.5 92t105.5 35q63 0 107.5 -36t44.5 -91q0 -70 -74 -102z" />
    <glyph glyph-name="uni2155" unicode="&#x2155;" horiz-adv-x="920" 
d="M630 701l40 -26l-455 -696l-40 26zM238 240h-70v343q-41 -43 -123 -43v63q66 3 94.5 24t28.5 62h70v-449zM724 293q64 0 107.5 -42t43.5 -104q0 -66 -49 -111.5t-116 -45.5q-58 0 -103.5 37t-59.5 95l63 20q8 -37 36 -62t65 -25q40 0 68.5 26.5t28.5 65.5
q0 38 -26.5 63.5t-67.5 25.5q-29 0 -56 -14t-39 -34l-57 26l39 235h253v-64h-201l-18 -115q38 23 89 23z" />
    <glyph glyph-name="uni2156" unicode="&#x2156;" horiz-adv-x="1001" 
d="M711 701l40 -26l-455 -696l-40 26zM48 290l195 201q34 36 34 72q0 30 -23 51t-57 21t-59 -25t-28 -63l-65 13q5 59 48.5 99t103.5 40q61 0 104.5 -39.5t43.5 -94.5q0 -64 -58 -122l-136 -138h206v-65h-309v50zM805 293q64 0 107.5 -42t43.5 -104q0 -66 -49 -111.5
t-116 -45.5q-58 0 -103.5 37t-59.5 95l63 20q8 -37 36 -62t65 -25q40 0 68.5 26.5t28.5 65.5q0 38 -26.5 63.5t-67.5 25.5q-29 0 -56 -14t-39 -34l-57 26l39 235h253v-64h-201l-18 -115q38 23 89 23z" />
    <glyph glyph-name="uni2157" unicode="&#x2157;" horiz-adv-x="984" 
d="M694 701l40 -26l-455 -696l-40 26zM372 362q0 -57 -47 -94.5t-113 -37.5q-64 0 -110 35.5t-57 91.5l65 19q5 -36 33 -58.5t68 -22.5q39 0 66.5 21.5t27.5 52.5t-29 52t-76 21h-58v57h58q42 0 68.5 19t26.5 49q0 29 -25 49t-60 20q-38 0 -63.5 -22.5t-30.5 -57.5l-66 17
q11 57 55.5 92t105.5 35q63 0 107.5 -36t44.5 -91q0 -70 -74 -102q83 -33 83 -109zM788 293q64 0 107.5 -42t43.5 -104q0 -66 -49 -111.5t-116 -45.5q-58 0 -103.5 37t-59.5 95l63 20q8 -37 36 -62t65 -25q40 0 68.5 26.5t28.5 65.5q0 38 -26.5 63.5t-67.5 25.5
q-29 0 -56 -14t-39 -34l-57 26l39 235h253v-64h-201l-18 -115q38 23 89 23z" />
    <glyph glyph-name="uni2158" unicode="&#x2158;" horiz-adv-x="1027" 
d="M737 701l40 -26l-455 -696l-40 26zM332 240h-66v108h-221v50l160 291h74l-157 -282h144v136h66v-136h77v-59h-77v-108zM831 293q64 0 107.5 -42t43.5 -104q0 -66 -49 -111.5t-116 -45.5q-58 0 -103.5 37t-59.5 95l63 20q8 -37 36 -62t65 -25q40 0 68.5 26.5t28.5 65.5
q0 38 -26.5 63.5t-67.5 25.5q-29 0 -56 -14t-39 -34l-57 26l39 235h253v-64h-201l-18 -115q38 23 89 23z" />
    <glyph glyph-name="uni2159" unicode="&#x2159;" horiz-adv-x="910" 
d="M630 701l40 -26l-455 -696l-40 26zM238 240h-70v343q-41 -43 -123 -43v63q66 3 94.5 24t28.5 62h70v-449zM715 292q63 0 106.5 -43t43.5 -105q0 -65 -46 -109.5t-113 -44.5q-81 0 -126 63.5t-45 164.5q0 105 54.5 173t138.5 68q40 0 76.5 -17t58.5 -46l-48 -41
q-32 41 -86 41q-56 0 -90 -46t-37 -116q37 58 113 58zM706 54q38 0 64.5 26.5t26.5 64.5t-26.5 64.5t-64.5 26.5t-65 -26.5t-27 -64.5q0 -39 26.5 -65t65.5 -26z" />
    <glyph glyph-name="uni215A" unicode="&#x215a;" horiz-adv-x="981" 
d="M701 701l40 -26l-455 -696l-40 26zM373 387q0 -66 -49 -111.5t-116 -45.5q-58 0 -103.5 37t-59.5 95l63 20q8 -37 36 -62t65 -25q40 0 68.5 26.5t28.5 65.5q0 38 -26.5 63.5t-67.5 25.5q-29 0 -56 -14t-39 -34l-57 26l39 235h253v-64h-201l-18 -115q38 23 89 23
q64 0 107.5 -42t43.5 -104zM786 292q63 0 106.5 -43t43.5 -105q0 -65 -46 -109.5t-113 -44.5q-81 0 -126 63.5t-45 164.5q0 105 54.5 173t138.5 68q40 0 76.5 -17t58.5 -46l-48 -41q-32 41 -86 41q-56 0 -90 -46t-37 -116q37 58 113 58zM777 54q38 0 64.5 26.5t26.5 64.5
t-26.5 64.5t-64.5 26.5t-65 -26.5t-27 -64.5q0 -39 26.5 -65t65.5 -26z" />
    <glyph glyph-name="oneeighth" unicode="&#x215b;" horiz-adv-x="929" 
d="M630 701l40 -26l-455 -696l-40 26zM238 240h-70v343q-41 -43 -123 -43v63q66 3 94.5 24t28.5 62h70v-449zM808 233q76 -35 76 -108q0 -57 -48.5 -96t-119.5 -39t-120 39t-49 96q0 73 76 108q-66 33 -66 98q0 55 46 92t113 37q66 0 112 -37t46 -92q0 -65 -66 -98zM716 396
q-38 0 -64.5 -20t-26.5 -50q0 -29 26.5 -49t64.5 -20t63.5 20t25.5 49q0 30 -25.5 50t-63.5 20zM716 55q42 0 70.5 21.5t28.5 53.5q0 31 -29 52.5t-70 21.5q-42 0 -71 -21.5t-29 -52.5q0 -32 29 -53.5t71 -21.5z" />
    <glyph glyph-name="threeeighths" unicode="&#x215c;" horiz-adv-x="993" 
d="M694 701l40 -26l-455 -696l-40 26zM372 362q0 -57 -47 -94.5t-113 -37.5q-64 0 -110 35.5t-57 91.5l65 19q5 -36 33 -58.5t68 -22.5q39 0 66.5 21.5t27.5 52.5t-29 52t-76 21h-58v57h58q42 0 68.5 19t26.5 49q0 29 -25 49t-60 20q-38 0 -63.5 -22.5t-30.5 -57.5l-66 17
q11 57 55.5 92t105.5 35q63 0 107.5 -36t44.5 -91q0 -70 -74 -102q83 -33 83 -109zM872 233q76 -35 76 -108q0 -57 -48.5 -96t-119.5 -39t-120 39t-49 96q0 73 76 108q-66 33 -66 98q0 55 46 92t113 37q66 0 112 -37t46 -92q0 -65 -66 -98zM780 396q-38 0 -64.5 -20
t-26.5 -50q0 -29 26.5 -49t64.5 -20t63.5 20t25.5 49q0 30 -25.5 50t-63.5 20zM780 55q42 0 70.5 21.5t28.5 53.5q0 31 -29 52.5t-70 21.5q-42 0 -71 -21.5t-29 -52.5q0 -32 29 -53.5t71 -21.5z" />
    <glyph glyph-name="fiveeighths" unicode="&#x215d;" horiz-adv-x="1000" 
d="M701 701l40 -26l-455 -696l-40 26zM373 387q0 -66 -49 -111.5t-116 -45.5q-58 0 -103.5 37t-59.5 95l63 20q8 -37 36 -62t65 -25q40 0 68.5 26.5t28.5 65.5q0 38 -26.5 63.5t-67.5 25.5q-29 0 -56 -14t-39 -34l-57 26l39 235h253v-64h-201l-18 -115q38 23 89 23
q64 0 107.5 -42t43.5 -104zM879 233q76 -35 76 -108q0 -57 -48.5 -96t-119.5 -39t-120 39t-49 96q0 73 76 108q-66 33 -66 98q0 55 46 92t113 37q66 0 112 -37t46 -92q0 -65 -66 -98zM787 396q-38 0 -64.5 -20t-26.5 -50q0 -29 26.5 -49t64.5 -20t63.5 20t25.5 49
q0 30 -25.5 50t-63.5 20zM787 55q42 0 70.5 21.5t28.5 53.5q0 31 -29 52.5t-70 21.5q-42 0 -71 -21.5t-29 -52.5q0 -32 29 -53.5t71 -21.5z" />
    <glyph glyph-name="seveneighths" unicode="&#x215e;" horiz-adv-x="930" 
d="M631 701l40 -26l-455 -696l-40 26zM369 689v-52l-206 -397h-77l200 384h-233v65h316zM809 233q76 -35 76 -108q0 -57 -48.5 -96t-119.5 -39t-120 39t-49 96q0 73 76 108q-66 33 -66 98q0 55 46 92t113 37q66 0 112 -37t46 -92q0 -65 -66 -98zM717 396q-38 0 -64.5 -20
t-26.5 -50q0 -29 26.5 -49t64.5 -20t63.5 20t25.5 49q0 30 -25.5 50t-63.5 20zM717 55q42 0 70.5 21.5t28.5 53.5q0 31 -29 52.5t-70 21.5q-42 0 -71 -21.5t-29 -52.5q0 -32 29 -53.5t71 -21.5z" />
    <glyph glyph-name="uni215F" unicode="&#x215f;" horiz-adv-x="502" 
d="M630 701l40 -26l-455 -696l-40 26zM238 240h-70v343q-41 -43 -123 -43v63q66 3 94.5 24t28.5 62h70v-449z" />
    <glyph glyph-name="uni2189" unicode="&#x2189;" horiz-adv-x="1015" 
d="M726 701l40 -26l-455 -696l-40 26zM410 465q0 -104 -50.5 -169.5t-132.5 -65.5q-81 0 -131.5 65.5t-50.5 169.5q0 105 50.5 170t131.5 65q82 0 132.5 -65t50.5 -170zM227 296q52 0 83.5 46t31.5 123t-31.5 123.5t-83.5 46.5t-83 -46.5t-31 -123.5t31 -123t83 -46z
M887 231q83 -33 83 -109q0 -57 -47 -94.5t-113 -37.5q-64 0 -110 35.5t-57 91.5l65 19q5 -36 33 -58.5t68 -22.5q39 0 66.5 21.5t27.5 52.5t-29 52t-76 21h-58v57h58q42 0 68.5 19t26.5 49q0 29 -25 49t-60 20q-38 0 -63.5 -22.5t-30.5 -57.5l-66 17q11 57 55.5 92t105.5 35
q63 0 107.5 -36t44.5 -91q0 -70 -74 -102z" />
    <glyph glyph-name="partialdiff" unicode="&#x2202;" horiz-adv-x="633" 
d="M117 659l-28 45q79 58 194 58q120 0 205.5 -101t85.5 -274q0 -76 -19 -146.5t-55.5 -128t-95.5 -91.5t-132 -34q-56 0 -100.5 21.5t-70.5 56t-39.5 74t-13.5 78.5q0 108 72 176.5t173 68.5q77 0 132.5 -40t75.5 -77h1q2 14 2 51q0 141 -66.5 226.5t-161.5 85.5
q-90 0 -159 -49zM278 41h1q84 0 141 71t71 169q-16 43 -67.5 85.5t-118.5 42.5q-76 0 -131 -55t-55 -134q0 -75 44.5 -127t114.5 -52z" />
    <glyph glyph-name="Delta" unicode="&#x2206;" horiz-adv-x="768" 
d="M35 0v50l308 656h84l305 -656v-50h-697zM110 55h541l-184 398q-6 14 -40 89.5t-43 100.5h-5q-6 -17 -37 -85.5t-37 -83.5z" />
    <glyph glyph-name="product" unicode="&#x220f;" horiz-adv-x="818" 
d="M789 625h-136v-719h-69v719h-351v-719h-69v719h-136v60h761v-60z" />
    <glyph glyph-name="summation" unicode="&#x2211;" horiz-adv-x="650" 
d="M623 -94h-599v42l323 345l-308 346v46h568v-60h-464v-3l288 -322l-307 -329v-3h499v-62z" />
    <glyph glyph-name="minus" unicode="&#x2212;" horiz-adv-x="555" 
d="M60 306v68h435v-68h-435z" />
    <glyph glyph-name="radical" unicode="&#x221a;" horiz-adv-x="652" 
d="M657 810l-260 -959h-66l-190 459l-86 -32l-17 41l146 57l160 -398q10 -30 19 -60h1q4 20 15 61l223 831h55z" />
    <glyph glyph-name="infinity" unicode="&#x221e;" horiz-adv-x="865" 
d="M806 284v-1q0 -75 -50 -123t-118 -48q-50 0 -94.5 31.5t-110.5 103.5q-29 -33 -46.5 -50.5t-45.5 -40.5t-57.5 -33.5t-61.5 -10.5q-67 0 -115.5 49t-48.5 119q0 73 49 122t123 49q56 0 103 -35t104 -100q4 4 12 13q37 41 59 61.5t60.5 40.5t78.5 20q72 0 115.5 -46.5
t43.5 -120.5zM229 157h1q21 0 41 7t41 23.5t33 27t35 35t28 29.5q-60 69 -86 90q-50 39 -101 39t-82.5 -38.5t-31.5 -91.5q0 -50 34 -85.5t88 -35.5zM642 408h-1q-27 0 -56 -15.5t-46 -31t-44.5 -44t-33.5 -34.5q67 -71 104 -98.5t78 -27.5q52 0 83 37.5t31 85.5
q0 59 -32.5 93.5t-82.5 34.5z" />
    <glyph glyph-name="integral" unicode="&#x222b;" horiz-adv-x="385" 
d="M375 819l-13 -46q-19 13 -45 13q-38 0 -58 -23q-41 -42 -41 -177q0 -76 8 -247t8 -250q0 -133 -50 -197q-34 -48 -102 -48q-45 0 -75 19l14 47q27 -15 55 -15q31 0 53 22q44 49 44 174q0 80 -8.5 253t-8.5 249q0 80 14 128.5t46 76.5q37 37 97 37q35 0 62 -16z" />
    <glyph glyph-name="approxequal" unicode="&#x2248;" horiz-adv-x="659" 
d="M571 435l29 -28q-58 -99 -145 -99q-23 0 -47 7t-39.5 14.5t-52.5 26.5q-70 37 -110 37q-38 0 -64.5 -21t-55.5 -61l-30 27q27 47 68 73.5t89 26.5q19 0 39.5 -5.5t32 -11t32.5 -16.5t26 -14q5 -2 19.5 -9.5t19 -10t16.5 -7.5t19 -6.5t18 -3t22 -1.5q35 0 61.5 19.5
t52.5 62.5zM571 248l29 -27q-58 -98 -145 -98q-24 0 -48 7t-38.5 14t-52.5 27q-70 36 -110 36q-38 0 -64.5 -21t-55.5 -61l-30 27q27 47 68 73.5t89 26.5q20 0 41 -5.5t31 -9.5t33 -16.5t25 -13.5t17.5 -9.5t19 -10t16.5 -7t20 -7t18.5 -3.5t22.5 -2q36 0 61.5 18.5
t52.5 61.5z" />
    <glyph glyph-name="notequal" unicode="&#x2260;" horiz-adv-x="555" 
d="M495 400h-148l-57 -120h205v-68h-236l-49 -104h-76l48 104h-122v68h154l56 120h-210v68h242l48 104h77l-49 -104h117v-68z" />
    <glyph glyph-name="lessequal" unicode="&#x2264;" horiz-adv-x="555" 
d="M495 591v-62l-337 -137l337 -138v-61l-435 178v42zM60 107v56h435v-56h-435z" />
    <glyph glyph-name="greaterequal" unicode="&#x2265;" horiz-adv-x="555" 
d="M60 591l435 -178v-42l-435 -178v61l337 138l-337 137v62zM60 107v56h435v-56h-435z" />
    <glyph glyph-name="lozenge" unicode="&#x25ca;" horiz-adv-x="653" 
d="M589 342l-235 -395h-56l-235 395l235 395h56zM525 340l-177 299q-17 29 -22 45h-2q-10 -23 -23 -45l-174 -296l178 -299q16 -30 20 -44h4q7 18 20 43z" />
    <glyph glyph-name="i.loclTRK" horiz-adv-x="242" 
d="M122 564q-21 0 -36 14.5t-15 36.5q0 21 15 35.5t36 14.5t36 -14.5t15 -35.5t-15 -36t-36 -15zM84 500h74v-500h-74v500z" />
    <glyph glyph-name="a.ss01" horiz-adv-x="598" 
d="M441 500h74v-500h-74v94q-23 -48 -67 -76.5t-103 -28.5q-96 0 -162 73t-66 188q1 113 66 186.5t164 73.5q56 0 100 -25.5t68 -67.5v83zM282 60q70 0 117 53.5t47 136.5q0 84 -44.5 136.5t-119.5 52.5q-72 0 -118 -53t-46 -136t46 -136.5t118 -53.5z" />
    <glyph glyph-name="three.ss01" horiz-adv-x="585" 
d="M316 421q93 4 155 -54t62 -147q0 -102 -75 -169t-177 -67q-86 0 -153 51t-91 141l77 23q15 -64 61 -100.5t107 -36.5q71 0 120.5 44.5t49.5 113.5q0 62 -39 100.5t-98 38.5q-53 0 -98 -38l-49 47l225 234h-325v78h436v-65z" />
    <glyph glyph-name="zero.tf" horiz-adv-x="620" 
d="M310 -16q-122 0 -197 98.5t-75 257.5t75 257.5t197 98.5t197 -98.5t75 -257.5t-75 -257.5t-197 -98.5zM310 62q87 0 138.5 75t51.5 203t-51.5 203t-138.5 75t-138.5 -75t-51.5 -203t51.5 -203t138.5 -75z" />
    <glyph glyph-name="one.tf" horiz-adv-x="620" 
d="M375 78h184v-78h-457v78h192v467q-57 -72 -187 -72v71q85 0 136 39t51 97h81v-602z" />
    <glyph glyph-name="two.tf" horiz-adv-x="620" 
d="M201 78h338v-78h-456v64l299 310q58 60 58 119q0 52 -39.5 88.5t-95.5 36.5t-96.5 -36.5t-48.5 -91.5l-78 14q12 82 74.5 137t148.5 55q89 0 152.5 -58t63.5 -141q0 -93 -86 -181z" />
    <glyph glyph-name="three.tf" horiz-adv-x="620" 
d="M403 349q61 -21 97 -64.5t36 -100.5q0 -83 -70.5 -141.5t-172.5 -58.5q-89 0 -158 52.5t-88 137.5l77 22q10 -60 58 -97t111 -37q68 0 114.5 36t46.5 89t-47 89t-118 36h-96v71h96q64 0 107 34.5t43 84.5q0 49 -42.5 82.5t-103.5 33.5t-105.5 -36.5t-55.5 -97.5l-77 22
q20 86 85 138t152 52q95 0 161.5 -55.5t66.5 -135.5q0 -53 -31.5 -93.5t-85.5 -62.5z" />
    <glyph glyph-name="four.tf" horiz-adv-x="620" 
d="M577 243v-74h-128v-169h-78v169h-339v63l244 448h86l-240 -437h249v221h78v-221h128z" />
    <glyph glyph-name="five.tf" horiz-adv-x="620" 
d="M314 442q94 0 161 -63.5t67 -158.5q0 -100 -73.5 -168t-171.5 -68q-86 0 -152.5 52.5t-88.5 141.5l77 23q13 -64 58.5 -101.5t105.5 -37.5q66 0 114.5 45t48.5 114q0 64 -43.5 105t-114.5 41q-46 0 -87.5 -18.5t-65.5 -48.5l-70 35l57 345h371v-78h-308l-33 -207
q62 47 148 47z" />
    <glyph glyph-name="six.tf" horiz-adv-x="620" 
d="M330 446q95 0 160.5 -67.5t65.5 -163.5t-68.5 -163.5t-164.5 -67.5q-125 0 -191.5 94.5t-66.5 257.5q0 155 82 257.5t209 102.5q53 0 104.5 -23.5t82.5 -62.5l-59 -49q-20 25 -56 41t-72 16q-96 0 -153.5 -81.5t-58.5 -201.5q23 49 75 80t111 31zM319 62q65 0 110 45.5
t45 110.5q0 64 -45.5 109.5t-109.5 45.5q-65 0 -110.5 -45.5t-45.5 -109.5q0 -66 45 -111t111 -45z" />
    <glyph glyph-name="seven.tf" horiz-adv-x="620" 
d="M77 680h467v-67l-317 -613h-92l313 602h-371v78z" />
    <glyph glyph-name="eight.tf" horiz-adv-x="620" 
d="M433 351q57 -24 90.5 -67.5t33.5 -99.5q0 -84 -71.5 -142t-175.5 -58t-175.5 58t-71.5 142q0 56 33.5 99.5t90.5 67.5q-51 23 -79.5 63t-28.5 91q0 80 67 135.5t164 55.5t164 -55.5t67 -135.5q0 -51 -28.5 -91t-79.5 -63zM310 618q-63 0 -106 -33.5t-43 -83.5t43 -83.5
t106 -33.5t106.5 33.5t43.5 83.5t-43.5 83.5t-106.5 33.5zM310 62q70 0 117.5 36.5t47.5 89.5t-47.5 89t-117.5 36t-117.5 -36t-47.5 -89t47.5 -89.5t117.5 -36.5z" />
    <glyph glyph-name="nine.tf" horiz-adv-x="620" 
d="M287 696q125 0 192 -94.5t67 -257.5q0 -155 -82 -257.5t-209 -102.5q-53 0 -105 23.5t-83 62.5l59 50q21 -26 56.5 -42t72.5 -16q96 0 154 82t58 203q-23 -50 -74.5 -81t-112.5 -31q-95 0 -160 67t-65 163t68 163.5t164 67.5zM291 308q65 0 110.5 45.5t45.5 109.5
q0 66 -45 110.5t-111 44.5q-64 0 -109 -45t-45 -110q0 -64 45 -109.5t109 -45.5z" />
    <glyph glyph-name="zero.dnom" horiz-adv-x="455" 
d="M227 -10q-81 0 -131.5 65.5t-50.5 169.5q0 105 50.5 170t131.5 65q82 0 132.5 -65t50.5 -170q0 -104 -50.5 -169.5t-132.5 -65.5zM227 56q52 0 83.5 46t31.5 123t-31.5 123.5t-83.5 46.5t-83 -46.5t-31 -123.5t31 -123t83 -46z" />
    <glyph glyph-name="one.dnom" horiz-adv-x="283" 
d="M168 449h70v-449h-70v343q-41 -43 -123 -43v63q66 3 94.5 24t28.5 62z" />
    <glyph glyph-name="two.dnom" horiz-adv-x="402" 
d="M151 65h206v-65h-309v50l195 201q34 36 34 72q0 30 -23 51t-57 21t-59 -25t-28 -63l-65 13q5 59 48.5 99t103.5 40q61 0 104.5 -39.5t43.5 -94.5q0 -64 -58 -122z" />
    <glyph glyph-name="three.dnom" horiz-adv-x="417" 
d="M289 231q83 -33 83 -109q0 -57 -47 -94.5t-113 -37.5q-64 0 -110 35.5t-57 91.5l65 19q5 -36 33 -58.5t68 -22.5q39 0 66.5 21.5t27.5 52.5t-29 52t-76 21h-58v57h58q42 0 68.5 19t26.5 49q0 29 -25 49t-60 20q-38 0 -63.5 -22.5t-30.5 -57.5l-66 17q11 57 55.5 92
t105.5 35q63 0 107.5 -36t44.5 -91q0 -70 -74 -102z" />
    <glyph glyph-name="four.dnom" horiz-adv-x="454" 
d="M409 167v-59h-77v-108h-66v108h-221v50l160 291h74l-157 -282h144v136h66v-136h77z" />
    <glyph glyph-name="five.dnom" horiz-adv-x="418" 
d="M222 293q64 0 107.5 -42t43.5 -104q0 -66 -49 -111.5t-116 -45.5q-58 0 -103.5 37t-59.5 95l63 20q8 -37 36 -62t65 -25q40 0 68.5 26.5t28.5 65.5q0 38 -26.5 63.5t-67.5 25.5q-29 0 -56 -14t-39 -34l-57 26l39 235h253v-64h-201l-18 -115q38 23 89 23z" />
    <glyph glyph-name="six.dnom" horiz-adv-x="420" 
d="M225 292q63 0 106.5 -43t43.5 -105q0 -65 -46 -109.5t-113 -44.5q-81 0 -126 63.5t-45 164.5q0 105 54.5 173t138.5 68q40 0 76.5 -17t58.5 -46l-48 -41q-32 41 -86 41q-56 0 -90 -46t-37 -116q37 58 113 58zM216 54q38 0 64.5 26.5t26.5 64.5t-26.5 64.5t-64.5 26.5
t-65 -26.5t-27 -64.5q0 -39 26.5 -65t65.5 -26z" />
    <glyph glyph-name="seven.dnom" horiz-adv-x="406" 
d="M53 449h316v-52l-206 -397h-77l200 384h-233v65z" />
    <glyph glyph-name="eight.dnom" horiz-adv-x="427" 
d="M306 233q76 -35 76 -108q0 -57 -48.5 -96t-119.5 -39t-120 39t-49 96q0 73 76 108q-66 33 -66 98q0 55 46 92t113 37q66 0 112 -37t46 -92q0 -65 -66 -98zM214 396q-38 0 -64.5 -20t-26.5 -50q0 -29 26.5 -49t64.5 -20t63.5 20t25.5 49q0 30 -25.5 50t-63.5 20zM214 55
q42 0 70.5 21.5t28.5 53.5q0 31 -29 52.5t-70 21.5q-42 0 -71 -21.5t-29 -52.5q0 -32 29 -53.5t71 -21.5z" />
    <glyph glyph-name="nine.dnom" horiz-adv-x="420" 
d="M205 459q81 0 125.5 -63.5t44.5 -163.5q0 -106 -54.5 -174t-138.5 -68q-40 0 -76.5 17t-58.5 46l49 41q31 -41 85 -41q56 0 90 46t37 115q-37 -57 -112 -57q-63 0 -107 43.5t-44 105.5q0 64 46.5 108.5t113.5 44.5zM205 214q37 0 63.5 26t26.5 64q0 40 -26 66t-64 26
t-65 -27t-27 -65q0 -37 27 -63.5t65 -26.5z" />
    <glyph glyph-name="zero.numr" horiz-adv-x="455" 
d="M227 230q-81 0 -131.5 65.5t-50.5 169.5q0 105 50.5 170t131.5 65q82 0 132.5 -65t50.5 -170q0 -104 -50.5 -169.5t-132.5 -65.5zM227 296q52 0 83.5 46t31.5 123t-31.5 123.5t-83.5 46.5t-83 -46.5t-31 -123.5t31 -123t83 -46z" />
    <glyph glyph-name="one.numr" horiz-adv-x="283" 
d="M168 689h70v-449h-70v343q-41 -43 -123 -43v63q66 3 94.5 24t28.5 62z" />
    <glyph glyph-name="two.numr" horiz-adv-x="402" 
d="M151 305h206v-65h-309v50l195 201q34 36 34 72q0 30 -23 51t-57 21t-59 -25t-28 -63l-65 13q5 59 48.5 99t103.5 40q61 0 104.5 -39.5t43.5 -94.5q0 -64 -58 -122z" />
    <glyph glyph-name="three.numr" horiz-adv-x="417" 
d="M289 471q83 -33 83 -109q0 -57 -47 -94.5t-113 -37.5q-64 0 -110 35.5t-57 91.5l65 19q5 -36 33 -58.5t68 -22.5q39 0 66.5 21.5t27.5 52.5t-29 52t-76 21h-58v57h58q42 0 68.5 19t26.5 49q0 29 -25 49t-60 20q-38 0 -63.5 -22.5t-30.5 -57.5l-66 17q11 57 55.5 92
t105.5 35q63 0 107.5 -36t44.5 -91q0 -70 -74 -102z" />
    <glyph glyph-name="four.numr" horiz-adv-x="454" 
d="M409 407v-59h-77v-108h-66v108h-221v50l160 291h74l-157 -282h144v136h66v-136h77z" />
    <glyph glyph-name="five.numr" horiz-adv-x="418" 
d="M222 533q64 0 107.5 -42t43.5 -104q0 -66 -49 -111.5t-116 -45.5q-58 0 -103.5 37t-59.5 95l63 20q8 -37 36 -62t65 -25q40 0 68.5 26.5t28.5 65.5q0 38 -26.5 63.5t-67.5 25.5q-29 0 -56 -14t-39 -34l-57 26l39 235h253v-64h-201l-18 -115q38 23 89 23z" />
    <glyph glyph-name="six.numr" horiz-adv-x="420" 
d="M225 532q63 0 106.5 -43t43.5 -105q0 -65 -46 -109.5t-113 -44.5q-81 0 -126 63.5t-45 164.5q0 105 54.5 173t138.5 68q40 0 76.5 -17t58.5 -46l-48 -41q-32 41 -86 41q-56 0 -90 -46t-37 -116q37 58 113 58zM216 294q38 0 64.5 26.5t26.5 64.5t-26.5 64.5t-64.5 26.5
t-65 -26.5t-27 -64.5q0 -39 26.5 -65t65.5 -26z" />
    <glyph glyph-name="seven.numr" horiz-adv-x="406" 
d="M53 689h316v-52l-206 -397h-77l200 384h-233v65z" />
    <glyph glyph-name="eight.numr" horiz-adv-x="427" 
d="M306 473q76 -35 76 -108q0 -57 -48.5 -96t-119.5 -39t-120 39t-49 96q0 73 76 108q-66 33 -66 98q0 55 46 92t113 37q66 0 112 -37t46 -92q0 -65 -66 -98zM214 636q-38 0 -64.5 -20t-26.5 -50q0 -29 26.5 -49t64.5 -20t63.5 20t25.5 49q0 30 -25.5 50t-63.5 20zM214 295
q42 0 70.5 21.5t28.5 53.5q0 31 -29 52.5t-70 21.5q-42 0 -71 -21.5t-29 -52.5q0 -32 29 -53.5t71 -21.5z" />
    <glyph glyph-name="nine.numr" horiz-adv-x="420" 
d="M205 699q81 0 125.5 -63.5t44.5 -163.5q0 -106 -54.5 -174t-138.5 -68q-40 0 -76.5 17t-58.5 46l49 41q31 -41 85 -41q56 0 90 46t37 115q-37 -57 -112 -57q-63 0 -107 43.5t-44 105.5q0 64 46.5 108.5t113.5 44.5zM205 454q37 0 63.5 26t26.5 64q0 40 -26 66t-64 26
t-65 -27t-27 -65q0 -37 27 -63.5t65 -26.5z" />
    </font>
</defs>
</svg>
