<?xml version="1.0" standalone="no"?>
<!DOCTYPE svg PUBLIC "-//W3C//DTD SVG 1.1//EN" "http://www.w3.org/Graphics/SVG/1.1/DTD/svg11.dtd" >
<svg xmlns="http://www.w3.org/2000/svg" xmlns:xlink="http://www.w3.org/1999/xlink" version="1.1">
<metadata>
Created by FontForge 20170731 at Wed Jan 11 14:57:54 2017
 By Aleksey,,,
Copyright (c) 2016 by Alex Sheyn. All rights reserved.
</metadata>
<defs>
<font id="ATCArquette-BoldItalic" horiz-adv-x="0" >
  <font-face 
    font-family="ATC Arquette Bold Italic"
    font-weight="705"
    font-style="italic"
    font-stretch="normal"
    units-per-em="1000"
    panose-1="0 0 8 0 0 0 0 0 0 0"
    ascent="800"
    descent="-200"
    x-height="500"
    cap-height="680"
    bbox="-659 -288 1339.92 928"
    underline-thickness="50"
    underline-position="-200"
    slope="-10"
    unicode-range="U+0020-FB02"
  />
<missing-glyph horiz-adv-x="460" 
d="M377 700v-920h-291v920h291zM306 638h-151v-30h59v-34h-60v-30h152v30h-60v34h60v30zM246 520h-92v-96h152v31h-60v65zM214 488v-33h-30v33h30zM306 399h-152v-30h60v-34h-60v-31h92v65h60v30zM306 344h-30v-61h-122v-31h152v92zM306 232h-92v-52h32v21h30v-43h-92v74
h-30v-104h152v104zM306 73h-152v-104h152v104zM276 42v-43h-92v43h92zM306 -53h-152v-30h64l-64 -43v-31h152v31h-93l64 43h29v30z" />
    <glyph glyph-name="fi" unicode="fi" horiz-adv-x="703" 
d="M621 720q38 0 61.5 -26.5t16.5 -65.5q-6 -32 -33 -52.5t-60 -20.5q-40 0 -63.5 26.5t-16.5 66.5q6 32 33 52t62 20zM663 500l-88 -500h-150l65 370h-203l-65 -370h-145l65 370h-90l23 130h90l8 45q14 81 58.5 118t125.5 37h113l-22 -125h-73q-52 0 -61 -55l-4 -20h353z
" />
    <glyph glyph-name="fl" unicode="fl" horiz-adv-x="695" 
d="M549 700h150l-123 -700h-150l65 370h-204l-65 -370h-145l65 370h-90l23 130h90l8 45q14 81 58.5 118t125.5 37h103l-22 -125h-63q-52 0 -61 -55l-4 -20h204z" />
    <glyph glyph-name="f_f" unicode="ff" horiz-adv-x="743" 
d="M723 575q-52 0 -61 -55l-4 -20h115l-23 -130h-115l-65 -370h-145l65 370h-203l-65 -370h-145l65 370h-90l23 130h90l8 45q14 81 58.5 118t125.5 37h103l-22 -125h-63q-52 0 -61 -55l-4 -20h203l8 45q14 81 58.5 118t125.5 37h103l-22 -125h-63z" />
    <glyph glyph-name="f_f_i" unicode="ffi" horiz-adv-x="1051" 
d="M969 720q38 0 61.5 -26.5t16.5 -65.5q-6 -32 -33 -52.5t-60 -20.5q-40 0 -63.5 26.5t-16.5 66.5q6 32 33 52t62 20zM1011 500l-88 -500h-150l65 370h-203l-65 -370h-145l65 370h-203l-65 -370h-145l65 370h-90l23 130h90l8 45q14 81 58.5 118t125.5 37h103l-22 -125h-63
q-52 0 -61 -55l-4 -20h203l8 45q14 81 58.5 118t125.5 37h113l-22 -125h-73q-52 0 -61 -55l-4 -20h353z" />
    <glyph glyph-name="f_f_l" unicode="ffl" horiz-adv-x="1042" 
d="M896 700h150l-123 -700h-150l65 370h-203l-65 -370h-145l65 370h-203l-65 -370h-145l65 370h-90l23 130h90l8 45q14 81 58.5 118t125.5 37h103l-22 -125h-63q-52 0 -61 -55l-4 -20h203l8 45q14 81 58.5 118t125.5 37h103l-22 -125h-63q-52 0 -61 -55l-4 -20h203z" />
    <glyph glyph-name=".notdef" horiz-adv-x="460" 
d="M377 700v-920h-291v920h291zM306 638h-151v-30h59v-34h-60v-30h152v30h-60v34h60v30zM246 520h-92v-96h152v31h-60v65zM214 488v-33h-30v33h30zM306 399h-152v-30h60v-34h-60v-31h92v65h60v30zM306 344h-30v-61h-122v-31h152v92zM306 232h-92v-52h32v21h30v-43h-92v74
h-30v-104h152v104zM306 73h-152v-104h152v104zM276 42v-43h-92v43h92zM306 -53h-152v-30h64l-64 -43v-31h152v31h-93l64 43h29v30z" />
    <glyph glyph-name=".null" 
 />
    <glyph glyph-name="nonmarkingreturn" horiz-adv-x="333" 
 />
    <glyph glyph-name="space" unicode=" " horiz-adv-x="270" 
 />
    <glyph glyph-name="exclam" unicode="!" horiz-adv-x="326" 
d="M99 215l47 465h186l-117 -465h-116zM141 160q38 0 61 -28.5t16 -68.5q-6 -33 -33 -55.5t-60 -22.5q-40 0 -63 29t-16 69q5 32 33 54.5t62 22.5z" />
    <glyph glyph-name="quotedbl" unicode="&#x22;" horiz-adv-x="420" 
d="M120 700h145l-81 -297h-89zM315 700h145l-81 -297h-89z" />
    <glyph glyph-name="numbersign" unicode="#" horiz-adv-x="722" 
d="M698 410h-98l-52 -140h80l-22 -124h-103l-53 -146h-138l54 146h-122l-53 -146h-138l54 146h-73l22 124h97l51 140h-77l22 124h101l54 146h136l-53 -146h122l54 146h135l-53 -146h75zM412 270l51 140h-122l-51 -140h122z" />
    <glyph glyph-name="dollar" unicode="$" horiz-adv-x="616" 
d="M392 391q101 -31 139.5 -77.5t25.5 -118.5q-16 -91 -94.5 -146t-193.5 -55h-10l-39 -116l-96 16l39 115q-63 20 -100.5 61t-41.5 93l132 35q9 -45 51 -65l54 163q-93 28 -129 74.5t-22 120.5q15 89 87.5 142t179.5 53h14l39 116l97 -16l-40 -120q53 -20 85 -59.5
t36 -89.5l-125 -35q-6 39 -38 61zM234 484q-7 -43 65 -66l49 147q-45 -4 -76.5 -26t-37.5 -55zM431 203q5 27 -16 42.5t-63 26.5l-52 -155q54 4 89.5 27t41.5 59z" />
    <glyph glyph-name="percent" unicode="%" horiz-adv-x="922" 
d="M709 700l82 -58l-549 -662l-82 58zM292 696q76 0 121.5 -55.5t31.5 -133.5q-13 -72 -72 -121.5t-130 -49.5q-75 0 -121.5 56t-32.5 135q13 70 73 119.5t130 49.5zM291 607q-39 0 -74.5 -29.5t-42.5 -70.5q-6 -35 15 -58.5t56 -23.5q39 0 73.5 30t41.5 72q6 33 -14.5 56.5
t-54.5 23.5zM712 344q76 0 121.5 -55.5t31.5 -133.5q-13 -72 -72 -121.5t-130 -49.5q-75 0 -121.5 56t-32.5 135q13 70 73 119.5t130 49.5zM711 255q-39 0 -74.5 -29.5t-42.5 -70.5q-6 -35 15 -58.5t56 -23.5q39 0 73.5 30t41.5 72q6 33 -14.5 56.5t-54.5 23.5z" />
    <glyph glyph-name="ampersand" unicode="&#x26;" horiz-adv-x="743" 
d="M715 341q-41 -98 -116 -184l78 -90l-111 -90l-72 86q-114 -79 -226 -79q-105 0 -167 64.5t-45 157.5q12 65 57.5 107.5t115.5 74.5q-50 79 -38 144q13 69 79 116.5t150 47.5q89 0 139 -52.5t35 -132.5q-11 -56 -49.5 -95.5t-105.5 -74.5l76 -87q51 64 79 130zM331 522
q-6 -35 25 -82q53 23 78 44t28 44q2 21 -12.5 34t-41.5 13q-30 0 -51 -15.5t-26 -37.5zM281 116q61 0 132 45l-102 123q-54 -24 -83.5 -46t-33.5 -52q-4 -33 21 -51.5t66 -18.5z" />
    <glyph glyph-name="quotesingle" unicode="'" horiz-adv-x="267" 
d="M176 700h153l-189 -297h-95z" />
    <glyph glyph-name="parenleft" unicode="(" horiz-adv-x="440" 
d="M331 -73l-107 -89q-96 92 -138 207t-21 233q20 111 99.5 222t206.5 203l84 -101q-97 -66 -160 -156t-81 -188q-16 -92 14 -179t103 -152z" />
    <glyph glyph-name="parenright" unicode=")" horiz-adv-x="440" 
d="M-9 -67q97 66 160.5 156.5t80.5 188.5q16 93 -14 179.5t-103 150.5l106 89q96 -93 138.5 -207.5t21.5 -231.5q-20 -112 -99.5 -223.5t-205.5 -202.5z" />
    <glyph glyph-name="asterisk" unicode="*" horiz-adv-x="440" 
d="M435 564l-100 -44l86 -44l-54 -72l-75 58l-11 -102h-84l27 102l-93 -58l-30 72l100 44l-86 44l53 72l75 -58l11 102h84l-27 -102l93 58z" />
    <glyph glyph-name="plus" unicode="+" horiz-adv-x="600" 
d="M566 400l-21 -120h-179l-32 -180h-120l32 180h-181l21 120h181l31 180h120l-31 -180h179z" />
    <glyph glyph-name="comma" unicode="," horiz-adv-x="290" 
d="M80 155h152l-188 -297h-95z" />
    <glyph glyph-name="hyphen" unicode="-" horiz-adv-x="450" 
d="M59 215l25 140h320l-25 -140h-320z" />
    <glyph glyph-name="period" unicode="." horiz-adv-x="288" 
d="M125 178q42 0 67 -31.5t18 -74.5q-7 -36 -37.5 -61.5t-66.5 -25.5q-43 0 -69 31.5t-18 75.5q7 36 37.5 61t68.5 25z" />
    <glyph glyph-name="slash" unicode="/" horiz-adv-x="603" 
d="M72 -150l648 980h-172l-648 -980h172z" />
    <glyph glyph-name="zero" unicode="0" horiz-adv-x="663" 
d="M291 -16q-126 0 -187 102t-32 264q27 155 118 250.5t212 95.5q127 0 188.5 -102t32.5 -264q-27 -155 -118.5 -250.5t-213.5 -95.5zM313 127q63 0 107 60t57 163q12 96 -13.5 149.5t-82.5 53.5q-63 0 -107 -60t-57 -163q-12 -96 13.5 -149.5t82.5 -53.5z" />
    <glyph glyph-name="one" unicode="1" horiz-adv-x="453" 
d="M287 685l150 -5l-120 -680h-151l82 469q-72 -52 -191 -52l17 137q105 7 153.5 37t59.5 94z" />
    <glyph glyph-name="two" unicode="2" horiz-adv-x="587" 
d="M558 475q-20 -99 -116 -183l-176 -150h246l-25 -142h-472l18 112l326 295q51 46 53 83q1 28 -20 45.5t-53 17.5q-43 0 -75.5 -32.5t-36.5 -77.5l-138 34q21 94 98 156.5t170 62.5q98 0 158 -67t43 -154z" />
    <glyph glyph-name="three" unicode="3" horiz-adv-x="598" 
d="M581 482q-18 -94 -113 -140q94 -55 74 -161q-17 -88 -97 -143t-182 -55t-165.5 55.5t-71.5 144.5l147 32q1 -43 28.5 -66t71.5 -23q49 0 86 26t40 63q5 69 -117 69h-72l22 122h73q53 0 89 24t39 60q2 28 -19 45.5t-59 17.5q-93 0 -131 -98l-136 49q38 90 114.5 141
t167.5 51q104 0 166 -61t45 -153z" />
    <glyph glyph-name="four" unicode="4" horiz-adv-x="638" 
d="M592 274l-22 -128h-98l-26 -146h-142l26 146h-317l17 108l293 426h159l-280 -406h150l33 187h142l-33 -187h98z" />
    <glyph glyph-name="five" unicode="5" horiz-adv-x="618" 
d="M574 538h-285l-32 -97q44 15 93 15q101 0 162 -68.5t42 -168.5q-19 -99 -105.5 -166t-188.5 -67q-92 0 -154 57t-73 147l137 34q5 -41 35.5 -68.5t73.5 -27.5q48 0 86.5 31.5t42.5 79.5q4 40 -22 66t-71 26q-67 0 -121 -60l-108 63l117 346h396z" />
    <glyph glyph-name="six" unicode="6" horiz-adv-x="628" 
d="M363 458q102 0 161 -71.5t42 -172.5q-17 -95 -100 -162.5t-187 -67.5q-125 0 -181 97.5t-29 255.5q28 160 127 259.5t226 99.5q66 0 119.5 -28t83.5 -77l-113 -79q-35 46 -98 46q-53 0 -100.5 -38.5t-76.5 -101.5q55 40 126 40zM420 238q4 40 -21.5 67.5t-66.5 27.5
q-46 0 -81.5 -34t-40.5 -81q-3 -40 22.5 -66.5t66.5 -26.5q46 0 81.5 33.5t39.5 79.5z" />
    <glyph glyph-name="seven" unicode="7" horiz-adv-x="601" 
d="M144 680h486l-19 -114l-391 -566h-169l372 538h-304z" />
    <glyph glyph-name="eight" unicode="8" horiz-adv-x="615" 
d="M596 478q-18 -85 -100 -131q82 -60 63 -159q-16 -87 -98 -145.5t-191 -58.5q-116 0 -183.5 65.5t-48.5 158.5q18 95 118 148q-68 51 -52 142q15 84 93 141t181 57q111 0 173.5 -65t44.5 -153zM247 468q-1 -29 24 -47t64 -18q47 0 79.5 26t33.5 59q1 31 -24.5 48t-62.5 17
q-47 0 -80 -26t-34 -59zM415 217q1 33 -28 52t-72 19q-54 0 -91.5 -27t-38.5 -64q-1 -34 28.5 -52t72.5 -18q53 0 90.5 26.5t38.5 63.5z" />
    <glyph glyph-name="nine" unicode="9" horiz-adv-x="628" 
d="M380 696q125 0 181.5 -97t29.5 -255q-29 -161 -128 -260t-225 -99q-66 0 -119.5 28t-83.5 76l113 80q33 -46 98 -46q52 0 99.5 38t76.5 101q-56 -39 -127 -39q-101 0 -160 71.5t-41 172.5q17 95 100 162t186 67zM330 348q45 0 80 33t38 81q2 42 -23 68t-65 26
q-46 0 -82.5 -33.5t-38.5 -80.5q-1 -41 25 -67.5t66 -26.5z" />
    <glyph glyph-name="colon" unicode=":" horiz-adv-x="276" 
d="M178 515q42 0 67 -31.5t18 -74.5q-7 -36 -37.5 -61.5t-66.5 -25.5q-44 0 -69 31.5t-17 75.5q6 36 36.5 61t68.5 25zM119 178q42 0 67 -31.5t18 -74.5q-7 -36 -37.5 -61.5t-66.5 -25.5q-43 0 -69 31.5t-18 75.5q7 36 37.5 61t68.5 25z" />
    <glyph glyph-name="semicolon" unicode=";" horiz-adv-x="287" 
d="M178 515q42 0 67 -31.5t18 -74.5q-7 -36 -37.5 -61.5t-66.5 -25.5q-44 0 -69 31.5t-17 75.5q6 36 36.5 61t68.5 25zM80 155h152l-188 -297h-95z" />
    <glyph glyph-name="less" unicode="&#x3c;" horiz-adv-x="600" 
d="M600 595l-22 -131l-312 -124l267 -124l-22 -131l-443 210l15 90z" />
    <glyph glyph-name="equal" unicode="=" horiz-adv-x="600" 
d="M106 510h480l-21 -120h-480zM67 290h480l-21 -120h-480z" />
    <glyph glyph-name="greater" unicode="&#x3e;" horiz-adv-x="600" 
d="M120 595l443 -210l-15 -90l-517 -210l23 131l311 124l-267 124z" />
    <glyph glyph-name="question" unicode="?" horiz-adv-x="595" 
d="M344 215h-160l7 38q10 55 42 89t88 64q72 29 91.5 46.5t23.5 41.5q5 26 -16 42.5t-60 16.5q-47 0 -82 -27.5t-52 -70.5l-136 49q39 90 115 141t168 51q106 0 166.5 -60.5t43.5 -156.5q-19 -111 -156 -183q-44 -17 -60.5 -31t-21.5 -42zM232 -15q-39 0 -62.5 29t-16.5 69
q5 32 33 54.5t62 22.5q39 0 61.5 -28.5t15.5 -68.5q-6 -33 -33 -55.5t-60 -22.5z" />
    <glyph glyph-name="at" unicode="@" horiz-adv-x="914" 
d="M520 655q169 0 270 -122t72 -283q-17 -95 -73.5 -151.5t-126.5 -56.5q-45 0 -80.5 23.5t-49.5 64.5q-18 -37 -53.5 -59.5t-80.5 -22.5q-75 0 -115 59.5t-24 147.5q15 80 71 133.5t125 53.5q70 0 103 -61l8 52h105l-37 -214q-16 -85 41 -85q40 0 69.5 35t40.5 97
q22 129 -56.5 221t-208.5 92q-135 0 -250 -100t-140 -239q-23 -132 53.5 -225.5t209.5 -93.5q124 0 236 89l49 -62q-130 -103 -285 -103q-170 0 -269.5 122t-69.5 293q28 163 165 279t301 116zM424 152q36 -1 69.5 28t41.5 76q6 38 -12 60t-49 22q-37 0 -69 -29.5t-40 -74.5
q-6 -38 12 -60t47 -22z" />
    <glyph glyph-name="A" unicode="A" horiz-adv-x="765" 
d="M538 0l-33 139h-283l-81 -139h-162l403 680h147l167 -680h-158zM296 266h179l-51 219z" />
    <glyph glyph-name="B" unicode="B" horiz-adv-x="665" 
d="M651 473q-17 -89 -97 -134q75 -50 57 -151q-15 -84 -86 -136t-169 -52h-316l120 680h297q98 0 154 -58.5t40 -148.5zM436 539h-154l-24 -135h158q41 0 64.5 23.5t24.5 54.5q1 25 -17 41t-52 16zM470 219q1 25 -17 41t-53 16h-164l-24 -136h167q41 0 65.5 24t25.5 55z" />
    <glyph glyph-name="C" unicode="C" horiz-adv-x="760" 
d="M627 440q-16 52 -62.5 80.5t-105.5 28.5q-97 0 -169 -72.5t-72 -173.5q0 -75 49 -123.5t126 -48.5q119 0 197 119l118 -85q-60 -84 -151 -132.5t-187 -48.5q-133 0 -219 85.5t-86 215.5q0 107 58 202t154 152t204 57q100 0 176.5 -51.5t107.5 -137.5z" />
    <glyph glyph-name="D" unicode="D" horiz-adv-x="751" 
d="M407 680q138 0 224.5 -80.5t86.5 -206.5q0 -164 -125 -278.5t-298 -114.5h-255l120 680h247zM322 142q105 0 175.5 68.5t70.5 166.5q0 74 -51 117.5t-139 43.5h-95l-70 -396h109z" />
    <glyph glyph-name="E" unicode="E" horiz-adv-x="605" 
d="M603 538h-321l-23 -131h218l-24 -134h-218l-23 -131h321l-25 -142h-468l120 680h468z" />
    <glyph glyph-name="F" unicode="F" horiz-adv-x="591" 
d="M603 539h-321l-25 -143h218l-24 -133h-218l-46 -263h-147l120 680h468z" />
    <glyph glyph-name="G" unicode="G" horiz-adv-x="808" 
d="M408 375h363l-10 -56q-27 -150 -133.5 -242.5t-246.5 -92.5q-134 0 -220.5 85t-86.5 214q0 107 58 203t154 153t204 57q96 0 170 -46.5t108 -126.5l-134 -67q-19 47 -62.5 71.5t-98.5 24.5q-102 0 -175 -76t-73 -180q0 -75 46.5 -121.5t128.5 -46.5q71 0 121 34.5
t68 84.5h-204z" />
    <glyph glyph-name="H" unicode="H" horiz-adv-x="752" 
d="M596 680h148l-120 -680h-148l47 269h-288l-47 -269h-148l120 680h148l-47 -269h288z" />
    <glyph glyph-name="I" unicode="I" horiz-adv-x="332" 
d="M167 680h150l-120 -680h-150z" />
    <glyph glyph-name="J" unicode="J" horiz-adv-x="593" 
d="M447 680h149l-77 -437q-21 -116 -106 -187.5t-199 -71.5q-140 0 -225 118l118 92q49 -67 121 -67q57 0 95 34.5t49 93.5z" />
    <glyph glyph-name="K" unicode="K" horiz-adv-x="698" 
d="M764 680l-343 -296l223 -384h-175l-168 280l-75 -64l-38 -216h-148l120 680h148l-48 -273l311 273h193z" />
    <glyph glyph-name="L" unicode="L" horiz-adv-x="584" 
d="M215 142h318l-25 -142h-468l120 680h150z" />
    <glyph glyph-name="M" unicode="M" horiz-adv-x="951" 
d="M943 680l-120 -680h-147l78 445l-250 -445h-147l-91 451l-79 -451h-147l120 680h208l97 -478l267 478h211z" />
    <glyph glyph-name="N" unicode="N" horiz-adv-x="760" 
d="M605 680h147l-120 -680h-121l-250 424l-74 -424h-147l120 680h119l251 -425z" />
    <glyph glyph-name="O" unicode="O" horiz-adv-x="817" 
d="M370 -16q-134 0 -219.5 85.5t-85.5 215.5q0 107 58 202.5t154 152t204 56.5q133 0 218 -85.5t85 -215.5q0 -107 -57.5 -202t-153.5 -152t-203 -57zM393 131q95 0 166.5 72.5t71.5 173.5q0 75 -48.5 123.5t-123.5 48.5q-97 0 -169 -72.5t-72 -173.5q0 -75 49 -123.5
t126 -48.5z" />
    <glyph glyph-name="P" unicode="P" horiz-adv-x="648" 
d="M456 680q89 0 145 -53t56 -135q0 -103 -80.5 -175t-189.5 -72h-156l-43 -245h-148l120 680h296zM406 386q43 0 73 27t30 64q0 29 -21 45.5t-56 16.5h-149l-27 -153h150z" />
    <glyph glyph-name="Q" unicode="Q" horiz-adv-x="822" 
d="M784 395q0 -144 -101 -261l62 -75l-105 -92l-64 76q-99 -59 -206 -59q-134 0 -219.5 85.5t-85.5 215.5q0 107 58 202.5t154 152t204 56.5q133 0 218 -85.5t85 -215.5zM382 131q51 0 101 24l-100 120l105 93l100 -120q45 66 45 140q0 71 -45.5 116t-117.5 45
q-101 0 -177.5 -77.5t-76.5 -179.5q0 -71 46 -116t120 -45z" />
    <glyph glyph-name="R" unicode="R" horiz-adv-x="679" 
d="M656 497q0 -76 -45.5 -137t-119.5 -89l109 -271h-167l-102 252h-100l-44 -252h-147l120 680h294q89 0 145.5 -51.5t56.5 -131.5zM283 539l-27 -153h150q43 0 73 27t30 64q0 29 -21 45.5t-56 16.5h-149z" />
    <glyph glyph-name="S" unicode="S" horiz-adv-x="638" 
d="M278 -16q-113 0 -183.5 53t-72.5 132l150 42q4 -37 35 -60.5t91 -23.5q55 0 94.5 21t39.5 55q0 10 -3 17.5t-11 14t-14.5 10.5t-21 9t-22 7.5t-27 7.5t-27.5 7q-100 23 -151 64.5t-51 110.5q0 109 81 177t201 68q104 0 171 -52.5t70 -132.5l-144 -42q-4 40 -33.5 63
t-79.5 23q-47 0 -81 -20t-34 -51q0 -11 5 -20t11.5 -14.5t20 -11.5t21 -9t25.5 -8.5t24 -7.5q114 -28 167 -70.5t53 -109.5q0 -112 -88 -180.5t-216 -68.5z" />
    <glyph glyph-name="T" unicode="T" horiz-adv-x="590" 
d="M632 680l-25 -142h-186l-95 -538h-150l95 538h-186l25 142h522z" />
    <glyph glyph-name="U" unicode="U" horiz-adv-x="734" 
d="M587 680h150l-68 -385q-25 -141 -118.5 -226t-223.5 -85q-133 0 -201.5 89.5t-42.5 231.5l66 375h150l-68 -383q-13 -79 15.5 -124t91.5 -45q68 0 118.5 49.5t64.5 129.5z" />
    <glyph glyph-name="V" unicode="V" horiz-adv-x="734" 
d="M626 680h161l-386 -680h-157l-143 680h157l97 -484z" />
    <glyph glyph-name="W" unicode="W" horiz-adv-x="1088" 
d="M977 680h158l-321 -680h-174l-57 463l-221 -463h-174l-81 680h155l48 -476l228 476h162l60 -477z" />
    <glyph glyph-name="X" unicode="X" horiz-adv-x="725" 
d="M771 680l-290 -342l168 -338h-177l-111 232l-194 -232h-181l290 342l-165 338h176l109 -232l193 232h182z" />
    <glyph glyph-name="Y" unicode="Y" horiz-adv-x="712" 
d="M777 680l-342 -405l-49 -275h-148l49 277l-198 403h172l123 -261l215 261h178z" />
    <glyph glyph-name="Z" unicode="Z" horiz-adv-x="678" 
d="M673 680l-18 -111l-399 -427h341l-25 -142h-553l18 111l399 427h-322l25 142h534z" />
    <glyph glyph-name="bracketleft" unicode="[" horiz-adv-x="455" 
d="M280 564l-108 -615h170l-22 -127h-315l154 878h315l-24 -136h-170z" />
    <glyph glyph-name="backslash" unicode="\" horiz-adv-x="603" 
d="M407 -150h138l-302 980h-138z" />
    <glyph glyph-name="bracketright" unicode="]" horiz-adv-x="455" 
d="M285 564h-170l24 136h315l-154 -878h-315l22 127h170z" />
    <glyph glyph-name="asciicircum" unicode="^" horiz-adv-x="600" 
d="M585 337h-128l-88 207l-160 -207h-134l270 343h90z" />
    <glyph glyph-name="underscore" unicode="_" horiz-adv-x="676" 
d="M-81 -200l19 110h680l-19 -110h-680z" />
    <glyph glyph-name="a" unicode="a" horiz-adv-x="554" 
d="M311 515q95 0 149.5 -62.5t38.5 -156.5l-52 -296h-140l8 47q-76 -61 -162 -62q-59 -1 -98.5 35t-39.5 95q0 78 53 125t145 64l149 27q-1 29 -19 44.5t-47 15.5q-70 0 -132 -70l-92 84q45 51 110.5 80.5t128.5 29.5zM204 102q46 0 88.5 34.5t52.5 76.5l2 11l-124 -25
q-29 -6 -47.5 -23t-18.5 -39q0 -16 12.5 -25.5t34.5 -9.5z" />
    <glyph glyph-name="b" unicode="b" horiz-adv-x="629" 
d="M395 515q86 0 139.5 -61.5t53.5 -157.5q0 -123 -79.5 -217t-189.5 -94q-97 0 -140 73l-10 -58h-145l123 700h145l-43 -245q62 60 146 60zM303 125q53 0 94.5 44t41.5 109q0 44 -25.5 70.5t-65.5 26.5q-46 0 -84 -33t-50 -88l-3 -13q0 -3 -0.5 -10t-0.5 -10q0 -44 27 -70
t66 -26z" />
    <glyph glyph-name="c" unicode="c" horiz-adv-x="573" 
d="M396 204l129 -60q-42 -73 -114 -116t-152 -43q-101 0 -165 64.5t-64 161.5q0 123 93 213.5t214 90.5q83 0 142.5 -46.5t77.5 -120.5l-145 -41q-9 32 -33 49.5t-58 17.5q-58 0 -100.5 -44t-42.5 -106q0 -43 26.5 -70.5t70.5 -27.5q38 0 71 22t50 56z" />
    <glyph glyph-name="d" unicode="d" horiz-adv-x="619" 
d="M485 700h145l-123 -700h-145l8 47q-60 -62 -148 -62q-86 0 -139 59.5t-53 153.5q0 124 80.5 220.5t191.5 96.5q92 0 138 -70zM270 125q47 0 86.5 35.5t49.5 90.5l2 11q1 7 1 19q0 45 -26.5 69.5t-65.5 24.5q-54 0 -95.5 -44.5t-41.5 -110.5q0 -43 25.5 -69t64.5 -26z" />
    <glyph glyph-name="e" unicode="e" horiz-adv-x="576" 
d="M535 307q0 -55 -18 -107h-340q8 -87 93 -87q40 0 74.5 20.5t54.5 51.5l98 -71q-42 -60 -109.5 -94.5t-137.5 -34.5q-96 0 -153.5 60.5t-57.5 157.5q0 127 85 219.5t207 92.5q92 0 148 -56t56 -152zM311 387q-80 0 -117 -86h201v8q0 36 -23.5 57t-60.5 21z" />
    <glyph glyph-name="f" unicode="f" horiz-adv-x="395" 
d="M375 575q-52 0 -61 -55l-4 -20h115l-23 -130h-115l-65 -370h-145l65 370h-90l23 130h90l8 45q14 81 58.5 118t125.5 37h103l-22 -125h-63z" />
    <glyph glyph-name="g" unicode="g" horiz-adv-x="629" 
d="M460 500h145l-82 -467q-20 -111 -106.5 -179.5t-194.5 -68.5q-139 0 -216 112l108 79q44 -63 115 -63q57 0 99 36t52 96l2 9q-62 -59 -149 -59q-85 0 -138.5 58t-53.5 153q0 121 79 215t190 94q97 0 140 -73zM284 135q47 0 86 33.5t48 91.5q2 16 2 23q0 44 -27.5 68
t-66.5 24q-57 0 -96 -43.5t-39 -103.5q0 -43 26 -68t67 -25z" />
    <glyph glyph-name="h" unicode="h" horiz-adv-x="612" 
d="M399 516q86 0 129 -67.5t26 -162.5l-50 -286h-145l47 266q9 50 -9.5 80t-58.5 30q-44 0 -80.5 -35t-44.5 -85l-45 -256h-144l123 700h144l-44 -249q67 65 152 65z" />
    <glyph glyph-name="i" unicode="i" horiz-adv-x="318" 
d="M221 555q-36 0 -58.5 21.5t-22.5 55.5q0 38 28 63t68 25q34 0 56.5 -21.5t22.5 -54.5q0 -38 -28.5 -63.5t-65.5 -25.5zM128 500h150l-88 -500h-150z" />
    <glyph glyph-name="j" unicode="j" horiz-adv-x="338" 
d="M241 555q-36 0 -58.5 21.5t-22.5 55.5q0 38 28 63t68 25q34 0 56.5 -21.5t22.5 -54.5q0 -38 -28.5 -63.5t-65.5 -25.5zM60 0l88 500h150l-94 -535q-16 -88 -61.5 -126.5t-134.5 -38.5h-98l23 135h57q58 0 70 65z" />
    <glyph glyph-name="k" unicode="k" horiz-adv-x="582" 
d="M617 500l-230 -197l145 -303h-169l-99 198l-71 -61l-24 -137h-145l123 700h145l-67 -379l204 179h188z" />
    <glyph glyph-name="l" unicode="l" horiz-adv-x="300" 
d="M154 700h150l-123 -700h-150z" />
    <glyph glyph-name="m" unicode="m" horiz-adv-x="905" 
d="M696 516q86 0 127 -67t24 -163l-50 -286h-145l49 276q8 49 -8.5 74.5t-51.5 25.5q-39 0 -70 -29t-40 -75l-48 -272h-145l49 276q8 49 -9 74.5t-52 25.5q-37 0 -68 -28t-41 -74l-48 -274h-145l88 500h145l-10 -58q63 74 145 74q91 0 129 -88q30 39 76.5 63.5t98.5 24.5z
" />
    <glyph glyph-name="n" unicode="n" horiz-adv-x="612" 
d="M399 516q86 0 129 -67.5t26 -162.5l-50 -286h-145l47 266q9 50 -10 80t-59 30q-43 0 -78 -33.5t-45 -82.5l-46 -260h-144l88 500h144l-9 -49q67 65 152 65z" />
    <glyph glyph-name="o" unicode="o" horiz-adv-x="614" 
d="M269 -15q-101 0 -165 64.5t-64 161.5q0 123 93 213.5t214 90.5q100 0 163.5 -64t63.5 -162q0 -122 -92.5 -213t-212.5 -91zM285 126q56 0 98.5 44.5t42.5 105.5q0 44 -26 71t-69 27q-58 0 -100.5 -44t-42.5 -106q0 -43 26.5 -70.5t70.5 -27.5z" />
    <glyph glyph-name="p" unicode="p" horiz-adv-x="649" 
d="M397 515q86 0 139 -59.5t53 -153.5q0 -124 -80.5 -220.5t-191.5 -96.5q-93 0 -138 70l-45 -255h-145l123 700h145l-12 -51q61 66 152 66zM302 125q54 0 95.5 44.5t41.5 110.5q0 43 -25.5 69t-64.5 26q-47 0 -86.5 -35.5t-49.5 -90.5l-2 -11q-1 -7 -1 -19
q0 -45 26.5 -69.5t65.5 -24.5z" />
    <glyph glyph-name="q" unicode="q" horiz-adv-x="629" 
d="M460 500h145l-123 -700h-145l43 245q-62 -60 -146 -60q-86 0 -139.5 61.5t-53.5 157.5q0 123 79.5 217t189.5 94q97 0 140 -73zM281 125q46 0 84 32.5t50 86.5l3 15q0 3 0.5 10t0.5 10q0 44 -27 70t-66 26q-53 0 -94.5 -44t-41.5 -109q0 -44 25.5 -70.5t65.5 -26.5z" />
    <glyph glyph-name="r" unicode="r" horiz-adv-x="387" 
d="M247 449q65 62 155 62l-17 -140q-71 0 -116 -30.5t-55 -81.5l-46 -259h-144l88 500h144z" />
    <glyph glyph-name="s" unicode="s" horiz-adv-x="493" 
d="M436 167q0 -82 -71.5 -132t-163.5 -50q-84 0 -136.5 43t-57.5 111l122 26q2 -29 25 -44.5t59 -15.5q34 0 59.5 13t25.5 30q0 24 -79 43q-33 8 -54 16t-48 23.5t-41 41.5t-14 61q0 78 65.5 130t155.5 52q80 0 129 -43t53 -111l-118 -27q-3 27 -21.5 44t-50.5 17
q-29 0 -51.5 -13t-22.5 -31q0 -14 14.5 -21t49.5 -16q82 -20 114 -41q57 -37 57 -106z" />
    <glyph glyph-name="t" unicode="t" horiz-adv-x="423" 
d="M285 370l-32 -180q-2 -16 -2 -22q0 -18 10 -25.5t34 -7.5h64l-24 -135h-86q-148 0 -148 124q0 21 5 51l34 195h-90l23 130h90l21 120l153 45l-29 -165h115l-23 -130h-115z" />
    <glyph glyph-name="u" unicode="u" horiz-adv-x="612" 
d="M444 500h144l-88 -500h-144l9 49q-67 -65 -152 -65q-86 0 -129 67.5t-26 162.5l50 286h145l-47 -266q-9 -50 10 -80t59 -30q42 0 77.5 33t45.5 81z" />
    <glyph glyph-name="v" unicode="v" horiz-adv-x="554" 
d="M428 500h151l-268 -500h-154l-92 500h147l53 -315z" />
    <glyph glyph-name="w" unicode="w" horiz-adv-x="878" 
d="M753 500h146l-238 -500h-166l-41 330l-157 -330h-166l-62 500h142l33 -328l157 328h162l42 -328z" />
    <glyph glyph-name="x" unicode="x" horiz-adv-x="578" 
d="M600 500l-215 -251l125 -249h-168l-70 148l-122 -148h-172l215 251l-125 249h168l70 -148l122 148h172z" />
    <glyph glyph-name="y" unicode="y" horiz-adv-x="600" 
d="M470 500h153l-412 -700h-157l138 232l-127 468h155l78 -289z" />
    <glyph glyph-name="z" unicode="z" horiz-adv-x="494" 
d="M468 389l-23 -23l-217 -227h199l-24 -139h-397l18 111l23 23l217 227h-194l24 139h392z" />
    <glyph glyph-name="braceleft" unicode="{" horiz-adv-x="491" 
d="M440 700h80l-23 -131h-62q-66 0 -80 -78l-12 -72q-22 -124 -129 -160q94 -43 71 -165l-12 -72q-7 -39 2.5 -53.5t43.5 -14.5h70l-23 -132h-74q-95 0 -139 55t-27 151l13 73q8 47 -5.5 68.5t-53.5 21.5h-40l10 55h-1l15 85h34q40 0 65.5 27t33.5 74l13 73q17 96 76 145.5
t154 49.5z" />
    <glyph glyph-name="bar" unicode="|" horiz-adv-x="240" 
d="M113 -131h-120l146 831h120z" />
    <glyph glyph-name="braceright" unicode="}" horiz-adv-x="491" 
d="M455 331l-10 -54h1l-15 -86h-34q-40 0 -65.5 -26.5t-33.5 -73.5l-13 -73q-16 -96 -75.5 -146t-154.5 -50h-80l23 132h62q65 0 80 78l12 72q22 123 129 160q-94 43 -71 165l12 72q7 39 -3 53.5t-43 14.5h-70l23 131h74q95 0 139 -54.5t27 -150.5l-13 -73q-8 -47 5.5 -69
t53.5 -22h40z" />
    <glyph glyph-name="asciitilde" unicode="~" horiz-adv-x="645" 
d="M553 348l49 -48q-67 -104 -154 -104q-33 0 -59 9.5t-71 33.5q-60 34 -98 34q-34 0 -59 -19t-54 -56l-49 48q27 46 72 75t95 29q11 0 21 -1t21 -4t17 -4.5t17.5 -7t14.5 -7t16 -8.5l13 -7q3 -1 7 -4q24 -14 35 -19.5t26.5 -10t32.5 -4.5q55 0 107 75z" />
    <glyph glyph-name="exclamdown" unicode="&#xa1;" horiz-adv-x="326" 
d="M203 515q38 0 61 -29t16 -69q-5 -32 -32.5 -54.5t-60.5 -22.5q-40 0 -63 28.5t-16 68.5q6 33 33.5 55.5t61.5 22.5zM111 285h116l-47 -465h-186z" />
    <glyph glyph-name="cent" unicode="&#xa2;" horiz-adv-x="574" 
d="M311 214q63 14 99 75l131 -60q-42 -73 -114 -116t-152 -43h-16l-43 -119l-82 15l44 123q-72 30 -108 99.5t-20 156.5q19 107 107 181t196 74h9l44 122l83 -15l-45 -124q49 -20 83 -59.5t46 -90.5l-142 -41q-9 36 -36 54zM194 325q-11 -66 34 -98l82 228
q-44 -11 -75.5 -46.5t-40.5 -83.5z" />
    <glyph glyph-name="sterling" unicode="&#xa3;" horiz-adv-x="629" 
d="M378 135q24 0 47.5 20t35.5 50l119 -69q-33 -64 -91.5 -100t-126.5 -36h-356l24 135h29q74 0 88 83l10 57h-103l23 130h103l13 70q17 97 85.5 159t155.5 62q71 0 120 -40.5t59 -105.5l-134 -47q1 28 -14 43t-38 15q-34 0 -59.5 -27.5t-32.5 -68.5l-11 -60h173l-23 -130
h-173l-10 -57q-9 -51 -37 -83h124z" />
    <glyph glyph-name="currency" unicode="&#xa4;" horiz-adv-x="572" 
d="M483 316q-10 -54 -48 -98l59 -70l-55 -49l-61 71q-49 -30 -103 -30q-58 0 -103 35l-87 -76l-43 49l89 78q-25 49 -15 110q9 53 47 96l-59 70l56 49l61 -71q51 30 105 30q57 0 101 -34l87 75l42 -49l-88 -77q25 -49 15 -109zM273 212q48 0 90 36.5t51 87.5q7 43 -18.5 73
t-67.5 30q-50 0 -92.5 -36t-51.5 -87q-8 -44 18.5 -74t70.5 -30z" />
    <glyph glyph-name="yen" unicode="&#xa5;" horiz-adv-x="749" 
d="M756 680l-246 -292h99l-19 -110h-136l-9 -50h136l-19 -110h-136l-21 -118h-148l21 118h-136l19 110h136l9 50h-136l19 110h102l-144 292h172l95 -201l164 201h178z" />
    <glyph glyph-name="brokenbar" unicode="&#xa6;" horiz-adv-x="407" 
d="M192 724h101v-375h-101v375zM192 187h101v-374h-101v374z" />
    <glyph glyph-name="section" unicode="&#xa7;" horiz-adv-x="531" 
d="M314 494q22 -4 42 -9t52.5 -18.5t53.5 -31t34.5 -48.5t6.5 -68q-8 -46 -41 -76t-77 -45q55 -45 41 -122q-12 -71 -74 -112.5t-142 -41.5q-79 0 -129 43t-55 111l118 27q3 -27 22.5 -44t51.5 -17q27 0 48.5 12.5t24.5 31.5q2 11 -13.5 19.5t-52.5 18.5q-18 3 -34 7
t-42.5 12.5t-46.5 22t-38.5 31.5t-26 44.5t-1.5 57.5q8 46 41 76t76 45q-54 46 -40 121q13 72 74.5 113.5t140.5 41.5q80 0 130 -43t55 -111l-118 -27q-3 27 -22.5 44t-51.5 17q-27 0 -48.5 -12.5t-24.5 -31.5q-2 -11 13.5 -19.5t52.5 -18.5zM257 262q44 0 76.5 15.5
t36.5 41.5q4 18 -20.5 27.5t-64.5 9.5q-46 0 -78 -15.5t-36 -41.5q-4 -18 20 -27.5t66 -9.5z" />
    <glyph glyph-name="copyright" unicode="&#xa9;" horiz-adv-x="853" 
d="M385 -34q-159 0 -250.5 112t-63.5 272q26 152 152 258t280 106q157 0 248 -112.5t63 -271.5q-27 -152 -152 -258t-277 -106zM400 46q125 0 222.5 89t113.5 216q15 119 -57 201.5t-191 82.5q-127 0 -225 -88t-114 -216q-15 -121 57.5 -203t193.5 -82zM519 285l64 -50
q-67 -80 -164 -80q-80 0 -123 56.5t-29 138.5q13 74 70.5 124.5t131.5 50.5q49 0 88 -24t59 -64l-71 -34q-21 42 -71 42q-44 0 -80 -33.5t-44 -81.5q-7 -41 13.5 -68t58.5 -27q56 0 97 50z" />
    <glyph glyph-name="guillemotleft" unicode="&#xab;" horiz-adv-x="723" 
d="M426 465l-200 -186l132 -184h-158l-135 185l198 185h163zM687 465l-200 -186l132 -184h-158l-135 185l198 185h163z" />
    <glyph glyph-name="logicalnot" unicode="&#xac;" horiz-adv-x="657" 
d="M603 103h-82v235h-438v78h520v-313z" />
    <glyph glyph-name="registered" unicode="&#xae;" horiz-adv-x="540" 
d="M346 716q88 0 141 -65t37 -154q-15 -83 -85 -142t-153 -59q-89 0 -142 65t-37 156q14 82 84.5 140.5t154.5 58.5zM477 517q8 61 -32 105t-102 44q-68 0 -124.5 -50.5t-64.5 -118.5q-7 -62 32.5 -106.5t102.5 -44.5q68 0 123.5 50.5t64.5 120.5zM348 602q29 0 46 -20.5
t12 -49.5q-7 -36 -45 -47l30 -75h-44l-30 71h-38l-13 -71h-41l34 192h89zM368 544q1 7 -4 12.5t-15 5.5h-56l-2 -9l-6 -34h49q12 0 22 6.5t12 18.5z" />
    <glyph glyph-name="degree" unicode="&#xb0;" horiz-adv-x="480" 
d="M276 702h1q67 0 111 -44.5t44 -112.5q0 -72 -45 -114t-111 -42t-111 42t-45 114q0 69 45.5 113t110.5 44zM276 649h-1q-39 0 -63 -28.5t-24 -75.5q0 -45 25 -74.5t64 -29.5q40 0 63.5 28t23.5 74t-22.5 76t-65.5 30z" />
    <glyph glyph-name="plusminus" unicode="&#xb1;" horiz-adv-x="600" 
d="M400 478h140l-21 -120h-140l-15 -88h-120l15 88h-140l21 120h140l18 102h120zM74 100l21 120h400l-21 -120h-400z" />
    <glyph glyph-name="paragraph" unicode="&#xb6;" horiz-adv-x="702" 
d="M444 -50h-91v324h-17q-86 0 -150.5 52.5t-64.5 151.5q0 109 82.5 172.5t262.5 63.5q106 0 153 -11v-753h-91v680h-84v-680z" />
    <glyph glyph-name="periodcentered" unicode="&#xb7;" horiz-adv-x="306" 
d="M150 184q-43 0 -69 31.5t-18 75.5q7 36 37.5 61t68.5 25q42 0 67 -31.5t18 -74.5q-7 -36 -37.5 -61.5t-66.5 -25.5z" />
    <glyph glyph-name="guillemotright" unicode="&#xbb;" horiz-adv-x="723" 
d="M273 465l134 -185l-197 -185h-164l201 186l-133 184h159zM534 465l134 -185l-197 -185h-164l201 186l-133 184h159z" />
    <glyph glyph-name="onequarter" unicode="&#xbc;" horiz-adv-x="982" 
d="M738 700l64 -45l-559 -675l-64 45zM270 240h-107l52 296q-48 -28 -121 -27l10 99q70 4 101.5 24t37.5 62l106 -5zM926 187l-17 -93h-63l-17 -94h-101l17 94h-205l12 76l191 279h115l-180 -262h83l21 120h101l-21 -120h64z" />
    <glyph glyph-name="onehalf" unicode="&#xbd;" horiz-adv-x="1004" 
d="M738 700l64 -45l-559 -675l-64 45zM270 240h-107l52 296q-48 -28 -121 -27l10 99q70 4 101.5 24t37.5 62l106 -5zM960 308q-12 -64 -75 -119l-103 -87h151l-18 -102h-315l13 79l203 186q40 36 40 59q0 15 -11.5 24t-28.5 9q-28 0 -49 -22.5t-23 -51.5l-96 27
q13 64 63.5 106.5t113.5 42.5q66 0 106 -45t29 -106z" />
    <glyph glyph-name="threequarters" unicode="&#xbe;" horiz-adv-x="1029" 
d="M408 359q-11 -57 -62.5 -93t-119.5 -36q-70 0 -113 38.5t-47 101.5l104 19q-1 -28 15.5 -42.5t45.5 -14.5q30 0 52.5 15t23.5 36q1 20 -17.5 30.5t-53.5 10.5h-53l16 89h51q37 0 57.5 15t21.5 35q1 17 -12.5 26t-33.5 9q-28 0 -50 -18.5t-32 -48.5l-96 38
q25 62 74.5 96.5t111.5 34.5q71 0 112.5 -42.5t30.5 -103.5q-10 -58 -68 -89q56 -40 42 -106zM785 700l64 -45l-559 -675l-64 45zM973 187l-17 -93h-63l-17 -94h-101l17 94h-205l12 76l191 279h115l-180 -262h83l21 120h101l-21 -120h64z" />
    <glyph glyph-name="questiondown" unicode="&#xbf;" horiz-adv-x="595" 
d="M363 515q39 0 62.5 -29t16.5 -69q-5 -32 -33 -54.5t-62 -22.5q-39 0 -61.5 28.5t-15.5 68.5q6 33 33 55.5t60 22.5zM251 285h160l-7 -38q-10 -55 -42 -89t-88 -64q-72 -29 -91.5 -46.5t-23.5 -41.5q-5 -26 16 -42.5t60 -16.5q47 0 82 27.5t52 70.5l136 -49
q-39 -90 -115 -141t-168 -51q-106 0 -166.5 60.5t-43.5 156.5q19 111 156 183q44 17 60.5 31t21.5 42z" />
    <glyph glyph-name="Agrave" unicode="&#xc0;" horiz-adv-x="765" 
d="M538 741h-101l-77 103l139 64zM538 0l-33 139h-283l-81 -139h-162l403 680h147l167 -680h-158zM296 266h179l-51 219z" />
    <glyph glyph-name="Aacute" unicode="&#xc1;" horiz-adv-x="765" 
d="M634 844l-113 -103h-105l95 167zM538 0l-33 139h-283l-81 -139h-162l403 680h147l167 -680h-158zM296 266h179l-51 219z" />
    <glyph glyph-name="Acircumflex" unicode="&#xc2;" horiz-adv-x="765" 
d="M479 789l-117 -75l-48 55l122 111h113l86 -111l-64 -55zM538 0l-33 139h-283l-81 -139h-162l403 680h147l167 -680h-158zM296 266h179l-51 219z" />
    <glyph glyph-name="Atilde" unicode="&#xc3;" horiz-adv-x="765" 
d="M418 786q-39 0 -48 -45l-80 10q4 60 45.5 98.5t96.5 38.5q29 0 48.5 -12.5t34 -25t31.5 -12.5q39 0 49 45l80 -10q-4 -61 -47 -99t-97 -38q-36 0 -63.5 25t-49.5 25zM538 0l-33 139h-283l-81 -139h-162l403 680h147l167 -680h-158zM296 266h179l-51 219z" />
    <glyph glyph-name="Adieresis" unicode="&#xc4;" horiz-adv-x="765" 
d="M363 730q-39 0 -62.5 29t-16.5 69q6 32 33.5 54.5t61.5 22.5q38 0 61.5 -28.5t16.5 -68.5q-6 -33 -33.5 -55.5t-60.5 -22.5zM589 730q-39 0 -62.5 29t-16.5 69q6 32 33.5 54.5t61.5 22.5q38 0 61.5 -28.5t16.5 -68.5q-6 -33 -33.5 -55.5t-60.5 -22.5zM538 0l-33 139h-283
l-81 -139h-162l403 680h147l167 -680h-158zM296 266h179l-51 219z" />
    <glyph glyph-name="Aring" unicode="&#xc5;" horiz-adv-x="765" 
d="M538 0l-33 139h-283l-81 -139h-162l403 680h6q-29 34 -20 81q8 38 39.5 65t71.5 27q44 0 72.5 -32.5t19.5 -79.5q-8 -40 -41 -67l166 -674h-158zM474 794q-20 0 -35 -16.5t-13 -36.5q1 -15 13 -24.5t27 -9.5q21 0 35.5 16.5t11.5 37.5q-2 17 -13.5 25t-25.5 8zM296 266
h179l-51 219z" />
    <glyph glyph-name="AE" unicode="&#xc6;" horiz-adv-x="978" 
d="M976 538h-311l-23 -131h195l-24 -134h-195l-23 -131h311l-25 -142h-459l24 137h-223l-81 -138h-163l402 680h51v1h569zM469 264l48 274h-60l-160 -274h172z" />
    <glyph glyph-name="Ccedilla" unicode="&#xc7;" horiz-adv-x="760" 
d="M393 131q119 0 197 119l118 -85q-52 -72 -127 -118.5t-157 -58.5l-84 -146l-122 64l91 83q-110 20 -177 101t-67 195q0 107 58 202t154 152t204 57q100 0 176.5 -51.5t107.5 -137.5l-138 -67q-16 52 -62.5 80.5t-105.5 28.5q-97 0 -169 -72.5t-72 -173.5q0 -75 49 -123.5
t126 -48.5z" />
    <glyph glyph-name="Egrave" unicode="&#xc8;" horiz-adv-x="605" 
d="M483 741h-101l-77 103l139 64zM603 538h-321l-23 -131h218l-24 -134h-218l-23 -131h321l-25 -142h-468l120 680h468z" />
    <glyph glyph-name="Eacute" unicode="&#xc9;" horiz-adv-x="605" 
d="M579 844l-113 -103h-105l95 167zM603 538h-321l-23 -131h218l-24 -134h-218l-23 -131h321l-25 -142h-468l120 680h468z" />
    <glyph glyph-name="Ecircumflex" unicode="&#xca;" horiz-adv-x="605" 
d="M424 789l-117 -75l-48 55l122 111h113l86 -111l-64 -55zM603 538h-321l-23 -131h218l-24 -134h-218l-23 -131h321l-25 -142h-468l120 680h468z" />
    <glyph glyph-name="Edieresis" unicode="&#xcb;" horiz-adv-x="605" 
d="M308 730q-39 0 -62.5 29t-16.5 69q6 32 33.5 54.5t61.5 22.5q38 0 61.5 -28.5t16.5 -68.5q-6 -33 -33.5 -55.5t-60.5 -22.5zM550 905q38 0 61.5 -28.5t16.5 -68.5q-6 -33 -33.5 -55.5t-60.5 -22.5q-39 0 -62.5 29t-16.5 69q6 32 33.5 54.5t61.5 22.5zM628 680l-25 -142
h-321l-23 -131h218l-24 -134h-218l-23 -131h321l-25 -142h-468l120 680h468z" />
    <glyph glyph-name="Igrave" unicode="&#xcc;" horiz-adv-x="332" 
d="M282 908l39 -167h-101l-77 103zM167 680h150l-120 -680h-150z" />
    <glyph glyph-name="Iacute" unicode="&#xcd;" horiz-adv-x="332" 
d="M294 908l123 -64l-113 -103h-105zM167 680h150l-120 -680h-150z" />
    <glyph glyph-name="Icircumflex" unicode="&#xce;" horiz-adv-x="332" 
d="M332 880l86 -111l-64 -55l-92 75l-117 -75l-48 55l122 111h113zM47 0l120 680h150l-120 -680h-150z" />
    <glyph glyph-name="Idieresis" unicode="&#xcf;" horiz-adv-x="332" 
d="M146 730q-39 0 -62.5 29t-16.5 69q6 32 33.5 54.5t61.5 22.5q38 0 61.5 -28.5t16.5 -68.5q-6 -33 -33.5 -55.5t-60.5 -22.5zM372 730q-39 0 -62.5 29t-16.5 69q6 32 33.5 54.5t61.5 22.5q38 0 61.5 -28.5t16.5 -68.5q-6 -33 -33.5 -55.5t-60.5 -22.5zM167 680h150
l-120 -680h-150z" />
    <glyph glyph-name="Eth" unicode="&#xd0;" horiz-adv-x="751" 
d="M407 680q138 0 224.5 -80.5t86.5 -206.5q0 -164 -125 -278.5t-298 -114.5h-255l49 280h-76l21 120h77l49 280h247zM322 142q105 0 175.5 68.5t70.5 166.5q0 74 -51 117.5t-139 43.5h-95l-24 -138h175l-21 -120h-176l-24 -138h109z" />
    <glyph glyph-name="Ntilde" unicode="&#xd1;" horiz-adv-x="760" 
d="M415 786q-39 0 -48 -45l-80 10q4 60 45.5 98.5t96.5 38.5q29 0 48.5 -12.5t34 -25t31.5 -12.5q39 0 49 45l80 -10q-4 -61 -47 -99t-97 -38q-36 0 -63.5 25t-49.5 25zM605 680h147l-120 -680h-121l-250 424l-74 -424h-147l120 680h119l251 -425z" />
    <glyph glyph-name="Ograve" unicode="&#xd2;" horiz-adv-x="817" 
d="M525 909l39 -167h-101l-77 103zM370 -16q-134 0 -219.5 85.5t-85.5 215.5q0 107 58 202.5t154 152t204 56.5q133 0 218 -85.5t85 -215.5q0 -107 -57.5 -202t-153.5 -152t-203 -57zM393 131q95 0 166.5 72.5t71.5 173.5q0 75 -48.5 123.5t-123.5 48.5q-97 0 -169 -72.5
t-72 -173.5q0 -75 49 -123.5t126 -48.5z" />
    <glyph glyph-name="Oacute" unicode="&#xd3;" horiz-adv-x="817" 
d="M537 909l123 -64l-113 -103h-105zM370 -16q-134 0 -219.5 85.5t-85.5 215.5q0 107 58 202.5t154 152t204 56.5q133 0 218 -85.5t85 -215.5q0 -107 -57.5 -202t-153.5 -152t-203 -57zM393 131q95 0 166.5 72.5t71.5 173.5q0 75 -48.5 123.5t-123.5 48.5q-97 0 -169 -72.5
t-72 -173.5q0 -75 49 -123.5t126 -48.5z" />
    <glyph glyph-name="Ocircumflex" unicode="&#xd4;" horiz-adv-x="817" 
d="M505 790l-117 -75l-48 55l122 111h113l86 -111l-64 -55zM481 696q133 0 218 -85.5t85 -215.5q0 -107 -57.5 -202t-153.5 -152t-203 -57q-134 0 -219.5 85.5t-85.5 215.5q0 107 58 202.5t154 152t204 56.5zM393 131q95 0 166.5 72.5t71.5 173.5q0 75 -48.5 123.5
t-123.5 48.5q-97 0 -169 -72.5t-72 -173.5q0 -75 49 -123.5t126 -48.5z" />
    <glyph glyph-name="Otilde" unicode="&#xd5;" horiz-adv-x="817" 
d="M621 884l80 -10q-4 -61 -47 -99t-97 -38q-36 0 -63.5 25t-49.5 25q-39 0 -48 -45l-80 10q4 60 45.5 98.5t96.5 38.5q29 0 48.5 -12.5t34 -25t31.5 -12.5q39 0 49 45zM370 -16q-134 0 -219.5 85.5t-85.5 215.5q0 107 58 202.5t154 152t204 56.5q133 0 218 -85.5t85 -215.5
q0 -107 -57.5 -202t-153.5 -152t-203 -57zM393 131q95 0 166.5 72.5t71.5 173.5q0 75 -48.5 123.5t-123.5 48.5q-97 0 -169 -72.5t-72 -173.5q0 -75 49 -123.5t126 -48.5z" />
    <glyph glyph-name="Odieresis" unicode="&#xd6;" horiz-adv-x="817" 
d="M389 731q-39 0 -62.5 29t-16.5 69q6 32 33.5 54.5t61.5 22.5q38 0 61.5 -28.5t16.5 -68.5q-6 -33 -33.5 -55.5t-60.5 -22.5zM615 731q-39 0 -62.5 29t-16.5 69q6 32 33.5 54.5t61.5 22.5q38 0 61.5 -28.5t16.5 -68.5q-6 -33 -33.5 -55.5t-60.5 -22.5zM370 -16
q-134 0 -219.5 85.5t-85.5 215.5q0 107 58 202.5t154 152t204 56.5q133 0 218 -85.5t85 -215.5q0 -107 -57.5 -202t-153.5 -152t-203 -57zM393 131q95 0 166.5 72.5t71.5 173.5q0 75 -48.5 123.5t-123.5 48.5q-97 0 -169 -72.5t-72 -173.5q0 -75 49 -123.5t126 -48.5z" />
    <glyph glyph-name="multiply" unicode="&#xd7;" horiz-adv-x="544" 
d="M522 467l-149 -128l104 -126l-97 -85l-106 127l-148 -127l-73 85l150 128l-105 126l98 85l105 -127l149 127z" />
    <glyph glyph-name="Oslash" unicode="&#xd8;" horiz-adv-x="817" 
d="M831 614l-84 -69q37 -68 37 -150q0 -107 -57.5 -202t-153.5 -152t-203 -57q-125 0 -210 77l-96 -79l-66 84l98 81q-31 62 -31 138q0 107 58 202.5t154 152t204 56.5q117 0 199 -68l85 70zM218 303q0 -29 7 -50l328 271q-41 25 -94 25q-97 0 -169 -72.5t-72 -173.5z
M631 377q0 33 -11 63l-335 -276q46 -33 108 -33q95 0 166.5 72.5t71.5 173.5z" />
    <glyph glyph-name="Ugrave" unicode="&#xd9;" horiz-adv-x="734" 
d="M483 908l39 -167h-101l-77 103zM587 680h150l-68 -385q-25 -141 -118.5 -226t-223.5 -85q-133 0 -201.5 89.5t-42.5 231.5l66 375h150l-68 -383q-13 -79 15.5 -124t91.5 -45q68 0 118.5 49.5t64.5 129.5z" />
    <glyph glyph-name="Uacute" unicode="&#xda;" horiz-adv-x="734" 
d="M495 908l123 -64l-113 -103h-105zM587 680h150l-68 -385q-25 -141 -118.5 -226t-223.5 -85q-133 0 -201.5 89.5t-42.5 231.5l66 375h150l-68 -383q-13 -79 15.5 -124t91.5 -45q68 0 118.5 49.5t64.5 129.5z" />
    <glyph glyph-name="Ucircumflex" unicode="&#xdb;" horiz-adv-x="734" 
d="M463 789l-117 -75l-48 55l122 111h113l86 -111l-64 -55zM587 680h150l-68 -385q-25 -141 -118.5 -226t-223.5 -85q-133 0 -201.5 89.5t-42.5 231.5l66 375h150l-68 -383q-13 -79 15.5 -124t91.5 -45q68 0 118.5 49.5t64.5 129.5z" />
    <glyph glyph-name="Udieresis" unicode="&#xdc;" horiz-adv-x="734" 
d="M347 730q-39 0 -62.5 29t-16.5 69q6 32 33.5 54.5t61.5 22.5q38 0 61.5 -28.5t16.5 -68.5q-6 -33 -33.5 -55.5t-60.5 -22.5zM573 730q-39 0 -62.5 29t-16.5 69q6 32 33.5 54.5t61.5 22.5q38 0 61.5 -28.5t16.5 -68.5q-6 -33 -33.5 -55.5t-60.5 -22.5zM587 680h150
l-68 -385q-25 -141 -118.5 -226t-223.5 -85q-133 0 -201.5 89.5t-42.5 231.5l66 375h150l-68 -383q-13 -79 15.5 -124t91.5 -45q68 0 118.5 49.5t64.5 129.5z" />
    <glyph glyph-name="Yacute" unicode="&#xdd;" horiz-adv-x="712" 
d="M612 844l-113 -103h-105l95 167zM777 680l-342 -405l-49 -275h-148l49 277l-198 403h172l123 -261l215 261h178z" />
    <glyph glyph-name="Thorn" unicode="&#xde;" horiz-adv-x="671" 
d="M435 558q100 0 157 -66t40 -161q-15 -88 -91 -148t-176 -60h-155l-22 -123h-148l51 290l47 268l22 122h148l-22 -122h149zM383 266q43 0 73 27t30 64q0 29 -21 45.5t-56 16.5h-147l-27 -153h148z" />
    <glyph glyph-name="germandbls" unicode="&#xdf;" horiz-adv-x="598" 
d="M589 488q-17 -91 -104 -139q84 -57 65 -161q-17 -88 -97 -145.5t-179 -57.5q-31 0 -61 8l20 149q18 -14 54 -14q48 0 83 27t37 61q2 32 -23 52.5t-66 20.5h-56l22 124h57q38 0 69 28t33 60q2 27 -17.5 44.5t-53.5 17.5q-46 0 -78 -32.5t-41 -81.5l-79 -450h-143l81 460
q19 108 96 177t179 69q100 0 159.5 -64.5t42.5 -152.5z" />
    <glyph glyph-name="agrave" unicode="&#xe0;" horiz-adv-x="554" 
d="M395 561h-101l-77 103l139 64zM311 515q95 0 149.5 -62.5t38.5 -156.5l-52 -296h-140l8 47q-76 -61 -162 -62q-59 -1 -98.5 35t-39.5 95q0 78 53 125t145 64l149 27q-1 29 -19 44.5t-47 15.5q-70 0 -132 -70l-92 84q45 51 110.5 80.5t128.5 29.5zM204 102q46 0 88.5 34.5
t52.5 76.5l2 11l-124 -25q-29 -6 -47.5 -23t-18.5 -39q0 -16 12.5 -25.5t34.5 -9.5z" />
    <glyph glyph-name="aacute" unicode="&#xe1;" horiz-adv-x="554" 
d="M491 664l-113 -103h-105l95 167zM311 515q95 0 149.5 -62.5t38.5 -156.5l-52 -296h-140l8 47q-76 -61 -162 -62q-59 -1 -98.5 35t-39.5 95q0 78 53 125t145 64l149 27q-1 29 -19 44.5t-47 15.5q-70 0 -132 -70l-92 84q45 51 110.5 80.5t128.5 29.5zM204 102
q46 0 88.5 34.5t52.5 76.5l2 11l-124 -25q-29 -6 -47.5 -23t-18.5 -39q0 -16 12.5 -25.5t34.5 -9.5z" />
    <glyph glyph-name="acircumflex" unicode="&#xe2;" horiz-adv-x="554" 
d="M336 609l-117 -75l-48 55l122 111h113l86 -111l-64 -55zM311 515q95 0 149.5 -62.5t38.5 -156.5l-52 -296h-140l8 47q-76 -61 -162 -62q-59 -1 -98.5 35t-39.5 95q0 78 53 125t145 64l149 27q-1 29 -19 44.5t-47 15.5q-70 0 -132 -70l-92 84q45 51 110.5 80.5t128.5 29.5
zM204 102q46 0 88.5 34.5t52.5 76.5l2 11l-124 -25q-29 -6 -47.5 -23t-18.5 -39q0 -16 12.5 -25.5t34.5 -9.5z" />
    <glyph glyph-name="atilde" unicode="&#xe3;" horiz-adv-x="554" 
d="M275 606q-39 0 -48 -45l-80 10q4 60 45.5 98.5t96.5 38.5q29 0 48.5 -12.5t34 -25t31.5 -12.5q39 0 49 45l80 -10q-4 -61 -47 -99t-97 -38q-36 0 -63.5 25t-49.5 25zM311 515q95 0 149.5 -62.5t38.5 -156.5l-52 -296h-140l8 47q-76 -61 -162 -62q-59 -1 -98.5 35
t-39.5 95q0 78 53 125t145 64l149 27q-1 29 -19 44.5t-47 15.5q-70 0 -132 -70l-92 84q45 51 110.5 80.5t128.5 29.5zM204 102q46 0 88.5 34.5t52.5 76.5l2 11l-124 -25q-29 -6 -47.5 -23t-18.5 -39q0 -16 12.5 -25.5t34.5 -9.5z" />
    <glyph glyph-name="adieresis" unicode="&#xe4;" horiz-adv-x="554" 
d="M220 550q-39 0 -62.5 29t-16.5 69q6 32 33.5 54.5t61.5 22.5q38 0 61.5 -28.5t16.5 -68.5q-6 -33 -33.5 -55.5t-60.5 -22.5zM462 725q38 0 61.5 -28.5t16.5 -68.5q-6 -33 -33.5 -55.5t-60.5 -22.5q-39 0 -62.5 29t-16.5 69q6 32 33.5 54.5t61.5 22.5zM311 515
q95 0 149.5 -62.5t38.5 -156.5l-52 -296h-140l8 47q-76 -61 -162 -62q-59 -1 -98.5 35t-39.5 95q0 78 53 125t145 64l149 27q-1 29 -19 44.5t-47 15.5q-70 0 -132 -70l-92 84q45 51 110.5 80.5t128.5 29.5zM204 102q46 0 88.5 34.5t52.5 76.5l2 11l-124 -25
q-29 -6 -47.5 -23t-18.5 -39q0 -16 12.5 -25.5t34.5 -9.5z" />
    <glyph glyph-name="aring" unicode="&#xe5;" horiz-adv-x="554" 
d="M331 542q-46 0 -73 34.5t-18 78.5q8 38 39.5 65t71.5 27q44 0 72.5 -32.5t19.5 -79.5q-8 -39 -39.5 -66t-72.5 -27zM346 688q-20 0 -35 -16.5t-13 -36.5q1 -15 13 -24.5t27 -9.5q21 0 35.5 16.5t11.5 37.5q-2 17 -13.5 25t-25.5 8zM311 515q95 0 149.5 -62.5t38.5 -156.5
l-52 -296h-140l8 47q-76 -61 -162 -62q-59 -1 -98.5 35t-39.5 95q0 78 53 125t145 64l149 27q-1 29 -19 44.5t-47 15.5q-70 0 -132 -70l-92 84q45 51 110.5 80.5t128.5 29.5zM204 102q46 0 88.5 34.5t52.5 76.5l2 11l-124 -25q-29 -6 -47.5 -23t-18.5 -39q0 -16 12.5 -25.5
t34.5 -9.5z" />
    <glyph glyph-name="ae" unicode="&#xe6;" horiz-adv-x="889" 
d="M643 515q98 0 153 -61.5t49 -171.5q-2 -40 -17 -82h-342q1 -42 23.5 -64.5t63.5 -22.5t76.5 20.5t57.5 51.5l101 -71q-42 -60 -109.5 -94.5t-138.5 -34.5q-120 0 -178 94q-36 -42 -93.5 -68t-116.5 -26q-78 0 -123 44.5t-31 118.5q24 124 195 156l149 27q-1 29 -19 44.5
t-47 15.5q-70 0 -132 -70l-92 84q45 51 110.5 80.5t128.5 29.5q98 0 152 -65q78 65 180 65zM629 387q-81 0 -121 -86h198q5 39 -16 62.5t-61 23.5zM202 102q46 0 90.5 36t55.5 86l-120 -25q-32 -6 -51 -21.5t-21 -34.5q-2 -18 9.5 -29.5t36.5 -11.5z" />
    <glyph glyph-name="ccedilla" unicode="&#xe7;" horiz-adv-x="573" 
d="M275 126q38 0 71 22t50 56l129 -60q-36 -63 -94.5 -103.5t-127.5 -51.5l-84 -147l-122 64l95 88q-74 20 -118 79t-44 138q0 123 93 213.5t214 90.5q83 0 142.5 -46.5t77.5 -120.5l-145 -41q-9 32 -33 49.5t-58 17.5q-58 0 -100.5 -44t-42.5 -106q0 -43 26.5 -70.5
t70.5 -27.5z" />
    <glyph glyph-name="egrave" unicode="&#xe8;" horiz-adv-x="576" 
d="M415 561h-101l-77 103l139 64zM535 307q0 -55 -18 -107h-340q8 -87 93 -87q40 0 74.5 20.5t54.5 51.5l98 -71q-42 -60 -109.5 -94.5t-137.5 -34.5q-96 0 -153.5 60.5t-57.5 157.5q0 127 85 219.5t207 92.5q92 0 148 -56t56 -152zM311 387q-80 0 -117 -86h201v8
q0 36 -23.5 57t-60.5 21z" />
    <glyph glyph-name="eacute" unicode="&#xe9;" horiz-adv-x="576" 
d="M511 664l-113 -103h-105l95 167zM535 307q0 -55 -18 -107h-340q8 -87 93 -87q40 0 74.5 20.5t54.5 51.5l98 -71q-42 -60 -109.5 -94.5t-137.5 -34.5q-96 0 -153.5 60.5t-57.5 157.5q0 127 85 219.5t207 92.5q92 0 148 -56t56 -152zM311 387q-80 0 -117 -86h201v8
q0 36 -23.5 57t-60.5 21z" />
    <glyph glyph-name="ecircumflex" unicode="&#xea;" horiz-adv-x="576" 
d="M356 609l-117 -75l-48 55l122 111h113l86 -111l-64 -55zM535 307q0 -55 -18 -107h-340q8 -87 93 -87q40 0 74.5 20.5t54.5 51.5l98 -71q-42 -60 -109.5 -94.5t-137.5 -34.5q-96 0 -153.5 60.5t-57.5 157.5q0 127 85 219.5t207 92.5q92 0 148 -56t56 -152zM311 387
q-80 0 -117 -86h201v8q0 36 -23.5 57t-60.5 21z" />
    <glyph glyph-name="edieresis" unicode="&#xeb;" horiz-adv-x="576" 
d="M240 550q-39 0 -62.5 29t-16.5 69q6 32 33.5 54.5t61.5 22.5q38 0 61.5 -28.5t16.5 -68.5q-6 -33 -33.5 -55.5t-60.5 -22.5zM482 725q38 0 61.5 -28.5t16.5 -68.5q-6 -33 -33.5 -55.5t-60.5 -22.5q-39 0 -62.5 29t-16.5 69q6 32 33.5 54.5t61.5 22.5zM331 515
q92 0 148 -56t56 -152q0 -55 -18 -107h-340q8 -87 93 -87q40 0 74.5 20.5t54.5 51.5l98 -71q-42 -60 -109.5 -94.5t-137.5 -34.5q-96 0 -153.5 60.5t-57.5 157.5q0 127 85 219.5t207 92.5zM311 387q-80 0 -117 -86h201v8q0 36 -23.5 57t-60.5 21z" />
    <glyph glyph-name="igrave" unicode="&#xec;" horiz-adv-x="292" 
d="M230 728l39 -167h-101l-77 103zM115 500h150l-88 -500h-150z" />
    <glyph glyph-name="iacute" unicode="&#xed;" horiz-adv-x="292" 
d="M242 728l123 -64l-113 -103h-105zM115 500h150l-88 -500h-150z" />
    <glyph glyph-name="icircumflex" unicode="&#xee;" horiz-adv-x="292" 
d="M280 700l86 -111l-64 -55l-92 75l-117 -75l-48 55l122 111h113zM27 0l88 500h150l-88 -500h-150z" />
    <glyph glyph-name="idieresis" unicode="&#xef;" horiz-adv-x="292" 
d="M94 550q-39 0 -62.5 29t-16.5 69q6 32 33.5 54.5t61.5 22.5q38 0 61.5 -28.5t16.5 -68.5q-6 -33 -33.5 -55.5t-60.5 -22.5zM320 550q-39 0 -62.5 29t-16.5 69q6 32 33.5 54.5t61.5 22.5q38 0 61.5 -28.5t16.5 -68.5q-6 -33 -33.5 -55.5t-60.5 -22.5zM115 500h150
l-88 -500h-150z" />
    <glyph glyph-name="eth" unicode="&#xf0;" horiz-adv-x="552" 
d="M550 584l-99 -34q87 -174 62 -317q-19 -106 -97.5 -176.5t-179.5 -70.5q-103 0 -161.5 70.5t-41.5 171.5q16 90 88.5 151.5t162.5 61.5q38 0 71 -13q-15 41 -34 77l-127 -44l-17 86l100 34q-23 35 -54 73l112 73q39 -49 72 -101l126 43zM370 231q4 40 -21 65t-64 25
q-44 0 -76 -32t-36 -77q-3 -38 20.5 -63t62.5 -26q44 -1 77 30t37 78z" />
    <glyph glyph-name="ntilde" unicode="&#xf1;" horiz-adv-x="612" 
d="M307 606q-39 0 -48 -45l-80 10q4 60 45.5 98.5t96.5 38.5q29 0 48.5 -12.5t34 -25t31.5 -12.5q39 0 49 45l80 -10q-4 -61 -47 -99t-97 -38q-36 0 -63.5 25t-49.5 25zM399 516q86 0 129 -67.5t26 -162.5l-50 -286h-145l47 266q9 50 -10 80t-59 30q-43 0 -78 -33.5
t-45 -82.5l-46 -260h-144l88 500h144l-9 -49q67 65 152 65z" />
    <glyph glyph-name="ograve" unicode="&#xf2;" horiz-adv-x="614" 
d="M394 728l39 -167h-101l-77 103zM269 -15q-101 0 -165 64.5t-64 161.5q0 123 93 213.5t214 90.5q100 0 163.5 -64t63.5 -162q0 -122 -92.5 -213t-212.5 -91zM285 126q56 0 98.5 44.5t42.5 105.5q0 44 -26 71t-69 27q-58 0 -100.5 -44t-42.5 -106q0 -43 26.5 -70.5
t70.5 -27.5z" />
    <glyph glyph-name="oacute" unicode="&#xf3;" horiz-adv-x="614" 
d="M406 728l123 -64l-113 -103h-105zM269 -15q-101 0 -165 64.5t-64 161.5q0 123 93 213.5t214 90.5q100 0 163.5 -64t63.5 -162q0 -122 -92.5 -213t-212.5 -91zM285 126q56 0 98.5 44.5t42.5 105.5q0 44 -26 71t-69 27q-58 0 -100.5 -44t-42.5 -106q0 -43 26.5 -70.5
t70.5 -27.5z" />
    <glyph glyph-name="ocircumflex" unicode="&#xf4;" horiz-adv-x="614" 
d="M374 609l-117 -75l-48 55l122 111h113l86 -111l-64 -55zM347 515q100 0 163.5 -64t63.5 -162q0 -122 -92.5 -213t-212.5 -91q-101 0 -165 64.5t-64 161.5q0 123 93 213.5t214 90.5zM285 126q56 0 98.5 44.5t42.5 105.5q0 44 -26 71t-69 27q-58 0 -100.5 -44t-42.5 -106
q0 -43 26.5 -70.5t70.5 -27.5z" />
    <glyph glyph-name="otilde" unicode="&#xf5;" horiz-adv-x="614" 
d="M490 703l80 -10q-4 -61 -47 -99t-97 -38q-36 0 -63.5 25t-49.5 25q-39 0 -48 -45l-80 10q4 60 45.5 98.5t96.5 38.5q29 0 48.5 -12.5t34 -25t31.5 -12.5q39 0 49 45zM269 -15q-101 0 -165 64.5t-64 161.5q0 123 93 213.5t214 90.5q100 0 163.5 -64t63.5 -162
q0 -122 -92.5 -213t-212.5 -91zM285 126q56 0 98.5 44.5t42.5 105.5q0 44 -26 71t-69 27q-58 0 -100.5 -44t-42.5 -106q0 -43 26.5 -70.5t70.5 -27.5z" />
    <glyph glyph-name="odieresis" unicode="&#xf6;" horiz-adv-x="614" 
d="M258 550q-39 0 -62.5 29t-16.5 69q6 32 33.5 54.5t61.5 22.5q38 0 61.5 -28.5t16.5 -68.5q-6 -33 -33.5 -55.5t-60.5 -22.5zM484 550q-39 0 -62.5 29t-16.5 69q6 32 33.5 54.5t61.5 22.5q38 0 61.5 -28.5t16.5 -68.5q-6 -33 -33.5 -55.5t-60.5 -22.5zM269 -15
q-101 0 -165 64.5t-64 161.5q0 123 93 213.5t214 90.5q100 0 163.5 -64t63.5 -162q0 -122 -92.5 -213t-212.5 -91zM285 126q56 0 98.5 44.5t42.5 105.5q0 44 -26 71t-69 27q-58 0 -100.5 -44t-42.5 -106q0 -43 26.5 -70.5t70.5 -27.5z" />
    <glyph glyph-name="divide" unicode="&#xf7;" horiz-adv-x="600" 
d="M358 612q36 0 58 -27.5t15 -65.5q-5 -30 -31.5 -51.5t-56.5 -21.5q-38 0 -60.5 27.5t-15.5 65.5q5 31 32 52t59 21zM65 280l21 120h480l-21 -120h-480zM291 234q36 0 58.5 -27.5t15.5 -65.5q-5 -30 -31.5 -51.5t-57.5 -21.5q-37 0 -60 27.5t-16 65.5q6 31 32.5 52
t58.5 21z" />
    <glyph glyph-name="oslash" unicode="&#xf8;" horiz-adv-x="614" 
d="M644 476l-95 -78q25 -50 25 -109q0 -122 -92.5 -213t-212.5 -91q-93 0 -154 55l-102 -84l-54 69l103 85q-22 47 -22 101q0 123 93 213.5t214 90.5q86 0 146 -49l96 79zM188 224v-10l184 152q-19 8 -41 8q-58 0 -100.5 -44t-42.5 -106zM426 276q0 13 -1 19l-191 -157
q22 -12 51 -12q56 0 98.5 44.5t42.5 105.5z" />
    <glyph glyph-name="ugrave" unicode="&#xf9;" horiz-adv-x="612" 
d="M427 561h-101l-77 103l139 64zM444 500h144l-88 -500h-144l9 49q-67 -65 -152 -65q-86 0 -129 67.5t-26 162.5l50 286h145l-47 -266q-9 -50 10 -80t59 -30q42 0 77.5 33t45.5 81z" />
    <glyph glyph-name="uacute" unicode="&#xfa;" horiz-adv-x="612" 
d="M523 664l-113 -103h-105l95 167zM444 500h144l-88 -500h-144l9 49q-67 -65 -152 -65q-86 0 -129 67.5t-26 162.5l50 286h145l-47 -266q-9 -50 10 -80t59 -30q42 0 77.5 33t45.5 81z" />
    <glyph glyph-name="ucircumflex" unicode="&#xfb;" horiz-adv-x="612" 
d="M368 609l-117 -75l-48 55l122 111h113l86 -111l-64 -55zM444 500h144l-88 -500h-144l9 49q-67 -65 -152 -65q-86 0 -129 67.5t-26 162.5l50 286h145l-47 -266q-9 -50 10 -80t59 -30q42 0 77.5 33t45.5 81z" />
    <glyph glyph-name="udieresis" unicode="&#xfc;" horiz-adv-x="612" 
d="M252 550q-39 0 -62.5 29t-16.5 69q6 32 33.5 54.5t61.5 22.5q38 0 61.5 -28.5t16.5 -68.5q-6 -33 -33.5 -55.5t-60.5 -22.5zM478 550q-39 0 -62.5 29t-16.5 69q6 32 33.5 54.5t61.5 22.5q38 0 61.5 -28.5t16.5 -68.5q-6 -33 -33.5 -55.5t-60.5 -22.5zM444 500h144
l-88 -500h-144l9 49q-67 -65 -152 -65q-86 0 -129 67.5t-26 162.5l50 286h145l-47 -266q-9 -50 10 -80t59 -30q42 0 77.5 33t45.5 81z" />
    <glyph glyph-name="yacute" unicode="&#xfd;" horiz-adv-x="600" 
d="M519 664l-113 -103h-105l95 167zM470 500h153l-412 -700h-157l138 232l-127 468h155l78 -289z" />
    <glyph glyph-name="thorn" unicode="&#xfe;" horiz-adv-x="649" 
d="M397 515q86 0 139 -59.5t53 -153.5q0 -124 -80.5 -220.5t-191.5 -96.5q-93 0 -138 70l-45 -255h-145l158 900h145l-43 -247q60 62 148 62zM302 125q54 0 95.5 44.5t41.5 110.5q0 43 -25.5 69t-64.5 26q-47 0 -86.5 -35.5t-49.5 -90.5l-2 -11q-1 -7 -1 -19
q0 -45 26.5 -69.5t65.5 -24.5z" />
    <glyph glyph-name="ydieresis" unicode="&#xff;" horiz-adv-x="600" 
d="M248 550q-39 0 -62.5 29t-16.5 69q6 32 33.5 54.5t61.5 22.5q38 0 61.5 -28.5t16.5 -68.5q-6 -33 -33.5 -55.5t-60.5 -22.5zM474 550q-39 0 -62.5 29t-16.5 69q6 32 33.5 54.5t61.5 22.5q38 0 61.5 -28.5t16.5 -68.5q-6 -33 -33.5 -55.5t-60.5 -22.5zM470 500h153
l-412 -700h-157l138 232l-127 468h155l78 -289z" />
    <glyph glyph-name="Amacron" unicode="&#x100;" horiz-adv-x="765" 
d="M664 850l-18 -100h-350l18 100h350zM538 0l-33 139h-283l-81 -139h-162l403 680h147l167 -680h-158zM296 266h179l-51 219z" />
    <glyph glyph-name="amacron" unicode="&#x101;" horiz-adv-x="554" 
d="M171 670h350l-18 -100h-350zM311 515q95 0 149.5 -62.5t38.5 -156.5l-52 -296h-140l8 47q-76 -61 -162 -62q-59 -1 -98.5 35t-39.5 95q0 78 53 125t145 64l149 27q-1 29 -19 44.5t-47 15.5q-70 0 -132 -70l-92 84q45 51 110.5 80.5t128.5 29.5zM204 102q46 0 88.5 34.5
t52.5 76.5l2 11l-124 -25q-29 -6 -47.5 -23t-18.5 -39q0 -16 12.5 -25.5t34.5 -9.5z" />
    <glyph glyph-name="Abreve" unicode="&#x102;" horiz-adv-x="765" 
d="M479 736q-71 0 -111.5 42.5t-29.5 106.5l90 -10q-2 -23 11 -34.5t42 -11.5q35 0 56.5 16t23.5 40l93 -10q-11 -63 -60 -101t-115 -38zM538 0l-33 139h-283l-81 -139h-162l403 680h147l167 -680h-158zM296 266h179l-51 219z" />
    <glyph glyph-name="abreve" unicode="&#x103;" horiz-adv-x="554" 
d="M336 556q-71 0 -111.5 42.5t-29.5 106.5l90 -10q-2 -23 11 -34.5t42 -11.5q35 0 56.5 16t23.5 40l93 -10q-11 -63 -60 -101t-115 -38zM311 515q95 0 149.5 -62.5t38.5 -156.5l-52 -296h-140l8 47q-76 -61 -162 -62q-59 -1 -98.5 35t-39.5 95q0 78 53 125t145 64l149 27
q-1 29 -19 44.5t-47 15.5q-70 0 -132 -70l-92 84q45 51 110.5 80.5t128.5 29.5zM204 102q46 0 88.5 34.5t52.5 76.5l2 11l-124 -25q-29 -6 -47.5 -23t-18.5 -39q0 -16 12.5 -25.5t34.5 -9.5z" />
    <glyph glyph-name="Aogonek" unicode="&#x104;" horiz-adv-x="765" 
d="M614 -93q0 -36 58 1l10 6l-12 -100q-70 -32 -118 3.5t-36 100.5q9 45 53 82h-31l-33 139h-283l-81 -139h-162l403 680h147l167 -680q-82 -57 -82 -93zM296 266h179l-51 219z" />
    <glyph glyph-name="aogonek" unicode="&#x105;" horiz-adv-x="554" 
d="M311 515q95 0 149.5 -62.5t38.5 -156.5l-52 -296h-1q-82 -57 -82 -93t58 1l10 6l-12 -100q-70 -32 -118 3.5t-36 100.5q9 45 53 82h-12l8 47q-76 -61 -162 -62q-59 -1 -98.5 35t-39.5 95q0 78 53 125t145 64l149 27q-1 29 -19 44.5t-47 15.5q-70 0 -132 -70l-92 84
q45 51 110.5 80.5t128.5 29.5zM204 102q46 0 88.5 34.5t52.5 76.5l2 11l-124 -25q-29 -6 -47.5 -23t-18.5 -39q0 -16 12.5 -25.5t34.5 -9.5z" />
    <glyph glyph-name="Cacute" unicode="&#x106;" horiz-adv-x="760" 
d="M536 909l123 -64l-113 -103h-105zM627 440q-16 52 -62.5 80.5t-105.5 28.5q-97 0 -169 -72.5t-72 -173.5q0 -75 49 -123.5t126 -48.5q119 0 197 119l118 -85q-60 -84 -151 -132.5t-187 -48.5q-133 0 -219 85.5t-86 215.5q0 107 58 202t154 152t204 57q100 0 176.5 -51.5
t107.5 -137.5z" />
    <glyph glyph-name="cacute" unicode="&#x107;" horiz-adv-x="573" 
d="M394 728l123 -64l-113 -103h-105zM396 204l129 -60q-42 -73 -114 -116t-152 -43q-101 0 -165 64.5t-64 161.5q0 123 93 213.5t214 90.5q83 0 142.5 -46.5t77.5 -120.5l-145 -41q-9 32 -33 49.5t-58 17.5q-58 0 -100.5 -44t-42.5 -106q0 -43 26.5 -70.5t70.5 -27.5
q38 0 71 22t50 56z" />
    <glyph glyph-name="Cdotaccent" unicode="&#x10a;" horiz-adv-x="760" 
d="M501 731q-39 0 -62.5 29t-16.5 69q6 32 33.5 54.5t61.5 22.5q38 0 61.5 -28.5t16.5 -68.5q-6 -33 -33.5 -55.5t-60.5 -22.5zM627 440q-16 52 -62.5 80.5t-105.5 28.5q-97 0 -169 -72.5t-72 -173.5q0 -75 49 -123.5t126 -48.5q119 0 197 119l118 -85q-60 -84 -151 -132.5
t-187 -48.5q-133 0 -219 85.5t-86 215.5q0 107 58 202t154 152t204 57q100 0 176.5 -51.5t107.5 -137.5z" />
    <glyph glyph-name="cdotaccent" unicode="&#x10b;" horiz-adv-x="573" 
d="M359 550q-39 0 -62.5 29t-16.5 69q6 32 33.5 54.5t61.5 22.5q38 0 61.5 -28.5t16.5 -68.5q-6 -33 -33.5 -55.5t-60.5 -22.5zM396 204l129 -60q-42 -73 -114 -116t-152 -43q-101 0 -165 64.5t-64 161.5q0 123 93 213.5t214 90.5q83 0 142.5 -46.5t77.5 -120.5l-145 -41
q-9 32 -33 49.5t-58 17.5q-58 0 -100.5 -44t-42.5 -106q0 -43 26.5 -70.5t70.5 -27.5q38 0 71 22t50 56z" />
    <glyph glyph-name="Ccaron" unicode="&#x10c;" horiz-adv-x="760" 
d="M552 741h-113l-86 111l64 55l92 -75l117 75l48 -55zM393 131q119 0 197 119l118 -85q-60 -84 -151 -132.5t-187 -48.5q-133 0 -219 85.5t-86 215.5q0 107 58 202t154 152t204 57q100 0 176.5 -51.5t107.5 -137.5l-138 -67q-16 52 -62.5 80.5t-105.5 28.5
q-97 0 -169 -72.5t-72 -173.5q0 -75 49 -123.5t126 -48.5z" />
    <glyph glyph-name="ccaron" unicode="&#x10d;" horiz-adv-x="573" 
d="M410 560h-113l-86 111l64 55l92 -75l117 75l48 -55zM275 126q38 0 71 22t50 56l129 -60q-42 -73 -114 -116t-152 -43q-101 0 -165 64.5t-64 161.5q0 123 93 213.5t214 90.5q83 0 142.5 -46.5t77.5 -120.5l-145 -41q-9 32 -33 49.5t-58 17.5q-58 0 -100.5 -44t-42.5 -106
q0 -43 26.5 -70.5t70.5 -27.5z" />
    <glyph glyph-name="Dcaron" unicode="&#x10e;" horiz-adv-x="751" 
d="M479 740h-113l-86 111l64 55l92 -75l117 75l48 -55zM407 680q138 0 224.5 -80.5t86.5 -206.5q0 -164 -125 -278.5t-298 -114.5h-255l120 680h247zM322 142q105 0 175.5 68.5t70.5 166.5q0 74 -51 117.5t-139 43.5h-95l-70 -396h109z" />
    <glyph glyph-name="dcaron" unicode="&#x10f;" horiz-adv-x="760" 
d="M485 700h145l-123 -700h-145l8 47q-60 -62 -148 -62q-86 0 -139 59.5t-53 153.5q0 124 80.5 220.5t191.5 96.5q92 0 138 -70zM684 700h139l-125 -297h-86zM270 125q47 0 86.5 35.5t49.5 90.5l2 11q1 7 1 19q0 45 -26.5 69.5t-65.5 24.5q-54 0 -95.5 -44.5t-41.5 -110.5
q0 -43 25.5 -69t64.5 -26z" />
    <glyph glyph-name="Dcroat" unicode="&#x110;" horiz-adv-x="751" 
d="M407 680q138 0 224.5 -80.5t86.5 -206.5q0 -164 -125 -278.5t-298 -114.5h-255l49 280h-76l21 120h77l49 280h247zM322 142q105 0 175.5 68.5t70.5 166.5q0 74 -51 117.5t-139 43.5h-95l-24 -138h175l-21 -120h-176l-24 -138h109z" />
    <glyph glyph-name="dcroat" unicode="&#x111;" horiz-adv-x="619" 
d="M686 646l-21 -102h-62l-96 -544h-145l8 47q-60 -62 -148 -62q-86 0 -139 59.5t-53 153.5q0 124 80.5 220.5t191.5 96.5q92 0 138 -70l18 99h-193l21 102h190l9 54h145l-9 -54h65zM270 125q47 0 86.5 35.5t49.5 90.5l2 11q1 7 1 19q0 45 -26.5 69.5t-65.5 24.5
q-54 0 -95.5 -44.5t-41.5 -110.5q0 -43 25.5 -69t64.5 -26z" />
    <glyph glyph-name="Emacron" unicode="&#x112;" horiz-adv-x="605" 
d="M609 850l-18 -100h-350l18 100h350zM603 538h-321l-23 -131h218l-24 -134h-218l-23 -131h321l-25 -142h-468l120 680h468z" />
    <glyph glyph-name="emacron" unicode="&#x113;" horiz-adv-x="576" 
d="M541 670l-18 -100h-350l18 100h350zM331 515q92 0 148 -56t56 -152q0 -55 -18 -107h-340q8 -87 93 -87q40 0 74.5 20.5t54.5 51.5l98 -71q-42 -60 -109.5 -94.5t-137.5 -34.5q-96 0 -153.5 60.5t-57.5 157.5q0 127 85 219.5t207 92.5zM311 387q-80 0 -117 -86h201v8
q0 36 -23.5 57t-60.5 21z" />
    <glyph glyph-name="Edotaccent" unicode="&#x116;" horiz-adv-x="605" 
d="M421 730q-39 0 -62.5 29t-16.5 69q6 32 33.5 54.5t61.5 22.5q38 0 61.5 -28.5t16.5 -68.5q-6 -33 -33.5 -55.5t-60.5 -22.5zM603 538h-321l-23 -131h218l-24 -134h-218l-23 -131h321l-25 -142h-468l120 680h468z" />
    <glyph glyph-name="edotaccent" unicode="&#x117;" horiz-adv-x="576" 
d="M353 550q-39 0 -62.5 29t-16.5 69q6 32 33.5 54.5t61.5 22.5q38 0 61.5 -28.5t16.5 -68.5q-6 -33 -33.5 -55.5t-60.5 -22.5zM535 307q0 -55 -18 -107h-340q8 -87 93 -87q40 0 74.5 20.5t54.5 51.5l98 -71q-42 -60 -109.5 -94.5t-137.5 -34.5q-96 0 -153.5 60.5
t-57.5 157.5q0 127 85 219.5t207 92.5q92 0 148 -56t56 -152zM311 387q-80 0 -117 -86h201v8q0 36 -23.5 57t-60.5 21z" />
    <glyph glyph-name="Eogonek" unicode="&#x118;" horiz-adv-x="605" 
d="M603 538h-321l-23 -131h218l-24 -134h-218l-23 -131h321l-25 -142h-1q-82 -57 -82 -93t58 1l10 6l-12 -100q-70 -32 -118 3.5t-36 100.5q9 45 53 82h-340l120 680h468z" />
    <glyph glyph-name="eogonek" unicode="&#x119;" horiz-adv-x="576" 
d="M535 307q0 -55 -18 -107h-340q8 -87 93 -87q40 0 74.5 20.5t54.5 51.5l98 -71q-42 -61 -114 -97q-46 -37 -46 -66q0 -36 58 1l10 6l-12 -100q-70 -32 -118 3.5t-36 100.5q1 6 7 23q-94 1 -150.5 61.5t-56.5 156.5q0 127 85 219.5t207 92.5q92 0 148 -56t56 -152zM311 387
q-80 0 -117 -86h201v8q0 36 -23.5 57t-60.5 21z" />
    <glyph glyph-name="Ecaron" unicode="&#x11a;" horiz-adv-x="605" 
d="M472 740h-113l-86 111l64 55l92 -75l117 75l48 -55zM603 538h-321l-23 -131h218l-24 -134h-218l-23 -131h321l-25 -142h-468l120 680h468z" />
    <glyph glyph-name="ecaron" unicode="&#x11b;" horiz-adv-x="576" 
d="M404 560h-113l-86 111l64 55l92 -75l117 75l48 -55zM535 307q0 -55 -18 -107h-340q8 -87 93 -87q40 0 74.5 20.5t54.5 51.5l98 -71q-42 -60 -109.5 -94.5t-137.5 -34.5q-96 0 -153.5 60.5t-57.5 157.5q0 127 85 219.5t207 92.5q92 0 148 -56t56 -152zM311 387
q-80 0 -117 -86h201v8q0 36 -23.5 57t-60.5 21z" />
    <glyph glyph-name="Gbreve" unicode="&#x11e;" horiz-adv-x="808" 
d="M513 737q-71 0 -111.5 42.5t-29.5 106.5l90 -10q-2 -23 11 -34.5t42 -11.5q35 0 56.5 16t23.5 40l93 -10q-11 -63 -60 -101t-115 -38zM408 375h363l-10 -56q-27 -150 -133.5 -242.5t-246.5 -92.5q-134 0 -220.5 85t-86.5 214q0 107 58 203t154 153t204 57q96 0 170 -46.5
t108 -126.5l-134 -67q-19 47 -62.5 71.5t-98.5 24.5q-102 0 -175 -76t-73 -180q0 -75 46.5 -121.5t128.5 -46.5q71 0 121 34.5t68 84.5h-204z" />
    <glyph glyph-name="gbreve" unicode="&#x11f;" horiz-adv-x="629" 
d="M361 556q-71 0 -111.5 42.5t-29.5 106.5l90 -10q-2 -23 11 -34.5t42 -11.5q35 0 56.5 16t23.5 40l93 -10q-11 -63 -60 -101t-115 -38zM460 500h145l-82 -467q-20 -111 -106.5 -179.5t-194.5 -68.5q-139 0 -216 112l108 79q44 -63 115 -63q57 0 99 36t52 96l2 9
q-62 -59 -149 -59q-85 0 -138.5 58t-53.5 153q0 121 79 215t190 94q97 0 140 -73zM284 135q47 0 86 33.5t48 91.5q2 16 2 23q0 44 -27.5 68t-66.5 24q-57 0 -96 -43.5t-39 -103.5q0 -43 26 -68t67 -25z" />
    <glyph glyph-name="Gdotaccent" unicode="&#x120;" horiz-adv-x="808" 
d="M510 731q-39 0 -62.5 29t-16.5 69q6 32 33.5 54.5t61.5 22.5q38 0 61.5 -28.5t16.5 -68.5q-6 -33 -33.5 -55.5t-60.5 -22.5zM408 375h363l-10 -56q-27 -150 -133.5 -242.5t-246.5 -92.5q-134 0 -220.5 85t-86.5 214q0 107 58 203t154 153t204 57q96 0 170 -46.5
t108 -126.5l-134 -67q-19 47 -62.5 71.5t-98.5 24.5q-102 0 -175 -76t-73 -180q0 -75 46.5 -121.5t128.5 -46.5q71 0 121 34.5t68 84.5h-204z" />
    <glyph glyph-name="gdotaccent" unicode="&#x121;" horiz-adv-x="629" 
d="M358 550q-39 0 -62.5 29t-16.5 69q6 32 33.5 54.5t61.5 22.5q38 0 61.5 -28.5t16.5 -68.5q-6 -33 -33.5 -55.5t-60.5 -22.5zM460 500h145l-82 -467q-20 -111 -106.5 -179.5t-194.5 -68.5q-139 0 -216 112l108 79q44 -63 115 -63q57 0 99 36t52 96l2 9q-62 -59 -149 -59
q-85 0 -138.5 58t-53.5 153q0 121 79 215t190 94q97 0 140 -73zM284 135q47 0 86 33.5t48 91.5q2 16 2 23q0 44 -27.5 68t-66.5 24q-57 0 -96 -43.5t-39 -103.5q0 -43 26 -68t67 -25z" />
    <glyph glyph-name="Gcommaaccent" unicode="&#x122;" horiz-adv-x="808" 
d="M408 375h363l-10 -56q-27 -150 -133.5 -242.5t-246.5 -92.5q-134 0 -220.5 85t-86.5 214q0 107 58 203t154 153t204 57q96 0 170 -46.5t108 -126.5l-134 -67q-19 47 -62.5 71.5t-98.5 24.5q-102 0 -175 -76t-73 -180q0 -75 46.5 -121.5t128.5 -46.5q71 0 121 34.5
t68 84.5h-204zM212 -279l79 219h142l-132 -219h-89z" />
    <glyph glyph-name="gcommaaccent" unicode="&#x123;" horiz-adv-x="629" 
d="M492 764l-78 -219h-142l131 219h89zM460 500h145l-82 -467q-20 -111 -106.5 -179.5t-194.5 -68.5q-139 0 -216 112l108 79q44 -63 115 -63q57 0 99 36t52 96l2 9q-62 -59 -149 -59q-85 0 -138.5 58t-53.5 153q0 121 79 215t190 94q97 0 140 -73zM284 135q47 0 86 33.5
t48 91.5q2 16 2 23q0 44 -27.5 68t-66.5 24q-57 0 -96 -43.5t-39 -103.5q0 -43 26 -68t67 -25z" />
    <glyph glyph-name="Hbar" unicode="&#x126;" horiz-adv-x="752" 
d="M792 595l-18 -100h-63l-87 -495h-148l47 269h-288l-47 -269h-148l87 495h-63l18 100h63l15 85h148l-15 -85h288l15 85h148l-15 -85h63zM549 411l14 84h-288l-14 -84h288z" />
    <glyph glyph-name="hbar" unicode="&#x127;" horiz-adv-x="612" 
d="M399 516q86 0 129 -67.5t26 -162.5l-50 -286h-145l47 266q9 50 -9.5 80t-58.5 30q-44 0 -80.5 -35t-44.5 -85l-45 -256h-144l96 548h-106l22 101h102l9 51h144l-9 -51h175l-22 -101h-171l-17 -97q67 65 152 65z" />
    <glyph glyph-name="Imacron" unicode="&#x12a;" horiz-adv-x="332" 
d="M97 850h350l-18 -100h-350zM167 680h150l-120 -680h-150z" />
    <glyph glyph-name="imacron" unicode="&#x12b;" horiz-adv-x="292" 
d="M45 670h350l-18 -100h-350zM115 500h150l-88 -500h-150z" />
    <glyph glyph-name="Iogonek" unicode="&#x12e;" horiz-adv-x="332" 
d="M167 680h150l-120 -680h-1q-82 -57 -82 -93t58 1l10 6l-12 -100q-70 -32 -118 3.5t-36 100.5q9 45 53 82h-22z" />
    <glyph glyph-name="iogonek" unicode="&#x12f;" horiz-adv-x="292" 
d="M223 725q38 0 61.5 -28.5t16.5 -68.5q-6 -33 -33.5 -55.5t-60.5 -22.5q-39 0 -62.5 29t-16.5 69q6 32 33.5 54.5t61.5 22.5zM27 0l88 500h150l-88 -500h-1q-82 -57 -82 -93t58 1l10 6l-12 -100q-70 -32 -118 3.5t-36 100.5q9 45 53 82h-22z" />
    <glyph glyph-name="Idotaccent" unicode="&#x130;" horiz-adv-x="332" 
d="M259 730q-39 0 -62.5 29t-16.5 69q6 32 33.5 54.5t61.5 22.5q38 0 61.5 -28.5t16.5 -68.5q-6 -33 -33.5 -55.5t-60.5 -22.5zM167 680h150l-120 -680h-150z" />
    <glyph glyph-name="dotlessi" unicode="&#x131;" horiz-adv-x="292" 
d="M115 500h150l-88 -500h-150z" />
    <glyph glyph-name="Kcommaaccent" unicode="&#x136;" horiz-adv-x="698" 
d="M764 680l-343 -296l223 -384h-175l-168 280l-75 -64l-38 -216h-148l120 680h148l-48 -273l311 273h193zM169 -279l79 219h142l-132 -219h-89z" />
    <glyph glyph-name="kcommaaccent" unicode="&#x137;" horiz-adv-x="582" 
d="M617 500l-230 -197l145 -303h-169l-99 198l-71 -61l-24 -137h-145l123 700h145l-67 -379l204 179h188zM96 -279l79 219h142l-132 -219h-89z" />
    <glyph glyph-name="Lacute" unicode="&#x139;" horiz-adv-x="584" 
d="M413 844l-113 -103h-105l95 167zM215 142h318l-25 -142h-468l120 680h150z" />
    <glyph glyph-name="lacute" unicode="&#x13a;" horiz-adv-x="300" 
d="M281 928l123 -64l-113 -103h-105zM154 700h150l-123 -700h-150z" />
    <glyph glyph-name="Lcommaaccent" unicode="&#x13b;" horiz-adv-x="584" 
d="M215 142h318l-25 -142h-468l120 680h150zM117 -279l79 219h142l-132 -219h-89z" />
    <glyph glyph-name="lcommaaccent" unicode="&#x13c;" horiz-adv-x="300" 
d="M154 700h150l-123 -700h-150zM35 -60h142l-132 -219h-89z" />
    <glyph glyph-name="Lcaron" unicode="&#x13d;" horiz-adv-x="584" 
d="M636 700l-148 -297h-86l95 297h139zM310 680l-95 -538h318l-25 -142h-468l120 680h150z" />
    <glyph glyph-name="lcaron" unicode="&#x13e;" horiz-adv-x="429" 
d="M154 700h150l-123 -700h-150zM359 700h132l-131 -297h-82z" />
    <glyph glyph-name="Lslash" unicode="&#x141;" horiz-adv-x="584" 
d="M215 142h318l-25 -142h-468l41 234l-81 -42l-38 104l143 74l55 310h150l-40 -226l81 42l38 -104l-143 -73z" />
    <glyph glyph-name="lslash" unicode="&#x142;" horiz-adv-x="300" 
d="M356 404l-114 -59l-61 -345h-150l46 260l-57 -29l-33 90l110 57l57 322h150l-42 -237l61 31z" />
    <glyph glyph-name="Nacute" unicode="&#x143;" horiz-adv-x="760" 
d="M631 844l-113 -103h-105l95 167zM605 680h147l-120 -680h-121l-250 424l-74 -424h-147l120 680h119l251 -425z" />
    <glyph glyph-name="nacute" unicode="&#x144;" horiz-adv-x="612" 
d="M523 664l-113 -103h-105l95 167zM399 516q86 0 129 -67.5t26 -162.5l-50 -286h-145l47 266q9 50 -10 80t-59 30q-43 0 -78 -33.5t-45 -82.5l-46 -260h-144l88 500h144l-9 -49q67 65 152 65z" />
    <glyph glyph-name="Ncommaaccent" unicode="&#x145;" horiz-adv-x="760" 
d="M605 680h147l-120 -680h-121l-250 424l-74 -424h-147l120 680h119l251 -425zM186 -279l79 219h142l-132 -219h-89z" />
    <glyph glyph-name="ncommaaccent" unicode="&#x146;" horiz-adv-x="612" 
d="M399 516q86 0 129 -67.5t26 -162.5l-50 -286h-145l47 266q9 50 -10 80t-59 30q-43 0 -78 -33.5t-45 -82.5l-46 -260h-144l88 500h144l-9 -49q67 65 152 65zM110 -279l79 219h142l-132 -219h-89z" />
    <glyph glyph-name="Ncaron" unicode="&#x147;" horiz-adv-x="760" 
d="M524 740h-113l-86 111l64 55l92 -75l117 75l48 -55zM605 680h147l-120 -680h-121l-250 424l-74 -424h-147l120 680h119l251 -425z" />
    <glyph glyph-name="ncaron" unicode="&#x148;" horiz-adv-x="612" 
d="M416 560h-113l-86 111l64 55l92 -75l117 75l48 -55zM399 516q86 0 129 -67.5t26 -162.5l-50 -286h-145l47 266q9 50 -10 80t-59 30q-43 0 -78 -33.5t-45 -82.5l-46 -260h-144l88 500h144l-9 -49q67 65 152 65z" />
    <glyph glyph-name="Eng" unicode="&#x14a;" horiz-adv-x="760" 
d="M752 680l-86 -486l-40 -229q-16 -88 -61.5 -126.5t-134.5 -38.5h-98l23 135h61q59 0 70 65l6 33l-231 391l-74 -424h-147l120 680h119l251 -425l75 425h147z" />
    <glyph glyph-name="eng" unicode="&#x14b;" horiz-adv-x="612" 
d="M399 516q86 0 129 -67.5t26 -162.5l-37 -211l-19 -110q-16 -88 -61.5 -126.5t-134.5 -38.5h-98l23 135h62q58 0 70 65l39 224h1l7 42q9 51 -8.5 80.5t-56.5 29.5q-43 0 -80 -33.5t-47 -82.5l-46 -260h-144l88 500h144l-9 -49q67 65 152 65z" />
    <glyph glyph-name="Omacron" unicode="&#x14c;" horiz-adv-x="817" 
d="M340 851h350l-18 -100h-350zM370 -16q-134 0 -219.5 85.5t-85.5 215.5q0 107 58 202.5t154 152t204 56.5q133 0 218 -85.5t85 -215.5q0 -107 -57.5 -202t-153.5 -152t-203 -57zM393 131q95 0 166.5 72.5t71.5 173.5q0 75 -48.5 123.5t-123.5 48.5q-97 0 -169 -72.5
t-72 -173.5q0 -75 49 -123.5t126 -48.5z" />
    <glyph glyph-name="omacron" unicode="&#x14d;" horiz-adv-x="614" 
d="M209 670h350l-18 -100h-350zM269 -15q-101 0 -165 64.5t-64 161.5q0 123 93 213.5t214 90.5q100 0 163.5 -64t63.5 -162q0 -122 -92.5 -213t-212.5 -91zM285 126q56 0 98.5 44.5t42.5 105.5q0 44 -26 71t-69 27q-58 0 -100.5 -44t-42.5 -106q0 -43 26.5 -70.5t70.5 -27.5
z" />
    <glyph glyph-name="Ohungarumlaut" unicode="&#x150;" horiz-adv-x="817" 
d="M461 909l110 -64l-103 -103h-96zM620 909l110 -64l-103 -103h-96zM370 -16q-134 0 -219.5 85.5t-85.5 215.5q0 107 58 202.5t154 152t204 56.5q133 0 218 -85.5t85 -215.5q0 -107 -57.5 -202t-153.5 -152t-203 -57zM393 131q95 0 166.5 72.5t71.5 173.5q0 75 -48.5 123.5
t-123.5 48.5q-97 0 -169 -72.5t-72 -173.5q0 -75 49 -123.5t126 -48.5z" />
    <glyph glyph-name="ohungarumlaut" unicode="&#x151;" horiz-adv-x="614" 
d="M330 728l110 -64l-103 -103h-96zM489 728l110 -64l-103 -103h-96zM269 -15q-101 0 -165 64.5t-64 161.5q0 123 93 213.5t214 90.5q100 0 163.5 -64t63.5 -162q0 -122 -92.5 -213t-212.5 -91zM285 126q56 0 98.5 44.5t42.5 105.5q0 44 -26 71t-69 27q-58 0 -100.5 -44
t-42.5 -106q0 -43 26.5 -70.5t70.5 -27.5z" />
    <glyph glyph-name="OE" unicode="&#x152;" horiz-adv-x="1143" 
d="M1141 538h-321l-23 -131h218l-24 -134h-218l-23 -131h321l-25 -142h-468l9 50q-103 -66 -217 -66q-134 0 -219.5 85.5t-85.5 215.5q0 107 58 202.5t154 152t204 56.5q122 0 207 -75l10 59h468zM393 131q95 0 166.5 72.5t71.5 173.5q0 75 -48.5 123.5t-123.5 48.5
q-97 0 -169 -72.5t-72 -173.5q0 -75 49 -123.5t126 -48.5z" />
    <glyph glyph-name="oe" unicode="&#x153;" horiz-adv-x="954" 
d="M895 200h-335q0 -1 -2 -4.5t-2 -4.5q11 -78 92 -78q40 0 74.5 20.5t54.5 51.5l98 -71q-42 -60 -109.5 -94.5t-137.5 -34.5q-105 0 -165 74q-87 -74 -194 -74q-101 0 -165 64.5t-64 161.5q0 123 93 213.5t214 90.5q109 0 173 -74q80 74 189 74q92 0 148 -56t56 -152
q0 -55 -18 -107zM689 387q-79 0 -115 -83v-3h199v8q0 36 -23.5 57t-60.5 21zM285 126q44 0 81 28.5t52 72.5q1 26 8 52q-2 43 -27.5 69t-67.5 26q-58 0 -100.5 -44t-42.5 -106q0 -43 26.5 -70.5t70.5 -27.5z" />
    <glyph glyph-name="Racute" unicode="&#x154;" horiz-adv-x="679" 
d="M603 844l-113 -103h-105l95 167zM656 497q0 -76 -45.5 -137t-119.5 -89l109 -271h-167l-102 252h-100l-44 -252h-147l120 680h294q89 0 145.5 -51.5t56.5 -131.5zM283 539l-27 -153h150q43 0 73 27t30 64q0 29 -21 45.5t-56 16.5h-149z" />
    <glyph glyph-name="racute" unicode="&#x155;" horiz-adv-x="387" 
d="M406 664l-113 -103h-105l95 167zM256 500l-9 -51q65 62 155 62l-17 -140q-71 0 -116 -30.5t-55 -81.5l-46 -259h-144l88 500h144z" />
    <glyph glyph-name="Rcommaaccent" unicode="&#x156;" horiz-adv-x="679" 
d="M656 497q0 -76 -45.5 -137t-119.5 -89l109 -271h-167l-102 252h-100l-44 -252h-147l120 680h294q89 0 145.5 -51.5t56.5 -131.5zM283 539l-27 -153h150q43 0 73 27t30 64q0 29 -21 45.5t-56 16.5h-149zM158 -279l79 219h142l-132 -219h-89z" />
    <glyph glyph-name="rcommaaccent" unicode="&#x157;" horiz-adv-x="387" 
d="M247 449q65 62 155 62l-17 -140q-71 0 -116 -30.5t-55 -81.5l-46 -259h-144l88 500h144zM-59 -279l79 219h142l-132 -219h-89z" />
    <glyph glyph-name="Rcaron" unicode="&#x158;" horiz-adv-x="679" 
d="M496 740h-113l-86 111l64 55l92 -75l117 75l48 -55zM656 497q0 -76 -45.5 -137t-119.5 -89l109 -271h-167l-102 252h-100l-44 -252h-147l120 680h294q89 0 145.5 -51.5t56.5 -131.5zM283 539l-27 -153h150q43 0 73 27t30 64q0 29 -21 45.5t-56 16.5h-149z" />
    <glyph glyph-name="rcaron" unicode="&#x159;" horiz-adv-x="387" 
d="M299 560h-113l-86 111l64 55l92 -75l117 75l48 -55zM256 500l-9 -51q65 62 155 62l-17 -140q-71 0 -116 -30.5t-55 -81.5l-46 -259h-144l88 500h144z" />
    <glyph glyph-name="Sacute" unicode="&#x15a;" horiz-adv-x="638" 
d="M452 909l123 -64l-113 -103h-105zM278 -16q-113 0 -183.5 53t-72.5 132l150 42q4 -37 35 -60.5t91 -23.5q55 0 94.5 21t39.5 55q0 10 -3 17.5t-11 14t-14.5 10.5t-21 9t-22 7.5t-27 7.5t-27.5 7q-100 23 -151 64.5t-51 110.5q0 109 81 177t201 68q104 0 171 -52.5
t70 -132.5l-144 -42q-4 40 -33.5 63t-79.5 23q-47 0 -81 -20t-34 -51q0 -11 5 -20t11.5 -14.5t20 -11.5t21 -9t25.5 -8.5t24 -7.5q114 -28 167 -70.5t53 -109.5q0 -112 -88 -180.5t-216 -68.5z" />
    <glyph glyph-name="sacute" unicode="&#x15b;" horiz-adv-x="493" 
d="M339 728l123 -64l-113 -103h-105zM436 167q0 -82 -71.5 -132t-163.5 -50q-84 0 -136.5 43t-57.5 111l122 26q2 -29 25 -44.5t59 -15.5q34 0 59.5 13t25.5 30q0 24 -79 43q-33 8 -54 16t-48 23.5t-41 41.5t-14 61q0 78 65.5 130t155.5 52q80 0 129 -43t53 -111l-118 -27
q-3 27 -21.5 44t-50.5 17q-29 0 -51.5 -13t-22.5 -31q0 -14 14.5 -21t49.5 -16q82 -20 114 -41q57 -37 57 -106z" />
    <glyph glyph-name="Scedilla" unicode="&#x15e;" horiz-adv-x="638" 
d="M362 413q114 -28 167 -70.5t53 -109.5q0 -97 -67 -162t-172 -82l-85 -147l-122 64l89 81q-92 13 -146.5 63t-56.5 119l150 42q4 -37 35 -60.5t91 -23.5q55 0 94.5 21t39.5 55q0 10 -3 17.5t-11 14t-14.5 10.5t-21 9t-22 7.5t-27 7.5t-27.5 7q-100 23 -151 64.5t-51 110.5
q0 109 81 177t201 68q104 0 171 -52.5t70 -132.5l-144 -42q-4 40 -33.5 63t-79.5 23q-47 0 -81 -20t-34 -51q0 -11 5 -20t11.5 -14.5t20 -11.5t21 -9t25.5 -8.5t24 -7.5z" />
    <glyph glyph-name="scedilla" unicode="&#x15f;" horiz-adv-x="493" 
d="M265 314q82 -20 114 -41q57 -37 57 -106q0 -67 -48.5 -113t-122.5 -62l-86 -150l-122 64l91 84q-62 13 -99.5 53t-41.5 96l122 26q2 -29 25 -44.5t59 -15.5q34 0 59.5 13t25.5 30q0 24 -79 43q-33 8 -54 16t-48 23.5t-41 41.5t-14 61q0 78 65.5 130t155.5 52
q80 0 129 -43t53 -111l-118 -27q-3 27 -21.5 44t-50.5 17q-29 0 -51.5 -13t-22.5 -31q0 -14 14.5 -21t49.5 -16z" />
    <glyph glyph-name="Scaron" unicode="&#x160;" horiz-adv-x="638" 
d="M468 741h-113l-86 111l64 55l92 -75l117 75l48 -55zM362 413q114 -28 167 -70.5t53 -109.5q0 -112 -88 -180.5t-216 -68.5q-113 0 -183.5 53t-72.5 132l150 42q4 -37 35 -60.5t91 -23.5q55 0 94.5 21t39.5 55q0 10 -3 17.5t-11 14t-14.5 10.5t-21 9t-22 7.5t-27 7.5
t-27.5 7q-100 23 -151 64.5t-51 110.5q0 109 81 177t201 68q104 0 171 -52.5t70 -132.5l-144 -42q-4 40 -33.5 63t-79.5 23q-47 0 -81 -20t-34 -51q0 -11 5 -20t11.5 -14.5t20 -11.5t21 -9t25.5 -8.5t24 -7.5z" />
    <glyph glyph-name="scaron" unicode="&#x161;" horiz-adv-x="493" 
d="M355 560h-113l-86 111l64 55l92 -75l117 75l48 -55zM275 395q-29 0 -51.5 -13t-22.5 -31q0 -14 14.5 -21t49.5 -16q82 -20 114 -41q57 -37 57 -106q0 -82 -71.5 -132t-163.5 -50q-84 0 -136.5 43t-57.5 111l122 26q2 -29 25 -44.5t59 -15.5q34 0 59.5 13t25.5 30
q0 24 -79 43q-33 8 -54 16t-48 23.5t-41 41.5t-14 61q0 78 65.5 130t155.5 52q80 0 129 -43t53 -111l-118 -27q-3 27 -21.5 44t-50.5 17z" />
    <glyph glyph-name="uni0162" unicode="&#x162;" horiz-adv-x="590" 
d="M632 680l-25 -142h-186l-95 -538h-7l-96 -167l-122 64l112 103h-37l95 538h-186l25 142h522z" />
    <glyph glyph-name="uni0163" unicode="&#x163;" horiz-adv-x="423" 
d="M285 370l-32 -180q-2 -16 -2 -22q0 -18 10 -25.5t34 -7.5h64l-24 -135h-59l-91 -158l-122 64l112 103h4q-78 24 -78 115q0 21 5 51l34 195h-90l23 130h90l21 120l153 45l-29 -165h115l-23 -130h-115z" />
    <glyph glyph-name="Tcaron" unicode="&#x164;" horiz-adv-x="590" 
d="M439 740h-113l-86 111l64 55l92 -75l117 75l48 -55zM632 680l-25 -142h-186l-95 -538h-150l95 538h-186l25 142h522z" />
    <glyph glyph-name="tcaron" unicode="&#x165;" horiz-adv-x="423" 
d="M435 780h123l-132 -239h-76zM337 665l-29 -165h115l-23 -130h-115l-32 -180q-2 -16 -2 -22q0 -18 10 -25.5t34 -7.5h64l-24 -135h-86q-148 0 -148 124q0 21 5 51l34 195h-90l23 130h90l21 120z" />
    <glyph glyph-name="Tbar" unicode="&#x166;" horiz-adv-x="590" 
d="M607 538h-186l-20 -112h129l-21 -120h-129l-54 -306h-150l54 306h-121l21 120h121l20 112h-186l25 142h522z" />
    <glyph glyph-name="tbar" unicode="&#x167;" horiz-adv-x="423" 
d="M400 370h-115l-12 -68h112l-18 -105h-113l-1 -7q-2 -16 -2 -22q0 -18 10 -25.5t34 -7.5h64l-24 -135h-86q-148 0 -148 124q0 21 5 51l4 22h-89l18 105h89l12 68h-90l23 130h90l21 120l153 45l-29 -165h115z" />
    <glyph glyph-name="Umacron" unicode="&#x16a;" horiz-adv-x="734" 
d="M298 850h350l-18 -100h-350zM587 680h150l-68 -385q-25 -141 -118.5 -226t-223.5 -85q-133 0 -201.5 89.5t-42.5 231.5l66 375h150l-68 -383q-13 -79 15.5 -124t91.5 -45q68 0 118.5 49.5t64.5 129.5z" />
    <glyph glyph-name="umacron" unicode="&#x16b;" horiz-adv-x="612" 
d="M553 670l-18 -100h-350l18 100h350zM444 500h144l-88 -500h-144l9 49q-67 -65 -152 -65q-86 0 -129 67.5t-26 162.5l50 286h145l-47 -266q-9 -50 10 -80t59 -30q42 0 77.5 33t45.5 81z" />
    <glyph glyph-name="Uring" unicode="&#x16e;" horiz-adv-x="734" 
d="M430 672q-46 0 -73 34.5t-18 78.5q8 38 39.5 65t71.5 27q44 0 72.5 -32.5t19.5 -79.5q-8 -39 -39.5 -66t-72.5 -27zM437 731q21 0 35.5 16.5t11.5 37.5q-2 17 -13.5 25t-25.5 8q-20 0 -35 -16.5t-13 -36.5q1 -15 13 -24.5t27 -9.5zM587 680h150l-68 -385
q-25 -141 -118.5 -226t-223.5 -85q-133 0 -201.5 89.5t-42.5 231.5l66 375h150l-68 -383q-13 -79 15.5 -124t91.5 -45q68 0 118.5 49.5t64.5 129.5z" />
    <glyph glyph-name="uring" unicode="&#x16f;" horiz-adv-x="612" 
d="M365 522q-46 0 -73 34.5t-18 78.5q8 38 39.5 65t71.5 27q44 0 72.5 -32.5t19.5 -79.5q-8 -39 -39.5 -66t-72.5 -27zM380 668q-20 0 -35 -16.5t-13 -36.5q1 -15 13 -24.5t27 -9.5q21 0 35.5 16.5t11.5 37.5q-2 17 -13.5 25t-25.5 8zM444 500h144l-88 -500h-144l9 49
q-67 -65 -152 -65q-86 0 -129 67.5t-26 162.5l50 286h145l-47 -266q-9 -50 10 -80t59 -30q42 0 77.5 33t45.5 81z" />
    <glyph glyph-name="Uhungarumlaut" unicode="&#x170;" horiz-adv-x="734" 
d="M419 908l110 -64l-103 -103h-96zM578 908l110 -64l-103 -103h-96zM587 680h150l-68 -385q-25 -141 -118.5 -226t-223.5 -85q-133 0 -201.5 89.5t-42.5 231.5l66 375h150l-68 -383q-13 -79 15.5 -124t91.5 -45q68 0 118.5 49.5t64.5 129.5z" />
    <glyph glyph-name="uhungarumlaut" unicode="&#x171;" horiz-adv-x="612" 
d="M434 664l-103 -103h-96l89 167zM490 561h-96l89 167l110 -64zM398 238l46 262h144l-88 -500h-144l9 49q-67 -65 -152 -65q-86 0 -129 67.5t-26 162.5l50 286h145l-47 -266q-9 -50 10 -80t59 -30q42 0 77.5 33t45.5 81z" />
    <glyph glyph-name="Uogonek" unicode="&#x172;" horiz-adv-x="734" 
d="M587 680h150l-68 -385q-18 -103 -74 -177.5t-139 -108.5q-68 -48 -68 -83q0 -36 58 1l10 6l-12 -100q-70 -32 -118 3.5t-36 100.5q5 25 20 47q-125 6 -188.5 95t-38.5 226l66 375h150l-68 -383q-13 -79 15.5 -124t91.5 -45q68 0 118.5 49.5t64.5 129.5z" />
    <glyph glyph-name="uogonek" unicode="&#x173;" horiz-adv-x="612" 
d="M444 500h144l-88 -500h-1q-82 -57 -82 -93t58 1l10 6l-12 -100q-70 -32 -118 3.5t-36 100.5q9 45 53 82h-16l9 49q-67 -65 -152 -65q-86 0 -129 67.5t-26 162.5l50 286h145l-47 -266q-9 -50 10 -80t59 -30q42 0 77.5 33t45.5 81z" />
    <glyph glyph-name="Wcircumflex" unicode="&#x174;" horiz-adv-x="1088" 
d="M641 789l-117 -75l-48 55l122 111h113l86 -111l-64 -55zM977 680h158l-321 -680h-174l-57 463l-221 -463h-174l-81 680h155l48 -476l228 476h162l60 -477z" />
    <glyph glyph-name="wcircumflex" unicode="&#x175;" horiz-adv-x="878" 
d="M501 609l-117 -75l-48 55l122 111h113l86 -111l-64 -55zM753 500h146l-238 -500h-166l-41 330l-157 -330h-166l-62 500h142l33 -328l157 328h162l42 -328z" />
    <glyph glyph-name="Ycircumflex" unicode="&#x176;" horiz-adv-x="712" 
d="M457 789l-117 -75l-48 55l122 111h113l86 -111l-64 -55zM777 680l-342 -405l-49 -275h-148l49 277l-198 403h172l123 -261l215 261h178z" />
    <glyph glyph-name="ycircumflex" unicode="&#x177;" horiz-adv-x="600" 
d="M364 609l-117 -75l-48 55l122 111h113l86 -111l-64 -55zM470 500h153l-412 -700h-157l138 232l-127 468h155l78 -289z" />
    <glyph glyph-name="Ydieresis" unicode="&#x178;" horiz-adv-x="712" 
d="M341 730q-39 0 -62.5 29t-16.5 69q6 32 33.5 54.5t61.5 22.5q38 0 61.5 -28.5t16.5 -68.5q-6 -33 -33.5 -55.5t-60.5 -22.5zM567 730q-39 0 -62.5 29t-16.5 69q6 32 33.5 54.5t61.5 22.5q38 0 61.5 -28.5t16.5 -68.5q-6 -33 -33.5 -55.5t-60.5 -22.5zM777 680l-342 -405
l-49 -275h-148l49 277l-198 403h172l123 -261l215 261h178z" />
    <glyph glyph-name="Zacute" unicode="&#x179;" horiz-adv-x="678" 
d="M591 844l-113 -103h-105l95 167zM673 680l-18 -111l-399 -427h341l-25 -142h-553l18 111l399 427h-322l25 142h534z" />
    <glyph glyph-name="zacute" unicode="&#x17a;" horiz-adv-x="494" 
d="M468 664l-113 -103h-105l95 167zM468 389l-23 -23l-217 -227h199l-24 -139h-397l18 111l23 23l217 227h-194l24 139h392z" />
    <glyph glyph-name="Zdotaccent" unicode="&#x17b;" horiz-adv-x="678" 
d="M433 730q-39 0 -62.5 29t-16.5 69q6 32 33.5 54.5t61.5 22.5q38 0 61.5 -28.5t16.5 -68.5q-6 -33 -33.5 -55.5t-60.5 -22.5zM673 680l-18 -111l-399 -427h341l-25 -142h-553l18 111l399 427h-322l25 142h534z" />
    <glyph glyph-name="zdotaccent" unicode="&#x17c;" horiz-adv-x="494" 
d="M310 550q-39 0 -62.5 29t-16.5 69q6 32 33.5 54.5t61.5 22.5q38 0 61.5 -28.5t16.5 -68.5q-6 -33 -33.5 -55.5t-60.5 -22.5zM468 389l-23 -23l-217 -227h199l-24 -139h-397l18 111l23 23l217 227h-194l24 139h392z" />
    <glyph glyph-name="Zcaron" unicode="&#x17d;" horiz-adv-x="678" 
d="M484 740h-113l-86 111l64 55l92 -75l117 75l48 -55zM673 680l-18 -111l-399 -427h341l-25 -142h-553l18 111l399 427h-322l25 142h534z" />
    <glyph glyph-name="zcaron" unicode="&#x17e;" horiz-adv-x="494" 
d="M361 560h-113l-86 111l64 55l92 -75l117 75l48 -55zM468 389l-23 -23l-217 -227h199l-24 -139h-397l18 111l23 23l217 227h-194l24 139h392z" />
    <glyph glyph-name="Scommaaccent" unicode="&#x218;" horiz-adv-x="638" 
d="M278 -16q-113 0 -183.5 53t-72.5 132l150 42q4 -37 35 -60.5t91 -23.5q55 0 94.5 21t39.5 55q0 10 -3 17.5t-11 14t-14.5 10.5t-21 9t-22 7.5t-27 7.5t-27.5 7q-100 23 -151 64.5t-51 110.5q0 109 81 177t201 68q104 0 171 -52.5t70 -132.5l-144 -42q-4 40 -33.5 63
t-79.5 23q-47 0 -81 -20t-34 -51q0 -11 5 -20t11.5 -14.5t20 -11.5t21 -9t25.5 -8.5t24 -7.5q114 -28 167 -70.5t53 -109.5q0 -112 -88 -180.5t-216 -68.5zM207 -60h142l-132 -219h-89z" />
    <glyph glyph-name="scommaaccent" unicode="&#x219;" horiz-adv-x="493" 
d="M436 167q0 -82 -71.5 -132t-163.5 -50q-84 0 -136.5 43t-57.5 111l122 26q2 -29 25 -44.5t59 -15.5q34 0 59.5 13t25.5 30q0 24 -79 43q-33 8 -54 16t-48 23.5t-41 41.5t-14 61q0 78 65.5 130t155.5 52q80 0 129 -43t53 -111l-118 -27q-3 27 -21.5 44t-50.5 17
q-29 0 -51.5 -13t-22.5 -31q0 -14 14.5 -21t49.5 -16q82 -20 114 -41q57 -37 57 -106zM128 -60h142l-132 -219h-89z" />
    <glyph glyph-name="uni021A" unicode="&#x21a;" horiz-adv-x="590" 
d="M632 680l-25 -142h-186l-95 -538h-150l95 538h-186l25 142h522zM93 -288l79 219h142l-132 -219h-89z" />
    <glyph glyph-name="uni021B" unicode="&#x21b;" horiz-adv-x="423" 
d="M285 370l-32 -180q-2 -16 -2 -22q0 -18 10 -25.5t34 -7.5h64l-24 -135h-86q-148 0 -148 124q0 21 5 51l34 195h-90l23 130h90l21 120l153 45l-29 -165h115l-23 -130h-115zM55 -279l79 219h142l-132 -219h-89z" />
    <glyph glyph-name="gravecomb" unicode="&#x300;" 
d="M-215 728l39 -167h-101l-77 103z" />
    <glyph glyph-name="acutecomb" unicode="&#x301;" 
d="M-203 728l123 -64l-113 -103h-105z" />
    <glyph glyph-name="uni0302" unicode="&#x302;" 
d="M-79 589l-64 -55l-92 75l-117 -75l-48 55l122 111h113z" />
    <glyph glyph-name="tildecomb" unicode="&#x303;" 
d="M-93 703l80 -10q-4 -61 -47 -99t-97 -38q-36 0 -63.5 25t-49.5 25q-39 0 -48 -45l-80 10q4 60 45.5 98.5t96.5 38.5q29 0 48.5 -12.5t34 -25t31.5 -12.5q39 0 49 45z" />
    <glyph glyph-name="uni0304" unicode="&#x304;" 
d="M-406 670h350l-18 -100h-350z" />
    <glyph glyph-name="uni0306" unicode="&#x306;" 
d="M-153 705l93 -10q-11 -63 -60 -101t-115 -38q-71 0 -111.5 42.5t-29.5 106.5l90 -10q-2 -23 11 -34.5t42 -11.5q35 0 56.5 16t23.5 40z" />
    <glyph glyph-name="uni0307" unicode="&#x307;" 
d="M-212 550q-39 0 -62.5 29t-16.5 69q6 32 33.5 54.5t61.5 22.5q38 0 61.5 -28.5t16.5 -68.5q-6 -33 -33.5 -55.5t-60.5 -22.5z" />
    <glyph glyph-name="uni0308" unicode="&#x308;" 
d="M-325 550q-39 0 -62.5 29t-16.5 69q6 32 33.5 54.5t61.5 22.5q38 0 61.5 -28.5t16.5 -68.5q-6 -33 -33.5 -55.5t-60.5 -22.5zM-99 550q-39 0 -62.5 29t-16.5 69q6 32 33.5 54.5t61.5 22.5q38 0 61.5 -28.5t16.5 -68.5q-6 -33 -33.5 -55.5t-60.5 -22.5z" />
    <glyph glyph-name="uni030A" unicode="&#x30a;" 
d="M-217 522q-46 0 -73 34.5t-18 78.5q8 38 39.5 65t71.5 27q44 0 72.5 -32.5t19.5 -79.5q-8 -39 -39.5 -66t-72.5 -27zM-210 581q21 0 35.5 16.5t11.5 37.5q-2 17 -13.5 25t-25.5 8q-20 0 -35 -16.5t-13 -36.5q1 -15 13 -24.5t27 -9.5z" />
    <glyph glyph-name="uni030B" unicode="&#x30b;" 
d="M-362 728l110 -64l-103 -103h-96zM-203 728l110 -64l-103 -103h-96z" />
    <glyph glyph-name="uni030C" unicode="&#x30c;" 
d="M-113 726l48 -55l-122 -111h-113l-86 111l64 55l92 -75z" />
    <glyph glyph-name="uni0312" unicode="&#x312;" 
d="M-348 545h-142l131 219h89z" />
    <glyph glyph-name="uni0326" unicode="&#x326;" 
d="M-580 -60h142l-132 -219h-89z" />
    <glyph glyph-name="uni0327" unicode="&#x327;" 
d="M-370 -158l-122 64l112 103h106z" />
    <glyph glyph-name="uni0328" unicode="&#x328;" 
d="M-213 -186q-70 -32 -118 3.5t-36 100.5q9 45 53 82h127q-82 -57 -82 -93t58 1l10 6z" />
    <glyph glyph-name="uni0335" unicode="&#x335;" 
d="M-506 385h400l-21 -120h-400z" />
    <glyph glyph-name="uni0336" unicode="&#x336;" 
d="M-635 363h710l-18 -100h-710z" />
    <glyph glyph-name="uni0337" unicode="&#x337;" 
d="M-484 513h400l-21 -120h-400z" />
    <glyph glyph-name="uni0338" unicode="&#x338;" 
d="M-283 720h125l-166 -940h-125z" />
    <glyph glyph-name="pi" unicode="&#x3c0;" horiz-adv-x="695" 
d="M695 407h-83l-43 -245q-19 -108 -14 -162h-137q-14 26 7 151l46 256h-166q-22 -99 -65 -224.5t-80 -182.5h-137q40 76 83 198.5t60 208.5q-81 0 -121 -11l-1 84q50 34 194 34h488z" />
    <glyph glyph-name="Wgrave" unicode="&#x1e80;" horiz-adv-x="1088" 
d="M700 741h-101l-77 103l139 64zM977 680h158l-321 -680h-174l-57 463l-221 -463h-174l-81 680h155l48 -476l228 476h162l60 -477z" />
    <glyph glyph-name="wgrave" unicode="&#x1e81;" horiz-adv-x="878" 
d="M560 561h-101l-77 103l139 64zM753 500h146l-238 -500h-166l-41 330l-157 -330h-166l-62 500h142l33 -328l157 328h162l42 -328z" />
    <glyph glyph-name="Wacute" unicode="&#x1e82;" horiz-adv-x="1088" 
d="M796 844l-113 -103h-105l95 167zM977 680h158l-321 -680h-174l-57 463l-221 -463h-174l-81 680h155l48 -476l228 476h162l60 -477z" />
    <glyph glyph-name="wacute" unicode="&#x1e83;" horiz-adv-x="878" 
d="M656 664l-113 -103h-105l95 167zM753 500h146l-238 -500h-166l-41 330l-157 -330h-166l-62 500h142l33 -328l157 328h162l42 -328z" />
    <glyph glyph-name="Wdieresis" unicode="&#x1e84;" horiz-adv-x="1088" 
d="M525 730q-39 0 -62.5 29t-16.5 69q6 32 33.5 54.5t61.5 22.5q38 0 61.5 -28.5t16.5 -68.5q-6 -33 -33.5 -55.5t-60.5 -22.5zM751 730q-39 0 -62.5 29t-16.5 69q6 32 33.5 54.5t61.5 22.5q38 0 61.5 -28.5t16.5 -68.5q-6 -33 -33.5 -55.5t-60.5 -22.5zM977 680h158
l-321 -680h-174l-57 463l-221 -463h-174l-81 680h155l48 -476l228 476h162l60 -477z" />
    <glyph glyph-name="wdieresis" unicode="&#x1e85;" horiz-adv-x="878" 
d="M385 550q-39 0 -62.5 29t-16.5 69q6 32 33.5 54.5t61.5 22.5q38 0 61.5 -28.5t16.5 -68.5q-6 -33 -33.5 -55.5t-60.5 -22.5zM611 550q-39 0 -62.5 29t-16.5 69q6 32 33.5 54.5t61.5 22.5q38 0 61.5 -28.5t16.5 -68.5q-6 -33 -33.5 -55.5t-60.5 -22.5zM753 500h146
l-238 -500h-166l-41 330l-157 -330h-166l-62 500h142l33 -328l157 328h162l42 -328z" />
    <glyph glyph-name="Ygrave" unicode="&#x1ef2;" horiz-adv-x="712" 
d="M516 741h-101l-77 103l139 64zM777 680l-342 -405l-49 -275h-148l49 277l-198 403h172l123 -261l215 261h178z" />
    <glyph glyph-name="ygrave" unicode="&#x1ef3;" horiz-adv-x="600" 
d="M423 561h-101l-77 103l139 64zM470 500h153l-412 -700h-157l138 232l-127 468h155l78 -289z" />
    <glyph glyph-name="endash" unicode="&#x2013;" horiz-adv-x="610" 
d="M59 215l25 140h480l-25 -140h-480z" />
    <glyph glyph-name="emdash" unicode="&#x2014;" horiz-adv-x="903" 
d="M59 215l25 140h773l-25 -140h-773z" />
    <glyph glyph-name="quoteleft" unicode="&#x2018;" horiz-adv-x="313" 
d="M320 632q-27 -1 -54.5 -19t-44.5 -47q37 -2 57.5 -29.5t13.5 -65.5q-6 -33 -33.5 -55.5t-61.5 -22.5q-47 0 -72.5 39t-15.5 97q14 78 77 129.5t140 51.5z" />
    <glyph glyph-name="quoteright" unicode="&#x2019;" horiz-adv-x="313" 
d="M222 710q47 0 72.5 -39t15.5 -97q-13 -78 -76.5 -129.5t-140.5 -51.5l6 78q28 1 55.5 19t44.5 47q-38 1 -58.5 28.5t-13.5 66.5q6 33 33.5 55.5t61.5 22.5z" />
    <glyph glyph-name="quotesinglbase" unicode="&#x201a;" horiz-adv-x="266" 
d="M80 155h152l-188 -297h-95z" />
    <glyph glyph-name="quotedblleft" unicode="&#x201c;" horiz-adv-x="546" 
d="M109 529q14 78 77 129.5t140 51.5l-6 -78q-27 -1 -54.5 -19t-44.5 -47q37 -2 57.5 -29.5t13.5 -65.5q-6 -33 -33.5 -55.5t-61.5 -22.5q-47 0 -72.5 39t-15.5 97zM553 632q-27 -1 -54.5 -19t-44.5 -47q37 -2 57.5 -29.5t13.5 -65.5q-6 -33 -33.5 -55.5t-61.5 -22.5
q-47 0 -72.5 39t-15.5 97q14 78 77 129.5t140 51.5z" />
    <glyph glyph-name="quotedblright" unicode="&#x201d;" horiz-adv-x="566" 
d="M222 710q47 0 72.5 -39t15.5 -97q-13 -78 -76.5 -129.5t-140.5 -51.5l6 78q28 1 55.5 19t44.5 47q-38 1 -58.5 28.5t-13.5 66.5q6 33 33.5 55.5t61.5 22.5zM475 710q47 0 72.5 -39t15.5 -97q-13 -78 -76.5 -129.5t-140.5 -51.5l6 78q28 1 55.5 19t44.5 47
q-38 1 -58.5 28.5t-13.5 66.5q6 33 33.5 55.5t61.5 22.5z" />
    <glyph glyph-name="quotedblbase" unicode="&#x201e;" horiz-adv-x="467" 
d="M80 155h152l-188 -297h-95zM281 155h152l-188 -297h-95z" />
    <glyph glyph-name="dagger" unicode="&#x2020;" horiz-adv-x="608" 
d="M320 710h130l-51 -216l212 11l-20 -115l-209 11l-66 -453h-131l93 453l-212 -11l20 115l209 -11z" />
    <glyph glyph-name="daggerdbl" unicode="&#x2021;" horiz-adv-x="608" 
d="M321 710h127l-45 -195l212 11l-20 -114l-208 11l-33 -184l212 11l-20 -114l-208 11l-25 -199h-126l44 199l-210 -11l20 114l207 -11l33 184l-211 -11l20 114l207 -11z" />
    <glyph glyph-name="bullet" unicode="&#x2022;" horiz-adv-x="512" 
d="M294 501q74 0 118.5 -54.5t31.5 -130.5q-13 -70 -71 -118.5t-127 -48.5q-74 0 -119 55t-32 132q12 68 71.5 116.5t127.5 48.5z" />
    <glyph glyph-name="ellipsis" unicode="&#x2026;" horiz-adv-x="824" 
d="M119 178q42 0 67 -31.5t18 -74.5q-7 -36 -37.5 -61.5t-66.5 -25.5q-43 0 -69 31.5t-18 75.5q7 36 37.5 61t68.5 25zM393 178q42 0 67 -31.5t18 -74.5q-7 -36 -37.5 -61.5t-66.5 -25.5q-43 0 -69 31.5t-18 75.5q7 36 37.5 61t68.5 25zM667 178q42 0 67 -31.5t18 -74.5
q-7 -36 -37.5 -61.5t-66.5 -25.5q-43 0 -69 31.5t-18 75.5q7 36 37.5 61t68.5 25z" />
    <glyph glyph-name="perthousand" unicode="&#x2030;" horiz-adv-x="1317" 
d="M709 700l82 -58l-549 -662l-82 58zM292 696q76 0 121.5 -55.5t31.5 -133.5q-13 -72 -72 -121.5t-130 -49.5q-75 0 -121.5 56t-32.5 135q13 70 73 119.5t130 49.5zM291 607q-39 0 -74.5 -29.5t-42.5 -70.5q-6 -35 15 -58.5t56 -23.5q39 0 73.5 30t41.5 72q6 33 -14.5 56.5
t-54.5 23.5zM712 344q76 0 121.5 -55.5t31.5 -133.5q-13 -72 -72 -121.5t-130 -49.5q-75 0 -121.5 56t-32.5 135q13 70 73 119.5t130 49.5zM1107 344q76 0 121.5 -55.5t31.5 -133.5q-13 -72 -72 -121.5t-130 -49.5q-75 0 -121.5 56t-32.5 135q13 70 73 119.5t130 49.5z
M711 255q-39 0 -74.5 -29.5t-42.5 -70.5q-6 -35 15 -58.5t56 -23.5q39 0 73.5 30t41.5 72q6 33 -14.5 56.5t-54.5 23.5zM1106 255q-39 0 -74.5 -29.5t-42.5 -70.5q-6 -35 15 -58.5t56 -23.5q39 0 73.5 30t41.5 72q6 33 -14.5 56.5t-54.5 23.5z" />
    <glyph glyph-name="guilsinglleft" unicode="&#x2039;" horiz-adv-x="462" 
d="M426 465l-200 -186l132 -184h-158l-135 185l198 185h163z" />
    <glyph glyph-name="guilsinglright" unicode="&#x203a;" horiz-adv-x="462" 
d="M273 465l134 -185l-197 -185h-164l201 186l-133 184h159z" />
    <glyph glyph-name="fraction" unicode="&#x2044;" horiz-adv-x="175" 
d="M351 700l64 -45l-559 -675l-64 45z" />
    <glyph glyph-name="Euro" unicode="&#x20ac;" horiz-adv-x="607" 
d="M598 696l-19 -147q-148 0 -235 -84h177l-18 -100h-222q-6 -16 -9 -35q-2 -10 -2 -15h224l-17 -100h-187q51 -84 208 -84l-18 -147q-144 0 -236.5 63t-117.5 168h-106l17 100h82q1 10 5 35l3 15h-81l18 100h100q57 105 171 168t263 63z" />
    <glyph glyph-name="afii61289" unicode="&#x2113;" horiz-adv-x="604" 
d="M508 192l49 -59q-110 -145 -274 -145q-87 0 -129.5 42.5t-44.5 115.5v9q-6 -3 -28.5 -17.5t-35.5 -22.5l-26 70l105 66l41 233q24 137 90.5 201.5t158.5 64.5q83 0 117 -50.5t20 -125.5q-15 -88 -89 -171t-210 -180l-3 -23q-7 -49 18 -77t69 -28q45 0 91 28.5t81 68.5z
M303 513l-31 -175q164 136 181 235q15 88 -49 88q-30 0 -58.5 -35.5t-42.5 -112.5z" />
    <glyph glyph-name="trademark" unicode="&#x2122;" horiz-adv-x="591" 
d="M246 700l-13 -73h-78l-40 -229h-76l40 229h-78l13 73h232zM650 700l-53 -302h-75l29 170l-95 -170h-75l-36 175l-30 -175h-76l53 302h102l40 -199l112 199h104z" />
    <glyph glyph-name="Omega" unicode="&#x2126;" horiz-adv-x="854" 
d="M187 103l1 3q-56 43 -87 112.5t-15 160.5q24 134 143 226t279 92q162 0 245 -94t61 -222q-32 -173 -202 -275v-3h167l-18 -103h-318l14 79q178 90 211 278q17 96 -30.5 166.5t-146.5 70.5q-98 0 -173.5 -68.5t-94.5 -173.5q-16 -95 17 -167.5t97 -105.5l-14 -79h-319
l18 103h165z" />
    <glyph glyph-name="estimated" unicode="&#x212e;" horiz-adv-x="937" 
d="M903 330h-640q-6 0 -6 -4v-194q0 -13 9 -22q102 -105 242 -105q153 0 255 118h57q-54 -64 -136.5 -101t-176.5 -37q-164 0 -279.5 104t-115.5 251t116 251.5t279 104.5q164 0 280 -104.5t116 -251.5v-10zM758 355v195q0 13 -10 23q-103 101 -240 101q-139 0 -241 -104
q-10 -9 -10 -24v-191q0 -6 6 -6h490q5 0 5 6z" />
    <glyph glyph-name="uni2150" unicode="&#x2150;" horiz-adv-x="1025" 
d="M738 700l64 -45l-559 -675l-64 45zM270 240h-107l52 296q-48 -28 -121 -27l10 99q70 4 101.5 24t37.5 62l106 -5zM692 449h323l-13 -79l-254 -370h-122l240 347h-192z" />
    <glyph glyph-name="uni2151" unicode="&#x2151;" horiz-adv-x="996" 
d="M738 700l64 -45l-559 -675l-64 45zM270 240h-107l52 296q-48 -28 -121 -27l10 99q70 4 101.5 24t37.5 62l106 -5zM805 460q82 0 121 -65t20 -171q-19 -104 -82 -169t-147 -65q-46 0 -83.5 20t-56.5 54l81 55q17 -30 60 -30q60 0 102 70q-30 -15 -66 -15q-67 0 -108 48.5
t-28 117.5q12 64 65.5 107t121.5 43zM719 289q0 -23 16 -38.5t39 -15.5q29 0 50 21t22 51q0 24 -14.5 38t-37.5 14q-30 0 -52 -21t-23 -49z" />
    <glyph glyph-name="uni2152" unicode="&#x2152;" horiz-adv-x="1385" 
d="M738 700l64 -45l-559 -675l-64 45zM270 240h-107l52 296q-48 -28 -121 -27l10 99q70 4 101.5 24t37.5 62l106 -5zM1183 465q86 0 128 -70t23 -180q-18 -103 -79.5 -166.5t-141.5 -63.5q-87 0 -129.5 69.5t-22.5 180.5q19 104 79.5 167t142.5 63zM664 368q70 4 101.5 24
t37.5 62l106 -5l-79 -449h-107l52 296q-48 -28 -121 -27zM1229 235q7 60 -7.5 93t-49.5 33q-40 0 -69 -39.5t-37 -106.5q-7 -59 8 -92.5t49 -33.5q41 0 69.5 39.5t36.5 106.5z" />
    <glyph glyph-name="uni2153" unicode="&#x2153;" horiz-adv-x="996" 
d="M738 700l64 -45l-559 -675l-64 45zM270 240h-107l52 296q-48 -28 -121 -27l10 99q70 4 101.5 24t37.5 62l106 -5zM954 314q-10 -58 -68 -89q56 -40 42 -106q-11 -57 -62.5 -93t-119.5 -36q-70 0 -113 38.5t-47 101.5l104 19q-1 -28 15.5 -42.5t45.5 -14.5q30 0 52.5 15
t23.5 36q1 20 -17.5 30.5t-53.5 10.5h-53l16 89h51q37 0 57.5 15t21.5 35q1 17 -12.5 26t-33.5 9q-28 0 -50 -18.5t-32 -48.5l-96 38q25 62 74.5 96.5t111.5 34.5q71 0 112.5 -42.5t30.5 -103.5z" />
    <glyph glyph-name="uni2154" unicode="&#x2154;" horiz-adv-x="1061" 
d="M803 700l64 -45l-559 -675l-64 45zM383 342l-18 -102h-315l13 79l203 186q40 36 40 59q0 15 -11.5 24t-28.5 9q-28 0 -49 -22.5t-23 -51.5l-96 27q13 64 63.5 106.5t113.5 42.5q66 0 106 -45t29 -106q-12 -64 -75 -119l-103 -87h151zM1019 314q-10 -58 -68 -89
q56 -40 42 -106q-11 -57 -62.5 -93t-119.5 -36q-70 0 -113 38.5t-47 101.5l104 19q-1 -28 15.5 -42.5t45.5 -14.5q30 0 52.5 15t23.5 36q1 20 -17.5 30.5t-53.5 10.5h-53l16 89h51q37 0 57.5 15t21.5 35q1 17 -12.5 26t-33.5 9q-28 0 -50 -18.5t-32 -48.5l-96 38
q25 62 74.5 96.5t111.5 34.5q71 0 112.5 -42.5t30.5 -103.5z" />
    <glyph glyph-name="uni2155" unicode="&#x2155;" horiz-adv-x="996" 
d="M738 700l64 -45l-559 -675l-64 45zM270 240h-107l52 296q-48 -28 -121 -27l10 99q70 4 101.5 24t37.5 62l106 -5zM945 347h-185l-17 -51q24 7 50 7q70 0 111 -47t28 -115q-13 -65 -69 -108t-123 -43q-63 0 -104.5 39.5t-48.5 101.5l97 22q1 -27 20 -44t46 -17
q30 0 53.5 20t25.5 49q1 25 -14.5 38.5t-40.5 13.5q-44 0 -78 -41l-77 45l79 232h265z" />
    <glyph glyph-name="uni2156" unicode="&#x2156;" horiz-adv-x="1061" 
d="M803 700l64 -45l-559 -675l-64 45zM383 342l-18 -102h-315l13 79l203 186q40 36 40 59q0 15 -11.5 24t-28.5 9q-28 0 -49 -22.5t-23 -51.5l-96 27q13 64 63.5 106.5t113.5 42.5q66 0 106 -45t29 -106q-12 -64 -75 -119l-103 -87h151zM1010 347h-185l-17 -51q24 7 50 7
q70 0 111 -47t28 -115q-13 -65 -69 -108t-123 -43q-63 0 -104.5 39.5t-48.5 101.5l97 22q1 -27 20 -44t46 -17q30 0 53.5 20t25.5 49q1 25 -14.5 38.5t-40.5 13.5q-44 0 -78 -41l-77 45l79 232h265z" />
    <glyph glyph-name="uni2157" unicode="&#x2157;" horiz-adv-x="1043" 
d="M408 359q-11 -57 -62.5 -93t-119.5 -36q-70 0 -113 38.5t-47 101.5l104 19q-1 -28 15.5 -42.5t45.5 -14.5q30 0 52.5 15t23.5 36q1 20 -17.5 30.5t-53.5 10.5h-53l16 89h51q37 0 57.5 15t21.5 35q1 17 -12.5 26t-33.5 9q-28 0 -50 -18.5t-32 -48.5l-96 38
q25 62 74.5 96.5t111.5 34.5q71 0 112.5 -42.5t30.5 -103.5q-10 -58 -68 -89q56 -40 42 -106zM785 700l64 -45l-559 -675l-64 45zM992 347h-185l-17 -51q24 7 50 7q70 0 111 -47t28 -115q-13 -65 -69 -108t-123 -43q-63 0 -104.5 39.5t-48.5 101.5l97 22q1 -27 20 -44
t46 -17q30 0 53.5 20t25.5 49q1 25 -14.5 38.5t-40.5 13.5q-44 0 -78 -41l-77 45l79 232h265z" />
    <glyph glyph-name="uni2158" unicode="&#x2158;" horiz-adv-x="1069" 
d="M811 700l64 -45l-559 -675l-64 45zM349 240h-101l17 94h-205l12 76l191 279h115l-180 -262h83l21 120h101l-21 -120h64l-17 -93h-63zM1018 347h-185l-17 -51q24 7 50 7q70 0 111 -47t28 -115q-13 -65 -69 -108t-123 -43q-63 0 -104.5 39.5t-48.5 101.5l97 22
q1 -27 20 -44t46 -17q30 0 53.5 20t25.5 49q1 25 -14.5 38.5t-40.5 13.5q-44 0 -78 -41l-77 45l79 232h265z" />
    <glyph glyph-name="uni2159" unicode="&#x2159;" horiz-adv-x="986" 
d="M738 700l64 -45l-559 -675l-64 45zM270 240h-107l52 296q-48 -28 -121 -27l10 99q70 4 101.5 24t37.5 62l106 -5zM785 306q70 0 110 -50t27 -116q-12 -64 -66 -107t-122 -43q-82 0 -121 65t-20 171q19 104 82 169t147 65q47 0 84 -20.5t56 -54.5l-81 -54q-17 30 -60 30
q-60 0 -102 -70q30 15 66 15zM819 163q1 22 -15 37t-39 15q-29 0 -50 -21.5t-22 -50.5q-1 -24 14.5 -38t38.5 -14q29 0 50.5 21t22.5 51z" />
    <glyph glyph-name="uni215A" unicode="&#x215a;" horiz-adv-x="1023" 
d="M775 700l64 -45l-559 -675l-64 45zM412 381q-13 -65 -69 -108t-123 -43q-63 0 -104.5 39.5t-48.5 101.5l97 22q1 -27 20 -44t46 -17q30 0 53.5 20t25.5 49q1 25 -14.5 38.5t-40.5 13.5q-44 0 -78 -41l-77 45l79 232h265l-18 -102h-185l-17 -51q24 7 50 7q70 0 111 -47
t28 -115zM822 306q70 0 110 -50t27 -116q-12 -64 -66 -107t-122 -43q-82 0 -121 65t-20 171q19 104 82 169t147 65q47 0 84 -20.5t56 -54.5l-81 -54q-17 30 -60 30q-60 0 -102 -70q30 15 66 15zM856 163q1 22 -15 37t-39 15q-28 0 -49.5 -21.5t-22.5 -50.5q-1 -24 14.5 -38
t38.5 -14q29 0 50.5 21t22.5 51z" />
    <glyph glyph-name="oneeighth" unicode="&#x215b;" horiz-adv-x="1001" 
d="M738 700l64 -45l-559 -675l-64 45zM270 240h-107l52 296q-48 -28 -121 -27l10 99q70 4 101.5 24t37.5 62l106 -5zM957 311q-11 -54 -60 -83q49 -41 37 -105q-11 -58 -65 -95.5t-124 -37.5q-78 0 -124 45t-33 108q13 61 73 95q-40 35 -30 93q10 55 60.5 92t118.5 37
q74 0 117 -43.5t30 -105.5zM800 358q-28 0 -47 -15t-19 -36q0 -17 14.5 -26.5t36.5 -9.5q31 0 50 16.5t17 36.5q-1 16 -16.5 25t-35.5 9zM756 92q35 0 56 17.5t19 39.5q-1 17 -18.5 27.5t-43.5 10.5q-34 0 -56 -18.5t-20 -39.5q1 -17 19 -27t44 -10z" />
    <glyph glyph-name="threeeighths" unicode="&#x215c;" horiz-adv-x="1048" 
d="M408 359q-11 -57 -62.5 -93t-119.5 -36q-70 0 -113 38.5t-47 101.5l104 19q-1 -28 15.5 -42.5t45.5 -14.5q30 0 52.5 15t23.5 36q1 20 -17.5 30.5t-53.5 10.5h-53l16 89h51q37 0 57.5 15t21.5 35q1 17 -12.5 26t-33.5 9q-28 0 -50 -18.5t-32 -48.5l-96 38
q25 62 74.5 96.5t111.5 34.5q71 0 112.5 -42.5t30.5 -103.5q-10 -58 -68 -89q56 -40 42 -106zM785 700l64 -45l-559 -675l-64 45zM1004 311q-11 -54 -60 -83q49 -41 37 -105q-11 -58 -65 -95.5t-124 -37.5q-78 0 -124 45t-33 108q13 61 73 95q-40 35 -30 93q10 55 60.5 92
t118.5 37q74 0 117 -43.5t30 -105.5zM847 358q-28 0 -47 -15t-19 -36q0 -17 14.5 -26.5t36.5 -9.5q31 0 50 16.5t17 36.5q-1 16 -16.5 25t-35.5 9zM803 92q35 0 56 17.5t19 39.5q-1 17 -18.5 27.5t-43.5 10.5q-34 0 -56 -18.5t-20 -39.5q1 -17 19 -27t44 -10z" />
    <glyph glyph-name="fiveeighths" unicode="&#x215d;" horiz-adv-x="1038" 
d="M775 700l64 -45l-559 -675l-64 45zM412 381q-13 -65 -69 -108t-123 -43q-63 0 -104.5 39.5t-48.5 101.5l97 22q1 -27 20 -44t46 -17q30 0 53.5 20t25.5 49q1 25 -14.5 38.5t-40.5 13.5q-44 0 -78 -41l-77 45l79 232h265l-18 -102h-185l-17 -51q24 7 50 7q70 0 111 -47
t28 -115zM994 311q-11 -54 -60 -83q49 -41 37 -105q-11 -58 -65 -95.5t-124 -37.5q-78 0 -124 45t-33 108q13 61 73 95q-40 35 -30 93q10 55 60.5 92t118.5 37q74 0 117 -43.5t30 -105.5zM837 358q-28 0 -47 -15t-19 -36q0 -17 14.5 -26.5t36.5 -9.5q31 0 50 16.5t17 36.5
q-1 16 -16.5 25t-35.5 9zM793 92q35 0 56 17.5t19 39.5q-1 17 -18.5 27.5t-43.5 10.5q-34 0 -56 -18.5t-20 -39.5q1 -17 19 -27t44 -10z" />
    <glyph glyph-name="seveneighths" unicode="&#x215e;" horiz-adv-x="957" 
d="M694 700l64 -45l-559 -675l-64 45zM178 240h-122l240 347h-192l18 102h323l-13 -79zM913 311q-11 -54 -60 -83q49 -41 37 -105q-11 -58 -65 -95.5t-124 -37.5q-78 0 -124 45t-33 108q13 61 73 95q-40 35 -30 93q10 55 60.5 92t118.5 37q74 0 117 -43.5t30 -105.5z
M756 358q-28 0 -47 -15t-19 -36q0 -17 14.5 -26.5t36.5 -9.5q31 0 50 16.5t17 36.5q-1 16 -16.5 25t-35.5 9zM712 92q35 0 56 17.5t19 39.5q-1 17 -18.5 27.5t-43.5 10.5q-34 0 -56 -18.5t-20 -39.5q1 -17 19 -27t44 -10z" />
    <glyph glyph-name="uni215F" unicode="&#x215f;" horiz-adv-x="562" 
d="M738 700l64 -45l-559 -675l-64 45zM270 240h-107l52 296q-48 -28 -121 -27l10 99q70 4 101.5 24t37.5 62l106 -5z" />
    <glyph glyph-name="uni2189" unicode="&#x2189;" horiz-adv-x="1065" 
d="M457 455q-18 -103 -79.5 -166.5t-141.5 -63.5q-87 0 -129.5 69.5t-22.5 180.5q19 104 79.5 167t142.5 63q86 0 128 -70t23 -180zM807 700l64 -45l-559 -675l-64 45zM352 475q7 60 -7.5 93t-49.5 33q-40 0 -69 -39.5t-37 -106.5q-7 -59 8 -92.5t49 -33.5q41 0 69.5 39.5
t36.5 106.5zM1023 314q-10 -58 -68 -89q56 -40 42 -106q-11 -57 -62.5 -93t-119.5 -36q-70 0 -113 38.5t-47 101.5l104 19q-1 -28 15.5 -42.5t45.5 -14.5q30 0 52.5 15t23.5 36q1 20 -17.5 30.5t-53.5 10.5h-53l16 89h51q37 0 57.5 15t21.5 35q1 17 -12.5 26t-33.5 9
q-28 0 -50 -18.5t-32 -48.5l-96 38q25 62 74.5 96.5t111.5 34.5q71 0 112.5 -42.5t30.5 -103.5z" />
    <glyph glyph-name="partialdiff" unicode="&#x2202;" horiz-adv-x="659" 
d="M178 617l-26 90q97 60 226 60q138 0 212 -103t43 -276q-31 -174 -140.5 -287.5t-257.5 -113.5q-60 0 -104.5 22.5t-66.5 58.5t-29.5 76t-0.5 79q19 111 102 182.5t191 71.5q68 0 110 -32t57 -65h1q2 5 4 18t3 15q19 107 -25 178.5t-134 71.5q-86 0 -165 -46zM267 91h1
q63 0 116.5 56.5t77.5 130.5q-5 33 -37.5 65.5t-84.5 32.5q-60 0 -109 -44.5t-60 -108.5q-10 -56 17 -94t79 -38z" />
    <glyph glyph-name="Delta" unicode="&#x2206;" horiz-adv-x="767" 
d="M-15 0l13 73l383 629h167l158 -628l-13 -74h-708zM151 104h403l-80 317q-34 161 -35 166h-5q-9 -18 -42 -77.5t-41 -73.5z" />
    <glyph glyph-name="product" unicode="&#x220f;" horiz-adv-x="899" 
d="M877 571h-123v-665h-135v665h-261v-665h-135v665h-123v114h777v-114z" />
    <glyph glyph-name="summation" unicode="&#x2211;" horiz-adv-x="725" 
d="M706 -94h-606v76l282 310l-269 305v88h573v-112h-381v-3l234 -262l-255 -284v-4h422v-114z" />
    <glyph glyph-name="minus" unicode="&#x2212;" horiz-adv-x="600" 
d="M65 280l21 120h480l-21 -120h-480z" />
    <glyph glyph-name="radical" unicode="&#x221a;" horiz-adv-x="752" 
d="M771 816l-264 -962h-110l-179 435l-83 -33l-24 68l187 76l131 -340q4 -13 12 -38t12 -37h1l8 36t10 43l201 752h98z" />
    <glyph glyph-name="infinity" unicode="&#x221e;" horiz-adv-x="872" 
d="M820 284v-1q0 -82 -51 -132t-121 -50q-97 0 -194 122q-49 -59 -94 -90.5t-104 -31.5q-68 0 -118 50.5t-50 126.5q0 79 51 129.5t127 50.5q99 0 194 -119q2 3 14 16t15.5 17t15 15.5t17 16t17.5 14.5t20 14t20.5 10.5t23 9t24 4.5t27.5 2q72 0 119 -48t47 -126zM265 173h2
q22 0 42 8t42 28t31 29.5t33 36.5q-51 67 -76 87q-36 27 -78 27q-44 0 -71.5 -31.5t-27.5 -79.5q0 -43 29.5 -74t73.5 -31zM647 389h-1q-16 0 -32 -6t-27.5 -13t-27 -21t-22.5 -21.5t-22 -25t-18 -20.5q50 -61 83 -85t71 -24q42 0 68 33t26 72q0 49 -27 80t-71 31z" />
    <glyph glyph-name="integral" unicode="&#x222b;" horiz-adv-x="495" 
d="M484 833l-15 -84q-20 9 -43 9q-38 0 -58 -26q-31 -38 -31 -164q0 -77 9 -230t9 -241q0 -128 -42 -194q-42 -72 -137 -72q-55 0 -87 17l17 88q26 -12 51 -12q33 0 52 21q34 40 34 154q0 89 -9 245t-9 237q0 84 16 136t51 86q45 44 124 44q38 0 68 -14z" />
    <glyph glyph-name="approxequal" unicode="&#x2248;" horiz-adv-x="664" 
d="M572 456l48 -49q-67 -104 -154 -104q-33 0 -58.5 9.5t-70.5 34.5q-62 34 -98 34q-34 0 -59 -19.5t-54 -56.5l-48 48q26 46 71 75t95 29q52 0 119 -39q4 -2 13.5 -7.5t12.5 -7t11 -6t11 -5.5t9.5 -4t10.5 -3.5t10 -2t11.5 -2t11.5 -0.5q57 0 108 76zM572 259l48 -49
q-66 -104 -155 -104q-32 0 -58 10t-70 34q-62 34 -98 34q-24 0 -45.5 -12t-35 -25.5t-32.5 -38.5l-48 48q26 45 71.5 74.5t94.5 29.5q50 0 119 -38q5 -3 19 -11t20 -11t17.5 -8t22 -7t22.5 -2q32 0 56 18t52 58z" />
    <glyph glyph-name="notequal" unicode="&#x2260;" horiz-adv-x="600" 
d="M565 390h-165l-64 -100h211l-21 -120h-268l-58 -90h-124l58 90h-88l21 120h144l65 100h-191l21 120h247l58 90h125l-58 -90h108z" />
    <glyph glyph-name="lessequal" unicode="&#x2264;" horiz-adv-x="600" 
d="M605 621l-18 -109l-309 -102l272 -102l-19 -109l-449 174l12 74zM28 67l17 100h480l-17 -100h-480z" />
    <glyph glyph-name="greaterequal" unicode="&#x2265;" horiz-adv-x="600" 
d="M125 621l449 -174l-12 -74l-511 -174l19 109l308 102l-271 102zM28 67l17 100h480l-17 -100h-480z" />
    <glyph glyph-name="lozenge" unicode="&#x25ca;" horiz-adv-x="753" 
d="M699 342l-232 -392h-105l-229 392l231 392h105zM579 339l-143 251q-14 28 -20 46h-3q-9 -24 -21 -46l-140 -246l144 -253q15 -29 19 -44h3q9 25 19 43z" />
    <glyph glyph-name="i.loclTRK" horiz-adv-x="292" 
d="M207 550q-39 0 -62.5 29t-16.5 69q6 32 33.5 54.5t61.5 22.5q38 0 61.5 -28.5t16.5 -68.5q-6 -33 -33.5 -55.5t-60.5 -22.5zM115 500h150l-88 -500h-150z" />
    <glyph glyph-name="a.ss01" horiz-adv-x="619" 
d="M450 500h145l-88 -500h-145l8 47q-60 -62 -148 -62q-86 0 -139 59.5t-53 153.5q0 124 80.5 220.5t191.5 96.5q92 0 138 -70zM270 125q47 0 86.5 35.5t49.5 90.5l2 11q1 7 1 19q0 45 -26.5 69.5t-65.5 24.5q-54 0 -95.5 -44.5t-41.5 -110.5q0 -43 25.5 -69t64.5 -26z" />
    <glyph glyph-name="three.ss01" horiz-adv-x="591" 
d="M595 680l-19 -113l-170 -149q71 -12 110.5 -67.5t24.5 -135.5q-19 -98 -103.5 -164.5t-188.5 -66.5q-93 0 -153 56.5t-69 148.5l144 35q-1 -46 25.5 -71.5t69.5 -25.5q50 0 88 32t42 79q3 37 -17.5 58t-53.5 21q-50 0 -74 -38l-80 92l184 167h-237l25 142h452z" />
    <glyph glyph-name="zero.tf" horiz-adv-x="640" 
d="M280 -16q-126 0 -187 102t-32 264q27 155 118 250.5t212 95.5q127 0 188.5 -102t32.5 -264q-27 -155 -118.5 -250.5t-213.5 -95.5zM302 127q63 0 107 60t57 163q12 96 -13.5 149.5t-82.5 53.5q-63 0 -107 -60t-57 -163q-12 -96 13.5 -149.5t82.5 -53.5z" />
    <glyph glyph-name="one.tf" horiz-adv-x="640" 
d="M391 142h160l-25 -142h-477l25 142h166l56 324q-62 -49 -170 -49l17 137q96 7 138.5 37t54.5 94l150 -5z" />
    <glyph glyph-name="two.tf" horiz-adv-x="640" 
d="M588 475q-9 -47 -39.5 -96t-76.5 -87l-176 -150h246l-25 -142h-472l18 112l326 295q51 46 53 83q1 28 -20 45.5t-53 17.5q-43 0 -75.5 -32.5t-36.5 -77.5l-138 34q21 94 98 156.5t170 62.5q98 0 158 -67t43 -154z" />
    <glyph glyph-name="three.tf" horiz-adv-x="640" 
d="M586 482q-18 -94 -113 -140q94 -55 74 -161q-17 -88 -97 -143t-182 -55t-165.5 55.5t-71.5 144.5l147 32q1 -43 28.5 -66t71.5 -23q49 0 86 26t40 63q5 69 -117 69h-72l22 122h73q54 0 89.5 24t38.5 60q2 28 -19 45.5t-59 17.5q-93 0 -131 -98l-136 49q38 90 114.5 141
t167.5 51q104 0 166.5 -61t44.5 -153z" />
    <glyph glyph-name="four.tf" horiz-adv-x="640" 
d="M603 274l-22 -128h-108l-26 -146h-142l26 146h-317l17 108l293 426h159l-280 -406h150l33 187h142l-33 -187h108z" />
    <glyph glyph-name="five.tf" horiz-adv-x="640" 
d="M583 538h-285l-32 -97q44 15 93 15q101 0 162 -68.5t42 -168.5q-19 -99 -105.5 -166t-188.5 -67q-92 0 -154 57t-73 147l137 34q5 -41 35.5 -68.5t73.5 -27.5q48 0 86.5 31.5t42.5 79.5q4 40 -22 66t-71 26q-67 0 -121 -60l-108 63l117 346h396z" />
    <glyph glyph-name="six.tf" horiz-adv-x="640" 
d="M370 458q102 0 162 -71.5t41 -172.5q-17 -95 -100 -162.5t-187 -67.5q-125 0 -181.5 97.5t-28.5 255.5q28 160 127 259.5t226 99.5q66 0 119.5 -28t83.5 -77l-113 -79q-35 46 -98 46q-53 0 -100.5 -38.5t-76.5 -101.5q55 40 126 40zM427 238q4 40 -21.5 67.5t-66.5 27.5
q-46 0 -82 -34t-40 -81q-3 -40 22.5 -66.5t66.5 -26.5q46 0 81 33t40 80z" />
    <glyph glyph-name="seven.tf" horiz-adv-x="640" 
d="M153 680h486l-19 -114l-391 -566h-169l372 538h-304z" />
    <glyph glyph-name="eight.tf" horiz-adv-x="640" 
d="M609 478q-18 -85 -100 -131q81 -60 63 -159q-16 -87 -98 -145.5t-191 -58.5q-116 0 -183 65.5t-49 158.5q20 97 118 148q-68 53 -52 142q15 84 93 141t181 57q111 0 173.5 -64.5t44.5 -153.5zM260 468q-1 -29 24 -47t64 -18q47 0 79.5 26t33.5 59q1 31 -24.5 48t-62.5 17
q-47 0 -80 -26t-34 -59zM428 217q1 33 -28 52t-72 19q-54 0 -91.5 -27t-38.5 -64q-1 -34 28.5 -52t72.5 -18q53 0 90.5 26.5t38.5 63.5z" />
    <glyph glyph-name="nine.tf" horiz-adv-x="640" 
d="M375 696q126 0 183 -97.5t28 -254.5q-29 -161 -128 -260t-225 -99q-66 0 -119.5 28t-83.5 76l113 80q33 -46 98 -46q52 0 99.5 38t76.5 101q-56 -39 -127 -39q-101 0 -160 71.5t-41 172.5q17 95 100 162t186 67zM325 348q45 0 80.5 33t37.5 81q2 42 -23 68t-65 26
q-46 0 -83 -33.5t-38 -80.5q-1 -41 25 -67.5t66 -26.5z" />
    <glyph glyph-name="zero.dnom" horiz-adv-x="466" 
d="M194 -15q-87 0 -129.5 69.5t-22.5 180.5q19 104 79.5 167t142.5 63q86 0 128 -70t23 -180q-18 -103 -79.5 -166.5t-141.5 -63.5zM204 89q41 0 69.5 39.5t36.5 106.5q7 60 -7.5 93t-49.5 33q-40 0 -69 -39.5t-37 -106.5q-7 -59 8 -92.5t49 -33.5z" />
    <glyph glyph-name="one.dnom" horiz-adv-x="317" 
d="M201 454l106 -5l-79 -449h-107l52 296q-48 -28 -121 -27l10 99q70 4 101.5 24t37.5 62z" />
    <glyph glyph-name="two.dnom" horiz-adv-x="412" 
d="M368 308q-12 -64 -75 -119l-103 -87h151l-18 -102h-315l13 79l203 186q40 36 40 59q0 15 -11.5 24t-28.5 9q-28 0 -49 -22.5t-23 -51.5l-96 27q13 64 63.5 106.5t113.5 42.5q66 0 106 -45t29 -106z" />
    <glyph glyph-name="three.dnom" horiz-adv-x="434" 
d="M392 314q-10 -58 -68 -89q56 -40 42 -106q-11 -57 -62.5 -93t-119.5 -36q-70 0 -113 38.5t-47 101.5l104 19q-1 -28 15.5 -42.5t45.5 -14.5q30 0 52.5 15t23.5 36q1 20 -17.5 30.5t-53.5 10.5h-53l16 89h51q37 0 57.5 15t21.5 35q1 17 -12.5 26t-33.5 9q-28 0 -50 -18.5
t-32 -48.5l-96 38q25 62 74.5 96.5t111.5 34.5q71 0 112.5 -42.5t30.5 -103.5z" />
    <glyph glyph-name="four.dnom" horiz-adv-x="460" 
d="M404 187l-17 -93h-63l-17 -94h-101l17 94h-205l12 76l191 279h115l-180 -262h83l21 120h101l-21 -120h64z" />
    <glyph glyph-name="five.dnom" horiz-adv-x="434" 
d="M383 347h-185l-17 -51q24 7 50 7q70 0 111 -47t28 -115q-13 -65 -69 -108t-123 -43q-63 0 -104.5 39.5t-48.5 101.5l97 22q1 -27 20 -44t46 -17q30 0 53.5 20t25.5 49q1 25 -14.5 38.5t-40.5 13.5q-44 0 -78 -41l-77 45l79 232h265z" />
    <glyph glyph-name="six.dnom" horiz-adv-x="434" 
d="M233 306q70 0 110 -50t27 -116q-12 -64 -66 -107t-122 -43q-82 0 -121 65t-20 171q19 104 82 169t147 65q47 0 84 -20.5t56 -54.5l-81 -54q-17 30 -60 30q-60 0 -102 -70q30 15 66 15zM267 163q1 22 -15 37t-39 15q-29 0 -50 -21.5t-22 -50.5q-1 -24 14.5 -38t38.5 -14
q29 0 50.5 21t22.5 51z" />
    <glyph glyph-name="seven.dnom" horiz-adv-x="413" 
d="M80 449h323l-13 -79l-254 -370h-122l240 347h-192z" />
    <glyph glyph-name="eight.dnom" horiz-adv-x="439" 
d="M395 311q-11 -54 -60 -83q49 -41 37 -105q-11 -58 -65 -95.5t-124 -37.5q-78 0 -124 45t-33 108q13 61 73 95q-40 35 -30 93q10 55 60.5 92t118.5 37q74 0 117 -43.5t30 -105.5zM238 358q-28 0 -47 -15t-19 -36q0 -17 14.5 -26.5t36.5 -9.5q31 0 50 16.5t17 36.5
q-1 16 -16.5 25t-35.5 9zM194 92q35 0 56 17.5t19 39.5q-1 17 -18.5 27.5t-43.5 10.5q-34 0 -56 -18.5t-20 -39.5q1 -17 19 -27t44 -10z" />
    <glyph glyph-name="nine.dnom" horiz-adv-x="434" 
d="M243 460q82 0 121 -65t20 -171q-19 -104 -82 -169t-147 -65q-46 0 -83.5 20t-56.5 54l81 55q17 -30 60 -30q60 0 102 70q-30 -15 -66 -15q-67 0 -108 48.5t-28 117.5q12 64 65.5 107t121.5 43zM157 289q0 -23 16 -38.5t39 -15.5q29 0 50 21t22 51q0 24 -14.5 38t-37.5 14
q-30 0 -52 -21t-23 -49z" />
    <glyph glyph-name="zero.numr" horiz-adv-x="466" 
d="M236 225q-87 0 -129.5 69.5t-22.5 180.5q19 104 79.5 167t142.5 63q86 0 128 -70t23 -180q-18 -103 -79.5 -166.5t-141.5 -63.5zM246 329q41 0 69.5 39.5t36.5 106.5q7 60 -7.5 93t-49.5 33q-40 0 -69 -39.5t-37 -106.5q-7 -59 8 -92.5t49 -33.5z" />
    <glyph glyph-name="one.numr" horiz-adv-x="317" 
d="M243 694l106 -5l-79 -449h-107l52 296q-48 -28 -121 -27l10 99q70 4 101.5 24t37.5 62z" />
    <glyph glyph-name="two.numr" horiz-adv-x="412" 
d="M410 548q-12 -64 -75 -119l-103 -87h151l-18 -102h-315l13 79l203 186q40 36 40 59q0 15 -11.5 24t-28.5 9q-28 0 -49 -22.5t-23 -51.5l-96 27q13 64 63.5 106.5t113.5 42.5q66 0 106 -45t29 -106z" />
    <glyph glyph-name="three.numr" horiz-adv-x="434" 
d="M434 554q-10 -58 -68 -89q56 -40 42 -106q-11 -57 -62.5 -93t-119.5 -36q-70 0 -113 38.5t-47 101.5l104 19q-1 -28 15.5 -42.5t45.5 -14.5q30 0 52.5 15t23.5 36q1 20 -17.5 30.5t-53.5 10.5h-53l16 89h51q37 0 57.5 15t21.5 35q1 17 -12.5 26t-33.5 9q-28 0 -50 -18.5
t-32 -48.5l-96 38q25 62 74.5 96.5t111.5 34.5q71 0 112.5 -42.5t30.5 -103.5z" />
    <glyph glyph-name="four.numr" horiz-adv-x="460" 
d="M446 427l-17 -93h-63l-17 -94h-101l17 94h-205l12 76l191 279h115l-180 -262h83l21 120h101l-21 -120h64z" />
    <glyph glyph-name="five.numr" horiz-adv-x="434" 
d="M425 587h-185l-17 -51q24 7 50 7q70 0 111 -47t28 -115q-13 -65 -69 -108t-123 -43q-63 0 -104.5 39.5t-48.5 101.5l97 22q1 -27 20 -44t46 -17q30 0 53.5 20t25.5 49q1 25 -14.5 38.5t-40.5 13.5q-44 0 -78 -41l-77 45l79 232h265z" />
    <glyph glyph-name="six.numr" horiz-adv-x="434" 
d="M275 546q70 0 110 -50t27 -116q-12 -64 -66 -107t-122 -43q-82 0 -121 65t-20 171q19 104 82 169t147 65q47 0 84 -20.5t56 -54.5l-81 -54q-17 30 -60 30q-60 0 -102 -70q30 15 66 15zM309 403q1 22 -15 37t-39 15q-29 0 -50 -21.5t-22 -50.5q-1 -24 14.5 -38t38.5 -14
q29 0 50.5 21t22.5 51z" />
    <glyph glyph-name="seven.numr" horiz-adv-x="413" 
d="M122 689h323l-13 -79l-254 -370h-122l240 347h-192z" />
    <glyph glyph-name="eight.numr" horiz-adv-x="439" 
d="M437 551q-11 -54 -60 -83q49 -41 37 -105q-11 -58 -65 -95.5t-124 -37.5q-78 0 -124 45t-33 108q13 61 73 95q-40 35 -30 93q10 55 60.5 92t118.5 37q74 0 117 -43.5t30 -105.5zM280 598q-28 0 -47 -15t-19 -36q0 -17 14.5 -26.5t36.5 -9.5q31 0 50 16.5t17 36.5
q-1 16 -16.5 25t-35.5 9zM236 332q35 0 56 17.5t19 39.5q-1 17 -18.5 27.5t-43.5 10.5q-34 0 -56 -18.5t-20 -39.5q1 -17 19 -27t44 -10z" />
    <glyph glyph-name="nine.numr" horiz-adv-x="434" 
d="M285 700q82 0 121 -65t20 -171q-19 -104 -82 -169t-147 -65q-46 0 -83.5 20t-56.5 54l81 55q17 -30 60 -30q60 0 102 70q-30 -15 -66 -15q-67 0 -108 48.5t-28 117.5q12 64 65.5 107t121.5 43zM199 529q0 -23 16 -38.5t39 -15.5q29 0 50 21t22 51q0 24 -14.5 38t-37.5 14
q-30 0 -52 -21t-23 -49z" />
    </font>
</defs>
</svg>
