<?xml version="1.0" standalone="no"?>
<!DOCTYPE svg PUBLIC "-//W3C//DTD SVG 1.1//EN" "http://www.w3.org/Graphics/SVG/1.1/DTD/svg11.dtd" >
<svg xmlns="http://www.w3.org/2000/svg" xmlns:xlink="http://www.w3.org/1999/xlink" version="1.1">
<metadata>
Created by FontForge 20170731 at Wed Jan 11 14:54:26 2017
 By Aleksey,,,
Copyright (c) 2016 by Alex Sheyn. All rights reserved.
</metadata>
<defs>
<font id="ATCArquette-Black" horiz-adv-x="0" >
  <font-face 
    font-family="ATC Arquette Black"
    font-weight="900"
    font-stretch="normal"
    units-per-em="1000"
    panose-1="0 0 10 0 0 0 0 0 0 0"
    ascent="800"
    descent="-200"
    x-height="500"
    cap-height="680"
    bbox="-655 -288 1286 945"
    underline-thickness="50"
    underline-position="-200"
    unicode-range="U+0020-FB02"
  />
<missing-glyph horiz-adv-x="460" 
d="M377 700v-920h-291v920h291zM306 638h-151v-30h59v-34h-60v-30h152v30h-60v34h60v30zM246 520h-92v-96h152v31h-60v65zM214 488v-33h-30v33h30zM306 399h-152v-30h60v-34h-60v-31h92v65h60v30zM306 344h-30v-61h-122v-31h152v92zM306 232h-92v-52h32v21h30v-43h-92v74
h-30v-104h152v104zM306 73h-152v-104h152v104zM276 42v-43h-92v43h92zM306 -53h-152v-30h64l-64 -43v-31h152v31h-93l64 43h29v30z" />
    <glyph glyph-name="fi" unicode="fi" horiz-adv-x="662" 
d="M519 546q-44 0 -73.5 25t-29.5 67q0 41 29.5 66t73.5 25q42 0 71.5 -25t29.5 -66t-29.5 -66.5t-71.5 -25.5zM608 500v-500h-180v354h-165v-354h-177v354h-74v146h74v25q0 89 45.5 132t140.5 43h90v-136h-49q-29 0 -39.5 -11t-10.5 -43v-10h345z" />
    <glyph glyph-name="fl" unicode="fl" horiz-adv-x="652" 
d="M420 700h186v-700h-186v354h-157v-354h-177v354h-74v146h74v25q0 89 45.5 132t140.5 43h90v-136h-49q-29 0 -39.5 -11t-10.5 -43v-10h157v200z" />
    <glyph glyph-name="f_f" unicode="ff" horiz-adv-x="718" 
d="M657 564q-29 0 -39.5 -11t-10.5 -43v-10h99v-146h-99v-354h-177v354h-167v-354h-177v354h-74v146h74v25q0 89 45.5 132t140.5 43h90v-136h-49q-29 0 -39.5 -11t-10.5 -43v-10h167v25q0 89 45.5 132t140.5 43h90v-136h-49z" />
    <glyph glyph-name="f_f_i" unicode="ffi" horiz-adv-x="1006" 
d="M863 546q-44 0 -73.5 25t-29.5 67q0 41 29.5 66t73.5 25q42 0 71.5 -25t29.5 -66t-29.5 -66.5t-71.5 -25.5zM952 500v-500h-180v354h-166v-354h-177v354h-166v-354h-177v354h-74v146h74v25q0 89 45.5 132t140.5 43h90v-136h-49q-29 0 -39.5 -11t-10.5 -43v-10h166v25
q0 89 45.5 132t140.5 43h90v-136h-49q-29 0 -39.5 -11t-10.5 -43v-10h346z" />
    <glyph glyph-name="f_f_l" unicode="ffl" horiz-adv-x="996" 
d="M764 700h186v-700h-186v354h-162v-354h-177v354h-162v-354h-177v354h-74v146h74v25q0 89 45.5 132t140.5 43h90v-136h-49q-29 0 -39.5 -11t-10.5 -43v-10h162v25q0 89 45.5 132t140.5 43h90v-136h-49q-29 0 -39.5 -11t-10.5 -43v-10h162v200z" />
    <glyph glyph-name=".notdef" horiz-adv-x="460" 
d="M377 700v-920h-291v920h291zM306 638h-151v-30h59v-34h-60v-30h152v30h-60v34h60v30zM246 520h-92v-96h152v31h-60v65zM214 488v-33h-30v33h30zM306 399h-152v-30h60v-34h-60v-31h92v65h60v30zM306 344h-30v-61h-122v-31h152v92zM306 232h-92v-52h32v21h30v-43h-92v74
h-30v-104h152v104zM306 73h-152v-104h152v104zM276 42v-43h-92v43h92zM306 -53h-152v-30h64l-64 -43v-31h152v31h-93l64 43h29v30z" />
    <glyph glyph-name=".null" 
 />
    <glyph glyph-name="nonmarkingreturn" horiz-adv-x="333" 
 />
    <glyph glyph-name="space" unicode=" " horiz-adv-x="250" 
 />
    <glyph glyph-name="exclam" unicode="!" horiz-adv-x="366" 
d="M105 215l-35 465h226l-35 -465h-156zM184 168q42 0 71.5 -25.5t29.5 -66.5t-29.5 -66t-71.5 -25q-44 0 -73.5 25t-29.5 66q0 42 29.5 67t73.5 25z" />
    <glyph glyph-name="quotedbl" unicode="&#x22;" horiz-adv-x="470" 
d="M30 700h190l-38 -317h-114zM250 700h190l-38 -317h-114z" />
    <glyph glyph-name="numbersign" unicode="#" horiz-adv-x="752" 
d="M700 390h-103l-19 -100h76v-154h-105l-26 -136h-161l26 136h-103l-26 -136h-161l26 136h-72v154h102l19 100h-74v154h104l26 136h160l-26 -136h104l26 136h159l-26 -136h74v-154zM418 290l19 100h-103l-20 -100h104z" />
    <glyph glyph-name="dollar" unicode="$" horiz-adv-x="594" 
d="M570 203q0 -98 -77 -158t-205 -61l-15 -107l-98 15l14 102q-77 17 -130 59t-67 99l151 58q18 -43 67 -63l18 123q-108 32 -157.5 82.5t-49.5 127.5q0 97 73.5 156t192.5 60l15 107l99 -15l-15 -105q68 -18 114.5 -59t60.5 -97l-145 -57q-13 35 -52 58l-16 -116
q49 -14 83.5 -29t69 -39t52 -59.5t17.5 -81.5zM194 496q0 -33 58 -55l15 110q-34 -2 -53.5 -17t-19.5 -38zM309 131q40 3 63 17.5t23 38.5q0 36 -70 58z" />
    <glyph glyph-name="percent" unicode="%" horiz-adv-x="902" 
d="M605 701l114 -74l-425 -648l-114 74zM211 696q73 0 126 -52.5t53 -126.5q0 -76 -53 -128.5t-126 -52.5t-127 53t-54 128q0 74 54 126.5t127 52.5zM211 584q-28 0 -48.5 -19.5t-20.5 -47.5q0 -29 20.5 -49t48.5 -20q27 0 47 20t20 49q0 28 -20 47.5t-47 19.5zM693 344
q73 0 126 -52.5t53 -126.5q0 -76 -53 -128.5t-126 -52.5t-127 53t-54 128q0 74 54 126.5t127 52.5zM693 232q-28 0 -48.5 -19.5t-20.5 -47.5q0 -29 20.5 -49t48.5 -20q27 0 47 20t20 49q0 28 -20 47.5t-47 19.5z" />
    <glyph glyph-name="ampersand" unicode="&#x26;" horiz-adv-x="762" 
d="M732 83l-117 -110l-85 80q-97 -69 -209 -69q-107 0 -185.5 60t-78.5 151q0 112 136 184q-58 71 -58 136q0 80 63.5 130.5t156.5 50.5q94 0 158 -51t64 -130q0 -99 -117 -172l62 -60q32 51 42 105l155 -40q-22 -99 -77 -179zM360 551q-22 0 -37 -12.5t-15 -30.5
q0 -20 42 -61q61 29 61 60q0 19 -14.5 31.5t-36.5 12.5zM323 150q40 0 82 22l-101 95q-35 -16 -49.5 -29t-14.5 -31q0 -25 24 -41t59 -16z" />
    <glyph glyph-name="quotesingle" unicode="'" horiz-adv-x="298" 
d="M98 700h190l-166 -317h-113z" />
    <glyph glyph-name="parenleft" unicode="(" horiz-adv-x="458" 
d="M408 -58l-107 -107q-114 89 -177.5 203t-63.5 230q0 114 63.5 227.5t178.5 204.5l106 -107q-78 -68 -122 -152t-44 -173t44 -173.5t122 -152.5z" />
    <glyph glyph-name="parenright" unicode=")" horiz-adv-x="458" 
d="M50 -58q78 68 122 152.5t44 173.5t-44 173t-122 152l106 107q115 -91 178.5 -204.5t63.5 -227.5q0 -116 -63.5 -230t-177.5 -203z" />
    <glyph glyph-name="asterisk" unicode="*" horiz-adv-x="450" 
d="M390 555l-85 -35l85 -35l-52 -90l-73 55l13 -90h-106l13 90l-73 -55l-52 90l85 35l-85 35l52 90l73 -55l-13 90h106l-13 -90l73 55z" />
    <glyph glyph-name="plus" unicode="+" horiz-adv-x="632" 
d="M572 415v-150h-181v-181h-150v181h-181v150h181v181h150v-181h181z" />
    <glyph glyph-name="comma" unicode="," horiz-adv-x="330" 
d="M98 167h190l-166 -317h-113z" />
    <glyph glyph-name="hyphen" unicode="-" horiz-adv-x="470" 
d="M65 370h340v-170h-340v170z" />
    <glyph glyph-name="period" unicode="." horiz-adv-x="288" 
d="M145 -15q-45 0 -76.5 31t-31.5 76q0 43 32 74t76 31q43 0 74.5 -31t31.5 -74q0 -45 -31.5 -76t-74.5 -31z" />
    <glyph glyph-name="slash" unicode="/" horiz-adv-x="643" 
d="M174 -150l475 980h-195l-475 -980h195z" />
    <glyph glyph-name="zero" unicode="0" horiz-adv-x="632" 
d="M316 -16q-125 0 -206.5 99.5t-81.5 256.5t81.5 256.5t206.5 99.5q126 0 207 -99.5t81 -256.5t-81 -256.5t-207 -99.5zM316 161q46 1 74 50t28 129q0 81 -28 130t-74 49t-73.5 -49t-27.5 -130t27.5 -130t73.5 -49z" />
    <glyph glyph-name="one" unicode="1" horiz-adv-x="410" 
d="M178 680h188v-680h-188v452q-56 -64 -186 -64v167q107 8 146.5 34.5t39.5 90.5z" />
    <glyph glyph-name="two" unicode="2" horiz-adv-x="532" 
d="M290 167h224v-167h-494v131l272 283q28 28 28 60q0 23 -16.5 39t-41.5 16q-35 0 -55 -32.5t-9 -77.5l-182 32q-1 103 71.5 174t175.5 71q98 0 169 -64t71 -152q0 -95 -96 -193z" />
    <glyph glyph-name="three" unicode="3" horiz-adv-x="530" 
d="M418 348q102 -54 102 -157q0 -91 -76.5 -149t-183.5 -58q-103 0 -175 55t-89 150l167 51q-4 -38 22.5 -63t69.5 -25q35 0 58.5 18t23.5 45q0 25 -24 42t-60 17h-74v145h74q30 0 50 15.5t20 38.5q0 24 -20.5 40.5t-50.5 16.5q-37 0 -60 -22t-20 -55l-168 43q19 93 88 147
t166 54q103 0 175.5 -56.5t72.5 -145.5q0 -96 -88 -147z" />
    <glyph glyph-name="four" unicode="4" horiz-adv-x="574" 
d="M567 289v-160h-86v-129h-177v129h-308v150l202 401h194l-202 -391h114v151h177v-151h86z" />
    <glyph glyph-name="five" unicode="5" horiz-adv-x="551" 
d="M298 462q95 0 165 -65t70 -159q0 -104 -83 -177.5t-193 -73.5q-95 0 -167.5 57t-93.5 148l180 54q2 -39 27 -65.5t61 -26.5t60.5 23.5t24.5 58.5q0 34 -23.5 57t-58.5 23q-25 0 -50.5 -14t-38.5 -35l-170 59l57 354h431v-161h-287l-13 -80q46 23 102 23z" />
    <glyph glyph-name="six" unicode="6" horiz-adv-x="610" 
d="M350 452q98 0 164 -62.5t66 -159.5q0 -106 -78 -176t-189 -70q-128 0 -206.5 95t-78.5 248q0 163 88 266t222 103q71 0 134.5 -30t96.5 -80l-124 -113q-12 26 -41 43t-63 17q-47 0 -79 -33t-41 -86q56 38 129 38zM313 151q36 0 60 23t24 58t-24 58.5t-60 23.5
q-35 0 -59 -23.5t-24 -58.5q0 -34 24 -57.5t59 -23.5z" />
    <glyph glyph-name="seven" unicode="7" horiz-adv-x="549" 
d="M24 680h514v-144l-273 -536h-209l267 513h-299v167z" />
    <glyph glyph-name="eight" unicode="8" horiz-adv-x="571" 
d="M467 350q94 -54 94 -151q0 -90 -80.5 -152.5t-194.5 -62.5t-195 62.5t-81 152.5q0 96 95 152q-80 51 -80 137q0 87 76.5 147.5t184.5 60.5q107 0 184 -60.5t77 -147.5q0 -86 -80 -138zM286 529q-34 0 -56.5 -17.5t-22.5 -43.5t22.5 -43t56.5 -17q33 0 55 17t22 43
t-22 43.5t-55 17.5zM286 147q36 0 60.5 19.5t24.5 47.5t-24.5 47.5t-60.5 19.5q-37 0 -61.5 -19t-24.5 -48t24.5 -48t61.5 -19z" />
    <glyph glyph-name="nine" unicode="9" horiz-adv-x="610" 
d="M297 696q128 0 206.5 -95t78.5 -248q0 -163 -88 -266t-222 -103q-71 0 -134.5 30t-96.5 80l124 113q12 -26 41 -43t63 -17q47 0 79 33t41 86q-56 -38 -129 -38q-98 0 -164 62.5t-66 159.5q0 106 78 176t189 70zM297 366q35 0 59 23.5t24 58.5q0 34 -24 57.5t-59 23.5
q-36 0 -60 -23t-24 -58t24 -58.5t60 -23.5z" />
    <glyph glyph-name="colon" unicode=":" horiz-adv-x="296" 
d="M149 303q-45 0 -76.5 31t-31.5 76q0 43 32 74t76 31q43 0 74.5 -31t31.5 -74q0 -45 -31.5 -76t-74.5 -31zM149 -15q-45 0 -76.5 31t-31.5 76q0 43 32 74t76 31q43 0 74.5 -31t31.5 -74q0 -45 -31.5 -76t-74.5 -31z" />
    <glyph glyph-name="semicolon" unicode=";" horiz-adv-x="327" 
d="M149 303q-45 0 -76.5 31t-31.5 76q0 43 32 74t76 31q43 0 74.5 -31t31.5 -74q0 -45 -31.5 -76t-74.5 -31zM98 167h190l-166 -317h-113z" />
    <glyph glyph-name="less" unicode="&#x3c;" horiz-adv-x="632" 
d="M572 600v-166l-248 -94l248 -94v-166l-512 200v120z" />
    <glyph glyph-name="equal" unicode="=" horiz-adv-x="632" 
d="M60 530h512v-150h-512v150zM60 300h512v-150h-512v150z" />
    <glyph glyph-name="greater" unicode="&#x3e;" horiz-adv-x="632" 
d="M60 600l512 -200v-120l-512 -200v166l248 94l-248 94v166z" />
    <glyph glyph-name="question" unicode="?" horiz-adv-x="600" 
d="M357 215h-180v33q0 100 115 163q6 3 19 10t18.5 10t14 9t12 10.5t6.5 11.5t3 15q0 24 -20 38.5t-51 14.5q-37 0 -60 -22t-20 -55l-168 43q19 93 88 147t166 54q106 0 177 -55t71 -154q0 -62 -33 -107.5t-106 -84.5q-31 -16 -41.5 -28t-10.5 -35v-18zM268 -14
q-44 0 -73.5 25t-29.5 67q0 41 29.5 66t73.5 25q42 0 71.5 -25t29.5 -66t-29.5 -66.5t-71.5 -25.5z" />
    <glyph glyph-name="at" unicode="@" horiz-adv-x="914" 
d="M520 433h127v-205q0 -35 16 -52.5t40 -17.5q59 0 59 98q0 124 -91 213.5t-215 89.5q-125 0 -214.5 -91t-89.5 -218q0 -128 89.5 -218.5t216.5 -90.5q116 0 203 81l68 -71q-116 -106 -272 -106q-167 0 -286 119t-119 286t118.5 286t285.5 119q166 0 286 -118.5t120 -276.5
q0 -98 -48 -158t-121 -60q-46 0 -89.5 24t-65.5 67q-13 -37 -46 -61t-80 -24q-72 0 -121 56.5t-48 140.5t50 140.5t120 56.5q68 0 107 -57v48zM449 171q31 0 51 21t20 53q0 31 -20.5 52.5t-50.5 21.5t-50 -21.5t-20 -52.5q0 -32 19.5 -53t50.5 -21z" />
    <glyph glyph-name="A" unicode="A" horiz-adv-x="743" 
d="M554 0l-48 117h-269l-47 -117h-191l284 680h174l287 -680h-190zM303 279h136l-68 167z" />
    <glyph glyph-name="B" unicode="B" horiz-adv-x="641" 
d="M537 343q83 -46 83 -144q0 -88 -64.5 -143.5t-162.5 -55.5h-343v680h332q99 0 163.5 -54.5t64.5 -141.5q0 -90 -73 -141zM231 518v-111h135q28 0 44.5 16t16.5 39t-16.5 39.5t-44.5 16.5h-135zM374 163q28 0 45 16.5t17 39.5t-17 39t-45 16h-143v-111h143z" />
    <glyph glyph-name="C" unicode="C" horiz-adv-x="729" 
d="M552 412q-21 44 -61.5 70t-87.5 26q-69 0 -116 -49t-47 -119q0 -69 47 -118.5t116 -49.5q47 0 87.5 26t61.5 70l162 -96q-46 -87 -130.5 -137.5t-182.5 -50.5q-149 0 -253 104t-104 252t104 252t253 104q99 0 183 -50.5t130 -137.5z" />
    <glyph glyph-name="D" unicode="D" horiz-adv-x="724" 
d="M327 680q155 0 259 -97t104 -243t-104 -243t-259 -97h-277v680h277zM318 177q81 0 131.5 44.5t50.5 118.5t-50.5 118.5t-131.5 44.5h-83v-326h83z" />
    <glyph glyph-name="E" unicode="E" horiz-adv-x="570" 
d="M537 514h-303v-101h200v-146h-200v-101h303v-166h-487v680h487v-166z" />
    <glyph glyph-name="F" unicode="F" horiz-adv-x="562" 
d="M537 517h-303v-115h200v-154h-200v-248h-184v680h487v-163z" />
    <glyph glyph-name="G" unicode="G" horiz-adv-x="759" 
d="M342 387h379v-53q0 -157 -93.5 -253.5t-236.5 -96.5q-150 0 -253.5 103t-103.5 252t103.5 253t252.5 104q94 0 175 -45t128 -124l-156 -93q-22 40 -61.5 62.5t-87.5 22.5q-75 0 -123 -51.5t-48 -129.5q0 -77 48.5 -126.5t125.5 -49.5q52 0 86.5 22.5t47.5 57.5h-183v145z
" />
    <glyph glyph-name="H" unicode="H" horiz-adv-x="708" 
d="M470 680h188v-680h-188v250h-232v-250h-188v680h188v-250h232v250z" />
    <glyph glyph-name="I" unicode="I" horiz-adv-x="301" 
d="M52 680h197v-680h-197v680z" />
    <glyph glyph-name="J" unicode="J" horiz-adv-x="577" 
d="M341 680h193v-431q0 -116 -79.5 -190.5t-201.5 -74.5q-154 0 -259 116l128 122q50 -65 118 -65q48 0 74.5 30.5t26.5 85.5v407z" />
    <glyph glyph-name="K" unicode="K" horiz-adv-x="696" 
d="M486 0l-197 254l-51 -52v-202h-188v680h188v-240l232 240h234l-287 -295l289 -385h-220z" />
    <glyph glyph-name="L" unicode="L" horiz-adv-x="550" 
d="M243 175h286v-175h-479v680h193v-505z" />
    <glyph glyph-name="M" unicode="M" horiz-adv-x="909" 
d="M859 680v-680h-171v404l-154 -404h-160l-153 402v-402h-171v680h237l167 -438l167 438h238z" />
    <glyph glyph-name="N" unicode="N" horiz-adv-x="710" 
d="M479 680h181v-680h-155l-274 358v-358h-181v680h154l275 -359v359z" />
    <glyph glyph-name="O" unicode="O" horiz-adv-x="780" 
d="M391 -16q-149 0 -253 103.5t-104 252.5t104 252.5t253 103.5q148 0 251.5 -104t103.5 -252t-103.5 -252t-251.5 -104zM391 172q67 0 112.5 48t45.5 120t-45.5 120t-112.5 48q-68 0 -114.5 -48t-46.5 -120t46.5 -120t114.5 -48z" />
    <glyph glyph-name="P" unicode="P" horiz-adv-x="638" 
d="M383 680q100 0 167.5 -65.5t67.5 -160.5q0 -96 -67.5 -162.5t-167.5 -66.5h-148v-225h-185v680h333zM363 390q31 0 50.5 18.5t19.5 44.5t-19.5 45t-50.5 19h-128v-127h128z" />
    <glyph glyph-name="Q" unicode="Q" horiz-adv-x="784" 
d="M760 78l-111 -111l-70 70q-84 -53 -188 -53q-149 0 -253 103.5t-104 252.5t104 252.5t253 103.5q148 0 251.5 -104t103.5 -252q0 -106 -56 -192zM391 163q27 0 54 8l-107 108l110 111l106 -106q8 29 8 56q0 75 -49 126t-122 51q-74 0 -124 -51t-50 -126t50 -126t124 -51z
" />
    <glyph glyph-name="R" unicode="R" horiz-adv-x="648" 
d="M443 0l-135 235h-77v-235h-181v680h329q100 0 167.5 -63.5t67.5 -157.5q0 -64 -32 -116t-87 -81l151 -262h-203zM231 517v-127h128q31 0 50.5 18.5t19.5 44.5q0 27 -19 45.5t-51 18.5h-128z" />
    <glyph glyph-name="S" unicode="S" horiz-adv-x="600" 
d="M576 207q0 -103 -79.5 -163t-206.5 -60q-119 0 -201 52t-97 128l165 63q10 -33 46 -56.5t94 -23.5q39 0 64 11.5t25 32.5q0 22 -26 34t-81 25q-2 0 -3 0.5t-3 1t-3.5 1t-3.5 0.5q-118 29 -181 80t-63 143q0 105 78.5 162.5t192.5 57.5q109 0 184.5 -51t91.5 -129
l-159 -63q-10 36 -45 59t-82 23q-33 0 -53 -11.5t-20 -31.5q0 -21 24 -33.5t79 -27.5q48 -13 76.5 -22.5t68.5 -28.5t62.5 -40.5t39 -55.5t16.5 -77z" />
    <glyph glyph-name="T" unicode="T" horiz-adv-x="586" 
d="M563 680v-180h-173v-500h-194v500h-173v180h540z" />
    <glyph glyph-name="U" unicode="U" horiz-adv-x="683" 
d="M454 680h185v-380q0 -142 -82 -229t-216 -87q-133 0 -215 87t-82 229v380h184v-378q0 -63 31 -100t82 -37q52 0 82.5 37t30.5 100v378z" />
    <glyph glyph-name="V" unicode="V" horiz-adv-x="710" 
d="M514 680h197l-266 -680h-183l-263 680h197l158 -419z" />
    <glyph glyph-name="W" unicode="W" horiz-adv-x="1079" 
d="M883 680h186l-201 -680h-207l-121 403l-121 -403h-208l-201 680h187l120 -432l130 432h186l130 -430z" />
    <glyph glyph-name="X" unicode="X" horiz-adv-x="720" 
d="M719 680l-228 -340l228 -340h-226l-133 203l-133 -203h-226l229 341l-226 339h226l130 -202l133 202h226z" />
    <glyph glyph-name="Y" unicode="Y" horiz-adv-x="712" 
d="M718 680l-267 -400v-280h-189v279l-268 401h213l149 -230l149 230h213z" />
    <glyph glyph-name="Z" unicode="Z" horiz-adv-x="609" 
d="M281 172h301v-172h-554v136l282 372h-282v172h536v-135z" />
    <glyph glyph-name="bracketleft" unicode="[" horiz-adv-x="485" 
d="M262 539v-558h163v-151h-345v870h345v-161h-163z" />
    <glyph glyph-name="backslash" unicode="\" horiz-adv-x="643" 
d="M469 -150h195l-475 980h-195z" />
    <glyph glyph-name="bracketright" unicode="]" horiz-adv-x="485" 
d="M223 539h-163v161h345v-870h-345v151h163v558z" />
    <glyph glyph-name="asciicircum" unicode="^" horiz-adv-x="632" 
d="M576 322h-166l-94 174l-94 -174h-166l200 358h120z" />
    <glyph glyph-name="underscore" unicode="_" horiz-adv-x="676" 
d="M-2 -200v130h680v-130h-680z" />
    <glyph glyph-name="a" unicode="a" horiz-adv-x="553" 
d="M278 515q100 0 167.5 -61.5t67.5 -158.5v-295h-170v50q-68 -65 -156 -65q-68 0 -116 42.5t-48 111.5q0 65 46.5 107t129.5 58l134 26q-21 43 -73 43q-62 0 -107 -58l-114 86q36 48 100.5 81t138.5 33zM238 117q42 0 73.5 27t31.5 62v7l-104 -19q-51 -9 -51 -42
q0 -16 13 -25.5t37 -9.5z" />
    <glyph glyph-name="b" unicode="b" horiz-adv-x="620" 
d="M592 250q1 -113 -64.5 -189t-162.5 -76q-92 0 -145 68v-53h-176v700h176v-250q55 65 143 65q96 0 162 -76t67 -189zM316 150q40 0 66.5 29t26.5 71t-26.5 71t-66.5 29q-41 0 -68.5 -29t-27.5 -71t27 -71t69 -29z" />
    <glyph glyph-name="c" unicode="c" horiz-adv-x="548" 
d="M372 210l165 -61q-30 -74 -97.5 -119t-151.5 -45q-113 0 -192 77.5t-79 187.5t79 187.5t192 77.5q82 0 149.5 -44.5t98.5 -117.5l-164 -62q-24 59 -84 59q-41 0 -68 -28.5t-27 -71.5t27 -71.5t68 -28.5q28 0 50.5 17t33.5 43z" />
    <glyph glyph-name="d" unicode="d" horiz-adv-x="610" 
d="M390 700h176v-700h-176v53q-53 -68 -145 -68q-97 0 -162.5 76t-64.5 189t67 189t162 76q88 0 143 -65v250zM294 150q42 0 69 29t27 71t-27.5 71t-68.5 29q-40 0 -66.5 -29t-26.5 -71t26.5 -71t66.5 -29z" />
    <glyph glyph-name="e" unicode="e" horiz-adv-x="562" 
d="M534 292q6 -50 -5 -99h-329q20 -62 91 -62q72 0 107 55l125 -68q-30 -58 -94.5 -95.5t-142.5 -37.5q-115 0 -187 78.5t-72 186.5t72.5 186.5t187.5 78.5q102 0 169 -63t78 -160zM282 374q-65 0 -83 -66h166q-6 30 -28 48t-55 18z" />
    <glyph glyph-name="f" unicode="f" horiz-adv-x="374" 
d="M313 564q-29 0 -39.5 -11t-10.5 -43v-10h99v-146h-99v-354h-177v354h-74v146h74v25q0 89 45.5 132t140.5 43h90v-136h-49z" />
    <glyph glyph-name="g" unicode="g" horiz-adv-x="620" 
d="M400 500h176v-462q0 -111 -82 -182t-199 -71q-73 0 -140.5 29t-113.5 79l110 98q24 -26 62.5 -41t75.5 -15q50 0 80.5 28t30.5 77v20q-55 -65 -146 -65q-96 0 -161 71.5t-65 182.5q0 113 66.5 189.5t162.5 76.5q88 0 143 -65v50zM305 150q41 0 68 29t27 71t-27 71t-68 29
t-67.5 -29t-26.5 -71t26.5 -71t67.5 -29z" />
    <glyph glyph-name="h" unicode="h" horiz-adv-x="596" 
d="M367 516q84 0 136.5 -65t52.5 -160v-291h-176v259q0 43 -20.5 70t-55.5 27t-59.5 -27.5t-24.5 -69.5v-259h-176v700h176v-254q57 70 147 70z" />
    <glyph glyph-name="i" unicode="i" horiz-adv-x="288" 
d="M145 546q-44 0 -73.5 25t-29.5 67q0 41 29.5 66t73.5 25q42 0 71.5 -25t29.5 -66t-29.5 -66.5t-71.5 -25.5zM54 500h180v-500h-180v500z" />
    <glyph glyph-name="j" unicode="j" horiz-adv-x="296" 
d="M150 546q-44 0 -73.5 25t-29.5 67q0 41 29.5 66t73.5 25q42 0 71.5 -25t29.5 -66t-29.5 -66.5t-71.5 -25.5zM59 0v500h180v-525q0 -89 -45.5 -132t-140.5 -43h-93v146h49q29 0 39.5 11t10.5 43z" />
    <glyph glyph-name="k" unicode="k" horiz-adv-x="583" 
d="M587 500l-200 -201l194 -299h-197l-118 177l-46 -46v-131h-176v700h176v-355l147 155h220z" />
    <glyph glyph-name="l" unicode="l" horiz-adv-x="278" 
d="M46 700h186v-700h-186v700z" />
    <glyph glyph-name="m" unicode="m" horiz-adv-x="888" 
d="M663 516q84 0 134.5 -65t50.5 -160v-291h-176v270q0 41 -17.5 63.5t-47.5 22.5q-31 0 -52 -23t-21 -63v-270h-176v271q0 40 -18 62.5t-48 22.5t-51 -23t-21 -62v-271h-176v500h176v-64q53 80 139 80q91 0 141 -88q24 39 67.5 63.5t95.5 24.5z" />
    <glyph glyph-name="n" unicode="n" horiz-adv-x="596" 
d="M367 516q84 0 136.5 -65t52.5 -160v-291h-176v259q0 43 -20.5 70t-55.5 27t-59.5 -27.5t-24.5 -69.5v-259h-176v500h176v-54q57 70 147 70z" />
    <glyph glyph-name="o" unicode="o" horiz-adv-x="594" 
d="M298 -15q-113 0 -192 77.5t-79 187.5t79 187.5t192 77.5q112 0 190.5 -77.5t78.5 -187.5t-78.5 -187.5t-190.5 -77.5zM298 150q40 0 66.5 28.5t26.5 71.5t-26.5 71.5t-66.5 28.5q-41 0 -68 -28.5t-27 -71.5t27 -71.5t68 -28.5z" />
    <glyph glyph-name="p" unicode="p" horiz-adv-x="620" 
d="M365 515q97 0 162.5 -76t64.5 -189t-67 -189t-162 -76q-88 0 -143 65v-250h-176v700h176v-53q53 68 145 68zM316 150q40 0 66.5 29t26.5 71t-26.5 71t-66.5 29q-42 0 -69 -29t-27 -71t27.5 -71t68.5 -29z" />
    <glyph glyph-name="q" unicode="q" horiz-adv-x="620" 
d="M400 500h176v-700h-176v250q-55 -65 -143 -65q-96 0 -162 76t-67 189t64.5 189t162.5 76q92 0 145 -68v53zM304 150q41 0 68.5 29t27.5 71t-27 71t-69 29q-40 0 -66.5 -29t-26.5 -71t26.5 -71t66.5 -29z" />
    <glyph glyph-name="r" unicode="r" horiz-adv-x="376" 
d="M224 447q56 69 137 69v-170q-137 0 -137 -97v-249h-180v500h180v-53z" />
    <glyph glyph-name="s" unicode="s" horiz-adv-x="489" 
d="M466 155q0 -79 -66.5 -124.5t-161.5 -45.5q-89 0 -152.5 41.5t-80.5 111.5l141 38q18 -60 102 -60q56 0 56 23q0 10 -14 15.5t-55 14.5q-12 3 -18 4q-192 44 -192 175q0 77 61.5 122t150.5 45q86 0 145.5 -42t76.5 -111l-135 -38q-25 60 -91 60q-50 0 -50 -24
q0 -21 75 -37q22 -5 30.5 -6.5t35.5 -9.5t41 -15t36.5 -20.5t34 -29t21 -38t9.5 -49.5z" />
    <glyph glyph-name="t" unicode="t" horiz-adv-x="399" 
d="M372 350h-99v-139q0 -32 10.5 -43t39.5 -11h49v-157h-90q-95 0 -140.5 43t-45.5 132v175h-74v150h74v114l177 51v-165h99v-150z" />
    <glyph glyph-name="u" unicode="u" horiz-adv-x="596" 
d="M376 500h176v-500h-176v54q-57 -70 -147 -70q-84 0 -136.5 65t-52.5 160v291h176v-259q0 -43 20.5 -70t55.5 -27t59.5 27.5t24.5 69.5v259z" />
    <glyph glyph-name="v" unicode="v" horiz-adv-x="564" 
d="M378 500h176l-180 -500h-184l-180 500h176l96 -280z" />
    <glyph glyph-name="w" unicode="w" horiz-adv-x="877" 
d="M697 500h169l-150 -500h-191l-86 288l-87 -288h-191l-150 500h169l79 -285l86 285h187l86 -285z" />
    <glyph glyph-name="x" unicode="x" horiz-adv-x="578" 
d="M575 500l-170 -250l170 -250h-200l-86 133l-86 -133h-200l170 250l-170 250h200l86 -133l86 133h200z" />
    <glyph glyph-name="y" unicode="y" horiz-adv-x="606" 
d="M416 500h179l-289 -700h-182l92 221l-213 479h187l117 -262z" />
    <glyph glyph-name="z" unicode="z" horiz-adv-x="457" 
d="M245 150h190v-150h-410v115l185 235h-185v150h405v-115z" />
    <glyph glyph-name="braceleft" unicode="{" horiz-adv-x="527" 
d="M341 415q0 -117 -85 -154q85 -36 85 -153v-68q0 -56 75 -56h61v-162h-101q-102 0 -159.5 56.5t-57.5 157.5v69q0 37 -13.5 51.5t-51.5 14.5h-44v180h44q38 0 51.5 15t13.5 52v69q0 100 57.5 156.5t159.5 56.5h101v-161h-61q-34 0 -54.5 -14.5t-20.5 -41.5v-68z" />
    <glyph glyph-name="bar" unicode="|" horiz-adv-x="270" 
d="M60 -132v832h150v-832h-150z" />
    <glyph glyph-name="braceright" unicode="}" horiz-adv-x="527" 
d="M433 351h44v-180h-44q-38 0 -51.5 -14.5t-13.5 -51.5v-69q0 -101 -57.5 -157.5t-159.5 -56.5h-101v162h61q75 0 75 56v68q0 117 85 153q-85 37 -85 154v68q0 27 -20.5 41.5t-54.5 14.5h-61v161h101q102 0 159.5 -56.5t57.5 -156.5v-69q0 -37 13.5 -52t51.5 -15z" />
    <glyph glyph-name="asciitilde" unicode="~" horiz-adv-x="592" 
d="M498 359l57 -56q-65 -107 -153 -107q-31 0 -55.5 9t-64.5 31q-54 33 -89 33q-22 0 -42 -11.5t-32 -24.5t-30 -36l-56 56q25 45 70.5 75.5t94.5 30.5q51 0 111 -35q53 -32 73 -35q8 -2 17 -2q50 0 99 72z" />
    <glyph glyph-name="exclamdown" unicode="&#xa1;" horiz-adv-x="326" 
d="M164 332q-44 0 -73.5 25t-29.5 67q0 41 29.5 66t73.5 25q42 0 71.5 -25t29.5 -66t-29.5 -66.5t-71.5 -25.5zM85 285h156l35 -465h-226z" />
    <glyph glyph-name="cent" unicode="&#xa2;" horiz-adv-x="548" 
d="M379 291l158 -57q-30 -74 -97.5 -119t-151.5 -45h-11l-22 -121l-88 15l23 124q-77 29 -125 96t-48 151q0 109 77.5 186t189.5 79l22 120l89 -15l-22 -118q55 -18 97.5 -57t65.5 -92l-157 -58q-10 28 -36 47l-36 -200q49 12 72 64zM182 335q0 -54 37 -86l36 191
q-33 -10 -53 -38.5t-20 -66.5z" />
    <glyph glyph-name="sterling" unicode="&#xa3;" horiz-adv-x="600" 
d="M461 224l140 -61q-19 -73 -77 -118t-132 -45h-362v166h37q27 0 37 11.5t10 42.5v47h-84v146h84v50q0 98 68.5 165.5t162.5 67.5q77 0 139.5 -45.5t80.5 -117.5l-152 -71q-2 29 -22 49t-44 20q-22 0 -39 -19t-17 -49v-50h170v-146h-170v-15q0 -52 -22 -86h123
q24 0 43.5 16.5t25.5 41.5z" />
    <glyph glyph-name="currency" unicode="&#xa4;" horiz-adv-x="580" 
d="M475 326q0 -54 -29 -101l74 -73l-57 -57l-73 74q-47 -29 -99 -29q-54 0 -100 30l-74 -75l-57 57l75 74q-30 46 -30 100t30 98l-75 74l57 57l74 -75q46 30 100 30q52 0 99 -29l73 74l57 -57l-74 -73q29 -47 29 -99zM291 223q41 0 71 29.5t30 73.5q0 42 -30 72t-71 30
q-43 0 -73.5 -29.5t-30.5 -72.5t30.5 -73t73.5 -30z" />
    <glyph glyph-name="yen" unicode="&#xa5;" horiz-adv-x="754" 
d="M699 680l-188 -282h84v-125h-123v-40h123v-125h-123v-108h-189v108h-128v125h128v40h-128v125h88l-188 282h213l109 -169l109 169h213z" />
    <glyph glyph-name="brokenbar" unicode="&#xa6;" horiz-adv-x="339" 
d="M107 719h124v-373h-124v373zM107 186h124v-372h-124v372z" />
    <glyph glyph-name="section" unicode="&#xa7;" horiz-adv-x="527" 
d="M411 205q59 -48 59 -117q0 -76 -60.5 -121t-150.5 -45q-85 0 -145.5 42t-78.5 111l134 38q27 -60 92 -60q50 0 50 24q0 23 -76 37q-18 3 -31.5 6t-45 11.5t-54.5 21.5t-47.5 30.5t-38 44t-13.5 58.5q0 46 27 78.5t66 48.5q-58 47 -58 117q0 77 60.5 121.5t149.5 44.5
q85 0 145.5 -42t78.5 -111l-134 -38q-27 60 -92 60q-50 0 -50 -24q0 -23 76 -37q18 -3 31.5 -6t45 -11.5t54.5 -21.5t47.5 -30.5t38 -44t13.5 -58.5q0 -46 -27 -78.5t-66 -48.5zM260 266q38 0 62.5 11.5t24.5 30.5q0 20 -26 32t-65 12q-38 0 -62 -11.5t-24 -30.5
q0 -20 25.5 -32t64.5 -12z" />
    <glyph glyph-name="copyright" unicode="&#xa9;" horiz-adv-x="815" 
d="M409 -34q-157 0 -266 109t-109 265t109 265t266 109q155 0 263.5 -109t108.5 -265t-108.5 -265t-263.5 -109zM409 66q115 0 193.5 79.5t78.5 195.5t-78.5 195t-193.5 79q-116 0 -195 -79t-79 -195t79 -195.5t195 -79.5zM488 288l77 -49q-26 -39 -67.5 -61.5t-88.5 -22.5
q-77 0 -128 53.5t-51 131.5t51 131.5t128 53.5q47 0 88.5 -22.5t67.5 -61.5l-77 -49q-27 41 -77 41q-36 0 -60.5 -27t-24.5 -66t24.5 -66t60.5 -27q50 0 77 41z" />
    <glyph glyph-name="guillemotleft" unicode="&#xab;" horiz-adv-x="793" 
d="M417 465l-166 -185l166 -185h-191l-166 185l166 185h191zM718 465l-166 -185l166 -185h-191l-166 185l166 185h191z" />
    <glyph glyph-name="logicalnot" unicode="&#xac;" horiz-adv-x="592" 
d="M542 110h-97v215h-395v93h492v-308z" />
    <glyph glyph-name="registered" unicode="&#xae;" horiz-adv-x="540" 
d="M271 716q85 0 147 -62t62 -147q0 -87 -61.5 -149t-147.5 -62q-87 0 -149 62t-62 149q0 86 62 147.5t149 61.5zM271 349q64 0 110 46.5t46 111.5q0 63 -46.5 109.5t-109.5 46.5q-64 0 -111 -46.5t-47 -109.5q0 -65 46.5 -111.5t111.5 -46.5zM356 542q0 -41 -37 -55l45 -77
h-49l-41 71h-34v-71h-43v192h93q28 0 47 -17t19 -43zM240 562v-43h48q11 0 18 6t7 15q0 10 -7 16t-18 6h-48z" />
    <glyph glyph-name="degree" unicode="&#xb0;" horiz-adv-x="399" 
d="M197 705h1q68 0 112 -46.5t44 -114.5q0 -74 -45 -117.5t-112 -43.5q-66 0 -111.5 43.5t-45.5 117.5q0 72 45.5 116.5t111.5 44.5zM197 645h-1q-35 0 -57.5 -28t-22.5 -73q0 -44 23 -72.5t59 -28.5t58 27.5t22 70.5q0 45 -21 74.5t-60 29.5z" />
    <glyph glyph-name="plusminus" unicode="&#xb1;" horiz-adv-x="632" 
d="M391 501h141v-150h-141v-80h-150v80h-141v150h141v95h150v-95zM100 84v150h432v-150h-432z" />
    <glyph glyph-name="paragraph" unicode="&#xb6;" horiz-adv-x="617" 
d="M355 -50h-107v324h-17q-34 0 -67 12t-62 35.5t-47 64t-18 92.5q0 111 83 173.5t259 62.5q111 0 161 -11v-753h-107v664h-78v-664z" />
    <glyph glyph-name="periodcentered" unicode="&#xb7;" horiz-adv-x="326" 
d="M164 174q-45 0 -76.5 31t-31.5 76q0 43 32 74t76 31q43 0 74.5 -31t31.5 -74q0 -45 -31.5 -76t-74.5 -31z" />
    <glyph glyph-name="guillemotright" unicode="&#xbb;" horiz-adv-x="793" 
d="M266 465l166 -185l-166 -185h-191l166 185l-166 185h191zM567 465l166 -185l-166 -185h-191l166 185l-166 185h191z" />
    <glyph glyph-name="onequarter" unicode="&#xbc;" horiz-adv-x="971" 
d="M603 700l89 -58l-434 -662l-89 58zM262 240h-124v298q-37 -42 -123 -42v110q71 6 97 23.5t26 59.5h124v-449zM926 191v-106h-57v-85h-117v85h-203v99l133 265h128l-133 -258h75v100h117v-100h57z" />
    <glyph glyph-name="onehalf" unicode="&#xbd;" horiz-adv-x="943" 
d="M603 700l89 -58l-434 -662l-89 58zM262 240h-124v298q-37 -42 -123 -42v110q71 6 97 23.5t26 59.5h124v-449zM750 110h148v-110h-326v86l179 187q19 19 19 40q0 15 -11 25.5t-27 10.5q-24 0 -37 -21.5t-6 -51.5l-120 21q-1 68 47 115t116 47q65 0 111.5 -42t46.5 -100
q0 -63 -63 -128z" />
    <glyph glyph-name="threequarters" unicode="&#xbe;" horiz-adv-x="1069" 
d="M390 366q0 -60 -50 -98t-121 -38q-68 0 -115.5 36.5t-58.5 98.5l110 34q-2 -25 15 -41.5t46 -16.5q23 0 38.5 12t15.5 29t-16 28t-40 11h-48v96h48q20 0 33.5 10t13.5 25q0 16 -14 27t-33 11q-25 0 -40 -14.5t-13 -36.5l-111 29q13 61 58.5 96.5t109.5 35.5
q67 0 115 -37.5t48 -95.5q0 -63 -58 -98q67 -35 67 -103zM701 700l89 -58l-434 -662l-89 58zM1024 191v-106h-57v-85h-117v85h-203v99l133 265h128l-133 -258h75v100h117v-100h57z" />
    <glyph glyph-name="questiondown" unicode="&#xbf;" horiz-adv-x="600" 
d="M332 515q44 0 73.5 -25t29.5 -67q0 -41 -29.5 -66t-73.5 -25q-42 0 -71.5 25t-29.5 66t29.5 66.5t71.5 25.5zM243 286h180v-33q0 -100 -115 -163q-6 -3 -19 -10t-18.5 -10t-14 -9t-12 -10.5t-6.5 -11.5t-3 -15q0 -24 20 -38.5t51 -14.5q37 0 60 22t20 55l168 -43
q-19 -93 -88 -147t-166 -54q-106 0 -177 55t-71 154q0 62 33 107.5t106 84.5q31 16 41.5 28t10.5 35v18z" />
    <glyph glyph-name="Agrave" unicode="&#xc0;" horiz-adv-x="743" 
d="M441 741h-124l-114 113l157 71zM554 0l-48 117h-269l-47 -117h-191l284 680h174l287 -680h-190zM303 279h136l-68 167z" />
    <glyph glyph-name="Aacute" unicode="&#xc1;" horiz-adv-x="743" 
d="M547 854l-114 -113h-124l81 184zM554 0l-48 117h-269l-47 -117h-191l284 680h174l287 -680h-190zM303 279h136l-68 167z" />
    <glyph glyph-name="Acircumflex" unicode="&#xc2;" horiz-adv-x="743" 
d="M372 797l-126 -83l-67 60l125 123h135l125 -123l-67 -60zM554 0l-48 117h-269l-47 -117h-191l284 680h174l287 -680h-190zM303 279h136l-68 167z" />
    <glyph glyph-name="Atilde" unicode="&#xc3;" horiz-adv-x="743" 
d="M293 746h-103q-7 61 31.5 106.5t93.5 45.5q38 0 74 -26q5 -4 13.5 -11.5t15 -11t12.5 -3.5q21 0 21 32h103q7 -62 -32 -107t-95 -45q-32 0 -71 26q-6 4 -14.5 11t-15 11t-12.5 4q-21 0 -21 -32zM554 0l-48 117h-269l-47 -117h-191l284 680h174l287 -680h-190zM303 279
h136l-68 167z" />
    <glyph glyph-name="Adieresis" unicode="&#xc4;" horiz-adv-x="743" 
d="M248 730q-44 0 -73.5 25t-29.5 67q0 41 29.5 66t73.5 25q42 0 71.5 -25t29.5 -66t-29.5 -66.5t-71.5 -25.5zM499 730q-44 0 -73.5 25t-29.5 67q0 41 29.5 66t73.5 25q42 0 71.5 -25t29.5 -66t-29.5 -66.5t-71.5 -25.5zM554 0l-48 117h-269l-47 -117h-191l284 680h174
l287 -680h-190zM303 279h136l-68 167z" />
    <glyph glyph-name="Aring" unicode="&#xc5;" horiz-adv-x="743" 
d="M554 0l-48 117h-269l-47 -117h-191l284 680h1q-29 32 -29 76q0 46 34.5 80t81.5 34t81 -34t34 -80q0 -44 -29 -76l287 -680h-190zM371 789q-14 0 -24 -9.5t-10 -23.5t10 -24t24 -10t23.5 10t9.5 24t-9.5 23.5t-23.5 9.5zM303 279h136l-68 167z" />
    <glyph glyph-name="AE" unicode="&#xc6;" horiz-adv-x="1005" 
d="M972 514h-303v-101h200v-146h-200v-101h303v-166h-487v117h-241l-48 -118h-197l283 681h690v-166zM485 279v235h-80l-96 -235h176z" />
    <glyph glyph-name="Ccedilla" unicode="&#xc7;" horiz-adv-x="729" 
d="M403 172q47 0 87.5 26t61.5 70l162 -96q-38 -73 -104.5 -121t-147.5 -62l-72 -164l-157 71l96 95q-123 25 -204 122.5t-81 226.5q0 148 104 252t253 104q99 0 183 -50.5t130 -137.5l-162 -96q-21 44 -61.5 70t-87.5 26q-69 0 -116 -49t-47 -119q0 -69 47 -118.5
t116 -49.5z" />
    <glyph glyph-name="Egrave" unicode="&#xc8;" horiz-adv-x="570" 
d="M350 741h-124l-114 113l157 71zM537 514h-303v-101h200v-146h-200v-101h303v-166h-487v680h487v-166z" />
    <glyph glyph-name="Eacute" unicode="&#xc9;" horiz-adv-x="570" 
d="M456 854l-114 -113h-124l81 184zM537 514h-303v-101h200v-146h-200v-101h303v-166h-487v680h487v-166z" />
    <glyph glyph-name="Ecircumflex" unicode="&#xca;" horiz-adv-x="570" 
d="M281 797l-126 -83l-67 60l125 123h135l125 -123l-67 -60zM537 514h-303v-101h200v-146h-200v-101h303v-166h-487v680h487v-166z" />
    <glyph glyph-name="Edieresis" unicode="&#xcb;" horiz-adv-x="570" 
d="M157 730q-44 0 -73.5 25t-29.5 67q0 41 29.5 66t73.5 25q42 0 71.5 -25t29.5 -66t-29.5 -66.5t-71.5 -25.5zM408 730q-44 0 -73.5 25t-29.5 67q0 41 29.5 66t73.5 25q42 0 71.5 -25t29.5 -66t-29.5 -66.5t-71.5 -25.5zM537 514h-303v-101h200v-146h-200v-101h303v-166
h-487v680h487v-166z" />
    <glyph glyph-name="Igrave" unicode="&#xcc;" horiz-adv-x="301" 
d="M138 925l81 -184h-124l-114 113zM52 680h197v-680h-197v680z" />
    <glyph glyph-name="Iacute" unicode="&#xcd;" horiz-adv-x="301" 
d="M168 925l157 -71l-114 -113h-124zM52 680h197v-680h-197v680z" />
    <glyph glyph-name="Icircumflex" unicode="&#xce;" horiz-adv-x="301" 
d="M217 897l125 -123l-67 -60l-125 83l-126 -83l-67 60l125 123h135zM52 0v680h197v-680h-197z" />
    <glyph glyph-name="Idieresis" unicode="&#xcf;" horiz-adv-x="301" 
d="M26 730q-44 0 -73.5 25t-29.5 67q0 41 29.5 66t73.5 25q42 0 71.5 -25t29.5 -66t-29.5 -66.5t-71.5 -25.5zM277 730q-44 0 -73.5 25t-29.5 67q0 41 29.5 66t73.5 25q42 0 71.5 -25t29.5 -66t-29.5 -66.5t-71.5 -25.5zM52 680h197v-680h-197v680z" />
    <glyph glyph-name="Eth" unicode="&#xd0;" horiz-adv-x="724" 
d="M327 680q155 0 259 -97t104 -243t-104 -243t-259 -97h-277v270h-71v140h71v270h277zM318 177q81 0 131.5 44.5t50.5 118.5t-50.5 118.5t-131.5 44.5h-83v-93h144v-140h-144v-93h83z" />
    <glyph glyph-name="Ntilde" unicode="&#xd1;" horiz-adv-x="710" 
d="M264 746h-103q-7 61 31.5 106.5t93.5 45.5q38 0 74 -26q5 -4 13.5 -11.5t15 -11t12.5 -3.5q21 0 21 32h103q7 -62 -32 -107t-95 -45q-32 0 -71 26q-6 4 -14.5 11t-15 11t-12.5 4q-21 0 -21 -32zM479 680h181v-680h-155l-274 358v-358h-181v680h154l275 -359v359z" />
    <glyph glyph-name="Ograve" unicode="&#xd2;" horiz-adv-x="780" 
d="M378 926l81 -184h-124l-114 113zM391 -16q-149 0 -253 103.5t-104 252.5t104 252.5t253 103.5q148 0 251.5 -104t103.5 -252t-103.5 -252t-251.5 -104zM391 172q67 0 112.5 48t45.5 120t-45.5 120t-112.5 48q-68 0 -114.5 -48t-46.5 -120t46.5 -120t114.5 -48z" />
    <glyph glyph-name="Oacute" unicode="&#xd3;" horiz-adv-x="780" 
d="M408 926l157 -71l-114 -113h-124zM391 -16q-149 0 -253 103.5t-104 252.5t104 252.5t253 103.5q148 0 251.5 -104t103.5 -252t-103.5 -252t-251.5 -104zM391 172q67 0 112.5 48t45.5 120t-45.5 120t-112.5 48q-68 0 -114.5 -48t-46.5 -120t46.5 -120t114.5 -48z" />
    <glyph glyph-name="Ocircumflex" unicode="&#xd4;" horiz-adv-x="780" 
d="M390 798l-126 -83l-67 60l125 123h135l125 -123l-67 -60zM391 696q148 0 251.5 -104t103.5 -252t-103.5 -252t-251.5 -104q-149 0 -253 103.5t-104 252.5t104 252.5t253 103.5zM391 172q67 0 112.5 48t45.5 120t-45.5 120t-112.5 48q-68 0 -114.5 -48t-46.5 -120
t46.5 -120t114.5 -48z" />
    <glyph glyph-name="Otilde" unicode="&#xd5;" horiz-adv-x="780" 
d="M469 879h103q7 -62 -32 -107t-95 -45q-32 0 -71 26q-6 4 -14.5 11t-15 11t-12.5 4q-21 0 -21 -32h-103q-7 61 31.5 106.5t93.5 45.5q38 0 74 -26q5 -4 13.5 -11.5t15 -11t12.5 -3.5q21 0 21 32zM391 -16q-149 0 -253 103.5t-104 252.5t104 252.5t253 103.5
q148 0 251.5 -104t103.5 -252t-103.5 -252t-251.5 -104zM391 172q67 0 112.5 48t45.5 120t-45.5 120t-112.5 48q-68 0 -114.5 -48t-46.5 -120t46.5 -120t114.5 -48z" />
    <glyph glyph-name="Odieresis" unicode="&#xd6;" horiz-adv-x="780" 
d="M266 731q-44 0 -73.5 25t-29.5 67q0 41 29.5 66t73.5 25q42 0 71.5 -25t29.5 -66t-29.5 -66.5t-71.5 -25.5zM517 731q-44 0 -73.5 25t-29.5 67q0 41 29.5 66t73.5 25q42 0 71.5 -25t29.5 -66t-29.5 -66.5t-71.5 -25.5zM391 -16q-149 0 -253 103.5t-104 252.5t104 252.5
t253 103.5q148 0 251.5 -104t103.5 -252t-103.5 -252t-251.5 -104zM391 172q67 0 112.5 48t45.5 120t-45.5 120t-112.5 48q-68 0 -114.5 -48t-46.5 -120t46.5 -120t114.5 -48z" />
    <glyph glyph-name="multiply" unicode="&#xd7;" horiz-adv-x="588" 
d="M528 468l-128 -128l128 -128l-106 -106l-128 128l-128 -128l-106 106l128 128l-128 128l106 106l128 -128l128 128z" />
    <glyph glyph-name="Oslash" unicode="&#xd8;" horiz-adv-x="780" 
d="M780 619l-88 -88q54 -87 54 -191q0 -148 -103.5 -252t-251.5 -104q-105 0 -191 55l-52 -52l-85 84l48 47q-77 96 -77 222q0 149 104 252.5t253 103.5q125 0 221 -77l84 84zM230 340q0 -46 20 -83l226 226q-39 25 -85 25q-68 0 -114.5 -48t-46.5 -120zM549 340q0 20 -5 43
l-203 -203q24 -8 50 -8q67 0 112.5 48t45.5 120z" />
    <glyph glyph-name="Ugrave" unicode="&#xd9;" horiz-adv-x="683" 
d="M329 925l81 -184h-124l-114 113zM454 680h185v-380q0 -142 -82 -229t-216 -87q-133 0 -215 87t-82 229v380h184v-378q0 -63 31 -100t82 -37q52 0 82.5 37t30.5 100v378z" />
    <glyph glyph-name="Uacute" unicode="&#xda;" horiz-adv-x="683" 
d="M359 925l157 -71l-114 -113h-124zM454 680h185v-380q0 -142 -82 -229t-216 -87q-133 0 -215 87t-82 229v380h184v-378q0 -63 31 -100t82 -37q52 0 82.5 37t30.5 100v378z" />
    <glyph glyph-name="Ucircumflex" unicode="&#xdb;" horiz-adv-x="683" 
d="M341 797l-126 -83l-67 60l125 123h135l125 -123l-67 -60zM454 680h185v-380q0 -142 -82 -229t-216 -87q-133 0 -215 87t-82 229v380h184v-378q0 -63 31 -100t82 -37q52 0 82.5 37t30.5 100v378z" />
    <glyph glyph-name="Udieresis" unicode="&#xdc;" horiz-adv-x="683" 
d="M217 730q-44 0 -73.5 25t-29.5 67q0 41 29.5 66t73.5 25q42 0 71.5 -25t29.5 -66t-29.5 -66.5t-71.5 -25.5zM468 730q-44 0 -73.5 25t-29.5 67q0 41 29.5 66t73.5 25q42 0 71.5 -25t29.5 -66t-29.5 -66.5t-71.5 -25.5zM454 680h185v-380q0 -142 -82 -229t-216 -87
q-133 0 -215 87t-82 229v380h184v-378q0 -63 31 -100t82 -37q52 0 82.5 37t30.5 100v378z" />
    <glyph glyph-name="Yacute" unicode="&#xdd;" horiz-adv-x="712" 
d="M521 854l-114 -113h-124l81 184zM718 680l-267 -400v-280h-189v279l-268 401h213l149 -230l149 230h213z" />
    <glyph glyph-name="Thorn" unicode="&#xde;" horiz-adv-x="652" 
d="M383 568q100 0 167.5 -65.5t67.5 -160.5q0 -96 -67.5 -162.5t-167.5 -66.5h-148v-113h-185v680h185v-112h148zM363 278q31 0 50.5 18.5t19.5 44.5t-19.5 45t-50.5 19h-128v-127h128z" />
    <glyph glyph-name="germandbls" unicode="&#xdf;" horiz-adv-x="620" 
d="M498 353q85 -54 85 -148q0 -96 -71.5 -158t-170.5 -62q-44 0 -58 8v178q20 -13 46 -13q28 0 49.5 16t21.5 40q0 25 -22.5 42t-54.5 17h-40v155h40q27 0 45.5 16t18.5 38t-18.5 36.5t-43.5 14.5q-32 0 -52 -24.5t-20 -60.5v-450h-178v450q0 111 71 184t179 73
q101 0 173 -63t72 -152q0 -85 -72 -137z" />
    <glyph glyph-name="agrave" unicode="&#xe0;" horiz-adv-x="553" 
d="M333 561h-124l-114 113l157 71zM278 515q100 0 167.5 -61.5t67.5 -158.5v-295h-170v50q-68 -65 -156 -65q-68 0 -116 42.5t-48 111.5q0 65 46.5 107t129.5 58l134 26q-21 43 -73 43q-62 0 -107 -58l-114 86q36 48 100.5 81t138.5 33zM238 117q42 0 73.5 27t31.5 62v7
l-104 -19q-51 -9 -51 -42q0 -16 13 -25.5t37 -9.5z" />
    <glyph glyph-name="aacute" unicode="&#xe1;" horiz-adv-x="553" 
d="M439 674l-114 -113h-124l81 184zM278 515q100 0 167.5 -61.5t67.5 -158.5v-295h-170v50q-68 -65 -156 -65q-68 0 -116 42.5t-48 111.5q0 65 46.5 107t129.5 58l134 26q-21 43 -73 43q-62 0 -107 -58l-114 86q36 48 100.5 81t138.5 33zM238 117q42 0 73.5 27t31.5 62v7
l-104 -19q-51 -9 -51 -42q0 -16 13 -25.5t37 -9.5z" />
    <glyph glyph-name="acircumflex" unicode="&#xe2;" horiz-adv-x="553" 
d="M264 617l-126 -83l-67 60l125 123h135l125 -123l-67 -60zM278 515q100 0 167.5 -61.5t67.5 -158.5v-295h-170v50q-68 -65 -156 -65q-68 0 -116 42.5t-48 111.5q0 65 46.5 107t129.5 58l134 26q-21 43 -73 43q-62 0 -107 -58l-114 86q36 48 100.5 81t138.5 33zM238 117
q42 0 73.5 27t31.5 62v7l-104 -19q-51 -9 -51 -42q0 -16 13 -25.5t37 -9.5z" />
    <glyph glyph-name="atilde" unicode="&#xe3;" horiz-adv-x="553" 
d="M185 566h-103q-7 61 31.5 106.5t93.5 45.5q38 0 74 -26q5 -4 13.5 -11.5t15 -11t12.5 -3.5q21 0 21 32h103q7 -62 -32 -107t-95 -45q-32 0 -71 26q-6 4 -14.5 11t-15 11t-12.5 4q-21 0 -21 -32zM278 515q100 0 167.5 -61.5t67.5 -158.5v-295h-170v50q-68 -65 -156 -65
q-68 0 -116 42.5t-48 111.5q0 65 46.5 107t129.5 58l134 26q-21 43 -73 43q-62 0 -107 -58l-114 86q36 48 100.5 81t138.5 33zM238 117q42 0 73.5 27t31.5 62v7l-104 -19q-51 -9 -51 -42q0 -16 13 -25.5t37 -9.5z" />
    <glyph glyph-name="adieresis" unicode="&#xe4;" horiz-adv-x="553" 
d="M140 550q-44 0 -73.5 25t-29.5 67q0 41 29.5 66t73.5 25q42 0 71.5 -25t29.5 -66t-29.5 -66.5t-71.5 -25.5zM391 550q-44 0 -73.5 25t-29.5 67q0 41 29.5 66t73.5 25q42 0 71.5 -25t29.5 -66t-29.5 -66.5t-71.5 -25.5zM278 515q100 0 167.5 -61.5t67.5 -158.5v-295h-170
v50q-68 -65 -156 -65q-68 0 -116 42.5t-48 111.5q0 65 46.5 107t129.5 58l134 26q-21 43 -73 43q-62 0 -107 -58l-114 86q36 48 100.5 81t138.5 33zM238 117q42 0 73.5 27t31.5 62v7l-104 -19q-51 -9 -51 -42q0 -16 13 -25.5t37 -9.5z" />
    <glyph glyph-name="aring" unicode="&#xe5;" horiz-adv-x="553" 
d="M265 541q-47 0 -81.5 34t-34.5 81q0 46 34.5 80t81.5 34t81 -34t34 -80q0 -47 -34 -81t-81 -34zM265 689q-14 0 -24 -9.5t-10 -23.5t10 -24t24 -10t23.5 10t9.5 24t-9.5 23.5t-23.5 9.5zM278 515q100 0 167.5 -61.5t67.5 -158.5v-295h-170v50q-68 -65 -156 -65
q-68 0 -116 42.5t-48 111.5q0 65 46.5 107t129.5 58l134 26q-21 43 -73 43q-62 0 -107 -58l-114 86q36 48 100.5 81t138.5 33zM238 117q42 0 73.5 27t31.5 62v7l-104 -19q-51 -9 -51 -42q0 -16 13 -25.5t37 -9.5z" />
    <glyph glyph-name="ae" unicode="&#xe6;" horiz-adv-x="885" 
d="M857 292q6 -50 -5 -99h-329q20 -62 91 -62q72 0 107 55l125 -68q-30 -58 -94.5 -95.5t-142.5 -37.5q-126 0 -201 95q-32 -42 -81.5 -68.5t-109.5 -26.5q-83 0 -138.5 42t-55.5 112q0 65 46.5 107t129.5 58l134 26q-21 43 -73 43q-62 0 -107 -58l-114 86q36 48 100.5 81
t138.5 33q98 0 165 -59q70 59 167 59q102 0 169 -63t78 -160zM605 374q-65 0 -83 -66h166q-6 30 -28 48t-55 18zM238 117q42 0 77.5 31t36.5 66l-113 -20q-51 -9 -51 -42q0 -16 13 -25.5t37 -9.5z" />
    <glyph glyph-name="ccedilla" unicode="&#xe7;" horiz-adv-x="548" 
d="M537 149q-25 -61 -76.5 -103.5t-117.5 -55.5l-73 -165l-157 71l100 99q-87 24 -141.5 94.5t-54.5 160.5q0 110 79 187.5t192 77.5q82 0 149.5 -44.5t98.5 -117.5l-164 -62q-24 59 -84 59q-41 0 -68 -28.5t-27 -71.5t27 -71.5t68 -28.5q28 0 50.5 17t33.5 43z" />
    <glyph glyph-name="egrave" unicode="&#xe8;" horiz-adv-x="562" 
d="M356 561h-124l-114 113l157 71zM534 292q6 -50 -5 -99h-329q20 -62 91 -62q72 0 107 55l125 -68q-30 -58 -94.5 -95.5t-142.5 -37.5q-115 0 -187 78.5t-72 186.5t72.5 186.5t187.5 78.5q102 0 169 -63t78 -160zM282 374q-65 0 -83 -66h166q-6 30 -28 48t-55 18z" />
    <glyph glyph-name="eacute" unicode="&#xe9;" horiz-adv-x="562" 
d="M462 674l-114 -113h-124l81 184zM534 292q6 -50 -5 -99h-329q20 -62 91 -62q72 0 107 55l125 -68q-30 -58 -94.5 -95.5t-142.5 -37.5q-115 0 -187 78.5t-72 186.5t72.5 186.5t187.5 78.5q102 0 169 -63t78 -160zM282 374q-65 0 -83 -66h166q-6 30 -28 48t-55 18z" />
    <glyph glyph-name="ecircumflex" unicode="&#xea;" horiz-adv-x="562" 
d="M287 617l-126 -83l-67 60l125 123h135l125 -123l-67 -60zM534 292q6 -50 -5 -99h-329q20 -62 91 -62q72 0 107 55l125 -68q-30 -58 -94.5 -95.5t-142.5 -37.5q-115 0 -187 78.5t-72 186.5t72.5 186.5t187.5 78.5q102 0 169 -63t78 -160zM282 374q-65 0 -83 -66h166
q-6 30 -28 48t-55 18z" />
    <glyph glyph-name="edieresis" unicode="&#xeb;" horiz-adv-x="562" 
d="M163 550q-44 0 -73.5 25t-29.5 67q0 41 29.5 66t73.5 25q42 0 71.5 -25t29.5 -66t-29.5 -66.5t-71.5 -25.5zM414 550q-44 0 -73.5 25t-29.5 67q0 41 29.5 66t73.5 25q42 0 71.5 -25t29.5 -66t-29.5 -66.5t-71.5 -25.5zM534 292q6 -50 -5 -99h-329q20 -62 91 -62
q72 0 107 55l125 -68q-30 -58 -94.5 -95.5t-142.5 -37.5q-115 0 -187 78.5t-72 186.5t72.5 186.5t187.5 78.5q102 0 169 -63t78 -160zM282 374q-65 0 -83 -66h166q-6 30 -28 48t-55 18z" />
    <glyph glyph-name="igrave" unicode="&#xec;" horiz-adv-x="264" 
d="M120 745l81 -184h-124l-114 113zM42 500h180v-500h-180v500z" />
    <glyph glyph-name="iacute" unicode="&#xed;" horiz-adv-x="264" 
d="M150 745l157 -71l-114 -113h-124zM42 500h180v-500h-180v500z" />
    <glyph glyph-name="icircumflex" unicode="&#xee;" horiz-adv-x="264" 
d="M199 717l125 -123l-67 -60l-125 83l-126 -83l-67 60l125 123h135zM42 0v500h180v-500h-180z" />
    <glyph glyph-name="idieresis" unicode="&#xef;" horiz-adv-x="264" 
d="M8 550q-44 0 -73.5 25t-29.5 67q0 41 29.5 66t73.5 25q42 0 71.5 -25t29.5 -66t-29.5 -66.5t-71.5 -25.5zM259 550q-44 0 -73.5 25t-29.5 67q0 41 29.5 66t73.5 25q42 0 71.5 -25t29.5 -66t-29.5 -66.5t-71.5 -25.5zM42 500h180v-500h-180v500z" />
    <glyph glyph-name="eth" unicode="&#xf0;" horiz-adv-x="576" 
d="M435 540q105 -165 105 -294q0 -110 -73 -185t-180 -75q-104 0 -177 69t-73 170q0 92 61 152.5t149 60.5q30 0 54 -7q-5 8 -31 49l-110 -40l-44 119l71 26q-39 39 -46 45l137 101q44 -44 78 -85l98 36l44 -119zM289 147q31 -1 51.5 21.5t19.5 56.5q-1 32 -21 54.5
t-51 23.5q-30 1 -50.5 -22t-20.5 -56t20.5 -55t51.5 -23z" />
    <glyph glyph-name="ntilde" unicode="&#xf1;" horiz-adv-x="596" 
d="M233 566h-103q-7 61 31.5 106.5t93.5 45.5q38 0 74 -26q5 -4 13.5 -11.5t15 -11t12.5 -3.5q21 0 21 32h103q7 -62 -32 -107t-95 -45q-32 0 -71 26q-6 4 -14.5 11t-15 11t-12.5 4q-21 0 -21 -32zM367 516q84 0 136.5 -65t52.5 -160v-291h-176v259q0 43 -20.5 70t-55.5 27
t-59.5 -27.5t-24.5 -69.5v-259h-176v500h176v-54q57 70 147 70z" />
    <glyph glyph-name="ograve" unicode="&#xf2;" horiz-adv-x="594" 
d="M285 745l81 -184h-124l-114 113zM298 -15q-113 0 -192 77.5t-79 187.5t79 187.5t192 77.5q112 0 190.5 -77.5t78.5 -187.5t-78.5 -187.5t-190.5 -77.5zM298 150q40 0 66.5 28.5t26.5 71.5t-26.5 71.5t-66.5 28.5q-41 0 -68 -28.5t-27 -71.5t27 -71.5t68 -28.5z" />
    <glyph glyph-name="oacute" unicode="&#xf3;" horiz-adv-x="594" 
d="M315 745l157 -71l-114 -113h-124zM298 -15q-113 0 -192 77.5t-79 187.5t79 187.5t192 77.5q112 0 190.5 -77.5t78.5 -187.5t-78.5 -187.5t-190.5 -77.5zM298 150q40 0 66.5 28.5t26.5 71.5t-26.5 71.5t-66.5 28.5q-41 0 -68 -28.5t-27 -71.5t27 -71.5t68 -28.5z" />
    <glyph glyph-name="ocircumflex" unicode="&#xf4;" horiz-adv-x="594" 
d="M297 617l-126 -83l-67 60l125 123h135l125 -123l-67 -60zM298 515q112 0 190.5 -77.5t78.5 -187.5t-78.5 -187.5t-190.5 -77.5q-113 0 -192 77.5t-79 187.5t79 187.5t192 77.5zM298 150q40 0 66.5 28.5t26.5 71.5t-26.5 71.5t-66.5 28.5q-41 0 -68 -28.5t-27 -71.5
t27 -71.5t68 -28.5z" />
    <glyph glyph-name="otilde" unicode="&#xf5;" horiz-adv-x="594" 
d="M376 698h103q7 -62 -32 -107t-95 -45q-32 0 -71 26q-6 4 -14.5 11t-15 11t-12.5 4q-21 0 -21 -32h-103q-7 61 31.5 106.5t93.5 45.5q38 0 74 -26q5 -4 13.5 -11.5t15 -11t12.5 -3.5q21 0 21 32zM298 -15q-113 0 -192 77.5t-79 187.5t79 187.5t192 77.5q112 0 190.5 -77.5
t78.5 -187.5t-78.5 -187.5t-190.5 -77.5zM298 150q40 0 66.5 28.5t26.5 71.5t-26.5 71.5t-66.5 28.5q-41 0 -68 -28.5t-27 -71.5t27 -71.5t68 -28.5z" />
    <glyph glyph-name="odieresis" unicode="&#xf6;" horiz-adv-x="594" 
d="M173 550q-44 0 -73.5 25t-29.5 67q0 41 29.5 66t73.5 25q42 0 71.5 -25t29.5 -66t-29.5 -66.5t-71.5 -25.5zM424 550q-44 0 -73.5 25t-29.5 67q0 41 29.5 66t73.5 25q42 0 71.5 -25t29.5 -66t-29.5 -66.5t-71.5 -25.5zM298 -15q-113 0 -192 77.5t-79 187.5t79 187.5
t192 77.5q112 0 190.5 -77.5t78.5 -187.5t-78.5 -187.5t-190.5 -77.5zM298 150q40 0 66.5 28.5t26.5 71.5t-26.5 71.5t-66.5 28.5q-41 0 -68 -28.5t-27 -71.5t27 -71.5t68 -28.5z" />
    <glyph glyph-name="divide" unicode="&#xf7;" horiz-adv-x="632" 
d="M317 639q37 0 64.5 -27t27.5 -64q0 -38 -27.5 -65t-64.5 -27q-38 0 -66 27t-28 65q0 37 28 64t66 27zM60 415h512v-150h-512v150zM317 224q37 0 64.5 -27t27.5 -65q0 -37 -27.5 -64t-64.5 -27q-38 0 -66 27t-28 64q0 38 28 65t66 27z" />
    <glyph glyph-name="oslash" unicode="&#xf8;" horiz-adv-x="594" 
d="M599 476l-78 -78q46 -67 46 -148q0 -110 -78.5 -187.5t-190.5 -77.5q-79 0 -148 42l-71 -71l-69 69l69 69q-52 68 -52 156q0 110 79 187.5t192 77.5q85 0 154 -48l78 78zM203 250q0 -16 4 -28l123 123q-17 5 -32 5q-41 0 -68 -28.5t-27 -71.5zM391 250q0 11 -1 17
l-114 -114q10 -3 22 -3q40 0 66.5 28.5t26.5 71.5z" />
    <glyph glyph-name="ugrave" unicode="&#xf9;" horiz-adv-x="596" 
d="M355 561h-124l-114 113l157 71zM376 500h176v-500h-176v54q-57 -70 -147 -70q-84 0 -136.5 65t-52.5 160v291h176v-259q0 -43 20.5 -70t55.5 -27t59.5 27.5t24.5 69.5v259z" />
    <glyph glyph-name="uacute" unicode="&#xfa;" horiz-adv-x="596" 
d="M461 674l-114 -113h-124l81 184zM376 500h176v-500h-176v54q-57 -70 -147 -70q-84 0 -136.5 65t-52.5 160v291h176v-259q0 -43 20.5 -70t55.5 -27t59.5 27.5t24.5 69.5v259z" />
    <glyph glyph-name="ucircumflex" unicode="&#xfb;" horiz-adv-x="596" 
d="M286 617l-126 -83l-67 60l125 123h135l125 -123l-67 -60zM376 500h176v-500h-176v54q-57 -70 -147 -70q-84 0 -136.5 65t-52.5 160v291h176v-259q0 -43 20.5 -70t55.5 -27t59.5 27.5t24.5 69.5v259z" />
    <glyph glyph-name="udieresis" unicode="&#xfc;" horiz-adv-x="596" 
d="M162 550q-44 0 -73.5 25t-29.5 67q0 41 29.5 66t73.5 25q42 0 71.5 -25t29.5 -66t-29.5 -66.5t-71.5 -25.5zM413 550q-44 0 -73.5 25t-29.5 67q0 41 29.5 66t73.5 25q42 0 71.5 -25t29.5 -66t-29.5 -66.5t-71.5 -25.5zM376 500h176v-500h-176v54q-57 -70 -147 -70
q-84 0 -136.5 65t-52.5 160v291h176v-259q0 -43 20.5 -70t55.5 -27t59.5 27.5t24.5 69.5v259z" />
    <glyph glyph-name="yacute" unicode="&#xfd;" horiz-adv-x="606" 
d="M479 674l-114 -113h-124l81 184zM416 500h179l-289 -700h-182l92 221l-213 479h187l117 -262z" />
    <glyph glyph-name="thorn" unicode="&#xfe;" horiz-adv-x="620" 
d="M365 515q97 0 162.5 -76t64.5 -189t-67 -189t-162 -76q-88 0 -143 65v-250h-176v900h176v-253q53 68 145 68zM316 150q40 0 66.5 29t26.5 71t-26.5 71t-66.5 29q-42 0 -69 -29t-27 -71t27.5 -71t68.5 -29z" />
    <glyph glyph-name="ydieresis" unicode="&#xff;" horiz-adv-x="606" 
d="M180 550q-44 0 -73.5 25t-29.5 67q0 41 29.5 66t73.5 25q42 0 71.5 -25t29.5 -66t-29.5 -66.5t-71.5 -25.5zM431 550q-44 0 -73.5 25t-29.5 67q0 41 29.5 66t73.5 25q42 0 71.5 -25t29.5 -66t-29.5 -66.5t-71.5 -25.5zM416 500h179l-289 -700h-182l92 221l-213 479h187
l117 -262z" />
    <glyph glyph-name="Amacron" unicode="&#x100;" horiz-adv-x="743" 
d="M547 870v-130h-350v130h350zM554 0l-48 117h-269l-47 -117h-191l284 680h174l287 -680h-190zM303 279h136l-68 167z" />
    <glyph glyph-name="amacron" unicode="&#x101;" horiz-adv-x="553" 
d="M439 690v-130h-350v130h350zM278 515q100 0 167.5 -61.5t67.5 -158.5v-295h-170v50q-68 -65 -156 -65q-68 0 -116 42.5t-48 111.5q0 65 46.5 107t129.5 58l134 26q-21 43 -73 43q-62 0 -107 -58l-114 86q36 48 100.5 81t138.5 33zM238 117q42 0 73.5 27t31.5 62v7
l-104 -19q-51 -9 -51 -42q0 -16 13 -25.5t37 -9.5z" />
    <glyph glyph-name="Abreve" unicode="&#x102;" horiz-adv-x="743" 
d="M374 736q-81 0 -131 44t-50 114h115q0 -24 17 -37.5t49 -13.5t49 13.5t17 37.5h115q0 -70 -50 -114t-131 -44zM554 0l-48 117h-269l-47 -117h-191l284 680h174l287 -680h-190zM303 279h136l-68 167z" />
    <glyph glyph-name="abreve" unicode="&#x103;" horiz-adv-x="553" 
d="M266 556q-81 0 -131 44t-50 114h115q0 -24 17 -37.5t49 -13.5t49 13.5t17 37.5h115q0 -70 -50 -114t-131 -44zM278 515q100 0 167.5 -61.5t67.5 -158.5v-295h-170v50q-68 -65 -156 -65q-68 0 -116 42.5t-48 111.5q0 65 46.5 107t129.5 58l134 26q-21 43 -73 43
q-62 0 -107 -58l-114 86q36 48 100.5 81t138.5 33zM238 117q42 0 73.5 27t31.5 62v7l-104 -19q-51 -9 -51 -42q0 -16 13 -25.5t37 -9.5z" />
    <glyph glyph-name="Aogonek" unicode="&#x104;" horiz-adv-x="743" 
d="M668 -97q0 -16 11 -22t30 -1t42 22v-104q-78 -34 -140.5 -1.5t-62.5 102.5q0 53 48 101h-42l-48 117h-269l-47 -117h-191l284 680h174l287 -680q-34 -20 -55 -47t-21 -50zM303 279h136l-68 167z" />
    <glyph glyph-name="aogonek" unicode="&#x105;" horiz-adv-x="553" 
d="M437 -97q0 -16 11 -22t30 -1t42 22v-104q-78 -34 -140.5 -1.5t-62.5 102.5q0 53 48 101h-22v50q-68 -65 -156 -65q-68 0 -116 42.5t-48 111.5q0 65 46.5 107t129.5 58l134 26q-21 43 -73 43q-62 0 -107 -58l-114 86q36 48 100.5 81t138.5 33q100 0 167.5 -61.5
t67.5 -158.5v-295q-34 -20 -55 -47t-21 -50zM238 117q42 0 73.5 27t31.5 62v7l-104 -19q-51 -9 -51 -42q0 -16 13 -25.5t37 -9.5z" />
    <glyph glyph-name="Cacute" unicode="&#x106;" horiz-adv-x="729" 
d="M417 926l157 -71l-114 -113h-124zM552 412q-21 44 -61.5 70t-87.5 26q-69 0 -116 -49t-47 -119q0 -69 47 -118.5t116 -49.5q47 0 87.5 26t61.5 70l162 -96q-46 -87 -130.5 -137.5t-182.5 -50.5q-149 0 -253 104t-104 252t104 252t253 104q99 0 183 -50.5t130 -137.5z" />
    <glyph glyph-name="cacute" unicode="&#x107;" horiz-adv-x="548" 
d="M301 745l157 -71l-114 -113h-124zM372 210l165 -61q-30 -74 -97.5 -119t-151.5 -45q-113 0 -192 77.5t-79 187.5t79 187.5t192 77.5q82 0 149.5 -44.5t98.5 -117.5l-164 -62q-24 59 -84 59q-41 0 -68 -28.5t-27 -71.5t27 -71.5t68 -28.5q28 0 50.5 17t33.5 43z" />
    <glyph glyph-name="Cdotaccent" unicode="&#x10a;" horiz-adv-x="729" 
d="M400 731q-44 0 -73.5 25t-29.5 67q0 41 29.5 66t73.5 25q42 0 71.5 -25t29.5 -66t-29.5 -66.5t-71.5 -25.5zM552 412q-21 44 -61.5 70t-87.5 26q-69 0 -116 -49t-47 -119q0 -69 47 -118.5t116 -49.5q47 0 87.5 26t61.5 70l162 -96q-46 -87 -130.5 -137.5t-182.5 -50.5
q-149 0 -253 104t-104 252t104 252t253 104q99 0 183 -50.5t130 -137.5z" />
    <glyph glyph-name="cdotaccent" unicode="&#x10b;" horiz-adv-x="548" 
d="M284 550q-44 0 -73.5 25t-29.5 67q0 41 29.5 66t73.5 25q42 0 71.5 -25t29.5 -66t-29.5 -66.5t-71.5 -25.5zM372 210l165 -61q-30 -74 -97.5 -119t-151.5 -45q-113 0 -192 77.5t-79 187.5t79 187.5t192 77.5q82 0 149.5 -44.5t98.5 -117.5l-164 -62q-24 59 -84 59
q-41 0 -68 -28.5t-27 -71.5t27 -71.5t68 -28.5q28 0 50.5 17t33.5 43z" />
    <glyph glyph-name="Ccaron" unicode="&#x10c;" horiz-adv-x="729" 
d="M466 741h-135l-125 123l67 60l126 -83l125 83l67 -60zM403 172q47 0 87.5 26t61.5 70l162 -96q-46 -87 -130.5 -137.5t-182.5 -50.5q-149 0 -253 104t-104 252t104 252t253 104q99 0 183 -50.5t130 -137.5l-162 -96q-21 44 -61.5 70t-87.5 26q-69 0 -116 -49t-47 -119
q0 -69 47 -118.5t116 -49.5z" />
    <glyph glyph-name="ccaron" unicode="&#x10d;" horiz-adv-x="548" 
d="M350 560h-135l-125 123l67 60l126 -83l125 83l67 -60zM372 210l165 -61q-30 -74 -97.5 -119t-151.5 -45q-113 0 -192 77.5t-79 187.5t79 187.5t192 77.5q82 0 149.5 -44.5t98.5 -117.5l-164 -62q-24 59 -84 59q-41 0 -68 -28.5t-27 -71.5t27 -71.5t68 -28.5q28 0 50.5 17
t33.5 43z" />
    <glyph glyph-name="Dcaron" unicode="&#x10e;" horiz-adv-x="724" 
d="M394 740h-135l-125 123l67 60l126 -83l125 83l67 -60zM327 680q155 0 259 -97t104 -243t-104 -243t-259 -97h-277v680h277zM318 177q81 0 131.5 44.5t50.5 118.5t-50.5 118.5t-131.5 44.5h-83v-326h83z" />
    <glyph glyph-name="dcaron" unicode="&#x10f;" horiz-adv-x="820" 
d="M390 450v250h176v-700h-176v53q-53 -68 -145 -68q-97 0 -162.5 76t-64.5 189t67 189t162 76q88 0 143 -65zM638 700h172l-100 -317h-102zM294 150q42 0 69 29t27 71t-27.5 71t-68.5 29q-40 0 -66.5 -29t-26.5 -71t26.5 -71t66.5 -29z" />
    <glyph glyph-name="Dcroat" unicode="&#x110;" horiz-adv-x="724" 
d="M327 680q155 0 259 -97t104 -243t-104 -243t-259 -97h-277v270h-71v140h71v270h277zM318 177q81 0 131.5 44.5t50.5 118.5t-50.5 118.5t-131.5 44.5h-83v-93h144v-140h-144v-93h83z" />
    <glyph glyph-name="dcroat" unicode="&#x111;" horiz-adv-x="610" 
d="M629 654v-119h-63v-535h-176v53q-53 -68 -145 -68q-97 0 -162.5 76t-64.5 189t67 189t162 76q88 0 143 -65v85h-161v119h161v46h176v-46h63zM294 150q42 0 69 29t27 71t-27.5 71t-68.5 29q-40 0 -66.5 -29t-26.5 -71t26.5 -71t66.5 -29z" />
    <glyph glyph-name="Emacron" unicode="&#x112;" horiz-adv-x="570" 
d="M456 870v-130h-350v130h350zM537 514h-303v-101h200v-146h-200v-101h303v-166h-487v680h487v-166z" />
    <glyph glyph-name="emacron" unicode="&#x113;" horiz-adv-x="562" 
d="M462 690v-130h-350v130h350zM534 292q6 -50 -5 -99h-329q20 -62 91 -62q72 0 107 55l125 -68q-30 -58 -94.5 -95.5t-142.5 -37.5q-115 0 -187 78.5t-72 186.5t72.5 186.5t187.5 78.5q102 0 169 -63t78 -160zM282 374q-65 0 -83 -66h166q-6 30 -28 48t-55 18z" />
    <glyph glyph-name="Edotaccent" unicode="&#x116;" horiz-adv-x="570" 
d="M282 730q-44 0 -73.5 25t-29.5 67q0 41 29.5 66t73.5 25q42 0 71.5 -25t29.5 -66t-29.5 -66.5t-71.5 -25.5zM537 514h-303v-101h200v-146h-200v-101h303v-166h-487v680h487v-166z" />
    <glyph glyph-name="edotaccent" unicode="&#x117;" horiz-adv-x="562" 
d="M288 550q-44 0 -73.5 25t-29.5 67q0 41 29.5 66t73.5 25q42 0 71.5 -25t29.5 -66t-29.5 -66.5t-71.5 -25.5zM534 292q6 -50 -5 -99h-329q20 -62 91 -62q72 0 107 55l125 -68q-30 -58 -94.5 -95.5t-142.5 -37.5q-115 0 -187 78.5t-72 186.5t72.5 186.5t187.5 78.5
q102 0 169 -63t78 -160zM282 374q-65 0 -83 -66h166q-6 30 -28 48t-55 18z" />
    <glyph glyph-name="Eogonek" unicode="&#x118;" horiz-adv-x="570" 
d="M461 -97q0 -16 11 -22t30 -1t42 22v-104q-78 -34 -140.5 -1.5t-62.5 102.5q0 53 48 101h-339v680h487v-166h-303v-101h200v-146h-200v-101h303v-166q-34 -20 -55 -47t-21 -50z" />
    <glyph glyph-name="eogonek" unicode="&#x119;" horiz-adv-x="562" 
d="M534 292q6 -50 -5 -99h-329q20 -62 91 -62q72 0 107 55l125 -68q-30 -58 -91 -93q-63 -44 -63 -89q0 -16 11 -22t30 -1t42 22v-104q-78 -34 -140.5 -1.5t-62.5 102.5q0 28 13 54q-105 9 -170 85.5t-65 178.5q0 108 72.5 186.5t187.5 78.5q102 0 169 -63t78 -160zM282 374
q-65 0 -83 -66h166q-6 30 -28 48t-55 18z" />
    <glyph glyph-name="Ecaron" unicode="&#x11a;" horiz-adv-x="570" 
d="M348 740h-135l-125 123l67 60l126 -83l125 83l67 -60zM537 514h-303v-101h200v-146h-200v-101h303v-166h-487v680h487v-166z" />
    <glyph glyph-name="ecaron" unicode="&#x11b;" horiz-adv-x="562" 
d="M354 560h-135l-125 123l67 60l126 -83l125 83l67 -60zM534 292q6 -50 -5 -99h-329q20 -62 91 -62q72 0 107 55l125 -68q-30 -58 -94.5 -95.5t-142.5 -37.5q-115 0 -187 78.5t-72 186.5t72.5 186.5t187.5 78.5q102 0 169 -63t78 -160zM282 374q-65 0 -83 -66h166
q-6 30 -28 48t-55 18z" />
    <glyph glyph-name="Gbreve" unicode="&#x11e;" horiz-adv-x="759" 
d="M390 737q-81 0 -131 44t-50 114h115q0 -24 17 -37.5t49 -13.5t49 13.5t17 37.5h115q0 -70 -50 -114t-131 -44zM342 387h379v-53q0 -157 -93.5 -253.5t-236.5 -96.5q-150 0 -253.5 103t-103.5 252t103.5 253t252.5 104q94 0 175 -45t128 -124l-156 -93q-22 40 -61.5 62.5
t-87.5 22.5q-75 0 -123 -51.5t-48 -129.5q0 -77 48.5 -126.5t125.5 -49.5q52 0 86.5 22.5t47.5 57.5h-183v145z" />
    <glyph glyph-name="gbreve" unicode="&#x11f;" horiz-adv-x="620" 
d="M283 556q-81 0 -131 44t-50 114h115q0 -24 17 -37.5t49 -13.5t49 13.5t17 37.5h115q0 -70 -50 -114t-131 -44zM400 500h176v-462q0 -111 -82 -182t-199 -71q-73 0 -140.5 29t-113.5 79l110 98q24 -26 62.5 -41t75.5 -15q50 0 80.5 28t30.5 77v20q-55 -65 -146 -65
q-96 0 -161 71.5t-65 182.5q0 113 66.5 189.5t162.5 76.5q88 0 143 -65v50zM305 150q41 0 68 29t27 71t-27 71t-68 29t-67.5 -29t-26.5 -71t26.5 -71t67.5 -29z" />
    <glyph glyph-name="Gdotaccent" unicode="&#x120;" horiz-adv-x="759" 
d="M389 731q-44 0 -73.5 25t-29.5 67q0 41 29.5 66t73.5 25q42 0 71.5 -25t29.5 -66t-29.5 -66.5t-71.5 -25.5zM342 387h379v-53q0 -157 -93.5 -253.5t-236.5 -96.5q-150 0 -253.5 103t-103.5 252t103.5 253t252.5 104q94 0 175 -45t128 -124l-156 -93q-22 40 -61.5 62.5
t-87.5 22.5q-75 0 -123 -51.5t-48 -129.5q0 -77 48.5 -126.5t125.5 -49.5q52 0 86.5 22.5t47.5 57.5h-183v145z" />
    <glyph glyph-name="gdotaccent" unicode="&#x121;" horiz-adv-x="620" 
d="M282 550q-44 0 -73.5 25t-29.5 67q0 41 29.5 66t73.5 25q42 0 71.5 -25t29.5 -66t-29.5 -66.5t-71.5 -25.5zM400 500h176v-462q0 -111 -82 -182t-199 -71q-73 0 -140.5 29t-113.5 79l110 98q24 -26 62.5 -41t75.5 -15q50 0 80.5 28t30.5 77v20q-55 -65 -146 -65
q-96 0 -161 71.5t-65 182.5q0 113 66.5 189.5t162.5 76.5q88 0 143 -65v50zM305 150q41 0 68 29t27 71t-27 71t-68 29t-67.5 -29t-26.5 -71t26.5 -71t67.5 -29z" />
    <glyph glyph-name="Gcommaaccent" unicode="&#x122;" horiz-adv-x="759" 
d="M342 387h379v-53q0 -157 -93.5 -253.5t-236.5 -96.5q-150 0 -253.5 103t-103.5 252t103.5 253t252.5 104q94 0 175 -45t128 -124l-156 -93q-22 40 -61.5 62.5t-87.5 22.5q-75 0 -123 -51.5t-48 -129.5q0 -77 48.5 -126.5t125.5 -49.5q52 0 86.5 22.5t47.5 57.5h-183v145z
M269 -279l40 219h170l-113 -219h-97z" />
    <glyph glyph-name="gcommaaccent" unicode="&#x123;" horiz-adv-x="620" 
d="M401 774l-40 -229h-170l113 229h97zM400 500h176v-462q0 -111 -82 -182t-199 -71q-73 0 -140.5 29t-113.5 79l110 98q24 -26 62.5 -41t75.5 -15q50 0 80.5 28t30.5 77v20q-55 -65 -146 -65q-96 0 -161 71.5t-65 182.5q0 113 66.5 189.5t162.5 76.5q88 0 143 -65v50z
M305 150q41 0 68 29t27 71t-27 71t-68 29t-67.5 -29t-26.5 -71t26.5 -71t67.5 -29z" />
    <glyph glyph-name="Hbar" unicode="&#x126;" horiz-adv-x="708" 
d="M703 617v-140h-45v-477h-188v250h-232v-250h-188v477h-57v140h57v63h188v-63h232v63h188v-63h45zM470 430v47h-232v-47h232z" />
    <glyph glyph-name="hbar" unicode="&#x127;" horiz-adv-x="596" 
d="M367 516q84 0 136.5 -65t52.5 -160v-291h-176v259q0 43 -20.5 70t-55.5 27t-59.5 -27.5t-24.5 -69.5v-259h-176v539h-73v119h73v42h176v-42h171v-119h-171v-93q57 70 147 70z" />
    <glyph glyph-name="Imacron" unicode="&#x12a;" horiz-adv-x="301" 
d="M-25 870h350v-130h-350v130zM52 680h197v-680h-197v680z" />
    <glyph glyph-name="imacron" unicode="&#x12b;" horiz-adv-x="264" 
d="M-43 690h350v-130h-350v130zM42 500h180v-500h-180v500z" />
    <glyph glyph-name="Iogonek" unicode="&#x12e;" horiz-adv-x="301" 
d="M173 -97q0 -16 11 -22t30 -1t42 22v-104q-78 -34 -140.5 -1.5t-62.5 102.5q0 53 48 101h-49v680h197v-680q-34 -20 -55 -47t-21 -50z" />
    <glyph glyph-name="iogonek" unicode="&#x12f;" horiz-adv-x="264" 
d="M133 550q-44 0 -73.5 25t-29.5 67q0 41 29.5 66t73.5 25q42 0 71.5 -25t29.5 -66t-29.5 -66.5t-71.5 -25.5zM146 -97q0 -16 11 -22t30 -1t42 22v-104q-78 -34 -140.5 -1.5t-62.5 102.5q0 53 48 101h-32v500h180v-500q-34 -20 -55 -47t-21 -50z" />
    <glyph glyph-name="Idotaccent" unicode="&#x130;" horiz-adv-x="301" 
d="M151 730q-44 0 -73.5 25t-29.5 67q0 41 29.5 66t73.5 25q42 0 71.5 -25t29.5 -66t-29.5 -66.5t-71.5 -25.5zM52 680h197v-680h-197v680z" />
    <glyph glyph-name="dotlessi" unicode="&#x131;" horiz-adv-x="264" 
d="M42 500h180v-500h-180v500z" />
    <glyph glyph-name="Kcommaaccent" unicode="&#x136;" horiz-adv-x="696" 
d="M417 385l289 -385h-220l-197 254l-51 -52v-202h-188v680h188v-240l232 240h234zM236 -279l40 219h170l-113 -219h-97z" />
    <glyph glyph-name="kcommaaccent" unicode="&#x137;" horiz-adv-x="583" 
d="M587 500l-200 -201l194 -299h-197l-118 177l-46 -46v-131h-176v700h176v-355l147 155h220zM164 -279l40 219h170l-113 -219h-97z" />
    <glyph glyph-name="Lacute" unicode="&#x139;" horiz-adv-x="550" 
d="M306 854l-114 -113h-124l81 184zM243 175h286v-175h-479v680h193v-505z" />
    <glyph glyph-name="lacute" unicode="&#x13a;" horiz-adv-x="278" 
d="M157 945l157 -71l-114 -113h-124zM46 700h186v-700h-186v700z" />
    <glyph glyph-name="Lcommaaccent" unicode="&#x13b;" horiz-adv-x="550" 
d="M243 175h286v-175h-479v680h193v-505zM171 -279l40 219h170l-113 -219h-97z" />
    <glyph glyph-name="lcommaaccent" unicode="&#x13c;" horiz-adv-x="278" 
d="M46 700h186v-700h-186v700zM71 -60h170l-113 -219h-97z" />
    <glyph glyph-name="Lcaron" unicode="&#x13d;" horiz-adv-x="550" 
d="M609 700l-126 -317h-102l55 317h173zM243 680v-505h286v-175h-479v680h193z" />
    <glyph glyph-name="lcaron" unicode="&#x13e;" horiz-adv-x="496" 
d="M46 700h186v-700h-186v700zM322 700h164l-109 -317h-98z" />
    <glyph glyph-name="Lslash" unicode="&#x141;" horiz-adv-x="550" 
d="M243 175h286v-175h-479v174l-7 -4l-80 139l87 50v321h193v-209l84 48l80 -139l-164 -95v-110z" />
    <glyph glyph-name="lslash" unicode="&#x142;" horiz-adv-x="278" 
d="M334 393l-102 -56v-337h-186v236l-44 -24l-73 120l117 64v304h186v-203l29 16z" />
    <glyph glyph-name="Nacute" unicode="&#x143;" horiz-adv-x="710" 
d="M518 854l-114 -113h-124l81 184zM479 680h181v-680h-155l-274 358v-358h-181v680h154l275 -359v359z" />
    <glyph glyph-name="nacute" unicode="&#x144;" horiz-adv-x="596" 
d="M487 674l-114 -113h-124l81 184zM367 516q84 0 136.5 -65t52.5 -160v-291h-176v259q0 43 -20.5 70t-55.5 27t-59.5 -27.5t-24.5 -69.5v-259h-176v500h176v-54q57 70 147 70z" />
    <glyph glyph-name="Ncommaaccent" unicode="&#x145;" horiz-adv-x="710" 
d="M479 680h181v-680h-155l-274 358v-358h-181v680h154l275 -359v359zM240 -279l40 219h170l-113 -219h-97z" />
    <glyph glyph-name="ncommaaccent" unicode="&#x146;" horiz-adv-x="596" 
d="M367 516q84 0 136.5 -65t52.5 -160v-291h-176v259q0 43 -20.5 70t-55.5 27t-59.5 -27.5t-24.5 -69.5v-259h-176v500h176v-54q57 70 147 70zM204 -279l40 219h170l-113 -219h-97z" />
    <glyph glyph-name="Ncaron" unicode="&#x147;" horiz-adv-x="710" 
d="M410 740h-135l-125 123l67 60l126 -83l125 83l67 -60zM479 680h181v-680h-155l-274 358v-358h-181v680h154l275 -359v359z" />
    <glyph glyph-name="ncaron" unicode="&#x148;" horiz-adv-x="596" 
d="M379 560h-135l-125 123l67 60l126 -83l125 83l67 -60zM367 516q84 0 136.5 -65t52.5 -160v-291h-176v259q0 43 -20.5 70t-55.5 27t-59.5 -27.5t-24.5 -69.5v-259h-176v500h176v-54q57 70 147 70z" />
    <glyph glyph-name="Eng" unicode="&#x14a;" horiz-adv-x="710" 
d="M479 680h181v-705q0 -89 -45.5 -132t-140.5 -43h-93v146h49q29 0 39.5 11t10.5 43v33l-249 325v-358h-181v680h154l275 -359v359z" />
    <glyph glyph-name="eng" unicode="&#x14b;" horiz-adv-x="596" 
d="M367 516q84 0 136.5 -65t52.5 -160v-316q0 -89 -45.5 -132t-140.5 -43h-93v146h49q30 0 42 11.5t12 42.5v259q0 43 -20.5 70t-55.5 27t-59.5 -27.5t-24.5 -69.5v-259h-176v500h176v-54q57 70 147 70z" />
    <glyph glyph-name="Omacron" unicode="&#x14c;" horiz-adv-x="780" 
d="M215 871h350v-130h-350v130zM391 -16q-149 0 -253 103.5t-104 252.5t104 252.5t253 103.5q148 0 251.5 -104t103.5 -252t-103.5 -252t-251.5 -104zM391 172q67 0 112.5 48t45.5 120t-45.5 120t-112.5 48q-68 0 -114.5 -48t-46.5 -120t46.5 -120t114.5 -48z" />
    <glyph glyph-name="omacron" unicode="&#x14d;" horiz-adv-x="594" 
d="M122 690h350v-130h-350v130zM298 -15q-113 0 -192 77.5t-79 187.5t79 187.5t192 77.5q112 0 190.5 -77.5t78.5 -187.5t-78.5 -187.5t-190.5 -77.5zM298 150q40 0 66.5 28.5t26.5 71.5t-26.5 71.5t-66.5 28.5q-41 0 -68 -28.5t-27 -71.5t27 -71.5t68 -28.5z" />
    <glyph glyph-name="Ohungarumlaut" unicode="&#x150;" horiz-adv-x="780" 
d="M325 926l143 -71l-104 -113h-112zM504 926l143 -71l-104 -113h-112zM391 -16q-149 0 -253 103.5t-104 252.5t104 252.5t253 103.5q148 0 251.5 -104t103.5 -252t-103.5 -252t-251.5 -104zM391 172q67 0 112.5 48t45.5 120t-45.5 120t-112.5 48q-68 0 -114.5 -48
t-46.5 -120t46.5 -120t114.5 -48z" />
    <glyph glyph-name="ohungarumlaut" unicode="&#x151;" horiz-adv-x="594" 
d="M232 745l143 -71l-104 -113h-112zM411 745l143 -71l-104 -113h-112zM298 -15q-113 0 -192 77.5t-79 187.5t79 187.5t192 77.5q112 0 190.5 -77.5t78.5 -187.5t-78.5 -187.5t-190.5 -77.5zM298 150q40 0 66.5 28.5t26.5 71.5t-26.5 71.5t-66.5 28.5q-41 0 -68 -28.5
t-27 -71.5t27 -71.5t68 -28.5z" />
    <glyph glyph-name="OE" unicode="&#x152;" horiz-adv-x="1070" 
d="M734 514v-81l5 -20h195v-146h-195l-5 -20v-81h303v-166h-487v21q-74 -37 -159 -37q-149 0 -253 103.5t-104 252.5t104 252.5t253 103.5q85 0 159 -37v21h487v-166h-303zM391 172q67 0 112.5 48t45.5 120t-45.5 120t-112.5 48q-68 0 -114.5 -48t-46.5 -120t46.5 -120
t114.5 -48z" />
    <glyph glyph-name="oe" unicode="&#x153;" horiz-adv-x="930" 
d="M902 292q6 -50 -5 -99h-329q20 -62 91 -62q72 0 107 55l125 -68q-30 -58 -94.5 -95.5t-142.5 -37.5q-105 0 -176 68q-78 -68 -180 -68q-113 0 -192 77.5t-79 187.5t79 187.5t192 77.5q104 0 180 -68q71 68 177 68q102 0 169 -63t78 -160zM650 374q-65 0 -83 -66h166
q-6 30 -28 48t-55 18zM298 150q40 0 66.5 28.5t26.5 71.5t-26.5 71.5t-66.5 28.5q-41 0 -68 -28.5t-27 -71.5t27 -71.5t68 -28.5z" />
    <glyph glyph-name="Racute" unicode="&#x154;" horiz-adv-x="648" 
d="M527 854l-114 -113h-124l81 184zM443 0l-135 235h-77v-235h-181v680h329q100 0 167.5 -63.5t67.5 -157.5q0 -64 -32 -116t-87 -81l151 -262h-203zM231 517v-127h128q31 0 50.5 18.5t19.5 44.5q0 27 -19 45.5t-51 18.5h-128z" />
    <glyph glyph-name="racute" unicode="&#x155;" horiz-adv-x="376" 
d="M342 674l-114 -113h-124l81 184zM224 447q56 69 137 69v-170q-137 0 -137 -97v-249h-180v500h180v-53z" />
    <glyph glyph-name="Rcommaaccent" unicode="&#x156;" horiz-adv-x="648" 
d="M308 235h-77v-235h-181v680h329q100 0 167.5 -63.5t67.5 -157.5q0 -64 -32 -116t-87 -81l151 -262h-203zM231 517v-127h128q31 0 50.5 18.5t19.5 44.5q0 27 -19 45.5t-51 18.5h-128zM244 -279l40 219h170l-113 -219h-97z" />
    <glyph glyph-name="rcommaaccent" unicode="&#x157;" horiz-adv-x="376" 
d="M224 447q56 69 137 69v-170q-137 0 -137 -97v-249h-180v500h180v-53zM7 -279l40 219h170l-113 -219h-97z" />
    <glyph glyph-name="Rcaron" unicode="&#x158;" horiz-adv-x="648" 
d="M419 740h-135l-125 123l67 60l126 -83l125 83l67 -60zM443 0l-135 235h-77v-235h-181v680h329q100 0 167.5 -63.5t67.5 -157.5q0 -64 -32 -116t-87 -81l151 -262h-203zM231 517v-127h128q31 0 50.5 18.5t19.5 44.5q0 27 -19 45.5t-51 18.5h-128z" />
    <glyph glyph-name="rcaron" unicode="&#x159;" horiz-adv-x="376" 
d="M234 560h-135l-125 123l67 60l126 -83l125 83l67 -60zM224 447q56 69 137 69v-170q-137 0 -137 -97v-249h-180v500h180v-53z" />
    <glyph glyph-name="Sacute" unicode="&#x15a;" horiz-adv-x="600" 
d="M314 926l157 -71l-114 -113h-124zM576 207q0 -103 -79.5 -163t-206.5 -60q-119 0 -201 52t-97 128l165 63q10 -33 46 -56.5t94 -23.5q39 0 64 11.5t25 32.5q0 22 -26 34t-81 25q-2 0 -3 0.5t-3 1t-3.5 1t-3.5 0.5q-118 29 -181 80t-63 143q0 105 78.5 162.5t192.5 57.5
q109 0 184.5 -51t91.5 -129l-159 -63q-10 36 -45 59t-82 23q-33 0 -53 -11.5t-20 -31.5q0 -21 24 -33.5t79 -27.5q48 -13 76.5 -22.5t68.5 -28.5t62.5 -40.5t39 -55.5t16.5 -77z" />
    <glyph glyph-name="sacute" unicode="&#x15b;" horiz-adv-x="489" 
d="M257 745l157 -71l-114 -113h-124zM466 155q0 -79 -66.5 -124.5t-161.5 -45.5q-89 0 -152.5 41.5t-80.5 111.5l141 38q18 -60 102 -60q56 0 56 23q0 10 -14 15.5t-55 14.5q-12 3 -18 4q-192 44 -192 175q0 77 61.5 122t150.5 45q86 0 145.5 -42t76.5 -111l-135 -38
q-25 60 -91 60q-50 0 -50 -24q0 -21 75 -37q22 -5 30.5 -6.5t35.5 -9.5t41 -15t36.5 -20.5t34 -29t21 -38t9.5 -49.5z" />
    <glyph glyph-name="Scedilla" unicode="&#x15e;" horiz-adv-x="600" 
d="M576 207q0 -85 -55.5 -141.5t-150.5 -74.5l-73 -166l-157 71l92 92q-97 12 -162 61t-78 115l165 63q10 -33 46 -56.5t94 -23.5q39 0 64 11.5t25 32.5q0 22 -26 34t-81 25q-2 0 -3 0.5t-3 1t-3.5 1t-3.5 0.5q-118 29 -181 80t-63 143q0 105 78.5 162.5t192.5 57.5
q109 0 184.5 -51t91.5 -129l-159 -63q-10 36 -45 59t-82 23q-33 0 -53 -11.5t-20 -31.5q0 -21 24 -33.5t79 -27.5q48 -13 76.5 -22.5t68.5 -28.5t62.5 -40.5t39 -55.5t16.5 -77z" />
    <glyph glyph-name="scedilla" unicode="&#x15f;" horiz-adv-x="489" 
d="M466 155q0 -61 -42 -103t-109 -58l-74 -169l-157 71l95 94q-67 13 -113.5 52t-60.5 96l141 38q18 -60 102 -60q56 0 56 23q0 10 -14 15.5t-55 14.5q-12 3 -18 4q-192 44 -192 175q0 77 61.5 122t150.5 45q86 0 145.5 -42t76.5 -111l-135 -38q-25 60 -91 60q-50 0 -50 -24
q0 -21 75 -37q22 -5 30.5 -6.5t35.5 -9.5t41 -15t36.5 -20.5t34 -29t21 -38t9.5 -49.5z" />
    <glyph glyph-name="Scaron" unicode="&#x160;" horiz-adv-x="600" 
d="M363 741h-135l-125 123l67 60l126 -83l125 83l67 -60zM313 431q48 -13 76.5 -22.5t68.5 -28.5t62.5 -40.5t39 -55.5t16.5 -77q0 -103 -79.5 -163t-206.5 -60q-119 0 -201 52t-97 128l165 63q10 -33 46 -56.5t94 -23.5q39 0 64 11.5t25 32.5q0 22 -26 34t-81 25
q-2 0 -3 0.5t-3 1t-3.5 1t-3.5 0.5q-118 29 -181 80t-63 143q0 105 78.5 162.5t192.5 57.5q109 0 184.5 -51t91.5 -129l-159 -63q-10 36 -45 59t-82 23q-33 0 -53 -11.5t-20 -31.5q0 -21 24 -33.5t79 -27.5z" />
    <glyph glyph-name="scaron" unicode="&#x161;" horiz-adv-x="489" 
d="M306 560h-135l-125 123l67 60l126 -83l125 83l67 -60zM258 323q22 -5 30.5 -6.5t35.5 -9.5t41 -15t36.5 -20.5t34 -29t21 -38t9.5 -49.5q0 -79 -66.5 -124.5t-161.5 -45.5q-89 0 -152.5 41.5t-80.5 111.5l141 38q18 -60 102 -60q56 0 56 23q0 10 -14 15.5t-55 14.5
q-12 3 -18 4q-192 44 -192 175q0 77 61.5 122t150.5 45q86 0 145.5 -42t76.5 -111l-135 -38q-25 60 -91 60q-50 0 -50 -24q0 -21 75 -37z" />
    <glyph glyph-name="uni0162" unicode="&#x162;" horiz-adv-x="586" 
d="M563 680v-180h-173v-500h-12l-81 -184l-157 71l114 113h-58v500h-173v180h540z" />
    <glyph glyph-name="uni0163" unicode="&#x163;" horiz-adv-x="399" 
d="M372 350h-99v-139q0 -32 10.5 -43t39.5 -11h49v-157h-51l-77 -175l-157 71l114 113h4q-109 29 -109 166v175h-74v150h74v114l177 51v-165h99v-150z" />
    <glyph glyph-name="Tcaron" unicode="&#x164;" horiz-adv-x="586" 
d="M360 740h-135l-125 123l67 60l126 -83l125 83l67 -60zM563 680v-180h-173v-500h-194v500h-173v180h540z" />
    <glyph glyph-name="tcaron" unicode="&#x165;" horiz-adv-x="399" 
d="M349 796h153l-112 -255h-91zM273 665v-165h99v-150h-99v-139q0 -32 10.5 -43t39.5 -11h49v-157h-90q-95 0 -140.5 43t-45.5 132v175h-74v150h74v114z" />
    <glyph glyph-name="Tbar" unicode="&#x166;" horiz-adv-x="586" 
d="M563 500h-173v-64h105v-140h-105v-296h-194v296h-101v140h101v64h-173v180h540v-180z" />
    <glyph glyph-name="tbar" unicode="&#x167;" horiz-adv-x="399" 
d="M372 350h-99v-32h99v-123h-98q2 -22 12.5 -30t36.5 -8h49v-157h-90q-95 0 -140.5 43t-45.5 132v20h-75v123h75v32h-74v150h74v114l177 51v-165h99v-150z" />
    <glyph glyph-name="Umacron" unicode="&#x16a;" horiz-adv-x="683" 
d="M166 870h350v-130h-350v130zM454 680h185v-380q0 -142 -82 -229t-216 -87q-133 0 -215 87t-82 229v380h184v-378q0 -63 31 -100t82 -37q52 0 82.5 37t30.5 100v378z" />
    <glyph glyph-name="umacron" unicode="&#x16b;" horiz-adv-x="596" 
d="M461 690v-130h-350v130h350zM376 500h176v-500h-176v54q-57 -70 -147 -70q-84 0 -136.5 65t-52.5 160v291h176v-259q0 -43 20.5 -70t55.5 -27t59.5 27.5t24.5 69.5v259z" />
    <glyph glyph-name="Uring" unicode="&#x16e;" horiz-adv-x="683" 
d="M356 671q-47 0 -81.5 34t-34.5 81q0 46 34.5 80t81.5 34t81 -34t34 -80q0 -47 -34 -81t-81 -34zM356 752q14 0 23.5 10t9.5 24t-9.5 23.5t-23.5 9.5t-24 -9.5t-10 -23.5t10 -24t24 -10zM454 680h185v-380q0 -142 -82 -229t-216 -87q-133 0 -215 87t-82 229v380h184v-378
q0 -63 31 -100t82 -37q52 0 82.5 37t30.5 100v378z" />
    <glyph glyph-name="uring" unicode="&#x16f;" horiz-adv-x="596" 
d="M328 521q-47 0 -81.5 34t-34.5 81q0 46 34.5 80t81.5 34t81 -34t34 -80q0 -47 -34 -81t-81 -34zM328 669q-14 0 -24 -9.5t-10 -23.5t10 -24t24 -10t23.5 10t9.5 24t-9.5 23.5t-23.5 9.5zM376 500h176v-500h-176v54q-57 -70 -147 -70q-84 0 -136.5 65t-52.5 160v291h176
v-259q0 -43 20.5 -70t55.5 -27t59.5 27.5t24.5 69.5v259z" />
    <glyph glyph-name="Uhungarumlaut" unicode="&#x170;" horiz-adv-x="683" 
d="M276 925l143 -71l-104 -113h-112zM455 925l143 -71l-104 -113h-112zM454 680h185v-380q0 -142 -82 -229t-216 -87q-133 0 -215 87t-82 229v380h184v-378q0 -63 31 -100t82 -37q52 0 82.5 37t30.5 100v378z" />
    <glyph glyph-name="uhungarumlaut" unicode="&#x171;" horiz-adv-x="596" 
d="M364 674l-104 -113h-112l73 184zM439 561h-112l73 184l143 -71zM376 500h176v-500h-176v54q-57 -70 -147 -70q-84 0 -136.5 65t-52.5 160v291h176v-259q0 -43 20.5 -70t55.5 -27t59.5 27.5t24.5 69.5v259z" />
    <glyph glyph-name="Uogonek" unicode="&#x172;" horiz-adv-x="683" 
d="M454 680h185v-380q0 -108 -49.5 -186t-135.5 -111q-34 -20 -54.5 -46.5t-20.5 -49.5q0 -16 11 -22t30 -1t42 22v-104q-78 -34 -140.5 -1.5t-62.5 102.5q0 45 33 84q-113 17 -180.5 101t-67.5 212v380h184v-378q0 -63 31 -100t82 -37q52 0 82.5 37t30.5 100v378z" />
    <glyph glyph-name="uogonek" unicode="&#x173;" horiz-adv-x="596" 
d="M476 -97q0 -16 11 -22t30 -1t42 22v-104q-78 -34 -140.5 -1.5t-62.5 102.5q0 53 48 101h-28v54q-57 -70 -147 -70q-84 0 -136.5 65t-52.5 160v291h176v-259q0 -43 20.5 -70t55.5 -27t59.5 27.5t24.5 69.5v259h176v-500q-34 -20 -55 -47t-21 -50z" />
    <glyph glyph-name="Wcircumflex" unicode="&#x174;" horiz-adv-x="1079" 
d="M540 797l-126 -83l-67 60l125 123h135l125 -123l-67 -60zM883 680h186l-201 -680h-207l-121 403l-121 -403h-208l-201 680h187l120 -432l130 432h186l130 -430z" />
    <glyph glyph-name="wcircumflex" unicode="&#x175;" horiz-adv-x="877" 
d="M439 617l-126 -83l-67 60l125 123h135l125 -123l-67 -60zM697 500h169l-150 -500h-191l-86 288l-87 -288h-191l-150 500h169l79 -285l86 285h187l86 -285z" />
    <glyph glyph-name="Ycircumflex" unicode="&#x176;" horiz-adv-x="712" 
d="M346 797l-126 -83l-67 60l125 123h135l125 -123l-67 -60zM718 680l-267 -400v-280h-189v279l-268 401h213l149 -230l149 230h213z" />
    <glyph glyph-name="ycircumflex" unicode="&#x177;" horiz-adv-x="606" 
d="M304 617l-126 -83l-67 60l125 123h135l125 -123l-67 -60zM416 500h179l-289 -700h-182l92 221l-213 479h187l117 -262z" />
    <glyph glyph-name="Ydieresis" unicode="&#x178;" horiz-adv-x="712" 
d="M222 730q-44 0 -73.5 25t-29.5 67q0 41 29.5 66t73.5 25q42 0 71.5 -25t29.5 -66t-29.5 -66.5t-71.5 -25.5zM473 730q-44 0 -73.5 25t-29.5 67q0 41 29.5 66t73.5 25q42 0 71.5 -25t29.5 -66t-29.5 -66.5t-71.5 -25.5zM718 680l-267 -400v-280h-189v279l-268 401h213
l149 -230l149 230h213z" />
    <glyph glyph-name="Zacute" unicode="&#x179;" horiz-adv-x="609" 
d="M480 854l-114 -113h-124l81 184zM281 172h301v-172h-554v136l282 372h-282v172h536v-135z" />
    <glyph glyph-name="zacute" unicode="&#x17a;" horiz-adv-x="457" 
d="M408 674l-114 -113h-124l81 184zM245 150h190v-150h-410v115l185 235h-185v150h405v-115z" />
    <glyph glyph-name="Zdotaccent" unicode="&#x17b;" horiz-adv-x="609" 
d="M306 730q-44 0 -73.5 25t-29.5 67q0 41 29.5 66t73.5 25q42 0 71.5 -25t29.5 -66t-29.5 -66.5t-71.5 -25.5zM281 172h301v-172h-554v136l282 372h-282v172h536v-135z" />
    <glyph glyph-name="zdotaccent" unicode="&#x17c;" horiz-adv-x="457" 
d="M234 550q-44 0 -73.5 25t-29.5 67q0 41 29.5 66t73.5 25q42 0 71.5 -25t29.5 -66t-29.5 -66.5t-71.5 -25.5zM245 150h190v-150h-410v115l185 235h-185v150h405v-115z" />
    <glyph glyph-name="Zcaron" unicode="&#x17d;" horiz-adv-x="609" 
d="M372 740h-135l-125 123l67 60l126 -83l125 83l67 -60zM281 172h301v-172h-554v136l282 372h-282v172h536v-135z" />
    <glyph glyph-name="zcaron" unicode="&#x17e;" horiz-adv-x="457" 
d="M300 560h-135l-125 123l67 60l126 -83l125 83l67 -60zM245 150h190v-150h-410v115l185 235h-185v150h405v-115z" />
    <glyph glyph-name="Scommaaccent" unicode="&#x218;" horiz-adv-x="600" 
d="M576 207q0 -103 -79.5 -163t-206.5 -60q-119 0 -201 52t-97 128l165 63q10 -33 46 -56.5t94 -23.5q39 0 64 11.5t25 32.5q0 22 -26 34t-81 25q-2 0 -3 0.5t-3 1t-3.5 1t-3.5 0.5q-118 29 -181 80t-63 143q0 105 78.5 162.5t192.5 57.5q109 0 184.5 -51t91.5 -129
l-159 -63q-10 36 -45 59t-82 23q-33 0 -53 -11.5t-20 -31.5q0 -21 24 -33.5t79 -27.5q48 -13 76.5 -22.5t68.5 -28.5t62.5 -40.5t39 -55.5t16.5 -77zM227 -60h170l-113 -219h-97z" />
    <glyph glyph-name="scommaaccent" unicode="&#x219;" horiz-adv-x="489" 
d="M466 155q0 -79 -66.5 -124.5t-161.5 -45.5q-89 0 -152.5 41.5t-80.5 111.5l141 38q18 -60 102 -60q56 0 56 23q0 10 -14 15.5t-55 14.5q-12 3 -18 4q-192 44 -192 175q0 77 61.5 122t150.5 45q86 0 145.5 -42t76.5 -111l-135 -38q-25 60 -91 60q-50 0 -50 -24
q0 -21 75 -37q22 -5 30.5 -6.5t35.5 -9.5t41 -15t36.5 -20.5t34 -29t21 -38t9.5 -49.5zM171 -60h170l-113 -219h-97z" />
    <glyph glyph-name="uni021A" unicode="&#x21a;" horiz-adv-x="586" 
d="M563 680v-180h-173v-500h-194v500h-173v180h540zM187 -288l40 219h170l-113 -219h-97z" />
    <glyph glyph-name="uni021B" unicode="&#x21b;" horiz-adv-x="399" 
d="M372 350h-99v-139q0 -32 10.5 -43t39.5 -11h49v-157h-90q-95 0 -140.5 43t-45.5 132v175h-74v150h74v114l177 51v-165h99v-150zM134 -279l40 219h170l-113 -219h-97z" />
    <glyph glyph-name="gravecomb" unicode="&#x300;" 
d="M-311 745l81 -184h-124l-114 113z" />
    <glyph glyph-name="acutecomb" unicode="&#x301;" 
d="M-271 745l157 -71l-114 -113h-124z" />
    <glyph glyph-name="uni0302" unicode="&#x302;" 
d="M-107 594l-67 -60l-125 83l-126 -83l-67 60l125 123h135z" />
    <glyph glyph-name="tildecomb" unicode="&#x303;" 
d="M-194 698h103q7 -62 -32 -107t-95 -45q-32 0 -71 26q-6 4 -14.5 11t-15 11t-12.5 4q-21 0 -21 -32h-103q-7 61 31.5 106.5t93.5 45.5q38 0 74 -26q5 -4 13.5 -11.5t15 -11t12.5 -3.5q21 0 21 32z" />
    <glyph glyph-name="uni0304" unicode="&#x304;" 
d="M-480 690h350v-130h-350v130z" />
    <glyph glyph-name="uni0306" unicode="&#x306;" 
d="M-231 714h115q0 -70 -50 -114t-131 -44t-131 44t-50 114h115q0 -24 17 -37.5t49 -13.5t49 13.5t17 37.5z" />
    <glyph glyph-name="uni0307" unicode="&#x307;" 
d="M-272 550q-44 0 -73.5 25t-29.5 67q0 41 29.5 66t73.5 25q42 0 71.5 -25t29.5 -66t-29.5 -66.5t-71.5 -25.5z" />
    <glyph glyph-name="uni0308" unicode="&#x308;" 
d="M-397 550q-44 0 -73.5 25t-29.5 67q0 41 29.5 66t73.5 25q42 0 71.5 -25t29.5 -66t-29.5 -66.5t-71.5 -25.5zM-146 550q-44 0 -73.5 25t-29.5 67q0 41 29.5 66t73.5 25q42 0 71.5 -25t29.5 -66t-29.5 -66.5t-71.5 -25.5z" />
    <glyph glyph-name="uni030A" unicode="&#x30a;" 
d="M-272 521q-47 0 -81.5 34t-34.5 81q0 46 34.5 80t81.5 34t81 -34t34 -80q0 -47 -34 -81t-81 -34zM-272 602q14 0 23.5 10t9.5 24t-9.5 23.5t-23.5 9.5t-24 -9.5t-10 -23.5t10 -24t24 -10z" />
    <glyph glyph-name="uni030B" unicode="&#x30b;" 
d="M-447 745l143 -71l-104 -113h-112zM-268 745l143 -71l-104 -113h-112z" />
    <glyph glyph-name="uni030C" unicode="&#x30c;" 
d="M-174 743l67 -60l-125 -123h-135l-125 123l67 60l126 -83z" />
    <glyph glyph-name="uni0312" unicode="&#x312;" 
d="M-385 545h-170l113 229h97z" />
    <glyph glyph-name="uni0326" unicode="&#x326;" 
d="M-533 -60h170l-113 -219h-97z" />
    <glyph glyph-name="uni0327" unicode="&#x327;" 
d="M-304 -175l-157 71l114 113h124z" />
    <glyph glyph-name="uni0328" unicode="&#x328;" 
d="M-122 -202q-78 -34 -140.5 -1.5t-62.5 102.5q0 53 48 101h148q-34 -20 -55 -47t-21 -50q0 -16 11 -22t30 -1t42 22v-104z" />
    <glyph glyph-name="uni0335" unicode="&#x335;" 
d="M-530 395h400v-140h-400v140z" />
    <glyph glyph-name="uni0336" unicode="&#x336;" 
d="M-655 383h710v-140h-710v140z" />
    <glyph glyph-name="uni0337" unicode="&#x337;" 
d="M-540 533h420v-160h-420v160z" />
    <glyph glyph-name="uni0338" unicode="&#x338;" 
d="M-366 720h125v-940h-125v940z" />
    <glyph glyph-name="pi" unicode="&#x3c0;" horiz-adv-x="684" 
d="M658 385h-72v-225q0 -99 13 -160h-165q-18 27 -18 150v235h-128q-2 -88 -20 -205t-43 -180h-165q25 81 43 195t18 190q-70 0 -103 -9l-17 104q42 37 192 37h479z" />
    <glyph glyph-name="Wgrave" unicode="&#x1e80;" horiz-adv-x="1079" 
d="M609 741h-124l-114 113l157 71zM883 680h186l-201 -680h-207l-121 403l-121 -403h-208l-201 680h187l120 -432l130 432h186l130 -430z" />
    <glyph glyph-name="wgrave" unicode="&#x1e81;" horiz-adv-x="877" 
d="M508 561h-124l-114 113l157 71zM697 500h169l-150 -500h-191l-86 288l-87 -288h-191l-150 500h169l79 -285l86 285h187l86 -285z" />
    <glyph glyph-name="Wacute" unicode="&#x1e82;" horiz-adv-x="1079" 
d="M715 854l-114 -113h-124l81 184zM883 680h186l-201 -680h-207l-121 403l-121 -403h-208l-201 680h187l120 -432l130 432h186l130 -430z" />
    <glyph glyph-name="wacute" unicode="&#x1e83;" horiz-adv-x="877" 
d="M614 674l-114 -113h-124l81 184zM697 500h169l-150 -500h-191l-86 288l-87 -288h-191l-150 500h169l79 -285l86 285h187l86 -285z" />
    <glyph glyph-name="Wdieresis" unicode="&#x1e84;" horiz-adv-x="1079" 
d="M416 730q-44 0 -73.5 25t-29.5 67q0 41 29.5 66t73.5 25q42 0 71.5 -25t29.5 -66t-29.5 -66.5t-71.5 -25.5zM667 730q-44 0 -73.5 25t-29.5 67q0 41 29.5 66t73.5 25q42 0 71.5 -25t29.5 -66t-29.5 -66.5t-71.5 -25.5zM883 680h186l-201 -680h-207l-121 403l-121 -403
h-208l-201 680h187l120 -432l130 432h186l130 -430z" />
    <glyph glyph-name="wdieresis" unicode="&#x1e85;" horiz-adv-x="877" 
d="M315 550q-44 0 -73.5 25t-29.5 67q0 41 29.5 66t73.5 25q42 0 71.5 -25t29.5 -66t-29.5 -66.5t-71.5 -25.5zM566 550q-44 0 -73.5 25t-29.5 67q0 41 29.5 66t73.5 25q42 0 71.5 -25t29.5 -66t-29.5 -66.5t-71.5 -25.5zM697 500h169l-150 -500h-191l-86 288l-87 -288h-191
l-150 500h169l79 -285l86 285h187l86 -285z" />
    <glyph glyph-name="Ygrave" unicode="&#x1ef2;" horiz-adv-x="712" 
d="M415 741h-124l-114 113l157 71zM718 680l-267 -400v-280h-189v279l-268 401h213l149 -230l149 230h213z" />
    <glyph glyph-name="ygrave" unicode="&#x1ef3;" horiz-adv-x="606" 
d="M373 561h-124l-114 113l157 71zM416 500h179l-289 -700h-182l92 221l-213 479h187l117 -262z" />
    <glyph glyph-name="endash" unicode="&#x2013;" horiz-adv-x="642" 
d="M65 370h512v-170h-512v170z" />
    <glyph glyph-name="emdash" unicode="&#x2014;" horiz-adv-x="934" 
d="M65 370h804v-170h-804v170z" />
    <glyph glyph-name="quoteleft" unicode="&#x2018;" horiz-adv-x="340" 
d="M202 569q34 -6 56 -32.5t22 -61.5q0 -41 -29.5 -69t-73.5 -28q-50 0 -83.5 38t-33.5 96q0 83 64 140.5t153 57.5v-98q-51 0 -75 -43z" />
    <glyph glyph-name="quoteright" unicode="&#x2019;" horiz-adv-x="340" 
d="M163 710q50 0 83.5 -38t33.5 -96q0 -83 -64 -140.5t-153 -57.5v98q51 0 75 43q-34 6 -56 32.5t-22 61.5q0 41 29.5 69t73.5 28z" />
    <glyph glyph-name="quotesinglbase" unicode="&#x201a;" horiz-adv-x="298" 
d="M98 167h190l-166 -317h-113z" />
    <glyph glyph-name="quotedblleft" unicode="&#x201c;" horiz-adv-x="593" 
d="M202 569q34 -6 56 -32.5t22 -61.5q0 -41 -29.5 -69t-73.5 -28q-50 0 -83.5 38t-33.5 96q0 83 64 140.5t153 57.5v-98q-51 0 -75 -43zM455 569q34 -6 56 -32.5t22 -61.5q0 -41 -29.5 -69t-73.5 -28q-50 0 -83.5 38t-33.5 96q0 83 64 140.5t153 57.5v-98q-51 0 -75 -43z
" />
    <glyph glyph-name="quotedblright" unicode="&#x201d;" horiz-adv-x="593" 
d="M163 710q50 0 83.5 -38t33.5 -96q0 -83 -64 -140.5t-153 -57.5v98q51 0 75 43q-34 6 -56 32.5t-22 61.5q0 41 29.5 69t73.5 28zM416 710q50 0 83.5 -38t33.5 -96q0 -83 -64 -140.5t-153 -57.5v98q51 0 75 43q-34 6 -56 32.5t-22 61.5q0 41 29.5 69t73.5 28z" />
    <glyph glyph-name="quotedblbase" unicode="&#x201e;" horiz-adv-x="527" 
d="M98 167h190l-166 -317h-113zM327 167h190l-166 -317h-113z" />
    <glyph glyph-name="dagger" unicode="&#x2020;" horiz-adv-x="595" 
d="M218 710h158l-15 -207l196 12v-141l-196 12l15 -438h-158l14 438l-195 -12v141l195 -12z" />
    <glyph glyph-name="daggerdbl" unicode="&#x2021;" horiz-adv-x="595" 
d="M220 710h152l-11 -185l196 12v-139l-196 13v-160l196 13v-139l-196 12l11 -189h-152l11 189l-194 -12v139l194 -13v160l-194 -13v139l194 -12z" />
    <glyph glyph-name="bullet" unicode="&#x2022;" horiz-adv-x="546" 
d="M274 518q78 0 135 -56t57 -136q0 -81 -57 -137.5t-135 -56.5t-136 56.5t-58 137.5q0 79 58 135.5t136 56.5z" />
    <glyph glyph-name="ellipsis" unicode="&#x2026;" horiz-adv-x="844" 
d="M149 -15q-45 0 -76.5 31t-31.5 76q0 43 32 74t76 31q43 0 74.5 -31t31.5 -74q0 -45 -31.5 -76t-74.5 -31zM423 -15q-45 0 -76.5 31t-31.5 76q0 43 32 74t76 31q43 0 74.5 -31t31.5 -74q0 -45 -31.5 -76t-74.5 -31zM697 -15q-45 0 -76.5 31t-31.5 76q0 43 32 74t76 31
q43 0 74.5 -31t31.5 -74q0 -45 -31.5 -76t-74.5 -31z" />
    <glyph glyph-name="perthousand" unicode="&#x2030;" horiz-adv-x="1292" 
d="M605 701l114 -74l-425 -648l-114 74zM211 696q73 0 126 -52.5t53 -126.5q0 -76 -53 -128.5t-126 -52.5t-127 53t-54 128q0 74 54 126.5t127 52.5zM211 584q-28 0 -48.5 -19.5t-20.5 -47.5q0 -29 20.5 -49t48.5 -20q27 0 47 20t20 49q0 28 -20 47.5t-47 19.5zM693 344
q73 0 126 -52.5t53 -126.5q0 -76 -53 -128.5t-126 -52.5t-127 53t-54 128q0 74 54 126.5t127 52.5zM1083 344q73 0 126 -52.5t53 -126.5q0 -76 -53 -128.5t-126 -52.5t-127 53t-54 128q0 74 54 126.5t127 52.5zM693 232q-28 0 -48.5 -19.5t-20.5 -47.5q0 -29 20.5 -49
t48.5 -20q27 0 47 20t20 49q0 28 -20 47.5t-47 19.5zM1083 232q-28 0 -48.5 -19.5t-20.5 -47.5q0 -29 20.5 -49t48.5 -20q27 0 47 20t20 49q0 28 -20 47.5t-47 19.5z" />
    <glyph glyph-name="guilsinglleft" unicode="&#x2039;" horiz-adv-x="492" 
d="M417 465l-166 -185l166 -185h-191l-166 185l166 185h191z" />
    <glyph glyph-name="guilsinglright" unicode="&#x203a;" horiz-adv-x="492" 
d="M266 465l166 -185l-166 -185h-191l166 185l-166 185h191z" />
    <glyph glyph-name="fraction" unicode="&#x2044;" horiz-adv-x="187" 
d="M266 700l89 -58l-434 -662l-89 58z" />
    <glyph glyph-name="Euro" unicode="&#x20ac;" horiz-adv-x="589" 
d="M505 525q-127 0 -192 -65h165v-100h-211q-1 -7 -1 -20t1 -20h211v-100h-164q65 -65 191 -65v-171q-149 0 -253.5 64.5t-143.5 171.5h-87v100h67q-1 7 -1 20t1 20h-67v100h87q39 107 143.5 171.5t253.5 64.5v-171z" />
    <glyph glyph-name="afii61289" unicode="&#x2113;" horiz-adv-x="597" 
d="M507 207l68 -70q-85 -150 -250 -150q-169 0 -204 147q-1 3 -1 9q-3 -2 -22 -15t-30 -20l-43 83q14 11 45.5 32.5t46.5 33.5v219q0 136 56.5 204.5t153.5 68.5q85 0 128.5 -52t43.5 -132q0 -84 -55 -163.5t-166 -172.5l2 -31q2 -36 25.5 -58t60.5 -22q76 0 141 89z
M278 502v-132q108 110 108 199q0 71 -50 71q-24 0 -41 -32t-17 -106z" />
    <glyph glyph-name="trademark" unicode="&#x2122;" horiz-adv-x="608" 
d="M200 700v-80h-77v-222h-86v222h-77v80h240zM588 700v-302h-76v181l-69 -181h-71l-68 179v-179h-76v302h106l74 -195l74 195h106z" />
    <glyph glyph-name="Omega" unicode="&#x2126;" horiz-adv-x="804" 
d="M186 127v4q-56 42 -95 107t-39 149q0 129 97.5 219.5t253.5 90.5q158 0 252 -93t94 -214q0 -158 -137 -259v-4h151v-127h-318v96q133 80 133 262q0 90 -47.5 150t-127.5 60q-79 0 -129 -59.5t-50 -155.5q0 -93 37.5 -160t96.5 -97v-96h-320v127h148z" />
    <glyph glyph-name="estimated" unicode="&#x212e;" horiz-adv-x="858" 
d="M824 330h-640q-5 0 -5 -4v-194q0 -12 8 -22q102 -105 242 -105q153 0 255 118h57q-54 -64 -136.5 -101t-176.5 -37q-164 0 -279.5 104t-115.5 251t116 251.5t279 104.5q164 0 280 -104.5t116 -251.5v-10zM679 355v195q0 14 -10 23q-103 101 -240 101q-139 0 -241 -104
q-9 -9 -9 -24v-191q0 -6 5 -6h491q4 0 4 6z" />
    <glyph glyph-name="uni2150" unicode="&#x2150;" horiz-adv-x="953" 
d="M603 700l89 -58l-434 -662l-89 58zM262 240h-124v298q-37 -42 -123 -42v110q71 6 97 23.5t26 59.5h124v-449zM599 449h339v-95l-180 -354h-138l176 339h-197v110z" />
    <glyph glyph-name="uni2151" unicode="&#x2151;" horiz-adv-x="978" 
d="M603 700l89 -58l-434 -662l-89 58zM262 240h-124v298q-37 -42 -123 -42v110q71 6 97 23.5t26 59.5h124v-449zM745 460q84 0 136 -62.5t52 -163.5q0 -108 -57.5 -176t-146.5 -68q-47 0 -89 20t-64 53l82 74q20 -39 69 -39q31 0 52 21.5t27 56.5q-36 -25 -85 -25
q-65 0 -108.5 41.5t-43.5 105.5q0 70 51.5 116t124.5 46zM745 242q23 0 39 15.5t16 38.5t-16 38.5t-39 15.5t-39 -15.5t-16 -38.5t16 -38.5t39 -15.5z" />
    <glyph glyph-name="uni2152" unicode="&#x2152;" horiz-adv-x="1331" 
d="M603 700l89 -58l-434 -662l-89 58zM262 240h-124v298q-37 -42 -123 -42v110q71 6 97 23.5t26 59.5h124v-449zM1096 460q83 0 136.5 -65.5t53.5 -169.5t-53.5 -169.5t-136.5 -65.5q-82 0 -136 65.5t-54 169.5t54 169.5t136 65.5zM539 366q71 6 97 23.5t26 59.5h124v-449
h-124v298q-37 -42 -123 -42v110zM1096 107q30 1 48.5 33t18.5 85t-18.5 85.5t-48.5 32.5t-48.5 -32.5t-18.5 -85.5t18.5 -86t48.5 -32z" />
    <glyph glyph-name="uni2153" unicode="&#x2153;" horiz-adv-x="959" 
d="M603 700l89 -58l-434 -662l-89 58zM262 240h-124v298q-37 -42 -123 -42v110q71 6 97 23.5t26 59.5h124v-449zM847 229q67 -35 67 -103q0 -60 -50 -98t-121 -38q-68 0 -115.5 36.5t-58.5 98.5l110 34q-2 -25 15 -41.5t46 -16.5q23 0 38.5 12t15.5 29t-16 28t-40 11h-48v96
h48q20 0 33.5 10t13.5 25q0 16 -14 27t-33 11q-25 0 -40 -14.5t-13 -36.5l-111 29q13 61 58.5 96.5t109.5 35.5q67 0 115 -37.5t48 -95.5q0 -63 -58 -98z" />
    <glyph glyph-name="uni2154" unicode="&#x2154;" horiz-adv-x="1041" 
d="M685 700l89 -58l-434 -662l-89 58zM48 326l179 187q19 19 19 40q0 15 -11 25.5t-27 10.5q-24 0 -37 -21.5t-6 -51.5l-120 21q-1 68 47 115t116 47q65 0 111.5 -42t46.5 -100q0 -63 -63 -128l-77 -79h148v-110h-326v86zM929 229q67 -35 67 -103q0 -60 -50 -98t-121 -38
q-68 0 -115.5 36.5t-58.5 98.5l110 34q-2 -25 15 -41.5t46 -16.5q23 0 38.5 12t15.5 29t-16 28t-40 11h-48v96h48q20 0 33.5 10t13.5 25q0 16 -14 27t-33 11q-25 0 -40 -14.5t-13 -36.5l-111 29q13 61 58.5 96.5t109.5 35.5q67 0 115 -37.5t48 -95.5q0 -63 -58 -98z" />
    <glyph glyph-name="uni2155" unicode="&#x2155;" horiz-adv-x="980" 
d="M603 700l89 -58l-434 -662l-89 58zM262 240h-124v298q-37 -42 -123 -42v110q71 6 97 23.5t26 59.5h124v-449zM779 305q63 0 109.5 -43t46.5 -106q0 -68 -55 -117t-128 -49q-63 0 -111 38t-62 98l119 36q2 -26 18.5 -43.5t40.5 -17.5q23 0 39.5 15.5t16.5 38.5t-15.5 38
t-39.5 15q-17 0 -33.5 -9.5t-24.5 -23.5l-113 40l38 234h285v-107h-190l-8 -52q30 15 67 15z" />
    <glyph glyph-name="uni2156" unicode="&#x2156;" horiz-adv-x="1062" 
d="M685 700l89 -58l-434 -662l-89 58zM48 326l179 187q19 19 19 40q0 15 -11 25.5t-27 10.5q-24 0 -37 -21.5t-6 -51.5l-120 21q-1 68 47 115t116 47q65 0 111.5 -42t46.5 -100q0 -63 -63 -128l-77 -79h148v-110h-326v86zM861 305q63 0 109.5 -43t46.5 -106q0 -68 -55 -117
t-128 -49q-63 0 -111 38t-62 98l119 36q2 -26 18.5 -43.5t40.5 -17.5q23 0 39.5 15.5t16.5 38.5t-15.5 38t-39.5 15q-17 0 -33.5 -9.5t-24.5 -23.5l-113 40l38 234h285v-107h-190l-8 -52q30 15 67 15z" />
    <glyph glyph-name="uni2157" unicode="&#x2157;" horiz-adv-x="1078" 
d="M390 366q0 -60 -50 -98t-121 -38q-68 0 -115.5 36.5t-58.5 98.5l110 34q-2 -25 15 -41.5t46 -16.5q23 0 38.5 12t15.5 29t-16 28t-40 11h-48v96h48q20 0 33.5 10t13.5 25q0 16 -14 27t-33 11q-25 0 -40 -14.5t-13 -36.5l-111 29q13 61 58.5 96.5t109.5 35.5
q67 0 115 -37.5t48 -95.5q0 -63 -58 -98q67 -35 67 -103zM701 700l89 -58l-434 -662l-89 58zM877 305q63 0 109.5 -43t46.5 -106q0 -68 -55 -117t-128 -49q-63 0 -111 38t-62 98l119 36q2 -26 18.5 -43.5t40.5 -17.5q23 0 39.5 15.5t16.5 38.5t-15.5 38t-39.5 15
q-17 0 -33.5 -9.5t-24.5 -23.5l-113 40l38 234h285v-107h-190l-8 -52q30 15 67 15z" />
    <glyph glyph-name="uni2158" unicode="&#x2158;" horiz-adv-x="1110" 
d="M733 700l89 -58l-434 -662l-89 58zM365 240h-117v85h-203v99l133 265h128l-133 -258h75v100h117v-100h57v-106h-57v-85zM909 305q63 0 109.5 -43t46.5 -106q0 -68 -55 -117t-128 -49q-63 0 -111 38t-62 98l119 36q2 -26 18.5 -43.5t40.5 -17.5q23 0 39.5 15.5t16.5 38.5
t-15.5 38t-39.5 15q-17 0 -33.5 -9.5t-24.5 -23.5l-113 40l38 234h285v-107h-190l-8 -52q30 15 67 15z" />
    <glyph glyph-name="uni2159" unicode="&#x2159;" horiz-adv-x="978" 
d="M603 700l89 -58l-434 -662l-89 58zM262 240h-124v298q-37 -42 -123 -42v110q71 6 97 23.5t26 59.5h124v-449zM782 299q64 0 107.5 -41.5t43.5 -105.5q0 -70 -51 -116t-125 -46q-84 0 -136 62.5t-52 163.5q0 108 58 176t147 68q47 0 88.5 -20t63.5 -53l-82 -74
q-8 17 -27 28t-41 11q-31 0 -52.5 -21.5t-27.5 -56.5q36 25 86 25zM757 100q24 0 40 15.5t16 38.5t-16 38.5t-40 15.5q-23 0 -39 -15.5t-16 -38.5t16 -38.5t39 -15.5z" />
    <glyph glyph-name="uni215A" unicode="&#x215a;" horiz-adv-x="1077" 
d="M702 700l89 -58l-434 -662l-89 58zM401 396q0 -68 -55 -117t-128 -49q-63 0 -111 38t-62 98l119 36q2 -26 18.5 -43.5t40.5 -17.5q23 0 39.5 15.5t16.5 38.5t-15.5 38t-39.5 15q-17 0 -33.5 -9.5t-24.5 -23.5l-113 40l38 234h285v-107h-190l-8 -52q30 15 67 15
q63 0 109.5 -43t46.5 -106zM881 299q64 0 107.5 -41.5t43.5 -105.5q0 -70 -51 -116t-125 -46q-84 0 -136 62.5t-52 163.5q0 108 58 176t147 68q47 0 88.5 -20t63.5 -53l-82 -74q-8 17 -27 28t-41 11q-31 0 -52.5 -21.5t-27.5 -56.5q36 25 86 25zM856 100q24 0 40 15.5
t16 38.5t-16 38.5t-40 15.5q-23 0 -39 -15.5t-16 -38.5t16 -38.5t39 -15.5z" />
    <glyph glyph-name="oneeighth" unicode="&#x215b;" horiz-adv-x="978" 
d="M603 700l89 -58l-434 -662l-89 58zM262 240h-124v298q-37 -42 -123 -42v110q71 6 97 23.5t26 59.5h124v-449zM870 232q63 -38 63 -100q0 -60 -53.5 -101t-128.5 -41t-128.5 41t-53.5 101q0 64 63 100q-53 32 -53 91q0 57 50.5 97t121.5 40t121.5 -40t50.5 -97
q0 -59 -53 -91zM751 350q-23 0 -37.5 -11.5t-14.5 -29.5q0 -17 15 -28t37 -11t36.5 11t14.5 28q0 18 -14.5 29.5t-36.5 11.5zM751 98q24 0 40 12.5t16 31.5t-16 31.5t-40 12.5t-40.5 -12.5t-16.5 -31.5t16.5 -31.5t40.5 -12.5z" />
    <glyph glyph-name="threeeighths" unicode="&#x215c;" horiz-adv-x="1076" 
d="M390 366q0 -60 -50 -98t-121 -38q-68 0 -115.5 36.5t-58.5 98.5l110 34q-2 -25 15 -41.5t46 -16.5q23 0 38.5 12t15.5 29t-16 28t-40 11h-48v96h48q20 0 33.5 10t13.5 25q0 16 -14 27t-33 11q-25 0 -40 -14.5t-13 -36.5l-111 29q13 61 58.5 96.5t109.5 35.5
q67 0 115 -37.5t48 -95.5q0 -63 -58 -98q67 -35 67 -103zM701 700l89 -58l-434 -662l-89 58zM968 232q63 -38 63 -100q0 -60 -53.5 -101t-128.5 -41t-128.5 41t-53.5 101q0 64 63 100q-53 32 -53 91q0 57 50.5 97t121.5 40t121.5 -40t50.5 -97q0 -59 -53 -91zM849 350
q-23 0 -37.5 -11.5t-14.5 -29.5q0 -17 15 -28t37 -11t36.5 11t14.5 28q0 18 -14.5 29.5t-36.5 11.5zM849 98q24 0 40 12.5t16 31.5t-16 31.5t-40 12.5t-40.5 -12.5t-16.5 -31.5t16.5 -31.5t40.5 -12.5z" />
    <glyph glyph-name="fiveeighths" unicode="&#x215d;" horiz-adv-x="1077" 
d="M702 700l89 -58l-434 -662l-89 58zM401 396q0 -68 -55 -117t-128 -49q-63 0 -111 38t-62 98l119 36q2 -26 18.5 -43.5t40.5 -17.5q23 0 39.5 15.5t16.5 38.5t-15.5 38t-39.5 15q-17 0 -33.5 -9.5t-24.5 -23.5l-113 40l38 234h285v-107h-190l-8 -52q30 15 67 15
q63 0 109.5 -43t46.5 -106zM969 232q63 -38 63 -100q0 -60 -53.5 -101t-128.5 -41t-128.5 41t-53.5 101q0 64 63 100q-53 32 -53 91q0 57 50.5 97t121.5 40t121.5 -40t50.5 -97q0 -59 -53 -91zM850 350q-23 0 -37.5 -11.5t-14.5 -29.5q0 -17 15 -28t37 -11t36.5 11t14.5 28
q0 18 -14.5 29.5t-36.5 11.5zM850 98q24 0 40 12.5t16 31.5t-16 31.5t-40 12.5t-40.5 -12.5t-16.5 -31.5t16.5 -31.5t40.5 -12.5z" />
    <glyph glyph-name="seveneighths" unicode="&#x215e;" horiz-adv-x="1070" 
d="M695 700l89 -58l-434 -662l-89 58zM414 689v-95l-180 -354h-138l176 339h-197v110h339zM962 232q63 -38 63 -100q0 -60 -53.5 -101t-128.5 -41t-128.5 41t-53.5 101q0 64 63 100q-53 32 -53 91q0 57 50.5 97t121.5 40t121.5 -40t50.5 -97q0 -59 -53 -91zM843 350
q-23 0 -37.5 -11.5t-14.5 -29.5q0 -17 15 -28t37 -11t36.5 11t14.5 28q0 18 -14.5 29.5t-36.5 11.5zM843 98q24 0 40 12.5t16 31.5t-16 31.5t-40 12.5t-40.5 -12.5t-16.5 -31.5t16.5 -31.5t40.5 -12.5z" />
    <glyph glyph-name="uni215F" unicode="&#x215f;" horiz-adv-x="524" 
d="M603 700l89 -58l-434 -662l-89 58zM262 240h-124v298q-37 -42 -123 -42v110q71 6 97 23.5t26 59.5h124v-449z" />
    <glyph glyph-name="uni2189" unicode="&#x2189;" horiz-adv-x="1092" 
d="M425 465q0 -104 -53.5 -169.5t-136.5 -65.5q-82 0 -136 65.5t-54 169.5t54 169.5t136 65.5q83 0 136.5 -65.5t53.5 -169.5zM736 700l89 -58l-434 -662l-89 58zM235 347q30 1 48.5 33t18.5 85t-18.5 85.5t-48.5 32.5t-48.5 -32.5t-18.5 -85.5t18.5 -86t48.5 -32zM980 229
q67 -35 67 -103q0 -60 -50 -98t-121 -38q-68 0 -115.5 36.5t-58.5 98.5l110 34q-2 -25 15 -41.5t46 -16.5q23 0 38.5 12t15.5 29t-16 28t-40 11h-48v96h48q20 0 33.5 10t13.5 25q0 16 -14 27t-33 11q-25 0 -40 -14.5t-13 -36.5l-111 29q13 61 58.5 96.5t109.5 35.5
q67 0 115 -37.5t48 -95.5q0 -63 -58 -98z" />
    <glyph glyph-name="partialdiff" unicode="&#x2202;" horiz-adv-x="648" 
d="M109 596l-47 114q90 61 217 61q140 0 231.5 -103t91.5 -277q0 -183 -90 -293t-237 -110q-59 0 -107 23t-76 59t-43 76.5t-15 79.5q0 114 67.5 186.5t173.5 72.5q59 0 100.5 -26.5t60.5 -55.5h1q1 6 1 25q0 86 -49 150t-132 64q-82 0 -148 -46zM293 117h1q49 0 84 51
t43 113q-7 26 -36.5 52.5t-71.5 26.5q-50 0 -81.5 -40.5t-31.5 -96.5q0 -45 26.5 -75.5t66.5 -30.5z" />
    <glyph glyph-name="Delta" unicode="&#x2206;" horiz-adv-x="735" 
d="M24 0v86l245 614h203l238 -613v-87h-686zM203 128h318l-105 263q-6 20 -26 79t-27 82h-4q-4 -17 -22.5 -71.5t-25.5 -76.5z" />
    <glyph glyph-name="product" unicode="&#x220f;" horiz-adv-x="799" 
d="M778 544h-112v-638h-164v638h-206v-638h-164v638h-111v141h757v-141z" />
    <glyph glyph-name="summation" unicode="&#x2211;" horiz-adv-x="624" 
d="M606 -95h-584v95l251 294l-239 283v108h551v-136h-324v-3l201 -231l-224 -263v-4h368v-143z" />
    <glyph glyph-name="minus" unicode="&#x2212;" horiz-adv-x="632" 
d="M60 415h512v-150h-512v150z" />
    <glyph glyph-name="radical" unicode="&#x221a;" horiz-adv-x="661" 
d="M683 822l-254 -962h-129l-165 420l-79 -32l-27 82l203 83l109 -302q5 -18 13.5 -48t10.5 -39h2q2 9 8.5 41.5l10.5 52.5l181 704h116z" />
    <glyph glyph-name="infinity" unicode="&#x221e;" horiz-adv-x="807" 
d="M759 284v-1q0 -84 -51 -134.5t-120 -50.5q-103 0 -185 113q-44 -55 -87.5 -84t-100.5 -29q-69 0 -118.5 50t-49.5 129q0 81 50.5 132t127.5 51q101 0 184 -110q2 2 6 7q27 31 44.5 48.5t55 36t78.5 18.5q70 -1 118 -49.5t48 -126.5zM225 181h2q36 0 66 24.5t64 67.5
q-22 31 -30.5 42t-27 30t-36.5 26t-41 7q-39 0 -64 -28t-25 -73q0 -39 26.5 -67.5t65.5 -28.5zM584 378h-1q-14 0 -28 -5.5t-24 -11t-24 -19t-20 -19.5t-20 -22.5t-16 -19.5q45 -58 74 -79t64 -21q38 0 60.5 30t22.5 65q0 44 -24 73t-64 29z" />
    <glyph glyph-name="integral" unicode="&#x222b;" horiz-adv-x="427" 
d="M411 841l-15 -104q-22 8 -39 8q-36 0 -55 -28q-26 -34 -26 -158q0 -78 9 -221t9 -237q0 -126 -37 -193q-44 -84 -151 -84q-57 0 -91 16l19 109q22 -10 47 -10q32 0 48 20q28 35 28 143q0 95 -9 242.5t-9 231.5q0 86 16.5 139.5t52.5 89.5q45 48 135 48q44 0 68 -12z" />
    <glyph glyph-name="approxequal" unicode="&#x2248;" horiz-adv-x="592" 
d="M498 464l57 -56q-66 -107 -153 -107q-51 0 -119 40q-56 33 -90 33q-22 0 -42 -11.5t-31.5 -24t-29.5 -35.5l-57 56q26 45 71 75t94 30q51 0 111 -35q53 -32 73 -35q8 -2 17 -2q50 0 99 72zM498 264l57 -57q-66 -106 -154 -106q-49 0 -118 40q-57 33 -89 33
q-22 0 -42.5 -12t-31.5 -23.5t-30 -36.5l-57 56q26 45 71.5 75.5t93.5 30.5q47 0 110 -34q6 -3 21.5 -12.5t23 -13.5t20.5 -8t26 -4q29 0 50 17t49 55z" />
    <glyph glyph-name="notequal" unicode="&#x2260;" horiz-adv-x="632" 
d="M572 380h-158l-38 -80h196v-150h-266l-39 -83h-158l39 83h-88v150h158l38 80h-196v150h266l39 83h158l-39 -83h88v-150z" />
    <glyph glyph-name="lessequal" unicode="&#x2264;" horiz-adv-x="632" 
d="M572 643v-137l-248 -78l248 -78v-137l-512 165v100zM60 70v124h512v-124h-512z" />
    <glyph glyph-name="greaterequal" unicode="&#x2265;" horiz-adv-x="632" 
d="M60 643l512 -165v-100l-512 -165v137l248 78l-248 78v137zM60 70v124h512v-124h-512z" />
    <glyph glyph-name="lozenge" unicode="&#x25ca;" horiz-adv-x="661" 
d="M612 342l-220 -392h-128l-215 392l219 392h128zM468 338l-117 223q-14 30 -20 51h-3q-5 -19 -19 -51l-117 -216l119 -226q3 -7 18 -48h4q7 29 18 47z" />
    <glyph glyph-name="i.loclTRK" horiz-adv-x="264" 
d="M133 550q-44 0 -73.5 25t-29.5 67q0 41 29.5 66t73.5 25q42 0 71.5 -25t29.5 -66t-29.5 -66.5t-71.5 -25.5zM42 500h180v-500h-180v500z" />
    <glyph glyph-name="a.ss01" horiz-adv-x="610" 
d="M390 500h176v-500h-176v53q-53 -68 -145 -68q-97 0 -162.5 76t-64.5 189t67 189t162 76q88 0 143 -65v50zM294 150q42 0 69 29t27 71t-27.5 71t-68.5 29q-40 0 -66.5 -29t-26.5 -71t26.5 -71t66.5 -29z" />
    <glyph glyph-name="three.ss01" horiz-adv-x="543" 
d="M356 423q78 -16 127.5 -68t49.5 -130q0 -102 -82 -171.5t-192 -69.5q-97 0 -169.5 57t-93.5 148l180 54q2 -39 27 -65.5t62 -26.5q36 0 60.5 23.5t24.5 58.5q0 34 -24 57t-59 23q-21 0 -46.5 -14.5t-43.5 -36.5l-100 110l179 147h-231v161h471v-147z" />
    <glyph glyph-name="zero.tf" horiz-adv-x="640" 
d="M320 -16q-125 0 -206.5 99.5t-81.5 256.5t81.5 256.5t206.5 99.5q126 0 207 -99.5t81 -256.5t-81 -256.5t-207 -99.5zM320 161q46 1 74 50t28 129q0 81 -28 130t-74 49t-73.5 -49t-27.5 -130t27.5 -130t73.5 -49z" />
    <glyph glyph-name="one.tf" horiz-adv-x="640" 
d="M427 167h153v-167h-497v167h156v283q-54 -62 -156 -62v167q86 8 121 35t35 90h188v-513z" />
    <glyph glyph-name="two.tf" horiz-adv-x="640" 
d="M346 167h224v-167h-494v131l272 283q28 28 28 60q0 23 -16.5 39t-41.5 16q-35 0 -55 -32.5t-9 -77.5l-182 32q-1 103 71.5 174t175.5 71q98 0 169 -64t71 -152q0 -95 -96 -193z" />
    <glyph glyph-name="three.tf" horiz-adv-x="640" 
d="M460 348q102 -54 102 -157q0 -91 -76.5 -149t-183.5 -58q-103 0 -175 55t-89 150l167 51q-4 -38 22.5 -63t69.5 -25q35 0 58.5 18t23.5 45q0 25 -24 42t-60 17h-74v145h74q30 0 50 15.5t20 38.5q0 24 -20.5 40.5t-50.5 16.5q-37 0 -60 -22t-20 -55l-168 43q19 93 88 147
t166 54q103 0 175.5 -56.5t72.5 -145.5q0 -96 -88 -147z" />
    <glyph glyph-name="four.tf" horiz-adv-x="640" 
d="M606 289v-160h-96v-129h-177v129h-308v150l202 401h194l-202 -391h114v151h177v-151h96z" />
    <glyph glyph-name="five.tf" horiz-adv-x="640" 
d="M344 462q95 0 165 -65t70 -159q0 -104 -83 -177.5t-193 -73.5q-95 0 -167.5 57t-93.5 148l180 54q2 -39 27 -65.5t61 -26.5t60.5 23.5t24.5 58.5q0 34 -23.5 57t-58.5 23q-25 0 -50.5 -14t-38.5 -35l-170 59l57 354h431v-161h-287l-13 -80q46 23 102 23z" />
    <glyph glyph-name="six.tf" horiz-adv-x="640" 
d="M366 452q98 0 164 -62.5t66 -159.5q0 -106 -78 -176t-189 -70q-128 0 -206.5 95t-78.5 248q0 163 88 266t222 103q71 0 134.5 -30t96.5 -80l-124 -113q-12 26 -41 43t-63 17q-47 0 -79 -33t-41 -86q56 38 129 38zM329 151q36 0 60 23t24 58t-24 58.5t-60 23.5
q-35 0 -59 -23.5t-24 -58.5q0 -34 24 -57.5t59 -23.5z" />
    <glyph glyph-name="seven.tf" horiz-adv-x="640" 
d="M63 680h514v-144l-273 -536h-209l267 513h-299v167z" />
    <glyph glyph-name="eight.tf" horiz-adv-x="640" 
d="M502 350q94 -54 94 -151q0 -90 -80.5 -152.5t-194.5 -62.5t-195 62.5t-81 152.5q0 96 95 152q-80 51 -80 137q0 87 76.5 147.5t184.5 60.5q107 0 184 -60.5t77 -147.5q0 -86 -80 -138zM321 529q-34 0 -56.5 -17.5t-22.5 -43.5t22.5 -43t56.5 -17q33 0 55 17t22 43
t-22 43.5t-55 17.5zM321 147q36 0 60.5 19.5t24.5 47.5t-24.5 47.5t-60.5 19.5q-37 0 -61.5 -19t-24.5 -48t24.5 -48t61.5 -19z" />
    <glyph glyph-name="nine.tf" horiz-adv-x="640" 
d="M301 696q128 0 206.5 -95t78.5 -248q0 -163 -88 -266t-222 -103q-71 0 -134.5 30t-96.5 80l124 113q12 -26 41 -43t63 -17q47 0 79 33t41 86q-56 -38 -129 -38q-98 0 -164 62.5t-66 159.5q0 106 78 176t189 70zM301 366q35 0 59 23.5t24 58.5q0 34 -24 57.5t-59 23.5
q-36 0 -60 -23t-24 -58t24 -58.5t60 -23.5z" />
    <glyph glyph-name="zero.dnom" horiz-adv-x="470" 
d="M235 -10q-82 0 -136 65.5t-54 169.5t54 169.5t136 65.5q83 0 136.5 -65.5t53.5 -169.5t-53.5 -169.5t-136.5 -65.5zM235 107q30 1 48.5 33t18.5 85t-18.5 85.5t-48.5 32.5t-48.5 -32.5t-18.5 -85.5t18.5 -86t48.5 -32z" />
    <glyph glyph-name="one.dnom" horiz-adv-x="337" 
d="M138 449h124v-449h-124v298q-37 -42 -123 -42v110q71 6 97 23.5t26 59.5z" />
    <glyph glyph-name="two.dnom" horiz-adv-x="419" 
d="M226 110h148v-110h-326v86l179 187q19 19 19 40q0 15 -11 25.5t-27 10.5q-24 0 -37 -21.5t-6 -51.5l-120 21q-1 68 47 115t116 47q65 0 111.5 -42t46.5 -100q0 -63 -63 -128z" />
    <glyph glyph-name="three.dnom" horiz-adv-x="435" 
d="M323 229q67 -35 67 -103q0 -60 -50 -98t-121 -38q-68 0 -115.5 36.5t-58.5 98.5l110 34q-2 -25 15 -41.5t46 -16.5q23 0 38.5 12t15.5 29t-16 28t-40 11h-48v96h48q20 0 33.5 10t13.5 25q0 16 -14 27t-33 11q-25 0 -40 -14.5t-13 -36.5l-111 29q13 61 58.5 96.5
t109.5 35.5q67 0 115 -37.5t48 -95.5q0 -63 -58 -98z" />
    <glyph glyph-name="four.dnom" horiz-adv-x="467" 
d="M422 191v-106h-57v-85h-117v85h-203v99l133 265h128l-133 -258h75v100h117v-100h57z" />
    <glyph glyph-name="five.dnom" horiz-adv-x="446" 
d="M245 305q63 0 109.5 -43t46.5 -106q0 -68 -55 -117t-128 -49q-63 0 -111 38t-62 98l119 36q2 -26 18.5 -43.5t40.5 -17.5q23 0 39.5 15.5t16.5 38.5t-15.5 38t-39.5 15q-17 0 -33.5 -9.5t-24.5 -23.5l-113 40l38 234h285v-107h-190l-8 -52q30 15 67 15z" />
    <glyph glyph-name="six.dnom" horiz-adv-x="454" 
d="M258 299q64 0 107.5 -41.5t43.5 -105.5q0 -70 -51 -116t-125 -46q-84 0 -136 62.5t-52 163.5q0 108 58 176t147 68q47 0 88.5 -20t63.5 -53l-82 -74q-8 17 -27 28t-41 11q-31 0 -52.5 -21.5t-27.5 -56.5q36 25 86 25zM233 100q24 0 40 15.5t16 38.5t-16 38.5t-40 15.5
q-23 0 -39 -15.5t-16 -38.5t16 -38.5t39 -15.5z" />
    <glyph glyph-name="seven.dnom" horiz-adv-x="429" 
d="M75 449h339v-95l-180 -354h-138l176 339h-197v110z" />
    <glyph glyph-name="eight.dnom" horiz-adv-x="454" 
d="M346 232q63 -38 63 -100q0 -60 -53.5 -101t-128.5 -41t-128.5 41t-53.5 101q0 64 63 100q-53 32 -53 91q0 57 50.5 97t121.5 40t121.5 -40t50.5 -97q0 -59 -53 -91zM227 350q-23 0 -37.5 -11.5t-14.5 -29.5q0 -17 15 -28t37 -11t36.5 11t14.5 28q0 18 -14.5 29.5
t-36.5 11.5zM227 98q24 0 40 12.5t16 31.5t-16 31.5t-40 12.5t-40.5 -12.5t-16.5 -31.5t16.5 -31.5t40.5 -12.5z" />
    <glyph glyph-name="nine.dnom" horiz-adv-x="454" 
d="M221 460q84 0 136 -62.5t52 -163.5q0 -108 -57.5 -176t-146.5 -68q-47 0 -89 20t-64 53l82 74q20 -39 69 -39q31 0 52 21.5t27 56.5q-36 -25 -85 -25q-65 0 -108.5 41.5t-43.5 105.5q0 70 51.5 116t124.5 46zM221 242q23 0 39 15.5t16 38.5t-16 38.5t-39 15.5t-39 -15.5
t-16 -38.5t16 -38.5t39 -15.5z" />
    <glyph glyph-name="zero.numr" horiz-adv-x="470" 
d="M235 230q-82 0 -136 65.5t-54 169.5t54 169.5t136 65.5q83 0 136.5 -65.5t53.5 -169.5t-53.5 -169.5t-136.5 -65.5zM235 347q30 1 48.5 33t18.5 85t-18.5 85.5t-48.5 32.5t-48.5 -32.5t-18.5 -85.5t18.5 -86t48.5 -32z" />
    <glyph glyph-name="one.numr" horiz-adv-x="337" 
d="M138 689h124v-449h-124v298q-37 -42 -123 -42v110q71 6 97 23.5t26 59.5z" />
    <glyph glyph-name="two.numr" horiz-adv-x="419" 
d="M226 350h148v-110h-326v86l179 187q19 19 19 40q0 15 -11 25.5t-27 10.5q-24 0 -37 -21.5t-6 -51.5l-120 21q-1 68 47 115t116 47q65 0 111.5 -42t46.5 -100q0 -63 -63 -128z" />
    <glyph glyph-name="three.numr" horiz-adv-x="435" 
d="M323 469q67 -35 67 -103q0 -60 -50 -98t-121 -38q-68 0 -115.5 36.5t-58.5 98.5l110 34q-2 -25 15 -41.5t46 -16.5q23 0 38.5 12t15.5 29t-16 28t-40 11h-48v96h48q20 0 33.5 10t13.5 25q0 16 -14 27t-33 11q-25 0 -40 -14.5t-13 -36.5l-111 29q13 61 58.5 96.5
t109.5 35.5q67 0 115 -37.5t48 -95.5q0 -63 -58 -98z" />
    <glyph glyph-name="four.numr" horiz-adv-x="467" 
d="M422 431v-106h-57v-85h-117v85h-203v99l133 265h128l-133 -258h75v100h117v-100h57z" />
    <glyph glyph-name="five.numr" horiz-adv-x="446" 
d="M245 545q63 0 109.5 -43t46.5 -106q0 -68 -55 -117t-128 -49q-63 0 -111 38t-62 98l119 36q2 -26 18.5 -43.5t40.5 -17.5q23 0 39.5 15.5t16.5 38.5t-15.5 38t-39.5 15q-17 0 -33.5 -9.5t-24.5 -23.5l-113 40l38 234h285v-107h-190l-8 -52q30 15 67 15z" />
    <glyph glyph-name="six.numr" horiz-adv-x="454" 
d="M258 539q64 0 107.5 -41.5t43.5 -105.5q0 -70 -51 -116t-125 -46q-84 0 -136 62.5t-52 163.5q0 108 58 176t147 68q47 0 88.5 -20t63.5 -53l-82 -74q-8 17 -27 28t-41 11q-31 0 -52.5 -21.5t-27.5 -56.5q36 25 86 25zM233 340q24 0 40 15.5t16 38.5t-16 38.5t-40 15.5
q-23 0 -39 -15.5t-16 -38.5t16 -38.5t39 -15.5z" />
    <glyph glyph-name="seven.numr" horiz-adv-x="429" 
d="M75 689h339v-95l-180 -354h-138l176 339h-197v110z" />
    <glyph glyph-name="eight.numr" horiz-adv-x="454" 
d="M346 472q63 -38 63 -100q0 -60 -53.5 -101t-128.5 -41t-128.5 41t-53.5 101q0 64 63 100q-53 32 -53 91q0 57 50.5 97t121.5 40t121.5 -40t50.5 -97q0 -59 -53 -91zM227 590q-23 0 -37.5 -11.5t-14.5 -29.5q0 -17 15 -28t37 -11t36.5 11t14.5 28q0 18 -14.5 29.5
t-36.5 11.5zM227 338q24 0 40 12.5t16 31.5t-16 31.5t-40 12.5t-40.5 -12.5t-16.5 -31.5t16.5 -31.5t40.5 -12.5z" />
    <glyph glyph-name="nine.numr" horiz-adv-x="454" 
d="M221 700q84 0 136 -62.5t52 -163.5q0 -108 -57.5 -176t-146.5 -68q-47 0 -89 20t-64 53l82 74q20 -39 69 -39q31 0 52 21.5t27 56.5q-36 -25 -85 -25q-65 0 -108.5 41.5t-43.5 105.5q0 70 51.5 116t124.5 46zM221 482q23 0 39 15.5t16 38.5t-16 38.5t-39 15.5t-39 -15.5
t-16 -38.5t16 -38.5t39 -15.5z" />
    </font>
</defs>
</svg>
