<svg id="Layer_1" data-name="Layer 1" xmlns="http://www.w3.org/2000/svg" viewBox="0 0 40 40"><defs><style>.cls-1{fill:#f18a00;}.cls-2{fill:#fff;}</style></defs><title>Perl-Letter</title><rect class="cls-1" width="40" height="40"/><path class="cls-2" d="M18.19,25.46c0,2.4.88,3.08,3.11,3.31V29H12.84v-.23c1.95-.23,2.55-.91,2.55-3.31V14.54c0-2.4-.6-3.08-2.55-3.31V11h5.35Zm1.65-4.32v-.25a6.71,6.71,0,0,0,1.32-.26c2.17-.66,3.14-1.92,3.14-4.74A4.09,4.09,0,0,0,21,11.46a6.09,6.09,0,0,0-1.2-.23V11a18.11,18.11,0,0,1,1.89.14c4,.55,5.43,2.2,5.43,4.69S24.53,20.94,19.84,21.14Z"/></svg>