<svg id="Layer_1" data-name="Layer 1" xmlns="http://www.w3.org/2000/svg" viewBox="0 0 100 60"><defs><style>.cls-1{fill:#f18a00;}.cls-2{fill:#fff;}</style></defs><title>Perl-Tagline</title><rect class="cls-1" width="100" height="60"/><g id="Primary"><path class="cls-2" d="M12.12,22.73c0-5.26,0-6.2-.07-7.28s-.34-1.69-1.45-1.93a7.06,7.06,0,0,0-1.15-.09c-.13,0-.27-.07-.27-.21s.17-.27.54-.27c1.52,0,3.54.1,3.81.1.74,0,2.7-.1,4.25-.1,4.22,0,5.73,1.42,6.27,1.92a5.89,5.89,0,0,1,1.69,4c0,4.79-3.51,8-8.3,8a5.54,5.54,0,0,1-.7,0c-.17,0-.37-.07-.37-.24s.2-.3.91-.3a5.6,5.6,0,0,0,5.83-5.5,7.14,7.14,0,0,0-1.89-5.19A5.87,5.87,0,0,0,16.6,14a4,4,0,0,0-1.45.21c-.2.06-.27.3-.27.64V28.66c0,3.24,0,5.9.17,7.32.1,1,.3,1.72,1.32,1.86.47.06,1.21.13,1.51.13s.27.1.27.2-.17.27-.54.27c-1.85,0-4-.1-4.14-.1s-2.23.1-3.24.1c-.37,0-.54-.06-.54-.27s.07-.2.27-.2a5.82,5.82,0,0,0,1-.13c.68-.14.84-.88,1-1.86.17-1.42.17-4.08.17-7.32Z"/><path class="cls-2" d="M32.42,22.73c0-5.26,0-6.2-.07-7.28S32,13.76,30.9,13.52a7.06,7.06,0,0,0-1.15-.09c-.13,0-.27-.07-.27-.21S29.65,13,30,13c.78,0,1.69,0,2.43,0l1.38.06c.24,0,7,0,7.72,0A8.3,8.3,0,0,0,43,12.85c.17,0,.31-.17.48-.17s.13.14.13.31-.17.64-.27,1.58c0,.34-.1,1.82-.17,2.23,0,.16-.1.37-.23.37s-.27-.17-.27-.44a3.66,3.66,0,0,0-.21-1.22c-.23-.53-.57-.94-2.39-1.14-.57-.07-4.25-.1-4.62-.1-.13,0-.2.1-.2.34v9.3c0,.24,0,.34.2.34.44,0,4.59,0,5.36-.07s1.28-.13,1.59-.47.37-.44.5-.44.17.07.17.27-.17.78-.27,1.89c-.07.67-.13,1.92-.13,2.16s0,.64-.24.64-.24-.14-.24-.31a3.58,3.58,0,0,0-.13-1.11c-.14-.47-.44-1-1.75-1.18-.92-.1-4.25-.17-4.83-.17a.21.21,0,0,0-.23.24v3c0,1.15,0,5.06,0,5.77.1,2.33.6,2.77,3.91,2.77a9.47,9.47,0,0,0,3.24-.38c.87-.36,1.28-1,1.51-2.42.07-.37.14-.51.31-.51s.2.27.2.51A32.71,32.71,0,0,1,44,37.67c-.24.88-.5.88-1.82.88-2.53,0-4.38-.07-5.7-.11s-2.12-.1-2.63-.1c-.07,0-.64,0-1.35,0s-1.45.06-1.95.06-.54-.06-.54-.27.07-.2.27-.2a5.82,5.82,0,0,0,1-.13c.67-.14.84-.88,1-1.86.17-1.42.17-4.08.17-7.32Z"/><path class="cls-2" d="M52.31,22.73c0-5.26,0-6.2-.07-7.28s-.34-1.69-1.45-1.93a7,7,0,0,0-1.14-.1c-.14,0-.27-.06-.27-.2s.16-.27.53-.27c1.52,0,3.65.1,3.82.1.37,0,2.93-.1,4-.1a10.3,10.3,0,0,1,6.17,1.49A5.87,5.87,0,0,1,66.2,19c0,2.5-1,5-4.08,7.79,2.77,3.54,5.06,6.54,7,8.63a7,7,0,0,0,4.12,2.43,8.14,8.14,0,0,0,1.31.1c.17,0,.31.1.31.2s-.2.27-.81.27h-2.4a6.75,6.75,0,0,1-3.6-.64c-1.45-.77-2.63-2.42-4.56-4.95-1.41-1.86-3-4.12-3.67-5a.55.55,0,0,0-.44-.21l-4.15-.06c-.17,0-.23.1-.23.27v.81c0,3.23,0,5.9.17,7.31.1,1,.3,1.72,1.31,1.86C57,37.9,57.7,38,58,38s.27.1.27.2-.17.27-.54.27c-1.86,0-4-.1-4.15-.1s-2.16.1-3.17.1c-.37,0-.54-.06-.54-.27s.07-.2.27-.2a5.7,5.7,0,0,0,1-.13c.68-.14.85-.88,1-1.86.17-1.41.17-4.08.17-7.31ZM55,25.66a.44.44,0,0,0,.23.41,9.39,9.39,0,0,0,3.54.54A4.35,4.35,0,0,0,61.31,26c1.18-.81,2.06-2.63,2.06-5.2,0-4.21-2.23-6.74-5.83-6.74a10.19,10.19,0,0,0-2.26.2.42.42,0,0,0-.27.41Z"/><path class="cls-2" d="M80.57,28.73c0,5,.13,7.12.74,7.73s1.41.77,4,.77c1.79,0,3.28,0,4.08-1a4.67,4.67,0,0,0,.88-2c0-.27.1-.44.3-.44s.21.13.21.5a21.73,21.73,0,0,1-.51,3.38c-.24.77-.34.91-2.12.91-2.43,0-4.19-.07-5.6-.11s-2.46-.1-3.44-.1c-.14,0-.71,0-1.38,0s-1.42.06-1.92.06-.54-.06-.54-.27.06-.2.26-.2a5.93,5.93,0,0,0,1-.13c.67-.14.84-.88,1-1.86.17-1.41.17-4.08.17-7.31V22.73c0-5.26,0-6.2-.06-7.28s-.34-1.69-1.45-1.93a7.13,7.13,0,0,0-1.15-.1c-.14,0-.27-.06-.27-.2S75,13,75.34,13c1.52,0,3.64.1,3.81.1s2.63-.1,3.64-.1c.37,0,.54.07.54.27s-.13.2-.27.2a9.18,9.18,0,0,0-1.11.1c-1,.17-1.25.75-1.32,1.93s-.06,2-.06,7.28Z"/><polygon class="cls-2" points="9.47 41.72 10.09 41.72 11.49 43.97 12.87 41.72 13.5 41.72 11.77 44.57 11.77 47.18 11.23 47.18 11.23 44.57 9.47 41.72"/><path class="cls-2" d="M17,41.58a2.85,2.85,0,0,1,2.08.83,2.88,2.88,0,0,1-2,4.91,2.81,2.81,0,0,1-2-.83,2.78,2.78,0,0,1-.83-2A2.87,2.87,0,0,1,14.54,43a2.76,2.76,0,0,1,1-1A2.8,2.8,0,0,1,17,41.58m0,.53a2.3,2.3,0,0,0-1.15.32,2.21,2.21,0,0,0-.84.85,2.27,2.27,0,0,0-.31,1.19A2.3,2.3,0,0,0,17,46.79a2.39,2.39,0,0,0,1.18-.31,2.31,2.31,0,0,0,.85-.85,2.35,2.35,0,0,0,.3-1.18A2.34,2.34,0,0,0,17,42.11"/><path class="cls-2" d="M21,41.72h.54V45a5.1,5.1,0,0,0,0,.73,1.16,1.16,0,0,0,.19.54,1.12,1.12,0,0,0,.45.36,1.41,1.41,0,0,0,.62.15,1.17,1.17,0,0,0,.52-.12,1,1,0,0,0,.42-.32,1.25,1.25,0,0,0,.24-.49A3.77,3.77,0,0,0,24.1,45v-3.3h.54V45a3.89,3.89,0,0,1-.14,1.18,1.53,1.53,0,0,1-.57.78,1.61,1.61,0,0,1-1,.34A2,2,0,0,1,21.76,47a1.47,1.47,0,0,1-.63-.83A4.34,4.34,0,0,1,21,45Z"/><path class="cls-2" d="M26,41.72h1.09a6.72,6.72,0,0,1,1.23.07,1.47,1.47,0,0,1,.79.48,1.36,1.36,0,0,1,.31.9,1.58,1.58,0,0,1-.21.79,1.37,1.37,0,0,1-.6.51,2.83,2.83,0,0,1-1.08.17l2,2.54h-.67l-2-2.54h-.31v2.54H26Zm.54.53v1.86h1a2.24,2.24,0,0,0,.8-.11.8.8,0,0,0,.41-.33.93.93,0,0,0,0-1,.81.81,0,0,0-.39-.32,2.21,2.21,0,0,0-.8-.1Z"/><polygon class="cls-2" points="32.67 41.72 33.71 41.72 33.71 46.19 35.23 46.19 35.23 47.18 32.67 47.18 32.67 41.72"/><polygon class="cls-2" points="36.02 41.72 39 41.72 39 42.73 37.05 42.73 37.05 43.72 39 43.72 39 44.72 37.05 44.72 37.05 46.16 39 46.16 39 47.18 36.02 47.18 36.02 41.72"/><polygon class="cls-2" points="39.98 41.72 40.97 41.72 43.31 45.31 43.31 41.72 44.35 41.72 44.35 47.18 43.35 47.18 41.02 43.6 41.02 47.18 39.98 47.18 39.98 41.72"/><path class="cls-2" d="M45.6,41.72h1.23A4.14,4.14,0,0,1,48.6,42a2.33,2.33,0,0,1,1,1,3.12,3.12,0,0,1,.37,1.55,3.16,3.16,0,0,1-.21,1.17,2.33,2.33,0,0,1-.58.87,1.93,1.93,0,0,1-.8.49,5.63,5.63,0,0,1-1.49.13H45.6Zm1,1v3.45h.49a2.37,2.37,0,0,0,1-.17,1.23,1.23,0,0,0,.53-.55,2.09,2.09,0,0,0,.2-1,1.79,1.79,0,0,0-.49-1.35,1.92,1.92,0,0,0-1.4-.43Z"/><polygon class="cls-2" points="50.93 41.72 53.91 41.72 53.91 42.73 51.96 42.73 51.96 43.72 53.91 43.72 53.91 44.72 51.96 44.72 51.96 46.16 53.91 46.16 53.91 47.18 50.93 47.18 50.93 41.72"/><path class="cls-2" d="M55,41.72h1.1a3.63,3.63,0,0,1,1.29.16,1.35,1.35,0,0,1,.62.54,1.67,1.67,0,0,1,.23.88,1.45,1.45,0,0,1-.26.9,1.48,1.48,0,0,1-.78.55l1.3,2.43H57.31l-1.23-2.31H56v2.31H55Zm1,2.13h.32a1.26,1.26,0,0,0,.69-.13.49.49,0,0,0,.18-.43.54.54,0,0,0-.09-.31.48.48,0,0,0-.25-.19,1.78,1.78,0,0,0-.57-.06H56Z"/><polygon class="cls-2" points="61.46 41.72 64.2 41.72 64.2 42.25 62.01 42.25 62.01 43.96 64.2 43.96 64.2 44.5 62.01 44.5 62.01 47.18 61.46 47.18 61.46 41.72"/><path class="cls-2" d="M67.75,41.58a2.85,2.85,0,0,1,2.08.83,2.88,2.88,0,0,1-2,4.91,2.81,2.81,0,0,1-2.05-.83,2.74,2.74,0,0,1-.83-2A2.87,2.87,0,0,1,65.29,43a2.76,2.76,0,0,1,1-1,2.8,2.8,0,0,1,1.42-.38m0,.53a2.3,2.3,0,0,0-1.15.32,2.21,2.21,0,0,0-.84.85,2.32,2.32,0,0,0,2,3.51A2.39,2.39,0,0,0,69,46.48a2.21,2.21,0,0,0,.84-.85,2.26,2.26,0,0,0,.31-1.18,2.24,2.24,0,0,0-.31-1.18,2.21,2.21,0,0,0-.85-.84,2.34,2.34,0,0,0-1.17-.32"/><path class="cls-2" d="M71.79,41.72h1.09a6.72,6.72,0,0,1,1.23.07,1.47,1.47,0,0,1,.79.48,1.36,1.36,0,0,1,.3.9A1.48,1.48,0,0,1,75,44a1.37,1.37,0,0,1-.6.51,2.81,2.81,0,0,1-1.07.17l2,2.54h-.67l-2-2.54h-.31v2.54h-.54Zm.54.53v1.86h.94a2.26,2.26,0,0,0,.81-.11.84.84,0,0,0,.41-.33.93.93,0,0,0,0-1,.81.81,0,0,0-.39-.32,2.21,2.21,0,0,0-.8-.1Z"/><polygon class="cls-2" points="78.48 41.72 79.03 41.72 79.03 46.65 81.13 46.65 81.13 47.18 78.48 47.18 78.48 41.72"/><rect class="cls-2" x="81.91" y="41.72" width="0.55" height="5.46"/><polygon class="cls-2" points="83.71 41.72 86.45 41.72 86.45 42.25 84.26 42.25 84.26 43.96 86.45 43.96 86.45 44.5 84.26 44.5 84.26 47.18 83.71 47.18 83.71 41.72"/><polygon class="cls-2" points="87.4 41.72 90.53 41.72 90.53 42.25 87.95 42.25 87.95 43.96 90.51 43.96 90.51 44.5 87.95 44.5 87.95 46.65 90.51 46.65 90.51 47.18 87.4 47.18 87.4 41.72"/></g></svg>